%TF.GenerationSoftware,KiCad,Pcbnew,8.0.5*%
%TF.CreationDate,2025-06-09T19:50:20-04:00*%
%TF.ProjectId,fmcw_pcb,666d6377-5f70-4636-922e-6b696361645f,rev?*%
%TF.SameCoordinates,Original*%
%TF.FileFunction,Paste,Top*%
%TF.FilePolarity,Positive*%
%FSLAX46Y46*%
G04 Gerber Fmt 4.6, Leading zero omitted, Abs format (unit mm)*
G04 Created by KiCad (PCBNEW 8.0.5) date 2025-06-09 19:50:20*
%MOMM*%
%LPD*%
G01*
G04 APERTURE LIST*
G04 Aperture macros list*
%AMRoundRect*
0 Rectangle with rounded corners*
0 $1 Rounding radius*
0 $2 $3 $4 $5 $6 $7 $8 $9 X,Y pos of 4 corners*
0 Add a 4 corners polygon primitive as box body*
4,1,4,$2,$3,$4,$5,$6,$7,$8,$9,$2,$3,0*
0 Add four circle primitives for the rounded corners*
1,1,$1+$1,$2,$3*
1,1,$1+$1,$4,$5*
1,1,$1+$1,$6,$7*
1,1,$1+$1,$8,$9*
0 Add four rect primitives between the rounded corners*
20,1,$1+$1,$2,$3,$4,$5,0*
20,1,$1+$1,$4,$5,$6,$7,0*
20,1,$1+$1,$6,$7,$8,$9,0*
20,1,$1+$1,$8,$9,$2,$3,0*%
G04 Aperture macros list end*
%ADD10C,0.010000*%
%ADD11RoundRect,0.250000X0.787500X0.925000X-0.787500X0.925000X-0.787500X-0.925000X0.787500X-0.925000X0*%
%ADD12R,1.651000X2.540000*%
%ADD13RoundRect,0.225000X0.250000X-0.225000X0.250000X0.225000X-0.250000X0.225000X-0.250000X-0.225000X0*%
%ADD14RoundRect,0.250000X0.475000X-0.250000X0.475000X0.250000X-0.475000X0.250000X-0.475000X-0.250000X0*%
%ADD15RoundRect,0.218750X0.218750X0.256250X-0.218750X0.256250X-0.218750X-0.256250X0.218750X-0.256250X0*%
%ADD16RoundRect,0.375000X0.375000X1.575000X-0.375000X1.575000X-0.375000X-1.575000X0.375000X-1.575000X0*%
%ADD17RoundRect,0.250000X-0.262500X-0.450000X0.262500X-0.450000X0.262500X0.450000X-0.262500X0.450000X0*%
%ADD18RoundRect,0.250000X0.250000X0.475000X-0.250000X0.475000X-0.250000X-0.475000X0.250000X-0.475000X0*%
%ADD19RoundRect,0.250000X0.450000X-0.262500X0.450000X0.262500X-0.450000X0.262500X-0.450000X-0.262500X0*%
%ADD20R,0.475000X0.375000*%
%ADD21RoundRect,0.225000X-0.225000X-0.250000X0.225000X-0.250000X0.225000X0.250000X-0.225000X0.250000X0*%
%ADD22R,0.558800X0.355600*%
%ADD23R,1.244600X0.558800*%
%ADD24RoundRect,0.250000X-0.450000X0.262500X-0.450000X-0.262500X0.450000X-0.262500X0.450000X0.262500X0*%
%ADD25R,0.375000X0.475000*%
%ADD26RoundRect,0.375000X-0.375000X-1.575000X0.375000X-1.575000X0.375000X1.575000X-0.375000X1.575000X0*%
%ADD27RoundRect,0.218750X-0.256250X0.218750X-0.256250X-0.218750X0.256250X-0.218750X0.256250X0.218750X0*%
%ADD28RoundRect,0.375000X-1.575000X0.375000X-1.575000X-0.375000X1.575000X-0.375000X1.575000X0.375000X0*%
%ADD29RoundRect,0.341463X-0.358537X-0.358537X0.358537X-0.358537X0.358537X0.358537X-0.358537X0.358537X0*%
%ADD30RoundRect,0.060000X0.625000X0.180000X-0.625000X0.180000X-0.625000X-0.180000X0.625000X-0.180000X0*%
%ADD31RoundRect,0.152500X-0.382500X-0.152500X0.382500X-0.152500X0.382500X0.152500X-0.382500X0.152500X0*%
%ADD32RoundRect,0.250000X-0.475000X0.250000X-0.475000X-0.250000X0.475000X-0.250000X0.475000X0.250000X0*%
%ADD33RoundRect,0.341463X0.358537X-0.358537X0.358537X0.358537X-0.358537X0.358537X-0.358537X-0.358537X0*%
%ADD34RoundRect,0.250000X0.262500X0.450000X-0.262500X0.450000X-0.262500X-0.450000X0.262500X-0.450000X0*%
%ADD35R,0.355600X0.558800*%
%ADD36R,0.558800X1.244600*%
%ADD37RoundRect,0.073750X-0.531250X-0.221250X0.531250X-0.221250X0.531250X0.221250X-0.531250X0.221250X0*%
%ADD38RoundRect,0.250000X-0.250000X-0.475000X0.250000X-0.475000X0.250000X0.475000X-0.250000X0.475000X0*%
%ADD39R,0.553999X0.254800*%
%ADD40R,1.245400X0.553999*%
%ADD41R,0.500000X0.580000*%
%ADD42R,0.800000X0.580000*%
%ADD43RoundRect,0.218750X-0.218750X-0.256250X0.218750X-0.256250X0.218750X0.256250X-0.218750X0.256250X0*%
%ADD44R,0.675000X0.400000*%
%ADD45R,5.450000X2.955000*%
%ADD46R,2.900000X0.890000*%
%ADD47R,1.350000X0.400000*%
%ADD48R,1.550000X1.500000*%
%ADD49RoundRect,0.058750X-0.651250X-0.176250X0.651250X-0.176250X0.651250X0.176250X-0.651250X0.176250X0*%
G04 APERTURE END LIST*
D10*
%TO.C,J1*%
X51101000Y-122127800D02*
X51127000Y-122129800D01*
X51153000Y-122132800D01*
X51179000Y-122137800D01*
X51204000Y-122143800D01*
X51230000Y-122150800D01*
X51254000Y-122159800D01*
X51278000Y-122169800D01*
X51302000Y-122180800D01*
X51325000Y-122193800D01*
X51347000Y-122207800D01*
X51369000Y-122221800D01*
X51390000Y-122237800D01*
X51410000Y-122254800D01*
X51429000Y-122272800D01*
X51447000Y-122291800D01*
X51464000Y-122311800D01*
X51480000Y-122332800D01*
X51494000Y-122354800D01*
X51508000Y-122376800D01*
X51521000Y-122399800D01*
X51532000Y-122423800D01*
X51542000Y-122447800D01*
X51551000Y-122471800D01*
X51558000Y-122497800D01*
X51564000Y-122522800D01*
X51569000Y-122548800D01*
X51572000Y-122574800D01*
X51574000Y-122600800D01*
X51575000Y-122626800D01*
X51575000Y-123771800D01*
X50025000Y-123771800D01*
X50025000Y-122626800D01*
X50026000Y-122600800D01*
X50028000Y-122574800D01*
X50031000Y-122548800D01*
X50036000Y-122522800D01*
X50042000Y-122497800D01*
X50049000Y-122471800D01*
X50058000Y-122447800D01*
X50068000Y-122423800D01*
X50079000Y-122399800D01*
X50092000Y-122376800D01*
X50106000Y-122354800D01*
X50120000Y-122332800D01*
X50136000Y-122311800D01*
X50153000Y-122291800D01*
X50171000Y-122272800D01*
X50190000Y-122254800D01*
X50210000Y-122237800D01*
X50231000Y-122221800D01*
X50253000Y-122207800D01*
X50275000Y-122193800D01*
X50298000Y-122180800D01*
X50322000Y-122169800D01*
X50346000Y-122159800D01*
X50370000Y-122150800D01*
X50396000Y-122143800D01*
X50421000Y-122137800D01*
X50447000Y-122132800D01*
X50473000Y-122129800D01*
X50499000Y-122127800D01*
X50525000Y-122126800D01*
X51075000Y-122126800D01*
X51101000Y-122127800D01*
G36*
X51101000Y-122127800D02*
G01*
X51127000Y-122129800D01*
X51153000Y-122132800D01*
X51179000Y-122137800D01*
X51204000Y-122143800D01*
X51230000Y-122150800D01*
X51254000Y-122159800D01*
X51278000Y-122169800D01*
X51302000Y-122180800D01*
X51325000Y-122193800D01*
X51347000Y-122207800D01*
X51369000Y-122221800D01*
X51390000Y-122237800D01*
X51410000Y-122254800D01*
X51429000Y-122272800D01*
X51447000Y-122291800D01*
X51464000Y-122311800D01*
X51480000Y-122332800D01*
X51494000Y-122354800D01*
X51508000Y-122376800D01*
X51521000Y-122399800D01*
X51532000Y-122423800D01*
X51542000Y-122447800D01*
X51551000Y-122471800D01*
X51558000Y-122497800D01*
X51564000Y-122522800D01*
X51569000Y-122548800D01*
X51572000Y-122574800D01*
X51574000Y-122600800D01*
X51575000Y-122626800D01*
X51575000Y-123771800D01*
X50025000Y-123771800D01*
X50025000Y-122626800D01*
X50026000Y-122600800D01*
X50028000Y-122574800D01*
X50031000Y-122548800D01*
X50036000Y-122522800D01*
X50042000Y-122497800D01*
X50049000Y-122471800D01*
X50058000Y-122447800D01*
X50068000Y-122423800D01*
X50079000Y-122399800D01*
X50092000Y-122376800D01*
X50106000Y-122354800D01*
X50120000Y-122332800D01*
X50136000Y-122311800D01*
X50153000Y-122291800D01*
X50171000Y-122272800D01*
X50190000Y-122254800D01*
X50210000Y-122237800D01*
X50231000Y-122221800D01*
X50253000Y-122207800D01*
X50275000Y-122193800D01*
X50298000Y-122180800D01*
X50322000Y-122169800D01*
X50346000Y-122159800D01*
X50370000Y-122150800D01*
X50396000Y-122143800D01*
X50421000Y-122137800D01*
X50447000Y-122132800D01*
X50473000Y-122129800D01*
X50499000Y-122127800D01*
X50525000Y-122126800D01*
X51075000Y-122126800D01*
X51101000Y-122127800D01*
G37*
X51575000Y-129516800D02*
X51574000Y-129542800D01*
X51572000Y-129568800D01*
X51569000Y-129594800D01*
X51564000Y-129620800D01*
X51558000Y-129645800D01*
X51551000Y-129671800D01*
X51542000Y-129695800D01*
X51532000Y-129719800D01*
X51521000Y-129743800D01*
X51508000Y-129766800D01*
X51494000Y-129788800D01*
X51480000Y-129810800D01*
X51464000Y-129831800D01*
X51447000Y-129851800D01*
X51429000Y-129870800D01*
X51410000Y-129888800D01*
X51390000Y-129905800D01*
X51369000Y-129921800D01*
X51347000Y-129935800D01*
X51325000Y-129949800D01*
X51302000Y-129962800D01*
X51278000Y-129973800D01*
X51254000Y-129983800D01*
X51230000Y-129992800D01*
X51204000Y-129999800D01*
X51179000Y-130005800D01*
X51153000Y-130010800D01*
X51127000Y-130013800D01*
X51101000Y-130015800D01*
X51075000Y-130016800D01*
X50525000Y-130016800D01*
X50499000Y-130015800D01*
X50473000Y-130013800D01*
X50447000Y-130010800D01*
X50421000Y-130005800D01*
X50396000Y-129999800D01*
X50370000Y-129992800D01*
X50346000Y-129983800D01*
X50322000Y-129973800D01*
X50298000Y-129962800D01*
X50275000Y-129949800D01*
X50253000Y-129935800D01*
X50231000Y-129921800D01*
X50210000Y-129905800D01*
X50190000Y-129888800D01*
X50171000Y-129870800D01*
X50153000Y-129851800D01*
X50136000Y-129831800D01*
X50120000Y-129810800D01*
X50106000Y-129788800D01*
X50092000Y-129766800D01*
X50079000Y-129743800D01*
X50068000Y-129719800D01*
X50058000Y-129695800D01*
X50049000Y-129671800D01*
X50042000Y-129645800D01*
X50036000Y-129620800D01*
X50031000Y-129594800D01*
X50028000Y-129568800D01*
X50026000Y-129542800D01*
X50025000Y-129516800D01*
X50025000Y-128371800D01*
X51575000Y-128371800D01*
X51575000Y-129516800D01*
G36*
X51575000Y-129516800D02*
G01*
X51574000Y-129542800D01*
X51572000Y-129568800D01*
X51569000Y-129594800D01*
X51564000Y-129620800D01*
X51558000Y-129645800D01*
X51551000Y-129671800D01*
X51542000Y-129695800D01*
X51532000Y-129719800D01*
X51521000Y-129743800D01*
X51508000Y-129766800D01*
X51494000Y-129788800D01*
X51480000Y-129810800D01*
X51464000Y-129831800D01*
X51447000Y-129851800D01*
X51429000Y-129870800D01*
X51410000Y-129888800D01*
X51390000Y-129905800D01*
X51369000Y-129921800D01*
X51347000Y-129935800D01*
X51325000Y-129949800D01*
X51302000Y-129962800D01*
X51278000Y-129973800D01*
X51254000Y-129983800D01*
X51230000Y-129992800D01*
X51204000Y-129999800D01*
X51179000Y-130005800D01*
X51153000Y-130010800D01*
X51127000Y-130013800D01*
X51101000Y-130015800D01*
X51075000Y-130016800D01*
X50525000Y-130016800D01*
X50499000Y-130015800D01*
X50473000Y-130013800D01*
X50447000Y-130010800D01*
X50421000Y-130005800D01*
X50396000Y-129999800D01*
X50370000Y-129992800D01*
X50346000Y-129983800D01*
X50322000Y-129973800D01*
X50298000Y-129962800D01*
X50275000Y-129949800D01*
X50253000Y-129935800D01*
X50231000Y-129921800D01*
X50210000Y-129905800D01*
X50190000Y-129888800D01*
X50171000Y-129870800D01*
X50153000Y-129851800D01*
X50136000Y-129831800D01*
X50120000Y-129810800D01*
X50106000Y-129788800D01*
X50092000Y-129766800D01*
X50079000Y-129743800D01*
X50068000Y-129719800D01*
X50058000Y-129695800D01*
X50049000Y-129671800D01*
X50042000Y-129645800D01*
X50036000Y-129620800D01*
X50031000Y-129594800D01*
X50028000Y-129568800D01*
X50026000Y-129542800D01*
X50025000Y-129516800D01*
X50025000Y-128371800D01*
X51575000Y-128371800D01*
X51575000Y-129516800D01*
G37*
%TD*%
D11*
%TO.C,C26*%
X138925000Y-98600000D03*
X134000000Y-98600000D03*
%TD*%
D12*
%TO.C,MIX1*%
X106000000Y-100349000D03*
X108540000Y-100349000D03*
X111080000Y-100349000D03*
X111080000Y-95269000D03*
X108540000Y-95269000D03*
X106000000Y-95269000D03*
%TD*%
D13*
%TO.C,C7*%
X62800000Y-97625000D03*
X62800000Y-96075000D03*
%TD*%
D14*
%TO.C,C8*%
X58971800Y-89100000D03*
X58971800Y-87200000D03*
%TD*%
D15*
%TO.C,L2*%
X112655000Y-114900000D03*
X111080000Y-114900000D03*
%TD*%
D16*
%TO.C,J4*%
X109780000Y-135500000D03*
X112555000Y-135500000D03*
X107005000Y-135500000D03*
%TD*%
D17*
%TO.C,R9*%
X118875000Y-73000000D03*
X120700000Y-73000000D03*
%TD*%
D14*
%TO.C,C1*%
X68471800Y-116800000D03*
X68471800Y-114900000D03*
%TD*%
D18*
%TO.C,C24*%
X135400000Y-94000000D03*
X133500000Y-94000000D03*
%TD*%
D19*
%TO.C,R3*%
X58000000Y-100400000D03*
X58000000Y-98575000D03*
%TD*%
D20*
%TO.C,AT1*%
X72845800Y-77651000D03*
X72845800Y-76975000D03*
X71871800Y-76975000D03*
X71871800Y-77651000D03*
%TD*%
D18*
%TO.C,C13*%
X120100000Y-122700000D03*
X118200000Y-122700000D03*
%TD*%
D21*
%TO.C,C3*%
X87646800Y-89710000D03*
X89196800Y-89710000D03*
%TD*%
D22*
%TO.C,BPF1*%
X92200000Y-89710000D03*
D23*
X93228700Y-89062300D03*
D22*
X94257400Y-89710000D03*
D23*
X93228700Y-90357700D03*
%TD*%
D24*
%TO.C,R15*%
X85700000Y-81575000D03*
X85700000Y-83400000D03*
%TD*%
D25*
%TO.C,AT4*%
X115324000Y-89694000D03*
X116000000Y-89694000D03*
X116000000Y-88720000D03*
X115324000Y-88720000D03*
%TD*%
D24*
%TO.C,R19*%
X63571800Y-105100000D03*
X63571800Y-106925000D03*
%TD*%
D26*
%TO.C,J6*%
X71871800Y-72500000D03*
X69096800Y-72500000D03*
X74646800Y-72500000D03*
%TD*%
D27*
%TO.C,L1*%
X85671800Y-88135000D03*
X85671800Y-89710000D03*
%TD*%
D28*
%TO.C,J8*%
X145800000Y-107500000D03*
X145800000Y-104725000D03*
X145800000Y-110275000D03*
%TD*%
D29*
%TO.C,R5*%
X71871800Y-91730000D03*
D17*
X73696800Y-91730000D03*
D19*
X71871800Y-89905000D03*
%TD*%
%TO.C,R1*%
X140400000Y-86600000D03*
X140400000Y-84775000D03*
%TD*%
D29*
%TO.C,R6*%
X105700000Y-88720000D03*
D17*
X107525000Y-88720000D03*
D19*
X105700000Y-86895000D03*
%TD*%
D30*
%TO.C,OA1*%
X57800000Y-105625000D03*
X57800000Y-104975000D03*
X57800000Y-104325000D03*
X57800000Y-103675000D03*
X55500000Y-103675000D03*
X55500000Y-104325000D03*
X55500000Y-104975000D03*
X55500000Y-105625000D03*
%TD*%
D19*
%TO.C,R8*%
X60200000Y-108900000D03*
X60200000Y-107075000D03*
%TD*%
D24*
%TO.C,R4*%
X53800000Y-96575000D03*
X53800000Y-98400000D03*
%TD*%
D18*
%TO.C,C9*%
X53700000Y-93300000D03*
X51800000Y-93300000D03*
%TD*%
D31*
%TO.C,SPLT1*%
X97000000Y-88720000D03*
X97000000Y-89710000D03*
X97000000Y-90700000D03*
X99050000Y-90700000D03*
X99050000Y-89710000D03*
X99050000Y-88720000D03*
%TD*%
D11*
%TO.C,C25*%
X113100000Y-82700000D03*
X108175000Y-82700000D03*
%TD*%
D13*
%TO.C,C10*%
X109780000Y-124125000D03*
X109780000Y-122575000D03*
%TD*%
D32*
%TO.C,C5*%
X90200000Y-81600000D03*
X90200000Y-83500000D03*
%TD*%
D33*
%TO.C,R16*%
X111075000Y-107527500D03*
D19*
X111075000Y-105702500D03*
D17*
X112900000Y-107527500D03*
%TD*%
D18*
%TO.C,C27*%
X122900000Y-80000000D03*
X121000000Y-80000000D03*
%TD*%
D34*
%TO.C,R10*%
X122800000Y-76500000D03*
X120975000Y-76500000D03*
%TD*%
D35*
%TO.C,BPF2*%
X109780000Y-129000000D03*
D36*
X109132300Y-127971300D03*
D35*
X109780000Y-126942600D03*
D36*
X110427700Y-127971300D03*
%TD*%
D37*
%TO.C,LDO1*%
X62666800Y-114795000D03*
X62666800Y-115745000D03*
X62666800Y-116695000D03*
X65176800Y-116695000D03*
X65176800Y-114795000D03*
%TD*%
D38*
%TO.C,C36*%
X87900000Y-104325000D03*
X89800000Y-104325000D03*
%TD*%
D39*
%TO.C,FL1*%
X135573700Y-86600000D03*
D40*
X136600000Y-87245300D03*
D39*
X137626300Y-86600000D03*
D40*
X136600000Y-85954700D03*
%TD*%
D41*
%TO.C,GB1*%
X81971800Y-91730000D03*
D42*
X83121800Y-91730000D03*
D41*
X83271800Y-89710000D03*
X81971800Y-89710000D03*
%TD*%
D43*
%TO.C,L8*%
X97050000Y-104325000D03*
X98625000Y-104325000D03*
%TD*%
D20*
%TO.C,AT5*%
X104300000Y-77476000D03*
X104300000Y-76800000D03*
X103326000Y-76800000D03*
X103326000Y-77476000D03*
%TD*%
D17*
%TO.C,R12*%
X82375000Y-108600000D03*
X84200000Y-108600000D03*
%TD*%
D26*
%TO.C,J7*%
X103326000Y-72500000D03*
X100551000Y-72500000D03*
X106101000Y-72500000D03*
%TD*%
D19*
%TO.C,R14*%
X84200000Y-104325000D03*
X84200000Y-102500000D03*
%TD*%
D18*
%TO.C,C23*%
X135400000Y-90000000D03*
X133500000Y-90000000D03*
%TD*%
D26*
%TO.C,J5*%
X140400000Y-72500000D03*
X137625000Y-72500000D03*
X143175000Y-72500000D03*
%TD*%
D20*
%TO.C,AT6*%
X141374000Y-77800000D03*
X141374000Y-77124000D03*
X140400000Y-77124000D03*
X140400000Y-77800000D03*
%TD*%
D13*
%TO.C,C34*%
X101400000Y-106050000D03*
X101400000Y-104500000D03*
%TD*%
D34*
%TO.C,R11*%
X119825000Y-114400000D03*
X118000000Y-114400000D03*
%TD*%
D25*
%TO.C,AT3*%
X111268000Y-89694000D03*
X111944000Y-89694000D03*
X111944000Y-88720000D03*
X111268000Y-88720000D03*
%TD*%
D28*
%TO.C,J2*%
X145800000Y-86600000D03*
X145800000Y-83825000D03*
X145800000Y-89375000D03*
%TD*%
D21*
%TO.C,C2*%
X77346800Y-91730000D03*
X78896800Y-91730000D03*
%TD*%
D13*
%TO.C,C35*%
X93400000Y-106050000D03*
X93400000Y-104500000D03*
%TD*%
D41*
%TO.C,GB2*%
X109780000Y-119400000D03*
D42*
X110930000Y-119400000D03*
D41*
X111080000Y-117380000D03*
X109780000Y-117380000D03*
%TD*%
D44*
%TO.C,PA1*%
X124360000Y-84480000D03*
X124360000Y-85540000D03*
X124360000Y-86600000D03*
X124360000Y-87660000D03*
X124360000Y-88720000D03*
X124360000Y-89780000D03*
X124360000Y-90840000D03*
X131034000Y-90840000D03*
X131034000Y-89780000D03*
X131034000Y-88720000D03*
X131034000Y-87660000D03*
X131034000Y-86600000D03*
X131034000Y-85540000D03*
X131034000Y-84480000D03*
D45*
X127697000Y-89582000D03*
X127697000Y-85737000D03*
D46*
X127697000Y-87660000D03*
%TD*%
D13*
%TO.C,C11*%
X111080000Y-112425000D03*
X111080000Y-110875000D03*
%TD*%
D32*
%TO.C,C4*%
X94500000Y-81600000D03*
X94500000Y-83500000D03*
%TD*%
D18*
%TO.C,C12*%
X120000000Y-118600000D03*
X118100000Y-118600000D03*
%TD*%
D47*
%TO.C,J1*%
X53475000Y-124771800D03*
X53475000Y-125421800D03*
X53475000Y-126071800D03*
X53475000Y-126721800D03*
X53475000Y-127371800D03*
D48*
X50800000Y-127071800D03*
X50800000Y-125071800D03*
%TD*%
D24*
%TO.C,R2*%
X101700000Y-88720000D03*
X101700000Y-90545000D03*
%TD*%
D49*
%TO.C,VCO1*%
X59041800Y-91080000D03*
X59041800Y-91730000D03*
X59041800Y-92380000D03*
X59041800Y-93030000D03*
X63371800Y-93030000D03*
X63371800Y-92380000D03*
X63371800Y-91730000D03*
X63371800Y-91080000D03*
%TD*%
D25*
%TO.C,AT2*%
X67671800Y-92704000D03*
X68347800Y-92704000D03*
X68347800Y-91730000D03*
X67671800Y-91730000D03*
%TD*%
D13*
%TO.C,C6*%
X67200000Y-97625000D03*
X67200000Y-96075000D03*
%TD*%
D25*
%TO.C,AT7*%
X129400000Y-108474000D03*
X130076000Y-108474000D03*
X130076000Y-107500000D03*
X129400000Y-107500000D03*
%TD*%
D18*
%TO.C,C21*%
X121100000Y-86100000D03*
X119200000Y-86100000D03*
%TD*%
D14*
%TO.C,C22*%
X116800000Y-82500000D03*
X116800000Y-80600000D03*
%TD*%
M02*
