%TF.GenerationSoftware,KiCad,Pcbnew,8.0.5*%
%TF.CreationDate,2025-06-09T19:54:07-04:00*%
%TF.ProjectId,fmcw_pcb,666d6377-5f70-4636-922e-6b696361645f,rev?*%
%TF.SameCoordinates,Original*%
%TF.FileFunction,Drillmap*%
%TF.FilePolarity,Positive*%
%FSLAX45Y45*%
G04 Gerber Fmt 4.5, Leading zero omitted, Abs format (unit mm)*
G04 Created by KiCad (PCBNEW 8.0.5) date 2025-06-09 19:54:07*
%MOMM*%
%LPD*%
G01*
G04 APERTURE LIST*
%ADD10C,0.050000*%
%ADD11C,0.200000*%
%ADD12C,0.100000*%
%ADD13C,0.102000*%
G04 APERTURE END LIST*
D10*
X4930000Y-7020000D02*
X14810000Y-7020000D01*
X14810000Y-13780000D01*
X4930000Y-13780000D01*
X4930000Y-7020000D01*
D11*
D12*
X5035000Y-9805000D02*
X5065000Y-9835000D01*
X5065000Y-9805000D02*
X5035000Y-9835000D01*
X5045000Y-9265000D02*
X5075000Y-9295000D01*
X5075000Y-9265000D02*
X5045000Y-9295000D01*
X5045000Y-9365000D02*
X5075000Y-9395000D01*
X5075000Y-9365000D02*
X5045000Y-9395000D01*
X5045000Y-9605000D02*
X5075000Y-9635000D01*
X5075000Y-9605000D02*
X5045000Y-9635000D01*
X5045000Y-10055000D02*
X5075000Y-10085000D01*
X5075000Y-10055000D02*
X5045000Y-10085000D01*
X5055000Y-8195000D02*
X5085000Y-8225000D01*
X5085000Y-8195000D02*
X5055000Y-8225000D01*
X5055000Y-9065000D02*
X5085000Y-9095000D01*
X5085000Y-9065000D02*
X5055000Y-9095000D01*
X5055000Y-11295000D02*
X5085000Y-11325000D01*
X5085000Y-11295000D02*
X5055000Y-11325000D01*
X5055000Y-11475000D02*
X5085000Y-11505000D01*
X5085000Y-11475000D02*
X5055000Y-11505000D01*
X5065000Y-10255000D02*
X5095000Y-10285000D01*
X5095000Y-10255000D02*
X5065000Y-10285000D01*
X5065000Y-10685000D02*
X5095000Y-10715000D01*
X5095000Y-10685000D02*
X5065000Y-10715000D01*
X5065000Y-10885000D02*
X5095000Y-10915000D01*
X5095000Y-10885000D02*
X5065000Y-10915000D01*
X5065000Y-11085000D02*
X5095000Y-11115000D01*
X5095000Y-11085000D02*
X5065000Y-11115000D01*
X5075000Y-7345000D02*
X5105000Y-7375000D01*
X5105000Y-7345000D02*
X5075000Y-7375000D01*
X5075000Y-8395000D02*
X5105000Y-8425000D01*
X5105000Y-8395000D02*
X5075000Y-8425000D01*
X5075000Y-8655000D02*
X5105000Y-8685000D01*
X5105000Y-8655000D02*
X5075000Y-8685000D01*
X5075000Y-8855000D02*
X5105000Y-8885000D01*
X5105000Y-8855000D02*
X5075000Y-8885000D01*
X5075000Y-11725000D02*
X5105000Y-11755000D01*
X5105000Y-11725000D02*
X5075000Y-11755000D01*
X5075000Y-11915000D02*
X5105000Y-11945000D01*
X5105000Y-11915000D02*
X5075000Y-11945000D01*
X5085000Y-10495000D02*
X5115000Y-10525000D01*
X5115000Y-10495000D02*
X5085000Y-10525000D01*
X5095000Y-7905000D02*
X5125000Y-7935000D01*
X5125000Y-7905000D02*
X5095000Y-7935000D01*
X5105000Y-7615000D02*
X5135000Y-7645000D01*
X5135000Y-7615000D02*
X5105000Y-7645000D01*
X5155000Y-13225000D02*
X5185000Y-13255000D01*
X5185000Y-13225000D02*
X5155000Y-13255000D01*
X5215000Y-11665000D02*
X5245000Y-11695000D01*
X5245000Y-11665000D02*
X5215000Y-11695000D01*
X5245000Y-13405000D02*
X5275000Y-13435000D01*
X5275000Y-13405000D02*
X5245000Y-13435000D01*
X5345000Y-10835000D02*
X5375000Y-10865000D01*
X5375000Y-10835000D02*
X5345000Y-10865000D01*
X5345000Y-11435000D02*
X5375000Y-11465000D01*
X5375000Y-11435000D02*
X5345000Y-11465000D01*
X5365000Y-11965000D02*
X5395000Y-11995000D01*
X5395000Y-11965000D02*
X5365000Y-11995000D01*
X5385000Y-13565000D02*
X5415000Y-13595000D01*
X5415000Y-13565000D02*
X5385000Y-13595000D01*
X5405000Y-10555000D02*
X5435000Y-10585000D01*
X5435000Y-10555000D02*
X5405000Y-10585000D01*
X5425000Y-11105000D02*
X5455000Y-11135000D01*
X5455000Y-11105000D02*
X5425000Y-11135000D01*
X5485000Y-7775000D02*
X5515000Y-7805000D01*
X5515000Y-7775000D02*
X5485000Y-7805000D01*
X5485000Y-12725000D02*
X5515000Y-12755000D01*
X5515000Y-12725000D02*
X5485000Y-12755000D01*
X5575000Y-9275000D02*
X5605000Y-9305000D01*
X5605000Y-9275000D02*
X5575000Y-9305000D01*
X5605000Y-10245000D02*
X5635000Y-10275000D01*
X5635000Y-10245000D02*
X5605000Y-10275000D01*
X5645000Y-11325000D02*
X5675000Y-11355000D01*
X5675000Y-11325000D02*
X5645000Y-11355000D01*
X5655000Y-10035000D02*
X5685000Y-10065000D01*
X5685000Y-10035000D02*
X5655000Y-10065000D01*
X5655000Y-13015000D02*
X5685000Y-13045000D01*
X5685000Y-13015000D02*
X5655000Y-13045000D01*
X5665000Y-13565000D02*
X5695000Y-13595000D01*
X5695000Y-13565000D02*
X5665000Y-13595000D01*
X5735000Y-11105000D02*
X5765000Y-11135000D01*
X5765000Y-11105000D02*
X5735000Y-11135000D01*
X5755000Y-9225000D02*
X5785000Y-9255000D01*
X5785000Y-9225000D02*
X5755000Y-9255000D01*
X5775000Y-12515000D02*
X5805000Y-12545000D01*
X5805000Y-12515000D02*
X5775000Y-12545000D01*
X5845000Y-8595000D02*
X5875000Y-8625000D01*
X5875000Y-8595000D02*
X5845000Y-8625000D01*
X5885000Y-7595000D02*
X5915000Y-7625000D01*
X5915000Y-7595000D02*
X5885000Y-7625000D01*
X5885000Y-8035000D02*
X5915000Y-8065000D01*
X5915000Y-8035000D02*
X5885000Y-8065000D01*
X5885000Y-8485000D02*
X5915000Y-8515000D01*
X5915000Y-8485000D02*
X5885000Y-8515000D01*
X5895000Y-7175000D02*
X5925000Y-7205000D01*
X5925000Y-7175000D02*
X5895000Y-7205000D01*
X5905000Y-10345000D02*
X5935000Y-10375000D01*
X5935000Y-10345000D02*
X5905000Y-10375000D01*
X5915000Y-10025000D02*
X5945000Y-10055000D01*
X5945000Y-10025000D02*
X5915000Y-10055000D01*
X5915000Y-11425000D02*
X5945000Y-11455000D01*
X5945000Y-11425000D02*
X5915000Y-11455000D01*
X5915000Y-13575000D02*
X5945000Y-13605000D01*
X5945000Y-13575000D02*
X5915000Y-13605000D01*
X5925000Y-8595000D02*
X5955000Y-8625000D01*
X5955000Y-8595000D02*
X5925000Y-8625000D01*
X5965000Y-11505000D02*
X5995000Y-11535000D01*
X5995000Y-11505000D02*
X5965000Y-11535000D01*
X6075000Y-8635000D02*
X6105000Y-8665000D01*
X6105000Y-8635000D02*
X6075000Y-8665000D01*
X6085000Y-11685000D02*
X6115000Y-11715000D01*
X6115000Y-11685000D02*
X6085000Y-11715000D01*
X6095000Y-7165000D02*
X6125000Y-7195000D01*
X6125000Y-7165000D02*
X6095000Y-7195000D01*
X6095000Y-10415000D02*
X6125000Y-10445000D01*
X6125000Y-10415000D02*
X6095000Y-10445000D01*
X6125000Y-9495000D02*
X6155000Y-9525000D01*
X6155000Y-9495000D02*
X6125000Y-9525000D01*
X6125000Y-9585000D02*
X6155000Y-9615000D01*
X6155000Y-9585000D02*
X6125000Y-9615000D01*
X6125000Y-11775000D02*
X6155000Y-11805000D01*
X6155000Y-11775000D02*
X6125000Y-11805000D01*
X6135000Y-11565000D02*
X6165000Y-11595000D01*
X6165000Y-11565000D02*
X6135000Y-11595000D01*
X6135000Y-12125000D02*
X6165000Y-12155000D01*
X6165000Y-12125000D02*
X6135000Y-12155000D01*
X6155000Y-8705000D02*
X6185000Y-8735000D01*
X6185000Y-8705000D02*
X6155000Y-8735000D01*
X6185000Y-13555000D02*
X6215000Y-13585000D01*
X6215000Y-13555000D02*
X6185000Y-13585000D01*
X6205000Y-9875000D02*
X6235000Y-9905000D01*
X6235000Y-9875000D02*
X6205000Y-9905000D01*
X6215000Y-8795000D02*
X6245000Y-8825000D01*
X6245000Y-8795000D02*
X6215000Y-8825000D01*
X6265000Y-11145000D02*
X6295000Y-11175000D01*
X6295000Y-11145000D02*
X6265000Y-11175000D01*
X6295000Y-9875000D02*
X6325000Y-9905000D01*
X6325000Y-9875000D02*
X6295000Y-9905000D01*
X6305000Y-7175000D02*
X6335000Y-7205000D01*
X6335000Y-7175000D02*
X6305000Y-7205000D01*
X6315000Y-7605000D02*
X6345000Y-7635000D01*
X6345000Y-7605000D02*
X6315000Y-7635000D01*
X6315000Y-8015000D02*
X6345000Y-8045000D01*
X6345000Y-8015000D02*
X6315000Y-8045000D01*
X6315000Y-8525000D02*
X6345000Y-8555000D01*
X6345000Y-8525000D02*
X6315000Y-8555000D01*
X6315000Y-8855000D02*
X6345000Y-8885000D01*
X6345000Y-8855000D02*
X6315000Y-8885000D01*
X6345000Y-10395000D02*
X6375000Y-10425000D01*
X6375000Y-10395000D02*
X6345000Y-10425000D01*
X6375000Y-10205000D02*
X6405000Y-10235000D01*
X6405000Y-10205000D02*
X6375000Y-10235000D01*
X6425000Y-8895000D02*
X6455000Y-8925000D01*
X6455000Y-8895000D02*
X6425000Y-8925000D01*
X6455000Y-9085000D02*
X6485000Y-9115000D01*
X6485000Y-9085000D02*
X6455000Y-9115000D01*
X6495000Y-9875000D02*
X6525000Y-9905000D01*
X6525000Y-9875000D02*
X6495000Y-9905000D01*
X6495000Y-13555000D02*
X6525000Y-13585000D01*
X6525000Y-13555000D02*
X6495000Y-13585000D01*
X6505000Y-12965000D02*
X6535000Y-12995000D01*
X6535000Y-12965000D02*
X6505000Y-12995000D01*
X6545000Y-7175000D02*
X6575000Y-7205000D01*
X6575000Y-7175000D02*
X6545000Y-7205000D01*
X6545000Y-8915000D02*
X6575000Y-8945000D01*
X6575000Y-8915000D02*
X6545000Y-8945000D01*
X6545000Y-11135000D02*
X6575000Y-11165000D01*
X6575000Y-11135000D02*
X6545000Y-11165000D01*
X6655000Y-9875000D02*
X6685000Y-9905000D01*
X6685000Y-9875000D02*
X6655000Y-9905000D01*
X6685000Y-9375000D02*
X6715000Y-9405000D01*
X6715000Y-9375000D02*
X6685000Y-9405000D01*
X6745000Y-7105000D02*
X6775000Y-7135000D01*
X6775000Y-7105000D02*
X6745000Y-7135000D01*
X6745000Y-7195000D02*
X6775000Y-7225000D01*
X6775000Y-7195000D02*
X6745000Y-7225000D01*
X6745000Y-7285000D02*
X6775000Y-7315000D01*
X6775000Y-7285000D02*
X6745000Y-7315000D01*
X6745000Y-7375000D02*
X6775000Y-7405000D01*
X6775000Y-7375000D02*
X6745000Y-7405000D01*
X6745000Y-7475000D02*
X6775000Y-7505000D01*
X6775000Y-7475000D02*
X6745000Y-7505000D01*
X6745000Y-7585000D02*
X6775000Y-7615000D01*
X6775000Y-7585000D02*
X6745000Y-7615000D01*
X6745000Y-8515000D02*
X6775000Y-8545000D01*
X6775000Y-8515000D02*
X6745000Y-8545000D01*
X6745000Y-11345000D02*
X6775000Y-11375000D01*
X6775000Y-11345000D02*
X6745000Y-11375000D01*
X6755000Y-8855000D02*
X6785000Y-8885000D01*
X6785000Y-8855000D02*
X6755000Y-8885000D01*
X6755000Y-9875000D02*
X6785000Y-9905000D01*
X6785000Y-9875000D02*
X6755000Y-9905000D01*
X6755000Y-13555000D02*
X6785000Y-13585000D01*
X6785000Y-13555000D02*
X6755000Y-13585000D01*
X6765000Y-8025000D02*
X6795000Y-8055000D01*
X6795000Y-8025000D02*
X6765000Y-8055000D01*
X6785000Y-9375000D02*
X6815000Y-9405000D01*
X6815000Y-9375000D02*
X6785000Y-9405000D01*
X6795000Y-12525000D02*
X6825000Y-12555000D01*
X6825000Y-12525000D02*
X6795000Y-12555000D01*
X6825000Y-11345000D02*
X6855000Y-11375000D01*
X6855000Y-11345000D02*
X6825000Y-11375000D01*
X6825000Y-11905000D02*
X6855000Y-11935000D01*
X6855000Y-11905000D02*
X6825000Y-11935000D01*
X6835000Y-9565000D02*
X6865000Y-9595000D01*
X6865000Y-9565000D02*
X6835000Y-9595000D01*
X6835000Y-9645000D02*
X6865000Y-9675000D01*
X6865000Y-9645000D02*
X6835000Y-9675000D01*
X6835000Y-11785000D02*
X6865000Y-11815000D01*
X6865000Y-11785000D02*
X6835000Y-11815000D01*
X6885000Y-9375000D02*
X6915000Y-9405000D01*
X6915000Y-9375000D02*
X6885000Y-9405000D01*
X6905000Y-11345000D02*
X6935000Y-11375000D01*
X6935000Y-11345000D02*
X6905000Y-11375000D01*
X6925000Y-10345000D02*
X6955000Y-10375000D01*
X6955000Y-10345000D02*
X6925000Y-10375000D01*
X7025000Y-12955000D02*
X7055000Y-12985000D01*
X7055000Y-12955000D02*
X7025000Y-12985000D01*
X7045000Y-13565000D02*
X7075000Y-13595000D01*
X7075000Y-13565000D02*
X7045000Y-13595000D01*
X7105000Y-9865000D02*
X7135000Y-9895000D01*
X7135000Y-9865000D02*
X7105000Y-9895000D01*
X7195000Y-12315000D02*
X7225000Y-12345000D01*
X7225000Y-12315000D02*
X7195000Y-12345000D01*
X7335000Y-13555000D02*
X7365000Y-13585000D01*
X7365000Y-13555000D02*
X7335000Y-13585000D01*
X7345000Y-9545000D02*
X7375000Y-9575000D01*
X7375000Y-9545000D02*
X7345000Y-9575000D01*
X7375000Y-10375000D02*
X7405000Y-10405000D01*
X7405000Y-10375000D02*
X7375000Y-10405000D01*
X7395000Y-7635000D02*
X7425000Y-7665000D01*
X7425000Y-7635000D02*
X7395000Y-7665000D01*
X7395000Y-7715000D02*
X7425000Y-7745000D01*
X7425000Y-7715000D02*
X7395000Y-7745000D01*
X7395000Y-7795000D02*
X7425000Y-7825000D01*
X7425000Y-7795000D02*
X7395000Y-7825000D01*
X7465000Y-11935000D02*
X7495000Y-11965000D01*
X7495000Y-11935000D02*
X7465000Y-11965000D01*
X7485000Y-8005000D02*
X7515000Y-8035000D01*
X7515000Y-8005000D02*
X7485000Y-8035000D01*
X7485000Y-8525000D02*
X7515000Y-8555000D01*
X7515000Y-8525000D02*
X7485000Y-8555000D01*
X7495000Y-8825000D02*
X7525000Y-8855000D01*
X7525000Y-8825000D02*
X7495000Y-8855000D01*
X7535000Y-11055000D02*
X7565000Y-11085000D01*
X7565000Y-11055000D02*
X7535000Y-11085000D01*
X7545000Y-12345000D02*
X7575000Y-12375000D01*
X7575000Y-12345000D02*
X7545000Y-12375000D01*
X7565000Y-7595000D02*
X7595000Y-7625000D01*
X7595000Y-7595000D02*
X7565000Y-7625000D01*
X7585000Y-12975000D02*
X7615000Y-13005000D01*
X7615000Y-12975000D02*
X7585000Y-13005000D01*
X7605000Y-7095000D02*
X7635000Y-7125000D01*
X7635000Y-7095000D02*
X7605000Y-7125000D01*
X7605000Y-7185000D02*
X7635000Y-7215000D01*
X7635000Y-7185000D02*
X7605000Y-7215000D01*
X7605000Y-7285000D02*
X7635000Y-7315000D01*
X7635000Y-7285000D02*
X7605000Y-7315000D01*
X7605000Y-7375000D02*
X7635000Y-7405000D01*
X7635000Y-7375000D02*
X7605000Y-7405000D01*
X7605000Y-7465000D02*
X7635000Y-7495000D01*
X7635000Y-7465000D02*
X7605000Y-7495000D01*
X7605000Y-9915000D02*
X7635000Y-9945000D01*
X7635000Y-9915000D02*
X7605000Y-9945000D01*
X7655000Y-13555000D02*
X7685000Y-13585000D01*
X7685000Y-13555000D02*
X7655000Y-13585000D01*
X7845000Y-7145000D02*
X7875000Y-7175000D01*
X7875000Y-7145000D02*
X7845000Y-7175000D01*
X7855000Y-8835000D02*
X7885000Y-8865000D01*
X7885000Y-8835000D02*
X7855000Y-8865000D01*
X7855000Y-10605000D02*
X7885000Y-10635000D01*
X7885000Y-10605000D02*
X7855000Y-10635000D01*
X7875000Y-12095000D02*
X7905000Y-12125000D01*
X7905000Y-12095000D02*
X7875000Y-12125000D01*
X7955000Y-8805000D02*
X7985000Y-8835000D01*
X7985000Y-8805000D02*
X7955000Y-8835000D01*
X7955000Y-10225000D02*
X7985000Y-10255000D01*
X7985000Y-10225000D02*
X7955000Y-10255000D01*
X7965000Y-8495000D02*
X7995000Y-8525000D01*
X7995000Y-8495000D02*
X7965000Y-8525000D01*
X7975000Y-7995000D02*
X8005000Y-8025000D01*
X8005000Y-7995000D02*
X7975000Y-8025000D01*
X7975000Y-9505000D02*
X8005000Y-9535000D01*
X8005000Y-9505000D02*
X7975000Y-9535000D01*
X7995000Y-13545000D02*
X8025000Y-13575000D01*
X8025000Y-13545000D02*
X7995000Y-13575000D01*
X8035000Y-11175000D02*
X8065000Y-11205000D01*
X8065000Y-11175000D02*
X8035000Y-11205000D01*
X8045000Y-11505000D02*
X8075000Y-11535000D01*
X8075000Y-11505000D02*
X8045000Y-11535000D01*
X8065000Y-7155000D02*
X8095000Y-7185000D01*
X8095000Y-7155000D02*
X8065000Y-7185000D01*
X8065000Y-7595000D02*
X8095000Y-7625000D01*
X8095000Y-7595000D02*
X8065000Y-7625000D01*
X8065000Y-8725000D02*
X8095000Y-8755000D01*
X8095000Y-8725000D02*
X8065000Y-8755000D01*
X8085000Y-9445000D02*
X8115000Y-9475000D01*
X8115000Y-9445000D02*
X8085000Y-9475000D01*
X8105000Y-8825000D02*
X8135000Y-8855000D01*
X8135000Y-8825000D02*
X8105000Y-8855000D01*
X8115000Y-10805000D02*
X8145000Y-10835000D01*
X8145000Y-10805000D02*
X8115000Y-10835000D01*
X8115000Y-10875000D02*
X8145000Y-10905000D01*
X8145000Y-10875000D02*
X8115000Y-10905000D01*
X8165000Y-9805000D02*
X8195000Y-9835000D01*
X8195000Y-9805000D02*
X8165000Y-9835000D01*
X8195000Y-8675000D02*
X8225000Y-8705000D01*
X8225000Y-8675000D02*
X8195000Y-8705000D01*
X8195000Y-8825000D02*
X8225000Y-8855000D01*
X8225000Y-8825000D02*
X8195000Y-8855000D01*
X8197500Y-10417500D02*
X8227500Y-10447500D01*
X8227500Y-10417500D02*
X8197500Y-10447500D01*
X8205000Y-9445000D02*
X8235000Y-9475000D01*
X8235000Y-9445000D02*
X8205000Y-9475000D01*
X8225000Y-8195000D02*
X8255000Y-8225000D01*
X8255000Y-8195000D02*
X8225000Y-8225000D01*
X8265000Y-8565000D02*
X8295000Y-8595000D01*
X8295000Y-8565000D02*
X8265000Y-8595000D01*
X8275000Y-12985000D02*
X8305000Y-13015000D01*
X8305000Y-12985000D02*
X8275000Y-13015000D01*
X8285000Y-7155000D02*
X8315000Y-7185000D01*
X8315000Y-7155000D02*
X8285000Y-7185000D01*
X8285000Y-12375000D02*
X8315000Y-12405000D01*
X8315000Y-12375000D02*
X8285000Y-12405000D01*
X8295000Y-9285000D02*
X8325000Y-9315000D01*
X8325000Y-9285000D02*
X8295000Y-9315000D01*
X8305000Y-7885000D02*
X8335000Y-7915000D01*
X8335000Y-7885000D02*
X8305000Y-7915000D01*
X8305000Y-13545000D02*
X8335000Y-13575000D01*
X8335000Y-13545000D02*
X8305000Y-13575000D01*
X8335000Y-9415000D02*
X8365000Y-9445000D01*
X8365000Y-9415000D02*
X8335000Y-9445000D01*
X8355000Y-10115000D02*
X8385000Y-10145000D01*
X8385000Y-10115000D02*
X8355000Y-10145000D01*
X8365000Y-11735000D02*
X8395000Y-11765000D01*
X8395000Y-11735000D02*
X8365000Y-11765000D01*
X8375000Y-9285000D02*
X8405000Y-9315000D01*
X8405000Y-9285000D02*
X8375000Y-9315000D01*
X8455000Y-10115000D02*
X8485000Y-10145000D01*
X8485000Y-10115000D02*
X8455000Y-10145000D01*
X8505000Y-7155000D02*
X8535000Y-7185000D01*
X8535000Y-7155000D02*
X8505000Y-7185000D01*
X8515000Y-7605000D02*
X8545000Y-7635000D01*
X8545000Y-7605000D02*
X8515000Y-7635000D01*
X8525000Y-9375000D02*
X8555000Y-9405000D01*
X8555000Y-9375000D02*
X8525000Y-9405000D01*
X8545000Y-13525000D02*
X8575000Y-13555000D01*
X8575000Y-13525000D02*
X8545000Y-13555000D01*
X8555000Y-9255000D02*
X8585000Y-9285000D01*
X8585000Y-9255000D02*
X8555000Y-9285000D01*
X8585000Y-11455000D02*
X8615000Y-11485000D01*
X8615000Y-11455000D02*
X8585000Y-11485000D01*
X8635000Y-7835000D02*
X8665000Y-7865000D01*
X8665000Y-7835000D02*
X8635000Y-7865000D01*
X8715000Y-9695000D02*
X8745000Y-9725000D01*
X8745000Y-9695000D02*
X8715000Y-9725000D01*
X8735000Y-7145000D02*
X8765000Y-7175000D01*
X8765000Y-7145000D02*
X8735000Y-7175000D01*
X8745000Y-12305000D02*
X8775000Y-12335000D01*
X8775000Y-12305000D02*
X8745000Y-12335000D01*
X8855000Y-12945000D02*
X8885000Y-12975000D01*
X8885000Y-12945000D02*
X8855000Y-12975000D01*
X8865000Y-13525000D02*
X8895000Y-13555000D01*
X8895000Y-13525000D02*
X8865000Y-13555000D01*
X8885000Y-10835000D02*
X8915000Y-10865000D01*
X8915000Y-10835000D02*
X8885000Y-10865000D01*
X8925000Y-7835000D02*
X8955000Y-7865000D01*
X8955000Y-7835000D02*
X8925000Y-7865000D01*
X8925000Y-10025000D02*
X8955000Y-10055000D01*
X8955000Y-10025000D02*
X8925000Y-10055000D01*
X8955000Y-8445000D02*
X8985000Y-8475000D01*
X8985000Y-8445000D02*
X8955000Y-8475000D01*
X8955000Y-8635000D02*
X8985000Y-8665000D01*
X8985000Y-8635000D02*
X8955000Y-8665000D01*
X8975000Y-7155000D02*
X9005000Y-7185000D01*
X9005000Y-7155000D02*
X8975000Y-7185000D01*
X8975000Y-7595000D02*
X9005000Y-7625000D01*
X9005000Y-7595000D02*
X8975000Y-7625000D01*
X9035000Y-11965000D02*
X9065000Y-11995000D01*
X9065000Y-11965000D02*
X9035000Y-11995000D01*
X9055000Y-8445000D02*
X9085000Y-8475000D01*
X9085000Y-8445000D02*
X9055000Y-8475000D01*
X9055000Y-9295000D02*
X9085000Y-9325000D01*
X9085000Y-9295000D02*
X9055000Y-9325000D01*
X9105000Y-13535000D02*
X9135000Y-13565000D01*
X9135000Y-13535000D02*
X9105000Y-13565000D01*
X9205000Y-8465000D02*
X9235000Y-8495000D01*
X9235000Y-8465000D02*
X9205000Y-8495000D01*
X9225000Y-7735000D02*
X9255000Y-7765000D01*
X9255000Y-7735000D02*
X9225000Y-7765000D01*
X9225000Y-10835000D02*
X9255000Y-10865000D01*
X9255000Y-10835000D02*
X9225000Y-10865000D01*
X9245000Y-7155000D02*
X9275000Y-7185000D01*
X9275000Y-7155000D02*
X9245000Y-7185000D01*
X9245000Y-8785000D02*
X9275000Y-8815000D01*
X9275000Y-8785000D02*
X9245000Y-8815000D01*
X9255000Y-9125000D02*
X9285000Y-9155000D01*
X9285000Y-9125000D02*
X9255000Y-9155000D01*
X9265000Y-10735000D02*
X9295000Y-10765000D01*
X9295000Y-10735000D02*
X9265000Y-10765000D01*
X9305000Y-11125000D02*
X9335000Y-11155000D01*
X9335000Y-11125000D02*
X9305000Y-11155000D01*
X9335000Y-8015000D02*
X9365000Y-8045000D01*
X9365000Y-8015000D02*
X9335000Y-8045000D01*
X9335000Y-9645000D02*
X9365000Y-9675000D01*
X9365000Y-9645000D02*
X9335000Y-9675000D01*
X9355000Y-8785000D02*
X9385000Y-8815000D01*
X9385000Y-8785000D02*
X9355000Y-8815000D01*
X9365000Y-9125000D02*
X9395000Y-9155000D01*
X9395000Y-9125000D02*
X9365000Y-9155000D01*
X9365000Y-10735000D02*
X9395000Y-10765000D01*
X9395000Y-10735000D02*
X9365000Y-10765000D01*
X9375000Y-8445000D02*
X9405000Y-8475000D01*
X9405000Y-8445000D02*
X9375000Y-8475000D01*
X9435000Y-8015000D02*
X9465000Y-8045000D01*
X9465000Y-8015000D02*
X9435000Y-8045000D01*
X9445000Y-7575000D02*
X9475000Y-7605000D01*
X9475000Y-7575000D02*
X9445000Y-7605000D01*
X9465000Y-7155000D02*
X9495000Y-7185000D01*
X9495000Y-7155000D02*
X9465000Y-7185000D01*
X9465000Y-12335000D02*
X9495000Y-12365000D01*
X9495000Y-12335000D02*
X9465000Y-12365000D01*
X9465000Y-13515000D02*
X9495000Y-13545000D01*
X9495000Y-13515000D02*
X9465000Y-13545000D01*
X9475000Y-11845000D02*
X9505000Y-11875000D01*
X9505000Y-11845000D02*
X9475000Y-11875000D01*
X9485000Y-8445000D02*
X9515000Y-8475000D01*
X9515000Y-8445000D02*
X9485000Y-8475000D01*
X9485000Y-8675000D02*
X9515000Y-8705000D01*
X9515000Y-8675000D02*
X9485000Y-8705000D01*
X9485000Y-12975000D02*
X9515000Y-13005000D01*
X9515000Y-12975000D02*
X9485000Y-13005000D01*
X9515000Y-11475000D02*
X9545000Y-11505000D01*
X9545000Y-11475000D02*
X9515000Y-11505000D01*
X9545000Y-8015000D02*
X9575000Y-8045000D01*
X9575000Y-8015000D02*
X9545000Y-8045000D01*
X9555000Y-8795000D02*
X9585000Y-8825000D01*
X9585000Y-8795000D02*
X9555000Y-8825000D01*
X9555000Y-8875000D02*
X9585000Y-8905000D01*
X9585000Y-8875000D02*
X9555000Y-8905000D01*
X9565000Y-9045000D02*
X9595000Y-9075000D01*
X9595000Y-9045000D02*
X9565000Y-9075000D01*
X9565000Y-9125000D02*
X9595000Y-9155000D01*
X9595000Y-9125000D02*
X9565000Y-9155000D01*
X9565000Y-10075000D02*
X9595000Y-10105000D01*
X9595000Y-10075000D02*
X9565000Y-10105000D01*
X9585000Y-9305000D02*
X9615000Y-9335000D01*
X9615000Y-9305000D02*
X9585000Y-9335000D01*
X9675000Y-7755000D02*
X9705000Y-7785000D01*
X9705000Y-7755000D02*
X9675000Y-7785000D01*
X9725000Y-7155000D02*
X9755000Y-7185000D01*
X9755000Y-7155000D02*
X9725000Y-7185000D01*
X9735000Y-8295000D02*
X9765000Y-8325000D01*
X9765000Y-8295000D02*
X9735000Y-8325000D01*
X9755000Y-10815000D02*
X9785000Y-10845000D01*
X9785000Y-10815000D02*
X9755000Y-10845000D01*
X9815000Y-13545000D02*
X9845000Y-13575000D01*
X9845000Y-13545000D02*
X9815000Y-13575000D01*
X9835000Y-7985000D02*
X9865000Y-8015000D01*
X9865000Y-7985000D02*
X9835000Y-8015000D01*
X9855000Y-8585000D02*
X9885000Y-8615000D01*
X9885000Y-8585000D02*
X9855000Y-8615000D01*
X9895000Y-7585000D02*
X9925000Y-7615000D01*
X9925000Y-7585000D02*
X9895000Y-7615000D01*
X9905000Y-7085000D02*
X9935000Y-7115000D01*
X9935000Y-7085000D02*
X9905000Y-7115000D01*
X9905000Y-7175000D02*
X9935000Y-7205000D01*
X9935000Y-7175000D02*
X9905000Y-7205000D01*
X9905000Y-7265000D02*
X9935000Y-7295000D01*
X9935000Y-7265000D02*
X9905000Y-7295000D01*
X9905000Y-7355000D02*
X9935000Y-7385000D01*
X9935000Y-7355000D02*
X9905000Y-7385000D01*
X9915000Y-9675000D02*
X9945000Y-9705000D01*
X9945000Y-9675000D02*
X9915000Y-9705000D01*
X9995000Y-11195000D02*
X10025000Y-11225000D01*
X10025000Y-11195000D02*
X9995000Y-11225000D01*
X10005000Y-8955000D02*
X10035000Y-8985000D01*
X10035000Y-8955000D02*
X10005000Y-8985000D01*
X10015000Y-11695000D02*
X10045000Y-11725000D01*
X10045000Y-11695000D02*
X10015000Y-11725000D01*
X10025000Y-8315000D02*
X10055000Y-8345000D01*
X10055000Y-8315000D02*
X10025000Y-8345000D01*
X10035000Y-7955000D02*
X10065000Y-7985000D01*
X10065000Y-7955000D02*
X10035000Y-7985000D01*
X10065000Y-10735000D02*
X10095000Y-10765000D01*
X10095000Y-10735000D02*
X10065000Y-10765000D01*
X10105000Y-12955000D02*
X10135000Y-12985000D01*
X10135000Y-12955000D02*
X10105000Y-12985000D01*
X10115000Y-12345000D02*
X10145000Y-12375000D01*
X10145000Y-12345000D02*
X10115000Y-12375000D01*
X10115000Y-13505000D02*
X10145000Y-13535000D01*
X10145000Y-13505000D02*
X10115000Y-13535000D01*
X10165000Y-10735000D02*
X10195000Y-10765000D01*
X10195000Y-10735000D02*
X10165000Y-10765000D01*
X10175000Y-9375000D02*
X10205000Y-9405000D01*
X10205000Y-9375000D02*
X10175000Y-9405000D01*
X10215000Y-10075000D02*
X10245000Y-10105000D01*
X10245000Y-10075000D02*
X10215000Y-10105000D01*
X10295000Y-9535000D02*
X10325000Y-9565000D01*
X10325000Y-9535000D02*
X10295000Y-9565000D01*
X10295000Y-10815000D02*
X10325000Y-10845000D01*
X10325000Y-10815000D02*
X10295000Y-10845000D01*
X10305000Y-9365000D02*
X10335000Y-9395000D01*
X10335000Y-9365000D02*
X10305000Y-9395000D01*
X10335000Y-9675000D02*
X10365000Y-9705000D01*
X10365000Y-9675000D02*
X10335000Y-9705000D01*
X10365000Y-9795000D02*
X10395000Y-9825000D01*
X10395000Y-9795000D02*
X10365000Y-9825000D01*
X10365000Y-9915000D02*
X10395000Y-9945000D01*
X10395000Y-9915000D02*
X10365000Y-9945000D01*
X10375000Y-10085000D02*
X10405000Y-10115000D01*
X10405000Y-10085000D02*
X10375000Y-10115000D01*
X10425000Y-13465000D02*
X10455000Y-13495000D01*
X10455000Y-13465000D02*
X10425000Y-13495000D01*
X10425000Y-13565000D02*
X10455000Y-13595000D01*
X10455000Y-13565000D02*
X10425000Y-13595000D01*
X10425000Y-13655000D02*
X10455000Y-13685000D01*
X10455000Y-13655000D02*
X10425000Y-13685000D01*
X10435000Y-13365000D02*
X10465000Y-13395000D01*
X10465000Y-13365000D02*
X10435000Y-13395000D01*
X10495000Y-13175000D02*
X10525000Y-13205000D01*
X10525000Y-13175000D02*
X10495000Y-13205000D01*
X10505000Y-13295000D02*
X10535000Y-13325000D01*
X10535000Y-13295000D02*
X10505000Y-13325000D01*
X10525000Y-12145000D02*
X10555000Y-12175000D01*
X10555000Y-12145000D02*
X10525000Y-12175000D01*
X10525000Y-12675000D02*
X10555000Y-12705000D01*
X10555000Y-12675000D02*
X10525000Y-12705000D01*
X10525000Y-13405000D02*
X10555000Y-13435000D01*
X10555000Y-13405000D02*
X10525000Y-13435000D01*
X10525000Y-13495000D02*
X10555000Y-13525000D01*
X10555000Y-13495000D02*
X10525000Y-13525000D01*
X10525000Y-13585000D02*
X10555000Y-13615000D01*
X10555000Y-13585000D02*
X10525000Y-13615000D01*
X10525000Y-13675000D02*
X10555000Y-13705000D01*
X10555000Y-13675000D02*
X10525000Y-13705000D01*
X10555000Y-7615000D02*
X10585000Y-7645000D01*
X10585000Y-7615000D02*
X10555000Y-7645000D01*
X10555000Y-7695000D02*
X10585000Y-7725000D01*
X10585000Y-7695000D02*
X10555000Y-7725000D01*
X10555000Y-7775000D02*
X10585000Y-7805000D01*
X10585000Y-7775000D02*
X10555000Y-7805000D01*
X10615000Y-8125000D02*
X10645000Y-8155000D01*
X10645000Y-8125000D02*
X10615000Y-8155000D01*
X10615000Y-8245000D02*
X10645000Y-8275000D01*
X10645000Y-8245000D02*
X10615000Y-8275000D01*
X10625000Y-11605000D02*
X10655000Y-11635000D01*
X10655000Y-11605000D02*
X10625000Y-11635000D01*
X10635000Y-12025000D02*
X10665000Y-12055000D01*
X10665000Y-12025000D02*
X10635000Y-12055000D01*
X10645000Y-11165000D02*
X10675000Y-11195000D01*
X10675000Y-11165000D02*
X10645000Y-11195000D01*
X10645000Y-11875000D02*
X10675000Y-11905000D01*
X10675000Y-11875000D02*
X10645000Y-11905000D01*
X10685000Y-10735000D02*
X10715000Y-10765000D01*
X10715000Y-10735000D02*
X10685000Y-10765000D01*
X10685000Y-11745000D02*
X10715000Y-11775000D01*
X10715000Y-11745000D02*
X10685000Y-11775000D01*
X10725000Y-11585000D02*
X10755000Y-11615000D01*
X10755000Y-11585000D02*
X10725000Y-11615000D01*
X10735000Y-11425000D02*
X10765000Y-11455000D01*
X10765000Y-11425000D02*
X10735000Y-11455000D01*
X10765000Y-7085000D02*
X10795000Y-7115000D01*
X10795000Y-7085000D02*
X10765000Y-7115000D01*
X10765000Y-7165000D02*
X10795000Y-7195000D01*
X10795000Y-7165000D02*
X10765000Y-7195000D01*
X10765000Y-7265000D02*
X10795000Y-7295000D01*
X10795000Y-7265000D02*
X10765000Y-7295000D01*
X10765000Y-7355000D02*
X10795000Y-7385000D01*
X10795000Y-7355000D02*
X10765000Y-7385000D01*
X10775000Y-7875000D02*
X10805000Y-7905000D01*
X10805000Y-7875000D02*
X10775000Y-7905000D01*
X10775000Y-12725000D02*
X10805000Y-12755000D01*
X10805000Y-12725000D02*
X10775000Y-12755000D01*
X10775000Y-12845000D02*
X10805000Y-12875000D01*
X10805000Y-12845000D02*
X10775000Y-12875000D01*
X10825000Y-11675000D02*
X10855000Y-11705000D01*
X10855000Y-11675000D02*
X10825000Y-11705000D01*
X10825000Y-11785000D02*
X10855000Y-11815000D01*
X10855000Y-11785000D02*
X10825000Y-11815000D01*
X10895000Y-7155000D02*
X10925000Y-7185000D01*
X10925000Y-7155000D02*
X10895000Y-7185000D01*
X10905000Y-7625000D02*
X10935000Y-7655000D01*
X10935000Y-7625000D02*
X10905000Y-7655000D01*
X10905000Y-8505000D02*
X10935000Y-8535000D01*
X10935000Y-8505000D02*
X10905000Y-8535000D01*
X10905000Y-9185000D02*
X10935000Y-9215000D01*
X10935000Y-9185000D02*
X10905000Y-9215000D01*
X11005000Y-9185000D02*
X11035000Y-9215000D01*
X11035000Y-9185000D02*
X11005000Y-9215000D01*
X11045000Y-9085000D02*
X11075000Y-9115000D01*
X11075000Y-9085000D02*
X11045000Y-9115000D01*
X11115000Y-9185000D02*
X11145000Y-9215000D01*
X11145000Y-9185000D02*
X11115000Y-9215000D01*
X11135000Y-12725000D02*
X11165000Y-12755000D01*
X11165000Y-12725000D02*
X11135000Y-12755000D01*
X11135000Y-12835000D02*
X11165000Y-12865000D01*
X11165000Y-12835000D02*
X11135000Y-12865000D01*
X11145000Y-9085000D02*
X11175000Y-9115000D01*
X11175000Y-9085000D02*
X11145000Y-9115000D01*
X11185000Y-8015000D02*
X11215000Y-8045000D01*
X11215000Y-8015000D02*
X11185000Y-8045000D01*
X11195000Y-7155000D02*
X11225000Y-7185000D01*
X11225000Y-7155000D02*
X11195000Y-7185000D01*
X11225000Y-11885000D02*
X11255000Y-11915000D01*
X11255000Y-11885000D02*
X11225000Y-11915000D01*
X11225000Y-11975000D02*
X11255000Y-12005000D01*
X11255000Y-11975000D02*
X11225000Y-12005000D01*
X11245000Y-9195000D02*
X11275000Y-9225000D01*
X11275000Y-9195000D02*
X11245000Y-9225000D01*
X11255000Y-9085000D02*
X11285000Y-9115000D01*
X11285000Y-9085000D02*
X11255000Y-9115000D01*
X11265000Y-8015000D02*
X11295000Y-8045000D01*
X11295000Y-8015000D02*
X11265000Y-8045000D01*
X11305000Y-8605000D02*
X11335000Y-8635000D01*
X11335000Y-8605000D02*
X11305000Y-8635000D01*
X11355000Y-8015000D02*
X11385000Y-8045000D01*
X11385000Y-8015000D02*
X11355000Y-8045000D01*
X11365000Y-12655000D02*
X11395000Y-12685000D01*
X11395000Y-12655000D02*
X11365000Y-12685000D01*
X11375000Y-9325000D02*
X11405000Y-9355000D01*
X11405000Y-9325000D02*
X11375000Y-9355000D01*
X11375000Y-9445000D02*
X11405000Y-9475000D01*
X11405000Y-9445000D02*
X11375000Y-9475000D01*
X11375000Y-13175000D02*
X11405000Y-13205000D01*
X11405000Y-13175000D02*
X11375000Y-13205000D01*
X11385000Y-9205000D02*
X11415000Y-9235000D01*
X11415000Y-9205000D02*
X11385000Y-9235000D01*
X11385000Y-9605000D02*
X11415000Y-9635000D01*
X11415000Y-9605000D02*
X11385000Y-9635000D01*
X11385000Y-11915000D02*
X11415000Y-11945000D01*
X11415000Y-11915000D02*
X11385000Y-11945000D01*
X11385000Y-12055000D02*
X11415000Y-12085000D01*
X11415000Y-12055000D02*
X11385000Y-12085000D01*
X11385000Y-12195000D02*
X11415000Y-12225000D01*
X11415000Y-12195000D02*
X11385000Y-12225000D01*
X11385000Y-13285000D02*
X11415000Y-13315000D01*
X11415000Y-13285000D02*
X11385000Y-13315000D01*
X11385000Y-13395000D02*
X11415000Y-13425000D01*
X11415000Y-13395000D02*
X11385000Y-13425000D01*
X11385000Y-13485000D02*
X11415000Y-13515000D01*
X11415000Y-13485000D02*
X11385000Y-13515000D01*
X11385000Y-13585000D02*
X11415000Y-13615000D01*
X11415000Y-13585000D02*
X11385000Y-13615000D01*
X11385000Y-13675000D02*
X11415000Y-13705000D01*
X11415000Y-13675000D02*
X11385000Y-13705000D01*
X11395000Y-9745000D02*
X11425000Y-9775000D01*
X11425000Y-9745000D02*
X11395000Y-9775000D01*
X11405000Y-9885000D02*
X11435000Y-9915000D01*
X11435000Y-9885000D02*
X11405000Y-9915000D01*
X11415000Y-10025000D02*
X11445000Y-10055000D01*
X11445000Y-10025000D02*
X11415000Y-10055000D01*
X11415000Y-10175000D02*
X11445000Y-10205000D01*
X11445000Y-10175000D02*
X11415000Y-10205000D01*
X11415000Y-10275000D02*
X11445000Y-10305000D01*
X11445000Y-10275000D02*
X11415000Y-10305000D01*
X11425000Y-10405000D02*
X11455000Y-10435000D01*
X11455000Y-10405000D02*
X11425000Y-10435000D01*
X11435000Y-8015000D02*
X11465000Y-8045000D01*
X11465000Y-8015000D02*
X11435000Y-8045000D01*
X11445000Y-11805000D02*
X11475000Y-11835000D01*
X11475000Y-11805000D02*
X11445000Y-11835000D01*
X11455000Y-9085000D02*
X11485000Y-9115000D01*
X11485000Y-9085000D02*
X11455000Y-9115000D01*
X11465000Y-7165000D02*
X11495000Y-7195000D01*
X11495000Y-7165000D02*
X11465000Y-7195000D01*
X11465000Y-7665000D02*
X11495000Y-7695000D01*
X11495000Y-7665000D02*
X11465000Y-7695000D01*
X11465000Y-13345000D02*
X11495000Y-13375000D01*
X11495000Y-13345000D02*
X11465000Y-13375000D01*
X11465000Y-13445000D02*
X11495000Y-13475000D01*
X11495000Y-13445000D02*
X11465000Y-13475000D01*
X11475000Y-13535000D02*
X11505000Y-13565000D01*
X11505000Y-13535000D02*
X11475000Y-13565000D01*
X11475000Y-13655000D02*
X11505000Y-13685000D01*
X11505000Y-13655000D02*
X11475000Y-13685000D01*
X11535000Y-11015000D02*
X11565000Y-11045000D01*
X11565000Y-11015000D02*
X11535000Y-11045000D01*
X11545000Y-11725000D02*
X11575000Y-11755000D01*
X11575000Y-11725000D02*
X11545000Y-11755000D01*
X11555000Y-9085000D02*
X11585000Y-9115000D01*
X11585000Y-9085000D02*
X11555000Y-9115000D01*
X11615000Y-7935000D02*
X11645000Y-7965000D01*
X11645000Y-7935000D02*
X11615000Y-7965000D01*
X11615000Y-8565000D02*
X11645000Y-8595000D01*
X11645000Y-8565000D02*
X11615000Y-8595000D01*
X11625000Y-13515000D02*
X11655000Y-13545000D01*
X11655000Y-13515000D02*
X11625000Y-13545000D01*
X11655000Y-9085000D02*
X11685000Y-9115000D01*
X11685000Y-9085000D02*
X11655000Y-9115000D01*
X11665000Y-11795000D02*
X11695000Y-11825000D01*
X11695000Y-11795000D02*
X11665000Y-11825000D01*
X11665000Y-11895000D02*
X11695000Y-11925000D01*
X11695000Y-11895000D02*
X11665000Y-11925000D01*
X11675000Y-12215000D02*
X11705000Y-12245000D01*
X11705000Y-12215000D02*
X11675000Y-12245000D01*
X11675000Y-12305000D02*
X11705000Y-12335000D01*
X11705000Y-12305000D02*
X11675000Y-12335000D01*
X11695000Y-7935000D02*
X11725000Y-7965000D01*
X11725000Y-7935000D02*
X11695000Y-7965000D01*
X11745000Y-7245000D02*
X11775000Y-7275000D01*
X11775000Y-7245000D02*
X11745000Y-7275000D01*
X11745000Y-7335000D02*
X11775000Y-7365000D01*
X11775000Y-7335000D02*
X11745000Y-7365000D01*
X11785000Y-7845000D02*
X11815000Y-7875000D01*
X11815000Y-7845000D02*
X11785000Y-7875000D01*
X11805000Y-8555000D02*
X11835000Y-8585000D01*
X11835000Y-8555000D02*
X11805000Y-8585000D01*
X11805000Y-8635000D02*
X11835000Y-8665000D01*
X11835000Y-8635000D02*
X11805000Y-8665000D01*
X11825000Y-9635000D02*
X11855000Y-9665000D01*
X11855000Y-9635000D02*
X11825000Y-9665000D01*
X11845000Y-13495000D02*
X11875000Y-13525000D01*
X11875000Y-13495000D02*
X11845000Y-13525000D01*
X11865000Y-13015000D02*
X11895000Y-13045000D01*
X11895000Y-13015000D02*
X11865000Y-13045000D01*
X11905000Y-12675000D02*
X11935000Y-12705000D01*
X11935000Y-12675000D02*
X11905000Y-12705000D01*
X11925000Y-9175000D02*
X11955000Y-9205000D01*
X11955000Y-9175000D02*
X11925000Y-9205000D01*
X11945000Y-10425000D02*
X11975000Y-10455000D01*
X11975000Y-10425000D02*
X11945000Y-10455000D01*
X12025000Y-10115000D02*
X12055000Y-10145000D01*
X12055000Y-10115000D02*
X12025000Y-10145000D01*
X12105000Y-13525000D02*
X12135000Y-13555000D01*
X12135000Y-13525000D02*
X12105000Y-13555000D01*
X12125000Y-12195000D02*
X12155000Y-12225000D01*
X12155000Y-12195000D02*
X12125000Y-12225000D01*
X12125000Y-12375000D02*
X12155000Y-12405000D01*
X12155000Y-12375000D02*
X12125000Y-12405000D01*
X12135000Y-12285000D02*
X12165000Y-12315000D01*
X12165000Y-12285000D02*
X12135000Y-12315000D01*
X12165000Y-11015000D02*
X12195000Y-11045000D01*
X12195000Y-11015000D02*
X12165000Y-11045000D01*
X12295000Y-8535000D02*
X12325000Y-8565000D01*
X12325000Y-8535000D02*
X12295000Y-8565000D01*
X12295000Y-8645000D02*
X12325000Y-8675000D01*
X12325000Y-8645000D02*
X12295000Y-8675000D01*
X12315000Y-8965000D02*
X12345000Y-8995000D01*
X12345000Y-8965000D02*
X12315000Y-8995000D01*
X12375000Y-7595000D02*
X12405000Y-7625000D01*
X12405000Y-7595000D02*
X12375000Y-7625000D01*
X12375000Y-7675000D02*
X12405000Y-7705000D01*
X12405000Y-7675000D02*
X12375000Y-7705000D01*
X12375000Y-7935000D02*
X12405000Y-7965000D01*
X12405000Y-7935000D02*
X12375000Y-7965000D01*
X12375000Y-8025000D02*
X12405000Y-8055000D01*
X12405000Y-8025000D02*
X12375000Y-8055000D01*
X12395000Y-7175000D02*
X12425000Y-7205000D01*
X12425000Y-7175000D02*
X12395000Y-7205000D01*
X12405000Y-11535000D02*
X12435000Y-11565000D01*
X12435000Y-11535000D02*
X12405000Y-11565000D01*
X12425000Y-12595000D02*
X12455000Y-12625000D01*
X12455000Y-12595000D02*
X12425000Y-12625000D01*
X12425000Y-13045000D02*
X12455000Y-13075000D01*
X12455000Y-13045000D02*
X12425000Y-13075000D01*
X12425000Y-13505000D02*
X12455000Y-13535000D01*
X12455000Y-13505000D02*
X12425000Y-13535000D01*
X12495000Y-12005000D02*
X12525000Y-12035000D01*
X12525000Y-12005000D02*
X12495000Y-12035000D01*
X12515000Y-9355000D02*
X12545000Y-9385000D01*
X12545000Y-9355000D02*
X12515000Y-9385000D01*
X12525000Y-8085000D02*
X12555000Y-8115000D01*
X12555000Y-8085000D02*
X12525000Y-8115000D01*
X12545000Y-10045000D02*
X12575000Y-10075000D01*
X12575000Y-10045000D02*
X12545000Y-10075000D01*
X12555000Y-8195000D02*
X12585000Y-8225000D01*
X12585000Y-8195000D02*
X12555000Y-8225000D01*
X12595000Y-8475000D02*
X12625000Y-8505000D01*
X12625000Y-8475000D02*
X12595000Y-8505000D01*
X12595000Y-8615000D02*
X12625000Y-8645000D01*
X12625000Y-8615000D02*
X12595000Y-8645000D01*
X12595000Y-8865000D02*
X12625000Y-8895000D01*
X12625000Y-8865000D02*
X12595000Y-8895000D01*
X12595000Y-9015000D02*
X12625000Y-9045000D01*
X12625000Y-9015000D02*
X12595000Y-9045000D01*
X12605000Y-9295000D02*
X12635000Y-9325000D01*
X12635000Y-9295000D02*
X12605000Y-9325000D01*
X12605000Y-9425000D02*
X12635000Y-9455000D01*
X12635000Y-9425000D02*
X12605000Y-9455000D01*
X12625000Y-8135000D02*
X12655000Y-8165000D01*
X12655000Y-8135000D02*
X12625000Y-8165000D01*
X12645000Y-7175000D02*
X12675000Y-7205000D01*
X12675000Y-7175000D02*
X12645000Y-7205000D01*
X12655000Y-9595000D02*
X12685000Y-9625000D01*
X12685000Y-9595000D02*
X12655000Y-9625000D01*
X12675000Y-8265000D02*
X12705000Y-8295000D01*
X12705000Y-8265000D02*
X12675000Y-8295000D01*
X12685000Y-10455000D02*
X12715000Y-10485000D01*
X12715000Y-10455000D02*
X12685000Y-10485000D01*
X12695000Y-9365000D02*
X12725000Y-9395000D01*
X12725000Y-9365000D02*
X12695000Y-9395000D01*
X12715000Y-9215000D02*
X12745000Y-9245000D01*
X12745000Y-9215000D02*
X12715000Y-9245000D01*
X12725000Y-13505000D02*
X12755000Y-13535000D01*
X12755000Y-13505000D02*
X12725000Y-13535000D01*
X12735000Y-8175000D02*
X12765000Y-8205000D01*
X12765000Y-8175000D02*
X12735000Y-8205000D01*
X12745000Y-11035000D02*
X12775000Y-11065000D01*
X12775000Y-11035000D02*
X12745000Y-11065000D01*
X12754700Y-8558700D02*
X12784700Y-8588700D01*
X12784700Y-8558700D02*
X12754700Y-8588700D01*
X12754700Y-8751000D02*
X12784700Y-8781000D01*
X12784700Y-8751000D02*
X12754700Y-8781000D01*
X12755750Y-8944250D02*
X12785750Y-8974250D01*
X12785750Y-8944250D02*
X12755750Y-8974250D01*
X12795000Y-9295000D02*
X12825000Y-9325000D01*
X12825000Y-9295000D02*
X12795000Y-9325000D01*
X12805000Y-8275000D02*
X12835000Y-8305000D01*
X12835000Y-8275000D02*
X12805000Y-8305000D01*
X12855000Y-9205000D02*
X12885000Y-9235000D01*
X12885000Y-9205000D02*
X12855000Y-9235000D01*
X12855000Y-10215000D02*
X12885000Y-10245000D01*
X12885000Y-10215000D02*
X12855000Y-10245000D01*
X12895000Y-10975000D02*
X12925000Y-11005000D01*
X12925000Y-10975000D02*
X12895000Y-11005000D01*
X12905000Y-7675000D02*
X12935000Y-7705000D01*
X12935000Y-7675000D02*
X12905000Y-7705000D01*
X12905000Y-8195000D02*
X12935000Y-8225000D01*
X12935000Y-8195000D02*
X12905000Y-8225000D01*
X12925000Y-7185000D02*
X12955000Y-7215000D01*
X12955000Y-7185000D02*
X12925000Y-7215000D01*
X12925000Y-8475000D02*
X12955000Y-8505000D01*
X12955000Y-8475000D02*
X12925000Y-8505000D01*
X12925000Y-8625000D02*
X12955000Y-8655000D01*
X12955000Y-8625000D02*
X12925000Y-8655000D01*
X12925000Y-8865000D02*
X12955000Y-8895000D01*
X12955000Y-8865000D02*
X12925000Y-8895000D01*
X12925000Y-9025000D02*
X12955000Y-9055000D01*
X12955000Y-9025000D02*
X12925000Y-9055000D01*
X12925000Y-9285000D02*
X12955000Y-9315000D01*
X12955000Y-9285000D02*
X12925000Y-9315000D01*
X12955000Y-8295000D02*
X12985000Y-8325000D01*
X12985000Y-8295000D02*
X12955000Y-8325000D01*
X12975000Y-11595000D02*
X13005000Y-11625000D01*
X13005000Y-11595000D02*
X12975000Y-11625000D01*
X12995000Y-9205000D02*
X13025000Y-9235000D01*
X13025000Y-9205000D02*
X12995000Y-9235000D01*
X12995000Y-9405000D02*
X13025000Y-9435000D01*
X13025000Y-9405000D02*
X12995000Y-9435000D01*
X13005000Y-10975000D02*
X13035000Y-11005000D01*
X13035000Y-10975000D02*
X13005000Y-11005000D01*
X13015000Y-12245000D02*
X13045000Y-12275000D01*
X13045000Y-12245000D02*
X13015000Y-12275000D01*
X13045000Y-8215000D02*
X13075000Y-8245000D01*
X13075000Y-8215000D02*
X13045000Y-8245000D01*
X13055000Y-9305000D02*
X13085000Y-9335000D01*
X13085000Y-9305000D02*
X13055000Y-9335000D01*
X13065000Y-12885000D02*
X13095000Y-12915000D01*
X13095000Y-12885000D02*
X13065000Y-12915000D01*
X13085000Y-13515000D02*
X13115000Y-13545000D01*
X13115000Y-13515000D02*
X13085000Y-13545000D01*
X13125000Y-8315000D02*
X13155000Y-8345000D01*
X13155000Y-8315000D02*
X13125000Y-8345000D01*
X13175000Y-10075000D02*
X13205000Y-10105000D01*
X13205000Y-10075000D02*
X13175000Y-10105000D01*
X13185000Y-8855000D02*
X13215000Y-8885000D01*
X13215000Y-8855000D02*
X13185000Y-8885000D01*
X13185000Y-8965000D02*
X13215000Y-8995000D01*
X13215000Y-8965000D02*
X13185000Y-8995000D01*
X13185000Y-9075000D02*
X13215000Y-9105000D01*
X13215000Y-9075000D02*
X13185000Y-9105000D01*
X13215000Y-8435000D02*
X13245000Y-8465000D01*
X13245000Y-8435000D02*
X13215000Y-8465000D01*
X13215000Y-8535000D02*
X13245000Y-8565000D01*
X13245000Y-8535000D02*
X13215000Y-8565000D01*
X13225000Y-7185000D02*
X13255000Y-7215000D01*
X13255000Y-7185000D02*
X13225000Y-7215000D01*
X13225000Y-8235000D02*
X13255000Y-8265000D01*
X13255000Y-8235000D02*
X13225000Y-8265000D01*
X13265000Y-10075000D02*
X13295000Y-10105000D01*
X13295000Y-10075000D02*
X13265000Y-10105000D01*
X13325000Y-10425000D02*
X13355000Y-10455000D01*
X13355000Y-10425000D02*
X13325000Y-10455000D01*
X13345000Y-8325000D02*
X13375000Y-8355000D01*
X13375000Y-8325000D02*
X13345000Y-8355000D01*
X13355000Y-10075000D02*
X13385000Y-10105000D01*
X13385000Y-10075000D02*
X13355000Y-10105000D01*
X13365000Y-11035000D02*
X13395000Y-11065000D01*
X13395000Y-11035000D02*
X13365000Y-11065000D01*
X13435000Y-13515000D02*
X13465000Y-13545000D01*
X13465000Y-13515000D02*
X13435000Y-13545000D01*
X13455000Y-10075000D02*
X13485000Y-10105000D01*
X13485000Y-10075000D02*
X13455000Y-10105000D01*
X13495000Y-7085000D02*
X13525000Y-7115000D01*
X13525000Y-7085000D02*
X13495000Y-7115000D01*
X13505000Y-7185000D02*
X13535000Y-7215000D01*
X13535000Y-7185000D02*
X13505000Y-7215000D01*
X13505000Y-7335000D02*
X13535000Y-7365000D01*
X13535000Y-7335000D02*
X13505000Y-7365000D01*
X13515000Y-7435000D02*
X13545000Y-7465000D01*
X13545000Y-7435000D02*
X13515000Y-7465000D01*
X13515000Y-8245000D02*
X13545000Y-8275000D01*
X13545000Y-8245000D02*
X13515000Y-8275000D01*
X13525000Y-7725000D02*
X13555000Y-7755000D01*
X13555000Y-7725000D02*
X13525000Y-7755000D01*
X13595000Y-8475000D02*
X13625000Y-8505000D01*
X13625000Y-8475000D02*
X13595000Y-8505000D01*
X13605000Y-8805000D02*
X13635000Y-8835000D01*
X13635000Y-8805000D02*
X13605000Y-8835000D01*
X13615000Y-7115000D02*
X13645000Y-7145000D01*
X13645000Y-7115000D02*
X13615000Y-7145000D01*
X13615000Y-7205000D02*
X13645000Y-7235000D01*
X13645000Y-7205000D02*
X13615000Y-7235000D01*
X13615000Y-7295000D02*
X13645000Y-7325000D01*
X13645000Y-7295000D02*
X13615000Y-7325000D01*
X13615000Y-7385000D02*
X13645000Y-7415000D01*
X13645000Y-7385000D02*
X13615000Y-7415000D01*
X13615000Y-7505000D02*
X13645000Y-7535000D01*
X13645000Y-7505000D02*
X13615000Y-7535000D01*
X13635000Y-9335000D02*
X13665000Y-9365000D01*
X13665000Y-9335000D02*
X13635000Y-9365000D01*
X13635000Y-9435000D02*
X13665000Y-9465000D01*
X13665000Y-9435000D02*
X13635000Y-9465000D01*
X13645000Y-8935000D02*
X13675000Y-8965000D01*
X13675000Y-8935000D02*
X13645000Y-8965000D01*
X13645000Y-9035000D02*
X13675000Y-9065000D01*
X13675000Y-9035000D02*
X13645000Y-9065000D01*
X13675000Y-11595000D02*
X13705000Y-11625000D01*
X13705000Y-11595000D02*
X13675000Y-11625000D01*
X13695000Y-8475000D02*
X13725000Y-8505000D01*
X13725000Y-8475000D02*
X13695000Y-8505000D01*
X13695000Y-8805000D02*
X13725000Y-8835000D01*
X13725000Y-8805000D02*
X13695000Y-8835000D01*
X13735000Y-12235000D02*
X13765000Y-12265000D01*
X13765000Y-12235000D02*
X13735000Y-12265000D01*
X13735000Y-12865000D02*
X13765000Y-12895000D01*
X13765000Y-12865000D02*
X13735000Y-12895000D01*
X13755000Y-13535000D02*
X13785000Y-13565000D01*
X13785000Y-13535000D02*
X13755000Y-13565000D01*
X13825000Y-10465000D02*
X13855000Y-10495000D01*
X13855000Y-10465000D02*
X13825000Y-10495000D01*
X13835000Y-10115000D02*
X13865000Y-10145000D01*
X13865000Y-10115000D02*
X13835000Y-10145000D01*
X13885000Y-8965000D02*
X13915000Y-8995000D01*
X13915000Y-8965000D02*
X13885000Y-8995000D01*
X14015000Y-11015000D02*
X14045000Y-11045000D01*
X14045000Y-11015000D02*
X14015000Y-11045000D01*
X14015000Y-13525000D02*
X14045000Y-13555000D01*
X14045000Y-13525000D02*
X14015000Y-13555000D01*
X14135000Y-9585000D02*
X14165000Y-9615000D01*
X14165000Y-9585000D02*
X14135000Y-9615000D01*
X14195000Y-9075000D02*
X14225000Y-9105000D01*
X14225000Y-9075000D02*
X14195000Y-9105000D01*
X14215000Y-8205000D02*
X14245000Y-8235000D01*
X14245000Y-8205000D02*
X14215000Y-8235000D01*
X14225000Y-10335000D02*
X14255000Y-10365000D01*
X14255000Y-10335000D02*
X14225000Y-10365000D01*
X14245000Y-8965000D02*
X14275000Y-8995000D01*
X14275000Y-8965000D02*
X14245000Y-8995000D01*
X14255000Y-9155000D02*
X14285000Y-9185000D01*
X14285000Y-9155000D02*
X14255000Y-9185000D01*
X14265000Y-7645000D02*
X14295000Y-7675000D01*
X14295000Y-7645000D02*
X14265000Y-7675000D01*
X14265000Y-7725000D02*
X14295000Y-7755000D01*
X14295000Y-7725000D02*
X14265000Y-7755000D01*
X14265000Y-7805000D02*
X14295000Y-7835000D01*
X14295000Y-7805000D02*
X14265000Y-7835000D01*
X14285000Y-8125000D02*
X14315000Y-8155000D01*
X14315000Y-8125000D02*
X14285000Y-8155000D01*
X14305000Y-13525000D02*
X14335000Y-13555000D01*
X14335000Y-13525000D02*
X14305000Y-13555000D01*
X14315000Y-9075000D02*
X14345000Y-9105000D01*
X14345000Y-9075000D02*
X14315000Y-9105000D01*
X14325000Y-8215000D02*
X14355000Y-8245000D01*
X14355000Y-8215000D02*
X14325000Y-8245000D01*
X14375000Y-9155000D02*
X14405000Y-9185000D01*
X14405000Y-9155000D02*
X14375000Y-9185000D01*
X14385000Y-8125000D02*
X14415000Y-8155000D01*
X14415000Y-8125000D02*
X14385000Y-8155000D01*
X14425000Y-8215000D02*
X14455000Y-8245000D01*
X14455000Y-8215000D02*
X14425000Y-8245000D01*
X14435000Y-9075000D02*
X14465000Y-9105000D01*
X14465000Y-9075000D02*
X14435000Y-9105000D01*
X14435000Y-10312500D02*
X14465000Y-10342500D01*
X14465000Y-10312500D02*
X14435000Y-10342500D01*
X14435000Y-11175000D02*
X14465000Y-11205000D01*
X14465000Y-11175000D02*
X14435000Y-11205000D01*
X14465000Y-7485000D02*
X14495000Y-7515000D01*
X14495000Y-7485000D02*
X14465000Y-7515000D01*
X14465000Y-13345000D02*
X14495000Y-13375000D01*
X14495000Y-13345000D02*
X14465000Y-13375000D01*
X14475000Y-7105000D02*
X14505000Y-7135000D01*
X14505000Y-7105000D02*
X14475000Y-7135000D01*
X14475000Y-7195000D02*
X14505000Y-7225000D01*
X14505000Y-7195000D02*
X14475000Y-7225000D01*
X14475000Y-7295000D02*
X14505000Y-7325000D01*
X14505000Y-7295000D02*
X14475000Y-7325000D01*
X14475000Y-7385000D02*
X14505000Y-7415000D01*
X14505000Y-7385000D02*
X14475000Y-7415000D01*
X14475000Y-8125000D02*
X14505000Y-8155000D01*
X14505000Y-8125000D02*
X14475000Y-8155000D01*
X14485000Y-9165000D02*
X14515000Y-9195000D01*
X14515000Y-9165000D02*
X14485000Y-9195000D01*
X14495000Y-11595000D02*
X14525000Y-11625000D01*
X14525000Y-11595000D02*
X14495000Y-11625000D01*
X14505000Y-11335000D02*
X14535000Y-11365000D01*
X14535000Y-11335000D02*
X14505000Y-11365000D01*
X14505000Y-12145000D02*
X14535000Y-12175000D01*
X14535000Y-12145000D02*
X14505000Y-12175000D01*
X14515000Y-8215000D02*
X14545000Y-8245000D01*
X14545000Y-8215000D02*
X14515000Y-8245000D01*
X14515000Y-11885000D02*
X14545000Y-11915000D01*
X14545000Y-11885000D02*
X14515000Y-11915000D01*
X14515000Y-12455000D02*
X14545000Y-12485000D01*
X14545000Y-12455000D02*
X14515000Y-12485000D01*
X14515000Y-12795000D02*
X14545000Y-12825000D01*
X14545000Y-12795000D02*
X14515000Y-12825000D01*
X14525000Y-9075000D02*
X14555000Y-9105000D01*
X14555000Y-9075000D02*
X14525000Y-9105000D01*
X14525000Y-10312500D02*
X14555000Y-10342500D01*
X14555000Y-10312500D02*
X14525000Y-10342500D01*
X14525000Y-11175000D02*
X14555000Y-11205000D01*
X14555000Y-11175000D02*
X14525000Y-11205000D01*
X14535000Y-13075000D02*
X14565000Y-13105000D01*
X14565000Y-13075000D02*
X14535000Y-13105000D01*
X14585000Y-7235000D02*
X14615000Y-7265000D01*
X14615000Y-7235000D02*
X14585000Y-7265000D01*
X14585000Y-9165000D02*
X14615000Y-9195000D01*
X14615000Y-9165000D02*
X14585000Y-9195000D01*
X14585000Y-9375000D02*
X14615000Y-9405000D01*
X14615000Y-9375000D02*
X14585000Y-9405000D01*
X14585000Y-9635000D02*
X14615000Y-9665000D01*
X14615000Y-9635000D02*
X14585000Y-9665000D01*
X14585000Y-10135000D02*
X14615000Y-10165000D01*
X14615000Y-10135000D02*
X14585000Y-10165000D01*
X14595000Y-7345000D02*
X14625000Y-7375000D01*
X14625000Y-7345000D02*
X14595000Y-7375000D01*
X14595000Y-7445000D02*
X14625000Y-7475000D01*
X14625000Y-7445000D02*
X14595000Y-7475000D01*
X14595000Y-7655000D02*
X14625000Y-7685000D01*
X14625000Y-7655000D02*
X14595000Y-7685000D01*
X14595000Y-7865000D02*
X14625000Y-7895000D01*
X14625000Y-7865000D02*
X14595000Y-7895000D01*
X14595000Y-8095000D02*
X14625000Y-8125000D01*
X14625000Y-8095000D02*
X14595000Y-8125000D01*
X14595000Y-9915000D02*
X14625000Y-9945000D01*
X14625000Y-9915000D02*
X14595000Y-9945000D01*
X14615000Y-8215000D02*
X14645000Y-8245000D01*
X14645000Y-8215000D02*
X14615000Y-8245000D01*
X14615000Y-9075000D02*
X14645000Y-9105000D01*
X14645000Y-9075000D02*
X14615000Y-9105000D01*
X14615000Y-11175000D02*
X14645000Y-11205000D01*
X14645000Y-11175000D02*
X14615000Y-11205000D01*
X14625000Y-10312500D02*
X14655000Y-10342500D01*
X14655000Y-10312500D02*
X14625000Y-10342500D01*
X14705000Y-8215000D02*
X14735000Y-8245000D01*
X14735000Y-8215000D02*
X14705000Y-8245000D01*
X14705000Y-9075000D02*
X14735000Y-9105000D01*
X14735000Y-9075000D02*
X14705000Y-9105000D01*
X14705000Y-11175000D02*
X14735000Y-11205000D01*
X14735000Y-11175000D02*
X14705000Y-11205000D01*
X14715000Y-10312500D02*
X14745000Y-10342500D01*
X14745000Y-10312500D02*
X14715000Y-10342500D01*
X5105000Y-12257180D02*
G75*
G02*
X5055000Y-12257180I-25000J0D01*
G01*
X5055000Y-12257180D02*
G75*
G02*
X5105000Y-12257180I25000J0D01*
G01*
X5112500Y-12232180D02*
X5047500Y-12232180D01*
X5047500Y-12282180D02*
G75*
G02*
X5047500Y-12232180I0J25000D01*
G01*
X5047500Y-12282180D02*
X5112500Y-12282180D01*
X5112500Y-12282180D02*
G75*
G03*
X5112500Y-12232180I0J25000D01*
G01*
X5105000Y-12957180D02*
G75*
G02*
X5055000Y-12957180I-25000J0D01*
G01*
X5055000Y-12957180D02*
G75*
G02*
X5105000Y-12957180I25000J0D01*
G01*
X5112500Y-12932180D02*
X5047500Y-12932180D01*
X5047500Y-12982180D02*
G75*
G02*
X5047500Y-12932180I0J25000D01*
G01*
X5047500Y-12982180D02*
X5112500Y-12982180D01*
X5112500Y-12982180D02*
G75*
G03*
X5112500Y-12932180I0J25000D01*
G01*
X10600000Y-9755500D02*
X10600000Y-9806300D01*
X10574600Y-9780900D02*
X10625400Y-9780900D01*
X10600000Y-10174600D02*
X10600000Y-10225400D01*
X10574600Y-10200000D02*
X10625400Y-10200000D01*
X10727000Y-9755500D02*
X10727000Y-9806300D01*
X10701600Y-9780900D02*
X10752400Y-9780900D01*
X10854000Y-9336400D02*
X10854000Y-9387200D01*
X10828600Y-9361800D02*
X10879400Y-9361800D01*
X10854000Y-9755500D02*
X10854000Y-9806300D01*
X10828600Y-9780900D02*
X10879400Y-9780900D01*
X10981000Y-9755500D02*
X10981000Y-9806300D01*
X10955600Y-9780900D02*
X11006400Y-9780900D01*
X11108000Y-9336400D02*
X11108000Y-9387200D01*
X11082600Y-9361800D02*
X11133400Y-9361800D01*
X11108000Y-9755500D02*
X11108000Y-9806300D01*
X11082600Y-9780900D02*
X11133400Y-9780900D01*
X5369446Y-12376626D02*
X5369446Y-12337734D01*
X5330554Y-12337734D01*
X5330554Y-12376626D01*
X5369446Y-12376626D01*
X5322500Y-12339680D02*
X5322500Y-12374680D01*
X5377500Y-12374680D02*
G75*
G02*
X5322500Y-12374680I-27500J0D01*
G01*
X5377500Y-12374680D02*
X5377500Y-12339680D01*
X5377500Y-12339680D02*
G75*
G03*
X5322500Y-12339680I-27500J0D01*
G01*
X5369446Y-12876626D02*
X5369446Y-12837734D01*
X5330554Y-12837734D01*
X5330554Y-12876626D01*
X5369446Y-12876626D01*
X5322500Y-12839680D02*
X5322500Y-12874680D01*
X5377500Y-12874680D02*
G75*
G02*
X5322500Y-12874680I-27500J0D01*
G01*
X5377500Y-12874680D02*
X5377500Y-12839680D01*
X5377500Y-12839680D02*
G75*
G03*
X5322500Y-12839680I-27500J0D01*
G01*
X5416140Y-11730000D02*
X5456140Y-11690000D01*
X5416140Y-11650000D01*
X5376140Y-11690000D01*
X5416140Y-11730000D01*
X5666139Y-11730000D02*
X5706139Y-11690000D01*
X5666139Y-11650000D01*
X5626139Y-11690000D01*
X5666139Y-11730000D01*
X5426000Y-7330000D02*
X5526000Y-7430000D01*
X5526000Y-7330000D02*
X5426000Y-7430000D01*
X5526000Y-7380000D02*
G75*
G02*
X5426000Y-7380000I-50000J0D01*
G01*
X5426000Y-7380000D02*
G75*
G02*
X5526000Y-7380000I50000J0D01*
G01*
X5680000Y-7330000D02*
X5780000Y-7430000D01*
X5780000Y-7330000D02*
X5680000Y-7430000D01*
X5780000Y-7380000D02*
G75*
G02*
X5680000Y-7380000I-50000J0D01*
G01*
X5680000Y-7380000D02*
G75*
G02*
X5780000Y-7380000I50000J0D01*
G01*
D13*
X6854180Y-10729000D02*
X6956180Y-10831000D01*
X6956180Y-10729000D02*
X6854180Y-10831000D01*
X6905180Y-10729000D02*
X6905180Y-10831000D01*
X6854180Y-10780000D02*
X6956180Y-10780000D01*
X7108180Y-10729000D02*
X7210180Y-10831000D01*
X7210180Y-10729000D02*
X7108180Y-10831000D01*
X7159180Y-10729000D02*
X7159180Y-10831000D01*
X7108180Y-10780000D02*
X7210180Y-10780000D01*
X7362180Y-10729000D02*
X7464180Y-10831000D01*
X7464180Y-10729000D02*
X7362180Y-10831000D01*
X7413180Y-10729000D02*
X7413180Y-10831000D01*
X7362180Y-10780000D02*
X7464180Y-10780000D01*
X7616180Y-10729000D02*
X7718180Y-10831000D01*
X7718180Y-10729000D02*
X7616180Y-10831000D01*
X7667180Y-10729000D02*
X7667180Y-10831000D01*
X7616180Y-10780000D02*
X7718180Y-10780000D01*
D11*
X5188277Y-14093984D02*
X5188277Y-13893984D01*
X5188277Y-13893984D02*
X5235896Y-13893984D01*
X5235896Y-13893984D02*
X5264467Y-13903508D01*
X5264467Y-13903508D02*
X5283515Y-13922555D01*
X5283515Y-13922555D02*
X5293039Y-13941603D01*
X5293039Y-13941603D02*
X5302563Y-13979698D01*
X5302563Y-13979698D02*
X5302563Y-14008269D01*
X5302563Y-14008269D02*
X5293039Y-14046365D01*
X5293039Y-14046365D02*
X5283515Y-14065412D01*
X5283515Y-14065412D02*
X5264467Y-14084460D01*
X5264467Y-14084460D02*
X5235896Y-14093984D01*
X5235896Y-14093984D02*
X5188277Y-14093984D01*
X5388277Y-14093984D02*
X5388277Y-13960650D01*
X5388277Y-13998746D02*
X5397801Y-13979698D01*
X5397801Y-13979698D02*
X5407324Y-13970174D01*
X5407324Y-13970174D02*
X5426372Y-13960650D01*
X5426372Y-13960650D02*
X5445420Y-13960650D01*
X5512086Y-14093984D02*
X5512086Y-13960650D01*
X5512086Y-13893984D02*
X5502563Y-13903508D01*
X5502563Y-13903508D02*
X5512086Y-13913031D01*
X5512086Y-13913031D02*
X5521610Y-13903508D01*
X5521610Y-13903508D02*
X5512086Y-13893984D01*
X5512086Y-13893984D02*
X5512086Y-13913031D01*
X5635896Y-14093984D02*
X5616848Y-14084460D01*
X5616848Y-14084460D02*
X5607324Y-14065412D01*
X5607324Y-14065412D02*
X5607324Y-13893984D01*
X5740658Y-14093984D02*
X5721610Y-14084460D01*
X5721610Y-14084460D02*
X5712086Y-14065412D01*
X5712086Y-14065412D02*
X5712086Y-13893984D01*
X5969229Y-14093984D02*
X5969229Y-13893984D01*
X5969229Y-13893984D02*
X6035896Y-14036841D01*
X6035896Y-14036841D02*
X6102562Y-13893984D01*
X6102562Y-13893984D02*
X6102562Y-14093984D01*
X6283515Y-14093984D02*
X6283515Y-13989222D01*
X6283515Y-13989222D02*
X6273991Y-13970174D01*
X6273991Y-13970174D02*
X6254943Y-13960650D01*
X6254943Y-13960650D02*
X6216848Y-13960650D01*
X6216848Y-13960650D02*
X6197801Y-13970174D01*
X6283515Y-14084460D02*
X6264467Y-14093984D01*
X6264467Y-14093984D02*
X6216848Y-14093984D01*
X6216848Y-14093984D02*
X6197801Y-14084460D01*
X6197801Y-14084460D02*
X6188277Y-14065412D01*
X6188277Y-14065412D02*
X6188277Y-14046365D01*
X6188277Y-14046365D02*
X6197801Y-14027317D01*
X6197801Y-14027317D02*
X6216848Y-14017793D01*
X6216848Y-14017793D02*
X6264467Y-14017793D01*
X6264467Y-14017793D02*
X6283515Y-14008269D01*
X6378753Y-13960650D02*
X6378753Y-14160650D01*
X6378753Y-13970174D02*
X6397801Y-13960650D01*
X6397801Y-13960650D02*
X6435896Y-13960650D01*
X6435896Y-13960650D02*
X6454943Y-13970174D01*
X6454943Y-13970174D02*
X6464467Y-13979698D01*
X6464467Y-13979698D02*
X6473991Y-13998746D01*
X6473991Y-13998746D02*
X6473991Y-14055888D01*
X6473991Y-14055888D02*
X6464467Y-14074936D01*
X6464467Y-14074936D02*
X6454943Y-14084460D01*
X6454943Y-14084460D02*
X6435896Y-14093984D01*
X6435896Y-14093984D02*
X6397801Y-14093984D01*
X6397801Y-14093984D02*
X6378753Y-14084460D01*
X6559705Y-14074936D02*
X6569229Y-14084460D01*
X6569229Y-14084460D02*
X6559705Y-14093984D01*
X6559705Y-14093984D02*
X6550182Y-14084460D01*
X6550182Y-14084460D02*
X6559705Y-14074936D01*
X6559705Y-14074936D02*
X6559705Y-14093984D01*
X6559705Y-13970174D02*
X6569229Y-13979698D01*
X6569229Y-13979698D02*
X6559705Y-13989222D01*
X6559705Y-13989222D02*
X6550182Y-13979698D01*
X6550182Y-13979698D02*
X6559705Y-13970174D01*
X6559705Y-13970174D02*
X6559705Y-13989222D01*
D12*
X4897500Y-14407500D02*
X4927500Y-14437500D01*
X4927500Y-14407500D02*
X4897500Y-14437500D01*
D11*
X5226372Y-14313984D02*
X5245420Y-14313984D01*
X5245420Y-14313984D02*
X5264467Y-14323508D01*
X5264467Y-14323508D02*
X5273991Y-14333031D01*
X5273991Y-14333031D02*
X5283515Y-14352079D01*
X5283515Y-14352079D02*
X5293039Y-14390174D01*
X5293039Y-14390174D02*
X5293039Y-14437793D01*
X5293039Y-14437793D02*
X5283515Y-14475888D01*
X5283515Y-14475888D02*
X5273991Y-14494936D01*
X5273991Y-14494936D02*
X5264467Y-14504460D01*
X5264467Y-14504460D02*
X5245420Y-14513984D01*
X5245420Y-14513984D02*
X5226372Y-14513984D01*
X5226372Y-14513984D02*
X5207324Y-14504460D01*
X5207324Y-14504460D02*
X5197801Y-14494936D01*
X5197801Y-14494936D02*
X5188277Y-14475888D01*
X5188277Y-14475888D02*
X5178753Y-14437793D01*
X5178753Y-14437793D02*
X5178753Y-14390174D01*
X5178753Y-14390174D02*
X5188277Y-14352079D01*
X5188277Y-14352079D02*
X5197801Y-14333031D01*
X5197801Y-14333031D02*
X5207324Y-14323508D01*
X5207324Y-14323508D02*
X5226372Y-14313984D01*
X5378753Y-14494936D02*
X5388277Y-14504460D01*
X5388277Y-14504460D02*
X5378753Y-14513984D01*
X5378753Y-14513984D02*
X5369229Y-14504460D01*
X5369229Y-14504460D02*
X5378753Y-14494936D01*
X5378753Y-14494936D02*
X5378753Y-14513984D01*
X5454944Y-14313984D02*
X5578753Y-14313984D01*
X5578753Y-14313984D02*
X5512086Y-14390174D01*
X5512086Y-14390174D02*
X5540658Y-14390174D01*
X5540658Y-14390174D02*
X5559705Y-14399698D01*
X5559705Y-14399698D02*
X5569229Y-14409222D01*
X5569229Y-14409222D02*
X5578753Y-14428269D01*
X5578753Y-14428269D02*
X5578753Y-14475888D01*
X5578753Y-14475888D02*
X5569229Y-14494936D01*
X5569229Y-14494936D02*
X5559705Y-14504460D01*
X5559705Y-14504460D02*
X5540658Y-14513984D01*
X5540658Y-14513984D02*
X5483515Y-14513984D01*
X5483515Y-14513984D02*
X5464467Y-14504460D01*
X5464467Y-14504460D02*
X5454944Y-14494936D01*
X5702562Y-14313984D02*
X5721610Y-14313984D01*
X5721610Y-14313984D02*
X5740658Y-14323508D01*
X5740658Y-14323508D02*
X5750182Y-14333031D01*
X5750182Y-14333031D02*
X5759705Y-14352079D01*
X5759705Y-14352079D02*
X5769229Y-14390174D01*
X5769229Y-14390174D02*
X5769229Y-14437793D01*
X5769229Y-14437793D02*
X5759705Y-14475888D01*
X5759705Y-14475888D02*
X5750182Y-14494936D01*
X5750182Y-14494936D02*
X5740658Y-14504460D01*
X5740658Y-14504460D02*
X5721610Y-14513984D01*
X5721610Y-14513984D02*
X5702562Y-14513984D01*
X5702562Y-14513984D02*
X5683515Y-14504460D01*
X5683515Y-14504460D02*
X5673991Y-14494936D01*
X5673991Y-14494936D02*
X5664467Y-14475888D01*
X5664467Y-14475888D02*
X5654943Y-14437793D01*
X5654943Y-14437793D02*
X5654943Y-14390174D01*
X5654943Y-14390174D02*
X5664467Y-14352079D01*
X5664467Y-14352079D02*
X5673991Y-14333031D01*
X5673991Y-14333031D02*
X5683515Y-14323508D01*
X5683515Y-14323508D02*
X5702562Y-14313984D01*
X5893039Y-14313984D02*
X5912086Y-14313984D01*
X5912086Y-14313984D02*
X5931134Y-14323508D01*
X5931134Y-14323508D02*
X5940658Y-14333031D01*
X5940658Y-14333031D02*
X5950182Y-14352079D01*
X5950182Y-14352079D02*
X5959705Y-14390174D01*
X5959705Y-14390174D02*
X5959705Y-14437793D01*
X5959705Y-14437793D02*
X5950182Y-14475888D01*
X5950182Y-14475888D02*
X5940658Y-14494936D01*
X5940658Y-14494936D02*
X5931134Y-14504460D01*
X5931134Y-14504460D02*
X5912086Y-14513984D01*
X5912086Y-14513984D02*
X5893039Y-14513984D01*
X5893039Y-14513984D02*
X5873991Y-14504460D01*
X5873991Y-14504460D02*
X5864467Y-14494936D01*
X5864467Y-14494936D02*
X5854943Y-14475888D01*
X5854943Y-14475888D02*
X5845420Y-14437793D01*
X5845420Y-14437793D02*
X5845420Y-14390174D01*
X5845420Y-14390174D02*
X5854943Y-14352079D01*
X5854943Y-14352079D02*
X5864467Y-14333031D01*
X5864467Y-14333031D02*
X5873991Y-14323508D01*
X5873991Y-14323508D02*
X5893039Y-14313984D01*
X6045420Y-14513984D02*
X6045420Y-14380650D01*
X6045420Y-14399698D02*
X6054943Y-14390174D01*
X6054943Y-14390174D02*
X6073991Y-14380650D01*
X6073991Y-14380650D02*
X6102563Y-14380650D01*
X6102563Y-14380650D02*
X6121610Y-14390174D01*
X6121610Y-14390174D02*
X6131134Y-14409222D01*
X6131134Y-14409222D02*
X6131134Y-14513984D01*
X6131134Y-14409222D02*
X6140658Y-14390174D01*
X6140658Y-14390174D02*
X6159705Y-14380650D01*
X6159705Y-14380650D02*
X6188277Y-14380650D01*
X6188277Y-14380650D02*
X6207324Y-14390174D01*
X6207324Y-14390174D02*
X6216848Y-14409222D01*
X6216848Y-14409222D02*
X6216848Y-14513984D01*
X6312086Y-14513984D02*
X6312086Y-14380650D01*
X6312086Y-14399698D02*
X6321610Y-14390174D01*
X6321610Y-14390174D02*
X6340658Y-14380650D01*
X6340658Y-14380650D02*
X6369229Y-14380650D01*
X6369229Y-14380650D02*
X6388277Y-14390174D01*
X6388277Y-14390174D02*
X6397801Y-14409222D01*
X6397801Y-14409222D02*
X6397801Y-14513984D01*
X6397801Y-14409222D02*
X6407324Y-14390174D01*
X6407324Y-14390174D02*
X6426372Y-14380650D01*
X6426372Y-14380650D02*
X6454943Y-14380650D01*
X6454943Y-14380650D02*
X6473991Y-14390174D01*
X6473991Y-14390174D02*
X6483515Y-14409222D01*
X6483515Y-14409222D02*
X6483515Y-14513984D01*
X6873991Y-14304460D02*
X6702563Y-14561603D01*
X7131134Y-14313984D02*
X7150182Y-14313984D01*
X7150182Y-14313984D02*
X7169229Y-14323508D01*
X7169229Y-14323508D02*
X7178753Y-14333031D01*
X7178753Y-14333031D02*
X7188277Y-14352079D01*
X7188277Y-14352079D02*
X7197801Y-14390174D01*
X7197801Y-14390174D02*
X7197801Y-14437793D01*
X7197801Y-14437793D02*
X7188277Y-14475888D01*
X7188277Y-14475888D02*
X7178753Y-14494936D01*
X7178753Y-14494936D02*
X7169229Y-14504460D01*
X7169229Y-14504460D02*
X7150182Y-14513984D01*
X7150182Y-14513984D02*
X7131134Y-14513984D01*
X7131134Y-14513984D02*
X7112086Y-14504460D01*
X7112086Y-14504460D02*
X7102563Y-14494936D01*
X7102563Y-14494936D02*
X7093039Y-14475888D01*
X7093039Y-14475888D02*
X7083515Y-14437793D01*
X7083515Y-14437793D02*
X7083515Y-14390174D01*
X7083515Y-14390174D02*
X7093039Y-14352079D01*
X7093039Y-14352079D02*
X7102563Y-14333031D01*
X7102563Y-14333031D02*
X7112086Y-14323508D01*
X7112086Y-14323508D02*
X7131134Y-14313984D01*
X7283515Y-14494936D02*
X7293039Y-14504460D01*
X7293039Y-14504460D02*
X7283515Y-14513984D01*
X7283515Y-14513984D02*
X7273991Y-14504460D01*
X7273991Y-14504460D02*
X7283515Y-14494936D01*
X7283515Y-14494936D02*
X7283515Y-14513984D01*
X7416848Y-14313984D02*
X7435896Y-14313984D01*
X7435896Y-14313984D02*
X7454944Y-14323508D01*
X7454944Y-14323508D02*
X7464467Y-14333031D01*
X7464467Y-14333031D02*
X7473991Y-14352079D01*
X7473991Y-14352079D02*
X7483515Y-14390174D01*
X7483515Y-14390174D02*
X7483515Y-14437793D01*
X7483515Y-14437793D02*
X7473991Y-14475888D01*
X7473991Y-14475888D02*
X7464467Y-14494936D01*
X7464467Y-14494936D02*
X7454944Y-14504460D01*
X7454944Y-14504460D02*
X7435896Y-14513984D01*
X7435896Y-14513984D02*
X7416848Y-14513984D01*
X7416848Y-14513984D02*
X7397801Y-14504460D01*
X7397801Y-14504460D02*
X7388277Y-14494936D01*
X7388277Y-14494936D02*
X7378753Y-14475888D01*
X7378753Y-14475888D02*
X7369229Y-14437793D01*
X7369229Y-14437793D02*
X7369229Y-14390174D01*
X7369229Y-14390174D02*
X7378753Y-14352079D01*
X7378753Y-14352079D02*
X7388277Y-14333031D01*
X7388277Y-14333031D02*
X7397801Y-14323508D01*
X7397801Y-14323508D02*
X7416848Y-14313984D01*
X7673991Y-14513984D02*
X7559706Y-14513984D01*
X7616848Y-14513984D02*
X7616848Y-14313984D01*
X7616848Y-14313984D02*
X7597801Y-14342555D01*
X7597801Y-14342555D02*
X7578753Y-14361603D01*
X7578753Y-14361603D02*
X7559706Y-14371127D01*
X7864467Y-14513984D02*
X7750182Y-14513984D01*
X7807325Y-14513984D02*
X7807325Y-14313984D01*
X7807325Y-14313984D02*
X7788277Y-14342555D01*
X7788277Y-14342555D02*
X7769229Y-14361603D01*
X7769229Y-14361603D02*
X7750182Y-14371127D01*
X7978753Y-14399698D02*
X7959706Y-14390174D01*
X7959706Y-14390174D02*
X7950182Y-14380650D01*
X7950182Y-14380650D02*
X7940658Y-14361603D01*
X7940658Y-14361603D02*
X7940658Y-14352079D01*
X7940658Y-14352079D02*
X7950182Y-14333031D01*
X7950182Y-14333031D02*
X7959706Y-14323508D01*
X7959706Y-14323508D02*
X7978753Y-14313984D01*
X7978753Y-14313984D02*
X8016848Y-14313984D01*
X8016848Y-14313984D02*
X8035896Y-14323508D01*
X8035896Y-14323508D02*
X8045420Y-14333031D01*
X8045420Y-14333031D02*
X8054944Y-14352079D01*
X8054944Y-14352079D02*
X8054944Y-14361603D01*
X8054944Y-14361603D02*
X8045420Y-14380650D01*
X8045420Y-14380650D02*
X8035896Y-14390174D01*
X8035896Y-14390174D02*
X8016848Y-14399698D01*
X8016848Y-14399698D02*
X7978753Y-14399698D01*
X7978753Y-14399698D02*
X7959706Y-14409222D01*
X7959706Y-14409222D02*
X7950182Y-14418746D01*
X7950182Y-14418746D02*
X7940658Y-14437793D01*
X7940658Y-14437793D02*
X7940658Y-14475888D01*
X7940658Y-14475888D02*
X7950182Y-14494936D01*
X7950182Y-14494936D02*
X7959706Y-14504460D01*
X7959706Y-14504460D02*
X7978753Y-14513984D01*
X7978753Y-14513984D02*
X8016848Y-14513984D01*
X8016848Y-14513984D02*
X8035896Y-14504460D01*
X8035896Y-14504460D02*
X8045420Y-14494936D01*
X8045420Y-14494936D02*
X8054944Y-14475888D01*
X8054944Y-14475888D02*
X8054944Y-14437793D01*
X8054944Y-14437793D02*
X8045420Y-14418746D01*
X8045420Y-14418746D02*
X8035896Y-14409222D01*
X8035896Y-14409222D02*
X8016848Y-14399698D01*
X8131134Y-14313984D02*
X8131134Y-14352079D01*
X8207325Y-14313984D02*
X8207325Y-14352079D01*
X8502563Y-14590174D02*
X8493039Y-14580650D01*
X8493039Y-14580650D02*
X8473991Y-14552079D01*
X8473991Y-14552079D02*
X8464468Y-14533031D01*
X8464468Y-14533031D02*
X8454944Y-14504460D01*
X8454944Y-14504460D02*
X8445420Y-14456841D01*
X8445420Y-14456841D02*
X8445420Y-14418746D01*
X8445420Y-14418746D02*
X8454944Y-14371127D01*
X8454944Y-14371127D02*
X8464468Y-14342555D01*
X8464468Y-14342555D02*
X8473991Y-14323508D01*
X8473991Y-14323508D02*
X8493039Y-14294936D01*
X8493039Y-14294936D02*
X8502563Y-14285412D01*
X8673991Y-14313984D02*
X8578753Y-14313984D01*
X8578753Y-14313984D02*
X8569230Y-14409222D01*
X8569230Y-14409222D02*
X8578753Y-14399698D01*
X8578753Y-14399698D02*
X8597801Y-14390174D01*
X8597801Y-14390174D02*
X8645420Y-14390174D01*
X8645420Y-14390174D02*
X8664468Y-14399698D01*
X8664468Y-14399698D02*
X8673991Y-14409222D01*
X8673991Y-14409222D02*
X8683515Y-14428269D01*
X8683515Y-14428269D02*
X8683515Y-14475888D01*
X8683515Y-14475888D02*
X8673991Y-14494936D01*
X8673991Y-14494936D02*
X8664468Y-14504460D01*
X8664468Y-14504460D02*
X8645420Y-14513984D01*
X8645420Y-14513984D02*
X8597801Y-14513984D01*
X8597801Y-14513984D02*
X8578753Y-14504460D01*
X8578753Y-14504460D02*
X8569230Y-14494936D01*
X8759706Y-14333031D02*
X8769230Y-14323508D01*
X8769230Y-14323508D02*
X8788277Y-14313984D01*
X8788277Y-14313984D02*
X8835896Y-14313984D01*
X8835896Y-14313984D02*
X8854944Y-14323508D01*
X8854944Y-14323508D02*
X8864468Y-14333031D01*
X8864468Y-14333031D02*
X8873991Y-14352079D01*
X8873991Y-14352079D02*
X8873991Y-14371127D01*
X8873991Y-14371127D02*
X8864468Y-14399698D01*
X8864468Y-14399698D02*
X8750182Y-14513984D01*
X8750182Y-14513984D02*
X8873991Y-14513984D01*
X9045420Y-14313984D02*
X9007325Y-14313984D01*
X9007325Y-14313984D02*
X8988277Y-14323508D01*
X8988277Y-14323508D02*
X8978753Y-14333031D01*
X8978753Y-14333031D02*
X8959706Y-14361603D01*
X8959706Y-14361603D02*
X8950182Y-14399698D01*
X8950182Y-14399698D02*
X8950182Y-14475888D01*
X8950182Y-14475888D02*
X8959706Y-14494936D01*
X8959706Y-14494936D02*
X8969230Y-14504460D01*
X8969230Y-14504460D02*
X8988277Y-14513984D01*
X8988277Y-14513984D02*
X9026372Y-14513984D01*
X9026372Y-14513984D02*
X9045420Y-14504460D01*
X9045420Y-14504460D02*
X9054944Y-14494936D01*
X9054944Y-14494936D02*
X9064468Y-14475888D01*
X9064468Y-14475888D02*
X9064468Y-14428269D01*
X9064468Y-14428269D02*
X9054944Y-14409222D01*
X9054944Y-14409222D02*
X9045420Y-14399698D01*
X9045420Y-14399698D02*
X9026372Y-14390174D01*
X9026372Y-14390174D02*
X8988277Y-14390174D01*
X8988277Y-14390174D02*
X8969230Y-14399698D01*
X8969230Y-14399698D02*
X8959706Y-14409222D01*
X8959706Y-14409222D02*
X8950182Y-14428269D01*
X9302563Y-14513984D02*
X9302563Y-14313984D01*
X9388277Y-14513984D02*
X9388277Y-14409222D01*
X9388277Y-14409222D02*
X9378753Y-14390174D01*
X9378753Y-14390174D02*
X9359706Y-14380650D01*
X9359706Y-14380650D02*
X9331134Y-14380650D01*
X9331134Y-14380650D02*
X9312087Y-14390174D01*
X9312087Y-14390174D02*
X9302563Y-14399698D01*
X9512087Y-14513984D02*
X9493039Y-14504460D01*
X9493039Y-14504460D02*
X9483515Y-14494936D01*
X9483515Y-14494936D02*
X9473992Y-14475888D01*
X9473992Y-14475888D02*
X9473992Y-14418746D01*
X9473992Y-14418746D02*
X9483515Y-14399698D01*
X9483515Y-14399698D02*
X9493039Y-14390174D01*
X9493039Y-14390174D02*
X9512087Y-14380650D01*
X9512087Y-14380650D02*
X9540658Y-14380650D01*
X9540658Y-14380650D02*
X9559706Y-14390174D01*
X9559706Y-14390174D02*
X9569230Y-14399698D01*
X9569230Y-14399698D02*
X9578753Y-14418746D01*
X9578753Y-14418746D02*
X9578753Y-14475888D01*
X9578753Y-14475888D02*
X9569230Y-14494936D01*
X9569230Y-14494936D02*
X9559706Y-14504460D01*
X9559706Y-14504460D02*
X9540658Y-14513984D01*
X9540658Y-14513984D02*
X9512087Y-14513984D01*
X9693039Y-14513984D02*
X9673992Y-14504460D01*
X9673992Y-14504460D02*
X9664468Y-14485412D01*
X9664468Y-14485412D02*
X9664468Y-14313984D01*
X9845420Y-14504460D02*
X9826373Y-14513984D01*
X9826373Y-14513984D02*
X9788277Y-14513984D01*
X9788277Y-14513984D02*
X9769230Y-14504460D01*
X9769230Y-14504460D02*
X9759706Y-14485412D01*
X9759706Y-14485412D02*
X9759706Y-14409222D01*
X9759706Y-14409222D02*
X9769230Y-14390174D01*
X9769230Y-14390174D02*
X9788277Y-14380650D01*
X9788277Y-14380650D02*
X9826373Y-14380650D01*
X9826373Y-14380650D02*
X9845420Y-14390174D01*
X9845420Y-14390174D02*
X9854944Y-14409222D01*
X9854944Y-14409222D02*
X9854944Y-14428269D01*
X9854944Y-14428269D02*
X9759706Y-14447317D01*
X9931134Y-14504460D02*
X9950182Y-14513984D01*
X9950182Y-14513984D02*
X9988277Y-14513984D01*
X9988277Y-14513984D02*
X10007325Y-14504460D01*
X10007325Y-14504460D02*
X10016849Y-14485412D01*
X10016849Y-14485412D02*
X10016849Y-14475888D01*
X10016849Y-14475888D02*
X10007325Y-14456841D01*
X10007325Y-14456841D02*
X9988277Y-14447317D01*
X9988277Y-14447317D02*
X9959706Y-14447317D01*
X9959706Y-14447317D02*
X9940658Y-14437793D01*
X9940658Y-14437793D02*
X9931134Y-14418746D01*
X9931134Y-14418746D02*
X9931134Y-14409222D01*
X9931134Y-14409222D02*
X9940658Y-14390174D01*
X9940658Y-14390174D02*
X9959706Y-14380650D01*
X9959706Y-14380650D02*
X9988277Y-14380650D01*
X9988277Y-14380650D02*
X10007325Y-14390174D01*
X10083515Y-14590174D02*
X10093039Y-14580650D01*
X10093039Y-14580650D02*
X10112087Y-14552079D01*
X10112087Y-14552079D02*
X10121611Y-14533031D01*
X10121611Y-14533031D02*
X10131134Y-14504460D01*
X10131134Y-14504460D02*
X10140658Y-14456841D01*
X10140658Y-14456841D02*
X10140658Y-14418746D01*
X10140658Y-14418746D02*
X10131134Y-14371127D01*
X10131134Y-14371127D02*
X10121611Y-14342555D01*
X10121611Y-14342555D02*
X10112087Y-14323508D01*
X10112087Y-14323508D02*
X10093039Y-14294936D01*
X10093039Y-14294936D02*
X10083515Y-14285412D01*
D12*
X4927500Y-14686500D02*
G75*
G02*
X4877500Y-14686500I-25000J0D01*
G01*
X4877500Y-14686500D02*
G75*
G02*
X4927500Y-14686500I25000J0D01*
G01*
D11*
X5226372Y-14577984D02*
X5245420Y-14577984D01*
X5245420Y-14577984D02*
X5264467Y-14587508D01*
X5264467Y-14587508D02*
X5273991Y-14597031D01*
X5273991Y-14597031D02*
X5283515Y-14616079D01*
X5283515Y-14616079D02*
X5293039Y-14654174D01*
X5293039Y-14654174D02*
X5293039Y-14701793D01*
X5293039Y-14701793D02*
X5283515Y-14739888D01*
X5283515Y-14739888D02*
X5273991Y-14758936D01*
X5273991Y-14758936D02*
X5264467Y-14768460D01*
X5264467Y-14768460D02*
X5245420Y-14777984D01*
X5245420Y-14777984D02*
X5226372Y-14777984D01*
X5226372Y-14777984D02*
X5207324Y-14768460D01*
X5207324Y-14768460D02*
X5197801Y-14758936D01*
X5197801Y-14758936D02*
X5188277Y-14739888D01*
X5188277Y-14739888D02*
X5178753Y-14701793D01*
X5178753Y-14701793D02*
X5178753Y-14654174D01*
X5178753Y-14654174D02*
X5188277Y-14616079D01*
X5188277Y-14616079D02*
X5197801Y-14597031D01*
X5197801Y-14597031D02*
X5207324Y-14587508D01*
X5207324Y-14587508D02*
X5226372Y-14577984D01*
X5378753Y-14758936D02*
X5388277Y-14768460D01*
X5388277Y-14768460D02*
X5378753Y-14777984D01*
X5378753Y-14777984D02*
X5369229Y-14768460D01*
X5369229Y-14768460D02*
X5378753Y-14758936D01*
X5378753Y-14758936D02*
X5378753Y-14777984D01*
X5569229Y-14577984D02*
X5473991Y-14577984D01*
X5473991Y-14577984D02*
X5464467Y-14673222D01*
X5464467Y-14673222D02*
X5473991Y-14663698D01*
X5473991Y-14663698D02*
X5493039Y-14654174D01*
X5493039Y-14654174D02*
X5540658Y-14654174D01*
X5540658Y-14654174D02*
X5559705Y-14663698D01*
X5559705Y-14663698D02*
X5569229Y-14673222D01*
X5569229Y-14673222D02*
X5578753Y-14692269D01*
X5578753Y-14692269D02*
X5578753Y-14739888D01*
X5578753Y-14739888D02*
X5569229Y-14758936D01*
X5569229Y-14758936D02*
X5559705Y-14768460D01*
X5559705Y-14768460D02*
X5540658Y-14777984D01*
X5540658Y-14777984D02*
X5493039Y-14777984D01*
X5493039Y-14777984D02*
X5473991Y-14768460D01*
X5473991Y-14768460D02*
X5464467Y-14758936D01*
X5702562Y-14577984D02*
X5721610Y-14577984D01*
X5721610Y-14577984D02*
X5740658Y-14587508D01*
X5740658Y-14587508D02*
X5750182Y-14597031D01*
X5750182Y-14597031D02*
X5759705Y-14616079D01*
X5759705Y-14616079D02*
X5769229Y-14654174D01*
X5769229Y-14654174D02*
X5769229Y-14701793D01*
X5769229Y-14701793D02*
X5759705Y-14739888D01*
X5759705Y-14739888D02*
X5750182Y-14758936D01*
X5750182Y-14758936D02*
X5740658Y-14768460D01*
X5740658Y-14768460D02*
X5721610Y-14777984D01*
X5721610Y-14777984D02*
X5702562Y-14777984D01*
X5702562Y-14777984D02*
X5683515Y-14768460D01*
X5683515Y-14768460D02*
X5673991Y-14758936D01*
X5673991Y-14758936D02*
X5664467Y-14739888D01*
X5664467Y-14739888D02*
X5654943Y-14701793D01*
X5654943Y-14701793D02*
X5654943Y-14654174D01*
X5654943Y-14654174D02*
X5664467Y-14616079D01*
X5664467Y-14616079D02*
X5673991Y-14597031D01*
X5673991Y-14597031D02*
X5683515Y-14587508D01*
X5683515Y-14587508D02*
X5702562Y-14577984D01*
X5893039Y-14577984D02*
X5912086Y-14577984D01*
X5912086Y-14577984D02*
X5931134Y-14587508D01*
X5931134Y-14587508D02*
X5940658Y-14597031D01*
X5940658Y-14597031D02*
X5950182Y-14616079D01*
X5950182Y-14616079D02*
X5959705Y-14654174D01*
X5959705Y-14654174D02*
X5959705Y-14701793D01*
X5959705Y-14701793D02*
X5950182Y-14739888D01*
X5950182Y-14739888D02*
X5940658Y-14758936D01*
X5940658Y-14758936D02*
X5931134Y-14768460D01*
X5931134Y-14768460D02*
X5912086Y-14777984D01*
X5912086Y-14777984D02*
X5893039Y-14777984D01*
X5893039Y-14777984D02*
X5873991Y-14768460D01*
X5873991Y-14768460D02*
X5864467Y-14758936D01*
X5864467Y-14758936D02*
X5854943Y-14739888D01*
X5854943Y-14739888D02*
X5845420Y-14701793D01*
X5845420Y-14701793D02*
X5845420Y-14654174D01*
X5845420Y-14654174D02*
X5854943Y-14616079D01*
X5854943Y-14616079D02*
X5864467Y-14597031D01*
X5864467Y-14597031D02*
X5873991Y-14587508D01*
X5873991Y-14587508D02*
X5893039Y-14577984D01*
X6045420Y-14777984D02*
X6045420Y-14644650D01*
X6045420Y-14663698D02*
X6054943Y-14654174D01*
X6054943Y-14654174D02*
X6073991Y-14644650D01*
X6073991Y-14644650D02*
X6102563Y-14644650D01*
X6102563Y-14644650D02*
X6121610Y-14654174D01*
X6121610Y-14654174D02*
X6131134Y-14673222D01*
X6131134Y-14673222D02*
X6131134Y-14777984D01*
X6131134Y-14673222D02*
X6140658Y-14654174D01*
X6140658Y-14654174D02*
X6159705Y-14644650D01*
X6159705Y-14644650D02*
X6188277Y-14644650D01*
X6188277Y-14644650D02*
X6207324Y-14654174D01*
X6207324Y-14654174D02*
X6216848Y-14673222D01*
X6216848Y-14673222D02*
X6216848Y-14777984D01*
X6312086Y-14777984D02*
X6312086Y-14644650D01*
X6312086Y-14663698D02*
X6321610Y-14654174D01*
X6321610Y-14654174D02*
X6340658Y-14644650D01*
X6340658Y-14644650D02*
X6369229Y-14644650D01*
X6369229Y-14644650D02*
X6388277Y-14654174D01*
X6388277Y-14654174D02*
X6397801Y-14673222D01*
X6397801Y-14673222D02*
X6397801Y-14777984D01*
X6397801Y-14673222D02*
X6407324Y-14654174D01*
X6407324Y-14654174D02*
X6426372Y-14644650D01*
X6426372Y-14644650D02*
X6454943Y-14644650D01*
X6454943Y-14644650D02*
X6473991Y-14654174D01*
X6473991Y-14654174D02*
X6483515Y-14673222D01*
X6483515Y-14673222D02*
X6483515Y-14777984D01*
X6873991Y-14568460D02*
X6702563Y-14825603D01*
X7131134Y-14577984D02*
X7150182Y-14577984D01*
X7150182Y-14577984D02*
X7169229Y-14587508D01*
X7169229Y-14587508D02*
X7178753Y-14597031D01*
X7178753Y-14597031D02*
X7188277Y-14616079D01*
X7188277Y-14616079D02*
X7197801Y-14654174D01*
X7197801Y-14654174D02*
X7197801Y-14701793D01*
X7197801Y-14701793D02*
X7188277Y-14739888D01*
X7188277Y-14739888D02*
X7178753Y-14758936D01*
X7178753Y-14758936D02*
X7169229Y-14768460D01*
X7169229Y-14768460D02*
X7150182Y-14777984D01*
X7150182Y-14777984D02*
X7131134Y-14777984D01*
X7131134Y-14777984D02*
X7112086Y-14768460D01*
X7112086Y-14768460D02*
X7102563Y-14758936D01*
X7102563Y-14758936D02*
X7093039Y-14739888D01*
X7093039Y-14739888D02*
X7083515Y-14701793D01*
X7083515Y-14701793D02*
X7083515Y-14654174D01*
X7083515Y-14654174D02*
X7093039Y-14616079D01*
X7093039Y-14616079D02*
X7102563Y-14597031D01*
X7102563Y-14597031D02*
X7112086Y-14587508D01*
X7112086Y-14587508D02*
X7131134Y-14577984D01*
X7283515Y-14758936D02*
X7293039Y-14768460D01*
X7293039Y-14768460D02*
X7283515Y-14777984D01*
X7283515Y-14777984D02*
X7273991Y-14768460D01*
X7273991Y-14768460D02*
X7283515Y-14758936D01*
X7283515Y-14758936D02*
X7283515Y-14777984D01*
X7416848Y-14577984D02*
X7435896Y-14577984D01*
X7435896Y-14577984D02*
X7454944Y-14587508D01*
X7454944Y-14587508D02*
X7464467Y-14597031D01*
X7464467Y-14597031D02*
X7473991Y-14616079D01*
X7473991Y-14616079D02*
X7483515Y-14654174D01*
X7483515Y-14654174D02*
X7483515Y-14701793D01*
X7483515Y-14701793D02*
X7473991Y-14739888D01*
X7473991Y-14739888D02*
X7464467Y-14758936D01*
X7464467Y-14758936D02*
X7454944Y-14768460D01*
X7454944Y-14768460D02*
X7435896Y-14777984D01*
X7435896Y-14777984D02*
X7416848Y-14777984D01*
X7416848Y-14777984D02*
X7397801Y-14768460D01*
X7397801Y-14768460D02*
X7388277Y-14758936D01*
X7388277Y-14758936D02*
X7378753Y-14739888D01*
X7378753Y-14739888D02*
X7369229Y-14701793D01*
X7369229Y-14701793D02*
X7369229Y-14654174D01*
X7369229Y-14654174D02*
X7378753Y-14616079D01*
X7378753Y-14616079D02*
X7388277Y-14597031D01*
X7388277Y-14597031D02*
X7397801Y-14587508D01*
X7397801Y-14587508D02*
X7416848Y-14577984D01*
X7673991Y-14777984D02*
X7559706Y-14777984D01*
X7616848Y-14777984D02*
X7616848Y-14577984D01*
X7616848Y-14577984D02*
X7597801Y-14606555D01*
X7597801Y-14606555D02*
X7578753Y-14625603D01*
X7578753Y-14625603D02*
X7559706Y-14635127D01*
X7769229Y-14777984D02*
X7807325Y-14777984D01*
X7807325Y-14777984D02*
X7826372Y-14768460D01*
X7826372Y-14768460D02*
X7835896Y-14758936D01*
X7835896Y-14758936D02*
X7854944Y-14730365D01*
X7854944Y-14730365D02*
X7864467Y-14692269D01*
X7864467Y-14692269D02*
X7864467Y-14616079D01*
X7864467Y-14616079D02*
X7854944Y-14597031D01*
X7854944Y-14597031D02*
X7845420Y-14587508D01*
X7845420Y-14587508D02*
X7826372Y-14577984D01*
X7826372Y-14577984D02*
X7788277Y-14577984D01*
X7788277Y-14577984D02*
X7769229Y-14587508D01*
X7769229Y-14587508D02*
X7759706Y-14597031D01*
X7759706Y-14597031D02*
X7750182Y-14616079D01*
X7750182Y-14616079D02*
X7750182Y-14663698D01*
X7750182Y-14663698D02*
X7759706Y-14682746D01*
X7759706Y-14682746D02*
X7769229Y-14692269D01*
X7769229Y-14692269D02*
X7788277Y-14701793D01*
X7788277Y-14701793D02*
X7826372Y-14701793D01*
X7826372Y-14701793D02*
X7845420Y-14692269D01*
X7845420Y-14692269D02*
X7854944Y-14682746D01*
X7854944Y-14682746D02*
X7864467Y-14663698D01*
X7931134Y-14577984D02*
X8064467Y-14577984D01*
X8064467Y-14577984D02*
X7978753Y-14777984D01*
X8131134Y-14577984D02*
X8131134Y-14616079D01*
X8207325Y-14577984D02*
X8207325Y-14616079D01*
X8502563Y-14854174D02*
X8493039Y-14844650D01*
X8493039Y-14844650D02*
X8473991Y-14816079D01*
X8473991Y-14816079D02*
X8464468Y-14797031D01*
X8464468Y-14797031D02*
X8454944Y-14768460D01*
X8454944Y-14768460D02*
X8445420Y-14720841D01*
X8445420Y-14720841D02*
X8445420Y-14682746D01*
X8445420Y-14682746D02*
X8454944Y-14635127D01*
X8454944Y-14635127D02*
X8464468Y-14606555D01*
X8464468Y-14606555D02*
X8473991Y-14587508D01*
X8473991Y-14587508D02*
X8493039Y-14558936D01*
X8493039Y-14558936D02*
X8502563Y-14549412D01*
X8616849Y-14577984D02*
X8635896Y-14577984D01*
X8635896Y-14577984D02*
X8654944Y-14587508D01*
X8654944Y-14587508D02*
X8664468Y-14597031D01*
X8664468Y-14597031D02*
X8673991Y-14616079D01*
X8673991Y-14616079D02*
X8683515Y-14654174D01*
X8683515Y-14654174D02*
X8683515Y-14701793D01*
X8683515Y-14701793D02*
X8673991Y-14739888D01*
X8673991Y-14739888D02*
X8664468Y-14758936D01*
X8664468Y-14758936D02*
X8654944Y-14768460D01*
X8654944Y-14768460D02*
X8635896Y-14777984D01*
X8635896Y-14777984D02*
X8616849Y-14777984D01*
X8616849Y-14777984D02*
X8597801Y-14768460D01*
X8597801Y-14768460D02*
X8588277Y-14758936D01*
X8588277Y-14758936D02*
X8578753Y-14739888D01*
X8578753Y-14739888D02*
X8569230Y-14701793D01*
X8569230Y-14701793D02*
X8569230Y-14654174D01*
X8569230Y-14654174D02*
X8578753Y-14616079D01*
X8578753Y-14616079D02*
X8588277Y-14597031D01*
X8588277Y-14597031D02*
X8597801Y-14587508D01*
X8597801Y-14587508D02*
X8616849Y-14577984D01*
X8921611Y-14777984D02*
X8921611Y-14577984D01*
X9007325Y-14777984D02*
X9007325Y-14673222D01*
X9007325Y-14673222D02*
X8997801Y-14654174D01*
X8997801Y-14654174D02*
X8978753Y-14644650D01*
X8978753Y-14644650D02*
X8950182Y-14644650D01*
X8950182Y-14644650D02*
X8931134Y-14654174D01*
X8931134Y-14654174D02*
X8921611Y-14663698D01*
X9131134Y-14777984D02*
X9112087Y-14768460D01*
X9112087Y-14768460D02*
X9102563Y-14758936D01*
X9102563Y-14758936D02*
X9093039Y-14739888D01*
X9093039Y-14739888D02*
X9093039Y-14682746D01*
X9093039Y-14682746D02*
X9102563Y-14663698D01*
X9102563Y-14663698D02*
X9112087Y-14654174D01*
X9112087Y-14654174D02*
X9131134Y-14644650D01*
X9131134Y-14644650D02*
X9159706Y-14644650D01*
X9159706Y-14644650D02*
X9178753Y-14654174D01*
X9178753Y-14654174D02*
X9188277Y-14663698D01*
X9188277Y-14663698D02*
X9197801Y-14682746D01*
X9197801Y-14682746D02*
X9197801Y-14739888D01*
X9197801Y-14739888D02*
X9188277Y-14758936D01*
X9188277Y-14758936D02*
X9178753Y-14768460D01*
X9178753Y-14768460D02*
X9159706Y-14777984D01*
X9159706Y-14777984D02*
X9131134Y-14777984D01*
X9312087Y-14777984D02*
X9293039Y-14768460D01*
X9293039Y-14768460D02*
X9283515Y-14749412D01*
X9283515Y-14749412D02*
X9283515Y-14577984D01*
X9464468Y-14768460D02*
X9445420Y-14777984D01*
X9445420Y-14777984D02*
X9407325Y-14777984D01*
X9407325Y-14777984D02*
X9388277Y-14768460D01*
X9388277Y-14768460D02*
X9378753Y-14749412D01*
X9378753Y-14749412D02*
X9378753Y-14673222D01*
X9378753Y-14673222D02*
X9388277Y-14654174D01*
X9388277Y-14654174D02*
X9407325Y-14644650D01*
X9407325Y-14644650D02*
X9445420Y-14644650D01*
X9445420Y-14644650D02*
X9464468Y-14654174D01*
X9464468Y-14654174D02*
X9473992Y-14673222D01*
X9473992Y-14673222D02*
X9473992Y-14692269D01*
X9473992Y-14692269D02*
X9378753Y-14711317D01*
X9550182Y-14768460D02*
X9569230Y-14777984D01*
X9569230Y-14777984D02*
X9607325Y-14777984D01*
X9607325Y-14777984D02*
X9626373Y-14768460D01*
X9626373Y-14768460D02*
X9635896Y-14749412D01*
X9635896Y-14749412D02*
X9635896Y-14739888D01*
X9635896Y-14739888D02*
X9626373Y-14720841D01*
X9626373Y-14720841D02*
X9607325Y-14711317D01*
X9607325Y-14711317D02*
X9578753Y-14711317D01*
X9578753Y-14711317D02*
X9559706Y-14701793D01*
X9559706Y-14701793D02*
X9550182Y-14682746D01*
X9550182Y-14682746D02*
X9550182Y-14673222D01*
X9550182Y-14673222D02*
X9559706Y-14654174D01*
X9559706Y-14654174D02*
X9578753Y-14644650D01*
X9578753Y-14644650D02*
X9607325Y-14644650D01*
X9607325Y-14644650D02*
X9626373Y-14654174D01*
X9873992Y-14701793D02*
X10026373Y-14701793D01*
X9950182Y-14777984D02*
X9950182Y-14625603D01*
X10264468Y-14597031D02*
X10273992Y-14587508D01*
X10273992Y-14587508D02*
X10293039Y-14577984D01*
X10293039Y-14577984D02*
X10340658Y-14577984D01*
X10340658Y-14577984D02*
X10359706Y-14587508D01*
X10359706Y-14587508D02*
X10369230Y-14597031D01*
X10369230Y-14597031D02*
X10378754Y-14616079D01*
X10378754Y-14616079D02*
X10378754Y-14635127D01*
X10378754Y-14635127D02*
X10369230Y-14663698D01*
X10369230Y-14663698D02*
X10254944Y-14777984D01*
X10254944Y-14777984D02*
X10378754Y-14777984D01*
X10607325Y-14768460D02*
X10626373Y-14777984D01*
X10626373Y-14777984D02*
X10664468Y-14777984D01*
X10664468Y-14777984D02*
X10683516Y-14768460D01*
X10683516Y-14768460D02*
X10693039Y-14749412D01*
X10693039Y-14749412D02*
X10693039Y-14739888D01*
X10693039Y-14739888D02*
X10683516Y-14720841D01*
X10683516Y-14720841D02*
X10664468Y-14711317D01*
X10664468Y-14711317D02*
X10635896Y-14711317D01*
X10635896Y-14711317D02*
X10616849Y-14701793D01*
X10616849Y-14701793D02*
X10607325Y-14682746D01*
X10607325Y-14682746D02*
X10607325Y-14673222D01*
X10607325Y-14673222D02*
X10616849Y-14654174D01*
X10616849Y-14654174D02*
X10635896Y-14644650D01*
X10635896Y-14644650D02*
X10664468Y-14644650D01*
X10664468Y-14644650D02*
X10683516Y-14654174D01*
X10807325Y-14777984D02*
X10788277Y-14768460D01*
X10788277Y-14768460D02*
X10778754Y-14749412D01*
X10778754Y-14749412D02*
X10778754Y-14577984D01*
X10912087Y-14777984D02*
X10893039Y-14768460D01*
X10893039Y-14768460D02*
X10883516Y-14758936D01*
X10883516Y-14758936D02*
X10873992Y-14739888D01*
X10873992Y-14739888D02*
X10873992Y-14682746D01*
X10873992Y-14682746D02*
X10883516Y-14663698D01*
X10883516Y-14663698D02*
X10893039Y-14654174D01*
X10893039Y-14654174D02*
X10912087Y-14644650D01*
X10912087Y-14644650D02*
X10940658Y-14644650D01*
X10940658Y-14644650D02*
X10959706Y-14654174D01*
X10959706Y-14654174D02*
X10969230Y-14663698D01*
X10969230Y-14663698D02*
X10978754Y-14682746D01*
X10978754Y-14682746D02*
X10978754Y-14739888D01*
X10978754Y-14739888D02*
X10969230Y-14758936D01*
X10969230Y-14758936D02*
X10959706Y-14768460D01*
X10959706Y-14768460D02*
X10940658Y-14777984D01*
X10940658Y-14777984D02*
X10912087Y-14777984D01*
X11035897Y-14644650D02*
X11112087Y-14644650D01*
X11064468Y-14577984D02*
X11064468Y-14749412D01*
X11064468Y-14749412D02*
X11073992Y-14768460D01*
X11073992Y-14768460D02*
X11093039Y-14777984D01*
X11093039Y-14777984D02*
X11112087Y-14777984D01*
X11169230Y-14768460D02*
X11188277Y-14777984D01*
X11188277Y-14777984D02*
X11226373Y-14777984D01*
X11226373Y-14777984D02*
X11245420Y-14768460D01*
X11245420Y-14768460D02*
X11254944Y-14749412D01*
X11254944Y-14749412D02*
X11254944Y-14739888D01*
X11254944Y-14739888D02*
X11245420Y-14720841D01*
X11245420Y-14720841D02*
X11226373Y-14711317D01*
X11226373Y-14711317D02*
X11197801Y-14711317D01*
X11197801Y-14711317D02*
X11178754Y-14701793D01*
X11178754Y-14701793D02*
X11169230Y-14682746D01*
X11169230Y-14682746D02*
X11169230Y-14673222D01*
X11169230Y-14673222D02*
X11178754Y-14654174D01*
X11178754Y-14654174D02*
X11197801Y-14644650D01*
X11197801Y-14644650D02*
X11226373Y-14644650D01*
X11226373Y-14644650D02*
X11245420Y-14654174D01*
X11321611Y-14854174D02*
X11331135Y-14844650D01*
X11331135Y-14844650D02*
X11350182Y-14816079D01*
X11350182Y-14816079D02*
X11359706Y-14797031D01*
X11359706Y-14797031D02*
X11369230Y-14768460D01*
X11369230Y-14768460D02*
X11378754Y-14720841D01*
X11378754Y-14720841D02*
X11378754Y-14682746D01*
X11378754Y-14682746D02*
X11369230Y-14635127D01*
X11369230Y-14635127D02*
X11359706Y-14606555D01*
X11359706Y-14606555D02*
X11350182Y-14587508D01*
X11350182Y-14587508D02*
X11331135Y-14558936D01*
X11331135Y-14558936D02*
X11321611Y-14549412D01*
D12*
X4902100Y-14925100D02*
X4902100Y-14975900D01*
X4876700Y-14950500D02*
X4927500Y-14950500D01*
D11*
X5226372Y-14841984D02*
X5245420Y-14841984D01*
X5245420Y-14841984D02*
X5264467Y-14851508D01*
X5264467Y-14851508D02*
X5273991Y-14861031D01*
X5273991Y-14861031D02*
X5283515Y-14880079D01*
X5283515Y-14880079D02*
X5293039Y-14918174D01*
X5293039Y-14918174D02*
X5293039Y-14965793D01*
X5293039Y-14965793D02*
X5283515Y-15003888D01*
X5283515Y-15003888D02*
X5273991Y-15022936D01*
X5273991Y-15022936D02*
X5264467Y-15032460D01*
X5264467Y-15032460D02*
X5245420Y-15041984D01*
X5245420Y-15041984D02*
X5226372Y-15041984D01*
X5226372Y-15041984D02*
X5207324Y-15032460D01*
X5207324Y-15032460D02*
X5197801Y-15022936D01*
X5197801Y-15022936D02*
X5188277Y-15003888D01*
X5188277Y-15003888D02*
X5178753Y-14965793D01*
X5178753Y-14965793D02*
X5178753Y-14918174D01*
X5178753Y-14918174D02*
X5188277Y-14880079D01*
X5188277Y-14880079D02*
X5197801Y-14861031D01*
X5197801Y-14861031D02*
X5207324Y-14851508D01*
X5207324Y-14851508D02*
X5226372Y-14841984D01*
X5378753Y-15022936D02*
X5388277Y-15032460D01*
X5388277Y-15032460D02*
X5378753Y-15041984D01*
X5378753Y-15041984D02*
X5369229Y-15032460D01*
X5369229Y-15032460D02*
X5378753Y-15022936D01*
X5378753Y-15022936D02*
X5378753Y-15041984D01*
X5569229Y-14841984D02*
X5473991Y-14841984D01*
X5473991Y-14841984D02*
X5464467Y-14937222D01*
X5464467Y-14937222D02*
X5473991Y-14927698D01*
X5473991Y-14927698D02*
X5493039Y-14918174D01*
X5493039Y-14918174D02*
X5540658Y-14918174D01*
X5540658Y-14918174D02*
X5559705Y-14927698D01*
X5559705Y-14927698D02*
X5569229Y-14937222D01*
X5569229Y-14937222D02*
X5578753Y-14956269D01*
X5578753Y-14956269D02*
X5578753Y-15003888D01*
X5578753Y-15003888D02*
X5569229Y-15022936D01*
X5569229Y-15022936D02*
X5559705Y-15032460D01*
X5559705Y-15032460D02*
X5540658Y-15041984D01*
X5540658Y-15041984D02*
X5493039Y-15041984D01*
X5493039Y-15041984D02*
X5473991Y-15032460D01*
X5473991Y-15032460D02*
X5464467Y-15022936D01*
X5702562Y-14841984D02*
X5721610Y-14841984D01*
X5721610Y-14841984D02*
X5740658Y-14851508D01*
X5740658Y-14851508D02*
X5750182Y-14861031D01*
X5750182Y-14861031D02*
X5759705Y-14880079D01*
X5759705Y-14880079D02*
X5769229Y-14918174D01*
X5769229Y-14918174D02*
X5769229Y-14965793D01*
X5769229Y-14965793D02*
X5759705Y-15003888D01*
X5759705Y-15003888D02*
X5750182Y-15022936D01*
X5750182Y-15022936D02*
X5740658Y-15032460D01*
X5740658Y-15032460D02*
X5721610Y-15041984D01*
X5721610Y-15041984D02*
X5702562Y-15041984D01*
X5702562Y-15041984D02*
X5683515Y-15032460D01*
X5683515Y-15032460D02*
X5673991Y-15022936D01*
X5673991Y-15022936D02*
X5664467Y-15003888D01*
X5664467Y-15003888D02*
X5654943Y-14965793D01*
X5654943Y-14965793D02*
X5654943Y-14918174D01*
X5654943Y-14918174D02*
X5664467Y-14880079D01*
X5664467Y-14880079D02*
X5673991Y-14861031D01*
X5673991Y-14861031D02*
X5683515Y-14851508D01*
X5683515Y-14851508D02*
X5702562Y-14841984D01*
X5883515Y-14927698D02*
X5864467Y-14918174D01*
X5864467Y-14918174D02*
X5854943Y-14908650D01*
X5854943Y-14908650D02*
X5845420Y-14889603D01*
X5845420Y-14889603D02*
X5845420Y-14880079D01*
X5845420Y-14880079D02*
X5854943Y-14861031D01*
X5854943Y-14861031D02*
X5864467Y-14851508D01*
X5864467Y-14851508D02*
X5883515Y-14841984D01*
X5883515Y-14841984D02*
X5921610Y-14841984D01*
X5921610Y-14841984D02*
X5940658Y-14851508D01*
X5940658Y-14851508D02*
X5950182Y-14861031D01*
X5950182Y-14861031D02*
X5959705Y-14880079D01*
X5959705Y-14880079D02*
X5959705Y-14889603D01*
X5959705Y-14889603D02*
X5950182Y-14908650D01*
X5950182Y-14908650D02*
X5940658Y-14918174D01*
X5940658Y-14918174D02*
X5921610Y-14927698D01*
X5921610Y-14927698D02*
X5883515Y-14927698D01*
X5883515Y-14927698D02*
X5864467Y-14937222D01*
X5864467Y-14937222D02*
X5854943Y-14946746D01*
X5854943Y-14946746D02*
X5845420Y-14965793D01*
X5845420Y-14965793D02*
X5845420Y-15003888D01*
X5845420Y-15003888D02*
X5854943Y-15022936D01*
X5854943Y-15022936D02*
X5864467Y-15032460D01*
X5864467Y-15032460D02*
X5883515Y-15041984D01*
X5883515Y-15041984D02*
X5921610Y-15041984D01*
X5921610Y-15041984D02*
X5940658Y-15032460D01*
X5940658Y-15032460D02*
X5950182Y-15022936D01*
X5950182Y-15022936D02*
X5959705Y-15003888D01*
X5959705Y-15003888D02*
X5959705Y-14965793D01*
X5959705Y-14965793D02*
X5950182Y-14946746D01*
X5950182Y-14946746D02*
X5940658Y-14937222D01*
X5940658Y-14937222D02*
X5921610Y-14927698D01*
X6045420Y-15041984D02*
X6045420Y-14908650D01*
X6045420Y-14927698D02*
X6054943Y-14918174D01*
X6054943Y-14918174D02*
X6073991Y-14908650D01*
X6073991Y-14908650D02*
X6102563Y-14908650D01*
X6102563Y-14908650D02*
X6121610Y-14918174D01*
X6121610Y-14918174D02*
X6131134Y-14937222D01*
X6131134Y-14937222D02*
X6131134Y-15041984D01*
X6131134Y-14937222D02*
X6140658Y-14918174D01*
X6140658Y-14918174D02*
X6159705Y-14908650D01*
X6159705Y-14908650D02*
X6188277Y-14908650D01*
X6188277Y-14908650D02*
X6207324Y-14918174D01*
X6207324Y-14918174D02*
X6216848Y-14937222D01*
X6216848Y-14937222D02*
X6216848Y-15041984D01*
X6312086Y-15041984D02*
X6312086Y-14908650D01*
X6312086Y-14927698D02*
X6321610Y-14918174D01*
X6321610Y-14918174D02*
X6340658Y-14908650D01*
X6340658Y-14908650D02*
X6369229Y-14908650D01*
X6369229Y-14908650D02*
X6388277Y-14918174D01*
X6388277Y-14918174D02*
X6397801Y-14937222D01*
X6397801Y-14937222D02*
X6397801Y-15041984D01*
X6397801Y-14937222D02*
X6407324Y-14918174D01*
X6407324Y-14918174D02*
X6426372Y-14908650D01*
X6426372Y-14908650D02*
X6454943Y-14908650D01*
X6454943Y-14908650D02*
X6473991Y-14918174D01*
X6473991Y-14918174D02*
X6483515Y-14937222D01*
X6483515Y-14937222D02*
X6483515Y-15041984D01*
X6873991Y-14832460D02*
X6702563Y-15089603D01*
X7131134Y-14841984D02*
X7150182Y-14841984D01*
X7150182Y-14841984D02*
X7169229Y-14851508D01*
X7169229Y-14851508D02*
X7178753Y-14861031D01*
X7178753Y-14861031D02*
X7188277Y-14880079D01*
X7188277Y-14880079D02*
X7197801Y-14918174D01*
X7197801Y-14918174D02*
X7197801Y-14965793D01*
X7197801Y-14965793D02*
X7188277Y-15003888D01*
X7188277Y-15003888D02*
X7178753Y-15022936D01*
X7178753Y-15022936D02*
X7169229Y-15032460D01*
X7169229Y-15032460D02*
X7150182Y-15041984D01*
X7150182Y-15041984D02*
X7131134Y-15041984D01*
X7131134Y-15041984D02*
X7112086Y-15032460D01*
X7112086Y-15032460D02*
X7102563Y-15022936D01*
X7102563Y-15022936D02*
X7093039Y-15003888D01*
X7093039Y-15003888D02*
X7083515Y-14965793D01*
X7083515Y-14965793D02*
X7083515Y-14918174D01*
X7083515Y-14918174D02*
X7093039Y-14880079D01*
X7093039Y-14880079D02*
X7102563Y-14861031D01*
X7102563Y-14861031D02*
X7112086Y-14851508D01*
X7112086Y-14851508D02*
X7131134Y-14841984D01*
X7283515Y-15022936D02*
X7293039Y-15032460D01*
X7293039Y-15032460D02*
X7283515Y-15041984D01*
X7283515Y-15041984D02*
X7273991Y-15032460D01*
X7273991Y-15032460D02*
X7283515Y-15022936D01*
X7283515Y-15022936D02*
X7283515Y-15041984D01*
X7416848Y-14841984D02*
X7435896Y-14841984D01*
X7435896Y-14841984D02*
X7454944Y-14851508D01*
X7454944Y-14851508D02*
X7464467Y-14861031D01*
X7464467Y-14861031D02*
X7473991Y-14880079D01*
X7473991Y-14880079D02*
X7483515Y-14918174D01*
X7483515Y-14918174D02*
X7483515Y-14965793D01*
X7483515Y-14965793D02*
X7473991Y-15003888D01*
X7473991Y-15003888D02*
X7464467Y-15022936D01*
X7464467Y-15022936D02*
X7454944Y-15032460D01*
X7454944Y-15032460D02*
X7435896Y-15041984D01*
X7435896Y-15041984D02*
X7416848Y-15041984D01*
X7416848Y-15041984D02*
X7397801Y-15032460D01*
X7397801Y-15032460D02*
X7388277Y-15022936D01*
X7388277Y-15022936D02*
X7378753Y-15003888D01*
X7378753Y-15003888D02*
X7369229Y-14965793D01*
X7369229Y-14965793D02*
X7369229Y-14918174D01*
X7369229Y-14918174D02*
X7378753Y-14880079D01*
X7378753Y-14880079D02*
X7388277Y-14861031D01*
X7388277Y-14861031D02*
X7397801Y-14851508D01*
X7397801Y-14851508D02*
X7416848Y-14841984D01*
X7559706Y-14861031D02*
X7569229Y-14851508D01*
X7569229Y-14851508D02*
X7588277Y-14841984D01*
X7588277Y-14841984D02*
X7635896Y-14841984D01*
X7635896Y-14841984D02*
X7654944Y-14851508D01*
X7654944Y-14851508D02*
X7664467Y-14861031D01*
X7664467Y-14861031D02*
X7673991Y-14880079D01*
X7673991Y-14880079D02*
X7673991Y-14899127D01*
X7673991Y-14899127D02*
X7664467Y-14927698D01*
X7664467Y-14927698D02*
X7550182Y-15041984D01*
X7550182Y-15041984D02*
X7673991Y-15041984D01*
X7797801Y-14841984D02*
X7816848Y-14841984D01*
X7816848Y-14841984D02*
X7835896Y-14851508D01*
X7835896Y-14851508D02*
X7845420Y-14861031D01*
X7845420Y-14861031D02*
X7854944Y-14880079D01*
X7854944Y-14880079D02*
X7864467Y-14918174D01*
X7864467Y-14918174D02*
X7864467Y-14965793D01*
X7864467Y-14965793D02*
X7854944Y-15003888D01*
X7854944Y-15003888D02*
X7845420Y-15022936D01*
X7845420Y-15022936D02*
X7835896Y-15032460D01*
X7835896Y-15032460D02*
X7816848Y-15041984D01*
X7816848Y-15041984D02*
X7797801Y-15041984D01*
X7797801Y-15041984D02*
X7778753Y-15032460D01*
X7778753Y-15032460D02*
X7769229Y-15022936D01*
X7769229Y-15022936D02*
X7759706Y-15003888D01*
X7759706Y-15003888D02*
X7750182Y-14965793D01*
X7750182Y-14965793D02*
X7750182Y-14918174D01*
X7750182Y-14918174D02*
X7759706Y-14880079D01*
X7759706Y-14880079D02*
X7769229Y-14861031D01*
X7769229Y-14861031D02*
X7778753Y-14851508D01*
X7778753Y-14851508D02*
X7797801Y-14841984D01*
X7988277Y-14841984D02*
X8007325Y-14841984D01*
X8007325Y-14841984D02*
X8026372Y-14851508D01*
X8026372Y-14851508D02*
X8035896Y-14861031D01*
X8035896Y-14861031D02*
X8045420Y-14880079D01*
X8045420Y-14880079D02*
X8054944Y-14918174D01*
X8054944Y-14918174D02*
X8054944Y-14965793D01*
X8054944Y-14965793D02*
X8045420Y-15003888D01*
X8045420Y-15003888D02*
X8035896Y-15022936D01*
X8035896Y-15022936D02*
X8026372Y-15032460D01*
X8026372Y-15032460D02*
X8007325Y-15041984D01*
X8007325Y-15041984D02*
X7988277Y-15041984D01*
X7988277Y-15041984D02*
X7969229Y-15032460D01*
X7969229Y-15032460D02*
X7959706Y-15022936D01*
X7959706Y-15022936D02*
X7950182Y-15003888D01*
X7950182Y-15003888D02*
X7940658Y-14965793D01*
X7940658Y-14965793D02*
X7940658Y-14918174D01*
X7940658Y-14918174D02*
X7950182Y-14880079D01*
X7950182Y-14880079D02*
X7959706Y-14861031D01*
X7959706Y-14861031D02*
X7969229Y-14851508D01*
X7969229Y-14851508D02*
X7988277Y-14841984D01*
X8131134Y-14841984D02*
X8131134Y-14880079D01*
X8207325Y-14841984D02*
X8207325Y-14880079D01*
X8502563Y-15118174D02*
X8493039Y-15108650D01*
X8493039Y-15108650D02*
X8473991Y-15080079D01*
X8473991Y-15080079D02*
X8464468Y-15061031D01*
X8464468Y-15061031D02*
X8454944Y-15032460D01*
X8454944Y-15032460D02*
X8445420Y-14984841D01*
X8445420Y-14984841D02*
X8445420Y-14946746D01*
X8445420Y-14946746D02*
X8454944Y-14899127D01*
X8454944Y-14899127D02*
X8464468Y-14870555D01*
X8464468Y-14870555D02*
X8473991Y-14851508D01*
X8473991Y-14851508D02*
X8493039Y-14822936D01*
X8493039Y-14822936D02*
X8502563Y-14813412D01*
X8607325Y-14927698D02*
X8588277Y-14918174D01*
X8588277Y-14918174D02*
X8578753Y-14908650D01*
X8578753Y-14908650D02*
X8569230Y-14889603D01*
X8569230Y-14889603D02*
X8569230Y-14880079D01*
X8569230Y-14880079D02*
X8578753Y-14861031D01*
X8578753Y-14861031D02*
X8588277Y-14851508D01*
X8588277Y-14851508D02*
X8607325Y-14841984D01*
X8607325Y-14841984D02*
X8645420Y-14841984D01*
X8645420Y-14841984D02*
X8664468Y-14851508D01*
X8664468Y-14851508D02*
X8673991Y-14861031D01*
X8673991Y-14861031D02*
X8683515Y-14880079D01*
X8683515Y-14880079D02*
X8683515Y-14889603D01*
X8683515Y-14889603D02*
X8673991Y-14908650D01*
X8673991Y-14908650D02*
X8664468Y-14918174D01*
X8664468Y-14918174D02*
X8645420Y-14927698D01*
X8645420Y-14927698D02*
X8607325Y-14927698D01*
X8607325Y-14927698D02*
X8588277Y-14937222D01*
X8588277Y-14937222D02*
X8578753Y-14946746D01*
X8578753Y-14946746D02*
X8569230Y-14965793D01*
X8569230Y-14965793D02*
X8569230Y-15003888D01*
X8569230Y-15003888D02*
X8578753Y-15022936D01*
X8578753Y-15022936D02*
X8588277Y-15032460D01*
X8588277Y-15032460D02*
X8607325Y-15041984D01*
X8607325Y-15041984D02*
X8645420Y-15041984D01*
X8645420Y-15041984D02*
X8664468Y-15032460D01*
X8664468Y-15032460D02*
X8673991Y-15022936D01*
X8673991Y-15022936D02*
X8683515Y-15003888D01*
X8683515Y-15003888D02*
X8683515Y-14965793D01*
X8683515Y-14965793D02*
X8673991Y-14946746D01*
X8673991Y-14946746D02*
X8664468Y-14937222D01*
X8664468Y-14937222D02*
X8645420Y-14927698D01*
X8921611Y-15041984D02*
X8921611Y-14841984D01*
X9007325Y-15041984D02*
X9007325Y-14937222D01*
X9007325Y-14937222D02*
X8997801Y-14918174D01*
X8997801Y-14918174D02*
X8978753Y-14908650D01*
X8978753Y-14908650D02*
X8950182Y-14908650D01*
X8950182Y-14908650D02*
X8931134Y-14918174D01*
X8931134Y-14918174D02*
X8921611Y-14927698D01*
X9131134Y-15041984D02*
X9112087Y-15032460D01*
X9112087Y-15032460D02*
X9102563Y-15022936D01*
X9102563Y-15022936D02*
X9093039Y-15003888D01*
X9093039Y-15003888D02*
X9093039Y-14946746D01*
X9093039Y-14946746D02*
X9102563Y-14927698D01*
X9102563Y-14927698D02*
X9112087Y-14918174D01*
X9112087Y-14918174D02*
X9131134Y-14908650D01*
X9131134Y-14908650D02*
X9159706Y-14908650D01*
X9159706Y-14908650D02*
X9178753Y-14918174D01*
X9178753Y-14918174D02*
X9188277Y-14927698D01*
X9188277Y-14927698D02*
X9197801Y-14946746D01*
X9197801Y-14946746D02*
X9197801Y-15003888D01*
X9197801Y-15003888D02*
X9188277Y-15022936D01*
X9188277Y-15022936D02*
X9178753Y-15032460D01*
X9178753Y-15032460D02*
X9159706Y-15041984D01*
X9159706Y-15041984D02*
X9131134Y-15041984D01*
X9312087Y-15041984D02*
X9293039Y-15032460D01*
X9293039Y-15032460D02*
X9283515Y-15013412D01*
X9283515Y-15013412D02*
X9283515Y-14841984D01*
X9464468Y-15032460D02*
X9445420Y-15041984D01*
X9445420Y-15041984D02*
X9407325Y-15041984D01*
X9407325Y-15041984D02*
X9388277Y-15032460D01*
X9388277Y-15032460D02*
X9378753Y-15013412D01*
X9378753Y-15013412D02*
X9378753Y-14937222D01*
X9378753Y-14937222D02*
X9388277Y-14918174D01*
X9388277Y-14918174D02*
X9407325Y-14908650D01*
X9407325Y-14908650D02*
X9445420Y-14908650D01*
X9445420Y-14908650D02*
X9464468Y-14918174D01*
X9464468Y-14918174D02*
X9473992Y-14937222D01*
X9473992Y-14937222D02*
X9473992Y-14956269D01*
X9473992Y-14956269D02*
X9378753Y-14975317D01*
X9550182Y-15032460D02*
X9569230Y-15041984D01*
X9569230Y-15041984D02*
X9607325Y-15041984D01*
X9607325Y-15041984D02*
X9626373Y-15032460D01*
X9626373Y-15032460D02*
X9635896Y-15013412D01*
X9635896Y-15013412D02*
X9635896Y-15003888D01*
X9635896Y-15003888D02*
X9626373Y-14984841D01*
X9626373Y-14984841D02*
X9607325Y-14975317D01*
X9607325Y-14975317D02*
X9578753Y-14975317D01*
X9578753Y-14975317D02*
X9559706Y-14965793D01*
X9559706Y-14965793D02*
X9550182Y-14946746D01*
X9550182Y-14946746D02*
X9550182Y-14937222D01*
X9550182Y-14937222D02*
X9559706Y-14918174D01*
X9559706Y-14918174D02*
X9578753Y-14908650D01*
X9578753Y-14908650D02*
X9607325Y-14908650D01*
X9607325Y-14908650D02*
X9626373Y-14918174D01*
X9702563Y-15118174D02*
X9712087Y-15108650D01*
X9712087Y-15108650D02*
X9731134Y-15080079D01*
X9731134Y-15080079D02*
X9740658Y-15061031D01*
X9740658Y-15061031D02*
X9750182Y-15032460D01*
X9750182Y-15032460D02*
X9759706Y-14984841D01*
X9759706Y-14984841D02*
X9759706Y-14946746D01*
X9759706Y-14946746D02*
X9750182Y-14899127D01*
X9750182Y-14899127D02*
X9740658Y-14870555D01*
X9740658Y-14870555D02*
X9731134Y-14851508D01*
X9731134Y-14851508D02*
X9712087Y-14822936D01*
X9712087Y-14822936D02*
X9702563Y-14813412D01*
D12*
X4919446Y-15233946D02*
X4919446Y-15195054D01*
X4880554Y-15195054D01*
X4880554Y-15233946D01*
X4919446Y-15233946D01*
D11*
X5226372Y-15105984D02*
X5245420Y-15105984D01*
X5245420Y-15105984D02*
X5264467Y-15115508D01*
X5264467Y-15115508D02*
X5273991Y-15125031D01*
X5273991Y-15125031D02*
X5283515Y-15144079D01*
X5283515Y-15144079D02*
X5293039Y-15182174D01*
X5293039Y-15182174D02*
X5293039Y-15229793D01*
X5293039Y-15229793D02*
X5283515Y-15267888D01*
X5283515Y-15267888D02*
X5273991Y-15286936D01*
X5273991Y-15286936D02*
X5264467Y-15296460D01*
X5264467Y-15296460D02*
X5245420Y-15305984D01*
X5245420Y-15305984D02*
X5226372Y-15305984D01*
X5226372Y-15305984D02*
X5207324Y-15296460D01*
X5207324Y-15296460D02*
X5197801Y-15286936D01*
X5197801Y-15286936D02*
X5188277Y-15267888D01*
X5188277Y-15267888D02*
X5178753Y-15229793D01*
X5178753Y-15229793D02*
X5178753Y-15182174D01*
X5178753Y-15182174D02*
X5188277Y-15144079D01*
X5188277Y-15144079D02*
X5197801Y-15125031D01*
X5197801Y-15125031D02*
X5207324Y-15115508D01*
X5207324Y-15115508D02*
X5226372Y-15105984D01*
X5378753Y-15286936D02*
X5388277Y-15296460D01*
X5388277Y-15296460D02*
X5378753Y-15305984D01*
X5378753Y-15305984D02*
X5369229Y-15296460D01*
X5369229Y-15296460D02*
X5378753Y-15286936D01*
X5378753Y-15286936D02*
X5378753Y-15305984D01*
X5569229Y-15105984D02*
X5473991Y-15105984D01*
X5473991Y-15105984D02*
X5464467Y-15201222D01*
X5464467Y-15201222D02*
X5473991Y-15191698D01*
X5473991Y-15191698D02*
X5493039Y-15182174D01*
X5493039Y-15182174D02*
X5540658Y-15182174D01*
X5540658Y-15182174D02*
X5559705Y-15191698D01*
X5559705Y-15191698D02*
X5569229Y-15201222D01*
X5569229Y-15201222D02*
X5578753Y-15220269D01*
X5578753Y-15220269D02*
X5578753Y-15267888D01*
X5578753Y-15267888D02*
X5569229Y-15286936D01*
X5569229Y-15286936D02*
X5559705Y-15296460D01*
X5559705Y-15296460D02*
X5540658Y-15305984D01*
X5540658Y-15305984D02*
X5493039Y-15305984D01*
X5493039Y-15305984D02*
X5473991Y-15296460D01*
X5473991Y-15296460D02*
X5464467Y-15286936D01*
X5759705Y-15105984D02*
X5664467Y-15105984D01*
X5664467Y-15105984D02*
X5654943Y-15201222D01*
X5654943Y-15201222D02*
X5664467Y-15191698D01*
X5664467Y-15191698D02*
X5683515Y-15182174D01*
X5683515Y-15182174D02*
X5731134Y-15182174D01*
X5731134Y-15182174D02*
X5750182Y-15191698D01*
X5750182Y-15191698D02*
X5759705Y-15201222D01*
X5759705Y-15201222D02*
X5769229Y-15220269D01*
X5769229Y-15220269D02*
X5769229Y-15267888D01*
X5769229Y-15267888D02*
X5759705Y-15286936D01*
X5759705Y-15286936D02*
X5750182Y-15296460D01*
X5750182Y-15296460D02*
X5731134Y-15305984D01*
X5731134Y-15305984D02*
X5683515Y-15305984D01*
X5683515Y-15305984D02*
X5664467Y-15296460D01*
X5664467Y-15296460D02*
X5654943Y-15286936D01*
X5893039Y-15105984D02*
X5912086Y-15105984D01*
X5912086Y-15105984D02*
X5931134Y-15115508D01*
X5931134Y-15115508D02*
X5940658Y-15125031D01*
X5940658Y-15125031D02*
X5950182Y-15144079D01*
X5950182Y-15144079D02*
X5959705Y-15182174D01*
X5959705Y-15182174D02*
X5959705Y-15229793D01*
X5959705Y-15229793D02*
X5950182Y-15267888D01*
X5950182Y-15267888D02*
X5940658Y-15286936D01*
X5940658Y-15286936D02*
X5931134Y-15296460D01*
X5931134Y-15296460D02*
X5912086Y-15305984D01*
X5912086Y-15305984D02*
X5893039Y-15305984D01*
X5893039Y-15305984D02*
X5873991Y-15296460D01*
X5873991Y-15296460D02*
X5864467Y-15286936D01*
X5864467Y-15286936D02*
X5854943Y-15267888D01*
X5854943Y-15267888D02*
X5845420Y-15229793D01*
X5845420Y-15229793D02*
X5845420Y-15182174D01*
X5845420Y-15182174D02*
X5854943Y-15144079D01*
X5854943Y-15144079D02*
X5864467Y-15125031D01*
X5864467Y-15125031D02*
X5873991Y-15115508D01*
X5873991Y-15115508D02*
X5893039Y-15105984D01*
X6045420Y-15305984D02*
X6045420Y-15172650D01*
X6045420Y-15191698D02*
X6054943Y-15182174D01*
X6054943Y-15182174D02*
X6073991Y-15172650D01*
X6073991Y-15172650D02*
X6102563Y-15172650D01*
X6102563Y-15172650D02*
X6121610Y-15182174D01*
X6121610Y-15182174D02*
X6131134Y-15201222D01*
X6131134Y-15201222D02*
X6131134Y-15305984D01*
X6131134Y-15201222D02*
X6140658Y-15182174D01*
X6140658Y-15182174D02*
X6159705Y-15172650D01*
X6159705Y-15172650D02*
X6188277Y-15172650D01*
X6188277Y-15172650D02*
X6207324Y-15182174D01*
X6207324Y-15182174D02*
X6216848Y-15201222D01*
X6216848Y-15201222D02*
X6216848Y-15305984D01*
X6312086Y-15305984D02*
X6312086Y-15172650D01*
X6312086Y-15191698D02*
X6321610Y-15182174D01*
X6321610Y-15182174D02*
X6340658Y-15172650D01*
X6340658Y-15172650D02*
X6369229Y-15172650D01*
X6369229Y-15172650D02*
X6388277Y-15182174D01*
X6388277Y-15182174D02*
X6397801Y-15201222D01*
X6397801Y-15201222D02*
X6397801Y-15305984D01*
X6397801Y-15201222D02*
X6407324Y-15182174D01*
X6407324Y-15182174D02*
X6426372Y-15172650D01*
X6426372Y-15172650D02*
X6454943Y-15172650D01*
X6454943Y-15172650D02*
X6473991Y-15182174D01*
X6473991Y-15182174D02*
X6483515Y-15201222D01*
X6483515Y-15201222D02*
X6483515Y-15305984D01*
X6873991Y-15096460D02*
X6702563Y-15353603D01*
X7131134Y-15105984D02*
X7150182Y-15105984D01*
X7150182Y-15105984D02*
X7169229Y-15115508D01*
X7169229Y-15115508D02*
X7178753Y-15125031D01*
X7178753Y-15125031D02*
X7188277Y-15144079D01*
X7188277Y-15144079D02*
X7197801Y-15182174D01*
X7197801Y-15182174D02*
X7197801Y-15229793D01*
X7197801Y-15229793D02*
X7188277Y-15267888D01*
X7188277Y-15267888D02*
X7178753Y-15286936D01*
X7178753Y-15286936D02*
X7169229Y-15296460D01*
X7169229Y-15296460D02*
X7150182Y-15305984D01*
X7150182Y-15305984D02*
X7131134Y-15305984D01*
X7131134Y-15305984D02*
X7112086Y-15296460D01*
X7112086Y-15296460D02*
X7102563Y-15286936D01*
X7102563Y-15286936D02*
X7093039Y-15267888D01*
X7093039Y-15267888D02*
X7083515Y-15229793D01*
X7083515Y-15229793D02*
X7083515Y-15182174D01*
X7083515Y-15182174D02*
X7093039Y-15144079D01*
X7093039Y-15144079D02*
X7102563Y-15125031D01*
X7102563Y-15125031D02*
X7112086Y-15115508D01*
X7112086Y-15115508D02*
X7131134Y-15105984D01*
X7283515Y-15286936D02*
X7293039Y-15296460D01*
X7293039Y-15296460D02*
X7283515Y-15305984D01*
X7283515Y-15305984D02*
X7273991Y-15296460D01*
X7273991Y-15296460D02*
X7283515Y-15286936D01*
X7283515Y-15286936D02*
X7283515Y-15305984D01*
X7416848Y-15105984D02*
X7435896Y-15105984D01*
X7435896Y-15105984D02*
X7454944Y-15115508D01*
X7454944Y-15115508D02*
X7464467Y-15125031D01*
X7464467Y-15125031D02*
X7473991Y-15144079D01*
X7473991Y-15144079D02*
X7483515Y-15182174D01*
X7483515Y-15182174D02*
X7483515Y-15229793D01*
X7483515Y-15229793D02*
X7473991Y-15267888D01*
X7473991Y-15267888D02*
X7464467Y-15286936D01*
X7464467Y-15286936D02*
X7454944Y-15296460D01*
X7454944Y-15296460D02*
X7435896Y-15305984D01*
X7435896Y-15305984D02*
X7416848Y-15305984D01*
X7416848Y-15305984D02*
X7397801Y-15296460D01*
X7397801Y-15296460D02*
X7388277Y-15286936D01*
X7388277Y-15286936D02*
X7378753Y-15267888D01*
X7378753Y-15267888D02*
X7369229Y-15229793D01*
X7369229Y-15229793D02*
X7369229Y-15182174D01*
X7369229Y-15182174D02*
X7378753Y-15144079D01*
X7378753Y-15144079D02*
X7388277Y-15125031D01*
X7388277Y-15125031D02*
X7397801Y-15115508D01*
X7397801Y-15115508D02*
X7416848Y-15105984D01*
X7559706Y-15125031D02*
X7569229Y-15115508D01*
X7569229Y-15115508D02*
X7588277Y-15105984D01*
X7588277Y-15105984D02*
X7635896Y-15105984D01*
X7635896Y-15105984D02*
X7654944Y-15115508D01*
X7654944Y-15115508D02*
X7664467Y-15125031D01*
X7664467Y-15125031D02*
X7673991Y-15144079D01*
X7673991Y-15144079D02*
X7673991Y-15163127D01*
X7673991Y-15163127D02*
X7664467Y-15191698D01*
X7664467Y-15191698D02*
X7550182Y-15305984D01*
X7550182Y-15305984D02*
X7673991Y-15305984D01*
X7864467Y-15305984D02*
X7750182Y-15305984D01*
X7807325Y-15305984D02*
X7807325Y-15105984D01*
X7807325Y-15105984D02*
X7788277Y-15134555D01*
X7788277Y-15134555D02*
X7769229Y-15153603D01*
X7769229Y-15153603D02*
X7750182Y-15163127D01*
X7931134Y-15105984D02*
X8064467Y-15105984D01*
X8064467Y-15105984D02*
X7978753Y-15305984D01*
X8131134Y-15105984D02*
X8131134Y-15144079D01*
X8207325Y-15105984D02*
X8207325Y-15144079D01*
X8502563Y-15382174D02*
X8493039Y-15372650D01*
X8493039Y-15372650D02*
X8473991Y-15344079D01*
X8473991Y-15344079D02*
X8464468Y-15325031D01*
X8464468Y-15325031D02*
X8454944Y-15296460D01*
X8454944Y-15296460D02*
X8445420Y-15248841D01*
X8445420Y-15248841D02*
X8445420Y-15210746D01*
X8445420Y-15210746D02*
X8454944Y-15163127D01*
X8454944Y-15163127D02*
X8464468Y-15134555D01*
X8464468Y-15134555D02*
X8473991Y-15115508D01*
X8473991Y-15115508D02*
X8493039Y-15086936D01*
X8493039Y-15086936D02*
X8502563Y-15077412D01*
X8616849Y-15105984D02*
X8635896Y-15105984D01*
X8635896Y-15105984D02*
X8654944Y-15115508D01*
X8654944Y-15115508D02*
X8664468Y-15125031D01*
X8664468Y-15125031D02*
X8673991Y-15144079D01*
X8673991Y-15144079D02*
X8683515Y-15182174D01*
X8683515Y-15182174D02*
X8683515Y-15229793D01*
X8683515Y-15229793D02*
X8673991Y-15267888D01*
X8673991Y-15267888D02*
X8664468Y-15286936D01*
X8664468Y-15286936D02*
X8654944Y-15296460D01*
X8654944Y-15296460D02*
X8635896Y-15305984D01*
X8635896Y-15305984D02*
X8616849Y-15305984D01*
X8616849Y-15305984D02*
X8597801Y-15296460D01*
X8597801Y-15296460D02*
X8588277Y-15286936D01*
X8588277Y-15286936D02*
X8578753Y-15267888D01*
X8578753Y-15267888D02*
X8569230Y-15229793D01*
X8569230Y-15229793D02*
X8569230Y-15182174D01*
X8569230Y-15182174D02*
X8578753Y-15144079D01*
X8578753Y-15144079D02*
X8588277Y-15125031D01*
X8588277Y-15125031D02*
X8597801Y-15115508D01*
X8597801Y-15115508D02*
X8616849Y-15105984D01*
X8921611Y-15305984D02*
X8921611Y-15105984D01*
X9007325Y-15305984D02*
X9007325Y-15201222D01*
X9007325Y-15201222D02*
X8997801Y-15182174D01*
X8997801Y-15182174D02*
X8978753Y-15172650D01*
X8978753Y-15172650D02*
X8950182Y-15172650D01*
X8950182Y-15172650D02*
X8931134Y-15182174D01*
X8931134Y-15182174D02*
X8921611Y-15191698D01*
X9131134Y-15305984D02*
X9112087Y-15296460D01*
X9112087Y-15296460D02*
X9102563Y-15286936D01*
X9102563Y-15286936D02*
X9093039Y-15267888D01*
X9093039Y-15267888D02*
X9093039Y-15210746D01*
X9093039Y-15210746D02*
X9102563Y-15191698D01*
X9102563Y-15191698D02*
X9112087Y-15182174D01*
X9112087Y-15182174D02*
X9131134Y-15172650D01*
X9131134Y-15172650D02*
X9159706Y-15172650D01*
X9159706Y-15172650D02*
X9178753Y-15182174D01*
X9178753Y-15182174D02*
X9188277Y-15191698D01*
X9188277Y-15191698D02*
X9197801Y-15210746D01*
X9197801Y-15210746D02*
X9197801Y-15267888D01*
X9197801Y-15267888D02*
X9188277Y-15286936D01*
X9188277Y-15286936D02*
X9178753Y-15296460D01*
X9178753Y-15296460D02*
X9159706Y-15305984D01*
X9159706Y-15305984D02*
X9131134Y-15305984D01*
X9312087Y-15305984D02*
X9293039Y-15296460D01*
X9293039Y-15296460D02*
X9283515Y-15277412D01*
X9283515Y-15277412D02*
X9283515Y-15105984D01*
X9464468Y-15296460D02*
X9445420Y-15305984D01*
X9445420Y-15305984D02*
X9407325Y-15305984D01*
X9407325Y-15305984D02*
X9388277Y-15296460D01*
X9388277Y-15296460D02*
X9378753Y-15277412D01*
X9378753Y-15277412D02*
X9378753Y-15201222D01*
X9378753Y-15201222D02*
X9388277Y-15182174D01*
X9388277Y-15182174D02*
X9407325Y-15172650D01*
X9407325Y-15172650D02*
X9445420Y-15172650D01*
X9445420Y-15172650D02*
X9464468Y-15182174D01*
X9464468Y-15182174D02*
X9473992Y-15201222D01*
X9473992Y-15201222D02*
X9473992Y-15220269D01*
X9473992Y-15220269D02*
X9378753Y-15239317D01*
X9550182Y-15296460D02*
X9569230Y-15305984D01*
X9569230Y-15305984D02*
X9607325Y-15305984D01*
X9607325Y-15305984D02*
X9626373Y-15296460D01*
X9626373Y-15296460D02*
X9635896Y-15277412D01*
X9635896Y-15277412D02*
X9635896Y-15267888D01*
X9635896Y-15267888D02*
X9626373Y-15248841D01*
X9626373Y-15248841D02*
X9607325Y-15239317D01*
X9607325Y-15239317D02*
X9578753Y-15239317D01*
X9578753Y-15239317D02*
X9559706Y-15229793D01*
X9559706Y-15229793D02*
X9550182Y-15210746D01*
X9550182Y-15210746D02*
X9550182Y-15201222D01*
X9550182Y-15201222D02*
X9559706Y-15182174D01*
X9559706Y-15182174D02*
X9578753Y-15172650D01*
X9578753Y-15172650D02*
X9607325Y-15172650D01*
X9607325Y-15172650D02*
X9626373Y-15182174D01*
X9873992Y-15229793D02*
X10026373Y-15229793D01*
X9950182Y-15305984D02*
X9950182Y-15153603D01*
X10264468Y-15125031D02*
X10273992Y-15115508D01*
X10273992Y-15115508D02*
X10293039Y-15105984D01*
X10293039Y-15105984D02*
X10340658Y-15105984D01*
X10340658Y-15105984D02*
X10359706Y-15115508D01*
X10359706Y-15115508D02*
X10369230Y-15125031D01*
X10369230Y-15125031D02*
X10378754Y-15144079D01*
X10378754Y-15144079D02*
X10378754Y-15163127D01*
X10378754Y-15163127D02*
X10369230Y-15191698D01*
X10369230Y-15191698D02*
X10254944Y-15305984D01*
X10254944Y-15305984D02*
X10378754Y-15305984D01*
X10607325Y-15296460D02*
X10626373Y-15305984D01*
X10626373Y-15305984D02*
X10664468Y-15305984D01*
X10664468Y-15305984D02*
X10683516Y-15296460D01*
X10683516Y-15296460D02*
X10693039Y-15277412D01*
X10693039Y-15277412D02*
X10693039Y-15267888D01*
X10693039Y-15267888D02*
X10683516Y-15248841D01*
X10683516Y-15248841D02*
X10664468Y-15239317D01*
X10664468Y-15239317D02*
X10635896Y-15239317D01*
X10635896Y-15239317D02*
X10616849Y-15229793D01*
X10616849Y-15229793D02*
X10607325Y-15210746D01*
X10607325Y-15210746D02*
X10607325Y-15201222D01*
X10607325Y-15201222D02*
X10616849Y-15182174D01*
X10616849Y-15182174D02*
X10635896Y-15172650D01*
X10635896Y-15172650D02*
X10664468Y-15172650D01*
X10664468Y-15172650D02*
X10683516Y-15182174D01*
X10807325Y-15305984D02*
X10788277Y-15296460D01*
X10788277Y-15296460D02*
X10778754Y-15277412D01*
X10778754Y-15277412D02*
X10778754Y-15105984D01*
X10912087Y-15305984D02*
X10893039Y-15296460D01*
X10893039Y-15296460D02*
X10883516Y-15286936D01*
X10883516Y-15286936D02*
X10873992Y-15267888D01*
X10873992Y-15267888D02*
X10873992Y-15210746D01*
X10873992Y-15210746D02*
X10883516Y-15191698D01*
X10883516Y-15191698D02*
X10893039Y-15182174D01*
X10893039Y-15182174D02*
X10912087Y-15172650D01*
X10912087Y-15172650D02*
X10940658Y-15172650D01*
X10940658Y-15172650D02*
X10959706Y-15182174D01*
X10959706Y-15182174D02*
X10969230Y-15191698D01*
X10969230Y-15191698D02*
X10978754Y-15210746D01*
X10978754Y-15210746D02*
X10978754Y-15267888D01*
X10978754Y-15267888D02*
X10969230Y-15286936D01*
X10969230Y-15286936D02*
X10959706Y-15296460D01*
X10959706Y-15296460D02*
X10940658Y-15305984D01*
X10940658Y-15305984D02*
X10912087Y-15305984D01*
X11035897Y-15172650D02*
X11112087Y-15172650D01*
X11064468Y-15105984D02*
X11064468Y-15277412D01*
X11064468Y-15277412D02*
X11073992Y-15296460D01*
X11073992Y-15296460D02*
X11093039Y-15305984D01*
X11093039Y-15305984D02*
X11112087Y-15305984D01*
X11169230Y-15296460D02*
X11188277Y-15305984D01*
X11188277Y-15305984D02*
X11226373Y-15305984D01*
X11226373Y-15305984D02*
X11245420Y-15296460D01*
X11245420Y-15296460D02*
X11254944Y-15277412D01*
X11254944Y-15277412D02*
X11254944Y-15267888D01*
X11254944Y-15267888D02*
X11245420Y-15248841D01*
X11245420Y-15248841D02*
X11226373Y-15239317D01*
X11226373Y-15239317D02*
X11197801Y-15239317D01*
X11197801Y-15239317D02*
X11178754Y-15229793D01*
X11178754Y-15229793D02*
X11169230Y-15210746D01*
X11169230Y-15210746D02*
X11169230Y-15201222D01*
X11169230Y-15201222D02*
X11178754Y-15182174D01*
X11178754Y-15182174D02*
X11197801Y-15172650D01*
X11197801Y-15172650D02*
X11226373Y-15172650D01*
X11226373Y-15172650D02*
X11245420Y-15182174D01*
X11321611Y-15382174D02*
X11331135Y-15372650D01*
X11331135Y-15372650D02*
X11350182Y-15344079D01*
X11350182Y-15344079D02*
X11359706Y-15325031D01*
X11359706Y-15325031D02*
X11369230Y-15296460D01*
X11369230Y-15296460D02*
X11378754Y-15248841D01*
X11378754Y-15248841D02*
X11378754Y-15210746D01*
X11378754Y-15210746D02*
X11369230Y-15163127D01*
X11369230Y-15163127D02*
X11359706Y-15134555D01*
X11359706Y-15134555D02*
X11350182Y-15115508D01*
X11350182Y-15115508D02*
X11331135Y-15086936D01*
X11331135Y-15086936D02*
X11321611Y-15077412D01*
D12*
X4887500Y-15518500D02*
X4927500Y-15478500D01*
X4887500Y-15438500D01*
X4847500Y-15478500D01*
X4887500Y-15518500D01*
D11*
X5226372Y-15369984D02*
X5245420Y-15369984D01*
X5245420Y-15369984D02*
X5264467Y-15379508D01*
X5264467Y-15379508D02*
X5273991Y-15389031D01*
X5273991Y-15389031D02*
X5283515Y-15408079D01*
X5283515Y-15408079D02*
X5293039Y-15446174D01*
X5293039Y-15446174D02*
X5293039Y-15493793D01*
X5293039Y-15493793D02*
X5283515Y-15531888D01*
X5283515Y-15531888D02*
X5273991Y-15550936D01*
X5273991Y-15550936D02*
X5264467Y-15560460D01*
X5264467Y-15560460D02*
X5245420Y-15569984D01*
X5245420Y-15569984D02*
X5226372Y-15569984D01*
X5226372Y-15569984D02*
X5207324Y-15560460D01*
X5207324Y-15560460D02*
X5197801Y-15550936D01*
X5197801Y-15550936D02*
X5188277Y-15531888D01*
X5188277Y-15531888D02*
X5178753Y-15493793D01*
X5178753Y-15493793D02*
X5178753Y-15446174D01*
X5178753Y-15446174D02*
X5188277Y-15408079D01*
X5188277Y-15408079D02*
X5197801Y-15389031D01*
X5197801Y-15389031D02*
X5207324Y-15379508D01*
X5207324Y-15379508D02*
X5226372Y-15369984D01*
X5378753Y-15550936D02*
X5388277Y-15560460D01*
X5388277Y-15560460D02*
X5378753Y-15569984D01*
X5378753Y-15569984D02*
X5369229Y-15560460D01*
X5369229Y-15560460D02*
X5378753Y-15550936D01*
X5378753Y-15550936D02*
X5378753Y-15569984D01*
X5502563Y-15455698D02*
X5483515Y-15446174D01*
X5483515Y-15446174D02*
X5473991Y-15436650D01*
X5473991Y-15436650D02*
X5464467Y-15417603D01*
X5464467Y-15417603D02*
X5464467Y-15408079D01*
X5464467Y-15408079D02*
X5473991Y-15389031D01*
X5473991Y-15389031D02*
X5483515Y-15379508D01*
X5483515Y-15379508D02*
X5502563Y-15369984D01*
X5502563Y-15369984D02*
X5540658Y-15369984D01*
X5540658Y-15369984D02*
X5559705Y-15379508D01*
X5559705Y-15379508D02*
X5569229Y-15389031D01*
X5569229Y-15389031D02*
X5578753Y-15408079D01*
X5578753Y-15408079D02*
X5578753Y-15417603D01*
X5578753Y-15417603D02*
X5569229Y-15436650D01*
X5569229Y-15436650D02*
X5559705Y-15446174D01*
X5559705Y-15446174D02*
X5540658Y-15455698D01*
X5540658Y-15455698D02*
X5502563Y-15455698D01*
X5502563Y-15455698D02*
X5483515Y-15465222D01*
X5483515Y-15465222D02*
X5473991Y-15474746D01*
X5473991Y-15474746D02*
X5464467Y-15493793D01*
X5464467Y-15493793D02*
X5464467Y-15531888D01*
X5464467Y-15531888D02*
X5473991Y-15550936D01*
X5473991Y-15550936D02*
X5483515Y-15560460D01*
X5483515Y-15560460D02*
X5502563Y-15569984D01*
X5502563Y-15569984D02*
X5540658Y-15569984D01*
X5540658Y-15569984D02*
X5559705Y-15560460D01*
X5559705Y-15560460D02*
X5569229Y-15550936D01*
X5569229Y-15550936D02*
X5578753Y-15531888D01*
X5578753Y-15531888D02*
X5578753Y-15493793D01*
X5578753Y-15493793D02*
X5569229Y-15474746D01*
X5569229Y-15474746D02*
X5559705Y-15465222D01*
X5559705Y-15465222D02*
X5540658Y-15455698D01*
X5702562Y-15369984D02*
X5721610Y-15369984D01*
X5721610Y-15369984D02*
X5740658Y-15379508D01*
X5740658Y-15379508D02*
X5750182Y-15389031D01*
X5750182Y-15389031D02*
X5759705Y-15408079D01*
X5759705Y-15408079D02*
X5769229Y-15446174D01*
X5769229Y-15446174D02*
X5769229Y-15493793D01*
X5769229Y-15493793D02*
X5759705Y-15531888D01*
X5759705Y-15531888D02*
X5750182Y-15550936D01*
X5750182Y-15550936D02*
X5740658Y-15560460D01*
X5740658Y-15560460D02*
X5721610Y-15569984D01*
X5721610Y-15569984D02*
X5702562Y-15569984D01*
X5702562Y-15569984D02*
X5683515Y-15560460D01*
X5683515Y-15560460D02*
X5673991Y-15550936D01*
X5673991Y-15550936D02*
X5664467Y-15531888D01*
X5664467Y-15531888D02*
X5654943Y-15493793D01*
X5654943Y-15493793D02*
X5654943Y-15446174D01*
X5654943Y-15446174D02*
X5664467Y-15408079D01*
X5664467Y-15408079D02*
X5673991Y-15389031D01*
X5673991Y-15389031D02*
X5683515Y-15379508D01*
X5683515Y-15379508D02*
X5702562Y-15369984D01*
X5893039Y-15369984D02*
X5912086Y-15369984D01*
X5912086Y-15369984D02*
X5931134Y-15379508D01*
X5931134Y-15379508D02*
X5940658Y-15389031D01*
X5940658Y-15389031D02*
X5950182Y-15408079D01*
X5950182Y-15408079D02*
X5959705Y-15446174D01*
X5959705Y-15446174D02*
X5959705Y-15493793D01*
X5959705Y-15493793D02*
X5950182Y-15531888D01*
X5950182Y-15531888D02*
X5940658Y-15550936D01*
X5940658Y-15550936D02*
X5931134Y-15560460D01*
X5931134Y-15560460D02*
X5912086Y-15569984D01*
X5912086Y-15569984D02*
X5893039Y-15569984D01*
X5893039Y-15569984D02*
X5873991Y-15560460D01*
X5873991Y-15560460D02*
X5864467Y-15550936D01*
X5864467Y-15550936D02*
X5854943Y-15531888D01*
X5854943Y-15531888D02*
X5845420Y-15493793D01*
X5845420Y-15493793D02*
X5845420Y-15446174D01*
X5845420Y-15446174D02*
X5854943Y-15408079D01*
X5854943Y-15408079D02*
X5864467Y-15389031D01*
X5864467Y-15389031D02*
X5873991Y-15379508D01*
X5873991Y-15379508D02*
X5893039Y-15369984D01*
X6045420Y-15569984D02*
X6045420Y-15436650D01*
X6045420Y-15455698D02*
X6054943Y-15446174D01*
X6054943Y-15446174D02*
X6073991Y-15436650D01*
X6073991Y-15436650D02*
X6102563Y-15436650D01*
X6102563Y-15436650D02*
X6121610Y-15446174D01*
X6121610Y-15446174D02*
X6131134Y-15465222D01*
X6131134Y-15465222D02*
X6131134Y-15569984D01*
X6131134Y-15465222D02*
X6140658Y-15446174D01*
X6140658Y-15446174D02*
X6159705Y-15436650D01*
X6159705Y-15436650D02*
X6188277Y-15436650D01*
X6188277Y-15436650D02*
X6207324Y-15446174D01*
X6207324Y-15446174D02*
X6216848Y-15465222D01*
X6216848Y-15465222D02*
X6216848Y-15569984D01*
X6312086Y-15569984D02*
X6312086Y-15436650D01*
X6312086Y-15455698D02*
X6321610Y-15446174D01*
X6321610Y-15446174D02*
X6340658Y-15436650D01*
X6340658Y-15436650D02*
X6369229Y-15436650D01*
X6369229Y-15436650D02*
X6388277Y-15446174D01*
X6388277Y-15446174D02*
X6397801Y-15465222D01*
X6397801Y-15465222D02*
X6397801Y-15569984D01*
X6397801Y-15465222D02*
X6407324Y-15446174D01*
X6407324Y-15446174D02*
X6426372Y-15436650D01*
X6426372Y-15436650D02*
X6454943Y-15436650D01*
X6454943Y-15436650D02*
X6473991Y-15446174D01*
X6473991Y-15446174D02*
X6483515Y-15465222D01*
X6483515Y-15465222D02*
X6483515Y-15569984D01*
X6873991Y-15360460D02*
X6702563Y-15617603D01*
X7131134Y-15369984D02*
X7150182Y-15369984D01*
X7150182Y-15369984D02*
X7169229Y-15379508D01*
X7169229Y-15379508D02*
X7178753Y-15389031D01*
X7178753Y-15389031D02*
X7188277Y-15408079D01*
X7188277Y-15408079D02*
X7197801Y-15446174D01*
X7197801Y-15446174D02*
X7197801Y-15493793D01*
X7197801Y-15493793D02*
X7188277Y-15531888D01*
X7188277Y-15531888D02*
X7178753Y-15550936D01*
X7178753Y-15550936D02*
X7169229Y-15560460D01*
X7169229Y-15560460D02*
X7150182Y-15569984D01*
X7150182Y-15569984D02*
X7131134Y-15569984D01*
X7131134Y-15569984D02*
X7112086Y-15560460D01*
X7112086Y-15560460D02*
X7102563Y-15550936D01*
X7102563Y-15550936D02*
X7093039Y-15531888D01*
X7093039Y-15531888D02*
X7083515Y-15493793D01*
X7083515Y-15493793D02*
X7083515Y-15446174D01*
X7083515Y-15446174D02*
X7093039Y-15408079D01*
X7093039Y-15408079D02*
X7102563Y-15389031D01*
X7102563Y-15389031D02*
X7112086Y-15379508D01*
X7112086Y-15379508D02*
X7131134Y-15369984D01*
X7283515Y-15550936D02*
X7293039Y-15560460D01*
X7293039Y-15560460D02*
X7283515Y-15569984D01*
X7283515Y-15569984D02*
X7273991Y-15560460D01*
X7273991Y-15560460D02*
X7283515Y-15550936D01*
X7283515Y-15550936D02*
X7283515Y-15569984D01*
X7416848Y-15369984D02*
X7435896Y-15369984D01*
X7435896Y-15369984D02*
X7454944Y-15379508D01*
X7454944Y-15379508D02*
X7464467Y-15389031D01*
X7464467Y-15389031D02*
X7473991Y-15408079D01*
X7473991Y-15408079D02*
X7483515Y-15446174D01*
X7483515Y-15446174D02*
X7483515Y-15493793D01*
X7483515Y-15493793D02*
X7473991Y-15531888D01*
X7473991Y-15531888D02*
X7464467Y-15550936D01*
X7464467Y-15550936D02*
X7454944Y-15560460D01*
X7454944Y-15560460D02*
X7435896Y-15569984D01*
X7435896Y-15569984D02*
X7416848Y-15569984D01*
X7416848Y-15569984D02*
X7397801Y-15560460D01*
X7397801Y-15560460D02*
X7388277Y-15550936D01*
X7388277Y-15550936D02*
X7378753Y-15531888D01*
X7378753Y-15531888D02*
X7369229Y-15493793D01*
X7369229Y-15493793D02*
X7369229Y-15446174D01*
X7369229Y-15446174D02*
X7378753Y-15408079D01*
X7378753Y-15408079D02*
X7388277Y-15389031D01*
X7388277Y-15389031D02*
X7397801Y-15379508D01*
X7397801Y-15379508D02*
X7416848Y-15369984D01*
X7550182Y-15369984D02*
X7673991Y-15369984D01*
X7673991Y-15369984D02*
X7607325Y-15446174D01*
X7607325Y-15446174D02*
X7635896Y-15446174D01*
X7635896Y-15446174D02*
X7654944Y-15455698D01*
X7654944Y-15455698D02*
X7664467Y-15465222D01*
X7664467Y-15465222D02*
X7673991Y-15484269D01*
X7673991Y-15484269D02*
X7673991Y-15531888D01*
X7673991Y-15531888D02*
X7664467Y-15550936D01*
X7664467Y-15550936D02*
X7654944Y-15560460D01*
X7654944Y-15560460D02*
X7635896Y-15569984D01*
X7635896Y-15569984D02*
X7578753Y-15569984D01*
X7578753Y-15569984D02*
X7559706Y-15560460D01*
X7559706Y-15560460D02*
X7550182Y-15550936D01*
X7864467Y-15569984D02*
X7750182Y-15569984D01*
X7807325Y-15569984D02*
X7807325Y-15369984D01*
X7807325Y-15369984D02*
X7788277Y-15398555D01*
X7788277Y-15398555D02*
X7769229Y-15417603D01*
X7769229Y-15417603D02*
X7750182Y-15427127D01*
X8045420Y-15369984D02*
X7950182Y-15369984D01*
X7950182Y-15369984D02*
X7940658Y-15465222D01*
X7940658Y-15465222D02*
X7950182Y-15455698D01*
X7950182Y-15455698D02*
X7969229Y-15446174D01*
X7969229Y-15446174D02*
X8016848Y-15446174D01*
X8016848Y-15446174D02*
X8035896Y-15455698D01*
X8035896Y-15455698D02*
X8045420Y-15465222D01*
X8045420Y-15465222D02*
X8054944Y-15484269D01*
X8054944Y-15484269D02*
X8054944Y-15531888D01*
X8054944Y-15531888D02*
X8045420Y-15550936D01*
X8045420Y-15550936D02*
X8035896Y-15560460D01*
X8035896Y-15560460D02*
X8016848Y-15569984D01*
X8016848Y-15569984D02*
X7969229Y-15569984D01*
X7969229Y-15569984D02*
X7950182Y-15560460D01*
X7950182Y-15560460D02*
X7940658Y-15550936D01*
X8131134Y-15369984D02*
X8131134Y-15408079D01*
X8207325Y-15369984D02*
X8207325Y-15408079D01*
X8502563Y-15646174D02*
X8493039Y-15636650D01*
X8493039Y-15636650D02*
X8473991Y-15608079D01*
X8473991Y-15608079D02*
X8464468Y-15589031D01*
X8464468Y-15589031D02*
X8454944Y-15560460D01*
X8454944Y-15560460D02*
X8445420Y-15512841D01*
X8445420Y-15512841D02*
X8445420Y-15474746D01*
X8445420Y-15474746D02*
X8454944Y-15427127D01*
X8454944Y-15427127D02*
X8464468Y-15398555D01*
X8464468Y-15398555D02*
X8473991Y-15379508D01*
X8473991Y-15379508D02*
X8493039Y-15350936D01*
X8493039Y-15350936D02*
X8502563Y-15341412D01*
X8569230Y-15389031D02*
X8578753Y-15379508D01*
X8578753Y-15379508D02*
X8597801Y-15369984D01*
X8597801Y-15369984D02*
X8645420Y-15369984D01*
X8645420Y-15369984D02*
X8664468Y-15379508D01*
X8664468Y-15379508D02*
X8673991Y-15389031D01*
X8673991Y-15389031D02*
X8683515Y-15408079D01*
X8683515Y-15408079D02*
X8683515Y-15427127D01*
X8683515Y-15427127D02*
X8673991Y-15455698D01*
X8673991Y-15455698D02*
X8559706Y-15569984D01*
X8559706Y-15569984D02*
X8683515Y-15569984D01*
X8921611Y-15569984D02*
X8921611Y-15369984D01*
X9007325Y-15569984D02*
X9007325Y-15465222D01*
X9007325Y-15465222D02*
X8997801Y-15446174D01*
X8997801Y-15446174D02*
X8978753Y-15436650D01*
X8978753Y-15436650D02*
X8950182Y-15436650D01*
X8950182Y-15436650D02*
X8931134Y-15446174D01*
X8931134Y-15446174D02*
X8921611Y-15455698D01*
X9131134Y-15569984D02*
X9112087Y-15560460D01*
X9112087Y-15560460D02*
X9102563Y-15550936D01*
X9102563Y-15550936D02*
X9093039Y-15531888D01*
X9093039Y-15531888D02*
X9093039Y-15474746D01*
X9093039Y-15474746D02*
X9102563Y-15455698D01*
X9102563Y-15455698D02*
X9112087Y-15446174D01*
X9112087Y-15446174D02*
X9131134Y-15436650D01*
X9131134Y-15436650D02*
X9159706Y-15436650D01*
X9159706Y-15436650D02*
X9178753Y-15446174D01*
X9178753Y-15446174D02*
X9188277Y-15455698D01*
X9188277Y-15455698D02*
X9197801Y-15474746D01*
X9197801Y-15474746D02*
X9197801Y-15531888D01*
X9197801Y-15531888D02*
X9188277Y-15550936D01*
X9188277Y-15550936D02*
X9178753Y-15560460D01*
X9178753Y-15560460D02*
X9159706Y-15569984D01*
X9159706Y-15569984D02*
X9131134Y-15569984D01*
X9312087Y-15569984D02*
X9293039Y-15560460D01*
X9293039Y-15560460D02*
X9283515Y-15541412D01*
X9283515Y-15541412D02*
X9283515Y-15369984D01*
X9464468Y-15560460D02*
X9445420Y-15569984D01*
X9445420Y-15569984D02*
X9407325Y-15569984D01*
X9407325Y-15569984D02*
X9388277Y-15560460D01*
X9388277Y-15560460D02*
X9378753Y-15541412D01*
X9378753Y-15541412D02*
X9378753Y-15465222D01*
X9378753Y-15465222D02*
X9388277Y-15446174D01*
X9388277Y-15446174D02*
X9407325Y-15436650D01*
X9407325Y-15436650D02*
X9445420Y-15436650D01*
X9445420Y-15436650D02*
X9464468Y-15446174D01*
X9464468Y-15446174D02*
X9473992Y-15465222D01*
X9473992Y-15465222D02*
X9473992Y-15484269D01*
X9473992Y-15484269D02*
X9378753Y-15503317D01*
X9550182Y-15560460D02*
X9569230Y-15569984D01*
X9569230Y-15569984D02*
X9607325Y-15569984D01*
X9607325Y-15569984D02*
X9626373Y-15560460D01*
X9626373Y-15560460D02*
X9635896Y-15541412D01*
X9635896Y-15541412D02*
X9635896Y-15531888D01*
X9635896Y-15531888D02*
X9626373Y-15512841D01*
X9626373Y-15512841D02*
X9607325Y-15503317D01*
X9607325Y-15503317D02*
X9578753Y-15503317D01*
X9578753Y-15503317D02*
X9559706Y-15493793D01*
X9559706Y-15493793D02*
X9550182Y-15474746D01*
X9550182Y-15474746D02*
X9550182Y-15465222D01*
X9550182Y-15465222D02*
X9559706Y-15446174D01*
X9559706Y-15446174D02*
X9578753Y-15436650D01*
X9578753Y-15436650D02*
X9607325Y-15436650D01*
X9607325Y-15436650D02*
X9626373Y-15446174D01*
X9702563Y-15646174D02*
X9712087Y-15636650D01*
X9712087Y-15636650D02*
X9731134Y-15608079D01*
X9731134Y-15608079D02*
X9740658Y-15589031D01*
X9740658Y-15589031D02*
X9750182Y-15560460D01*
X9750182Y-15560460D02*
X9759706Y-15512841D01*
X9759706Y-15512841D02*
X9759706Y-15474746D01*
X9759706Y-15474746D02*
X9750182Y-15427127D01*
X9750182Y-15427127D02*
X9740658Y-15398555D01*
X9740658Y-15398555D02*
X9731134Y-15379508D01*
X9731134Y-15379508D02*
X9712087Y-15350936D01*
X9712087Y-15350936D02*
X9702563Y-15341412D01*
D12*
X4827500Y-15692500D02*
X4927500Y-15792500D01*
X4927500Y-15692500D02*
X4827500Y-15792500D01*
X4927500Y-15742500D02*
G75*
G02*
X4827500Y-15742500I-50000J0D01*
G01*
X4827500Y-15742500D02*
G75*
G02*
X4927500Y-15742500I50000J0D01*
G01*
D11*
X5293039Y-15833984D02*
X5178753Y-15833984D01*
X5235896Y-15833984D02*
X5235896Y-15633984D01*
X5235896Y-15633984D02*
X5216848Y-15662555D01*
X5216848Y-15662555D02*
X5197801Y-15681603D01*
X5197801Y-15681603D02*
X5178753Y-15691127D01*
X5378753Y-15814936D02*
X5388277Y-15824460D01*
X5388277Y-15824460D02*
X5378753Y-15833984D01*
X5378753Y-15833984D02*
X5369229Y-15824460D01*
X5369229Y-15824460D02*
X5378753Y-15814936D01*
X5378753Y-15814936D02*
X5378753Y-15833984D01*
X5512086Y-15633984D02*
X5531134Y-15633984D01*
X5531134Y-15633984D02*
X5550182Y-15643508D01*
X5550182Y-15643508D02*
X5559705Y-15653031D01*
X5559705Y-15653031D02*
X5569229Y-15672079D01*
X5569229Y-15672079D02*
X5578753Y-15710174D01*
X5578753Y-15710174D02*
X5578753Y-15757793D01*
X5578753Y-15757793D02*
X5569229Y-15795888D01*
X5569229Y-15795888D02*
X5559705Y-15814936D01*
X5559705Y-15814936D02*
X5550182Y-15824460D01*
X5550182Y-15824460D02*
X5531134Y-15833984D01*
X5531134Y-15833984D02*
X5512086Y-15833984D01*
X5512086Y-15833984D02*
X5493039Y-15824460D01*
X5493039Y-15824460D02*
X5483515Y-15814936D01*
X5483515Y-15814936D02*
X5473991Y-15795888D01*
X5473991Y-15795888D02*
X5464467Y-15757793D01*
X5464467Y-15757793D02*
X5464467Y-15710174D01*
X5464467Y-15710174D02*
X5473991Y-15672079D01*
X5473991Y-15672079D02*
X5483515Y-15653031D01*
X5483515Y-15653031D02*
X5493039Y-15643508D01*
X5493039Y-15643508D02*
X5512086Y-15633984D01*
X5702562Y-15633984D02*
X5721610Y-15633984D01*
X5721610Y-15633984D02*
X5740658Y-15643508D01*
X5740658Y-15643508D02*
X5750182Y-15653031D01*
X5750182Y-15653031D02*
X5759705Y-15672079D01*
X5759705Y-15672079D02*
X5769229Y-15710174D01*
X5769229Y-15710174D02*
X5769229Y-15757793D01*
X5769229Y-15757793D02*
X5759705Y-15795888D01*
X5759705Y-15795888D02*
X5750182Y-15814936D01*
X5750182Y-15814936D02*
X5740658Y-15824460D01*
X5740658Y-15824460D02*
X5721610Y-15833984D01*
X5721610Y-15833984D02*
X5702562Y-15833984D01*
X5702562Y-15833984D02*
X5683515Y-15824460D01*
X5683515Y-15824460D02*
X5673991Y-15814936D01*
X5673991Y-15814936D02*
X5664467Y-15795888D01*
X5664467Y-15795888D02*
X5654943Y-15757793D01*
X5654943Y-15757793D02*
X5654943Y-15710174D01*
X5654943Y-15710174D02*
X5664467Y-15672079D01*
X5664467Y-15672079D02*
X5673991Y-15653031D01*
X5673991Y-15653031D02*
X5683515Y-15643508D01*
X5683515Y-15643508D02*
X5702562Y-15633984D01*
X5893039Y-15633984D02*
X5912086Y-15633984D01*
X5912086Y-15633984D02*
X5931134Y-15643508D01*
X5931134Y-15643508D02*
X5940658Y-15653031D01*
X5940658Y-15653031D02*
X5950182Y-15672079D01*
X5950182Y-15672079D02*
X5959705Y-15710174D01*
X5959705Y-15710174D02*
X5959705Y-15757793D01*
X5959705Y-15757793D02*
X5950182Y-15795888D01*
X5950182Y-15795888D02*
X5940658Y-15814936D01*
X5940658Y-15814936D02*
X5931134Y-15824460D01*
X5931134Y-15824460D02*
X5912086Y-15833984D01*
X5912086Y-15833984D02*
X5893039Y-15833984D01*
X5893039Y-15833984D02*
X5873991Y-15824460D01*
X5873991Y-15824460D02*
X5864467Y-15814936D01*
X5864467Y-15814936D02*
X5854943Y-15795888D01*
X5854943Y-15795888D02*
X5845420Y-15757793D01*
X5845420Y-15757793D02*
X5845420Y-15710174D01*
X5845420Y-15710174D02*
X5854943Y-15672079D01*
X5854943Y-15672079D02*
X5864467Y-15653031D01*
X5864467Y-15653031D02*
X5873991Y-15643508D01*
X5873991Y-15643508D02*
X5893039Y-15633984D01*
X6045420Y-15833984D02*
X6045420Y-15700650D01*
X6045420Y-15719698D02*
X6054943Y-15710174D01*
X6054943Y-15710174D02*
X6073991Y-15700650D01*
X6073991Y-15700650D02*
X6102563Y-15700650D01*
X6102563Y-15700650D02*
X6121610Y-15710174D01*
X6121610Y-15710174D02*
X6131134Y-15729222D01*
X6131134Y-15729222D02*
X6131134Y-15833984D01*
X6131134Y-15729222D02*
X6140658Y-15710174D01*
X6140658Y-15710174D02*
X6159705Y-15700650D01*
X6159705Y-15700650D02*
X6188277Y-15700650D01*
X6188277Y-15700650D02*
X6207324Y-15710174D01*
X6207324Y-15710174D02*
X6216848Y-15729222D01*
X6216848Y-15729222D02*
X6216848Y-15833984D01*
X6312086Y-15833984D02*
X6312086Y-15700650D01*
X6312086Y-15719698D02*
X6321610Y-15710174D01*
X6321610Y-15710174D02*
X6340658Y-15700650D01*
X6340658Y-15700650D02*
X6369229Y-15700650D01*
X6369229Y-15700650D02*
X6388277Y-15710174D01*
X6388277Y-15710174D02*
X6397801Y-15729222D01*
X6397801Y-15729222D02*
X6397801Y-15833984D01*
X6397801Y-15729222D02*
X6407324Y-15710174D01*
X6407324Y-15710174D02*
X6426372Y-15700650D01*
X6426372Y-15700650D02*
X6454943Y-15700650D01*
X6454943Y-15700650D02*
X6473991Y-15710174D01*
X6473991Y-15710174D02*
X6483515Y-15729222D01*
X6483515Y-15729222D02*
X6483515Y-15833984D01*
X6873991Y-15624460D02*
X6702563Y-15881603D01*
X7131134Y-15633984D02*
X7150182Y-15633984D01*
X7150182Y-15633984D02*
X7169229Y-15643508D01*
X7169229Y-15643508D02*
X7178753Y-15653031D01*
X7178753Y-15653031D02*
X7188277Y-15672079D01*
X7188277Y-15672079D02*
X7197801Y-15710174D01*
X7197801Y-15710174D02*
X7197801Y-15757793D01*
X7197801Y-15757793D02*
X7188277Y-15795888D01*
X7188277Y-15795888D02*
X7178753Y-15814936D01*
X7178753Y-15814936D02*
X7169229Y-15824460D01*
X7169229Y-15824460D02*
X7150182Y-15833984D01*
X7150182Y-15833984D02*
X7131134Y-15833984D01*
X7131134Y-15833984D02*
X7112086Y-15824460D01*
X7112086Y-15824460D02*
X7102563Y-15814936D01*
X7102563Y-15814936D02*
X7093039Y-15795888D01*
X7093039Y-15795888D02*
X7083515Y-15757793D01*
X7083515Y-15757793D02*
X7083515Y-15710174D01*
X7083515Y-15710174D02*
X7093039Y-15672079D01*
X7093039Y-15672079D02*
X7102563Y-15653031D01*
X7102563Y-15653031D02*
X7112086Y-15643508D01*
X7112086Y-15643508D02*
X7131134Y-15633984D01*
X7283515Y-15814936D02*
X7293039Y-15824460D01*
X7293039Y-15824460D02*
X7283515Y-15833984D01*
X7283515Y-15833984D02*
X7273991Y-15824460D01*
X7273991Y-15824460D02*
X7283515Y-15814936D01*
X7283515Y-15814936D02*
X7283515Y-15833984D01*
X7416848Y-15633984D02*
X7435896Y-15633984D01*
X7435896Y-15633984D02*
X7454944Y-15643508D01*
X7454944Y-15643508D02*
X7464467Y-15653031D01*
X7464467Y-15653031D02*
X7473991Y-15672079D01*
X7473991Y-15672079D02*
X7483515Y-15710174D01*
X7483515Y-15710174D02*
X7483515Y-15757793D01*
X7483515Y-15757793D02*
X7473991Y-15795888D01*
X7473991Y-15795888D02*
X7464467Y-15814936D01*
X7464467Y-15814936D02*
X7454944Y-15824460D01*
X7454944Y-15824460D02*
X7435896Y-15833984D01*
X7435896Y-15833984D02*
X7416848Y-15833984D01*
X7416848Y-15833984D02*
X7397801Y-15824460D01*
X7397801Y-15824460D02*
X7388277Y-15814936D01*
X7388277Y-15814936D02*
X7378753Y-15795888D01*
X7378753Y-15795888D02*
X7369229Y-15757793D01*
X7369229Y-15757793D02*
X7369229Y-15710174D01*
X7369229Y-15710174D02*
X7378753Y-15672079D01*
X7378753Y-15672079D02*
X7388277Y-15653031D01*
X7388277Y-15653031D02*
X7397801Y-15643508D01*
X7397801Y-15643508D02*
X7416848Y-15633984D01*
X7550182Y-15633984D02*
X7673991Y-15633984D01*
X7673991Y-15633984D02*
X7607325Y-15710174D01*
X7607325Y-15710174D02*
X7635896Y-15710174D01*
X7635896Y-15710174D02*
X7654944Y-15719698D01*
X7654944Y-15719698D02*
X7664467Y-15729222D01*
X7664467Y-15729222D02*
X7673991Y-15748269D01*
X7673991Y-15748269D02*
X7673991Y-15795888D01*
X7673991Y-15795888D02*
X7664467Y-15814936D01*
X7664467Y-15814936D02*
X7654944Y-15824460D01*
X7654944Y-15824460D02*
X7635896Y-15833984D01*
X7635896Y-15833984D02*
X7578753Y-15833984D01*
X7578753Y-15833984D02*
X7559706Y-15824460D01*
X7559706Y-15824460D02*
X7550182Y-15814936D01*
X7769229Y-15833984D02*
X7807325Y-15833984D01*
X7807325Y-15833984D02*
X7826372Y-15824460D01*
X7826372Y-15824460D02*
X7835896Y-15814936D01*
X7835896Y-15814936D02*
X7854944Y-15786365D01*
X7854944Y-15786365D02*
X7864467Y-15748269D01*
X7864467Y-15748269D02*
X7864467Y-15672079D01*
X7864467Y-15672079D02*
X7854944Y-15653031D01*
X7854944Y-15653031D02*
X7845420Y-15643508D01*
X7845420Y-15643508D02*
X7826372Y-15633984D01*
X7826372Y-15633984D02*
X7788277Y-15633984D01*
X7788277Y-15633984D02*
X7769229Y-15643508D01*
X7769229Y-15643508D02*
X7759706Y-15653031D01*
X7759706Y-15653031D02*
X7750182Y-15672079D01*
X7750182Y-15672079D02*
X7750182Y-15719698D01*
X7750182Y-15719698D02*
X7759706Y-15738746D01*
X7759706Y-15738746D02*
X7769229Y-15748269D01*
X7769229Y-15748269D02*
X7788277Y-15757793D01*
X7788277Y-15757793D02*
X7826372Y-15757793D01*
X7826372Y-15757793D02*
X7845420Y-15748269D01*
X7845420Y-15748269D02*
X7854944Y-15738746D01*
X7854944Y-15738746D02*
X7864467Y-15719698D01*
X8035896Y-15700650D02*
X8035896Y-15833984D01*
X7988277Y-15624460D02*
X7940658Y-15767317D01*
X7940658Y-15767317D02*
X8064467Y-15767317D01*
X8131134Y-15633984D02*
X8131134Y-15672079D01*
X8207325Y-15633984D02*
X8207325Y-15672079D01*
X8502563Y-15910174D02*
X8493039Y-15900650D01*
X8493039Y-15900650D02*
X8473991Y-15872079D01*
X8473991Y-15872079D02*
X8464468Y-15853031D01*
X8464468Y-15853031D02*
X8454944Y-15824460D01*
X8454944Y-15824460D02*
X8445420Y-15776841D01*
X8445420Y-15776841D02*
X8445420Y-15738746D01*
X8445420Y-15738746D02*
X8454944Y-15691127D01*
X8454944Y-15691127D02*
X8464468Y-15662555D01*
X8464468Y-15662555D02*
X8473991Y-15643508D01*
X8473991Y-15643508D02*
X8493039Y-15614936D01*
X8493039Y-15614936D02*
X8502563Y-15605412D01*
X8569230Y-15653031D02*
X8578753Y-15643508D01*
X8578753Y-15643508D02*
X8597801Y-15633984D01*
X8597801Y-15633984D02*
X8645420Y-15633984D01*
X8645420Y-15633984D02*
X8664468Y-15643508D01*
X8664468Y-15643508D02*
X8673991Y-15653031D01*
X8673991Y-15653031D02*
X8683515Y-15672079D01*
X8683515Y-15672079D02*
X8683515Y-15691127D01*
X8683515Y-15691127D02*
X8673991Y-15719698D01*
X8673991Y-15719698D02*
X8559706Y-15833984D01*
X8559706Y-15833984D02*
X8683515Y-15833984D01*
X8921611Y-15833984D02*
X8921611Y-15633984D01*
X9007325Y-15833984D02*
X9007325Y-15729222D01*
X9007325Y-15729222D02*
X8997801Y-15710174D01*
X8997801Y-15710174D02*
X8978753Y-15700650D01*
X8978753Y-15700650D02*
X8950182Y-15700650D01*
X8950182Y-15700650D02*
X8931134Y-15710174D01*
X8931134Y-15710174D02*
X8921611Y-15719698D01*
X9131134Y-15833984D02*
X9112087Y-15824460D01*
X9112087Y-15824460D02*
X9102563Y-15814936D01*
X9102563Y-15814936D02*
X9093039Y-15795888D01*
X9093039Y-15795888D02*
X9093039Y-15738746D01*
X9093039Y-15738746D02*
X9102563Y-15719698D01*
X9102563Y-15719698D02*
X9112087Y-15710174D01*
X9112087Y-15710174D02*
X9131134Y-15700650D01*
X9131134Y-15700650D02*
X9159706Y-15700650D01*
X9159706Y-15700650D02*
X9178753Y-15710174D01*
X9178753Y-15710174D02*
X9188277Y-15719698D01*
X9188277Y-15719698D02*
X9197801Y-15738746D01*
X9197801Y-15738746D02*
X9197801Y-15795888D01*
X9197801Y-15795888D02*
X9188277Y-15814936D01*
X9188277Y-15814936D02*
X9178753Y-15824460D01*
X9178753Y-15824460D02*
X9159706Y-15833984D01*
X9159706Y-15833984D02*
X9131134Y-15833984D01*
X9312087Y-15833984D02*
X9293039Y-15824460D01*
X9293039Y-15824460D02*
X9283515Y-15805412D01*
X9283515Y-15805412D02*
X9283515Y-15633984D01*
X9464468Y-15824460D02*
X9445420Y-15833984D01*
X9445420Y-15833984D02*
X9407325Y-15833984D01*
X9407325Y-15833984D02*
X9388277Y-15824460D01*
X9388277Y-15824460D02*
X9378753Y-15805412D01*
X9378753Y-15805412D02*
X9378753Y-15729222D01*
X9378753Y-15729222D02*
X9388277Y-15710174D01*
X9388277Y-15710174D02*
X9407325Y-15700650D01*
X9407325Y-15700650D02*
X9445420Y-15700650D01*
X9445420Y-15700650D02*
X9464468Y-15710174D01*
X9464468Y-15710174D02*
X9473992Y-15729222D01*
X9473992Y-15729222D02*
X9473992Y-15748269D01*
X9473992Y-15748269D02*
X9378753Y-15767317D01*
X9550182Y-15824460D02*
X9569230Y-15833984D01*
X9569230Y-15833984D02*
X9607325Y-15833984D01*
X9607325Y-15833984D02*
X9626373Y-15824460D01*
X9626373Y-15824460D02*
X9635896Y-15805412D01*
X9635896Y-15805412D02*
X9635896Y-15795888D01*
X9635896Y-15795888D02*
X9626373Y-15776841D01*
X9626373Y-15776841D02*
X9607325Y-15767317D01*
X9607325Y-15767317D02*
X9578753Y-15767317D01*
X9578753Y-15767317D02*
X9559706Y-15757793D01*
X9559706Y-15757793D02*
X9550182Y-15738746D01*
X9550182Y-15738746D02*
X9550182Y-15729222D01*
X9550182Y-15729222D02*
X9559706Y-15710174D01*
X9559706Y-15710174D02*
X9578753Y-15700650D01*
X9578753Y-15700650D02*
X9607325Y-15700650D01*
X9607325Y-15700650D02*
X9626373Y-15710174D01*
X9702563Y-15910174D02*
X9712087Y-15900650D01*
X9712087Y-15900650D02*
X9731134Y-15872079D01*
X9731134Y-15872079D02*
X9740658Y-15853031D01*
X9740658Y-15853031D02*
X9750182Y-15824460D01*
X9750182Y-15824460D02*
X9759706Y-15776841D01*
X9759706Y-15776841D02*
X9759706Y-15738746D01*
X9759706Y-15738746D02*
X9750182Y-15691127D01*
X9750182Y-15691127D02*
X9740658Y-15662555D01*
X9740658Y-15662555D02*
X9731134Y-15643508D01*
X9731134Y-15643508D02*
X9712087Y-15614936D01*
X9712087Y-15614936D02*
X9702563Y-15605412D01*
D13*
X4825500Y-15955500D02*
X4927500Y-16057500D01*
X4927500Y-15955500D02*
X4825500Y-16057500D01*
X4876500Y-15955500D02*
X4876500Y-16057500D01*
X4825500Y-16006500D02*
X4927500Y-16006500D01*
D11*
X5293039Y-16097984D02*
X5178753Y-16097984D01*
X5235896Y-16097984D02*
X5235896Y-15897984D01*
X5235896Y-15897984D02*
X5216848Y-15926555D01*
X5216848Y-15926555D02*
X5197801Y-15945603D01*
X5197801Y-15945603D02*
X5178753Y-15955127D01*
X5378753Y-16078936D02*
X5388277Y-16088460D01*
X5388277Y-16088460D02*
X5378753Y-16097984D01*
X5378753Y-16097984D02*
X5369229Y-16088460D01*
X5369229Y-16088460D02*
X5378753Y-16078936D01*
X5378753Y-16078936D02*
X5378753Y-16097984D01*
X5512086Y-15897984D02*
X5531134Y-15897984D01*
X5531134Y-15897984D02*
X5550182Y-15907508D01*
X5550182Y-15907508D02*
X5559705Y-15917031D01*
X5559705Y-15917031D02*
X5569229Y-15936079D01*
X5569229Y-15936079D02*
X5578753Y-15974174D01*
X5578753Y-15974174D02*
X5578753Y-16021793D01*
X5578753Y-16021793D02*
X5569229Y-16059888D01*
X5569229Y-16059888D02*
X5559705Y-16078936D01*
X5559705Y-16078936D02*
X5550182Y-16088460D01*
X5550182Y-16088460D02*
X5531134Y-16097984D01*
X5531134Y-16097984D02*
X5512086Y-16097984D01*
X5512086Y-16097984D02*
X5493039Y-16088460D01*
X5493039Y-16088460D02*
X5483515Y-16078936D01*
X5483515Y-16078936D02*
X5473991Y-16059888D01*
X5473991Y-16059888D02*
X5464467Y-16021793D01*
X5464467Y-16021793D02*
X5464467Y-15974174D01*
X5464467Y-15974174D02*
X5473991Y-15936079D01*
X5473991Y-15936079D02*
X5483515Y-15917031D01*
X5483515Y-15917031D02*
X5493039Y-15907508D01*
X5493039Y-15907508D02*
X5512086Y-15897984D01*
X5654943Y-15917031D02*
X5664467Y-15907508D01*
X5664467Y-15907508D02*
X5683515Y-15897984D01*
X5683515Y-15897984D02*
X5731134Y-15897984D01*
X5731134Y-15897984D02*
X5750182Y-15907508D01*
X5750182Y-15907508D02*
X5759705Y-15917031D01*
X5759705Y-15917031D02*
X5769229Y-15936079D01*
X5769229Y-15936079D02*
X5769229Y-15955127D01*
X5769229Y-15955127D02*
X5759705Y-15983698D01*
X5759705Y-15983698D02*
X5645420Y-16097984D01*
X5645420Y-16097984D02*
X5769229Y-16097984D01*
X5893039Y-15897984D02*
X5912086Y-15897984D01*
X5912086Y-15897984D02*
X5931134Y-15907508D01*
X5931134Y-15907508D02*
X5940658Y-15917031D01*
X5940658Y-15917031D02*
X5950182Y-15936079D01*
X5950182Y-15936079D02*
X5959705Y-15974174D01*
X5959705Y-15974174D02*
X5959705Y-16021793D01*
X5959705Y-16021793D02*
X5950182Y-16059888D01*
X5950182Y-16059888D02*
X5940658Y-16078936D01*
X5940658Y-16078936D02*
X5931134Y-16088460D01*
X5931134Y-16088460D02*
X5912086Y-16097984D01*
X5912086Y-16097984D02*
X5893039Y-16097984D01*
X5893039Y-16097984D02*
X5873991Y-16088460D01*
X5873991Y-16088460D02*
X5864467Y-16078936D01*
X5864467Y-16078936D02*
X5854943Y-16059888D01*
X5854943Y-16059888D02*
X5845420Y-16021793D01*
X5845420Y-16021793D02*
X5845420Y-15974174D01*
X5845420Y-15974174D02*
X5854943Y-15936079D01*
X5854943Y-15936079D02*
X5864467Y-15917031D01*
X5864467Y-15917031D02*
X5873991Y-15907508D01*
X5873991Y-15907508D02*
X5893039Y-15897984D01*
X6045420Y-16097984D02*
X6045420Y-15964650D01*
X6045420Y-15983698D02*
X6054943Y-15974174D01*
X6054943Y-15974174D02*
X6073991Y-15964650D01*
X6073991Y-15964650D02*
X6102563Y-15964650D01*
X6102563Y-15964650D02*
X6121610Y-15974174D01*
X6121610Y-15974174D02*
X6131134Y-15993222D01*
X6131134Y-15993222D02*
X6131134Y-16097984D01*
X6131134Y-15993222D02*
X6140658Y-15974174D01*
X6140658Y-15974174D02*
X6159705Y-15964650D01*
X6159705Y-15964650D02*
X6188277Y-15964650D01*
X6188277Y-15964650D02*
X6207324Y-15974174D01*
X6207324Y-15974174D02*
X6216848Y-15993222D01*
X6216848Y-15993222D02*
X6216848Y-16097984D01*
X6312086Y-16097984D02*
X6312086Y-15964650D01*
X6312086Y-15983698D02*
X6321610Y-15974174D01*
X6321610Y-15974174D02*
X6340658Y-15964650D01*
X6340658Y-15964650D02*
X6369229Y-15964650D01*
X6369229Y-15964650D02*
X6388277Y-15974174D01*
X6388277Y-15974174D02*
X6397801Y-15993222D01*
X6397801Y-15993222D02*
X6397801Y-16097984D01*
X6397801Y-15993222D02*
X6407324Y-15974174D01*
X6407324Y-15974174D02*
X6426372Y-15964650D01*
X6426372Y-15964650D02*
X6454943Y-15964650D01*
X6454943Y-15964650D02*
X6473991Y-15974174D01*
X6473991Y-15974174D02*
X6483515Y-15993222D01*
X6483515Y-15993222D02*
X6483515Y-16097984D01*
X6873991Y-15888460D02*
X6702563Y-16145603D01*
X7131134Y-15897984D02*
X7150182Y-15897984D01*
X7150182Y-15897984D02*
X7169229Y-15907508D01*
X7169229Y-15907508D02*
X7178753Y-15917031D01*
X7178753Y-15917031D02*
X7188277Y-15936079D01*
X7188277Y-15936079D02*
X7197801Y-15974174D01*
X7197801Y-15974174D02*
X7197801Y-16021793D01*
X7197801Y-16021793D02*
X7188277Y-16059888D01*
X7188277Y-16059888D02*
X7178753Y-16078936D01*
X7178753Y-16078936D02*
X7169229Y-16088460D01*
X7169229Y-16088460D02*
X7150182Y-16097984D01*
X7150182Y-16097984D02*
X7131134Y-16097984D01*
X7131134Y-16097984D02*
X7112086Y-16088460D01*
X7112086Y-16088460D02*
X7102563Y-16078936D01*
X7102563Y-16078936D02*
X7093039Y-16059888D01*
X7093039Y-16059888D02*
X7083515Y-16021793D01*
X7083515Y-16021793D02*
X7083515Y-15974174D01*
X7083515Y-15974174D02*
X7093039Y-15936079D01*
X7093039Y-15936079D02*
X7102563Y-15917031D01*
X7102563Y-15917031D02*
X7112086Y-15907508D01*
X7112086Y-15907508D02*
X7131134Y-15897984D01*
X7283515Y-16078936D02*
X7293039Y-16088460D01*
X7293039Y-16088460D02*
X7283515Y-16097984D01*
X7283515Y-16097984D02*
X7273991Y-16088460D01*
X7273991Y-16088460D02*
X7283515Y-16078936D01*
X7283515Y-16078936D02*
X7283515Y-16097984D01*
X7416848Y-15897984D02*
X7435896Y-15897984D01*
X7435896Y-15897984D02*
X7454944Y-15907508D01*
X7454944Y-15907508D02*
X7464467Y-15917031D01*
X7464467Y-15917031D02*
X7473991Y-15936079D01*
X7473991Y-15936079D02*
X7483515Y-15974174D01*
X7483515Y-15974174D02*
X7483515Y-16021793D01*
X7483515Y-16021793D02*
X7473991Y-16059888D01*
X7473991Y-16059888D02*
X7464467Y-16078936D01*
X7464467Y-16078936D02*
X7454944Y-16088460D01*
X7454944Y-16088460D02*
X7435896Y-16097984D01*
X7435896Y-16097984D02*
X7416848Y-16097984D01*
X7416848Y-16097984D02*
X7397801Y-16088460D01*
X7397801Y-16088460D02*
X7388277Y-16078936D01*
X7388277Y-16078936D02*
X7378753Y-16059888D01*
X7378753Y-16059888D02*
X7369229Y-16021793D01*
X7369229Y-16021793D02*
X7369229Y-15974174D01*
X7369229Y-15974174D02*
X7378753Y-15936079D01*
X7378753Y-15936079D02*
X7388277Y-15917031D01*
X7388277Y-15917031D02*
X7397801Y-15907508D01*
X7397801Y-15907508D02*
X7416848Y-15897984D01*
X7654944Y-15964650D02*
X7654944Y-16097984D01*
X7607325Y-15888460D02*
X7559706Y-16031317D01*
X7559706Y-16031317D02*
X7683515Y-16031317D01*
X7797801Y-15897984D02*
X7816848Y-15897984D01*
X7816848Y-15897984D02*
X7835896Y-15907508D01*
X7835896Y-15907508D02*
X7845420Y-15917031D01*
X7845420Y-15917031D02*
X7854944Y-15936079D01*
X7854944Y-15936079D02*
X7864467Y-15974174D01*
X7864467Y-15974174D02*
X7864467Y-16021793D01*
X7864467Y-16021793D02*
X7854944Y-16059888D01*
X7854944Y-16059888D02*
X7845420Y-16078936D01*
X7845420Y-16078936D02*
X7835896Y-16088460D01*
X7835896Y-16088460D02*
X7816848Y-16097984D01*
X7816848Y-16097984D02*
X7797801Y-16097984D01*
X7797801Y-16097984D02*
X7778753Y-16088460D01*
X7778753Y-16088460D02*
X7769229Y-16078936D01*
X7769229Y-16078936D02*
X7759706Y-16059888D01*
X7759706Y-16059888D02*
X7750182Y-16021793D01*
X7750182Y-16021793D02*
X7750182Y-15974174D01*
X7750182Y-15974174D02*
X7759706Y-15936079D01*
X7759706Y-15936079D02*
X7769229Y-15917031D01*
X7769229Y-15917031D02*
X7778753Y-15907508D01*
X7778753Y-15907508D02*
X7797801Y-15897984D01*
X7940658Y-15917031D02*
X7950182Y-15907508D01*
X7950182Y-15907508D02*
X7969229Y-15897984D01*
X7969229Y-15897984D02*
X8016848Y-15897984D01*
X8016848Y-15897984D02*
X8035896Y-15907508D01*
X8035896Y-15907508D02*
X8045420Y-15917031D01*
X8045420Y-15917031D02*
X8054944Y-15936079D01*
X8054944Y-15936079D02*
X8054944Y-15955127D01*
X8054944Y-15955127D02*
X8045420Y-15983698D01*
X8045420Y-15983698D02*
X7931134Y-16097984D01*
X7931134Y-16097984D02*
X8054944Y-16097984D01*
X8131134Y-15897984D02*
X8131134Y-15936079D01*
X8207325Y-15897984D02*
X8207325Y-15936079D01*
X8502563Y-16174174D02*
X8493039Y-16164650D01*
X8493039Y-16164650D02*
X8473991Y-16136079D01*
X8473991Y-16136079D02*
X8464468Y-16117031D01*
X8464468Y-16117031D02*
X8454944Y-16088460D01*
X8454944Y-16088460D02*
X8445420Y-16040841D01*
X8445420Y-16040841D02*
X8445420Y-16002746D01*
X8445420Y-16002746D02*
X8454944Y-15955127D01*
X8454944Y-15955127D02*
X8464468Y-15926555D01*
X8464468Y-15926555D02*
X8473991Y-15907508D01*
X8473991Y-15907508D02*
X8493039Y-15878936D01*
X8493039Y-15878936D02*
X8502563Y-15869412D01*
X8664468Y-15964650D02*
X8664468Y-16097984D01*
X8616849Y-15888460D02*
X8569230Y-16031317D01*
X8569230Y-16031317D02*
X8693039Y-16031317D01*
X8921611Y-16097984D02*
X8921611Y-15897984D01*
X9007325Y-16097984D02*
X9007325Y-15993222D01*
X9007325Y-15993222D02*
X8997801Y-15974174D01*
X8997801Y-15974174D02*
X8978753Y-15964650D01*
X8978753Y-15964650D02*
X8950182Y-15964650D01*
X8950182Y-15964650D02*
X8931134Y-15974174D01*
X8931134Y-15974174D02*
X8921611Y-15983698D01*
X9131134Y-16097984D02*
X9112087Y-16088460D01*
X9112087Y-16088460D02*
X9102563Y-16078936D01*
X9102563Y-16078936D02*
X9093039Y-16059888D01*
X9093039Y-16059888D02*
X9093039Y-16002746D01*
X9093039Y-16002746D02*
X9102563Y-15983698D01*
X9102563Y-15983698D02*
X9112087Y-15974174D01*
X9112087Y-15974174D02*
X9131134Y-15964650D01*
X9131134Y-15964650D02*
X9159706Y-15964650D01*
X9159706Y-15964650D02*
X9178753Y-15974174D01*
X9178753Y-15974174D02*
X9188277Y-15983698D01*
X9188277Y-15983698D02*
X9197801Y-16002746D01*
X9197801Y-16002746D02*
X9197801Y-16059888D01*
X9197801Y-16059888D02*
X9188277Y-16078936D01*
X9188277Y-16078936D02*
X9178753Y-16088460D01*
X9178753Y-16088460D02*
X9159706Y-16097984D01*
X9159706Y-16097984D02*
X9131134Y-16097984D01*
X9312087Y-16097984D02*
X9293039Y-16088460D01*
X9293039Y-16088460D02*
X9283515Y-16069412D01*
X9283515Y-16069412D02*
X9283515Y-15897984D01*
X9464468Y-16088460D02*
X9445420Y-16097984D01*
X9445420Y-16097984D02*
X9407325Y-16097984D01*
X9407325Y-16097984D02*
X9388277Y-16088460D01*
X9388277Y-16088460D02*
X9378753Y-16069412D01*
X9378753Y-16069412D02*
X9378753Y-15993222D01*
X9378753Y-15993222D02*
X9388277Y-15974174D01*
X9388277Y-15974174D02*
X9407325Y-15964650D01*
X9407325Y-15964650D02*
X9445420Y-15964650D01*
X9445420Y-15964650D02*
X9464468Y-15974174D01*
X9464468Y-15974174D02*
X9473992Y-15993222D01*
X9473992Y-15993222D02*
X9473992Y-16012269D01*
X9473992Y-16012269D02*
X9378753Y-16031317D01*
X9550182Y-16088460D02*
X9569230Y-16097984D01*
X9569230Y-16097984D02*
X9607325Y-16097984D01*
X9607325Y-16097984D02*
X9626373Y-16088460D01*
X9626373Y-16088460D02*
X9635896Y-16069412D01*
X9635896Y-16069412D02*
X9635896Y-16059888D01*
X9635896Y-16059888D02*
X9626373Y-16040841D01*
X9626373Y-16040841D02*
X9607325Y-16031317D01*
X9607325Y-16031317D02*
X9578753Y-16031317D01*
X9578753Y-16031317D02*
X9559706Y-16021793D01*
X9559706Y-16021793D02*
X9550182Y-16002746D01*
X9550182Y-16002746D02*
X9550182Y-15993222D01*
X9550182Y-15993222D02*
X9559706Y-15974174D01*
X9559706Y-15974174D02*
X9578753Y-15964650D01*
X9578753Y-15964650D02*
X9607325Y-15964650D01*
X9607325Y-15964650D02*
X9626373Y-15974174D01*
X9702563Y-16174174D02*
X9712087Y-16164650D01*
X9712087Y-16164650D02*
X9731134Y-16136079D01*
X9731134Y-16136079D02*
X9740658Y-16117031D01*
X9740658Y-16117031D02*
X9750182Y-16088460D01*
X9750182Y-16088460D02*
X9759706Y-16040841D01*
X9759706Y-16040841D02*
X9759706Y-16002746D01*
X9759706Y-16002746D02*
X9750182Y-15955127D01*
X9750182Y-15955127D02*
X9740658Y-15926555D01*
X9740658Y-15926555D02*
X9731134Y-15907508D01*
X9731134Y-15907508D02*
X9712087Y-15878936D01*
X9712087Y-15878936D02*
X9702563Y-15869412D01*
M02*
