M48
; DRILL file {KiCad 8.0.5} date 2025-06-09T19:53:34-0400
; FORMAT={-:-/ absolute / metric / decimal}
; #@! TF.CreationDate,2025-06-09T19:53:34-04:00
; #@! TF.GenerationSoftware,Kicad,Pcbnew,8.0.5
; #@! TF.FileFunction,Plated,1,4,PTH
FMAT,2
METRIC
; #@! TA.AperFunction,Plated,PTH,ViaDrill
T1C0.300
; #@! TA.AperFunction,Plated,PTH,ComponentDrill
T2C0.500
; #@! TA.AperFunction,Plated,PTH,ComponentDrill
T3C0.508
; #@! TA.AperFunction,Plated,PTH,ComponentDrill
T4C0.550
; #@! TA.AperFunction,Plated,PTH,ComponentDrill
T5C0.800
; #@! TA.AperFunction,Plated,PTH,ComponentDrill
T6C1.000
; #@! TA.AperFunction,Plated,PTH,ComponentDrill
T7C1.020
%
G90
G05
T1
X50.5Y-98.2
X50.6Y-92.8
X50.6Y-93.8
X50.6Y-96.2
X50.6Y-100.7
X50.7Y-82.1
X50.7Y-90.8
X50.7Y-113.1
X50.7Y-114.9
X50.8Y-102.7
X50.8Y-107.0
X50.8Y-109.0
X50.8Y-111.0
X50.9Y-73.6
X50.9Y-84.1
X50.9Y-86.7
X50.9Y-88.7
X50.9Y-117.4
X50.9Y-119.3
X51.0Y-105.1
X51.1Y-79.2
X51.2Y-76.3
X51.7Y-132.4
X52.3Y-116.8
X52.6Y-134.2
X53.6Y-108.5
X53.6Y-114.5
X53.8Y-119.8
X54.0Y-135.8
X54.2Y-105.7
X54.4Y-111.2
X55.0Y-77.9
X55.0Y-127.4
X55.9Y-92.9
X56.2Y-102.6
X56.6Y-113.4
X56.7Y-100.5
X56.7Y-130.3
X56.8Y-135.8
X57.5Y-111.2
X57.7Y-92.4
X57.9Y-125.3
X58.6Y-86.1
X59.0Y-76.1
X59.0Y-80.5
X59.0Y-85.0
X59.1Y-71.9
X59.2Y-103.6
X59.3Y-100.4
X59.3Y-114.4
X59.3Y-135.9
X59.4Y-86.1
X59.8Y-115.2
X60.9Y-86.5
X61.0Y-117.0
X61.1Y-71.8
X61.1Y-104.3
X61.4Y-95.1
X61.4Y-96.0
X61.4Y-117.9
X61.5Y-115.8
X61.5Y-121.4
X61.7Y-87.2
X62.0Y-135.7
X62.2Y-98.9
X62.3Y-88.1
X62.8Y-111.6
X63.1Y-98.9
X63.2Y-71.9
X63.3Y-76.2
X63.3Y-80.3
X63.3Y-85.4
X63.3Y-88.7
X63.6Y-104.1
X63.9Y-102.2
X64.4Y-89.1
X64.7Y-91.0
X65.1Y-98.9
X65.1Y-135.7
X65.2Y-129.8
X65.6Y-71.9
X65.6Y-89.3
X65.6Y-111.5
X66.7Y-98.9
X67.0Y-93.9
X67.6Y-71.2
X67.6Y-72.1
X67.6Y-73.0
X67.6Y-73.9
X67.6Y-74.9
X67.6Y-76.0
X67.6Y-85.3
X67.6Y-113.6
X67.7Y-88.7
X67.7Y-98.9
X67.7Y-135.7
X67.8Y-80.4
X68.0Y-93.9
X68.1Y-125.4
X68.4Y-113.6
X68.4Y-119.2
X68.5Y-95.8
X68.5Y-96.6
X68.5Y-118.0
X69.0Y-93.9
X69.2Y-113.6
X69.4Y-103.6
X70.4Y-129.7
X70.6Y-135.8
X71.2Y-98.8
X72.1Y-123.3
X73.5Y-135.7
X73.6Y-95.6
X73.9Y-103.9
X74.1Y-76.5
X74.1Y-77.3
X74.1Y-78.1
X74.8Y-119.5
X75.0Y-80.2
X75.0Y-85.4
X75.1Y-88.4
X75.5Y-110.7
X75.6Y-123.6
X75.8Y-76.1
X76.0Y-129.9
X76.2Y-71.1
X76.2Y-72.0
X76.2Y-73.0
X76.2Y-73.9
X76.2Y-74.8
X76.2Y-99.3
X76.7Y-135.7
X78.6Y-71.6
X78.7Y-88.5
X78.7Y-106.2
X78.9Y-121.1
X79.7Y-88.2
X79.7Y-102.4
X79.8Y-85.1
X79.9Y-80.1
X79.9Y-95.2
X80.1Y-135.6
X80.5Y-111.9
X80.6Y-115.2
X80.8Y-71.7
X80.8Y-76.1
X80.8Y-87.4
X81.0Y-94.6
X81.2Y-88.4
X81.3Y-108.2
X81.3Y-108.9
X81.8Y-98.2
X82.1Y-86.9
X82.1Y-88.4
X82.125Y-104.325
X82.2Y-94.6
X82.4Y-82.1
X82.8Y-85.8
X82.9Y-130.0
X83.0Y-71.7
X83.0Y-123.9
X83.1Y-93.0
X83.2Y-79.0
X83.2Y-135.6
X83.5Y-94.3
X83.7Y-101.3
X83.8Y-117.5
X83.9Y-93.0
X84.7Y-101.3
X85.2Y-71.7
X85.3Y-76.2
X85.4Y-93.9
X85.6Y-135.4
X85.7Y-92.7
X86.0Y-114.7
X86.5Y-78.5
X87.3Y-97.1
X87.5Y-71.6
X87.6Y-123.2
X88.7Y-129.6
X88.8Y-135.4
X89.0Y-108.5
X89.4Y-78.5
X89.4Y-100.4
X89.7Y-84.6
X89.7Y-86.5
X89.9Y-71.7
X89.9Y-76.1
X90.5Y-119.8
X90.7Y-84.6
X90.7Y-93.1
X91.2Y-135.5
X92.2Y-84.8
X92.4Y-77.5
X92.4Y-108.5
X92.6Y-71.7
X92.6Y-88.0
X92.7Y-91.4
X92.8Y-107.5
X93.2Y-111.4
X93.5Y-80.3
X93.5Y-96.6
X93.7Y-88.0
X93.8Y-91.4
X93.8Y-107.5
X93.9Y-84.6
X94.5Y-80.3
X94.6Y-75.9
X94.8Y-71.7
X94.8Y-123.5
X94.8Y-135.3
X94.9Y-118.6
X95.0Y-84.6
X95.0Y-86.9
X95.0Y-129.9
X95.3Y-114.9
X95.6Y-80.3
X95.7Y-88.1
X95.7Y-88.9
X95.8Y-90.6
X95.8Y-91.4
X95.8Y-100.9
X96.0Y-93.2
X96.9Y-77.7
X97.4Y-71.7
X97.5Y-83.1
X97.7Y-108.3
X98.3Y-135.6
X98.5Y-80.0
X98.7Y-86.0
X99.1Y-76.0
X99.2Y-71.0
X99.2Y-71.9
X99.2Y-72.8
X99.2Y-73.7
X99.3Y-96.9
X100.1Y-112.1
X100.2Y-89.7
X100.3Y-117.1
X100.4Y-83.3
X100.5Y-79.7
X100.8Y-107.5
X101.2Y-129.7
X101.3Y-123.6
X101.3Y-135.2
X101.8Y-107.5
X101.9Y-93.9
X102.3Y-100.9
X103.1Y-95.5
X103.1Y-108.3
X103.2Y-93.8
X103.5Y-96.9
X103.8Y-98.1
X103.8Y-99.3
X103.9Y-101.0
X104.4Y-134.8
X104.4Y-135.8
X104.4Y-136.7
X104.5Y-133.8
X105.1Y-131.9
X105.2Y-133.1
X105.4Y-121.6
X105.4Y-126.9
X105.4Y-134.2
X105.4Y-135.1
X105.4Y-136.0
X105.4Y-136.9
X105.7Y-76.3
X105.7Y-77.1
X105.7Y-77.9
X106.3Y-81.4
X106.3Y-82.6
X106.4Y-116.2
X106.5Y-120.4
X106.6Y-111.8
X106.6Y-118.9
X107.0Y-107.5
X107.0Y-117.6
X107.4Y-116.0
X107.5Y-114.4
X107.8Y-71.0
X107.8Y-71.8
X107.8Y-72.8
X107.8Y-73.7
X107.9Y-78.9
X107.9Y-127.4
X107.9Y-128.6
X108.4Y-116.9
X108.4Y-118.0
X109.1Y-71.7
X109.2Y-76.4
X109.2Y-85.2
X109.2Y-92.0
X110.2Y-92.0
X110.6Y-91.0
X111.3Y-92.0
X111.5Y-127.4
X111.5Y-128.5
X111.6Y-91.0
X112.0Y-80.3
X112.1Y-71.7
X112.4Y-119.0
X112.4Y-119.9
X112.6Y-92.1
X112.7Y-91.0
X112.8Y-80.3
X113.2Y-86.2
X113.7Y-80.3
X113.8Y-126.7
X113.9Y-93.4
X113.9Y-94.6
X113.9Y-131.9
X114.0Y-92.2
X114.0Y-96.2
X114.0Y-119.3
X114.0Y-120.7
X114.0Y-122.1
X114.0Y-133.0
X114.0Y-134.1
X114.0Y-135.0
X114.0Y-136.0
X114.0Y-136.9
X114.1Y-97.6
X114.2Y-99.0
X114.3Y-100.4
X114.3Y-101.9
X114.3Y-102.9
X114.4Y-104.2
X114.5Y-80.3
X114.6Y-118.2
X114.7Y-91.0
X114.8Y-71.8
X114.8Y-76.8
X114.8Y-133.6
X114.8Y-134.6
X114.9Y-135.5
X114.9Y-136.7
X115.5Y-110.3
X115.6Y-117.4
X115.7Y-91.0
X116.3Y-79.5
X116.3Y-85.8
X116.4Y-135.3
X116.7Y-91.0
X116.8Y-118.1
X116.8Y-119.1
X116.9Y-122.3
X116.9Y-123.2
X117.1Y-79.5
X117.6Y-72.6
X117.6Y-73.5
X118.0Y-78.6
X118.2Y-85.7
X118.2Y-86.5
X118.4Y-96.5
X118.6Y-135.1
X118.8Y-130.3
X119.2Y-126.9
X119.4Y-91.9
X119.6Y-104.4
X120.4Y-101.3
X121.2Y-135.4
X121.4Y-122.1
X121.4Y-123.9
X121.5Y-123.0
X121.8Y-110.3
X123.1Y-85.5
X123.1Y-86.6
X123.3Y-89.8
X123.9Y-76.1
X123.9Y-76.9
X123.9Y-79.5
X123.9Y-80.4
X124.1Y-71.9
X124.2Y-115.5
X124.4Y-126.1
X124.4Y-130.6
X124.4Y-135.2
X125.1Y-120.2
X125.3Y-93.7
X125.4Y-81.0
X125.6Y-100.6
X125.7Y-82.1
X126.1Y-84.9
X126.1Y-86.3
X126.1Y-88.8
X126.1Y-90.3
X126.2Y-93.1
X126.2Y-94.4
X126.4Y-81.5
X126.6Y-71.9
X126.7Y-96.1
X126.9Y-82.8
X127.0Y-104.7
X127.1Y-93.8
X127.3Y-92.3
X127.4Y-135.2
X127.5Y-81.9
X127.6Y-110.5
X127.697Y-85.737
X127.697Y-87.66
X127.707Y-89.593
X128.1Y-93.1
X128.2Y-82.9
X128.7Y-92.2
X128.7Y-102.3
X129.1Y-109.9
X129.2Y-76.9
X129.2Y-82.1
X129.4Y-72.0
X129.4Y-84.9
X129.4Y-86.4
X129.4Y-88.8
X129.4Y-90.4
X129.4Y-93.0
X129.7Y-83.1
X129.9Y-116.1
X130.1Y-92.2
X130.1Y-94.2
X130.2Y-109.9
X130.3Y-122.6
X130.6Y-82.3
X130.7Y-93.2
X130.8Y-129.0
X131.0Y-135.3
X131.4Y-83.3
X131.9Y-100.9
X132.0Y-88.7
X132.0Y-89.8
X132.0Y-90.9
X132.3Y-84.5
X132.3Y-85.5
X132.4Y-72.0
X132.4Y-82.5
X132.8Y-100.9
X133.4Y-104.4
X133.6Y-83.4
X133.7Y-100.9
X133.8Y-110.5
X134.5Y-135.3
X134.7Y-100.9
X135.1Y-71.0
X135.2Y-72.0
X135.2Y-73.5
X135.3Y-74.5
X135.3Y-82.6
X135.4Y-77.4
X136.1Y-84.9
X136.2Y-88.2
X136.3Y-71.3
X136.3Y-72.2
X136.3Y-73.1
X136.3Y-74.0
X136.3Y-75.2
X136.5Y-93.5
X136.5Y-94.5
X136.6Y-89.5
X136.6Y-90.5
X136.9Y-116.1
X137.1Y-84.9
X137.1Y-88.2
X137.5Y-122.5
X137.5Y-128.8
X137.7Y-135.5
X138.4Y-104.8
X138.5Y-101.3
X139.0Y-89.8
X140.3Y-110.3
X140.3Y-135.4
X141.5Y-96.0
X142.1Y-90.9
X142.3Y-82.2
X142.4Y-103.5
X142.6Y-89.8
X142.7Y-91.7
X142.8Y-76.6
X142.8Y-77.4
X142.8Y-78.2
X143.0Y-81.4
X143.2Y-135.4
X143.3Y-90.9
X143.4Y-82.3
X143.9Y-91.7
X144.0Y-81.4
X144.4Y-82.3
X144.5Y-90.9
X144.5Y-103.275
X144.5Y-111.9
X144.8Y-75.0
X144.8Y-133.6
X144.9Y-71.2
X144.9Y-72.1
X144.9Y-73.1
X144.9Y-74.0
X144.9Y-81.4
X145.0Y-91.8
X145.1Y-116.1
X145.2Y-113.5
X145.2Y-121.6
X145.3Y-82.3
X145.3Y-119.0
X145.3Y-124.7
X145.3Y-128.1
X145.4Y-90.9
X145.4Y-103.275
X145.4Y-111.9
X145.5Y-130.9
X146.0Y-72.5
X146.0Y-91.8
X146.0Y-93.9
X146.0Y-96.5
X146.0Y-101.5
X146.1Y-73.6
X146.1Y-74.6
X146.1Y-76.7
X146.1Y-78.8
X146.1Y-81.1
X146.1Y-99.3
X146.3Y-82.3
X146.3Y-90.9
X146.3Y-111.9
X146.4Y-103.275
X147.2Y-82.3
X147.2Y-90.9
X147.2Y-111.9
X147.3Y-103.275
T3
X106.0Y-97.809
X106.0Y-102.0
X107.27Y-97.809
X108.54Y-93.618
X108.54Y-97.809
X109.81Y-97.809
X111.08Y-93.618
X111.08Y-97.809
T5
X54.161Y-116.9
X56.661Y-116.9
T6
X54.76Y-73.8
X57.3Y-73.8
T7
X69.052Y-107.8
X71.592Y-107.8
X74.132Y-107.8
X76.672Y-107.8
T2
X51.125Y-122.572G85X50.475Y-122.572
G05
X51.125Y-129.572G85X50.475Y-129.572
G05
T4
X53.5Y-123.397G85X53.5Y-123.747
G05
X53.5Y-128.397G85X53.5Y-128.747
G05
M30
