%TF.GenerationSoftware,KiCad,Pcbnew,8.0.5*%
%TF.CreationDate,2025-06-09T19:50:20-04:00*%
%TF.ProjectId,fmcw_pcb,666d6377-5f70-4636-922e-6b696361645f,rev?*%
%TF.SameCoordinates,Original*%
%TF.FileFunction,Legend,Top*%
%TF.FilePolarity,Positive*%
%FSLAX46Y46*%
G04 Gerber Fmt 4.6, Leading zero omitted, Abs format (unit mm)*
G04 Created by KiCad (PCBNEW 8.0.5) date 2025-06-09 19:50:20*
%MOMM*%
%LPD*%
G01*
G04 APERTURE LIST*
G04 Aperture macros list*
%AMRoundRect*
0 Rectangle with rounded corners*
0 $1 Rounding radius*
0 $2 $3 $4 $5 $6 $7 $8 $9 X,Y pos of 4 corners*
0 Add a 4 corners polygon primitive as box body*
4,1,4,$2,$3,$4,$5,$6,$7,$8,$9,$2,$3,0*
0 Add four circle primitives for the rounded corners*
1,1,$1+$1,$2,$3*
1,1,$1+$1,$4,$5*
1,1,$1+$1,$6,$7*
1,1,$1+$1,$8,$9*
0 Add four rect primitives between the rounded corners*
20,1,$1+$1,$2,$3,$4,$5,0*
20,1,$1+$1,$4,$5,$6,$7,0*
20,1,$1+$1,$6,$7,$8,$9,0*
20,1,$1+$1,$8,$9,$2,$3,0*%
G04 Aperture macros list end*
%ADD10C,0.150000*%
%ADD11C,0.254000*%
%ADD12C,0.200000*%
%ADD13C,0.120000*%
%ADD14C,0.100000*%
%ADD15C,0.152400*%
%ADD16C,0.127000*%
%ADD17C,0.010000*%
%ADD18RoundRect,0.250000X0.787500X0.925000X-0.787500X0.925000X-0.787500X-0.925000X0.787500X-0.925000X0*%
%ADD19R,1.651000X2.540000*%
%ADD20RoundRect,0.225000X0.250000X-0.225000X0.250000X0.225000X-0.250000X0.225000X-0.250000X-0.225000X0*%
%ADD21RoundRect,0.250000X0.475000X-0.250000X0.475000X0.250000X-0.475000X0.250000X-0.475000X-0.250000X0*%
%ADD22C,1.100000*%
%ADD23R,1.730000X2.030000*%
%ADD24O,1.730000X2.030000*%
%ADD25RoundRect,0.218750X0.218750X0.256250X-0.218750X0.256250X-0.218750X-0.256250X0.218750X-0.256250X0*%
%ADD26RoundRect,0.375000X0.375000X1.575000X-0.375000X1.575000X-0.375000X-1.575000X0.375000X-1.575000X0*%
%ADD27RoundRect,0.250000X-0.262500X-0.450000X0.262500X-0.450000X0.262500X0.450000X-0.262500X0.450000X0*%
%ADD28R,2.500000X2.500000*%
%ADD29RoundRect,0.250000X0.250000X0.475000X-0.250000X0.475000X-0.250000X-0.475000X0.250000X-0.475000X0*%
%ADD30RoundRect,0.250000X0.450000X-0.262500X0.450000X0.262500X-0.450000X0.262500X-0.450000X-0.262500X0*%
%ADD31R,0.475000X0.375000*%
%ADD32RoundRect,0.225000X-0.225000X-0.250000X0.225000X-0.250000X0.225000X0.250000X-0.225000X0.250000X0*%
%ADD33R,0.558800X0.355600*%
%ADD34R,1.244600X0.558800*%
%ADD35RoundRect,0.250000X-0.450000X0.262500X-0.450000X-0.262500X0.450000X-0.262500X0.450000X0.262500X0*%
%ADD36R,0.375000X0.475000*%
%ADD37RoundRect,0.375000X-0.375000X-1.575000X0.375000X-1.575000X0.375000X1.575000X-0.375000X1.575000X0*%
%ADD38RoundRect,0.218750X-0.256250X0.218750X-0.256250X-0.218750X0.256250X-0.218750X0.256250X0.218750X0*%
%ADD39RoundRect,0.375000X-1.575000X0.375000X-1.575000X-0.375000X1.575000X-0.375000X1.575000X0.375000X0*%
%ADD40RoundRect,0.341463X-0.358537X-0.358537X0.358537X-0.358537X0.358537X0.358537X-0.358537X0.358537X0*%
%ADD41RoundRect,0.152500X-0.382500X-0.152500X0.382500X-0.152500X0.382500X0.152500X-0.382500X0.152500X0*%
%ADD42RoundRect,0.250000X-0.475000X0.250000X-0.475000X-0.250000X0.475000X-0.250000X0.475000X0.250000X0*%
%ADD43RoundRect,0.341463X0.358537X-0.358537X0.358537X0.358537X-0.358537X0.358537X-0.358537X-0.358537X0*%
%ADD44R,1.600000X1.600000*%
%ADD45C,1.600000*%
%ADD46RoundRect,0.250000X0.262500X0.450000X-0.262500X0.450000X-0.262500X-0.450000X0.262500X-0.450000X0*%
%ADD47R,0.355600X0.558800*%
%ADD48R,0.558800X1.244600*%
%ADD49RoundRect,0.099250X-0.607750X-0.297750X0.607750X-0.297750X0.607750X0.297750X-0.607750X0.297750X0*%
%ADD50RoundRect,0.250000X-0.250000X-0.475000X0.250000X-0.475000X0.250000X0.475000X-0.250000X0.475000X0*%
%ADD51R,0.553999X0.254800*%
%ADD52R,1.245400X0.553999*%
%ADD53R,0.500000X0.580000*%
%ADD54R,0.800000X0.580000*%
%ADD55RoundRect,0.218750X-0.218750X-0.256250X0.218750X-0.256250X0.218750X0.256250X-0.218750X0.256250X0*%
%ADD56R,0.675000X0.400000*%
%ADD57R,5.450000X2.955000*%
%ADD58R,2.900000X0.890000*%
%ADD59RoundRect,0.102000X-0.675000X0.200000X-0.675000X-0.200000X0.675000X-0.200000X0.675000X0.200000X0*%
%ADD60RoundRect,0.102000X-0.775000X0.750000X-0.775000X-0.750000X0.775000X-0.750000X0.775000X0.750000X0*%
%ADD61O,1.154000X1.504000*%
%ADD62RoundRect,0.058750X-0.651250X-0.176250X0.651250X-0.176250X0.651250X0.176250X-0.651250X0.176250X0*%
%ADD63R,1.700000X1.700000*%
%ADD64O,1.700000X1.700000*%
G04 APERTURE END LIST*
D10*
X135657142Y-96459580D02*
X135609523Y-96507200D01*
X135609523Y-96507200D02*
X135466666Y-96554819D01*
X135466666Y-96554819D02*
X135371428Y-96554819D01*
X135371428Y-96554819D02*
X135228571Y-96507200D01*
X135228571Y-96507200D02*
X135133333Y-96411961D01*
X135133333Y-96411961D02*
X135085714Y-96316723D01*
X135085714Y-96316723D02*
X135038095Y-96126247D01*
X135038095Y-96126247D02*
X135038095Y-95983390D01*
X135038095Y-95983390D02*
X135085714Y-95792914D01*
X135085714Y-95792914D02*
X135133333Y-95697676D01*
X135133333Y-95697676D02*
X135228571Y-95602438D01*
X135228571Y-95602438D02*
X135371428Y-95554819D01*
X135371428Y-95554819D02*
X135466666Y-95554819D01*
X135466666Y-95554819D02*
X135609523Y-95602438D01*
X135609523Y-95602438D02*
X135657142Y-95650057D01*
X136038095Y-95650057D02*
X136085714Y-95602438D01*
X136085714Y-95602438D02*
X136180952Y-95554819D01*
X136180952Y-95554819D02*
X136419047Y-95554819D01*
X136419047Y-95554819D02*
X136514285Y-95602438D01*
X136514285Y-95602438D02*
X136561904Y-95650057D01*
X136561904Y-95650057D02*
X136609523Y-95745295D01*
X136609523Y-95745295D02*
X136609523Y-95840533D01*
X136609523Y-95840533D02*
X136561904Y-95983390D01*
X136561904Y-95983390D02*
X135990476Y-96554819D01*
X135990476Y-96554819D02*
X136609523Y-96554819D01*
X137466666Y-95554819D02*
X137276190Y-95554819D01*
X137276190Y-95554819D02*
X137180952Y-95602438D01*
X137180952Y-95602438D02*
X137133333Y-95650057D01*
X137133333Y-95650057D02*
X137038095Y-95792914D01*
X137038095Y-95792914D02*
X136990476Y-95983390D01*
X136990476Y-95983390D02*
X136990476Y-96364342D01*
X136990476Y-96364342D02*
X137038095Y-96459580D01*
X137038095Y-96459580D02*
X137085714Y-96507200D01*
X137085714Y-96507200D02*
X137180952Y-96554819D01*
X137180952Y-96554819D02*
X137371428Y-96554819D01*
X137371428Y-96554819D02*
X137466666Y-96507200D01*
X137466666Y-96507200D02*
X137514285Y-96459580D01*
X137514285Y-96459580D02*
X137561904Y-96364342D01*
X137561904Y-96364342D02*
X137561904Y-96126247D01*
X137561904Y-96126247D02*
X137514285Y-96031009D01*
X137514285Y-96031009D02*
X137466666Y-95983390D01*
X137466666Y-95983390D02*
X137371428Y-95935771D01*
X137371428Y-95935771D02*
X137180952Y-95935771D01*
X137180952Y-95935771D02*
X137085714Y-95983390D01*
X137085714Y-95983390D02*
X137038095Y-96031009D01*
X137038095Y-96031009D02*
X136990476Y-96126247D01*
X103994819Y-99332808D02*
X102994819Y-99332808D01*
X102994819Y-99332808D02*
X103709104Y-98999475D01*
X103709104Y-98999475D02*
X102994819Y-98666142D01*
X102994819Y-98666142D02*
X103994819Y-98666142D01*
X103994819Y-98189951D02*
X102994819Y-98189951D01*
X102994819Y-97808999D02*
X103994819Y-97142333D01*
X102994819Y-97142333D02*
X103994819Y-97808999D01*
X103994819Y-96237571D02*
X103994819Y-96808999D01*
X103994819Y-96523285D02*
X102994819Y-96523285D01*
X102994819Y-96523285D02*
X103137676Y-96618523D01*
X103137676Y-96618523D02*
X103232914Y-96713761D01*
X103232914Y-96713761D02*
X103280533Y-96808999D01*
X61729580Y-97016666D02*
X61777200Y-97064285D01*
X61777200Y-97064285D02*
X61824819Y-97207142D01*
X61824819Y-97207142D02*
X61824819Y-97302380D01*
X61824819Y-97302380D02*
X61777200Y-97445237D01*
X61777200Y-97445237D02*
X61681961Y-97540475D01*
X61681961Y-97540475D02*
X61586723Y-97588094D01*
X61586723Y-97588094D02*
X61396247Y-97635713D01*
X61396247Y-97635713D02*
X61253390Y-97635713D01*
X61253390Y-97635713D02*
X61062914Y-97588094D01*
X61062914Y-97588094D02*
X60967676Y-97540475D01*
X60967676Y-97540475D02*
X60872438Y-97445237D01*
X60872438Y-97445237D02*
X60824819Y-97302380D01*
X60824819Y-97302380D02*
X60824819Y-97207142D01*
X60824819Y-97207142D02*
X60872438Y-97064285D01*
X60872438Y-97064285D02*
X60920057Y-97016666D01*
X60824819Y-96683332D02*
X60824819Y-96016666D01*
X60824819Y-96016666D02*
X61824819Y-96445237D01*
X57651380Y-88316666D02*
X57699000Y-88364285D01*
X57699000Y-88364285D02*
X57746619Y-88507142D01*
X57746619Y-88507142D02*
X57746619Y-88602380D01*
X57746619Y-88602380D02*
X57699000Y-88745237D01*
X57699000Y-88745237D02*
X57603761Y-88840475D01*
X57603761Y-88840475D02*
X57508523Y-88888094D01*
X57508523Y-88888094D02*
X57318047Y-88935713D01*
X57318047Y-88935713D02*
X57175190Y-88935713D01*
X57175190Y-88935713D02*
X56984714Y-88888094D01*
X56984714Y-88888094D02*
X56889476Y-88840475D01*
X56889476Y-88840475D02*
X56794238Y-88745237D01*
X56794238Y-88745237D02*
X56746619Y-88602380D01*
X56746619Y-88602380D02*
X56746619Y-88507142D01*
X56746619Y-88507142D02*
X56794238Y-88364285D01*
X56794238Y-88364285D02*
X56841857Y-88316666D01*
X57175190Y-87745237D02*
X57127571Y-87840475D01*
X57127571Y-87840475D02*
X57079952Y-87888094D01*
X57079952Y-87888094D02*
X56984714Y-87935713D01*
X56984714Y-87935713D02*
X56937095Y-87935713D01*
X56937095Y-87935713D02*
X56841857Y-87888094D01*
X56841857Y-87888094D02*
X56794238Y-87840475D01*
X56794238Y-87840475D02*
X56746619Y-87745237D01*
X56746619Y-87745237D02*
X56746619Y-87554761D01*
X56746619Y-87554761D02*
X56794238Y-87459523D01*
X56794238Y-87459523D02*
X56841857Y-87411904D01*
X56841857Y-87411904D02*
X56937095Y-87364285D01*
X56937095Y-87364285D02*
X56984714Y-87364285D01*
X56984714Y-87364285D02*
X57079952Y-87411904D01*
X57079952Y-87411904D02*
X57127571Y-87459523D01*
X57127571Y-87459523D02*
X57175190Y-87554761D01*
X57175190Y-87554761D02*
X57175190Y-87745237D01*
X57175190Y-87745237D02*
X57222809Y-87840475D01*
X57222809Y-87840475D02*
X57270428Y-87888094D01*
X57270428Y-87888094D02*
X57365666Y-87935713D01*
X57365666Y-87935713D02*
X57556142Y-87935713D01*
X57556142Y-87935713D02*
X57651380Y-87888094D01*
X57651380Y-87888094D02*
X57699000Y-87840475D01*
X57699000Y-87840475D02*
X57746619Y-87745237D01*
X57746619Y-87745237D02*
X57746619Y-87554761D01*
X57746619Y-87554761D02*
X57699000Y-87459523D01*
X57699000Y-87459523D02*
X57651380Y-87411904D01*
X57651380Y-87411904D02*
X57556142Y-87364285D01*
X57556142Y-87364285D02*
X57365666Y-87364285D01*
X57365666Y-87364285D02*
X57270428Y-87411904D01*
X57270428Y-87411904D02*
X57222809Y-87459523D01*
X57222809Y-87459523D02*
X57175190Y-87554761D01*
X72338466Y-110804819D02*
X72338466Y-111519104D01*
X72338466Y-111519104D02*
X72290847Y-111661961D01*
X72290847Y-111661961D02*
X72195609Y-111757200D01*
X72195609Y-111757200D02*
X72052752Y-111804819D01*
X72052752Y-111804819D02*
X71957514Y-111804819D01*
X72719419Y-110804819D02*
X73338466Y-110804819D01*
X73338466Y-110804819D02*
X73005133Y-111185771D01*
X73005133Y-111185771D02*
X73147990Y-111185771D01*
X73147990Y-111185771D02*
X73243228Y-111233390D01*
X73243228Y-111233390D02*
X73290847Y-111281009D01*
X73290847Y-111281009D02*
X73338466Y-111376247D01*
X73338466Y-111376247D02*
X73338466Y-111614342D01*
X73338466Y-111614342D02*
X73290847Y-111709580D01*
X73290847Y-111709580D02*
X73243228Y-111757200D01*
X73243228Y-111757200D02*
X73147990Y-111804819D01*
X73147990Y-111804819D02*
X72862276Y-111804819D01*
X72862276Y-111804819D02*
X72767038Y-111757200D01*
X72767038Y-111757200D02*
X72719419Y-111709580D01*
X112933333Y-113854819D02*
X112457143Y-113854819D01*
X112457143Y-113854819D02*
X112457143Y-112854819D01*
X113219048Y-112950057D02*
X113266667Y-112902438D01*
X113266667Y-112902438D02*
X113361905Y-112854819D01*
X113361905Y-112854819D02*
X113600000Y-112854819D01*
X113600000Y-112854819D02*
X113695238Y-112902438D01*
X113695238Y-112902438D02*
X113742857Y-112950057D01*
X113742857Y-112950057D02*
X113790476Y-113045295D01*
X113790476Y-113045295D02*
X113790476Y-113140533D01*
X113790476Y-113140533D02*
X113742857Y-113283390D01*
X113742857Y-113283390D02*
X113171429Y-113854819D01*
X113171429Y-113854819D02*
X113790476Y-113854819D01*
X115566666Y-134754819D02*
X115566666Y-135469104D01*
X115566666Y-135469104D02*
X115519047Y-135611961D01*
X115519047Y-135611961D02*
X115423809Y-135707200D01*
X115423809Y-135707200D02*
X115280952Y-135754819D01*
X115280952Y-135754819D02*
X115185714Y-135754819D01*
X116471428Y-135088152D02*
X116471428Y-135754819D01*
X116233333Y-134707200D02*
X115995238Y-135421485D01*
X115995238Y-135421485D02*
X116614285Y-135421485D01*
X119633333Y-71604819D02*
X119300000Y-71128628D01*
X119061905Y-71604819D02*
X119061905Y-70604819D01*
X119061905Y-70604819D02*
X119442857Y-70604819D01*
X119442857Y-70604819D02*
X119538095Y-70652438D01*
X119538095Y-70652438D02*
X119585714Y-70700057D01*
X119585714Y-70700057D02*
X119633333Y-70795295D01*
X119633333Y-70795295D02*
X119633333Y-70938152D01*
X119633333Y-70938152D02*
X119585714Y-71033390D01*
X119585714Y-71033390D02*
X119538095Y-71081009D01*
X119538095Y-71081009D02*
X119442857Y-71128628D01*
X119442857Y-71128628D02*
X119061905Y-71128628D01*
X120109524Y-71604819D02*
X120300000Y-71604819D01*
X120300000Y-71604819D02*
X120395238Y-71557200D01*
X120395238Y-71557200D02*
X120442857Y-71509580D01*
X120442857Y-71509580D02*
X120538095Y-71366723D01*
X120538095Y-71366723D02*
X120585714Y-71176247D01*
X120585714Y-71176247D02*
X120585714Y-70795295D01*
X120585714Y-70795295D02*
X120538095Y-70700057D01*
X120538095Y-70700057D02*
X120490476Y-70652438D01*
X120490476Y-70652438D02*
X120395238Y-70604819D01*
X120395238Y-70604819D02*
X120204762Y-70604819D01*
X120204762Y-70604819D02*
X120109524Y-70652438D01*
X120109524Y-70652438D02*
X120061905Y-70700057D01*
X120061905Y-70700057D02*
X120014286Y-70795295D01*
X120014286Y-70795295D02*
X120014286Y-71033390D01*
X120014286Y-71033390D02*
X120061905Y-71128628D01*
X120061905Y-71128628D02*
X120109524Y-71176247D01*
X120109524Y-71176247D02*
X120204762Y-71223866D01*
X120204762Y-71223866D02*
X120395238Y-71223866D01*
X120395238Y-71223866D02*
X120490476Y-71176247D01*
X120490476Y-71176247D02*
X120538095Y-71128628D01*
X120538095Y-71128628D02*
X120585714Y-71033390D01*
X67151380Y-116016666D02*
X67199000Y-116064285D01*
X67199000Y-116064285D02*
X67246619Y-116207142D01*
X67246619Y-116207142D02*
X67246619Y-116302380D01*
X67246619Y-116302380D02*
X67199000Y-116445237D01*
X67199000Y-116445237D02*
X67103761Y-116540475D01*
X67103761Y-116540475D02*
X67008523Y-116588094D01*
X67008523Y-116588094D02*
X66818047Y-116635713D01*
X66818047Y-116635713D02*
X66675190Y-116635713D01*
X66675190Y-116635713D02*
X66484714Y-116588094D01*
X66484714Y-116588094D02*
X66389476Y-116540475D01*
X66389476Y-116540475D02*
X66294238Y-116445237D01*
X66294238Y-116445237D02*
X66246619Y-116302380D01*
X66246619Y-116302380D02*
X66246619Y-116207142D01*
X66246619Y-116207142D02*
X66294238Y-116064285D01*
X66294238Y-116064285D02*
X66341857Y-116016666D01*
X67246619Y-115064285D02*
X67246619Y-115635713D01*
X67246619Y-115349999D02*
X66246619Y-115349999D01*
X66246619Y-115349999D02*
X66389476Y-115445237D01*
X66389476Y-115445237D02*
X66484714Y-115540475D01*
X66484714Y-115540475D02*
X66532333Y-115635713D01*
X120195238Y-95254819D02*
X120195238Y-94254819D01*
X120195238Y-94254819D02*
X120576190Y-94254819D01*
X120576190Y-94254819D02*
X120671428Y-94302438D01*
X120671428Y-94302438D02*
X120719047Y-94350057D01*
X120719047Y-94350057D02*
X120766666Y-94445295D01*
X120766666Y-94445295D02*
X120766666Y-94588152D01*
X120766666Y-94588152D02*
X120719047Y-94683390D01*
X120719047Y-94683390D02*
X120671428Y-94731009D01*
X120671428Y-94731009D02*
X120576190Y-94778628D01*
X120576190Y-94778628D02*
X120195238Y-94778628D01*
X121147619Y-94969104D02*
X121623809Y-94969104D01*
X121052381Y-95254819D02*
X121385714Y-94254819D01*
X121385714Y-94254819D02*
X121719047Y-95254819D01*
X121814286Y-95350057D02*
X122576190Y-95350057D01*
X122814286Y-95254819D02*
X122814286Y-94254819D01*
X122814286Y-94254819D02*
X123052381Y-94254819D01*
X123052381Y-94254819D02*
X123195238Y-94302438D01*
X123195238Y-94302438D02*
X123290476Y-94397676D01*
X123290476Y-94397676D02*
X123338095Y-94492914D01*
X123338095Y-94492914D02*
X123385714Y-94683390D01*
X123385714Y-94683390D02*
X123385714Y-94826247D01*
X123385714Y-94826247D02*
X123338095Y-95016723D01*
X123338095Y-95016723D02*
X123290476Y-95111961D01*
X123290476Y-95111961D02*
X123195238Y-95207200D01*
X123195238Y-95207200D02*
X123052381Y-95254819D01*
X123052381Y-95254819D02*
X122814286Y-95254819D01*
X123814286Y-94731009D02*
X124147619Y-94731009D01*
X124290476Y-95254819D02*
X123814286Y-95254819D01*
X123814286Y-95254819D02*
X123814286Y-94254819D01*
X123814286Y-94254819D02*
X124290476Y-94254819D01*
X124576191Y-94254819D02*
X125147619Y-94254819D01*
X124861905Y-95254819D02*
X124861905Y-94254819D01*
X133757142Y-92459580D02*
X133709523Y-92507200D01*
X133709523Y-92507200D02*
X133566666Y-92554819D01*
X133566666Y-92554819D02*
X133471428Y-92554819D01*
X133471428Y-92554819D02*
X133328571Y-92507200D01*
X133328571Y-92507200D02*
X133233333Y-92411961D01*
X133233333Y-92411961D02*
X133185714Y-92316723D01*
X133185714Y-92316723D02*
X133138095Y-92126247D01*
X133138095Y-92126247D02*
X133138095Y-91983390D01*
X133138095Y-91983390D02*
X133185714Y-91792914D01*
X133185714Y-91792914D02*
X133233333Y-91697676D01*
X133233333Y-91697676D02*
X133328571Y-91602438D01*
X133328571Y-91602438D02*
X133471428Y-91554819D01*
X133471428Y-91554819D02*
X133566666Y-91554819D01*
X133566666Y-91554819D02*
X133709523Y-91602438D01*
X133709523Y-91602438D02*
X133757142Y-91650057D01*
X134138095Y-91650057D02*
X134185714Y-91602438D01*
X134185714Y-91602438D02*
X134280952Y-91554819D01*
X134280952Y-91554819D02*
X134519047Y-91554819D01*
X134519047Y-91554819D02*
X134614285Y-91602438D01*
X134614285Y-91602438D02*
X134661904Y-91650057D01*
X134661904Y-91650057D02*
X134709523Y-91745295D01*
X134709523Y-91745295D02*
X134709523Y-91840533D01*
X134709523Y-91840533D02*
X134661904Y-91983390D01*
X134661904Y-91983390D02*
X134090476Y-92554819D01*
X134090476Y-92554819D02*
X134709523Y-92554819D01*
X135566666Y-91888152D02*
X135566666Y-92554819D01*
X135328571Y-91507200D02*
X135090476Y-92221485D01*
X135090476Y-92221485D02*
X135709523Y-92221485D01*
X65406819Y-123590476D02*
X65406819Y-124066666D01*
X65406819Y-124066666D02*
X65883009Y-124114285D01*
X65883009Y-124114285D02*
X65835390Y-124066666D01*
X65835390Y-124066666D02*
X65787771Y-123971428D01*
X65787771Y-123971428D02*
X65787771Y-123733333D01*
X65787771Y-123733333D02*
X65835390Y-123638095D01*
X65835390Y-123638095D02*
X65883009Y-123590476D01*
X65883009Y-123590476D02*
X65978247Y-123542857D01*
X65978247Y-123542857D02*
X66216342Y-123542857D01*
X66216342Y-123542857D02*
X66311580Y-123590476D01*
X66311580Y-123590476D02*
X66359200Y-123638095D01*
X66359200Y-123638095D02*
X66406819Y-123733333D01*
X66406819Y-123733333D02*
X66406819Y-123971428D01*
X66406819Y-123971428D02*
X66359200Y-124066666D01*
X66359200Y-124066666D02*
X66311580Y-124114285D01*
X65406819Y-123257142D02*
X66406819Y-122923809D01*
X66406819Y-122923809D02*
X65406819Y-122590476D01*
X56804819Y-99654166D02*
X56328628Y-99987499D01*
X56804819Y-100225594D02*
X55804819Y-100225594D01*
X55804819Y-100225594D02*
X55804819Y-99844642D01*
X55804819Y-99844642D02*
X55852438Y-99749404D01*
X55852438Y-99749404D02*
X55900057Y-99701785D01*
X55900057Y-99701785D02*
X55995295Y-99654166D01*
X55995295Y-99654166D02*
X56138152Y-99654166D01*
X56138152Y-99654166D02*
X56233390Y-99701785D01*
X56233390Y-99701785D02*
X56281009Y-99749404D01*
X56281009Y-99749404D02*
X56328628Y-99844642D01*
X56328628Y-99844642D02*
X56328628Y-100225594D01*
X55804819Y-99320832D02*
X55804819Y-98701785D01*
X55804819Y-98701785D02*
X56185771Y-99035118D01*
X56185771Y-99035118D02*
X56185771Y-98892261D01*
X56185771Y-98892261D02*
X56233390Y-98797023D01*
X56233390Y-98797023D02*
X56281009Y-98749404D01*
X56281009Y-98749404D02*
X56376247Y-98701785D01*
X56376247Y-98701785D02*
X56614342Y-98701785D01*
X56614342Y-98701785D02*
X56709580Y-98749404D01*
X56709580Y-98749404D02*
X56757200Y-98797023D01*
X56757200Y-98797023D02*
X56804819Y-98892261D01*
X56804819Y-98892261D02*
X56804819Y-99177975D01*
X56804819Y-99177975D02*
X56757200Y-99273213D01*
X56757200Y-99273213D02*
X56709580Y-99320832D01*
D11*
X70011461Y-78703952D02*
X70011461Y-78099190D01*
X70374318Y-78824904D02*
X69104318Y-78401571D01*
X69104318Y-78401571D02*
X70374318Y-77978237D01*
X69104318Y-77736333D02*
X69104318Y-77010619D01*
X70374318Y-77373476D02*
X69104318Y-77373476D01*
X70374318Y-75922047D02*
X70374318Y-76647762D01*
X70374318Y-76284905D02*
X69104318Y-76284905D01*
X69104318Y-76284905D02*
X69285746Y-76405857D01*
X69285746Y-76405857D02*
X69406699Y-76526809D01*
X69406699Y-76526809D02*
X69467175Y-76647762D01*
D10*
X118457142Y-121259580D02*
X118409523Y-121307200D01*
X118409523Y-121307200D02*
X118266666Y-121354819D01*
X118266666Y-121354819D02*
X118171428Y-121354819D01*
X118171428Y-121354819D02*
X118028571Y-121307200D01*
X118028571Y-121307200D02*
X117933333Y-121211961D01*
X117933333Y-121211961D02*
X117885714Y-121116723D01*
X117885714Y-121116723D02*
X117838095Y-120926247D01*
X117838095Y-120926247D02*
X117838095Y-120783390D01*
X117838095Y-120783390D02*
X117885714Y-120592914D01*
X117885714Y-120592914D02*
X117933333Y-120497676D01*
X117933333Y-120497676D02*
X118028571Y-120402438D01*
X118028571Y-120402438D02*
X118171428Y-120354819D01*
X118171428Y-120354819D02*
X118266666Y-120354819D01*
X118266666Y-120354819D02*
X118409523Y-120402438D01*
X118409523Y-120402438D02*
X118457142Y-120450057D01*
X119409523Y-121354819D02*
X118838095Y-121354819D01*
X119123809Y-121354819D02*
X119123809Y-120354819D01*
X119123809Y-120354819D02*
X119028571Y-120497676D01*
X119028571Y-120497676D02*
X118933333Y-120592914D01*
X118933333Y-120592914D02*
X118838095Y-120640533D01*
X119742857Y-120354819D02*
X120361904Y-120354819D01*
X120361904Y-120354819D02*
X120028571Y-120735771D01*
X120028571Y-120735771D02*
X120171428Y-120735771D01*
X120171428Y-120735771D02*
X120266666Y-120783390D01*
X120266666Y-120783390D02*
X120314285Y-120831009D01*
X120314285Y-120831009D02*
X120361904Y-120926247D01*
X120361904Y-120926247D02*
X120361904Y-121164342D01*
X120361904Y-121164342D02*
X120314285Y-121259580D01*
X120314285Y-121259580D02*
X120266666Y-121307200D01*
X120266666Y-121307200D02*
X120171428Y-121354819D01*
X120171428Y-121354819D02*
X119885714Y-121354819D01*
X119885714Y-121354819D02*
X119790476Y-121307200D01*
X119790476Y-121307200D02*
X119742857Y-121259580D01*
X88255133Y-88639580D02*
X88207514Y-88687200D01*
X88207514Y-88687200D02*
X88064657Y-88734819D01*
X88064657Y-88734819D02*
X87969419Y-88734819D01*
X87969419Y-88734819D02*
X87826562Y-88687200D01*
X87826562Y-88687200D02*
X87731324Y-88591961D01*
X87731324Y-88591961D02*
X87683705Y-88496723D01*
X87683705Y-88496723D02*
X87636086Y-88306247D01*
X87636086Y-88306247D02*
X87636086Y-88163390D01*
X87636086Y-88163390D02*
X87683705Y-87972914D01*
X87683705Y-87972914D02*
X87731324Y-87877676D01*
X87731324Y-87877676D02*
X87826562Y-87782438D01*
X87826562Y-87782438D02*
X87969419Y-87734819D01*
X87969419Y-87734819D02*
X88064657Y-87734819D01*
X88064657Y-87734819D02*
X88207514Y-87782438D01*
X88207514Y-87782438D02*
X88255133Y-87830057D01*
X88588467Y-87734819D02*
X89207514Y-87734819D01*
X89207514Y-87734819D02*
X88874181Y-88115771D01*
X88874181Y-88115771D02*
X89017038Y-88115771D01*
X89017038Y-88115771D02*
X89112276Y-88163390D01*
X89112276Y-88163390D02*
X89159895Y-88211009D01*
X89159895Y-88211009D02*
X89207514Y-88306247D01*
X89207514Y-88306247D02*
X89207514Y-88544342D01*
X89207514Y-88544342D02*
X89159895Y-88639580D01*
X89159895Y-88639580D02*
X89112276Y-88687200D01*
X89112276Y-88687200D02*
X89017038Y-88734819D01*
X89017038Y-88734819D02*
X88731324Y-88734819D01*
X88731324Y-88734819D02*
X88636086Y-88687200D01*
X88636086Y-88687200D02*
X88588467Y-88639580D01*
X91895366Y-87641009D02*
X92038223Y-87688628D01*
X92038223Y-87688628D02*
X92085842Y-87736247D01*
X92085842Y-87736247D02*
X92133461Y-87831485D01*
X92133461Y-87831485D02*
X92133461Y-87974342D01*
X92133461Y-87974342D02*
X92085842Y-88069580D01*
X92085842Y-88069580D02*
X92038223Y-88117200D01*
X92038223Y-88117200D02*
X91942985Y-88164819D01*
X91942985Y-88164819D02*
X91562033Y-88164819D01*
X91562033Y-88164819D02*
X91562033Y-87164819D01*
X91562033Y-87164819D02*
X91895366Y-87164819D01*
X91895366Y-87164819D02*
X91990604Y-87212438D01*
X91990604Y-87212438D02*
X92038223Y-87260057D01*
X92038223Y-87260057D02*
X92085842Y-87355295D01*
X92085842Y-87355295D02*
X92085842Y-87450533D01*
X92085842Y-87450533D02*
X92038223Y-87545771D01*
X92038223Y-87545771D02*
X91990604Y-87593390D01*
X91990604Y-87593390D02*
X91895366Y-87641009D01*
X91895366Y-87641009D02*
X91562033Y-87641009D01*
X92562033Y-88164819D02*
X92562033Y-87164819D01*
X92562033Y-87164819D02*
X92942985Y-87164819D01*
X92942985Y-87164819D02*
X93038223Y-87212438D01*
X93038223Y-87212438D02*
X93085842Y-87260057D01*
X93085842Y-87260057D02*
X93133461Y-87355295D01*
X93133461Y-87355295D02*
X93133461Y-87498152D01*
X93133461Y-87498152D02*
X93085842Y-87593390D01*
X93085842Y-87593390D02*
X93038223Y-87641009D01*
X93038223Y-87641009D02*
X92942985Y-87688628D01*
X92942985Y-87688628D02*
X92562033Y-87688628D01*
X93895366Y-87641009D02*
X93562033Y-87641009D01*
X93562033Y-88164819D02*
X93562033Y-87164819D01*
X93562033Y-87164819D02*
X94038223Y-87164819D01*
X94942985Y-88164819D02*
X94371557Y-88164819D01*
X94657271Y-88164819D02*
X94657271Y-87164819D01*
X94657271Y-87164819D02*
X94562033Y-87307676D01*
X94562033Y-87307676D02*
X94466795Y-87402914D01*
X94466795Y-87402914D02*
X94371557Y-87450533D01*
X91200000Y-89454819D02*
X91200000Y-89692914D01*
X90961905Y-89597676D02*
X91200000Y-89692914D01*
X91200000Y-89692914D02*
X91438095Y-89597676D01*
X91057143Y-89883390D02*
X91200000Y-89692914D01*
X91200000Y-89692914D02*
X91342857Y-89883390D01*
X87804819Y-83130357D02*
X87328628Y-83463690D01*
X87804819Y-83701785D02*
X86804819Y-83701785D01*
X86804819Y-83701785D02*
X86804819Y-83320833D01*
X86804819Y-83320833D02*
X86852438Y-83225595D01*
X86852438Y-83225595D02*
X86900057Y-83177976D01*
X86900057Y-83177976D02*
X86995295Y-83130357D01*
X86995295Y-83130357D02*
X87138152Y-83130357D01*
X87138152Y-83130357D02*
X87233390Y-83177976D01*
X87233390Y-83177976D02*
X87281009Y-83225595D01*
X87281009Y-83225595D02*
X87328628Y-83320833D01*
X87328628Y-83320833D02*
X87328628Y-83701785D01*
X87804819Y-82177976D02*
X87804819Y-82749404D01*
X87804819Y-82463690D02*
X86804819Y-82463690D01*
X86804819Y-82463690D02*
X86947676Y-82558928D01*
X86947676Y-82558928D02*
X87042914Y-82654166D01*
X87042914Y-82654166D02*
X87090533Y-82749404D01*
X86804819Y-81273214D02*
X86804819Y-81749404D01*
X86804819Y-81749404D02*
X87281009Y-81797023D01*
X87281009Y-81797023D02*
X87233390Y-81749404D01*
X87233390Y-81749404D02*
X87185771Y-81654166D01*
X87185771Y-81654166D02*
X87185771Y-81416071D01*
X87185771Y-81416071D02*
X87233390Y-81320833D01*
X87233390Y-81320833D02*
X87281009Y-81273214D01*
X87281009Y-81273214D02*
X87376247Y-81225595D01*
X87376247Y-81225595D02*
X87614342Y-81225595D01*
X87614342Y-81225595D02*
X87709580Y-81273214D01*
X87709580Y-81273214D02*
X87757200Y-81320833D01*
X87757200Y-81320833D02*
X87804819Y-81416071D01*
X87804819Y-81416071D02*
X87804819Y-81654166D01*
X87804819Y-81654166D02*
X87757200Y-81749404D01*
X87757200Y-81749404D02*
X87709580Y-81797023D01*
D11*
X114271047Y-86918461D02*
X114875809Y-86918461D01*
X114150095Y-87281318D02*
X114573428Y-86011318D01*
X114573428Y-86011318D02*
X114996762Y-87281318D01*
X115238666Y-86011318D02*
X115964380Y-86011318D01*
X115601523Y-87281318D02*
X115601523Y-86011318D01*
X116931999Y-86434651D02*
X116931999Y-87281318D01*
X116629618Y-85950842D02*
X116327237Y-86857984D01*
X116327237Y-86857984D02*
X117113428Y-86857984D01*
D10*
X65676619Y-106655357D02*
X65200428Y-106988690D01*
X65676619Y-107226785D02*
X64676619Y-107226785D01*
X64676619Y-107226785D02*
X64676619Y-106845833D01*
X64676619Y-106845833D02*
X64724238Y-106750595D01*
X64724238Y-106750595D02*
X64771857Y-106702976D01*
X64771857Y-106702976D02*
X64867095Y-106655357D01*
X64867095Y-106655357D02*
X65009952Y-106655357D01*
X65009952Y-106655357D02*
X65105190Y-106702976D01*
X65105190Y-106702976D02*
X65152809Y-106750595D01*
X65152809Y-106750595D02*
X65200428Y-106845833D01*
X65200428Y-106845833D02*
X65200428Y-107226785D01*
X65676619Y-105702976D02*
X65676619Y-106274404D01*
X65676619Y-105988690D02*
X64676619Y-105988690D01*
X64676619Y-105988690D02*
X64819476Y-106083928D01*
X64819476Y-106083928D02*
X64914714Y-106179166D01*
X64914714Y-106179166D02*
X64962333Y-106274404D01*
X65676619Y-105226785D02*
X65676619Y-105036309D01*
X65676619Y-105036309D02*
X65629000Y-104941071D01*
X65629000Y-104941071D02*
X65581380Y-104893452D01*
X65581380Y-104893452D02*
X65438523Y-104798214D01*
X65438523Y-104798214D02*
X65248047Y-104750595D01*
X65248047Y-104750595D02*
X64867095Y-104750595D01*
X64867095Y-104750595D02*
X64771857Y-104798214D01*
X64771857Y-104798214D02*
X64724238Y-104845833D01*
X64724238Y-104845833D02*
X64676619Y-104941071D01*
X64676619Y-104941071D02*
X64676619Y-105131547D01*
X64676619Y-105131547D02*
X64724238Y-105226785D01*
X64724238Y-105226785D02*
X64771857Y-105274404D01*
X64771857Y-105274404D02*
X64867095Y-105322023D01*
X64867095Y-105322023D02*
X65105190Y-105322023D01*
X65105190Y-105322023D02*
X65200428Y-105274404D01*
X65200428Y-105274404D02*
X65248047Y-105226785D01*
X65248047Y-105226785D02*
X65295666Y-105131547D01*
X65295666Y-105131547D02*
X65295666Y-104941071D01*
X65295666Y-104941071D02*
X65248047Y-104845833D01*
X65248047Y-104845833D02*
X65200428Y-104798214D01*
X65200428Y-104798214D02*
X65105190Y-104750595D01*
X74321104Y-116738094D02*
X74321104Y-116261904D01*
X74606819Y-116833332D02*
X73606819Y-116499999D01*
X73606819Y-116499999D02*
X74606819Y-116166666D01*
X74606819Y-115833332D02*
X73606819Y-115833332D01*
X73606819Y-115833332D02*
X73606819Y-115595237D01*
X73606819Y-115595237D02*
X73654438Y-115452380D01*
X73654438Y-115452380D02*
X73749676Y-115357142D01*
X73749676Y-115357142D02*
X73844914Y-115309523D01*
X73844914Y-115309523D02*
X74035390Y-115261904D01*
X74035390Y-115261904D02*
X74178247Y-115261904D01*
X74178247Y-115261904D02*
X74368723Y-115309523D01*
X74368723Y-115309523D02*
X74463961Y-115357142D01*
X74463961Y-115357142D02*
X74559200Y-115452380D01*
X74559200Y-115452380D02*
X74606819Y-115595237D01*
X74606819Y-115595237D02*
X74606819Y-115833332D01*
X74511580Y-114261904D02*
X74559200Y-114309523D01*
X74559200Y-114309523D02*
X74606819Y-114452380D01*
X74606819Y-114452380D02*
X74606819Y-114547618D01*
X74606819Y-114547618D02*
X74559200Y-114690475D01*
X74559200Y-114690475D02*
X74463961Y-114785713D01*
X74463961Y-114785713D02*
X74368723Y-114833332D01*
X74368723Y-114833332D02*
X74178247Y-114880951D01*
X74178247Y-114880951D02*
X74035390Y-114880951D01*
X74035390Y-114880951D02*
X73844914Y-114833332D01*
X73844914Y-114833332D02*
X73749676Y-114785713D01*
X73749676Y-114785713D02*
X73654438Y-114690475D01*
X73654438Y-114690475D02*
X73606819Y-114547618D01*
X73606819Y-114547618D02*
X73606819Y-114452380D01*
X73606819Y-114452380D02*
X73654438Y-114309523D01*
X73654438Y-114309523D02*
X73702057Y-114261904D01*
X77666666Y-72054819D02*
X77666666Y-72769104D01*
X77666666Y-72769104D02*
X77619047Y-72911961D01*
X77619047Y-72911961D02*
X77523809Y-73007200D01*
X77523809Y-73007200D02*
X77380952Y-73054819D01*
X77380952Y-73054819D02*
X77285714Y-73054819D01*
X78571428Y-72054819D02*
X78380952Y-72054819D01*
X78380952Y-72054819D02*
X78285714Y-72102438D01*
X78285714Y-72102438D02*
X78238095Y-72150057D01*
X78238095Y-72150057D02*
X78142857Y-72292914D01*
X78142857Y-72292914D02*
X78095238Y-72483390D01*
X78095238Y-72483390D02*
X78095238Y-72864342D01*
X78095238Y-72864342D02*
X78142857Y-72959580D01*
X78142857Y-72959580D02*
X78190476Y-73007200D01*
X78190476Y-73007200D02*
X78285714Y-73054819D01*
X78285714Y-73054819D02*
X78476190Y-73054819D01*
X78476190Y-73054819D02*
X78571428Y-73007200D01*
X78571428Y-73007200D02*
X78619047Y-72959580D01*
X78619047Y-72959580D02*
X78666666Y-72864342D01*
X78666666Y-72864342D02*
X78666666Y-72626247D01*
X78666666Y-72626247D02*
X78619047Y-72531009D01*
X78619047Y-72531009D02*
X78571428Y-72483390D01*
X78571428Y-72483390D02*
X78476190Y-72435771D01*
X78476190Y-72435771D02*
X78285714Y-72435771D01*
X78285714Y-72435771D02*
X78190476Y-72483390D01*
X78190476Y-72483390D02*
X78142857Y-72531009D01*
X78142857Y-72531009D02*
X78095238Y-72626247D01*
X86533333Y-87254819D02*
X86057143Y-87254819D01*
X86057143Y-87254819D02*
X86057143Y-86254819D01*
X87390476Y-87254819D02*
X86819048Y-87254819D01*
X87104762Y-87254819D02*
X87104762Y-86254819D01*
X87104762Y-86254819D02*
X87009524Y-86397676D01*
X87009524Y-86397676D02*
X86914286Y-86492914D01*
X86914286Y-86492914D02*
X86819048Y-86540533D01*
X145466666Y-101454819D02*
X145466666Y-102169104D01*
X145466666Y-102169104D02*
X145419047Y-102311961D01*
X145419047Y-102311961D02*
X145323809Y-102407200D01*
X145323809Y-102407200D02*
X145180952Y-102454819D01*
X145180952Y-102454819D02*
X145085714Y-102454819D01*
X146085714Y-101883390D02*
X145990476Y-101835771D01*
X145990476Y-101835771D02*
X145942857Y-101788152D01*
X145942857Y-101788152D02*
X145895238Y-101692914D01*
X145895238Y-101692914D02*
X145895238Y-101645295D01*
X145895238Y-101645295D02*
X145942857Y-101550057D01*
X145942857Y-101550057D02*
X145990476Y-101502438D01*
X145990476Y-101502438D02*
X146085714Y-101454819D01*
X146085714Y-101454819D02*
X146276190Y-101454819D01*
X146276190Y-101454819D02*
X146371428Y-101502438D01*
X146371428Y-101502438D02*
X146419047Y-101550057D01*
X146419047Y-101550057D02*
X146466666Y-101645295D01*
X146466666Y-101645295D02*
X146466666Y-101692914D01*
X146466666Y-101692914D02*
X146419047Y-101788152D01*
X146419047Y-101788152D02*
X146371428Y-101835771D01*
X146371428Y-101835771D02*
X146276190Y-101883390D01*
X146276190Y-101883390D02*
X146085714Y-101883390D01*
X146085714Y-101883390D02*
X145990476Y-101931009D01*
X145990476Y-101931009D02*
X145942857Y-101978628D01*
X145942857Y-101978628D02*
X145895238Y-102073866D01*
X145895238Y-102073866D02*
X145895238Y-102264342D01*
X145895238Y-102264342D02*
X145942857Y-102359580D01*
X145942857Y-102359580D02*
X145990476Y-102407200D01*
X145990476Y-102407200D02*
X146085714Y-102454819D01*
X146085714Y-102454819D02*
X146276190Y-102454819D01*
X146276190Y-102454819D02*
X146371428Y-102407200D01*
X146371428Y-102407200D02*
X146419047Y-102359580D01*
X146419047Y-102359580D02*
X146466666Y-102264342D01*
X146466666Y-102264342D02*
X146466666Y-102073866D01*
X146466666Y-102073866D02*
X146419047Y-101978628D01*
X146419047Y-101978628D02*
X146371428Y-101931009D01*
X146371428Y-101931009D02*
X146276190Y-101883390D01*
X73833333Y-90234819D02*
X73500000Y-89758628D01*
X73261905Y-90234819D02*
X73261905Y-89234819D01*
X73261905Y-89234819D02*
X73642857Y-89234819D01*
X73642857Y-89234819D02*
X73738095Y-89282438D01*
X73738095Y-89282438D02*
X73785714Y-89330057D01*
X73785714Y-89330057D02*
X73833333Y-89425295D01*
X73833333Y-89425295D02*
X73833333Y-89568152D01*
X73833333Y-89568152D02*
X73785714Y-89663390D01*
X73785714Y-89663390D02*
X73738095Y-89711009D01*
X73738095Y-89711009D02*
X73642857Y-89758628D01*
X73642857Y-89758628D02*
X73261905Y-89758628D01*
X74738095Y-89234819D02*
X74261905Y-89234819D01*
X74261905Y-89234819D02*
X74214286Y-89711009D01*
X74214286Y-89711009D02*
X74261905Y-89663390D01*
X74261905Y-89663390D02*
X74357143Y-89615771D01*
X74357143Y-89615771D02*
X74595238Y-89615771D01*
X74595238Y-89615771D02*
X74690476Y-89663390D01*
X74690476Y-89663390D02*
X74738095Y-89711009D01*
X74738095Y-89711009D02*
X74785714Y-89806247D01*
X74785714Y-89806247D02*
X74785714Y-90044342D01*
X74785714Y-90044342D02*
X74738095Y-90139580D01*
X74738095Y-90139580D02*
X74690476Y-90187200D01*
X74690476Y-90187200D02*
X74595238Y-90234819D01*
X74595238Y-90234819D02*
X74357143Y-90234819D01*
X74357143Y-90234819D02*
X74261905Y-90187200D01*
X74261905Y-90187200D02*
X74214286Y-90139580D01*
X139254819Y-85366666D02*
X138778628Y-85699999D01*
X139254819Y-85938094D02*
X138254819Y-85938094D01*
X138254819Y-85938094D02*
X138254819Y-85557142D01*
X138254819Y-85557142D02*
X138302438Y-85461904D01*
X138302438Y-85461904D02*
X138350057Y-85414285D01*
X138350057Y-85414285D02*
X138445295Y-85366666D01*
X138445295Y-85366666D02*
X138588152Y-85366666D01*
X138588152Y-85366666D02*
X138683390Y-85414285D01*
X138683390Y-85414285D02*
X138731009Y-85461904D01*
X138731009Y-85461904D02*
X138778628Y-85557142D01*
X138778628Y-85557142D02*
X138778628Y-85938094D01*
X139254819Y-84414285D02*
X139254819Y-84985713D01*
X139254819Y-84699999D02*
X138254819Y-84699999D01*
X138254819Y-84699999D02*
X138397676Y-84795237D01*
X138397676Y-84795237D02*
X138492914Y-84890475D01*
X138492914Y-84890475D02*
X138540533Y-84985713D01*
X107433333Y-87224819D02*
X107100000Y-86748628D01*
X106861905Y-87224819D02*
X106861905Y-86224819D01*
X106861905Y-86224819D02*
X107242857Y-86224819D01*
X107242857Y-86224819D02*
X107338095Y-86272438D01*
X107338095Y-86272438D02*
X107385714Y-86320057D01*
X107385714Y-86320057D02*
X107433333Y-86415295D01*
X107433333Y-86415295D02*
X107433333Y-86558152D01*
X107433333Y-86558152D02*
X107385714Y-86653390D01*
X107385714Y-86653390D02*
X107338095Y-86701009D01*
X107338095Y-86701009D02*
X107242857Y-86748628D01*
X107242857Y-86748628D02*
X106861905Y-86748628D01*
X108290476Y-86224819D02*
X108100000Y-86224819D01*
X108100000Y-86224819D02*
X108004762Y-86272438D01*
X108004762Y-86272438D02*
X107957143Y-86320057D01*
X107957143Y-86320057D02*
X107861905Y-86462914D01*
X107861905Y-86462914D02*
X107814286Y-86653390D01*
X107814286Y-86653390D02*
X107814286Y-87034342D01*
X107814286Y-87034342D02*
X107861905Y-87129580D01*
X107861905Y-87129580D02*
X107909524Y-87177200D01*
X107909524Y-87177200D02*
X108004762Y-87224819D01*
X108004762Y-87224819D02*
X108195238Y-87224819D01*
X108195238Y-87224819D02*
X108290476Y-87177200D01*
X108290476Y-87177200D02*
X108338095Y-87129580D01*
X108338095Y-87129580D02*
X108385714Y-87034342D01*
X108385714Y-87034342D02*
X108385714Y-86796247D01*
X108385714Y-86796247D02*
X108338095Y-86701009D01*
X108338095Y-86701009D02*
X108290476Y-86653390D01*
X108290476Y-86653390D02*
X108195238Y-86605771D01*
X108195238Y-86605771D02*
X108004762Y-86605771D01*
X108004762Y-86605771D02*
X107909524Y-86653390D01*
X107909524Y-86653390D02*
X107861905Y-86701009D01*
X107861905Y-86701009D02*
X107814286Y-86796247D01*
X54725000Y-106489819D02*
X54915476Y-106489819D01*
X54915476Y-106489819D02*
X55010714Y-106537438D01*
X55010714Y-106537438D02*
X55105952Y-106632676D01*
X55105952Y-106632676D02*
X55153571Y-106823152D01*
X55153571Y-106823152D02*
X55153571Y-107156485D01*
X55153571Y-107156485D02*
X55105952Y-107346961D01*
X55105952Y-107346961D02*
X55010714Y-107442200D01*
X55010714Y-107442200D02*
X54915476Y-107489819D01*
X54915476Y-107489819D02*
X54725000Y-107489819D01*
X54725000Y-107489819D02*
X54629762Y-107442200D01*
X54629762Y-107442200D02*
X54534524Y-107346961D01*
X54534524Y-107346961D02*
X54486905Y-107156485D01*
X54486905Y-107156485D02*
X54486905Y-106823152D01*
X54486905Y-106823152D02*
X54534524Y-106632676D01*
X54534524Y-106632676D02*
X54629762Y-106537438D01*
X54629762Y-106537438D02*
X54725000Y-106489819D01*
X55534524Y-107204104D02*
X56010714Y-107204104D01*
X55439286Y-107489819D02*
X55772619Y-106489819D01*
X55772619Y-106489819D02*
X56105952Y-107489819D01*
X56963095Y-107489819D02*
X56391667Y-107489819D01*
X56677381Y-107489819D02*
X56677381Y-106489819D01*
X56677381Y-106489819D02*
X56582143Y-106632676D01*
X56582143Y-106632676D02*
X56486905Y-106727914D01*
X56486905Y-106727914D02*
X56391667Y-106775533D01*
X59004819Y-108154166D02*
X58528628Y-108487499D01*
X59004819Y-108725594D02*
X58004819Y-108725594D01*
X58004819Y-108725594D02*
X58004819Y-108344642D01*
X58004819Y-108344642D02*
X58052438Y-108249404D01*
X58052438Y-108249404D02*
X58100057Y-108201785D01*
X58100057Y-108201785D02*
X58195295Y-108154166D01*
X58195295Y-108154166D02*
X58338152Y-108154166D01*
X58338152Y-108154166D02*
X58433390Y-108201785D01*
X58433390Y-108201785D02*
X58481009Y-108249404D01*
X58481009Y-108249404D02*
X58528628Y-108344642D01*
X58528628Y-108344642D02*
X58528628Y-108725594D01*
X58433390Y-107582737D02*
X58385771Y-107677975D01*
X58385771Y-107677975D02*
X58338152Y-107725594D01*
X58338152Y-107725594D02*
X58242914Y-107773213D01*
X58242914Y-107773213D02*
X58195295Y-107773213D01*
X58195295Y-107773213D02*
X58100057Y-107725594D01*
X58100057Y-107725594D02*
X58052438Y-107677975D01*
X58052438Y-107677975D02*
X58004819Y-107582737D01*
X58004819Y-107582737D02*
X58004819Y-107392261D01*
X58004819Y-107392261D02*
X58052438Y-107297023D01*
X58052438Y-107297023D02*
X58100057Y-107249404D01*
X58100057Y-107249404D02*
X58195295Y-107201785D01*
X58195295Y-107201785D02*
X58242914Y-107201785D01*
X58242914Y-107201785D02*
X58338152Y-107249404D01*
X58338152Y-107249404D02*
X58385771Y-107297023D01*
X58385771Y-107297023D02*
X58433390Y-107392261D01*
X58433390Y-107392261D02*
X58433390Y-107582737D01*
X58433390Y-107582737D02*
X58481009Y-107677975D01*
X58481009Y-107677975D02*
X58528628Y-107725594D01*
X58528628Y-107725594D02*
X58623866Y-107773213D01*
X58623866Y-107773213D02*
X58814342Y-107773213D01*
X58814342Y-107773213D02*
X58909580Y-107725594D01*
X58909580Y-107725594D02*
X58957200Y-107677975D01*
X58957200Y-107677975D02*
X59004819Y-107582737D01*
X59004819Y-107582737D02*
X59004819Y-107392261D01*
X59004819Y-107392261D02*
X58957200Y-107297023D01*
X58957200Y-107297023D02*
X58909580Y-107249404D01*
X58909580Y-107249404D02*
X58814342Y-107201785D01*
X58814342Y-107201785D02*
X58623866Y-107201785D01*
X58623866Y-107201785D02*
X58528628Y-107249404D01*
X58528628Y-107249404D02*
X58481009Y-107297023D01*
X58481009Y-107297023D02*
X58433390Y-107392261D01*
X55904819Y-97654166D02*
X55428628Y-97987499D01*
X55904819Y-98225594D02*
X54904819Y-98225594D01*
X54904819Y-98225594D02*
X54904819Y-97844642D01*
X54904819Y-97844642D02*
X54952438Y-97749404D01*
X54952438Y-97749404D02*
X55000057Y-97701785D01*
X55000057Y-97701785D02*
X55095295Y-97654166D01*
X55095295Y-97654166D02*
X55238152Y-97654166D01*
X55238152Y-97654166D02*
X55333390Y-97701785D01*
X55333390Y-97701785D02*
X55381009Y-97749404D01*
X55381009Y-97749404D02*
X55428628Y-97844642D01*
X55428628Y-97844642D02*
X55428628Y-98225594D01*
X55238152Y-96797023D02*
X55904819Y-96797023D01*
X54857200Y-97035118D02*
X55571485Y-97273213D01*
X55571485Y-97273213D02*
X55571485Y-96654166D01*
X52583333Y-95339580D02*
X52535714Y-95387200D01*
X52535714Y-95387200D02*
X52392857Y-95434819D01*
X52392857Y-95434819D02*
X52297619Y-95434819D01*
X52297619Y-95434819D02*
X52154762Y-95387200D01*
X52154762Y-95387200D02*
X52059524Y-95291961D01*
X52059524Y-95291961D02*
X52011905Y-95196723D01*
X52011905Y-95196723D02*
X51964286Y-95006247D01*
X51964286Y-95006247D02*
X51964286Y-94863390D01*
X51964286Y-94863390D02*
X52011905Y-94672914D01*
X52011905Y-94672914D02*
X52059524Y-94577676D01*
X52059524Y-94577676D02*
X52154762Y-94482438D01*
X52154762Y-94482438D02*
X52297619Y-94434819D01*
X52297619Y-94434819D02*
X52392857Y-94434819D01*
X52392857Y-94434819D02*
X52535714Y-94482438D01*
X52535714Y-94482438D02*
X52583333Y-94530057D01*
X53059524Y-95434819D02*
X53250000Y-95434819D01*
X53250000Y-95434819D02*
X53345238Y-95387200D01*
X53345238Y-95387200D02*
X53392857Y-95339580D01*
X53392857Y-95339580D02*
X53488095Y-95196723D01*
X53488095Y-95196723D02*
X53535714Y-95006247D01*
X53535714Y-95006247D02*
X53535714Y-94625295D01*
X53535714Y-94625295D02*
X53488095Y-94530057D01*
X53488095Y-94530057D02*
X53440476Y-94482438D01*
X53440476Y-94482438D02*
X53345238Y-94434819D01*
X53345238Y-94434819D02*
X53154762Y-94434819D01*
X53154762Y-94434819D02*
X53059524Y-94482438D01*
X53059524Y-94482438D02*
X53011905Y-94530057D01*
X53011905Y-94530057D02*
X52964286Y-94625295D01*
X52964286Y-94625295D02*
X52964286Y-94863390D01*
X52964286Y-94863390D02*
X53011905Y-94958628D01*
X53011905Y-94958628D02*
X53059524Y-95006247D01*
X53059524Y-95006247D02*
X53154762Y-95053866D01*
X53154762Y-95053866D02*
X53345238Y-95053866D01*
X53345238Y-95053866D02*
X53440476Y-95006247D01*
X53440476Y-95006247D02*
X53488095Y-94958628D01*
X53488095Y-94958628D02*
X53535714Y-94863390D01*
X95977381Y-87447200D02*
X96120238Y-87494819D01*
X96120238Y-87494819D02*
X96358333Y-87494819D01*
X96358333Y-87494819D02*
X96453571Y-87447200D01*
X96453571Y-87447200D02*
X96501190Y-87399580D01*
X96501190Y-87399580D02*
X96548809Y-87304342D01*
X96548809Y-87304342D02*
X96548809Y-87209104D01*
X96548809Y-87209104D02*
X96501190Y-87113866D01*
X96501190Y-87113866D02*
X96453571Y-87066247D01*
X96453571Y-87066247D02*
X96358333Y-87018628D01*
X96358333Y-87018628D02*
X96167857Y-86971009D01*
X96167857Y-86971009D02*
X96072619Y-86923390D01*
X96072619Y-86923390D02*
X96025000Y-86875771D01*
X96025000Y-86875771D02*
X95977381Y-86780533D01*
X95977381Y-86780533D02*
X95977381Y-86685295D01*
X95977381Y-86685295D02*
X96025000Y-86590057D01*
X96025000Y-86590057D02*
X96072619Y-86542438D01*
X96072619Y-86542438D02*
X96167857Y-86494819D01*
X96167857Y-86494819D02*
X96405952Y-86494819D01*
X96405952Y-86494819D02*
X96548809Y-86542438D01*
X96977381Y-87494819D02*
X96977381Y-86494819D01*
X96977381Y-86494819D02*
X97358333Y-86494819D01*
X97358333Y-86494819D02*
X97453571Y-86542438D01*
X97453571Y-86542438D02*
X97501190Y-86590057D01*
X97501190Y-86590057D02*
X97548809Y-86685295D01*
X97548809Y-86685295D02*
X97548809Y-86828152D01*
X97548809Y-86828152D02*
X97501190Y-86923390D01*
X97501190Y-86923390D02*
X97453571Y-86971009D01*
X97453571Y-86971009D02*
X97358333Y-87018628D01*
X97358333Y-87018628D02*
X96977381Y-87018628D01*
X98453571Y-87494819D02*
X97977381Y-87494819D01*
X97977381Y-87494819D02*
X97977381Y-86494819D01*
X98644048Y-86494819D02*
X99215476Y-86494819D01*
X98929762Y-87494819D02*
X98929762Y-86494819D01*
X100072619Y-87494819D02*
X99501191Y-87494819D01*
X99786905Y-87494819D02*
X99786905Y-86494819D01*
X99786905Y-86494819D02*
X99691667Y-86637676D01*
X99691667Y-86637676D02*
X99596429Y-86732914D01*
X99596429Y-86732914D02*
X99501191Y-86780533D01*
X108757142Y-80559580D02*
X108709523Y-80607200D01*
X108709523Y-80607200D02*
X108566666Y-80654819D01*
X108566666Y-80654819D02*
X108471428Y-80654819D01*
X108471428Y-80654819D02*
X108328571Y-80607200D01*
X108328571Y-80607200D02*
X108233333Y-80511961D01*
X108233333Y-80511961D02*
X108185714Y-80416723D01*
X108185714Y-80416723D02*
X108138095Y-80226247D01*
X108138095Y-80226247D02*
X108138095Y-80083390D01*
X108138095Y-80083390D02*
X108185714Y-79892914D01*
X108185714Y-79892914D02*
X108233333Y-79797676D01*
X108233333Y-79797676D02*
X108328571Y-79702438D01*
X108328571Y-79702438D02*
X108471428Y-79654819D01*
X108471428Y-79654819D02*
X108566666Y-79654819D01*
X108566666Y-79654819D02*
X108709523Y-79702438D01*
X108709523Y-79702438D02*
X108757142Y-79750057D01*
X109138095Y-79750057D02*
X109185714Y-79702438D01*
X109185714Y-79702438D02*
X109280952Y-79654819D01*
X109280952Y-79654819D02*
X109519047Y-79654819D01*
X109519047Y-79654819D02*
X109614285Y-79702438D01*
X109614285Y-79702438D02*
X109661904Y-79750057D01*
X109661904Y-79750057D02*
X109709523Y-79845295D01*
X109709523Y-79845295D02*
X109709523Y-79940533D01*
X109709523Y-79940533D02*
X109661904Y-80083390D01*
X109661904Y-80083390D02*
X109090476Y-80654819D01*
X109090476Y-80654819D02*
X109709523Y-80654819D01*
X110614285Y-79654819D02*
X110138095Y-79654819D01*
X110138095Y-79654819D02*
X110090476Y-80131009D01*
X110090476Y-80131009D02*
X110138095Y-80083390D01*
X110138095Y-80083390D02*
X110233333Y-80035771D01*
X110233333Y-80035771D02*
X110471428Y-80035771D01*
X110471428Y-80035771D02*
X110566666Y-80083390D01*
X110566666Y-80083390D02*
X110614285Y-80131009D01*
X110614285Y-80131009D02*
X110661904Y-80226247D01*
X110661904Y-80226247D02*
X110661904Y-80464342D01*
X110661904Y-80464342D02*
X110614285Y-80559580D01*
X110614285Y-80559580D02*
X110566666Y-80607200D01*
X110566666Y-80607200D02*
X110471428Y-80654819D01*
X110471428Y-80654819D02*
X110233333Y-80654819D01*
X110233333Y-80654819D02*
X110138095Y-80607200D01*
X110138095Y-80607200D02*
X110090476Y-80559580D01*
X108709580Y-123992857D02*
X108757200Y-124040476D01*
X108757200Y-124040476D02*
X108804819Y-124183333D01*
X108804819Y-124183333D02*
X108804819Y-124278571D01*
X108804819Y-124278571D02*
X108757200Y-124421428D01*
X108757200Y-124421428D02*
X108661961Y-124516666D01*
X108661961Y-124516666D02*
X108566723Y-124564285D01*
X108566723Y-124564285D02*
X108376247Y-124611904D01*
X108376247Y-124611904D02*
X108233390Y-124611904D01*
X108233390Y-124611904D02*
X108042914Y-124564285D01*
X108042914Y-124564285D02*
X107947676Y-124516666D01*
X107947676Y-124516666D02*
X107852438Y-124421428D01*
X107852438Y-124421428D02*
X107804819Y-124278571D01*
X107804819Y-124278571D02*
X107804819Y-124183333D01*
X107804819Y-124183333D02*
X107852438Y-124040476D01*
X107852438Y-124040476D02*
X107900057Y-123992857D01*
X108804819Y-123040476D02*
X108804819Y-123611904D01*
X108804819Y-123326190D02*
X107804819Y-123326190D01*
X107804819Y-123326190D02*
X107947676Y-123421428D01*
X107947676Y-123421428D02*
X108042914Y-123516666D01*
X108042914Y-123516666D02*
X108090533Y-123611904D01*
X107804819Y-122421428D02*
X107804819Y-122326190D01*
X107804819Y-122326190D02*
X107852438Y-122230952D01*
X107852438Y-122230952D02*
X107900057Y-122183333D01*
X107900057Y-122183333D02*
X107995295Y-122135714D01*
X107995295Y-122135714D02*
X108185771Y-122088095D01*
X108185771Y-122088095D02*
X108423866Y-122088095D01*
X108423866Y-122088095D02*
X108614342Y-122135714D01*
X108614342Y-122135714D02*
X108709580Y-122183333D01*
X108709580Y-122183333D02*
X108757200Y-122230952D01*
X108757200Y-122230952D02*
X108804819Y-122326190D01*
X108804819Y-122326190D02*
X108804819Y-122421428D01*
X108804819Y-122421428D02*
X108757200Y-122516666D01*
X108757200Y-122516666D02*
X108709580Y-122564285D01*
X108709580Y-122564285D02*
X108614342Y-122611904D01*
X108614342Y-122611904D02*
X108423866Y-122659523D01*
X108423866Y-122659523D02*
X108185771Y-122659523D01*
X108185771Y-122659523D02*
X107995295Y-122611904D01*
X107995295Y-122611904D02*
X107900057Y-122564285D01*
X107900057Y-122564285D02*
X107852438Y-122516666D01*
X107852438Y-122516666D02*
X107804819Y-122421428D01*
X92239580Y-82716666D02*
X92287200Y-82764285D01*
X92287200Y-82764285D02*
X92334819Y-82907142D01*
X92334819Y-82907142D02*
X92334819Y-83002380D01*
X92334819Y-83002380D02*
X92287200Y-83145237D01*
X92287200Y-83145237D02*
X92191961Y-83240475D01*
X92191961Y-83240475D02*
X92096723Y-83288094D01*
X92096723Y-83288094D02*
X91906247Y-83335713D01*
X91906247Y-83335713D02*
X91763390Y-83335713D01*
X91763390Y-83335713D02*
X91572914Y-83288094D01*
X91572914Y-83288094D02*
X91477676Y-83240475D01*
X91477676Y-83240475D02*
X91382438Y-83145237D01*
X91382438Y-83145237D02*
X91334819Y-83002380D01*
X91334819Y-83002380D02*
X91334819Y-82907142D01*
X91334819Y-82907142D02*
X91382438Y-82764285D01*
X91382438Y-82764285D02*
X91430057Y-82716666D01*
X91334819Y-81811904D02*
X91334819Y-82288094D01*
X91334819Y-82288094D02*
X91811009Y-82335713D01*
X91811009Y-82335713D02*
X91763390Y-82288094D01*
X91763390Y-82288094D02*
X91715771Y-82192856D01*
X91715771Y-82192856D02*
X91715771Y-81954761D01*
X91715771Y-81954761D02*
X91763390Y-81859523D01*
X91763390Y-81859523D02*
X91811009Y-81811904D01*
X91811009Y-81811904D02*
X91906247Y-81764285D01*
X91906247Y-81764285D02*
X92144342Y-81764285D01*
X92144342Y-81764285D02*
X92239580Y-81811904D01*
X92239580Y-81811904D02*
X92287200Y-81859523D01*
X92287200Y-81859523D02*
X92334819Y-81954761D01*
X92334819Y-81954761D02*
X92334819Y-82192856D01*
X92334819Y-82192856D02*
X92287200Y-82288094D01*
X92287200Y-82288094D02*
X92239580Y-82335713D01*
X81106819Y-121276189D02*
X81106819Y-120657142D01*
X81106819Y-120657142D02*
X81487771Y-120990475D01*
X81487771Y-120990475D02*
X81487771Y-120847618D01*
X81487771Y-120847618D02*
X81535390Y-120752380D01*
X81535390Y-120752380D02*
X81583009Y-120704761D01*
X81583009Y-120704761D02*
X81678247Y-120657142D01*
X81678247Y-120657142D02*
X81916342Y-120657142D01*
X81916342Y-120657142D02*
X82011580Y-120704761D01*
X82011580Y-120704761D02*
X82059200Y-120752380D01*
X82059200Y-120752380D02*
X82106819Y-120847618D01*
X82106819Y-120847618D02*
X82106819Y-121133332D01*
X82106819Y-121133332D02*
X82059200Y-121228570D01*
X82059200Y-121228570D02*
X82011580Y-121276189D01*
X82011580Y-120228570D02*
X82059200Y-120180951D01*
X82059200Y-120180951D02*
X82106819Y-120228570D01*
X82106819Y-120228570D02*
X82059200Y-120276189D01*
X82059200Y-120276189D02*
X82011580Y-120228570D01*
X82011580Y-120228570D02*
X82106819Y-120228570D01*
X81106819Y-119847618D02*
X81106819Y-119228571D01*
X81106819Y-119228571D02*
X81487771Y-119561904D01*
X81487771Y-119561904D02*
X81487771Y-119419047D01*
X81487771Y-119419047D02*
X81535390Y-119323809D01*
X81535390Y-119323809D02*
X81583009Y-119276190D01*
X81583009Y-119276190D02*
X81678247Y-119228571D01*
X81678247Y-119228571D02*
X81916342Y-119228571D01*
X81916342Y-119228571D02*
X82011580Y-119276190D01*
X82011580Y-119276190D02*
X82059200Y-119323809D01*
X82059200Y-119323809D02*
X82106819Y-119419047D01*
X82106819Y-119419047D02*
X82106819Y-119704761D01*
X82106819Y-119704761D02*
X82059200Y-119799999D01*
X82059200Y-119799999D02*
X82011580Y-119847618D01*
X81106819Y-118942856D02*
X82106819Y-118609523D01*
X82106819Y-118609523D02*
X81106819Y-118276190D01*
X109954819Y-107342857D02*
X109478628Y-107676190D01*
X109954819Y-107914285D02*
X108954819Y-107914285D01*
X108954819Y-107914285D02*
X108954819Y-107533333D01*
X108954819Y-107533333D02*
X109002438Y-107438095D01*
X109002438Y-107438095D02*
X109050057Y-107390476D01*
X109050057Y-107390476D02*
X109145295Y-107342857D01*
X109145295Y-107342857D02*
X109288152Y-107342857D01*
X109288152Y-107342857D02*
X109383390Y-107390476D01*
X109383390Y-107390476D02*
X109431009Y-107438095D01*
X109431009Y-107438095D02*
X109478628Y-107533333D01*
X109478628Y-107533333D02*
X109478628Y-107914285D01*
X109954819Y-106390476D02*
X109954819Y-106961904D01*
X109954819Y-106676190D02*
X108954819Y-106676190D01*
X108954819Y-106676190D02*
X109097676Y-106771428D01*
X109097676Y-106771428D02*
X109192914Y-106866666D01*
X109192914Y-106866666D02*
X109240533Y-106961904D01*
X108954819Y-105533333D02*
X108954819Y-105723809D01*
X108954819Y-105723809D02*
X109002438Y-105819047D01*
X109002438Y-105819047D02*
X109050057Y-105866666D01*
X109050057Y-105866666D02*
X109192914Y-105961904D01*
X109192914Y-105961904D02*
X109383390Y-106009523D01*
X109383390Y-106009523D02*
X109764342Y-106009523D01*
X109764342Y-106009523D02*
X109859580Y-105961904D01*
X109859580Y-105961904D02*
X109907200Y-105914285D01*
X109907200Y-105914285D02*
X109954819Y-105819047D01*
X109954819Y-105819047D02*
X109954819Y-105628571D01*
X109954819Y-105628571D02*
X109907200Y-105533333D01*
X109907200Y-105533333D02*
X109859580Y-105485714D01*
X109859580Y-105485714D02*
X109764342Y-105438095D01*
X109764342Y-105438095D02*
X109526247Y-105438095D01*
X109526247Y-105438095D02*
X109431009Y-105485714D01*
X109431009Y-105485714D02*
X109383390Y-105533333D01*
X109383390Y-105533333D02*
X109335771Y-105628571D01*
X109335771Y-105628571D02*
X109335771Y-105819047D01*
X109335771Y-105819047D02*
X109383390Y-105914285D01*
X109383390Y-105914285D02*
X109431009Y-105961904D01*
X109431009Y-105961904D02*
X109526247Y-106009523D01*
X121757142Y-78759580D02*
X121709523Y-78807200D01*
X121709523Y-78807200D02*
X121566666Y-78854819D01*
X121566666Y-78854819D02*
X121471428Y-78854819D01*
X121471428Y-78854819D02*
X121328571Y-78807200D01*
X121328571Y-78807200D02*
X121233333Y-78711961D01*
X121233333Y-78711961D02*
X121185714Y-78616723D01*
X121185714Y-78616723D02*
X121138095Y-78426247D01*
X121138095Y-78426247D02*
X121138095Y-78283390D01*
X121138095Y-78283390D02*
X121185714Y-78092914D01*
X121185714Y-78092914D02*
X121233333Y-77997676D01*
X121233333Y-77997676D02*
X121328571Y-77902438D01*
X121328571Y-77902438D02*
X121471428Y-77854819D01*
X121471428Y-77854819D02*
X121566666Y-77854819D01*
X121566666Y-77854819D02*
X121709523Y-77902438D01*
X121709523Y-77902438D02*
X121757142Y-77950057D01*
X122138095Y-77950057D02*
X122185714Y-77902438D01*
X122185714Y-77902438D02*
X122280952Y-77854819D01*
X122280952Y-77854819D02*
X122519047Y-77854819D01*
X122519047Y-77854819D02*
X122614285Y-77902438D01*
X122614285Y-77902438D02*
X122661904Y-77950057D01*
X122661904Y-77950057D02*
X122709523Y-78045295D01*
X122709523Y-78045295D02*
X122709523Y-78140533D01*
X122709523Y-78140533D02*
X122661904Y-78283390D01*
X122661904Y-78283390D02*
X122090476Y-78854819D01*
X122090476Y-78854819D02*
X122709523Y-78854819D01*
X123042857Y-77854819D02*
X123709523Y-77854819D01*
X123709523Y-77854819D02*
X123280952Y-78854819D01*
X54768537Y-122259580D02*
X54720918Y-122307200D01*
X54720918Y-122307200D02*
X54578061Y-122354819D01*
X54578061Y-122354819D02*
X54482823Y-122354819D01*
X54482823Y-122354819D02*
X54339966Y-122307200D01*
X54339966Y-122307200D02*
X54244728Y-122211961D01*
X54244728Y-122211961D02*
X54197109Y-122116723D01*
X54197109Y-122116723D02*
X54149490Y-121926247D01*
X54149490Y-121926247D02*
X54149490Y-121783390D01*
X54149490Y-121783390D02*
X54197109Y-121592914D01*
X54197109Y-121592914D02*
X54244728Y-121497676D01*
X54244728Y-121497676D02*
X54339966Y-121402438D01*
X54339966Y-121402438D02*
X54482823Y-121354819D01*
X54482823Y-121354819D02*
X54578061Y-121354819D01*
X54578061Y-121354819D02*
X54720918Y-121402438D01*
X54720918Y-121402438D02*
X54768537Y-121450057D01*
X55149490Y-121450057D02*
X55197109Y-121402438D01*
X55197109Y-121402438D02*
X55292347Y-121354819D01*
X55292347Y-121354819D02*
X55530442Y-121354819D01*
X55530442Y-121354819D02*
X55625680Y-121402438D01*
X55625680Y-121402438D02*
X55673299Y-121450057D01*
X55673299Y-121450057D02*
X55720918Y-121545295D01*
X55720918Y-121545295D02*
X55720918Y-121640533D01*
X55720918Y-121640533D02*
X55673299Y-121783390D01*
X55673299Y-121783390D02*
X55101871Y-122354819D01*
X55101871Y-122354819D02*
X55720918Y-122354819D01*
X56339966Y-121354819D02*
X56435204Y-121354819D01*
X56435204Y-121354819D02*
X56530442Y-121402438D01*
X56530442Y-121402438D02*
X56578061Y-121450057D01*
X56578061Y-121450057D02*
X56625680Y-121545295D01*
X56625680Y-121545295D02*
X56673299Y-121735771D01*
X56673299Y-121735771D02*
X56673299Y-121973866D01*
X56673299Y-121973866D02*
X56625680Y-122164342D01*
X56625680Y-122164342D02*
X56578061Y-122259580D01*
X56578061Y-122259580D02*
X56530442Y-122307200D01*
X56530442Y-122307200D02*
X56435204Y-122354819D01*
X56435204Y-122354819D02*
X56339966Y-122354819D01*
X56339966Y-122354819D02*
X56244728Y-122307200D01*
X56244728Y-122307200D02*
X56197109Y-122259580D01*
X56197109Y-122259580D02*
X56149490Y-122164342D01*
X56149490Y-122164342D02*
X56101871Y-121973866D01*
X56101871Y-121973866D02*
X56101871Y-121735771D01*
X56101871Y-121735771D02*
X56149490Y-121545295D01*
X56149490Y-121545295D02*
X56197109Y-121450057D01*
X56197109Y-121450057D02*
X56244728Y-121402438D01*
X56244728Y-121402438D02*
X56339966Y-121354819D01*
X121757142Y-75254819D02*
X121423809Y-74778628D01*
X121185714Y-75254819D02*
X121185714Y-74254819D01*
X121185714Y-74254819D02*
X121566666Y-74254819D01*
X121566666Y-74254819D02*
X121661904Y-74302438D01*
X121661904Y-74302438D02*
X121709523Y-74350057D01*
X121709523Y-74350057D02*
X121757142Y-74445295D01*
X121757142Y-74445295D02*
X121757142Y-74588152D01*
X121757142Y-74588152D02*
X121709523Y-74683390D01*
X121709523Y-74683390D02*
X121661904Y-74731009D01*
X121661904Y-74731009D02*
X121566666Y-74778628D01*
X121566666Y-74778628D02*
X121185714Y-74778628D01*
X122709523Y-75254819D02*
X122138095Y-75254819D01*
X122423809Y-75254819D02*
X122423809Y-74254819D01*
X122423809Y-74254819D02*
X122328571Y-74397676D01*
X122328571Y-74397676D02*
X122233333Y-74492914D01*
X122233333Y-74492914D02*
X122138095Y-74540533D01*
X123328571Y-74254819D02*
X123423809Y-74254819D01*
X123423809Y-74254819D02*
X123519047Y-74302438D01*
X123519047Y-74302438D02*
X123566666Y-74350057D01*
X123566666Y-74350057D02*
X123614285Y-74445295D01*
X123614285Y-74445295D02*
X123661904Y-74635771D01*
X123661904Y-74635771D02*
X123661904Y-74873866D01*
X123661904Y-74873866D02*
X123614285Y-75064342D01*
X123614285Y-75064342D02*
X123566666Y-75159580D01*
X123566666Y-75159580D02*
X123519047Y-75207200D01*
X123519047Y-75207200D02*
X123423809Y-75254819D01*
X123423809Y-75254819D02*
X123328571Y-75254819D01*
X123328571Y-75254819D02*
X123233333Y-75207200D01*
X123233333Y-75207200D02*
X123185714Y-75159580D01*
X123185714Y-75159580D02*
X123138095Y-75064342D01*
X123138095Y-75064342D02*
X123090476Y-74873866D01*
X123090476Y-74873866D02*
X123090476Y-74635771D01*
X123090476Y-74635771D02*
X123138095Y-74445295D01*
X123138095Y-74445295D02*
X123185714Y-74350057D01*
X123185714Y-74350057D02*
X123233333Y-74302438D01*
X123233333Y-74302438D02*
X123328571Y-74254819D01*
X106531009Y-129433333D02*
X106578628Y-129290476D01*
X106578628Y-129290476D02*
X106626247Y-129242857D01*
X106626247Y-129242857D02*
X106721485Y-129195238D01*
X106721485Y-129195238D02*
X106864342Y-129195238D01*
X106864342Y-129195238D02*
X106959580Y-129242857D01*
X106959580Y-129242857D02*
X107007200Y-129290476D01*
X107007200Y-129290476D02*
X107054819Y-129385714D01*
X107054819Y-129385714D02*
X107054819Y-129766666D01*
X107054819Y-129766666D02*
X106054819Y-129766666D01*
X106054819Y-129766666D02*
X106054819Y-129433333D01*
X106054819Y-129433333D02*
X106102438Y-129338095D01*
X106102438Y-129338095D02*
X106150057Y-129290476D01*
X106150057Y-129290476D02*
X106245295Y-129242857D01*
X106245295Y-129242857D02*
X106340533Y-129242857D01*
X106340533Y-129242857D02*
X106435771Y-129290476D01*
X106435771Y-129290476D02*
X106483390Y-129338095D01*
X106483390Y-129338095D02*
X106531009Y-129433333D01*
X106531009Y-129433333D02*
X106531009Y-129766666D01*
X107054819Y-128766666D02*
X106054819Y-128766666D01*
X106054819Y-128766666D02*
X106054819Y-128385714D01*
X106054819Y-128385714D02*
X106102438Y-128290476D01*
X106102438Y-128290476D02*
X106150057Y-128242857D01*
X106150057Y-128242857D02*
X106245295Y-128195238D01*
X106245295Y-128195238D02*
X106388152Y-128195238D01*
X106388152Y-128195238D02*
X106483390Y-128242857D01*
X106483390Y-128242857D02*
X106531009Y-128290476D01*
X106531009Y-128290476D02*
X106578628Y-128385714D01*
X106578628Y-128385714D02*
X106578628Y-128766666D01*
X106531009Y-127433333D02*
X106531009Y-127766666D01*
X107054819Y-127766666D02*
X106054819Y-127766666D01*
X106054819Y-127766666D02*
X106054819Y-127290476D01*
X106150057Y-126957142D02*
X106102438Y-126909523D01*
X106102438Y-126909523D02*
X106054819Y-126814285D01*
X106054819Y-126814285D02*
X106054819Y-126576190D01*
X106054819Y-126576190D02*
X106102438Y-126480952D01*
X106102438Y-126480952D02*
X106150057Y-126433333D01*
X106150057Y-126433333D02*
X106245295Y-126385714D01*
X106245295Y-126385714D02*
X106340533Y-126385714D01*
X106340533Y-126385714D02*
X106483390Y-126433333D01*
X106483390Y-126433333D02*
X107054819Y-127004761D01*
X107054819Y-127004761D02*
X107054819Y-126385714D01*
X109234819Y-129914399D02*
X109472914Y-129914399D01*
X109377676Y-130152494D02*
X109472914Y-129914399D01*
X109472914Y-129914399D02*
X109377676Y-129676304D01*
X109663390Y-130057256D02*
X109472914Y-129914399D01*
X109472914Y-129914399D02*
X109663390Y-129771542D01*
X63796323Y-112864819D02*
X63320133Y-112864819D01*
X63320133Y-112864819D02*
X63320133Y-111864819D01*
X64129657Y-112864819D02*
X64129657Y-111864819D01*
X64129657Y-111864819D02*
X64367752Y-111864819D01*
X64367752Y-111864819D02*
X64510609Y-111912438D01*
X64510609Y-111912438D02*
X64605847Y-112007676D01*
X64605847Y-112007676D02*
X64653466Y-112102914D01*
X64653466Y-112102914D02*
X64701085Y-112293390D01*
X64701085Y-112293390D02*
X64701085Y-112436247D01*
X64701085Y-112436247D02*
X64653466Y-112626723D01*
X64653466Y-112626723D02*
X64605847Y-112721961D01*
X64605847Y-112721961D02*
X64510609Y-112817200D01*
X64510609Y-112817200D02*
X64367752Y-112864819D01*
X64367752Y-112864819D02*
X64129657Y-112864819D01*
X65320133Y-111864819D02*
X65510609Y-111864819D01*
X65510609Y-111864819D02*
X65605847Y-111912438D01*
X65605847Y-111912438D02*
X65701085Y-112007676D01*
X65701085Y-112007676D02*
X65748704Y-112198152D01*
X65748704Y-112198152D02*
X65748704Y-112531485D01*
X65748704Y-112531485D02*
X65701085Y-112721961D01*
X65701085Y-112721961D02*
X65605847Y-112817200D01*
X65605847Y-112817200D02*
X65510609Y-112864819D01*
X65510609Y-112864819D02*
X65320133Y-112864819D01*
X65320133Y-112864819D02*
X65224895Y-112817200D01*
X65224895Y-112817200D02*
X65129657Y-112721961D01*
X65129657Y-112721961D02*
X65082038Y-112531485D01*
X65082038Y-112531485D02*
X65082038Y-112198152D01*
X65082038Y-112198152D02*
X65129657Y-112007676D01*
X65129657Y-112007676D02*
X65224895Y-111912438D01*
X65224895Y-111912438D02*
X65320133Y-111864819D01*
X66701085Y-112864819D02*
X66129657Y-112864819D01*
X66415371Y-112864819D02*
X66415371Y-111864819D01*
X66415371Y-111864819D02*
X66320133Y-112007676D01*
X66320133Y-112007676D02*
X66224895Y-112102914D01*
X66224895Y-112102914D02*
X66129657Y-112150533D01*
X88207142Y-103004580D02*
X88159523Y-103052200D01*
X88159523Y-103052200D02*
X88016666Y-103099819D01*
X88016666Y-103099819D02*
X87921428Y-103099819D01*
X87921428Y-103099819D02*
X87778571Y-103052200D01*
X87778571Y-103052200D02*
X87683333Y-102956961D01*
X87683333Y-102956961D02*
X87635714Y-102861723D01*
X87635714Y-102861723D02*
X87588095Y-102671247D01*
X87588095Y-102671247D02*
X87588095Y-102528390D01*
X87588095Y-102528390D02*
X87635714Y-102337914D01*
X87635714Y-102337914D02*
X87683333Y-102242676D01*
X87683333Y-102242676D02*
X87778571Y-102147438D01*
X87778571Y-102147438D02*
X87921428Y-102099819D01*
X87921428Y-102099819D02*
X88016666Y-102099819D01*
X88016666Y-102099819D02*
X88159523Y-102147438D01*
X88159523Y-102147438D02*
X88207142Y-102195057D01*
X88540476Y-102099819D02*
X89159523Y-102099819D01*
X89159523Y-102099819D02*
X88826190Y-102480771D01*
X88826190Y-102480771D02*
X88969047Y-102480771D01*
X88969047Y-102480771D02*
X89064285Y-102528390D01*
X89064285Y-102528390D02*
X89111904Y-102576009D01*
X89111904Y-102576009D02*
X89159523Y-102671247D01*
X89159523Y-102671247D02*
X89159523Y-102909342D01*
X89159523Y-102909342D02*
X89111904Y-103004580D01*
X89111904Y-103004580D02*
X89064285Y-103052200D01*
X89064285Y-103052200D02*
X88969047Y-103099819D01*
X88969047Y-103099819D02*
X88683333Y-103099819D01*
X88683333Y-103099819D02*
X88588095Y-103052200D01*
X88588095Y-103052200D02*
X88540476Y-103004580D01*
X90016666Y-102099819D02*
X89826190Y-102099819D01*
X89826190Y-102099819D02*
X89730952Y-102147438D01*
X89730952Y-102147438D02*
X89683333Y-102195057D01*
X89683333Y-102195057D02*
X89588095Y-102337914D01*
X89588095Y-102337914D02*
X89540476Y-102528390D01*
X89540476Y-102528390D02*
X89540476Y-102909342D01*
X89540476Y-102909342D02*
X89588095Y-103004580D01*
X89588095Y-103004580D02*
X89635714Y-103052200D01*
X89635714Y-103052200D02*
X89730952Y-103099819D01*
X89730952Y-103099819D02*
X89921428Y-103099819D01*
X89921428Y-103099819D02*
X90016666Y-103052200D01*
X90016666Y-103052200D02*
X90064285Y-103004580D01*
X90064285Y-103004580D02*
X90111904Y-102909342D01*
X90111904Y-102909342D02*
X90111904Y-102671247D01*
X90111904Y-102671247D02*
X90064285Y-102576009D01*
X90064285Y-102576009D02*
X90016666Y-102528390D01*
X90016666Y-102528390D02*
X89921428Y-102480771D01*
X89921428Y-102480771D02*
X89730952Y-102480771D01*
X89730952Y-102480771D02*
X89635714Y-102528390D01*
X89635714Y-102528390D02*
X89588095Y-102576009D01*
X89588095Y-102576009D02*
X89540476Y-102671247D01*
X135611904Y-83531009D02*
X135278571Y-83531009D01*
X135278571Y-84054819D02*
X135278571Y-83054819D01*
X135278571Y-83054819D02*
X135754761Y-83054819D01*
X136611904Y-84054819D02*
X136135714Y-84054819D01*
X136135714Y-84054819D02*
X136135714Y-83054819D01*
X137469047Y-84054819D02*
X136897619Y-84054819D01*
X137183333Y-84054819D02*
X137183333Y-83054819D01*
X137183333Y-83054819D02*
X137088095Y-83197676D01*
X137088095Y-83197676D02*
X136992857Y-83292914D01*
X136992857Y-83292914D02*
X136897619Y-83340533D01*
X133964120Y-86599999D02*
X134202215Y-86599999D01*
X134106977Y-86838094D02*
X134202215Y-86599999D01*
X134202215Y-86599999D02*
X134106977Y-86361904D01*
X134392691Y-86742856D02*
X134202215Y-86599999D01*
X134202215Y-86599999D02*
X134392691Y-86457142D01*
X51878619Y-84385713D02*
X51878619Y-83814285D01*
X52878619Y-84099999D02*
X51878619Y-84099999D01*
X51878619Y-83480951D02*
X52688142Y-83480951D01*
X52688142Y-83480951D02*
X52783380Y-83433332D01*
X52783380Y-83433332D02*
X52831000Y-83385713D01*
X52831000Y-83385713D02*
X52878619Y-83290475D01*
X52878619Y-83290475D02*
X52878619Y-83099999D01*
X52878619Y-83099999D02*
X52831000Y-83004761D01*
X52831000Y-83004761D02*
X52783380Y-82957142D01*
X52783380Y-82957142D02*
X52688142Y-82909523D01*
X52688142Y-82909523D02*
X51878619Y-82909523D01*
X52878619Y-82433332D02*
X51878619Y-82433332D01*
X51878619Y-82433332D02*
X52878619Y-81861904D01*
X52878619Y-81861904D02*
X51878619Y-81861904D01*
X52354809Y-81385713D02*
X52354809Y-81052380D01*
X52878619Y-80909523D02*
X52878619Y-81385713D01*
X52878619Y-81385713D02*
X51878619Y-81385713D01*
X51878619Y-81385713D02*
X51878619Y-80909523D01*
D11*
X81292857Y-86164794D02*
X81171904Y-86104318D01*
X81171904Y-86104318D02*
X80990476Y-86104318D01*
X80990476Y-86104318D02*
X80809047Y-86164794D01*
X80809047Y-86164794D02*
X80688095Y-86285746D01*
X80688095Y-86285746D02*
X80627618Y-86406699D01*
X80627618Y-86406699D02*
X80567142Y-86648603D01*
X80567142Y-86648603D02*
X80567142Y-86830032D01*
X80567142Y-86830032D02*
X80627618Y-87071937D01*
X80627618Y-87071937D02*
X80688095Y-87192889D01*
X80688095Y-87192889D02*
X80809047Y-87313842D01*
X80809047Y-87313842D02*
X80990476Y-87374318D01*
X80990476Y-87374318D02*
X81111428Y-87374318D01*
X81111428Y-87374318D02*
X81292857Y-87313842D01*
X81292857Y-87313842D02*
X81353333Y-87253365D01*
X81353333Y-87253365D02*
X81353333Y-86830032D01*
X81353333Y-86830032D02*
X81111428Y-86830032D01*
X82320952Y-86709080D02*
X82502380Y-86769556D01*
X82502380Y-86769556D02*
X82562857Y-86830032D01*
X82562857Y-86830032D02*
X82623333Y-86950984D01*
X82623333Y-86950984D02*
X82623333Y-87132413D01*
X82623333Y-87132413D02*
X82562857Y-87253365D01*
X82562857Y-87253365D02*
X82502380Y-87313842D01*
X82502380Y-87313842D02*
X82381428Y-87374318D01*
X82381428Y-87374318D02*
X81897618Y-87374318D01*
X81897618Y-87374318D02*
X81897618Y-86104318D01*
X81897618Y-86104318D02*
X82320952Y-86104318D01*
X82320952Y-86104318D02*
X82441904Y-86164794D01*
X82441904Y-86164794D02*
X82502380Y-86225270D01*
X82502380Y-86225270D02*
X82562857Y-86346222D01*
X82562857Y-86346222D02*
X82562857Y-86467175D01*
X82562857Y-86467175D02*
X82502380Y-86588127D01*
X82502380Y-86588127D02*
X82441904Y-86648603D01*
X82441904Y-86648603D02*
X82320952Y-86709080D01*
X82320952Y-86709080D02*
X81897618Y-86709080D01*
X83832857Y-87374318D02*
X83107142Y-87374318D01*
X83469999Y-87374318D02*
X83469999Y-86104318D01*
X83469999Y-86104318D02*
X83349047Y-86285746D01*
X83349047Y-86285746D02*
X83228095Y-86406699D01*
X83228095Y-86406699D02*
X83107142Y-86467175D01*
D10*
X97670833Y-103349819D02*
X97194643Y-103349819D01*
X97194643Y-103349819D02*
X97194643Y-102349819D01*
X98147024Y-102778390D02*
X98051786Y-102730771D01*
X98051786Y-102730771D02*
X98004167Y-102683152D01*
X98004167Y-102683152D02*
X97956548Y-102587914D01*
X97956548Y-102587914D02*
X97956548Y-102540295D01*
X97956548Y-102540295D02*
X98004167Y-102445057D01*
X98004167Y-102445057D02*
X98051786Y-102397438D01*
X98051786Y-102397438D02*
X98147024Y-102349819D01*
X98147024Y-102349819D02*
X98337500Y-102349819D01*
X98337500Y-102349819D02*
X98432738Y-102397438D01*
X98432738Y-102397438D02*
X98480357Y-102445057D01*
X98480357Y-102445057D02*
X98527976Y-102540295D01*
X98527976Y-102540295D02*
X98527976Y-102587914D01*
X98527976Y-102587914D02*
X98480357Y-102683152D01*
X98480357Y-102683152D02*
X98432738Y-102730771D01*
X98432738Y-102730771D02*
X98337500Y-102778390D01*
X98337500Y-102778390D02*
X98147024Y-102778390D01*
X98147024Y-102778390D02*
X98051786Y-102826009D01*
X98051786Y-102826009D02*
X98004167Y-102873628D01*
X98004167Y-102873628D02*
X97956548Y-102968866D01*
X97956548Y-102968866D02*
X97956548Y-103159342D01*
X97956548Y-103159342D02*
X98004167Y-103254580D01*
X98004167Y-103254580D02*
X98051786Y-103302200D01*
X98051786Y-103302200D02*
X98147024Y-103349819D01*
X98147024Y-103349819D02*
X98337500Y-103349819D01*
X98337500Y-103349819D02*
X98432738Y-103302200D01*
X98432738Y-103302200D02*
X98480357Y-103254580D01*
X98480357Y-103254580D02*
X98527976Y-103159342D01*
X98527976Y-103159342D02*
X98527976Y-102968866D01*
X98527976Y-102968866D02*
X98480357Y-102873628D01*
X98480357Y-102873628D02*
X98432738Y-102826009D01*
X98432738Y-102826009D02*
X98337500Y-102778390D01*
D11*
X101286461Y-78528952D02*
X101286461Y-77924190D01*
X101649318Y-78649904D02*
X100379318Y-78226571D01*
X100379318Y-78226571D02*
X101649318Y-77803237D01*
X100379318Y-77561333D02*
X100379318Y-76835619D01*
X101649318Y-77198476D02*
X100379318Y-77198476D01*
X100379318Y-75807524D02*
X100379318Y-76412286D01*
X100379318Y-76412286D02*
X100984080Y-76472762D01*
X100984080Y-76472762D02*
X100923603Y-76412286D01*
X100923603Y-76412286D02*
X100863127Y-76291333D01*
X100863127Y-76291333D02*
X100863127Y-75988952D01*
X100863127Y-75988952D02*
X100923603Y-75868000D01*
X100923603Y-75868000D02*
X100984080Y-75807524D01*
X100984080Y-75807524D02*
X101105032Y-75747047D01*
X101105032Y-75747047D02*
X101407413Y-75747047D01*
X101407413Y-75747047D02*
X101528365Y-75807524D01*
X101528365Y-75807524D02*
X101588842Y-75868000D01*
X101588842Y-75868000D02*
X101649318Y-75988952D01*
X101649318Y-75988952D02*
X101649318Y-76291333D01*
X101649318Y-76291333D02*
X101588842Y-76412286D01*
X101588842Y-76412286D02*
X101528365Y-76472762D01*
D10*
X82644642Y-107404819D02*
X82311309Y-106928628D01*
X82073214Y-107404819D02*
X82073214Y-106404819D01*
X82073214Y-106404819D02*
X82454166Y-106404819D01*
X82454166Y-106404819D02*
X82549404Y-106452438D01*
X82549404Y-106452438D02*
X82597023Y-106500057D01*
X82597023Y-106500057D02*
X82644642Y-106595295D01*
X82644642Y-106595295D02*
X82644642Y-106738152D01*
X82644642Y-106738152D02*
X82597023Y-106833390D01*
X82597023Y-106833390D02*
X82549404Y-106881009D01*
X82549404Y-106881009D02*
X82454166Y-106928628D01*
X82454166Y-106928628D02*
X82073214Y-106928628D01*
X83597023Y-107404819D02*
X83025595Y-107404819D01*
X83311309Y-107404819D02*
X83311309Y-106404819D01*
X83311309Y-106404819D02*
X83216071Y-106547676D01*
X83216071Y-106547676D02*
X83120833Y-106642914D01*
X83120833Y-106642914D02*
X83025595Y-106690533D01*
X83977976Y-106500057D02*
X84025595Y-106452438D01*
X84025595Y-106452438D02*
X84120833Y-106404819D01*
X84120833Y-106404819D02*
X84358928Y-106404819D01*
X84358928Y-106404819D02*
X84454166Y-106452438D01*
X84454166Y-106452438D02*
X84501785Y-106500057D01*
X84501785Y-106500057D02*
X84549404Y-106595295D01*
X84549404Y-106595295D02*
X84549404Y-106690533D01*
X84549404Y-106690533D02*
X84501785Y-106833390D01*
X84501785Y-106833390D02*
X83930357Y-107404819D01*
X83930357Y-107404819D02*
X84549404Y-107404819D01*
X109266666Y-71854819D02*
X109266666Y-72569104D01*
X109266666Y-72569104D02*
X109219047Y-72711961D01*
X109219047Y-72711961D02*
X109123809Y-72807200D01*
X109123809Y-72807200D02*
X108980952Y-72854819D01*
X108980952Y-72854819D02*
X108885714Y-72854819D01*
X109647619Y-71854819D02*
X110314285Y-71854819D01*
X110314285Y-71854819D02*
X109885714Y-72854819D01*
X83004819Y-104055357D02*
X82528628Y-104388690D01*
X83004819Y-104626785D02*
X82004819Y-104626785D01*
X82004819Y-104626785D02*
X82004819Y-104245833D01*
X82004819Y-104245833D02*
X82052438Y-104150595D01*
X82052438Y-104150595D02*
X82100057Y-104102976D01*
X82100057Y-104102976D02*
X82195295Y-104055357D01*
X82195295Y-104055357D02*
X82338152Y-104055357D01*
X82338152Y-104055357D02*
X82433390Y-104102976D01*
X82433390Y-104102976D02*
X82481009Y-104150595D01*
X82481009Y-104150595D02*
X82528628Y-104245833D01*
X82528628Y-104245833D02*
X82528628Y-104626785D01*
X83004819Y-103102976D02*
X83004819Y-103674404D01*
X83004819Y-103388690D02*
X82004819Y-103388690D01*
X82004819Y-103388690D02*
X82147676Y-103483928D01*
X82147676Y-103483928D02*
X82242914Y-103579166D01*
X82242914Y-103579166D02*
X82290533Y-103674404D01*
X82338152Y-102245833D02*
X83004819Y-102245833D01*
X81957200Y-102483928D02*
X82671485Y-102722023D01*
X82671485Y-102722023D02*
X82671485Y-102102976D01*
X133557142Y-88559580D02*
X133509523Y-88607200D01*
X133509523Y-88607200D02*
X133366666Y-88654819D01*
X133366666Y-88654819D02*
X133271428Y-88654819D01*
X133271428Y-88654819D02*
X133128571Y-88607200D01*
X133128571Y-88607200D02*
X133033333Y-88511961D01*
X133033333Y-88511961D02*
X132985714Y-88416723D01*
X132985714Y-88416723D02*
X132938095Y-88226247D01*
X132938095Y-88226247D02*
X132938095Y-88083390D01*
X132938095Y-88083390D02*
X132985714Y-87892914D01*
X132985714Y-87892914D02*
X133033333Y-87797676D01*
X133033333Y-87797676D02*
X133128571Y-87702438D01*
X133128571Y-87702438D02*
X133271428Y-87654819D01*
X133271428Y-87654819D02*
X133366666Y-87654819D01*
X133366666Y-87654819D02*
X133509523Y-87702438D01*
X133509523Y-87702438D02*
X133557142Y-87750057D01*
X133938095Y-87750057D02*
X133985714Y-87702438D01*
X133985714Y-87702438D02*
X134080952Y-87654819D01*
X134080952Y-87654819D02*
X134319047Y-87654819D01*
X134319047Y-87654819D02*
X134414285Y-87702438D01*
X134414285Y-87702438D02*
X134461904Y-87750057D01*
X134461904Y-87750057D02*
X134509523Y-87845295D01*
X134509523Y-87845295D02*
X134509523Y-87940533D01*
X134509523Y-87940533D02*
X134461904Y-88083390D01*
X134461904Y-88083390D02*
X133890476Y-88654819D01*
X133890476Y-88654819D02*
X134509523Y-88654819D01*
X134842857Y-87654819D02*
X135461904Y-87654819D01*
X135461904Y-87654819D02*
X135128571Y-88035771D01*
X135128571Y-88035771D02*
X135271428Y-88035771D01*
X135271428Y-88035771D02*
X135366666Y-88083390D01*
X135366666Y-88083390D02*
X135414285Y-88131009D01*
X135414285Y-88131009D02*
X135461904Y-88226247D01*
X135461904Y-88226247D02*
X135461904Y-88464342D01*
X135461904Y-88464342D02*
X135414285Y-88559580D01*
X135414285Y-88559580D02*
X135366666Y-88607200D01*
X135366666Y-88607200D02*
X135271428Y-88654819D01*
X135271428Y-88654819D02*
X134985714Y-88654819D01*
X134985714Y-88654819D02*
X134890476Y-88607200D01*
X134890476Y-88607200D02*
X134842857Y-88559580D01*
X145866666Y-72254819D02*
X145866666Y-72969104D01*
X145866666Y-72969104D02*
X145819047Y-73111961D01*
X145819047Y-73111961D02*
X145723809Y-73207200D01*
X145723809Y-73207200D02*
X145580952Y-73254819D01*
X145580952Y-73254819D02*
X145485714Y-73254819D01*
X146819047Y-72254819D02*
X146342857Y-72254819D01*
X146342857Y-72254819D02*
X146295238Y-72731009D01*
X146295238Y-72731009D02*
X146342857Y-72683390D01*
X146342857Y-72683390D02*
X146438095Y-72635771D01*
X146438095Y-72635771D02*
X146676190Y-72635771D01*
X146676190Y-72635771D02*
X146771428Y-72683390D01*
X146771428Y-72683390D02*
X146819047Y-72731009D01*
X146819047Y-72731009D02*
X146866666Y-72826247D01*
X146866666Y-72826247D02*
X146866666Y-73064342D01*
X146866666Y-73064342D02*
X146819047Y-73159580D01*
X146819047Y-73159580D02*
X146771428Y-73207200D01*
X146771428Y-73207200D02*
X146676190Y-73254819D01*
X146676190Y-73254819D02*
X146438095Y-73254819D01*
X146438095Y-73254819D02*
X146342857Y-73207200D01*
X146342857Y-73207200D02*
X146295238Y-73159580D01*
D11*
X138211461Y-78990952D02*
X138211461Y-78386190D01*
X138574318Y-79111904D02*
X137304318Y-78688571D01*
X137304318Y-78688571D02*
X138574318Y-78265237D01*
X137304318Y-78023333D02*
X137304318Y-77297619D01*
X138574318Y-77660476D02*
X137304318Y-77660476D01*
X137304318Y-76330000D02*
X137304318Y-76571905D01*
X137304318Y-76571905D02*
X137364794Y-76692857D01*
X137364794Y-76692857D02*
X137425270Y-76753333D01*
X137425270Y-76753333D02*
X137606699Y-76874286D01*
X137606699Y-76874286D02*
X137848603Y-76934762D01*
X137848603Y-76934762D02*
X138332413Y-76934762D01*
X138332413Y-76934762D02*
X138453365Y-76874286D01*
X138453365Y-76874286D02*
X138513842Y-76813809D01*
X138513842Y-76813809D02*
X138574318Y-76692857D01*
X138574318Y-76692857D02*
X138574318Y-76450952D01*
X138574318Y-76450952D02*
X138513842Y-76330000D01*
X138513842Y-76330000D02*
X138453365Y-76269524D01*
X138453365Y-76269524D02*
X138332413Y-76209047D01*
X138332413Y-76209047D02*
X138030032Y-76209047D01*
X138030032Y-76209047D02*
X137909080Y-76269524D01*
X137909080Y-76269524D02*
X137848603Y-76330000D01*
X137848603Y-76330000D02*
X137788127Y-76450952D01*
X137788127Y-76450952D02*
X137788127Y-76692857D01*
X137788127Y-76692857D02*
X137848603Y-76813809D01*
X137848603Y-76813809D02*
X137909080Y-76874286D01*
X137909080Y-76874286D02*
X138030032Y-76934762D01*
D10*
X89206819Y-115928570D02*
X88206819Y-115928570D01*
X88683009Y-115119047D02*
X88683009Y-115452380D01*
X89206819Y-115452380D02*
X88206819Y-115452380D01*
X88206819Y-115452380D02*
X88206819Y-114976190D01*
X100329580Y-105917857D02*
X100377200Y-105965476D01*
X100377200Y-105965476D02*
X100424819Y-106108333D01*
X100424819Y-106108333D02*
X100424819Y-106203571D01*
X100424819Y-106203571D02*
X100377200Y-106346428D01*
X100377200Y-106346428D02*
X100281961Y-106441666D01*
X100281961Y-106441666D02*
X100186723Y-106489285D01*
X100186723Y-106489285D02*
X99996247Y-106536904D01*
X99996247Y-106536904D02*
X99853390Y-106536904D01*
X99853390Y-106536904D02*
X99662914Y-106489285D01*
X99662914Y-106489285D02*
X99567676Y-106441666D01*
X99567676Y-106441666D02*
X99472438Y-106346428D01*
X99472438Y-106346428D02*
X99424819Y-106203571D01*
X99424819Y-106203571D02*
X99424819Y-106108333D01*
X99424819Y-106108333D02*
X99472438Y-105965476D01*
X99472438Y-105965476D02*
X99520057Y-105917857D01*
X99424819Y-105584523D02*
X99424819Y-104965476D01*
X99424819Y-104965476D02*
X99805771Y-105298809D01*
X99805771Y-105298809D02*
X99805771Y-105155952D01*
X99805771Y-105155952D02*
X99853390Y-105060714D01*
X99853390Y-105060714D02*
X99901009Y-105013095D01*
X99901009Y-105013095D02*
X99996247Y-104965476D01*
X99996247Y-104965476D02*
X100234342Y-104965476D01*
X100234342Y-104965476D02*
X100329580Y-105013095D01*
X100329580Y-105013095D02*
X100377200Y-105060714D01*
X100377200Y-105060714D02*
X100424819Y-105155952D01*
X100424819Y-105155952D02*
X100424819Y-105441666D01*
X100424819Y-105441666D02*
X100377200Y-105536904D01*
X100377200Y-105536904D02*
X100329580Y-105584523D01*
X99758152Y-104108333D02*
X100424819Y-104108333D01*
X99377200Y-104346428D02*
X100091485Y-104584523D01*
X100091485Y-104584523D02*
X100091485Y-103965476D01*
X118157142Y-113054819D02*
X117823809Y-112578628D01*
X117585714Y-113054819D02*
X117585714Y-112054819D01*
X117585714Y-112054819D02*
X117966666Y-112054819D01*
X117966666Y-112054819D02*
X118061904Y-112102438D01*
X118061904Y-112102438D02*
X118109523Y-112150057D01*
X118109523Y-112150057D02*
X118157142Y-112245295D01*
X118157142Y-112245295D02*
X118157142Y-112388152D01*
X118157142Y-112388152D02*
X118109523Y-112483390D01*
X118109523Y-112483390D02*
X118061904Y-112531009D01*
X118061904Y-112531009D02*
X117966666Y-112578628D01*
X117966666Y-112578628D02*
X117585714Y-112578628D01*
X119109523Y-113054819D02*
X118538095Y-113054819D01*
X118823809Y-113054819D02*
X118823809Y-112054819D01*
X118823809Y-112054819D02*
X118728571Y-112197676D01*
X118728571Y-112197676D02*
X118633333Y-112292914D01*
X118633333Y-112292914D02*
X118538095Y-112340533D01*
X120061904Y-113054819D02*
X119490476Y-113054819D01*
X119776190Y-113054819D02*
X119776190Y-112054819D01*
X119776190Y-112054819D02*
X119680952Y-112197676D01*
X119680952Y-112197676D02*
X119585714Y-112292914D01*
X119585714Y-112292914D02*
X119490476Y-112340533D01*
D11*
X110215047Y-86918461D02*
X110819809Y-86918461D01*
X110094095Y-87281318D02*
X110517428Y-86011318D01*
X110517428Y-86011318D02*
X110940762Y-87281318D01*
X111182666Y-86011318D02*
X111908380Y-86011318D01*
X111545523Y-87281318D02*
X111545523Y-86011318D01*
X112210761Y-86011318D02*
X112996952Y-86011318D01*
X112996952Y-86011318D02*
X112573618Y-86495127D01*
X112573618Y-86495127D02*
X112755047Y-86495127D01*
X112755047Y-86495127D02*
X112875999Y-86555603D01*
X112875999Y-86555603D02*
X112936475Y-86616080D01*
X112936475Y-86616080D02*
X112996952Y-86737032D01*
X112996952Y-86737032D02*
X112996952Y-87039413D01*
X112996952Y-87039413D02*
X112936475Y-87160365D01*
X112936475Y-87160365D02*
X112875999Y-87220842D01*
X112875999Y-87220842D02*
X112755047Y-87281318D01*
X112755047Y-87281318D02*
X112392190Y-87281318D01*
X112392190Y-87281318D02*
X112271237Y-87220842D01*
X112271237Y-87220842D02*
X112210761Y-87160365D01*
D10*
X145466666Y-80354819D02*
X145466666Y-81069104D01*
X145466666Y-81069104D02*
X145419047Y-81211961D01*
X145419047Y-81211961D02*
X145323809Y-81307200D01*
X145323809Y-81307200D02*
X145180952Y-81354819D01*
X145180952Y-81354819D02*
X145085714Y-81354819D01*
X145895238Y-80450057D02*
X145942857Y-80402438D01*
X145942857Y-80402438D02*
X146038095Y-80354819D01*
X146038095Y-80354819D02*
X146276190Y-80354819D01*
X146276190Y-80354819D02*
X146371428Y-80402438D01*
X146371428Y-80402438D02*
X146419047Y-80450057D01*
X146419047Y-80450057D02*
X146466666Y-80545295D01*
X146466666Y-80545295D02*
X146466666Y-80640533D01*
X146466666Y-80640533D02*
X146419047Y-80783390D01*
X146419047Y-80783390D02*
X145847619Y-81354819D01*
X145847619Y-81354819D02*
X146466666Y-81354819D01*
X77955133Y-90659580D02*
X77907514Y-90707200D01*
X77907514Y-90707200D02*
X77764657Y-90754819D01*
X77764657Y-90754819D02*
X77669419Y-90754819D01*
X77669419Y-90754819D02*
X77526562Y-90707200D01*
X77526562Y-90707200D02*
X77431324Y-90611961D01*
X77431324Y-90611961D02*
X77383705Y-90516723D01*
X77383705Y-90516723D02*
X77336086Y-90326247D01*
X77336086Y-90326247D02*
X77336086Y-90183390D01*
X77336086Y-90183390D02*
X77383705Y-89992914D01*
X77383705Y-89992914D02*
X77431324Y-89897676D01*
X77431324Y-89897676D02*
X77526562Y-89802438D01*
X77526562Y-89802438D02*
X77669419Y-89754819D01*
X77669419Y-89754819D02*
X77764657Y-89754819D01*
X77764657Y-89754819D02*
X77907514Y-89802438D01*
X77907514Y-89802438D02*
X77955133Y-89850057D01*
X78336086Y-89850057D02*
X78383705Y-89802438D01*
X78383705Y-89802438D02*
X78478943Y-89754819D01*
X78478943Y-89754819D02*
X78717038Y-89754819D01*
X78717038Y-89754819D02*
X78812276Y-89802438D01*
X78812276Y-89802438D02*
X78859895Y-89850057D01*
X78859895Y-89850057D02*
X78907514Y-89945295D01*
X78907514Y-89945295D02*
X78907514Y-90040533D01*
X78907514Y-90040533D02*
X78859895Y-90183390D01*
X78859895Y-90183390D02*
X78288467Y-90754819D01*
X78288467Y-90754819D02*
X78907514Y-90754819D01*
X92329580Y-105917857D02*
X92377200Y-105965476D01*
X92377200Y-105965476D02*
X92424819Y-106108333D01*
X92424819Y-106108333D02*
X92424819Y-106203571D01*
X92424819Y-106203571D02*
X92377200Y-106346428D01*
X92377200Y-106346428D02*
X92281961Y-106441666D01*
X92281961Y-106441666D02*
X92186723Y-106489285D01*
X92186723Y-106489285D02*
X91996247Y-106536904D01*
X91996247Y-106536904D02*
X91853390Y-106536904D01*
X91853390Y-106536904D02*
X91662914Y-106489285D01*
X91662914Y-106489285D02*
X91567676Y-106441666D01*
X91567676Y-106441666D02*
X91472438Y-106346428D01*
X91472438Y-106346428D02*
X91424819Y-106203571D01*
X91424819Y-106203571D02*
X91424819Y-106108333D01*
X91424819Y-106108333D02*
X91472438Y-105965476D01*
X91472438Y-105965476D02*
X91520057Y-105917857D01*
X91424819Y-105584523D02*
X91424819Y-104965476D01*
X91424819Y-104965476D02*
X91805771Y-105298809D01*
X91805771Y-105298809D02*
X91805771Y-105155952D01*
X91805771Y-105155952D02*
X91853390Y-105060714D01*
X91853390Y-105060714D02*
X91901009Y-105013095D01*
X91901009Y-105013095D02*
X91996247Y-104965476D01*
X91996247Y-104965476D02*
X92234342Y-104965476D01*
X92234342Y-104965476D02*
X92329580Y-105013095D01*
X92329580Y-105013095D02*
X92377200Y-105060714D01*
X92377200Y-105060714D02*
X92424819Y-105155952D01*
X92424819Y-105155952D02*
X92424819Y-105441666D01*
X92424819Y-105441666D02*
X92377200Y-105536904D01*
X92377200Y-105536904D02*
X92329580Y-105584523D01*
X91424819Y-104060714D02*
X91424819Y-104536904D01*
X91424819Y-104536904D02*
X91901009Y-104584523D01*
X91901009Y-104584523D02*
X91853390Y-104536904D01*
X91853390Y-104536904D02*
X91805771Y-104441666D01*
X91805771Y-104441666D02*
X91805771Y-104203571D01*
X91805771Y-104203571D02*
X91853390Y-104108333D01*
X91853390Y-104108333D02*
X91901009Y-104060714D01*
X91901009Y-104060714D02*
X91996247Y-104013095D01*
X91996247Y-104013095D02*
X92234342Y-104013095D01*
X92234342Y-104013095D02*
X92329580Y-104060714D01*
X92329580Y-104060714D02*
X92377200Y-104108333D01*
X92377200Y-104108333D02*
X92424819Y-104203571D01*
X92424819Y-104203571D02*
X92424819Y-104441666D01*
X92424819Y-104441666D02*
X92377200Y-104536904D01*
X92377200Y-104536904D02*
X92329580Y-104584523D01*
D11*
X106592857Y-114564794D02*
X106471904Y-114504318D01*
X106471904Y-114504318D02*
X106290476Y-114504318D01*
X106290476Y-114504318D02*
X106109047Y-114564794D01*
X106109047Y-114564794D02*
X105988095Y-114685746D01*
X105988095Y-114685746D02*
X105927618Y-114806699D01*
X105927618Y-114806699D02*
X105867142Y-115048603D01*
X105867142Y-115048603D02*
X105867142Y-115230032D01*
X105867142Y-115230032D02*
X105927618Y-115471937D01*
X105927618Y-115471937D02*
X105988095Y-115592889D01*
X105988095Y-115592889D02*
X106109047Y-115713842D01*
X106109047Y-115713842D02*
X106290476Y-115774318D01*
X106290476Y-115774318D02*
X106411428Y-115774318D01*
X106411428Y-115774318D02*
X106592857Y-115713842D01*
X106592857Y-115713842D02*
X106653333Y-115653365D01*
X106653333Y-115653365D02*
X106653333Y-115230032D01*
X106653333Y-115230032D02*
X106411428Y-115230032D01*
X107620952Y-115109080D02*
X107802380Y-115169556D01*
X107802380Y-115169556D02*
X107862857Y-115230032D01*
X107862857Y-115230032D02*
X107923333Y-115350984D01*
X107923333Y-115350984D02*
X107923333Y-115532413D01*
X107923333Y-115532413D02*
X107862857Y-115653365D01*
X107862857Y-115653365D02*
X107802380Y-115713842D01*
X107802380Y-115713842D02*
X107681428Y-115774318D01*
X107681428Y-115774318D02*
X107197618Y-115774318D01*
X107197618Y-115774318D02*
X107197618Y-114504318D01*
X107197618Y-114504318D02*
X107620952Y-114504318D01*
X107620952Y-114504318D02*
X107741904Y-114564794D01*
X107741904Y-114564794D02*
X107802380Y-114625270D01*
X107802380Y-114625270D02*
X107862857Y-114746222D01*
X107862857Y-114746222D02*
X107862857Y-114867175D01*
X107862857Y-114867175D02*
X107802380Y-114988127D01*
X107802380Y-114988127D02*
X107741904Y-115048603D01*
X107741904Y-115048603D02*
X107620952Y-115109080D01*
X107620952Y-115109080D02*
X107197618Y-115109080D01*
X108407142Y-114625270D02*
X108467618Y-114564794D01*
X108467618Y-114564794D02*
X108588571Y-114504318D01*
X108588571Y-114504318D02*
X108890952Y-114504318D01*
X108890952Y-114504318D02*
X109011904Y-114564794D01*
X109011904Y-114564794D02*
X109072380Y-114625270D01*
X109072380Y-114625270D02*
X109132857Y-114746222D01*
X109132857Y-114746222D02*
X109132857Y-114867175D01*
X109132857Y-114867175D02*
X109072380Y-115048603D01*
X109072380Y-115048603D02*
X108346666Y-115774318D01*
X108346666Y-115774318D02*
X109132857Y-115774318D01*
X126215333Y-82234318D02*
X126215333Y-80964318D01*
X126215333Y-80964318D02*
X126699143Y-80964318D01*
X126699143Y-80964318D02*
X126820095Y-81024794D01*
X126820095Y-81024794D02*
X126880572Y-81085270D01*
X126880572Y-81085270D02*
X126941048Y-81206222D01*
X126941048Y-81206222D02*
X126941048Y-81387651D01*
X126941048Y-81387651D02*
X126880572Y-81508603D01*
X126880572Y-81508603D02*
X126820095Y-81569080D01*
X126820095Y-81569080D02*
X126699143Y-81629556D01*
X126699143Y-81629556D02*
X126215333Y-81629556D01*
X127424857Y-81871461D02*
X128029619Y-81871461D01*
X127303905Y-82234318D02*
X127727238Y-80964318D01*
X127727238Y-80964318D02*
X128150572Y-82234318D01*
X129239143Y-82234318D02*
X128513428Y-82234318D01*
X128876285Y-82234318D02*
X128876285Y-80964318D01*
X128876285Y-80964318D02*
X128755333Y-81145746D01*
X128755333Y-81145746D02*
X128634381Y-81266699D01*
X128634381Y-81266699D02*
X128513428Y-81327175D01*
D10*
X110009580Y-112292857D02*
X110057200Y-112340476D01*
X110057200Y-112340476D02*
X110104819Y-112483333D01*
X110104819Y-112483333D02*
X110104819Y-112578571D01*
X110104819Y-112578571D02*
X110057200Y-112721428D01*
X110057200Y-112721428D02*
X109961961Y-112816666D01*
X109961961Y-112816666D02*
X109866723Y-112864285D01*
X109866723Y-112864285D02*
X109676247Y-112911904D01*
X109676247Y-112911904D02*
X109533390Y-112911904D01*
X109533390Y-112911904D02*
X109342914Y-112864285D01*
X109342914Y-112864285D02*
X109247676Y-112816666D01*
X109247676Y-112816666D02*
X109152438Y-112721428D01*
X109152438Y-112721428D02*
X109104819Y-112578571D01*
X109104819Y-112578571D02*
X109104819Y-112483333D01*
X109104819Y-112483333D02*
X109152438Y-112340476D01*
X109152438Y-112340476D02*
X109200057Y-112292857D01*
X110104819Y-111340476D02*
X110104819Y-111911904D01*
X110104819Y-111626190D02*
X109104819Y-111626190D01*
X109104819Y-111626190D02*
X109247676Y-111721428D01*
X109247676Y-111721428D02*
X109342914Y-111816666D01*
X109342914Y-111816666D02*
X109390533Y-111911904D01*
X110104819Y-110388095D02*
X110104819Y-110959523D01*
X110104819Y-110673809D02*
X109104819Y-110673809D01*
X109104819Y-110673809D02*
X109247676Y-110769047D01*
X109247676Y-110769047D02*
X109342914Y-110864285D01*
X109342914Y-110864285D02*
X109390533Y-110959523D01*
D12*
X96536980Y-82716666D02*
X96584600Y-82764285D01*
X96584600Y-82764285D02*
X96632219Y-82907142D01*
X96632219Y-82907142D02*
X96632219Y-83002380D01*
X96632219Y-83002380D02*
X96584600Y-83145237D01*
X96584600Y-83145237D02*
X96489361Y-83240475D01*
X96489361Y-83240475D02*
X96394123Y-83288094D01*
X96394123Y-83288094D02*
X96203647Y-83335713D01*
X96203647Y-83335713D02*
X96060790Y-83335713D01*
X96060790Y-83335713D02*
X95870314Y-83288094D01*
X95870314Y-83288094D02*
X95775076Y-83240475D01*
X95775076Y-83240475D02*
X95679838Y-83145237D01*
X95679838Y-83145237D02*
X95632219Y-83002380D01*
X95632219Y-83002380D02*
X95632219Y-82907142D01*
X95632219Y-82907142D02*
X95679838Y-82764285D01*
X95679838Y-82764285D02*
X95727457Y-82716666D01*
X95965552Y-81859523D02*
X96632219Y-81859523D01*
X95584600Y-82097618D02*
X96298885Y-82335713D01*
X96298885Y-82335713D02*
X96298885Y-81716666D01*
D10*
X118157142Y-117159580D02*
X118109523Y-117207200D01*
X118109523Y-117207200D02*
X117966666Y-117254819D01*
X117966666Y-117254819D02*
X117871428Y-117254819D01*
X117871428Y-117254819D02*
X117728571Y-117207200D01*
X117728571Y-117207200D02*
X117633333Y-117111961D01*
X117633333Y-117111961D02*
X117585714Y-117016723D01*
X117585714Y-117016723D02*
X117538095Y-116826247D01*
X117538095Y-116826247D02*
X117538095Y-116683390D01*
X117538095Y-116683390D02*
X117585714Y-116492914D01*
X117585714Y-116492914D02*
X117633333Y-116397676D01*
X117633333Y-116397676D02*
X117728571Y-116302438D01*
X117728571Y-116302438D02*
X117871428Y-116254819D01*
X117871428Y-116254819D02*
X117966666Y-116254819D01*
X117966666Y-116254819D02*
X118109523Y-116302438D01*
X118109523Y-116302438D02*
X118157142Y-116350057D01*
X119109523Y-117254819D02*
X118538095Y-117254819D01*
X118823809Y-117254819D02*
X118823809Y-116254819D01*
X118823809Y-116254819D02*
X118728571Y-116397676D01*
X118728571Y-116397676D02*
X118633333Y-116492914D01*
X118633333Y-116492914D02*
X118538095Y-116540533D01*
X119490476Y-116350057D02*
X119538095Y-116302438D01*
X119538095Y-116302438D02*
X119633333Y-116254819D01*
X119633333Y-116254819D02*
X119871428Y-116254819D01*
X119871428Y-116254819D02*
X119966666Y-116302438D01*
X119966666Y-116302438D02*
X120014285Y-116350057D01*
X120014285Y-116350057D02*
X120061904Y-116445295D01*
X120061904Y-116445295D02*
X120061904Y-116540533D01*
X120061904Y-116540533D02*
X120014285Y-116683390D01*
X120014285Y-116683390D02*
X119442857Y-117254819D01*
X119442857Y-117254819D02*
X120061904Y-117254819D01*
X55254819Y-128105133D02*
X55969104Y-128105133D01*
X55969104Y-128105133D02*
X56111961Y-128152752D01*
X56111961Y-128152752D02*
X56207200Y-128247990D01*
X56207200Y-128247990D02*
X56254819Y-128390847D01*
X56254819Y-128390847D02*
X56254819Y-128486085D01*
X56254819Y-127105133D02*
X56254819Y-127676561D01*
X56254819Y-127390847D02*
X55254819Y-127390847D01*
X55254819Y-127390847D02*
X55397676Y-127486085D01*
X55397676Y-127486085D02*
X55492914Y-127581323D01*
X55492914Y-127581323D02*
X55540533Y-127676561D01*
X103804819Y-89799166D02*
X103328628Y-90132499D01*
X103804819Y-90370594D02*
X102804819Y-90370594D01*
X102804819Y-90370594D02*
X102804819Y-89989642D01*
X102804819Y-89989642D02*
X102852438Y-89894404D01*
X102852438Y-89894404D02*
X102900057Y-89846785D01*
X102900057Y-89846785D02*
X102995295Y-89799166D01*
X102995295Y-89799166D02*
X103138152Y-89799166D01*
X103138152Y-89799166D02*
X103233390Y-89846785D01*
X103233390Y-89846785D02*
X103281009Y-89894404D01*
X103281009Y-89894404D02*
X103328628Y-89989642D01*
X103328628Y-89989642D02*
X103328628Y-90370594D01*
X102900057Y-89418213D02*
X102852438Y-89370594D01*
X102852438Y-89370594D02*
X102804819Y-89275356D01*
X102804819Y-89275356D02*
X102804819Y-89037261D01*
X102804819Y-89037261D02*
X102852438Y-88942023D01*
X102852438Y-88942023D02*
X102900057Y-88894404D01*
X102900057Y-88894404D02*
X102995295Y-88846785D01*
X102995295Y-88846785D02*
X103090533Y-88846785D01*
X103090533Y-88846785D02*
X103233390Y-88894404D01*
X103233390Y-88894404D02*
X103804819Y-89465832D01*
X103804819Y-89465832D02*
X103804819Y-88846785D01*
X60566667Y-88854819D02*
X60900000Y-89854819D01*
X60900000Y-89854819D02*
X61233333Y-88854819D01*
X62138095Y-89759580D02*
X62090476Y-89807200D01*
X62090476Y-89807200D02*
X61947619Y-89854819D01*
X61947619Y-89854819D02*
X61852381Y-89854819D01*
X61852381Y-89854819D02*
X61709524Y-89807200D01*
X61709524Y-89807200D02*
X61614286Y-89711961D01*
X61614286Y-89711961D02*
X61566667Y-89616723D01*
X61566667Y-89616723D02*
X61519048Y-89426247D01*
X61519048Y-89426247D02*
X61519048Y-89283390D01*
X61519048Y-89283390D02*
X61566667Y-89092914D01*
X61566667Y-89092914D02*
X61614286Y-88997676D01*
X61614286Y-88997676D02*
X61709524Y-88902438D01*
X61709524Y-88902438D02*
X61852381Y-88854819D01*
X61852381Y-88854819D02*
X61947619Y-88854819D01*
X61947619Y-88854819D02*
X62090476Y-88902438D01*
X62090476Y-88902438D02*
X62138095Y-88950057D01*
X62757143Y-88854819D02*
X62947619Y-88854819D01*
X62947619Y-88854819D02*
X63042857Y-88902438D01*
X63042857Y-88902438D02*
X63138095Y-88997676D01*
X63138095Y-88997676D02*
X63185714Y-89188152D01*
X63185714Y-89188152D02*
X63185714Y-89521485D01*
X63185714Y-89521485D02*
X63138095Y-89711961D01*
X63138095Y-89711961D02*
X63042857Y-89807200D01*
X63042857Y-89807200D02*
X62947619Y-89854819D01*
X62947619Y-89854819D02*
X62757143Y-89854819D01*
X62757143Y-89854819D02*
X62661905Y-89807200D01*
X62661905Y-89807200D02*
X62566667Y-89711961D01*
X62566667Y-89711961D02*
X62519048Y-89521485D01*
X62519048Y-89521485D02*
X62519048Y-89188152D01*
X62519048Y-89188152D02*
X62566667Y-88997676D01*
X62566667Y-88997676D02*
X62661905Y-88902438D01*
X62661905Y-88902438D02*
X62757143Y-88854819D01*
X64138095Y-89854819D02*
X63566667Y-89854819D01*
X63852381Y-89854819D02*
X63852381Y-88854819D01*
X63852381Y-88854819D02*
X63757143Y-88997676D01*
X63757143Y-88997676D02*
X63661905Y-89092914D01*
X63661905Y-89092914D02*
X63566667Y-89140533D01*
D11*
X66709047Y-89411461D02*
X67313809Y-89411461D01*
X66588095Y-89774318D02*
X67011428Y-88504318D01*
X67011428Y-88504318D02*
X67434762Y-89774318D01*
X67676666Y-88504318D02*
X68402380Y-88504318D01*
X68039523Y-89774318D02*
X68039523Y-88504318D01*
X68765237Y-88625270D02*
X68825713Y-88564794D01*
X68825713Y-88564794D02*
X68946666Y-88504318D01*
X68946666Y-88504318D02*
X69249047Y-88504318D01*
X69249047Y-88504318D02*
X69369999Y-88564794D01*
X69369999Y-88564794D02*
X69430475Y-88625270D01*
X69430475Y-88625270D02*
X69490952Y-88746222D01*
X69490952Y-88746222D02*
X69490952Y-88867175D01*
X69490952Y-88867175D02*
X69430475Y-89048603D01*
X69430475Y-89048603D02*
X68704761Y-89774318D01*
X68704761Y-89774318D02*
X69490952Y-89774318D01*
D10*
X52607200Y-75133332D02*
X52654819Y-74990475D01*
X52654819Y-74990475D02*
X52654819Y-74752380D01*
X52654819Y-74752380D02*
X52607200Y-74657142D01*
X52607200Y-74657142D02*
X52559580Y-74609523D01*
X52559580Y-74609523D02*
X52464342Y-74561904D01*
X52464342Y-74561904D02*
X52369104Y-74561904D01*
X52369104Y-74561904D02*
X52273866Y-74609523D01*
X52273866Y-74609523D02*
X52226247Y-74657142D01*
X52226247Y-74657142D02*
X52178628Y-74752380D01*
X52178628Y-74752380D02*
X52131009Y-74942856D01*
X52131009Y-74942856D02*
X52083390Y-75038094D01*
X52083390Y-75038094D02*
X52035771Y-75085713D01*
X52035771Y-75085713D02*
X51940533Y-75133332D01*
X51940533Y-75133332D02*
X51845295Y-75133332D01*
X51845295Y-75133332D02*
X51750057Y-75085713D01*
X51750057Y-75085713D02*
X51702438Y-75038094D01*
X51702438Y-75038094D02*
X51654819Y-74942856D01*
X51654819Y-74942856D02*
X51654819Y-74704761D01*
X51654819Y-74704761D02*
X51702438Y-74561904D01*
X51654819Y-74228570D02*
X52654819Y-73990475D01*
X52654819Y-73990475D02*
X51940533Y-73799999D01*
X51940533Y-73799999D02*
X52654819Y-73609523D01*
X52654819Y-73609523D02*
X51654819Y-73371428D01*
X52654819Y-72466666D02*
X52654819Y-73038094D01*
X52654819Y-72752380D02*
X51654819Y-72752380D01*
X51654819Y-72752380D02*
X51797676Y-72847618D01*
X51797676Y-72847618D02*
X51892914Y-72942856D01*
X51892914Y-72942856D02*
X51940533Y-73038094D01*
X66129580Y-97016666D02*
X66177200Y-97064285D01*
X66177200Y-97064285D02*
X66224819Y-97207142D01*
X66224819Y-97207142D02*
X66224819Y-97302380D01*
X66224819Y-97302380D02*
X66177200Y-97445237D01*
X66177200Y-97445237D02*
X66081961Y-97540475D01*
X66081961Y-97540475D02*
X65986723Y-97588094D01*
X65986723Y-97588094D02*
X65796247Y-97635713D01*
X65796247Y-97635713D02*
X65653390Y-97635713D01*
X65653390Y-97635713D02*
X65462914Y-97588094D01*
X65462914Y-97588094D02*
X65367676Y-97540475D01*
X65367676Y-97540475D02*
X65272438Y-97445237D01*
X65272438Y-97445237D02*
X65224819Y-97302380D01*
X65224819Y-97302380D02*
X65224819Y-97207142D01*
X65224819Y-97207142D02*
X65272438Y-97064285D01*
X65272438Y-97064285D02*
X65320057Y-97016666D01*
X65224819Y-96159523D02*
X65224819Y-96349999D01*
X65224819Y-96349999D02*
X65272438Y-96445237D01*
X65272438Y-96445237D02*
X65320057Y-96492856D01*
X65320057Y-96492856D02*
X65462914Y-96588094D01*
X65462914Y-96588094D02*
X65653390Y-96635713D01*
X65653390Y-96635713D02*
X66034342Y-96635713D01*
X66034342Y-96635713D02*
X66129580Y-96588094D01*
X66129580Y-96588094D02*
X66177200Y-96540475D01*
X66177200Y-96540475D02*
X66224819Y-96445237D01*
X66224819Y-96445237D02*
X66224819Y-96254761D01*
X66224819Y-96254761D02*
X66177200Y-96159523D01*
X66177200Y-96159523D02*
X66129580Y-96111904D01*
X66129580Y-96111904D02*
X66034342Y-96064285D01*
X66034342Y-96064285D02*
X65796247Y-96064285D01*
X65796247Y-96064285D02*
X65701009Y-96111904D01*
X65701009Y-96111904D02*
X65653390Y-96159523D01*
X65653390Y-96159523D02*
X65605771Y-96254761D01*
X65605771Y-96254761D02*
X65605771Y-96445237D01*
X65605771Y-96445237D02*
X65653390Y-96540475D01*
X65653390Y-96540475D02*
X65701009Y-96588094D01*
X65701009Y-96588094D02*
X65796247Y-96635713D01*
D11*
X128309047Y-105411461D02*
X128913809Y-105411461D01*
X128188095Y-105774318D02*
X128611428Y-104504318D01*
X128611428Y-104504318D02*
X129034762Y-105774318D01*
X129276666Y-104504318D02*
X130002380Y-104504318D01*
X129639523Y-105774318D02*
X129639523Y-104504318D01*
X130304761Y-104504318D02*
X131151428Y-104504318D01*
X131151428Y-104504318D02*
X130607142Y-105774318D01*
D10*
X119357142Y-84759580D02*
X119309523Y-84807200D01*
X119309523Y-84807200D02*
X119166666Y-84854819D01*
X119166666Y-84854819D02*
X119071428Y-84854819D01*
X119071428Y-84854819D02*
X118928571Y-84807200D01*
X118928571Y-84807200D02*
X118833333Y-84711961D01*
X118833333Y-84711961D02*
X118785714Y-84616723D01*
X118785714Y-84616723D02*
X118738095Y-84426247D01*
X118738095Y-84426247D02*
X118738095Y-84283390D01*
X118738095Y-84283390D02*
X118785714Y-84092914D01*
X118785714Y-84092914D02*
X118833333Y-83997676D01*
X118833333Y-83997676D02*
X118928571Y-83902438D01*
X118928571Y-83902438D02*
X119071428Y-83854819D01*
X119071428Y-83854819D02*
X119166666Y-83854819D01*
X119166666Y-83854819D02*
X119309523Y-83902438D01*
X119309523Y-83902438D02*
X119357142Y-83950057D01*
X119738095Y-83950057D02*
X119785714Y-83902438D01*
X119785714Y-83902438D02*
X119880952Y-83854819D01*
X119880952Y-83854819D02*
X120119047Y-83854819D01*
X120119047Y-83854819D02*
X120214285Y-83902438D01*
X120214285Y-83902438D02*
X120261904Y-83950057D01*
X120261904Y-83950057D02*
X120309523Y-84045295D01*
X120309523Y-84045295D02*
X120309523Y-84140533D01*
X120309523Y-84140533D02*
X120261904Y-84283390D01*
X120261904Y-84283390D02*
X119690476Y-84854819D01*
X119690476Y-84854819D02*
X120309523Y-84854819D01*
X121261904Y-84854819D02*
X120690476Y-84854819D01*
X120976190Y-84854819D02*
X120976190Y-83854819D01*
X120976190Y-83854819D02*
X120880952Y-83997676D01*
X120880952Y-83997676D02*
X120785714Y-84092914D01*
X120785714Y-84092914D02*
X120690476Y-84140533D01*
X115957142Y-78759580D02*
X115909523Y-78807200D01*
X115909523Y-78807200D02*
X115766666Y-78854819D01*
X115766666Y-78854819D02*
X115671428Y-78854819D01*
X115671428Y-78854819D02*
X115528571Y-78807200D01*
X115528571Y-78807200D02*
X115433333Y-78711961D01*
X115433333Y-78711961D02*
X115385714Y-78616723D01*
X115385714Y-78616723D02*
X115338095Y-78426247D01*
X115338095Y-78426247D02*
X115338095Y-78283390D01*
X115338095Y-78283390D02*
X115385714Y-78092914D01*
X115385714Y-78092914D02*
X115433333Y-77997676D01*
X115433333Y-77997676D02*
X115528571Y-77902438D01*
X115528571Y-77902438D02*
X115671428Y-77854819D01*
X115671428Y-77854819D02*
X115766666Y-77854819D01*
X115766666Y-77854819D02*
X115909523Y-77902438D01*
X115909523Y-77902438D02*
X115957142Y-77950057D01*
X116338095Y-77950057D02*
X116385714Y-77902438D01*
X116385714Y-77902438D02*
X116480952Y-77854819D01*
X116480952Y-77854819D02*
X116719047Y-77854819D01*
X116719047Y-77854819D02*
X116814285Y-77902438D01*
X116814285Y-77902438D02*
X116861904Y-77950057D01*
X116861904Y-77950057D02*
X116909523Y-78045295D01*
X116909523Y-78045295D02*
X116909523Y-78140533D01*
X116909523Y-78140533D02*
X116861904Y-78283390D01*
X116861904Y-78283390D02*
X116290476Y-78854819D01*
X116290476Y-78854819D02*
X116909523Y-78854819D01*
X117290476Y-77950057D02*
X117338095Y-77902438D01*
X117338095Y-77902438D02*
X117433333Y-77854819D01*
X117433333Y-77854819D02*
X117671428Y-77854819D01*
X117671428Y-77854819D02*
X117766666Y-77902438D01*
X117766666Y-77902438D02*
X117814285Y-77950057D01*
X117814285Y-77950057D02*
X117861904Y-78045295D01*
X117861904Y-78045295D02*
X117861904Y-78140533D01*
X117861904Y-78140533D02*
X117814285Y-78283390D01*
X117814285Y-78283390D02*
X117242857Y-78854819D01*
X117242857Y-78854819D02*
X117861904Y-78854819D01*
D13*
%TO.C,C26*%
X133462500Y-100310000D02*
X140222500Y-100310000D01*
X140222500Y-96890000D02*
X133462500Y-96890000D01*
X140222500Y-100310000D02*
X140222500Y-96890000D01*
%TO.C,MIX1*%
X104476000Y-94888000D02*
X104476000Y-100730000D01*
X104476000Y-94888000D02*
X104860000Y-94888000D01*
X104476000Y-100730000D02*
X104860000Y-100730000D01*
X112604000Y-94888000D02*
X112220000Y-94888000D01*
X112604000Y-100730000D02*
X112220000Y-100730000D01*
X112604000Y-100730000D02*
X112604000Y-94888000D01*
X104920000Y-101179000D02*
X104584000Y-101419000D01*
X104584000Y-100939000D01*
X104920000Y-101179000D01*
G36*
X104920000Y-101179000D02*
G01*
X104584000Y-101419000D01*
X104584000Y-100939000D01*
X104920000Y-101179000D01*
G37*
%TO.C,C7*%
X62290000Y-96990580D02*
X62290000Y-96709420D01*
X63310000Y-96990580D02*
X63310000Y-96709420D01*
%TO.C,C8*%
X58236800Y-88411252D02*
X58236800Y-87888748D01*
X59706800Y-88411252D02*
X59706800Y-87888748D01*
%TO.C,J3*%
X67721800Y-104400000D02*
X78021800Y-104400000D01*
X67721800Y-110350000D02*
X67721800Y-104400000D01*
X70921800Y-110350000D02*
X67721800Y-110350000D01*
X71591800Y-105510000D02*
X71591800Y-104500000D01*
X76671800Y-104500000D02*
X76671800Y-105510000D01*
X76671800Y-105510000D02*
X71591800Y-105510000D01*
X78021800Y-104400000D02*
X78021800Y-110400000D01*
X78021800Y-110400000D02*
X72271800Y-110400000D01*
%TO.C,L2*%
X112030279Y-114390000D02*
X111704721Y-114390000D01*
X112030279Y-115410000D02*
X111704721Y-115410000D01*
%TO.C,R9*%
X119560436Y-72265000D02*
X120014564Y-72265000D01*
X119560436Y-73735000D02*
X120014564Y-73735000D01*
%TO.C,C1*%
X67736800Y-116111252D02*
X67736800Y-115588748D01*
X69206800Y-116111252D02*
X69206800Y-115588748D01*
%TO.C,PA_DET*%
X121150000Y-95650000D02*
X124050000Y-95650000D01*
X121150000Y-98550000D02*
X121150000Y-95650000D01*
X124050000Y-95650000D02*
X124050000Y-98550000D01*
X124050000Y-98550000D02*
X121150000Y-98550000D01*
%TO.C,C24*%
X134711252Y-93265000D02*
X134188748Y-93265000D01*
X134711252Y-94735000D02*
X134188748Y-94735000D01*
%TO.C,5V*%
X66650000Y-121950000D02*
X69550000Y-121950000D01*
X66650000Y-124850000D02*
X66650000Y-121950000D01*
X69550000Y-121950000D02*
X69550000Y-124850000D01*
X69550000Y-124850000D02*
X66650000Y-124850000D01*
%TO.C,R3*%
X57265000Y-99714564D02*
X57265000Y-99260436D01*
X58735000Y-99714564D02*
X58735000Y-99260436D01*
D14*
%TO.C,AT1*%
X72358800Y-77813000D02*
X72358800Y-76813000D01*
X73358800Y-77613000D02*
X73358800Y-77613000D01*
X73358800Y-77713000D02*
X73358800Y-77713000D01*
X73358800Y-77613000D02*
G75*
G02*
X73358800Y-77713000I0J-50000D01*
G01*
X73358800Y-77713000D02*
G75*
G02*
X73358800Y-77613000I0J50000D01*
G01*
D13*
%TO.C,C13*%
X119411252Y-121965000D02*
X118888748Y-121965000D01*
X119411252Y-123435000D02*
X118888748Y-123435000D01*
%TO.C,C3*%
X88281220Y-89200000D02*
X88562380Y-89200000D01*
X88281220Y-90220000D02*
X88562380Y-90220000D01*
D15*
%TO.C,BPF1*%
X92022200Y-88884500D02*
X92022200Y-89199460D01*
X92022200Y-90220540D02*
X92022200Y-90535500D01*
X94435200Y-89199460D02*
X94435200Y-88884500D01*
X94435200Y-90535500D02*
X94435200Y-90220540D01*
D13*
%TO.C,R15*%
X84965000Y-82260436D02*
X84965000Y-82714564D01*
X86435000Y-82260436D02*
X86435000Y-82714564D01*
D14*
%TO.C,AT4*%
X115162000Y-89207000D02*
X116162000Y-89207000D01*
X115262000Y-90207000D02*
X115262000Y-90207000D01*
X115362000Y-90207000D02*
X115362000Y-90207000D01*
X115262000Y-90207000D02*
G75*
G02*
X115362000Y-90207000I50000J0D01*
G01*
X115362000Y-90207000D02*
G75*
G02*
X115262000Y-90207000I-50000J0D01*
G01*
D13*
%TO.C,R19*%
X62836800Y-105785436D02*
X62836800Y-106239564D01*
X64306800Y-105785436D02*
X64306800Y-106239564D01*
%TO.C,ADC*%
X74850000Y-114050000D02*
X77750000Y-114050000D01*
X74850000Y-116950000D02*
X74850000Y-114050000D01*
X77750000Y-114050000D02*
X77750000Y-116950000D01*
X77750000Y-116950000D02*
X74850000Y-116950000D01*
%TO.C,L1*%
X85161800Y-88759721D02*
X85161800Y-89085279D01*
X86181800Y-88759721D02*
X86181800Y-89085279D01*
%TO.C,R5*%
X72557236Y-90995000D02*
X73011364Y-90995000D01*
X72557236Y-92465000D02*
X73011364Y-92465000D01*
%TO.C,R1*%
X139665000Y-85914564D02*
X139665000Y-85460436D01*
X141135000Y-85914564D02*
X141135000Y-85460436D01*
%TO.C,R6*%
X106385436Y-87985000D02*
X106839564Y-87985000D01*
X106385436Y-89455000D02*
X106839564Y-89455000D01*
D16*
%TO.C,OA1*%
X57450000Y-103115000D02*
X55850000Y-103115000D01*
X57450000Y-106185000D02*
X55850000Y-106185000D01*
D12*
X59100000Y-105625000D02*
G75*
G02*
X58900000Y-105625000I-100000J0D01*
G01*
X58900000Y-105625000D02*
G75*
G02*
X59100000Y-105625000I100000J0D01*
G01*
D13*
%TO.C,R8*%
X59465000Y-108214564D02*
X59465000Y-107760436D01*
X60935000Y-108214564D02*
X60935000Y-107760436D01*
%TO.C,R4*%
X53065000Y-97260436D02*
X53065000Y-97714564D01*
X54535000Y-97260436D02*
X54535000Y-97714564D01*
%TO.C,C9*%
X53011252Y-92565000D02*
X52488748Y-92565000D01*
X53011252Y-94035000D02*
X52488748Y-94035000D01*
%TO.C,SPLT1*%
X97115000Y-88150000D02*
X97115000Y-88000000D01*
X97115000Y-91420000D02*
X97115000Y-91270000D01*
X98935000Y-88000000D02*
X97115000Y-88000000D01*
X98935000Y-88150000D02*
X98935000Y-88000000D01*
X98935000Y-91420000D02*
X97115000Y-91420000D01*
X98935000Y-91420000D02*
X98935000Y-91270000D01*
X96705000Y-88150000D02*
X96425000Y-88150000D01*
X96705000Y-87870000D01*
X96705000Y-88150000D01*
G36*
X96705000Y-88150000D02*
G01*
X96425000Y-88150000D01*
X96705000Y-87870000D01*
X96705000Y-88150000D01*
G37*
%TO.C,C25*%
X107637500Y-84410000D02*
X114397500Y-84410000D01*
X114397500Y-80990000D02*
X107637500Y-80990000D01*
X114397500Y-84410000D02*
X114397500Y-80990000D01*
%TO.C,C10*%
X109270000Y-123490580D02*
X109270000Y-123209420D01*
X110290000Y-123490580D02*
X110290000Y-123209420D01*
%TO.C,C5*%
X89465000Y-82288748D02*
X89465000Y-82811252D01*
X90935000Y-82288748D02*
X90935000Y-82811252D01*
%TO.C,3.3V*%
X82350000Y-118350000D02*
X85250000Y-118350000D01*
X82350000Y-121250000D02*
X82350000Y-118350000D01*
X85250000Y-118350000D02*
X85250000Y-121250000D01*
X85250000Y-121250000D02*
X82350000Y-121250000D01*
%TO.C,R16*%
X110340000Y-106842064D02*
X110340000Y-106387936D01*
X111810000Y-106842064D02*
X111810000Y-106387936D01*
%TO.C,C27*%
X122211252Y-79265000D02*
X121688748Y-79265000D01*
X122211252Y-80735000D02*
X121688748Y-80735000D01*
%TO.C,C20*%
X51570395Y-117341000D02*
X51570395Y-116459000D01*
X51610395Y-117593000D02*
X51610395Y-116207000D01*
X51650395Y-117777000D02*
X51650395Y-116023000D01*
X51690395Y-117928000D02*
X51690395Y-115872000D01*
X51730395Y-118058000D02*
X51730395Y-115742000D01*
X51770395Y-118175000D02*
X51770395Y-115625000D01*
X51810395Y-118281000D02*
X51810395Y-115519000D01*
X51850395Y-118378000D02*
X51850395Y-115422000D01*
X51890395Y-118469000D02*
X51890395Y-115331000D01*
X51930395Y-118554000D02*
X51930395Y-115246000D01*
X51970395Y-118633000D02*
X51970395Y-115167000D01*
X52010395Y-118709000D02*
X52010395Y-115091000D01*
X52050395Y-118781000D02*
X52050395Y-115019000D01*
X52090395Y-118849000D02*
X52090395Y-114951000D01*
X52130395Y-118914000D02*
X52130395Y-114886000D01*
X52170395Y-118977000D02*
X52170395Y-114823000D01*
X52210395Y-119037000D02*
X52210395Y-114763000D01*
X52250395Y-119095000D02*
X52250395Y-114705000D01*
X52290395Y-119150000D02*
X52290395Y-114650000D01*
X52330395Y-119204000D02*
X52330395Y-114596000D01*
X52370395Y-119255000D02*
X52370395Y-114545000D01*
X52410395Y-119305000D02*
X52410395Y-114495000D01*
X52450395Y-119354000D02*
X52450395Y-114446000D01*
X52490395Y-119400000D02*
X52490395Y-114400000D01*
X52530395Y-119446000D02*
X52530395Y-114354000D01*
X52570395Y-119489000D02*
X52570395Y-114311000D01*
X52610395Y-119532000D02*
X52610395Y-114268000D01*
X52650395Y-119573000D02*
X52650395Y-114227000D01*
X52690395Y-119613000D02*
X52690395Y-114187000D01*
X52730395Y-119652000D02*
X52730395Y-114148000D01*
X52770395Y-119690000D02*
X52770395Y-114110000D01*
X52810395Y-119727000D02*
X52810395Y-114073000D01*
X52850395Y-119763000D02*
X52850395Y-114037000D01*
X52890395Y-119798000D02*
X52890395Y-114002000D01*
X52930395Y-119831000D02*
X52930395Y-113969000D01*
X52970395Y-119864000D02*
X52970395Y-113936000D01*
X53010395Y-119896000D02*
X53010395Y-113904000D01*
X53050395Y-119928000D02*
X53050395Y-113872000D01*
X53090395Y-119958000D02*
X53090395Y-113842000D01*
X53130395Y-115860000D02*
X53130395Y-113812000D01*
X53130395Y-119988000D02*
X53130395Y-117940000D01*
X53170395Y-115860000D02*
X53170395Y-113784000D01*
X53170395Y-120016000D02*
X53170395Y-117940000D01*
X53210395Y-115860000D02*
X53210395Y-113756000D01*
X53210395Y-120044000D02*
X53210395Y-117940000D01*
X53250395Y-115860000D02*
X53250395Y-113728000D01*
X53250395Y-120072000D02*
X53250395Y-117940000D01*
X53290395Y-115860000D02*
X53290395Y-113702000D01*
X53290395Y-120098000D02*
X53290395Y-117940000D01*
X53330395Y-115860000D02*
X53330395Y-113676000D01*
X53330395Y-120124000D02*
X53330395Y-117940000D01*
X53370395Y-115860000D02*
X53370395Y-113651000D01*
X53370395Y-120149000D02*
X53370395Y-117940000D01*
X53410395Y-115860000D02*
X53410395Y-113626000D01*
X53410395Y-120174000D02*
X53410395Y-117940000D01*
X53450395Y-115860000D02*
X53450395Y-113603000D01*
X53450395Y-120197000D02*
X53450395Y-117940000D01*
X53490395Y-115860000D02*
X53490395Y-113579000D01*
X53490395Y-120221000D02*
X53490395Y-117940000D01*
X53530395Y-115860000D02*
X53530395Y-113557000D01*
X53530395Y-120243000D02*
X53530395Y-117940000D01*
X53570395Y-115860000D02*
X53570395Y-113535000D01*
X53570395Y-120265000D02*
X53570395Y-117940000D01*
X53610395Y-115860000D02*
X53610395Y-113514000D01*
X53610395Y-120286000D02*
X53610395Y-117940000D01*
X53650395Y-115860000D02*
X53650395Y-113493000D01*
X53650395Y-120307000D02*
X53650395Y-117940000D01*
X53690395Y-115860000D02*
X53690395Y-113473000D01*
X53690395Y-120327000D02*
X53690395Y-117940000D01*
X53730395Y-115860000D02*
X53730395Y-113453000D01*
X53730395Y-120347000D02*
X53730395Y-117940000D01*
X53770395Y-115860000D02*
X53770395Y-113434000D01*
X53770395Y-120366000D02*
X53770395Y-117940000D01*
X53810395Y-115860000D02*
X53810395Y-113416000D01*
X53810395Y-120384000D02*
X53810395Y-117940000D01*
X53850395Y-115860000D02*
X53850395Y-113398000D01*
X53850395Y-120402000D02*
X53850395Y-117940000D01*
X53890395Y-115860000D02*
X53890395Y-113380000D01*
X53890395Y-120420000D02*
X53890395Y-117940000D01*
X53930395Y-115860000D02*
X53930395Y-113364000D01*
X53930395Y-120436000D02*
X53930395Y-117940000D01*
X53970395Y-115860000D02*
X53970395Y-113347000D01*
X53970395Y-120453000D02*
X53970395Y-117940000D01*
X54010395Y-115860000D02*
X54010395Y-113332000D01*
X54010395Y-120468000D02*
X54010395Y-117940000D01*
X54050395Y-115860000D02*
X54050395Y-113316000D01*
X54050395Y-120484000D02*
X54050395Y-117940000D01*
X54090395Y-115860000D02*
X54090395Y-113302000D01*
X54090395Y-120498000D02*
X54090395Y-117940000D01*
X54130395Y-115860000D02*
X54130395Y-113287000D01*
X54130395Y-120513000D02*
X54130395Y-117940000D01*
X54170395Y-115860000D02*
X54170395Y-113274000D01*
X54170395Y-120526000D02*
X54170395Y-117940000D01*
X54210395Y-115860000D02*
X54210395Y-113260000D01*
X54210395Y-120540000D02*
X54210395Y-117940000D01*
X54250395Y-115860000D02*
X54250395Y-113247000D01*
X54250395Y-120553000D02*
X54250395Y-117940000D01*
X54290395Y-115860000D02*
X54290395Y-113235000D01*
X54290395Y-120565000D02*
X54290395Y-117940000D01*
X54330395Y-115860000D02*
X54330395Y-113223000D01*
X54330395Y-120577000D02*
X54330395Y-117940000D01*
X54370395Y-115860000D02*
X54370395Y-113212000D01*
X54370395Y-120588000D02*
X54370395Y-117940000D01*
X54410395Y-115860000D02*
X54410395Y-113201000D01*
X54410395Y-120599000D02*
X54410395Y-117940000D01*
X54450395Y-115860000D02*
X54450395Y-113190000D01*
X54450395Y-120610000D02*
X54450395Y-117940000D01*
X54490395Y-115860000D02*
X54490395Y-113180000D01*
X54490395Y-120620000D02*
X54490395Y-117940000D01*
X54530395Y-115860000D02*
X54530395Y-113171000D01*
X54530395Y-120629000D02*
X54530395Y-117940000D01*
X54570395Y-115860000D02*
X54570395Y-113162000D01*
X54570395Y-120638000D02*
X54570395Y-117940000D01*
X54610395Y-115860000D02*
X54610395Y-113153000D01*
X54610395Y-120647000D02*
X54610395Y-117940000D01*
X54650395Y-115860000D02*
X54650395Y-113145000D01*
X54650395Y-120655000D02*
X54650395Y-117940000D01*
X54690395Y-115860000D02*
X54690395Y-113137000D01*
X54690395Y-120663000D02*
X54690395Y-117940000D01*
X54731395Y-115860000D02*
X54731395Y-113130000D01*
X54731395Y-120670000D02*
X54731395Y-117940000D01*
X54771395Y-115860000D02*
X54771395Y-113123000D01*
X54771395Y-120677000D02*
X54771395Y-117940000D01*
X54811395Y-115860000D02*
X54811395Y-113116000D01*
X54811395Y-120684000D02*
X54811395Y-117940000D01*
X54851395Y-115860000D02*
X54851395Y-113110000D01*
X54851395Y-120690000D02*
X54851395Y-117940000D01*
X54891395Y-115860000D02*
X54891395Y-113105000D01*
X54891395Y-120695000D02*
X54891395Y-117940000D01*
X54931395Y-115860000D02*
X54931395Y-113099000D01*
X54931395Y-120701000D02*
X54931395Y-117940000D01*
X54971395Y-115860000D02*
X54971395Y-113095000D01*
X54971395Y-120705000D02*
X54971395Y-117940000D01*
X55011395Y-115860000D02*
X55011395Y-113090000D01*
X55011395Y-120710000D02*
X55011395Y-117940000D01*
X55051395Y-115860000D02*
X55051395Y-113086000D01*
X55051395Y-120714000D02*
X55051395Y-117940000D01*
X55091395Y-115860000D02*
X55091395Y-113083000D01*
X55091395Y-120717000D02*
X55091395Y-117940000D01*
X55131395Y-115860000D02*
X55131395Y-113080000D01*
X55131395Y-120720000D02*
X55131395Y-117940000D01*
X55171395Y-115860000D02*
X55171395Y-113077000D01*
X55171395Y-120723000D02*
X55171395Y-117940000D01*
X55211395Y-120725000D02*
X55211395Y-113075000D01*
X55251395Y-120727000D02*
X55251395Y-113073000D01*
X55291395Y-120729000D02*
X55291395Y-113071000D01*
X55331395Y-120730000D02*
X55331395Y-113070000D01*
X55371395Y-120730000D02*
X55371395Y-113070000D01*
X55411395Y-120730000D02*
X55411395Y-113070000D01*
X59178606Y-119450000D02*
X59178606Y-118700000D01*
X59553606Y-119075000D02*
X58803606Y-119075000D01*
X59281395Y-116900000D02*
G75*
G02*
X51541395Y-116900000I-3870000J0D01*
G01*
X51541395Y-116900000D02*
G75*
G02*
X59281395Y-116900000I3870000J0D01*
G01*
%TO.C,R10*%
X122114564Y-75765000D02*
X121660436Y-75765000D01*
X122114564Y-77235000D02*
X121660436Y-77235000D01*
D15*
%TO.C,BPF2*%
X108954500Y-129177800D02*
X109269460Y-129177800D01*
X109269460Y-126764800D02*
X108954500Y-126764800D01*
X110290540Y-129177800D02*
X110605500Y-129177800D01*
X110605500Y-126764800D02*
X110290540Y-126764800D01*
D16*
%TO.C,LDO1*%
X63621800Y-114295000D02*
X64221800Y-114295000D01*
X63621800Y-117195000D02*
X64221800Y-117195000D01*
D12*
X61496800Y-114770000D02*
G75*
G02*
X61296800Y-114770000I-100000J0D01*
G01*
X61296800Y-114770000D02*
G75*
G02*
X61496800Y-114770000I100000J0D01*
G01*
D13*
%TO.C,C36*%
X88588748Y-103590000D02*
X89111252Y-103590000D01*
X88588748Y-105060000D02*
X89111252Y-105060000D01*
D15*
%TO.C,FL1*%
X135469700Y-85850700D02*
X135469700Y-86139860D01*
X135469700Y-87060140D02*
X135469700Y-87349300D01*
X137730300Y-86139860D02*
X137730300Y-85850700D01*
X137730300Y-87349300D02*
X137730300Y-87060140D01*
D13*
%TO.C,TUNE*%
X53121800Y-81150000D02*
X56021800Y-81150000D01*
X53121800Y-84050000D02*
X53121800Y-81150000D01*
X56021800Y-81150000D02*
X56021800Y-84050000D01*
X56021800Y-84050000D02*
X53121800Y-84050000D01*
D12*
%TO.C,GB1*%
X81971800Y-92520000D02*
X81971800Y-92520000D01*
X81971800Y-92520000D02*
X81971800Y-92520000D01*
X81971800Y-92620000D02*
X81971800Y-92620000D01*
X81971800Y-92520000D02*
G75*
G02*
X81971800Y-92620000I0J-50000D01*
G01*
X81971800Y-92620000D02*
G75*
G02*
X81971800Y-92520000I0J50000D01*
G01*
X81971800Y-92620000D02*
G75*
G02*
X81971800Y-92520000I0J50000D01*
G01*
D13*
%TO.C,L8*%
X97674721Y-103815000D02*
X98000279Y-103815000D01*
X97674721Y-104835000D02*
X98000279Y-104835000D01*
D14*
%TO.C,AT5*%
X103813000Y-77638000D02*
X103813000Y-76638000D01*
X104813000Y-77438000D02*
X104813000Y-77438000D01*
X104813000Y-77538000D02*
X104813000Y-77538000D01*
X104813000Y-77438000D02*
G75*
G02*
X104813000Y-77538000I0J-50000D01*
G01*
X104813000Y-77538000D02*
G75*
G02*
X104813000Y-77438000I0J50000D01*
G01*
D13*
%TO.C,R12*%
X83060436Y-107865000D02*
X83514564Y-107865000D01*
X83060436Y-109335000D02*
X83514564Y-109335000D01*
%TO.C,R14*%
X83465000Y-103639564D02*
X83465000Y-103185436D01*
X84935000Y-103639564D02*
X84935000Y-103185436D01*
%TO.C,C23*%
X134711252Y-89265000D02*
X134188748Y-89265000D01*
X134711252Y-90735000D02*
X134188748Y-90735000D01*
D14*
%TO.C,AT6*%
X140887000Y-77962000D02*
X140887000Y-76962000D01*
X141887000Y-77762000D02*
X141887000Y-77762000D01*
X141887000Y-77862000D02*
X141887000Y-77862000D01*
X141887000Y-77762000D02*
G75*
G02*
X141887000Y-77862000I0J-50000D01*
G01*
X141887000Y-77862000D02*
G75*
G02*
X141887000Y-77762000I0J50000D01*
G01*
D13*
%TO.C,IF*%
X89450000Y-114050000D02*
X92350000Y-114050000D01*
X89450000Y-116950000D02*
X89450000Y-114050000D01*
X92350000Y-114050000D02*
X92350000Y-116950000D01*
X92350000Y-116950000D02*
X89450000Y-116950000D01*
%TO.C,C34*%
X100890000Y-105415580D02*
X100890000Y-105134420D01*
X101910000Y-105415580D02*
X101910000Y-105134420D01*
%TO.C,R11*%
X119139564Y-113665000D02*
X118685436Y-113665000D01*
X119139564Y-115135000D02*
X118685436Y-115135000D01*
D14*
%TO.C,AT3*%
X111106000Y-89207000D02*
X112106000Y-89207000D01*
X111206000Y-90207000D02*
X111206000Y-90207000D01*
X111306000Y-90207000D02*
X111306000Y-90207000D01*
X111206000Y-90207000D02*
G75*
G02*
X111306000Y-90207000I50000J0D01*
G01*
X111306000Y-90207000D02*
G75*
G02*
X111206000Y-90207000I-50000J0D01*
G01*
D13*
%TO.C,C2*%
X77981220Y-91220000D02*
X78262380Y-91220000D01*
X77981220Y-92240000D02*
X78262380Y-92240000D01*
%TO.C,C35*%
X92890000Y-105415580D02*
X92890000Y-105134420D01*
X93910000Y-105415580D02*
X93910000Y-105134420D01*
D12*
%TO.C,GB2*%
X109780000Y-120190000D02*
X109780000Y-120190000D01*
X109780000Y-120190000D02*
X109780000Y-120190000D01*
X109780000Y-120290000D02*
X109780000Y-120290000D01*
X109780000Y-120190000D02*
G75*
G02*
X109780000Y-120290000I0J-50000D01*
G01*
X109780000Y-120290000D02*
G75*
G02*
X109780000Y-120190000I0J50000D01*
G01*
X109780000Y-120290000D02*
G75*
G02*
X109780000Y-120190000I0J50000D01*
G01*
%TO.C,PA1*%
X123497000Y-84380000D02*
X123497000Y-84380000D01*
X123497000Y-84580000D02*
X123497000Y-84580000D01*
X123497000Y-84380000D02*
G75*
G02*
X123497000Y-84580000I0J-100000D01*
G01*
X123497000Y-84580000D02*
G75*
G02*
X123497000Y-84380000I0J100000D01*
G01*
D13*
%TO.C,C11*%
X110570000Y-111790580D02*
X110570000Y-111509420D01*
X111590000Y-111790580D02*
X111590000Y-111509420D01*
%TO.C,C4*%
X93765000Y-82288748D02*
X93765000Y-82811252D01*
X95235000Y-82288748D02*
X95235000Y-82811252D01*
%TO.C,C12*%
X119311252Y-117865000D02*
X118788748Y-117865000D01*
X119311252Y-119335000D02*
X118788748Y-119335000D01*
D16*
%TO.C,J1*%
X51900000Y-122371800D02*
X53650000Y-122371800D01*
X53650000Y-122371800D02*
X53650000Y-122601800D01*
X53650000Y-129541800D02*
X53650000Y-129771800D01*
X53650000Y-129771800D02*
X51900000Y-129771800D01*
D12*
X54900000Y-124771800D02*
G75*
G02*
X54700000Y-124771800I-100000J0D01*
G01*
X54700000Y-124771800D02*
G75*
G02*
X54900000Y-124771800I100000J0D01*
G01*
D13*
%TO.C,R2*%
X100965000Y-89405436D02*
X100965000Y-89859564D01*
X102435000Y-89405436D02*
X102435000Y-89859564D01*
D16*
%TO.C,VCO1*%
X59656800Y-90505000D02*
X62756800Y-90505000D01*
X59656800Y-93605000D02*
X62756800Y-93605000D01*
D12*
X57721800Y-90610000D02*
G75*
G02*
X57521800Y-90610000I-100000J0D01*
G01*
X57521800Y-90610000D02*
G75*
G02*
X57721800Y-90610000I100000J0D01*
G01*
D14*
%TO.C,AT2*%
X67509800Y-92217000D02*
X68509800Y-92217000D01*
X67609800Y-93217000D02*
X67609800Y-93217000D01*
X67709800Y-93217000D02*
X67709800Y-93217000D01*
X67609800Y-93217000D02*
G75*
G02*
X67709800Y-93217000I50000J0D01*
G01*
X67709800Y-93217000D02*
G75*
G02*
X67609800Y-93217000I-50000J0D01*
G01*
D13*
%TO.C,SW1*%
X53430000Y-75130000D02*
X53430000Y-73800000D01*
X54760000Y-75130000D02*
X53430000Y-75130000D01*
X56030000Y-72470000D02*
X58630000Y-72470000D01*
X56030000Y-75130000D02*
X56030000Y-72470000D01*
X56030000Y-75130000D02*
X58630000Y-75130000D01*
X58630000Y-75130000D02*
X58630000Y-72470000D01*
%TO.C,C6*%
X66690000Y-96990580D02*
X66690000Y-96709420D01*
X67710000Y-96990580D02*
X67710000Y-96709420D01*
D14*
%TO.C,AT7*%
X129238000Y-107987000D02*
X130238000Y-107987000D01*
X129338000Y-108987000D02*
X129338000Y-108987000D01*
X129438000Y-108987000D02*
X129438000Y-108987000D01*
X129338000Y-108987000D02*
G75*
G02*
X129438000Y-108987000I50000J0D01*
G01*
X129438000Y-108987000D02*
G75*
G02*
X129338000Y-108987000I-50000J0D01*
G01*
D13*
%TO.C,C21*%
X120411252Y-85365000D02*
X119888748Y-85365000D01*
X120411252Y-86835000D02*
X119888748Y-86835000D01*
%TO.C,C22*%
X116065000Y-81811252D02*
X116065000Y-81288748D01*
X117535000Y-81811252D02*
X117535000Y-81288748D01*
%TD*%
%LPC*%
D17*
%TO.C,OA1*%
X56136000Y-103386000D02*
X56142000Y-103386000D01*
X56148000Y-103387000D01*
X56153000Y-103389000D01*
X56159000Y-103390000D01*
X56164000Y-103392000D01*
X56170000Y-103395000D01*
X56175000Y-103397000D01*
X56180000Y-103400000D01*
X56185000Y-103403000D01*
X56190000Y-103406000D01*
X56194000Y-103410000D01*
X56199000Y-103413000D01*
X56203000Y-103417000D01*
X56207000Y-103421000D01*
X56210000Y-103426000D01*
X56214000Y-103430000D01*
X56217000Y-103435000D01*
X56220000Y-103440000D01*
X56223000Y-103445000D01*
X56225000Y-103450000D01*
X56228000Y-103456000D01*
X56230000Y-103461000D01*
X56231000Y-103467000D01*
X56233000Y-103472000D01*
X56234000Y-103478000D01*
X56234000Y-103484000D01*
X56235000Y-103489000D01*
X56235000Y-103495000D01*
X56235000Y-103855000D01*
X56235000Y-103861000D01*
X56234000Y-103866000D01*
X56234000Y-103872000D01*
X56233000Y-103878000D01*
X56231000Y-103883000D01*
X56230000Y-103889000D01*
X56228000Y-103894000D01*
X56225000Y-103900000D01*
X56223000Y-103905000D01*
X56220000Y-103910000D01*
X56217000Y-103915000D01*
X56214000Y-103920000D01*
X56210000Y-103924000D01*
X56207000Y-103929000D01*
X56203000Y-103933000D01*
X56199000Y-103937000D01*
X56194000Y-103940000D01*
X56190000Y-103944000D01*
X56185000Y-103947000D01*
X56180000Y-103950000D01*
X56175000Y-103953000D01*
X56170000Y-103955000D01*
X56164000Y-103958000D01*
X56159000Y-103960000D01*
X56153000Y-103961000D01*
X56148000Y-103963000D01*
X56142000Y-103964000D01*
X56136000Y-103964000D01*
X56131000Y-103965000D01*
X56125000Y-103965000D01*
X54875000Y-103965000D01*
X54869000Y-103965000D01*
X54864000Y-103964000D01*
X54858000Y-103964000D01*
X54852000Y-103963000D01*
X54847000Y-103961000D01*
X54841000Y-103960000D01*
X54836000Y-103958000D01*
X54830000Y-103955000D01*
X54825000Y-103953000D01*
X54820000Y-103950000D01*
X54815000Y-103947000D01*
X54810000Y-103944000D01*
X54806000Y-103940000D01*
X54801000Y-103937000D01*
X54797000Y-103933000D01*
X54793000Y-103929000D01*
X54790000Y-103924000D01*
X54786000Y-103920000D01*
X54783000Y-103915000D01*
X54780000Y-103910000D01*
X54777000Y-103905000D01*
X54775000Y-103900000D01*
X54772000Y-103894000D01*
X54770000Y-103889000D01*
X54769000Y-103883000D01*
X54767000Y-103878000D01*
X54766000Y-103872000D01*
X54766000Y-103866000D01*
X54765000Y-103861000D01*
X54765000Y-103855000D01*
X54765000Y-103495000D01*
X54765000Y-103489000D01*
X54766000Y-103484000D01*
X54766000Y-103478000D01*
X54767000Y-103472000D01*
X54769000Y-103467000D01*
X54770000Y-103461000D01*
X54772000Y-103456000D01*
X54775000Y-103450000D01*
X54777000Y-103445000D01*
X54780000Y-103440000D01*
X54783000Y-103435000D01*
X54786000Y-103430000D01*
X54790000Y-103426000D01*
X54793000Y-103421000D01*
X54797000Y-103417000D01*
X54801000Y-103413000D01*
X54806000Y-103410000D01*
X54810000Y-103406000D01*
X54815000Y-103403000D01*
X54820000Y-103400000D01*
X54825000Y-103397000D01*
X54830000Y-103395000D01*
X54836000Y-103392000D01*
X54841000Y-103390000D01*
X54847000Y-103389000D01*
X54852000Y-103387000D01*
X54858000Y-103386000D01*
X54864000Y-103386000D01*
X54869000Y-103385000D01*
X54875000Y-103385000D01*
X56125000Y-103385000D01*
X56131000Y-103385000D01*
X56136000Y-103386000D01*
G36*
X56136000Y-103386000D02*
G01*
X56142000Y-103386000D01*
X56148000Y-103387000D01*
X56153000Y-103389000D01*
X56159000Y-103390000D01*
X56164000Y-103392000D01*
X56170000Y-103395000D01*
X56175000Y-103397000D01*
X56180000Y-103400000D01*
X56185000Y-103403000D01*
X56190000Y-103406000D01*
X56194000Y-103410000D01*
X56199000Y-103413000D01*
X56203000Y-103417000D01*
X56207000Y-103421000D01*
X56210000Y-103426000D01*
X56214000Y-103430000D01*
X56217000Y-103435000D01*
X56220000Y-103440000D01*
X56223000Y-103445000D01*
X56225000Y-103450000D01*
X56228000Y-103456000D01*
X56230000Y-103461000D01*
X56231000Y-103467000D01*
X56233000Y-103472000D01*
X56234000Y-103478000D01*
X56234000Y-103484000D01*
X56235000Y-103489000D01*
X56235000Y-103495000D01*
X56235000Y-103855000D01*
X56235000Y-103861000D01*
X56234000Y-103866000D01*
X56234000Y-103872000D01*
X56233000Y-103878000D01*
X56231000Y-103883000D01*
X56230000Y-103889000D01*
X56228000Y-103894000D01*
X56225000Y-103900000D01*
X56223000Y-103905000D01*
X56220000Y-103910000D01*
X56217000Y-103915000D01*
X56214000Y-103920000D01*
X56210000Y-103924000D01*
X56207000Y-103929000D01*
X56203000Y-103933000D01*
X56199000Y-103937000D01*
X56194000Y-103940000D01*
X56190000Y-103944000D01*
X56185000Y-103947000D01*
X56180000Y-103950000D01*
X56175000Y-103953000D01*
X56170000Y-103955000D01*
X56164000Y-103958000D01*
X56159000Y-103960000D01*
X56153000Y-103961000D01*
X56148000Y-103963000D01*
X56142000Y-103964000D01*
X56136000Y-103964000D01*
X56131000Y-103965000D01*
X56125000Y-103965000D01*
X54875000Y-103965000D01*
X54869000Y-103965000D01*
X54864000Y-103964000D01*
X54858000Y-103964000D01*
X54852000Y-103963000D01*
X54847000Y-103961000D01*
X54841000Y-103960000D01*
X54836000Y-103958000D01*
X54830000Y-103955000D01*
X54825000Y-103953000D01*
X54820000Y-103950000D01*
X54815000Y-103947000D01*
X54810000Y-103944000D01*
X54806000Y-103940000D01*
X54801000Y-103937000D01*
X54797000Y-103933000D01*
X54793000Y-103929000D01*
X54790000Y-103924000D01*
X54786000Y-103920000D01*
X54783000Y-103915000D01*
X54780000Y-103910000D01*
X54777000Y-103905000D01*
X54775000Y-103900000D01*
X54772000Y-103894000D01*
X54770000Y-103889000D01*
X54769000Y-103883000D01*
X54767000Y-103878000D01*
X54766000Y-103872000D01*
X54766000Y-103866000D01*
X54765000Y-103861000D01*
X54765000Y-103855000D01*
X54765000Y-103495000D01*
X54765000Y-103489000D01*
X54766000Y-103484000D01*
X54766000Y-103478000D01*
X54767000Y-103472000D01*
X54769000Y-103467000D01*
X54770000Y-103461000D01*
X54772000Y-103456000D01*
X54775000Y-103450000D01*
X54777000Y-103445000D01*
X54780000Y-103440000D01*
X54783000Y-103435000D01*
X54786000Y-103430000D01*
X54790000Y-103426000D01*
X54793000Y-103421000D01*
X54797000Y-103417000D01*
X54801000Y-103413000D01*
X54806000Y-103410000D01*
X54810000Y-103406000D01*
X54815000Y-103403000D01*
X54820000Y-103400000D01*
X54825000Y-103397000D01*
X54830000Y-103395000D01*
X54836000Y-103392000D01*
X54841000Y-103390000D01*
X54847000Y-103389000D01*
X54852000Y-103387000D01*
X54858000Y-103386000D01*
X54864000Y-103386000D01*
X54869000Y-103385000D01*
X54875000Y-103385000D01*
X56125000Y-103385000D01*
X56131000Y-103385000D01*
X56136000Y-103386000D01*
G37*
X56136000Y-104036000D02*
X56142000Y-104036000D01*
X56148000Y-104037000D01*
X56153000Y-104039000D01*
X56159000Y-104040000D01*
X56164000Y-104042000D01*
X56170000Y-104045000D01*
X56175000Y-104047000D01*
X56180000Y-104050000D01*
X56185000Y-104053000D01*
X56190000Y-104056000D01*
X56194000Y-104060000D01*
X56199000Y-104063000D01*
X56203000Y-104067000D01*
X56207000Y-104071000D01*
X56210000Y-104076000D01*
X56214000Y-104080000D01*
X56217000Y-104085000D01*
X56220000Y-104090000D01*
X56223000Y-104095000D01*
X56225000Y-104100000D01*
X56228000Y-104106000D01*
X56230000Y-104111000D01*
X56231000Y-104117000D01*
X56233000Y-104122000D01*
X56234000Y-104128000D01*
X56234000Y-104134000D01*
X56235000Y-104139000D01*
X56235000Y-104145000D01*
X56235000Y-104505000D01*
X56235000Y-104511000D01*
X56234000Y-104516000D01*
X56234000Y-104522000D01*
X56233000Y-104528000D01*
X56231000Y-104533000D01*
X56230000Y-104539000D01*
X56228000Y-104544000D01*
X56225000Y-104550000D01*
X56223000Y-104555000D01*
X56220000Y-104560000D01*
X56217000Y-104565000D01*
X56214000Y-104570000D01*
X56210000Y-104574000D01*
X56207000Y-104579000D01*
X56203000Y-104583000D01*
X56199000Y-104587000D01*
X56194000Y-104590000D01*
X56190000Y-104594000D01*
X56185000Y-104597000D01*
X56180000Y-104600000D01*
X56175000Y-104603000D01*
X56170000Y-104605000D01*
X56164000Y-104608000D01*
X56159000Y-104610000D01*
X56153000Y-104611000D01*
X56148000Y-104613000D01*
X56142000Y-104614000D01*
X56136000Y-104614000D01*
X56131000Y-104615000D01*
X56125000Y-104615000D01*
X54875000Y-104615000D01*
X54869000Y-104615000D01*
X54864000Y-104614000D01*
X54858000Y-104614000D01*
X54852000Y-104613000D01*
X54847000Y-104611000D01*
X54841000Y-104610000D01*
X54836000Y-104608000D01*
X54830000Y-104605000D01*
X54825000Y-104603000D01*
X54820000Y-104600000D01*
X54815000Y-104597000D01*
X54810000Y-104594000D01*
X54806000Y-104590000D01*
X54801000Y-104587000D01*
X54797000Y-104583000D01*
X54793000Y-104579000D01*
X54790000Y-104574000D01*
X54786000Y-104570000D01*
X54783000Y-104565000D01*
X54780000Y-104560000D01*
X54777000Y-104555000D01*
X54775000Y-104550000D01*
X54772000Y-104544000D01*
X54770000Y-104539000D01*
X54769000Y-104533000D01*
X54767000Y-104528000D01*
X54766000Y-104522000D01*
X54766000Y-104516000D01*
X54765000Y-104511000D01*
X54765000Y-104505000D01*
X54765000Y-104145000D01*
X54765000Y-104139000D01*
X54766000Y-104134000D01*
X54766000Y-104128000D01*
X54767000Y-104122000D01*
X54769000Y-104117000D01*
X54770000Y-104111000D01*
X54772000Y-104106000D01*
X54775000Y-104100000D01*
X54777000Y-104095000D01*
X54780000Y-104090000D01*
X54783000Y-104085000D01*
X54786000Y-104080000D01*
X54790000Y-104076000D01*
X54793000Y-104071000D01*
X54797000Y-104067000D01*
X54801000Y-104063000D01*
X54806000Y-104060000D01*
X54810000Y-104056000D01*
X54815000Y-104053000D01*
X54820000Y-104050000D01*
X54825000Y-104047000D01*
X54830000Y-104045000D01*
X54836000Y-104042000D01*
X54841000Y-104040000D01*
X54847000Y-104039000D01*
X54852000Y-104037000D01*
X54858000Y-104036000D01*
X54864000Y-104036000D01*
X54869000Y-104035000D01*
X54875000Y-104035000D01*
X56125000Y-104035000D01*
X56131000Y-104035000D01*
X56136000Y-104036000D01*
G36*
X56136000Y-104036000D02*
G01*
X56142000Y-104036000D01*
X56148000Y-104037000D01*
X56153000Y-104039000D01*
X56159000Y-104040000D01*
X56164000Y-104042000D01*
X56170000Y-104045000D01*
X56175000Y-104047000D01*
X56180000Y-104050000D01*
X56185000Y-104053000D01*
X56190000Y-104056000D01*
X56194000Y-104060000D01*
X56199000Y-104063000D01*
X56203000Y-104067000D01*
X56207000Y-104071000D01*
X56210000Y-104076000D01*
X56214000Y-104080000D01*
X56217000Y-104085000D01*
X56220000Y-104090000D01*
X56223000Y-104095000D01*
X56225000Y-104100000D01*
X56228000Y-104106000D01*
X56230000Y-104111000D01*
X56231000Y-104117000D01*
X56233000Y-104122000D01*
X56234000Y-104128000D01*
X56234000Y-104134000D01*
X56235000Y-104139000D01*
X56235000Y-104145000D01*
X56235000Y-104505000D01*
X56235000Y-104511000D01*
X56234000Y-104516000D01*
X56234000Y-104522000D01*
X56233000Y-104528000D01*
X56231000Y-104533000D01*
X56230000Y-104539000D01*
X56228000Y-104544000D01*
X56225000Y-104550000D01*
X56223000Y-104555000D01*
X56220000Y-104560000D01*
X56217000Y-104565000D01*
X56214000Y-104570000D01*
X56210000Y-104574000D01*
X56207000Y-104579000D01*
X56203000Y-104583000D01*
X56199000Y-104587000D01*
X56194000Y-104590000D01*
X56190000Y-104594000D01*
X56185000Y-104597000D01*
X56180000Y-104600000D01*
X56175000Y-104603000D01*
X56170000Y-104605000D01*
X56164000Y-104608000D01*
X56159000Y-104610000D01*
X56153000Y-104611000D01*
X56148000Y-104613000D01*
X56142000Y-104614000D01*
X56136000Y-104614000D01*
X56131000Y-104615000D01*
X56125000Y-104615000D01*
X54875000Y-104615000D01*
X54869000Y-104615000D01*
X54864000Y-104614000D01*
X54858000Y-104614000D01*
X54852000Y-104613000D01*
X54847000Y-104611000D01*
X54841000Y-104610000D01*
X54836000Y-104608000D01*
X54830000Y-104605000D01*
X54825000Y-104603000D01*
X54820000Y-104600000D01*
X54815000Y-104597000D01*
X54810000Y-104594000D01*
X54806000Y-104590000D01*
X54801000Y-104587000D01*
X54797000Y-104583000D01*
X54793000Y-104579000D01*
X54790000Y-104574000D01*
X54786000Y-104570000D01*
X54783000Y-104565000D01*
X54780000Y-104560000D01*
X54777000Y-104555000D01*
X54775000Y-104550000D01*
X54772000Y-104544000D01*
X54770000Y-104539000D01*
X54769000Y-104533000D01*
X54767000Y-104528000D01*
X54766000Y-104522000D01*
X54766000Y-104516000D01*
X54765000Y-104511000D01*
X54765000Y-104505000D01*
X54765000Y-104145000D01*
X54765000Y-104139000D01*
X54766000Y-104134000D01*
X54766000Y-104128000D01*
X54767000Y-104122000D01*
X54769000Y-104117000D01*
X54770000Y-104111000D01*
X54772000Y-104106000D01*
X54775000Y-104100000D01*
X54777000Y-104095000D01*
X54780000Y-104090000D01*
X54783000Y-104085000D01*
X54786000Y-104080000D01*
X54790000Y-104076000D01*
X54793000Y-104071000D01*
X54797000Y-104067000D01*
X54801000Y-104063000D01*
X54806000Y-104060000D01*
X54810000Y-104056000D01*
X54815000Y-104053000D01*
X54820000Y-104050000D01*
X54825000Y-104047000D01*
X54830000Y-104045000D01*
X54836000Y-104042000D01*
X54841000Y-104040000D01*
X54847000Y-104039000D01*
X54852000Y-104037000D01*
X54858000Y-104036000D01*
X54864000Y-104036000D01*
X54869000Y-104035000D01*
X54875000Y-104035000D01*
X56125000Y-104035000D01*
X56131000Y-104035000D01*
X56136000Y-104036000D01*
G37*
X56136000Y-104686000D02*
X56142000Y-104686000D01*
X56148000Y-104687000D01*
X56153000Y-104689000D01*
X56159000Y-104690000D01*
X56164000Y-104692000D01*
X56170000Y-104695000D01*
X56175000Y-104697000D01*
X56180000Y-104700000D01*
X56185000Y-104703000D01*
X56190000Y-104706000D01*
X56194000Y-104710000D01*
X56199000Y-104713000D01*
X56203000Y-104717000D01*
X56207000Y-104721000D01*
X56210000Y-104726000D01*
X56214000Y-104730000D01*
X56217000Y-104735000D01*
X56220000Y-104740000D01*
X56223000Y-104745000D01*
X56225000Y-104750000D01*
X56228000Y-104756000D01*
X56230000Y-104761000D01*
X56231000Y-104767000D01*
X56233000Y-104772000D01*
X56234000Y-104778000D01*
X56234000Y-104784000D01*
X56235000Y-104789000D01*
X56235000Y-104795000D01*
X56235000Y-105155000D01*
X56235000Y-105161000D01*
X56234000Y-105166000D01*
X56234000Y-105172000D01*
X56233000Y-105178000D01*
X56231000Y-105183000D01*
X56230000Y-105189000D01*
X56228000Y-105194000D01*
X56225000Y-105200000D01*
X56223000Y-105205000D01*
X56220000Y-105210000D01*
X56217000Y-105215000D01*
X56214000Y-105220000D01*
X56210000Y-105224000D01*
X56207000Y-105229000D01*
X56203000Y-105233000D01*
X56199000Y-105237000D01*
X56194000Y-105240000D01*
X56190000Y-105244000D01*
X56185000Y-105247000D01*
X56180000Y-105250000D01*
X56175000Y-105253000D01*
X56170000Y-105255000D01*
X56164000Y-105258000D01*
X56159000Y-105260000D01*
X56153000Y-105261000D01*
X56148000Y-105263000D01*
X56142000Y-105264000D01*
X56136000Y-105264000D01*
X56131000Y-105265000D01*
X56125000Y-105265000D01*
X54875000Y-105265000D01*
X54869000Y-105265000D01*
X54864000Y-105264000D01*
X54858000Y-105264000D01*
X54852000Y-105263000D01*
X54847000Y-105261000D01*
X54841000Y-105260000D01*
X54836000Y-105258000D01*
X54830000Y-105255000D01*
X54825000Y-105253000D01*
X54820000Y-105250000D01*
X54815000Y-105247000D01*
X54810000Y-105244000D01*
X54806000Y-105240000D01*
X54801000Y-105237000D01*
X54797000Y-105233000D01*
X54793000Y-105229000D01*
X54790000Y-105224000D01*
X54786000Y-105220000D01*
X54783000Y-105215000D01*
X54780000Y-105210000D01*
X54777000Y-105205000D01*
X54775000Y-105200000D01*
X54772000Y-105194000D01*
X54770000Y-105189000D01*
X54769000Y-105183000D01*
X54767000Y-105178000D01*
X54766000Y-105172000D01*
X54766000Y-105166000D01*
X54765000Y-105161000D01*
X54765000Y-105155000D01*
X54765000Y-104795000D01*
X54765000Y-104789000D01*
X54766000Y-104784000D01*
X54766000Y-104778000D01*
X54767000Y-104772000D01*
X54769000Y-104767000D01*
X54770000Y-104761000D01*
X54772000Y-104756000D01*
X54775000Y-104750000D01*
X54777000Y-104745000D01*
X54780000Y-104740000D01*
X54783000Y-104735000D01*
X54786000Y-104730000D01*
X54790000Y-104726000D01*
X54793000Y-104721000D01*
X54797000Y-104717000D01*
X54801000Y-104713000D01*
X54806000Y-104710000D01*
X54810000Y-104706000D01*
X54815000Y-104703000D01*
X54820000Y-104700000D01*
X54825000Y-104697000D01*
X54830000Y-104695000D01*
X54836000Y-104692000D01*
X54841000Y-104690000D01*
X54847000Y-104689000D01*
X54852000Y-104687000D01*
X54858000Y-104686000D01*
X54864000Y-104686000D01*
X54869000Y-104685000D01*
X54875000Y-104685000D01*
X56125000Y-104685000D01*
X56131000Y-104685000D01*
X56136000Y-104686000D01*
G36*
X56136000Y-104686000D02*
G01*
X56142000Y-104686000D01*
X56148000Y-104687000D01*
X56153000Y-104689000D01*
X56159000Y-104690000D01*
X56164000Y-104692000D01*
X56170000Y-104695000D01*
X56175000Y-104697000D01*
X56180000Y-104700000D01*
X56185000Y-104703000D01*
X56190000Y-104706000D01*
X56194000Y-104710000D01*
X56199000Y-104713000D01*
X56203000Y-104717000D01*
X56207000Y-104721000D01*
X56210000Y-104726000D01*
X56214000Y-104730000D01*
X56217000Y-104735000D01*
X56220000Y-104740000D01*
X56223000Y-104745000D01*
X56225000Y-104750000D01*
X56228000Y-104756000D01*
X56230000Y-104761000D01*
X56231000Y-104767000D01*
X56233000Y-104772000D01*
X56234000Y-104778000D01*
X56234000Y-104784000D01*
X56235000Y-104789000D01*
X56235000Y-104795000D01*
X56235000Y-105155000D01*
X56235000Y-105161000D01*
X56234000Y-105166000D01*
X56234000Y-105172000D01*
X56233000Y-105178000D01*
X56231000Y-105183000D01*
X56230000Y-105189000D01*
X56228000Y-105194000D01*
X56225000Y-105200000D01*
X56223000Y-105205000D01*
X56220000Y-105210000D01*
X56217000Y-105215000D01*
X56214000Y-105220000D01*
X56210000Y-105224000D01*
X56207000Y-105229000D01*
X56203000Y-105233000D01*
X56199000Y-105237000D01*
X56194000Y-105240000D01*
X56190000Y-105244000D01*
X56185000Y-105247000D01*
X56180000Y-105250000D01*
X56175000Y-105253000D01*
X56170000Y-105255000D01*
X56164000Y-105258000D01*
X56159000Y-105260000D01*
X56153000Y-105261000D01*
X56148000Y-105263000D01*
X56142000Y-105264000D01*
X56136000Y-105264000D01*
X56131000Y-105265000D01*
X56125000Y-105265000D01*
X54875000Y-105265000D01*
X54869000Y-105265000D01*
X54864000Y-105264000D01*
X54858000Y-105264000D01*
X54852000Y-105263000D01*
X54847000Y-105261000D01*
X54841000Y-105260000D01*
X54836000Y-105258000D01*
X54830000Y-105255000D01*
X54825000Y-105253000D01*
X54820000Y-105250000D01*
X54815000Y-105247000D01*
X54810000Y-105244000D01*
X54806000Y-105240000D01*
X54801000Y-105237000D01*
X54797000Y-105233000D01*
X54793000Y-105229000D01*
X54790000Y-105224000D01*
X54786000Y-105220000D01*
X54783000Y-105215000D01*
X54780000Y-105210000D01*
X54777000Y-105205000D01*
X54775000Y-105200000D01*
X54772000Y-105194000D01*
X54770000Y-105189000D01*
X54769000Y-105183000D01*
X54767000Y-105178000D01*
X54766000Y-105172000D01*
X54766000Y-105166000D01*
X54765000Y-105161000D01*
X54765000Y-105155000D01*
X54765000Y-104795000D01*
X54765000Y-104789000D01*
X54766000Y-104784000D01*
X54766000Y-104778000D01*
X54767000Y-104772000D01*
X54769000Y-104767000D01*
X54770000Y-104761000D01*
X54772000Y-104756000D01*
X54775000Y-104750000D01*
X54777000Y-104745000D01*
X54780000Y-104740000D01*
X54783000Y-104735000D01*
X54786000Y-104730000D01*
X54790000Y-104726000D01*
X54793000Y-104721000D01*
X54797000Y-104717000D01*
X54801000Y-104713000D01*
X54806000Y-104710000D01*
X54810000Y-104706000D01*
X54815000Y-104703000D01*
X54820000Y-104700000D01*
X54825000Y-104697000D01*
X54830000Y-104695000D01*
X54836000Y-104692000D01*
X54841000Y-104690000D01*
X54847000Y-104689000D01*
X54852000Y-104687000D01*
X54858000Y-104686000D01*
X54864000Y-104686000D01*
X54869000Y-104685000D01*
X54875000Y-104685000D01*
X56125000Y-104685000D01*
X56131000Y-104685000D01*
X56136000Y-104686000D01*
G37*
X56136000Y-105336000D02*
X56142000Y-105336000D01*
X56148000Y-105337000D01*
X56153000Y-105339000D01*
X56159000Y-105340000D01*
X56164000Y-105342000D01*
X56170000Y-105345000D01*
X56175000Y-105347000D01*
X56180000Y-105350000D01*
X56185000Y-105353000D01*
X56190000Y-105356000D01*
X56194000Y-105360000D01*
X56199000Y-105363000D01*
X56203000Y-105367000D01*
X56207000Y-105371000D01*
X56210000Y-105376000D01*
X56214000Y-105380000D01*
X56217000Y-105385000D01*
X56220000Y-105390000D01*
X56223000Y-105395000D01*
X56225000Y-105400000D01*
X56228000Y-105406000D01*
X56230000Y-105411000D01*
X56231000Y-105417000D01*
X56233000Y-105422000D01*
X56234000Y-105428000D01*
X56234000Y-105434000D01*
X56235000Y-105439000D01*
X56235000Y-105445000D01*
X56235000Y-105805000D01*
X56235000Y-105811000D01*
X56234000Y-105816000D01*
X56234000Y-105822000D01*
X56233000Y-105828000D01*
X56231000Y-105833000D01*
X56230000Y-105839000D01*
X56228000Y-105844000D01*
X56225000Y-105850000D01*
X56223000Y-105855000D01*
X56220000Y-105860000D01*
X56217000Y-105865000D01*
X56214000Y-105870000D01*
X56210000Y-105874000D01*
X56207000Y-105879000D01*
X56203000Y-105883000D01*
X56199000Y-105887000D01*
X56194000Y-105890000D01*
X56190000Y-105894000D01*
X56185000Y-105897000D01*
X56180000Y-105900000D01*
X56175000Y-105903000D01*
X56170000Y-105905000D01*
X56164000Y-105908000D01*
X56159000Y-105910000D01*
X56153000Y-105911000D01*
X56148000Y-105913000D01*
X56142000Y-105914000D01*
X56136000Y-105914000D01*
X56131000Y-105915000D01*
X56125000Y-105915000D01*
X54875000Y-105915000D01*
X54869000Y-105915000D01*
X54864000Y-105914000D01*
X54858000Y-105914000D01*
X54852000Y-105913000D01*
X54847000Y-105911000D01*
X54841000Y-105910000D01*
X54836000Y-105908000D01*
X54830000Y-105905000D01*
X54825000Y-105903000D01*
X54820000Y-105900000D01*
X54815000Y-105897000D01*
X54810000Y-105894000D01*
X54806000Y-105890000D01*
X54801000Y-105887000D01*
X54797000Y-105883000D01*
X54793000Y-105879000D01*
X54790000Y-105874000D01*
X54786000Y-105870000D01*
X54783000Y-105865000D01*
X54780000Y-105860000D01*
X54777000Y-105855000D01*
X54775000Y-105850000D01*
X54772000Y-105844000D01*
X54770000Y-105839000D01*
X54769000Y-105833000D01*
X54767000Y-105828000D01*
X54766000Y-105822000D01*
X54766000Y-105816000D01*
X54765000Y-105811000D01*
X54765000Y-105805000D01*
X54765000Y-105445000D01*
X54765000Y-105439000D01*
X54766000Y-105434000D01*
X54766000Y-105428000D01*
X54767000Y-105422000D01*
X54769000Y-105417000D01*
X54770000Y-105411000D01*
X54772000Y-105406000D01*
X54775000Y-105400000D01*
X54777000Y-105395000D01*
X54780000Y-105390000D01*
X54783000Y-105385000D01*
X54786000Y-105380000D01*
X54790000Y-105376000D01*
X54793000Y-105371000D01*
X54797000Y-105367000D01*
X54801000Y-105363000D01*
X54806000Y-105360000D01*
X54810000Y-105356000D01*
X54815000Y-105353000D01*
X54820000Y-105350000D01*
X54825000Y-105347000D01*
X54830000Y-105345000D01*
X54836000Y-105342000D01*
X54841000Y-105340000D01*
X54847000Y-105339000D01*
X54852000Y-105337000D01*
X54858000Y-105336000D01*
X54864000Y-105336000D01*
X54869000Y-105335000D01*
X54875000Y-105335000D01*
X56125000Y-105335000D01*
X56131000Y-105335000D01*
X56136000Y-105336000D01*
G36*
X56136000Y-105336000D02*
G01*
X56142000Y-105336000D01*
X56148000Y-105337000D01*
X56153000Y-105339000D01*
X56159000Y-105340000D01*
X56164000Y-105342000D01*
X56170000Y-105345000D01*
X56175000Y-105347000D01*
X56180000Y-105350000D01*
X56185000Y-105353000D01*
X56190000Y-105356000D01*
X56194000Y-105360000D01*
X56199000Y-105363000D01*
X56203000Y-105367000D01*
X56207000Y-105371000D01*
X56210000Y-105376000D01*
X56214000Y-105380000D01*
X56217000Y-105385000D01*
X56220000Y-105390000D01*
X56223000Y-105395000D01*
X56225000Y-105400000D01*
X56228000Y-105406000D01*
X56230000Y-105411000D01*
X56231000Y-105417000D01*
X56233000Y-105422000D01*
X56234000Y-105428000D01*
X56234000Y-105434000D01*
X56235000Y-105439000D01*
X56235000Y-105445000D01*
X56235000Y-105805000D01*
X56235000Y-105811000D01*
X56234000Y-105816000D01*
X56234000Y-105822000D01*
X56233000Y-105828000D01*
X56231000Y-105833000D01*
X56230000Y-105839000D01*
X56228000Y-105844000D01*
X56225000Y-105850000D01*
X56223000Y-105855000D01*
X56220000Y-105860000D01*
X56217000Y-105865000D01*
X56214000Y-105870000D01*
X56210000Y-105874000D01*
X56207000Y-105879000D01*
X56203000Y-105883000D01*
X56199000Y-105887000D01*
X56194000Y-105890000D01*
X56190000Y-105894000D01*
X56185000Y-105897000D01*
X56180000Y-105900000D01*
X56175000Y-105903000D01*
X56170000Y-105905000D01*
X56164000Y-105908000D01*
X56159000Y-105910000D01*
X56153000Y-105911000D01*
X56148000Y-105913000D01*
X56142000Y-105914000D01*
X56136000Y-105914000D01*
X56131000Y-105915000D01*
X56125000Y-105915000D01*
X54875000Y-105915000D01*
X54869000Y-105915000D01*
X54864000Y-105914000D01*
X54858000Y-105914000D01*
X54852000Y-105913000D01*
X54847000Y-105911000D01*
X54841000Y-105910000D01*
X54836000Y-105908000D01*
X54830000Y-105905000D01*
X54825000Y-105903000D01*
X54820000Y-105900000D01*
X54815000Y-105897000D01*
X54810000Y-105894000D01*
X54806000Y-105890000D01*
X54801000Y-105887000D01*
X54797000Y-105883000D01*
X54793000Y-105879000D01*
X54790000Y-105874000D01*
X54786000Y-105870000D01*
X54783000Y-105865000D01*
X54780000Y-105860000D01*
X54777000Y-105855000D01*
X54775000Y-105850000D01*
X54772000Y-105844000D01*
X54770000Y-105839000D01*
X54769000Y-105833000D01*
X54767000Y-105828000D01*
X54766000Y-105822000D01*
X54766000Y-105816000D01*
X54765000Y-105811000D01*
X54765000Y-105805000D01*
X54765000Y-105445000D01*
X54765000Y-105439000D01*
X54766000Y-105434000D01*
X54766000Y-105428000D01*
X54767000Y-105422000D01*
X54769000Y-105417000D01*
X54770000Y-105411000D01*
X54772000Y-105406000D01*
X54775000Y-105400000D01*
X54777000Y-105395000D01*
X54780000Y-105390000D01*
X54783000Y-105385000D01*
X54786000Y-105380000D01*
X54790000Y-105376000D01*
X54793000Y-105371000D01*
X54797000Y-105367000D01*
X54801000Y-105363000D01*
X54806000Y-105360000D01*
X54810000Y-105356000D01*
X54815000Y-105353000D01*
X54820000Y-105350000D01*
X54825000Y-105347000D01*
X54830000Y-105345000D01*
X54836000Y-105342000D01*
X54841000Y-105340000D01*
X54847000Y-105339000D01*
X54852000Y-105337000D01*
X54858000Y-105336000D01*
X54864000Y-105336000D01*
X54869000Y-105335000D01*
X54875000Y-105335000D01*
X56125000Y-105335000D01*
X56131000Y-105335000D01*
X56136000Y-105336000D01*
G37*
X58436000Y-103386000D02*
X58442000Y-103386000D01*
X58448000Y-103387000D01*
X58453000Y-103389000D01*
X58459000Y-103390000D01*
X58464000Y-103392000D01*
X58470000Y-103395000D01*
X58475000Y-103397000D01*
X58480000Y-103400000D01*
X58485000Y-103403000D01*
X58490000Y-103406000D01*
X58494000Y-103410000D01*
X58499000Y-103413000D01*
X58503000Y-103417000D01*
X58507000Y-103421000D01*
X58510000Y-103426000D01*
X58514000Y-103430000D01*
X58517000Y-103435000D01*
X58520000Y-103440000D01*
X58523000Y-103445000D01*
X58525000Y-103450000D01*
X58528000Y-103456000D01*
X58530000Y-103461000D01*
X58531000Y-103467000D01*
X58533000Y-103472000D01*
X58534000Y-103478000D01*
X58534000Y-103484000D01*
X58535000Y-103489000D01*
X58535000Y-103495000D01*
X58535000Y-103855000D01*
X58535000Y-103861000D01*
X58534000Y-103866000D01*
X58534000Y-103872000D01*
X58533000Y-103878000D01*
X58531000Y-103883000D01*
X58530000Y-103889000D01*
X58528000Y-103894000D01*
X58525000Y-103900000D01*
X58523000Y-103905000D01*
X58520000Y-103910000D01*
X58517000Y-103915000D01*
X58514000Y-103920000D01*
X58510000Y-103924000D01*
X58507000Y-103929000D01*
X58503000Y-103933000D01*
X58499000Y-103937000D01*
X58494000Y-103940000D01*
X58490000Y-103944000D01*
X58485000Y-103947000D01*
X58480000Y-103950000D01*
X58475000Y-103953000D01*
X58470000Y-103955000D01*
X58464000Y-103958000D01*
X58459000Y-103960000D01*
X58453000Y-103961000D01*
X58448000Y-103963000D01*
X58442000Y-103964000D01*
X58436000Y-103964000D01*
X58431000Y-103965000D01*
X58425000Y-103965000D01*
X57175000Y-103965000D01*
X57169000Y-103965000D01*
X57164000Y-103964000D01*
X57158000Y-103964000D01*
X57152000Y-103963000D01*
X57147000Y-103961000D01*
X57141000Y-103960000D01*
X57136000Y-103958000D01*
X57130000Y-103955000D01*
X57125000Y-103953000D01*
X57120000Y-103950000D01*
X57115000Y-103947000D01*
X57110000Y-103944000D01*
X57106000Y-103940000D01*
X57101000Y-103937000D01*
X57097000Y-103933000D01*
X57093000Y-103929000D01*
X57090000Y-103924000D01*
X57086000Y-103920000D01*
X57083000Y-103915000D01*
X57080000Y-103910000D01*
X57077000Y-103905000D01*
X57075000Y-103900000D01*
X57072000Y-103894000D01*
X57070000Y-103889000D01*
X57069000Y-103883000D01*
X57067000Y-103878000D01*
X57066000Y-103872000D01*
X57066000Y-103866000D01*
X57065000Y-103861000D01*
X57065000Y-103855000D01*
X57065000Y-103495000D01*
X57065000Y-103489000D01*
X57066000Y-103484000D01*
X57066000Y-103478000D01*
X57067000Y-103472000D01*
X57069000Y-103467000D01*
X57070000Y-103461000D01*
X57072000Y-103456000D01*
X57075000Y-103450000D01*
X57077000Y-103445000D01*
X57080000Y-103440000D01*
X57083000Y-103435000D01*
X57086000Y-103430000D01*
X57090000Y-103426000D01*
X57093000Y-103421000D01*
X57097000Y-103417000D01*
X57101000Y-103413000D01*
X57106000Y-103410000D01*
X57110000Y-103406000D01*
X57115000Y-103403000D01*
X57120000Y-103400000D01*
X57125000Y-103397000D01*
X57130000Y-103395000D01*
X57136000Y-103392000D01*
X57141000Y-103390000D01*
X57147000Y-103389000D01*
X57152000Y-103387000D01*
X57158000Y-103386000D01*
X57164000Y-103386000D01*
X57169000Y-103385000D01*
X57175000Y-103385000D01*
X58425000Y-103385000D01*
X58431000Y-103385000D01*
X58436000Y-103386000D01*
G36*
X58436000Y-103386000D02*
G01*
X58442000Y-103386000D01*
X58448000Y-103387000D01*
X58453000Y-103389000D01*
X58459000Y-103390000D01*
X58464000Y-103392000D01*
X58470000Y-103395000D01*
X58475000Y-103397000D01*
X58480000Y-103400000D01*
X58485000Y-103403000D01*
X58490000Y-103406000D01*
X58494000Y-103410000D01*
X58499000Y-103413000D01*
X58503000Y-103417000D01*
X58507000Y-103421000D01*
X58510000Y-103426000D01*
X58514000Y-103430000D01*
X58517000Y-103435000D01*
X58520000Y-103440000D01*
X58523000Y-103445000D01*
X58525000Y-103450000D01*
X58528000Y-103456000D01*
X58530000Y-103461000D01*
X58531000Y-103467000D01*
X58533000Y-103472000D01*
X58534000Y-103478000D01*
X58534000Y-103484000D01*
X58535000Y-103489000D01*
X58535000Y-103495000D01*
X58535000Y-103855000D01*
X58535000Y-103861000D01*
X58534000Y-103866000D01*
X58534000Y-103872000D01*
X58533000Y-103878000D01*
X58531000Y-103883000D01*
X58530000Y-103889000D01*
X58528000Y-103894000D01*
X58525000Y-103900000D01*
X58523000Y-103905000D01*
X58520000Y-103910000D01*
X58517000Y-103915000D01*
X58514000Y-103920000D01*
X58510000Y-103924000D01*
X58507000Y-103929000D01*
X58503000Y-103933000D01*
X58499000Y-103937000D01*
X58494000Y-103940000D01*
X58490000Y-103944000D01*
X58485000Y-103947000D01*
X58480000Y-103950000D01*
X58475000Y-103953000D01*
X58470000Y-103955000D01*
X58464000Y-103958000D01*
X58459000Y-103960000D01*
X58453000Y-103961000D01*
X58448000Y-103963000D01*
X58442000Y-103964000D01*
X58436000Y-103964000D01*
X58431000Y-103965000D01*
X58425000Y-103965000D01*
X57175000Y-103965000D01*
X57169000Y-103965000D01*
X57164000Y-103964000D01*
X57158000Y-103964000D01*
X57152000Y-103963000D01*
X57147000Y-103961000D01*
X57141000Y-103960000D01*
X57136000Y-103958000D01*
X57130000Y-103955000D01*
X57125000Y-103953000D01*
X57120000Y-103950000D01*
X57115000Y-103947000D01*
X57110000Y-103944000D01*
X57106000Y-103940000D01*
X57101000Y-103937000D01*
X57097000Y-103933000D01*
X57093000Y-103929000D01*
X57090000Y-103924000D01*
X57086000Y-103920000D01*
X57083000Y-103915000D01*
X57080000Y-103910000D01*
X57077000Y-103905000D01*
X57075000Y-103900000D01*
X57072000Y-103894000D01*
X57070000Y-103889000D01*
X57069000Y-103883000D01*
X57067000Y-103878000D01*
X57066000Y-103872000D01*
X57066000Y-103866000D01*
X57065000Y-103861000D01*
X57065000Y-103855000D01*
X57065000Y-103495000D01*
X57065000Y-103489000D01*
X57066000Y-103484000D01*
X57066000Y-103478000D01*
X57067000Y-103472000D01*
X57069000Y-103467000D01*
X57070000Y-103461000D01*
X57072000Y-103456000D01*
X57075000Y-103450000D01*
X57077000Y-103445000D01*
X57080000Y-103440000D01*
X57083000Y-103435000D01*
X57086000Y-103430000D01*
X57090000Y-103426000D01*
X57093000Y-103421000D01*
X57097000Y-103417000D01*
X57101000Y-103413000D01*
X57106000Y-103410000D01*
X57110000Y-103406000D01*
X57115000Y-103403000D01*
X57120000Y-103400000D01*
X57125000Y-103397000D01*
X57130000Y-103395000D01*
X57136000Y-103392000D01*
X57141000Y-103390000D01*
X57147000Y-103389000D01*
X57152000Y-103387000D01*
X57158000Y-103386000D01*
X57164000Y-103386000D01*
X57169000Y-103385000D01*
X57175000Y-103385000D01*
X58425000Y-103385000D01*
X58431000Y-103385000D01*
X58436000Y-103386000D01*
G37*
X58436000Y-104036000D02*
X58442000Y-104036000D01*
X58448000Y-104037000D01*
X58453000Y-104039000D01*
X58459000Y-104040000D01*
X58464000Y-104042000D01*
X58470000Y-104045000D01*
X58475000Y-104047000D01*
X58480000Y-104050000D01*
X58485000Y-104053000D01*
X58490000Y-104056000D01*
X58494000Y-104060000D01*
X58499000Y-104063000D01*
X58503000Y-104067000D01*
X58507000Y-104071000D01*
X58510000Y-104076000D01*
X58514000Y-104080000D01*
X58517000Y-104085000D01*
X58520000Y-104090000D01*
X58523000Y-104095000D01*
X58525000Y-104100000D01*
X58528000Y-104106000D01*
X58530000Y-104111000D01*
X58531000Y-104117000D01*
X58533000Y-104122000D01*
X58534000Y-104128000D01*
X58534000Y-104134000D01*
X58535000Y-104139000D01*
X58535000Y-104145000D01*
X58535000Y-104505000D01*
X58535000Y-104511000D01*
X58534000Y-104516000D01*
X58534000Y-104522000D01*
X58533000Y-104528000D01*
X58531000Y-104533000D01*
X58530000Y-104539000D01*
X58528000Y-104544000D01*
X58525000Y-104550000D01*
X58523000Y-104555000D01*
X58520000Y-104560000D01*
X58517000Y-104565000D01*
X58514000Y-104570000D01*
X58510000Y-104574000D01*
X58507000Y-104579000D01*
X58503000Y-104583000D01*
X58499000Y-104587000D01*
X58494000Y-104590000D01*
X58490000Y-104594000D01*
X58485000Y-104597000D01*
X58480000Y-104600000D01*
X58475000Y-104603000D01*
X58470000Y-104605000D01*
X58464000Y-104608000D01*
X58459000Y-104610000D01*
X58453000Y-104611000D01*
X58448000Y-104613000D01*
X58442000Y-104614000D01*
X58436000Y-104614000D01*
X58431000Y-104615000D01*
X58425000Y-104615000D01*
X57175000Y-104615000D01*
X57169000Y-104615000D01*
X57164000Y-104614000D01*
X57158000Y-104614000D01*
X57152000Y-104613000D01*
X57147000Y-104611000D01*
X57141000Y-104610000D01*
X57136000Y-104608000D01*
X57130000Y-104605000D01*
X57125000Y-104603000D01*
X57120000Y-104600000D01*
X57115000Y-104597000D01*
X57110000Y-104594000D01*
X57106000Y-104590000D01*
X57101000Y-104587000D01*
X57097000Y-104583000D01*
X57093000Y-104579000D01*
X57090000Y-104574000D01*
X57086000Y-104570000D01*
X57083000Y-104565000D01*
X57080000Y-104560000D01*
X57077000Y-104555000D01*
X57075000Y-104550000D01*
X57072000Y-104544000D01*
X57070000Y-104539000D01*
X57069000Y-104533000D01*
X57067000Y-104528000D01*
X57066000Y-104522000D01*
X57066000Y-104516000D01*
X57065000Y-104511000D01*
X57065000Y-104505000D01*
X57065000Y-104145000D01*
X57065000Y-104139000D01*
X57066000Y-104134000D01*
X57066000Y-104128000D01*
X57067000Y-104122000D01*
X57069000Y-104117000D01*
X57070000Y-104111000D01*
X57072000Y-104106000D01*
X57075000Y-104100000D01*
X57077000Y-104095000D01*
X57080000Y-104090000D01*
X57083000Y-104085000D01*
X57086000Y-104080000D01*
X57090000Y-104076000D01*
X57093000Y-104071000D01*
X57097000Y-104067000D01*
X57101000Y-104063000D01*
X57106000Y-104060000D01*
X57110000Y-104056000D01*
X57115000Y-104053000D01*
X57120000Y-104050000D01*
X57125000Y-104047000D01*
X57130000Y-104045000D01*
X57136000Y-104042000D01*
X57141000Y-104040000D01*
X57147000Y-104039000D01*
X57152000Y-104037000D01*
X57158000Y-104036000D01*
X57164000Y-104036000D01*
X57169000Y-104035000D01*
X57175000Y-104035000D01*
X58425000Y-104035000D01*
X58431000Y-104035000D01*
X58436000Y-104036000D01*
G36*
X58436000Y-104036000D02*
G01*
X58442000Y-104036000D01*
X58448000Y-104037000D01*
X58453000Y-104039000D01*
X58459000Y-104040000D01*
X58464000Y-104042000D01*
X58470000Y-104045000D01*
X58475000Y-104047000D01*
X58480000Y-104050000D01*
X58485000Y-104053000D01*
X58490000Y-104056000D01*
X58494000Y-104060000D01*
X58499000Y-104063000D01*
X58503000Y-104067000D01*
X58507000Y-104071000D01*
X58510000Y-104076000D01*
X58514000Y-104080000D01*
X58517000Y-104085000D01*
X58520000Y-104090000D01*
X58523000Y-104095000D01*
X58525000Y-104100000D01*
X58528000Y-104106000D01*
X58530000Y-104111000D01*
X58531000Y-104117000D01*
X58533000Y-104122000D01*
X58534000Y-104128000D01*
X58534000Y-104134000D01*
X58535000Y-104139000D01*
X58535000Y-104145000D01*
X58535000Y-104505000D01*
X58535000Y-104511000D01*
X58534000Y-104516000D01*
X58534000Y-104522000D01*
X58533000Y-104528000D01*
X58531000Y-104533000D01*
X58530000Y-104539000D01*
X58528000Y-104544000D01*
X58525000Y-104550000D01*
X58523000Y-104555000D01*
X58520000Y-104560000D01*
X58517000Y-104565000D01*
X58514000Y-104570000D01*
X58510000Y-104574000D01*
X58507000Y-104579000D01*
X58503000Y-104583000D01*
X58499000Y-104587000D01*
X58494000Y-104590000D01*
X58490000Y-104594000D01*
X58485000Y-104597000D01*
X58480000Y-104600000D01*
X58475000Y-104603000D01*
X58470000Y-104605000D01*
X58464000Y-104608000D01*
X58459000Y-104610000D01*
X58453000Y-104611000D01*
X58448000Y-104613000D01*
X58442000Y-104614000D01*
X58436000Y-104614000D01*
X58431000Y-104615000D01*
X58425000Y-104615000D01*
X57175000Y-104615000D01*
X57169000Y-104615000D01*
X57164000Y-104614000D01*
X57158000Y-104614000D01*
X57152000Y-104613000D01*
X57147000Y-104611000D01*
X57141000Y-104610000D01*
X57136000Y-104608000D01*
X57130000Y-104605000D01*
X57125000Y-104603000D01*
X57120000Y-104600000D01*
X57115000Y-104597000D01*
X57110000Y-104594000D01*
X57106000Y-104590000D01*
X57101000Y-104587000D01*
X57097000Y-104583000D01*
X57093000Y-104579000D01*
X57090000Y-104574000D01*
X57086000Y-104570000D01*
X57083000Y-104565000D01*
X57080000Y-104560000D01*
X57077000Y-104555000D01*
X57075000Y-104550000D01*
X57072000Y-104544000D01*
X57070000Y-104539000D01*
X57069000Y-104533000D01*
X57067000Y-104528000D01*
X57066000Y-104522000D01*
X57066000Y-104516000D01*
X57065000Y-104511000D01*
X57065000Y-104505000D01*
X57065000Y-104145000D01*
X57065000Y-104139000D01*
X57066000Y-104134000D01*
X57066000Y-104128000D01*
X57067000Y-104122000D01*
X57069000Y-104117000D01*
X57070000Y-104111000D01*
X57072000Y-104106000D01*
X57075000Y-104100000D01*
X57077000Y-104095000D01*
X57080000Y-104090000D01*
X57083000Y-104085000D01*
X57086000Y-104080000D01*
X57090000Y-104076000D01*
X57093000Y-104071000D01*
X57097000Y-104067000D01*
X57101000Y-104063000D01*
X57106000Y-104060000D01*
X57110000Y-104056000D01*
X57115000Y-104053000D01*
X57120000Y-104050000D01*
X57125000Y-104047000D01*
X57130000Y-104045000D01*
X57136000Y-104042000D01*
X57141000Y-104040000D01*
X57147000Y-104039000D01*
X57152000Y-104037000D01*
X57158000Y-104036000D01*
X57164000Y-104036000D01*
X57169000Y-104035000D01*
X57175000Y-104035000D01*
X58425000Y-104035000D01*
X58431000Y-104035000D01*
X58436000Y-104036000D01*
G37*
X58436000Y-104686000D02*
X58442000Y-104686000D01*
X58448000Y-104687000D01*
X58453000Y-104689000D01*
X58459000Y-104690000D01*
X58464000Y-104692000D01*
X58470000Y-104695000D01*
X58475000Y-104697000D01*
X58480000Y-104700000D01*
X58485000Y-104703000D01*
X58490000Y-104706000D01*
X58494000Y-104710000D01*
X58499000Y-104713000D01*
X58503000Y-104717000D01*
X58507000Y-104721000D01*
X58510000Y-104726000D01*
X58514000Y-104730000D01*
X58517000Y-104735000D01*
X58520000Y-104740000D01*
X58523000Y-104745000D01*
X58525000Y-104750000D01*
X58528000Y-104756000D01*
X58530000Y-104761000D01*
X58531000Y-104767000D01*
X58533000Y-104772000D01*
X58534000Y-104778000D01*
X58534000Y-104784000D01*
X58535000Y-104789000D01*
X58535000Y-104795000D01*
X58535000Y-105155000D01*
X58535000Y-105161000D01*
X58534000Y-105166000D01*
X58534000Y-105172000D01*
X58533000Y-105178000D01*
X58531000Y-105183000D01*
X58530000Y-105189000D01*
X58528000Y-105194000D01*
X58525000Y-105200000D01*
X58523000Y-105205000D01*
X58520000Y-105210000D01*
X58517000Y-105215000D01*
X58514000Y-105220000D01*
X58510000Y-105224000D01*
X58507000Y-105229000D01*
X58503000Y-105233000D01*
X58499000Y-105237000D01*
X58494000Y-105240000D01*
X58490000Y-105244000D01*
X58485000Y-105247000D01*
X58480000Y-105250000D01*
X58475000Y-105253000D01*
X58470000Y-105255000D01*
X58464000Y-105258000D01*
X58459000Y-105260000D01*
X58453000Y-105261000D01*
X58448000Y-105263000D01*
X58442000Y-105264000D01*
X58436000Y-105264000D01*
X58431000Y-105265000D01*
X58425000Y-105265000D01*
X57175000Y-105265000D01*
X57169000Y-105265000D01*
X57164000Y-105264000D01*
X57158000Y-105264000D01*
X57152000Y-105263000D01*
X57147000Y-105261000D01*
X57141000Y-105260000D01*
X57136000Y-105258000D01*
X57130000Y-105255000D01*
X57125000Y-105253000D01*
X57120000Y-105250000D01*
X57115000Y-105247000D01*
X57110000Y-105244000D01*
X57106000Y-105240000D01*
X57101000Y-105237000D01*
X57097000Y-105233000D01*
X57093000Y-105229000D01*
X57090000Y-105224000D01*
X57086000Y-105220000D01*
X57083000Y-105215000D01*
X57080000Y-105210000D01*
X57077000Y-105205000D01*
X57075000Y-105200000D01*
X57072000Y-105194000D01*
X57070000Y-105189000D01*
X57069000Y-105183000D01*
X57067000Y-105178000D01*
X57066000Y-105172000D01*
X57066000Y-105166000D01*
X57065000Y-105161000D01*
X57065000Y-105155000D01*
X57065000Y-104795000D01*
X57065000Y-104789000D01*
X57066000Y-104784000D01*
X57066000Y-104778000D01*
X57067000Y-104772000D01*
X57069000Y-104767000D01*
X57070000Y-104761000D01*
X57072000Y-104756000D01*
X57075000Y-104750000D01*
X57077000Y-104745000D01*
X57080000Y-104740000D01*
X57083000Y-104735000D01*
X57086000Y-104730000D01*
X57090000Y-104726000D01*
X57093000Y-104721000D01*
X57097000Y-104717000D01*
X57101000Y-104713000D01*
X57106000Y-104710000D01*
X57110000Y-104706000D01*
X57115000Y-104703000D01*
X57120000Y-104700000D01*
X57125000Y-104697000D01*
X57130000Y-104695000D01*
X57136000Y-104692000D01*
X57141000Y-104690000D01*
X57147000Y-104689000D01*
X57152000Y-104687000D01*
X57158000Y-104686000D01*
X57164000Y-104686000D01*
X57169000Y-104685000D01*
X57175000Y-104685000D01*
X58425000Y-104685000D01*
X58431000Y-104685000D01*
X58436000Y-104686000D01*
G36*
X58436000Y-104686000D02*
G01*
X58442000Y-104686000D01*
X58448000Y-104687000D01*
X58453000Y-104689000D01*
X58459000Y-104690000D01*
X58464000Y-104692000D01*
X58470000Y-104695000D01*
X58475000Y-104697000D01*
X58480000Y-104700000D01*
X58485000Y-104703000D01*
X58490000Y-104706000D01*
X58494000Y-104710000D01*
X58499000Y-104713000D01*
X58503000Y-104717000D01*
X58507000Y-104721000D01*
X58510000Y-104726000D01*
X58514000Y-104730000D01*
X58517000Y-104735000D01*
X58520000Y-104740000D01*
X58523000Y-104745000D01*
X58525000Y-104750000D01*
X58528000Y-104756000D01*
X58530000Y-104761000D01*
X58531000Y-104767000D01*
X58533000Y-104772000D01*
X58534000Y-104778000D01*
X58534000Y-104784000D01*
X58535000Y-104789000D01*
X58535000Y-104795000D01*
X58535000Y-105155000D01*
X58535000Y-105161000D01*
X58534000Y-105166000D01*
X58534000Y-105172000D01*
X58533000Y-105178000D01*
X58531000Y-105183000D01*
X58530000Y-105189000D01*
X58528000Y-105194000D01*
X58525000Y-105200000D01*
X58523000Y-105205000D01*
X58520000Y-105210000D01*
X58517000Y-105215000D01*
X58514000Y-105220000D01*
X58510000Y-105224000D01*
X58507000Y-105229000D01*
X58503000Y-105233000D01*
X58499000Y-105237000D01*
X58494000Y-105240000D01*
X58490000Y-105244000D01*
X58485000Y-105247000D01*
X58480000Y-105250000D01*
X58475000Y-105253000D01*
X58470000Y-105255000D01*
X58464000Y-105258000D01*
X58459000Y-105260000D01*
X58453000Y-105261000D01*
X58448000Y-105263000D01*
X58442000Y-105264000D01*
X58436000Y-105264000D01*
X58431000Y-105265000D01*
X58425000Y-105265000D01*
X57175000Y-105265000D01*
X57169000Y-105265000D01*
X57164000Y-105264000D01*
X57158000Y-105264000D01*
X57152000Y-105263000D01*
X57147000Y-105261000D01*
X57141000Y-105260000D01*
X57136000Y-105258000D01*
X57130000Y-105255000D01*
X57125000Y-105253000D01*
X57120000Y-105250000D01*
X57115000Y-105247000D01*
X57110000Y-105244000D01*
X57106000Y-105240000D01*
X57101000Y-105237000D01*
X57097000Y-105233000D01*
X57093000Y-105229000D01*
X57090000Y-105224000D01*
X57086000Y-105220000D01*
X57083000Y-105215000D01*
X57080000Y-105210000D01*
X57077000Y-105205000D01*
X57075000Y-105200000D01*
X57072000Y-105194000D01*
X57070000Y-105189000D01*
X57069000Y-105183000D01*
X57067000Y-105178000D01*
X57066000Y-105172000D01*
X57066000Y-105166000D01*
X57065000Y-105161000D01*
X57065000Y-105155000D01*
X57065000Y-104795000D01*
X57065000Y-104789000D01*
X57066000Y-104784000D01*
X57066000Y-104778000D01*
X57067000Y-104772000D01*
X57069000Y-104767000D01*
X57070000Y-104761000D01*
X57072000Y-104756000D01*
X57075000Y-104750000D01*
X57077000Y-104745000D01*
X57080000Y-104740000D01*
X57083000Y-104735000D01*
X57086000Y-104730000D01*
X57090000Y-104726000D01*
X57093000Y-104721000D01*
X57097000Y-104717000D01*
X57101000Y-104713000D01*
X57106000Y-104710000D01*
X57110000Y-104706000D01*
X57115000Y-104703000D01*
X57120000Y-104700000D01*
X57125000Y-104697000D01*
X57130000Y-104695000D01*
X57136000Y-104692000D01*
X57141000Y-104690000D01*
X57147000Y-104689000D01*
X57152000Y-104687000D01*
X57158000Y-104686000D01*
X57164000Y-104686000D01*
X57169000Y-104685000D01*
X57175000Y-104685000D01*
X58425000Y-104685000D01*
X58431000Y-104685000D01*
X58436000Y-104686000D01*
G37*
X58436000Y-105336000D02*
X58442000Y-105336000D01*
X58448000Y-105337000D01*
X58453000Y-105339000D01*
X58459000Y-105340000D01*
X58464000Y-105342000D01*
X58470000Y-105345000D01*
X58475000Y-105347000D01*
X58480000Y-105350000D01*
X58485000Y-105353000D01*
X58490000Y-105356000D01*
X58494000Y-105360000D01*
X58499000Y-105363000D01*
X58503000Y-105367000D01*
X58507000Y-105371000D01*
X58510000Y-105376000D01*
X58514000Y-105380000D01*
X58517000Y-105385000D01*
X58520000Y-105390000D01*
X58523000Y-105395000D01*
X58525000Y-105400000D01*
X58528000Y-105406000D01*
X58530000Y-105411000D01*
X58531000Y-105417000D01*
X58533000Y-105422000D01*
X58534000Y-105428000D01*
X58534000Y-105434000D01*
X58535000Y-105439000D01*
X58535000Y-105445000D01*
X58535000Y-105805000D01*
X58535000Y-105811000D01*
X58534000Y-105816000D01*
X58534000Y-105822000D01*
X58533000Y-105828000D01*
X58531000Y-105833000D01*
X58530000Y-105839000D01*
X58528000Y-105844000D01*
X58525000Y-105850000D01*
X58523000Y-105855000D01*
X58520000Y-105860000D01*
X58517000Y-105865000D01*
X58514000Y-105870000D01*
X58510000Y-105874000D01*
X58507000Y-105879000D01*
X58503000Y-105883000D01*
X58499000Y-105887000D01*
X58494000Y-105890000D01*
X58490000Y-105894000D01*
X58485000Y-105897000D01*
X58480000Y-105900000D01*
X58475000Y-105903000D01*
X58470000Y-105905000D01*
X58464000Y-105908000D01*
X58459000Y-105910000D01*
X58453000Y-105911000D01*
X58448000Y-105913000D01*
X58442000Y-105914000D01*
X58436000Y-105914000D01*
X58431000Y-105915000D01*
X58425000Y-105915000D01*
X57175000Y-105915000D01*
X57169000Y-105915000D01*
X57164000Y-105914000D01*
X57158000Y-105914000D01*
X57152000Y-105913000D01*
X57147000Y-105911000D01*
X57141000Y-105910000D01*
X57136000Y-105908000D01*
X57130000Y-105905000D01*
X57125000Y-105903000D01*
X57120000Y-105900000D01*
X57115000Y-105897000D01*
X57110000Y-105894000D01*
X57106000Y-105890000D01*
X57101000Y-105887000D01*
X57097000Y-105883000D01*
X57093000Y-105879000D01*
X57090000Y-105874000D01*
X57086000Y-105870000D01*
X57083000Y-105865000D01*
X57080000Y-105860000D01*
X57077000Y-105855000D01*
X57075000Y-105850000D01*
X57072000Y-105844000D01*
X57070000Y-105839000D01*
X57069000Y-105833000D01*
X57067000Y-105828000D01*
X57066000Y-105822000D01*
X57066000Y-105816000D01*
X57065000Y-105811000D01*
X57065000Y-105805000D01*
X57065000Y-105445000D01*
X57065000Y-105439000D01*
X57066000Y-105434000D01*
X57066000Y-105428000D01*
X57067000Y-105422000D01*
X57069000Y-105417000D01*
X57070000Y-105411000D01*
X57072000Y-105406000D01*
X57075000Y-105400000D01*
X57077000Y-105395000D01*
X57080000Y-105390000D01*
X57083000Y-105385000D01*
X57086000Y-105380000D01*
X57090000Y-105376000D01*
X57093000Y-105371000D01*
X57097000Y-105367000D01*
X57101000Y-105363000D01*
X57106000Y-105360000D01*
X57110000Y-105356000D01*
X57115000Y-105353000D01*
X57120000Y-105350000D01*
X57125000Y-105347000D01*
X57130000Y-105345000D01*
X57136000Y-105342000D01*
X57141000Y-105340000D01*
X57147000Y-105339000D01*
X57152000Y-105337000D01*
X57158000Y-105336000D01*
X57164000Y-105336000D01*
X57169000Y-105335000D01*
X57175000Y-105335000D01*
X58425000Y-105335000D01*
X58431000Y-105335000D01*
X58436000Y-105336000D01*
G36*
X58436000Y-105336000D02*
G01*
X58442000Y-105336000D01*
X58448000Y-105337000D01*
X58453000Y-105339000D01*
X58459000Y-105340000D01*
X58464000Y-105342000D01*
X58470000Y-105345000D01*
X58475000Y-105347000D01*
X58480000Y-105350000D01*
X58485000Y-105353000D01*
X58490000Y-105356000D01*
X58494000Y-105360000D01*
X58499000Y-105363000D01*
X58503000Y-105367000D01*
X58507000Y-105371000D01*
X58510000Y-105376000D01*
X58514000Y-105380000D01*
X58517000Y-105385000D01*
X58520000Y-105390000D01*
X58523000Y-105395000D01*
X58525000Y-105400000D01*
X58528000Y-105406000D01*
X58530000Y-105411000D01*
X58531000Y-105417000D01*
X58533000Y-105422000D01*
X58534000Y-105428000D01*
X58534000Y-105434000D01*
X58535000Y-105439000D01*
X58535000Y-105445000D01*
X58535000Y-105805000D01*
X58535000Y-105811000D01*
X58534000Y-105816000D01*
X58534000Y-105822000D01*
X58533000Y-105828000D01*
X58531000Y-105833000D01*
X58530000Y-105839000D01*
X58528000Y-105844000D01*
X58525000Y-105850000D01*
X58523000Y-105855000D01*
X58520000Y-105860000D01*
X58517000Y-105865000D01*
X58514000Y-105870000D01*
X58510000Y-105874000D01*
X58507000Y-105879000D01*
X58503000Y-105883000D01*
X58499000Y-105887000D01*
X58494000Y-105890000D01*
X58490000Y-105894000D01*
X58485000Y-105897000D01*
X58480000Y-105900000D01*
X58475000Y-105903000D01*
X58470000Y-105905000D01*
X58464000Y-105908000D01*
X58459000Y-105910000D01*
X58453000Y-105911000D01*
X58448000Y-105913000D01*
X58442000Y-105914000D01*
X58436000Y-105914000D01*
X58431000Y-105915000D01*
X58425000Y-105915000D01*
X57175000Y-105915000D01*
X57169000Y-105915000D01*
X57164000Y-105914000D01*
X57158000Y-105914000D01*
X57152000Y-105913000D01*
X57147000Y-105911000D01*
X57141000Y-105910000D01*
X57136000Y-105908000D01*
X57130000Y-105905000D01*
X57125000Y-105903000D01*
X57120000Y-105900000D01*
X57115000Y-105897000D01*
X57110000Y-105894000D01*
X57106000Y-105890000D01*
X57101000Y-105887000D01*
X57097000Y-105883000D01*
X57093000Y-105879000D01*
X57090000Y-105874000D01*
X57086000Y-105870000D01*
X57083000Y-105865000D01*
X57080000Y-105860000D01*
X57077000Y-105855000D01*
X57075000Y-105850000D01*
X57072000Y-105844000D01*
X57070000Y-105839000D01*
X57069000Y-105833000D01*
X57067000Y-105828000D01*
X57066000Y-105822000D01*
X57066000Y-105816000D01*
X57065000Y-105811000D01*
X57065000Y-105805000D01*
X57065000Y-105445000D01*
X57065000Y-105439000D01*
X57066000Y-105434000D01*
X57066000Y-105428000D01*
X57067000Y-105422000D01*
X57069000Y-105417000D01*
X57070000Y-105411000D01*
X57072000Y-105406000D01*
X57075000Y-105400000D01*
X57077000Y-105395000D01*
X57080000Y-105390000D01*
X57083000Y-105385000D01*
X57086000Y-105380000D01*
X57090000Y-105376000D01*
X57093000Y-105371000D01*
X57097000Y-105367000D01*
X57101000Y-105363000D01*
X57106000Y-105360000D01*
X57110000Y-105356000D01*
X57115000Y-105353000D01*
X57120000Y-105350000D01*
X57125000Y-105347000D01*
X57130000Y-105345000D01*
X57136000Y-105342000D01*
X57141000Y-105340000D01*
X57147000Y-105339000D01*
X57152000Y-105337000D01*
X57158000Y-105336000D01*
X57164000Y-105336000D01*
X57169000Y-105335000D01*
X57175000Y-105335000D01*
X58425000Y-105335000D01*
X58431000Y-105335000D01*
X58436000Y-105336000D01*
G37*
%TO.C,J1*%
X51106000Y-122027800D02*
X51138000Y-122029800D01*
X51169000Y-122033800D01*
X51200000Y-122039800D01*
X51230000Y-122046800D01*
X51260000Y-122055800D01*
X51290000Y-122066800D01*
X51319000Y-122078800D01*
X51347000Y-122091800D01*
X51375000Y-122106800D01*
X51402000Y-122123800D01*
X51428000Y-122141800D01*
X51453000Y-122160800D01*
X51476000Y-122180800D01*
X51499000Y-122202800D01*
X51521000Y-122225800D01*
X51541000Y-122248800D01*
X51560000Y-122273800D01*
X51578000Y-122299800D01*
X51595000Y-122326800D01*
X51610000Y-122354800D01*
X51623000Y-122382800D01*
X51635000Y-122411800D01*
X51646000Y-122441800D01*
X51655000Y-122471800D01*
X51662000Y-122501800D01*
X51668000Y-122532800D01*
X51672000Y-122563800D01*
X51674000Y-122595800D01*
X51675000Y-122626800D01*
X51675000Y-123871800D01*
X49925000Y-123871800D01*
X49925000Y-122626800D01*
X49926000Y-122595800D01*
X49928000Y-122563800D01*
X49932000Y-122532800D01*
X49938000Y-122501800D01*
X49945000Y-122471800D01*
X49954000Y-122441800D01*
X49965000Y-122411800D01*
X49977000Y-122382800D01*
X49990000Y-122354800D01*
X50005000Y-122326800D01*
X50022000Y-122299800D01*
X50040000Y-122273800D01*
X50059000Y-122248800D01*
X50079000Y-122225800D01*
X50101000Y-122202800D01*
X50124000Y-122180800D01*
X50147000Y-122160800D01*
X50172000Y-122141800D01*
X50198000Y-122123800D01*
X50225000Y-122106800D01*
X50253000Y-122091800D01*
X50281000Y-122078800D01*
X50310000Y-122066800D01*
X50340000Y-122055800D01*
X50370000Y-122046800D01*
X50400000Y-122039800D01*
X50431000Y-122033800D01*
X50462000Y-122029800D01*
X50494000Y-122027800D01*
X50525000Y-122026800D01*
X51075000Y-122026800D01*
X51106000Y-122027800D01*
G36*
X51106000Y-122027800D02*
G01*
X51138000Y-122029800D01*
X51169000Y-122033800D01*
X51200000Y-122039800D01*
X51230000Y-122046800D01*
X51260000Y-122055800D01*
X51290000Y-122066800D01*
X51319000Y-122078800D01*
X51347000Y-122091800D01*
X51375000Y-122106800D01*
X51402000Y-122123800D01*
X51428000Y-122141800D01*
X51453000Y-122160800D01*
X51476000Y-122180800D01*
X51499000Y-122202800D01*
X51521000Y-122225800D01*
X51541000Y-122248800D01*
X51560000Y-122273800D01*
X51578000Y-122299800D01*
X51595000Y-122326800D01*
X51610000Y-122354800D01*
X51623000Y-122382800D01*
X51635000Y-122411800D01*
X51646000Y-122441800D01*
X51655000Y-122471800D01*
X51662000Y-122501800D01*
X51668000Y-122532800D01*
X51672000Y-122563800D01*
X51674000Y-122595800D01*
X51675000Y-122626800D01*
X51675000Y-123871800D01*
X49925000Y-123871800D01*
X49925000Y-122626800D01*
X49926000Y-122595800D01*
X49928000Y-122563800D01*
X49932000Y-122532800D01*
X49938000Y-122501800D01*
X49945000Y-122471800D01*
X49954000Y-122441800D01*
X49965000Y-122411800D01*
X49977000Y-122382800D01*
X49990000Y-122354800D01*
X50005000Y-122326800D01*
X50022000Y-122299800D01*
X50040000Y-122273800D01*
X50059000Y-122248800D01*
X50079000Y-122225800D01*
X50101000Y-122202800D01*
X50124000Y-122180800D01*
X50147000Y-122160800D01*
X50172000Y-122141800D01*
X50198000Y-122123800D01*
X50225000Y-122106800D01*
X50253000Y-122091800D01*
X50281000Y-122078800D01*
X50310000Y-122066800D01*
X50340000Y-122055800D01*
X50370000Y-122046800D01*
X50400000Y-122039800D01*
X50431000Y-122033800D01*
X50462000Y-122029800D01*
X50494000Y-122027800D01*
X50525000Y-122026800D01*
X51075000Y-122026800D01*
X51106000Y-122027800D01*
G37*
X51675000Y-129516800D02*
X51674000Y-129547800D01*
X51672000Y-129579800D01*
X51668000Y-129610800D01*
X51662000Y-129641800D01*
X51655000Y-129671800D01*
X51646000Y-129701800D01*
X51635000Y-129731800D01*
X51623000Y-129760800D01*
X51610000Y-129788800D01*
X51595000Y-129816800D01*
X51578000Y-129843800D01*
X51560000Y-129869800D01*
X51541000Y-129894800D01*
X51521000Y-129917800D01*
X51499000Y-129940800D01*
X51476000Y-129962800D01*
X51453000Y-129982800D01*
X51428000Y-130001800D01*
X51402000Y-130019800D01*
X51375000Y-130036800D01*
X51347000Y-130051800D01*
X51319000Y-130064800D01*
X51290000Y-130076800D01*
X51260000Y-130087800D01*
X51230000Y-130096800D01*
X51200000Y-130103800D01*
X51169000Y-130109800D01*
X51138000Y-130113800D01*
X51106000Y-130115800D01*
X51075000Y-130116800D01*
X50525000Y-130116800D01*
X50494000Y-130115800D01*
X50462000Y-130113800D01*
X50431000Y-130109800D01*
X50400000Y-130103800D01*
X50370000Y-130096800D01*
X50340000Y-130087800D01*
X50310000Y-130076800D01*
X50281000Y-130064800D01*
X50253000Y-130051800D01*
X50225000Y-130036800D01*
X50198000Y-130019800D01*
X50172000Y-130001800D01*
X50147000Y-129982800D01*
X50124000Y-129962800D01*
X50101000Y-129940800D01*
X50079000Y-129917800D01*
X50059000Y-129894800D01*
X50040000Y-129869800D01*
X50022000Y-129843800D01*
X50005000Y-129816800D01*
X49990000Y-129788800D01*
X49977000Y-129760800D01*
X49965000Y-129731800D01*
X49954000Y-129701800D01*
X49945000Y-129671800D01*
X49938000Y-129641800D01*
X49932000Y-129610800D01*
X49928000Y-129579800D01*
X49926000Y-129547800D01*
X49925000Y-129516800D01*
X49925000Y-128271800D01*
X51675000Y-128271800D01*
X51675000Y-129516800D01*
G36*
X51675000Y-129516800D02*
G01*
X51674000Y-129547800D01*
X51672000Y-129579800D01*
X51668000Y-129610800D01*
X51662000Y-129641800D01*
X51655000Y-129671800D01*
X51646000Y-129701800D01*
X51635000Y-129731800D01*
X51623000Y-129760800D01*
X51610000Y-129788800D01*
X51595000Y-129816800D01*
X51578000Y-129843800D01*
X51560000Y-129869800D01*
X51541000Y-129894800D01*
X51521000Y-129917800D01*
X51499000Y-129940800D01*
X51476000Y-129962800D01*
X51453000Y-129982800D01*
X51428000Y-130001800D01*
X51402000Y-130019800D01*
X51375000Y-130036800D01*
X51347000Y-130051800D01*
X51319000Y-130064800D01*
X51290000Y-130076800D01*
X51260000Y-130087800D01*
X51230000Y-130096800D01*
X51200000Y-130103800D01*
X51169000Y-130109800D01*
X51138000Y-130113800D01*
X51106000Y-130115800D01*
X51075000Y-130116800D01*
X50525000Y-130116800D01*
X50494000Y-130115800D01*
X50462000Y-130113800D01*
X50431000Y-130109800D01*
X50400000Y-130103800D01*
X50370000Y-130096800D01*
X50340000Y-130087800D01*
X50310000Y-130076800D01*
X50281000Y-130064800D01*
X50253000Y-130051800D01*
X50225000Y-130036800D01*
X50198000Y-130019800D01*
X50172000Y-130001800D01*
X50147000Y-129982800D01*
X50124000Y-129962800D01*
X50101000Y-129940800D01*
X50079000Y-129917800D01*
X50059000Y-129894800D01*
X50040000Y-129869800D01*
X50022000Y-129843800D01*
X50005000Y-129816800D01*
X49990000Y-129788800D01*
X49977000Y-129760800D01*
X49965000Y-129731800D01*
X49954000Y-129701800D01*
X49945000Y-129671800D01*
X49938000Y-129641800D01*
X49932000Y-129610800D01*
X49928000Y-129579800D01*
X49926000Y-129547800D01*
X49925000Y-129516800D01*
X49925000Y-128271800D01*
X51675000Y-128271800D01*
X51675000Y-129516800D01*
G37*
%TD*%
D18*
%TO.C,C26*%
X138925000Y-98600000D03*
X134000000Y-98600000D03*
%TD*%
D19*
%TO.C,MIX1*%
X106000000Y-100349000D03*
X108540000Y-100349000D03*
X111080000Y-100349000D03*
X111080000Y-95269000D03*
X108540000Y-95269000D03*
X106000000Y-95269000D03*
%TD*%
D20*
%TO.C,C7*%
X62800000Y-97625000D03*
X62800000Y-96075000D03*
%TD*%
D21*
%TO.C,C8*%
X58971800Y-89100000D03*
X58971800Y-87200000D03*
%TD*%
D22*
%TO.C,J3*%
X71591800Y-109960000D03*
D23*
X76671800Y-107800000D03*
D24*
X74131800Y-107800000D03*
X71591800Y-107800000D03*
X69051800Y-107800000D03*
%TD*%
D25*
%TO.C,L2*%
X112655000Y-114900000D03*
X111080000Y-114900000D03*
%TD*%
D26*
%TO.C,J4*%
X109780000Y-135500000D03*
X112555000Y-135500000D03*
X107005000Y-135500000D03*
%TD*%
D27*
%TO.C,R9*%
X118875000Y-73000000D03*
X120700000Y-73000000D03*
%TD*%
D21*
%TO.C,C1*%
X68471800Y-116800000D03*
X68471800Y-114900000D03*
%TD*%
D28*
%TO.C,PA_DET*%
X122600000Y-97100000D03*
%TD*%
D29*
%TO.C,C24*%
X135400000Y-94000000D03*
X133500000Y-94000000D03*
%TD*%
D28*
%TO.C,5V*%
X68100000Y-123400000D03*
%TD*%
D30*
%TO.C,R3*%
X58000000Y-100400000D03*
X58000000Y-98575000D03*
%TD*%
D31*
%TO.C,AT1*%
X72845800Y-77651000D03*
X72845800Y-76975000D03*
X71871800Y-76975000D03*
X71871800Y-77651000D03*
%TD*%
D29*
%TO.C,C13*%
X120100000Y-122700000D03*
X118200000Y-122700000D03*
%TD*%
D32*
%TO.C,C3*%
X87646800Y-89710000D03*
X89196800Y-89710000D03*
%TD*%
D33*
%TO.C,BPF1*%
X92200000Y-89710000D03*
D34*
X93228700Y-89062300D03*
D33*
X94257400Y-89710000D03*
D34*
X93228700Y-90357700D03*
%TD*%
D35*
%TO.C,R15*%
X85700000Y-81575000D03*
X85700000Y-83400000D03*
%TD*%
D36*
%TO.C,AT4*%
X115324000Y-89694000D03*
X116000000Y-89694000D03*
X116000000Y-88720000D03*
X115324000Y-88720000D03*
%TD*%
D35*
%TO.C,R19*%
X63571800Y-105100000D03*
X63571800Y-106925000D03*
%TD*%
D28*
%TO.C,ADC*%
X76300000Y-115500000D03*
%TD*%
D37*
%TO.C,J6*%
X71871800Y-72500000D03*
X69096800Y-72500000D03*
X74646800Y-72500000D03*
%TD*%
D38*
%TO.C,L1*%
X85671800Y-88135000D03*
X85671800Y-89710000D03*
%TD*%
D39*
%TO.C,J8*%
X145800000Y-107500000D03*
X145800000Y-104725000D03*
X145800000Y-110275000D03*
%TD*%
D40*
%TO.C,R5*%
X71871800Y-91730000D03*
D27*
X73696800Y-91730000D03*
D30*
X71871800Y-89905000D03*
%TD*%
%TO.C,R1*%
X140400000Y-86600000D03*
X140400000Y-84775000D03*
%TD*%
D40*
%TO.C,R6*%
X105700000Y-88720000D03*
D27*
X107525000Y-88720000D03*
D30*
X105700000Y-86895000D03*
%TD*%
%TO.C,R8*%
X60200000Y-108900000D03*
X60200000Y-107075000D03*
%TD*%
D35*
%TO.C,R4*%
X53800000Y-96575000D03*
X53800000Y-98400000D03*
%TD*%
D29*
%TO.C,C9*%
X53700000Y-93300000D03*
X51800000Y-93300000D03*
%TD*%
D41*
%TO.C,SPLT1*%
X97000000Y-88720000D03*
X97000000Y-89710000D03*
X97000000Y-90700000D03*
X99050000Y-90700000D03*
X99050000Y-89710000D03*
X99050000Y-88720000D03*
%TD*%
D18*
%TO.C,C25*%
X113100000Y-82700000D03*
X108175000Y-82700000D03*
%TD*%
D20*
%TO.C,C10*%
X109780000Y-124125000D03*
X109780000Y-122575000D03*
%TD*%
D42*
%TO.C,C5*%
X90200000Y-81600000D03*
X90200000Y-83500000D03*
%TD*%
D28*
%TO.C,3.3V*%
X83800000Y-119800000D03*
%TD*%
D43*
%TO.C,R16*%
X111075000Y-107527500D03*
D30*
X111075000Y-105702500D03*
D27*
X112900000Y-107527500D03*
%TD*%
D29*
%TO.C,C27*%
X122900000Y-80000000D03*
X121000000Y-80000000D03*
%TD*%
D44*
%TO.C,C20*%
X56661395Y-116900000D03*
D45*
X54161395Y-116900000D03*
%TD*%
D46*
%TO.C,R10*%
X122800000Y-76500000D03*
X120975000Y-76500000D03*
%TD*%
D47*
%TO.C,BPF2*%
X109780000Y-129000000D03*
D48*
X109132300Y-127971300D03*
D47*
X109780000Y-126942600D03*
D48*
X110427700Y-127971300D03*
%TD*%
D49*
%TO.C,LDO1*%
X62666800Y-114795000D03*
X62666800Y-115745000D03*
X62666800Y-116695000D03*
X65176800Y-116695000D03*
X65176800Y-114795000D03*
%TD*%
D50*
%TO.C,C36*%
X87900000Y-104325000D03*
X89800000Y-104325000D03*
%TD*%
D51*
%TO.C,FL1*%
X135573700Y-86600000D03*
D52*
X136600000Y-87245300D03*
D51*
X137626300Y-86600000D03*
D52*
X136600000Y-85954700D03*
%TD*%
D28*
%TO.C,TUNE*%
X54571800Y-82600000D03*
%TD*%
D53*
%TO.C,GB1*%
X81971800Y-91730000D03*
D54*
X83121800Y-91730000D03*
D53*
X83271800Y-89710000D03*
X81971800Y-89710000D03*
%TD*%
D55*
%TO.C,L8*%
X97050000Y-104325000D03*
X98625000Y-104325000D03*
%TD*%
D31*
%TO.C,AT5*%
X104300000Y-77476000D03*
X104300000Y-76800000D03*
X103326000Y-76800000D03*
X103326000Y-77476000D03*
%TD*%
D27*
%TO.C,R12*%
X82375000Y-108600000D03*
X84200000Y-108600000D03*
%TD*%
D37*
%TO.C,J7*%
X103326000Y-72500000D03*
X100551000Y-72500000D03*
X106101000Y-72500000D03*
%TD*%
D30*
%TO.C,R14*%
X84200000Y-104325000D03*
X84200000Y-102500000D03*
%TD*%
D29*
%TO.C,C23*%
X135400000Y-90000000D03*
X133500000Y-90000000D03*
%TD*%
D37*
%TO.C,J5*%
X140400000Y-72500000D03*
X137625000Y-72500000D03*
X143175000Y-72500000D03*
%TD*%
D31*
%TO.C,AT6*%
X141374000Y-77800000D03*
X141374000Y-77124000D03*
X140400000Y-77124000D03*
X140400000Y-77800000D03*
%TD*%
D28*
%TO.C,IF*%
X90900000Y-115500000D03*
%TD*%
D20*
%TO.C,C34*%
X101400000Y-106050000D03*
X101400000Y-104500000D03*
%TD*%
D46*
%TO.C,R11*%
X119825000Y-114400000D03*
X118000000Y-114400000D03*
%TD*%
D36*
%TO.C,AT3*%
X111268000Y-89694000D03*
X111944000Y-89694000D03*
X111944000Y-88720000D03*
X111268000Y-88720000D03*
%TD*%
D39*
%TO.C,J2*%
X145800000Y-86600000D03*
X145800000Y-83825000D03*
X145800000Y-89375000D03*
%TD*%
D32*
%TO.C,C2*%
X77346800Y-91730000D03*
X78896800Y-91730000D03*
%TD*%
D20*
%TO.C,C35*%
X93400000Y-106050000D03*
X93400000Y-104500000D03*
%TD*%
D53*
%TO.C,GB2*%
X109780000Y-119400000D03*
D54*
X110930000Y-119400000D03*
D53*
X111080000Y-117380000D03*
X109780000Y-117380000D03*
%TD*%
D56*
%TO.C,PA1*%
X124360000Y-84480000D03*
X124360000Y-85540000D03*
X124360000Y-86600000D03*
X124360000Y-87660000D03*
X124360000Y-88720000D03*
X124360000Y-89780000D03*
X124360000Y-90840000D03*
X131034000Y-90840000D03*
X131034000Y-89780000D03*
X131034000Y-88720000D03*
X131034000Y-87660000D03*
X131034000Y-86600000D03*
X131034000Y-85540000D03*
X131034000Y-84480000D03*
D57*
X127697000Y-89582000D03*
X127697000Y-85737000D03*
D58*
X127697000Y-87660000D03*
%TD*%
D20*
%TO.C,C11*%
X111080000Y-112425000D03*
X111080000Y-110875000D03*
%TD*%
D42*
%TO.C,C4*%
X94500000Y-81600000D03*
X94500000Y-83500000D03*
%TD*%
D29*
%TO.C,C12*%
X120000000Y-118600000D03*
X118100000Y-118600000D03*
%TD*%
D59*
%TO.C,J1*%
X53475000Y-124771800D03*
X53475000Y-125421800D03*
X53475000Y-126071800D03*
X53475000Y-126721800D03*
X53475000Y-127371800D03*
D60*
X50800000Y-127071800D03*
X50800000Y-125071800D03*
D61*
X53500000Y-123571800D03*
X53500000Y-128571800D03*
%TD*%
D35*
%TO.C,R2*%
X101700000Y-88720000D03*
X101700000Y-90545000D03*
%TD*%
D62*
%TO.C,VCO1*%
X59041800Y-91080000D03*
X59041800Y-91730000D03*
X59041800Y-92380000D03*
X59041800Y-93030000D03*
X63371800Y-93030000D03*
X63371800Y-92380000D03*
X63371800Y-91730000D03*
X63371800Y-91080000D03*
%TD*%
D36*
%TO.C,AT2*%
X67671800Y-92704000D03*
X68347800Y-92704000D03*
X68347800Y-91730000D03*
X67671800Y-91730000D03*
%TD*%
D63*
%TO.C,SW1*%
X54760000Y-73800000D03*
D64*
X57300000Y-73800000D03*
%TD*%
D20*
%TO.C,C6*%
X67200000Y-97625000D03*
X67200000Y-96075000D03*
%TD*%
D36*
%TO.C,AT7*%
X129400000Y-108474000D03*
X130076000Y-108474000D03*
X130076000Y-107500000D03*
X129400000Y-107500000D03*
%TD*%
D29*
%TO.C,C21*%
X121100000Y-86100000D03*
X119200000Y-86100000D03*
%TD*%
D21*
%TO.C,C22*%
X116800000Y-82500000D03*
X116800000Y-80600000D03*
%TD*%
%LPD*%
M02*
