%TF.GenerationSoftware,KiCad,Pcbnew,8.0.5*%
%TF.CreationDate,2025-06-09T19:50:20-04:00*%
%TF.ProjectId,fmcw_pcb,666d6377-5f70-4636-922e-6b696361645f,rev?*%
%TF.SameCoordinates,Original*%
%TF.FileFunction,Soldermask,Bot*%
%TF.FilePolarity,Negative*%
%FSLAX46Y46*%
G04 Gerber Fmt 4.6, Leading zero omitted, Abs format (unit mm)*
G04 Created by KiCad (PCBNEW 8.0.5) date 2025-06-09 19:50:20*
%MOMM*%
%LPD*%
G01*
G04 APERTURE LIST*
G04 Aperture macros list*
%AMRoundRect*
0 Rectangle with rounded corners*
0 $1 Rounding radius*
0 $2 $3 $4 $5 $6 $7 $8 $9 X,Y pos of 4 corners*
0 Add a 4 corners polygon primitive as box body*
4,1,4,$2,$3,$4,$5,$6,$7,$8,$9,$2,$3,0*
0 Add four circle primitives for the rounded corners*
1,1,$1+$1,$2,$3*
1,1,$1+$1,$4,$5*
1,1,$1+$1,$6,$7*
1,1,$1+$1,$8,$9*
0 Add four rect primitives between the rounded corners*
20,1,$1+$1,$2,$3,$4,$5,0*
20,1,$1+$1,$4,$5,$6,$7,0*
20,1,$1+$1,$6,$7,$8,$9,0*
20,1,$1+$1,$8,$9,$2,$3,0*%
G04 Aperture macros list end*
%ADD10C,0.010000*%
%ADD11C,1.100000*%
%ADD12R,1.730000X2.030000*%
%ADD13O,1.730000X2.030000*%
%ADD14RoundRect,0.375000X0.375000X1.575000X-0.375000X1.575000X-0.375000X-1.575000X0.375000X-1.575000X0*%
%ADD15RoundRect,0.375000X-0.375000X-1.575000X0.375000X-1.575000X0.375000X1.575000X-0.375000X1.575000X0*%
%ADD16RoundRect,0.375000X-1.575000X0.375000X-1.575000X-0.375000X1.575000X-0.375000X1.575000X0.375000X0*%
%ADD17R,1.600000X1.600000*%
%ADD18C,1.600000*%
%ADD19O,1.154000X1.504000*%
%ADD20R,1.700000X1.700000*%
%ADD21O,1.700000X1.700000*%
G04 APERTURE END LIST*
D10*
%TO.C,J1*%
X51238000Y-122086800D02*
X51264000Y-122090800D01*
X51289000Y-122094800D01*
X51314000Y-122100800D01*
X51338000Y-122107800D01*
X51362000Y-122116800D01*
X51386000Y-122126800D01*
X51409000Y-122137800D01*
X51431000Y-122149800D01*
X51453000Y-122162800D01*
X51474000Y-122177800D01*
X51494000Y-122192800D01*
X51514000Y-122209800D01*
X51532000Y-122226800D01*
X51550000Y-122245800D01*
X51566000Y-122264800D01*
X51582000Y-122284800D01*
X51596000Y-122305800D01*
X51610000Y-122327800D01*
X51622000Y-122350800D01*
X51633000Y-122373800D01*
X51643000Y-122396800D01*
X51651000Y-122420800D01*
X51658000Y-122445800D01*
X51664000Y-122470800D01*
X51669000Y-122495800D01*
X51672000Y-122520800D01*
X51674000Y-122545800D01*
X51675000Y-122571800D01*
X51674000Y-122597800D01*
X51672000Y-122622800D01*
X51669000Y-122647800D01*
X51664000Y-122672800D01*
X51658000Y-122697800D01*
X51651000Y-122722800D01*
X51643000Y-122746800D01*
X51633000Y-122769800D01*
X51622000Y-122792800D01*
X51610000Y-122815800D01*
X51596000Y-122837800D01*
X51582000Y-122858800D01*
X51566000Y-122878800D01*
X51550000Y-122897800D01*
X51532000Y-122916800D01*
X51514000Y-122933800D01*
X51494000Y-122950800D01*
X51474000Y-122965800D01*
X51453000Y-122980800D01*
X51431000Y-122993800D01*
X51409000Y-123005800D01*
X51386000Y-123016800D01*
X51362000Y-123026800D01*
X51338000Y-123035800D01*
X51314000Y-123042800D01*
X51289000Y-123048800D01*
X51264000Y-123052800D01*
X51238000Y-123056800D01*
X51213000Y-123058800D01*
X51188000Y-123058800D01*
X51187500Y-123059300D01*
X50412000Y-123058800D01*
X50387000Y-123058800D01*
X50362000Y-123056800D01*
X50336000Y-123052800D01*
X50311000Y-123048800D01*
X50286000Y-123042800D01*
X50262000Y-123035800D01*
X50238000Y-123026800D01*
X50214000Y-123016800D01*
X50191000Y-123005800D01*
X50169000Y-122993800D01*
X50147000Y-122980800D01*
X50126000Y-122965800D01*
X50106000Y-122950800D01*
X50086000Y-122933800D01*
X50068000Y-122916800D01*
X50050000Y-122897800D01*
X50034000Y-122878800D01*
X50018000Y-122858800D01*
X50004000Y-122837800D01*
X49990000Y-122815800D01*
X49978000Y-122792800D01*
X49967000Y-122769800D01*
X49957000Y-122746800D01*
X49949000Y-122722800D01*
X49942000Y-122697800D01*
X49936000Y-122672800D01*
X49931000Y-122647800D01*
X49928000Y-122622800D01*
X49926000Y-122597800D01*
X49925000Y-122571800D01*
X49926000Y-122545800D01*
X49928000Y-122520800D01*
X49931000Y-122495800D01*
X49936000Y-122470800D01*
X49942000Y-122445800D01*
X49949000Y-122420800D01*
X49957000Y-122396800D01*
X49967000Y-122373800D01*
X49978000Y-122350800D01*
X49990000Y-122327800D01*
X50004000Y-122305800D01*
X50018000Y-122284800D01*
X50034000Y-122264800D01*
X50050000Y-122245800D01*
X50068000Y-122226800D01*
X50086000Y-122209800D01*
X50106000Y-122192800D01*
X50126000Y-122177800D01*
X50147000Y-122162800D01*
X50169000Y-122149800D01*
X50191000Y-122137800D01*
X50214000Y-122126800D01*
X50238000Y-122116800D01*
X50262000Y-122107800D01*
X50286000Y-122100800D01*
X50311000Y-122094800D01*
X50336000Y-122090800D01*
X50362000Y-122086800D01*
X50387000Y-122084800D01*
X50412000Y-122084800D01*
X51188000Y-122084800D01*
X51213000Y-122084800D01*
X51238000Y-122086800D01*
G36*
X51238000Y-122086800D02*
G01*
X51264000Y-122090800D01*
X51289000Y-122094800D01*
X51314000Y-122100800D01*
X51338000Y-122107800D01*
X51362000Y-122116800D01*
X51386000Y-122126800D01*
X51409000Y-122137800D01*
X51431000Y-122149800D01*
X51453000Y-122162800D01*
X51474000Y-122177800D01*
X51494000Y-122192800D01*
X51514000Y-122209800D01*
X51532000Y-122226800D01*
X51550000Y-122245800D01*
X51566000Y-122264800D01*
X51582000Y-122284800D01*
X51596000Y-122305800D01*
X51610000Y-122327800D01*
X51622000Y-122350800D01*
X51633000Y-122373800D01*
X51643000Y-122396800D01*
X51651000Y-122420800D01*
X51658000Y-122445800D01*
X51664000Y-122470800D01*
X51669000Y-122495800D01*
X51672000Y-122520800D01*
X51674000Y-122545800D01*
X51675000Y-122571800D01*
X51674000Y-122597800D01*
X51672000Y-122622800D01*
X51669000Y-122647800D01*
X51664000Y-122672800D01*
X51658000Y-122697800D01*
X51651000Y-122722800D01*
X51643000Y-122746800D01*
X51633000Y-122769800D01*
X51622000Y-122792800D01*
X51610000Y-122815800D01*
X51596000Y-122837800D01*
X51582000Y-122858800D01*
X51566000Y-122878800D01*
X51550000Y-122897800D01*
X51532000Y-122916800D01*
X51514000Y-122933800D01*
X51494000Y-122950800D01*
X51474000Y-122965800D01*
X51453000Y-122980800D01*
X51431000Y-122993800D01*
X51409000Y-123005800D01*
X51386000Y-123016800D01*
X51362000Y-123026800D01*
X51338000Y-123035800D01*
X51314000Y-123042800D01*
X51289000Y-123048800D01*
X51264000Y-123052800D01*
X51238000Y-123056800D01*
X51213000Y-123058800D01*
X51188000Y-123058800D01*
X51187500Y-123059300D01*
X50412000Y-123058800D01*
X50387000Y-123058800D01*
X50362000Y-123056800D01*
X50336000Y-123052800D01*
X50311000Y-123048800D01*
X50286000Y-123042800D01*
X50262000Y-123035800D01*
X50238000Y-123026800D01*
X50214000Y-123016800D01*
X50191000Y-123005800D01*
X50169000Y-122993800D01*
X50147000Y-122980800D01*
X50126000Y-122965800D01*
X50106000Y-122950800D01*
X50086000Y-122933800D01*
X50068000Y-122916800D01*
X50050000Y-122897800D01*
X50034000Y-122878800D01*
X50018000Y-122858800D01*
X50004000Y-122837800D01*
X49990000Y-122815800D01*
X49978000Y-122792800D01*
X49967000Y-122769800D01*
X49957000Y-122746800D01*
X49949000Y-122722800D01*
X49942000Y-122697800D01*
X49936000Y-122672800D01*
X49931000Y-122647800D01*
X49928000Y-122622800D01*
X49926000Y-122597800D01*
X49925000Y-122571800D01*
X49926000Y-122545800D01*
X49928000Y-122520800D01*
X49931000Y-122495800D01*
X49936000Y-122470800D01*
X49942000Y-122445800D01*
X49949000Y-122420800D01*
X49957000Y-122396800D01*
X49967000Y-122373800D01*
X49978000Y-122350800D01*
X49990000Y-122327800D01*
X50004000Y-122305800D01*
X50018000Y-122284800D01*
X50034000Y-122264800D01*
X50050000Y-122245800D01*
X50068000Y-122226800D01*
X50086000Y-122209800D01*
X50106000Y-122192800D01*
X50126000Y-122177800D01*
X50147000Y-122162800D01*
X50169000Y-122149800D01*
X50191000Y-122137800D01*
X50214000Y-122126800D01*
X50238000Y-122116800D01*
X50262000Y-122107800D01*
X50286000Y-122100800D01*
X50311000Y-122094800D01*
X50336000Y-122090800D01*
X50362000Y-122086800D01*
X50387000Y-122084800D01*
X50412000Y-122084800D01*
X51188000Y-122084800D01*
X51213000Y-122084800D01*
X51238000Y-122086800D01*
G37*
X51238000Y-129086800D02*
X51264000Y-129090800D01*
X51289000Y-129094800D01*
X51314000Y-129100800D01*
X51338000Y-129107800D01*
X51362000Y-129116800D01*
X51386000Y-129126800D01*
X51409000Y-129137800D01*
X51431000Y-129149800D01*
X51453000Y-129162800D01*
X51474000Y-129177800D01*
X51494000Y-129192800D01*
X51514000Y-129209800D01*
X51532000Y-129226800D01*
X51550000Y-129245800D01*
X51566000Y-129264800D01*
X51582000Y-129284800D01*
X51596000Y-129305800D01*
X51610000Y-129327800D01*
X51622000Y-129350800D01*
X51633000Y-129373800D01*
X51643000Y-129396800D01*
X51651000Y-129420800D01*
X51658000Y-129445800D01*
X51664000Y-129470800D01*
X51669000Y-129495800D01*
X51672000Y-129520800D01*
X51674000Y-129545800D01*
X51675000Y-129571800D01*
X51674000Y-129597800D01*
X51672000Y-129622800D01*
X51669000Y-129647800D01*
X51664000Y-129672800D01*
X51658000Y-129697800D01*
X51651000Y-129722800D01*
X51643000Y-129746800D01*
X51633000Y-129769800D01*
X51622000Y-129792800D01*
X51610000Y-129815800D01*
X51596000Y-129837800D01*
X51582000Y-129858800D01*
X51566000Y-129878800D01*
X51550000Y-129897800D01*
X51532000Y-129916800D01*
X51514000Y-129933800D01*
X51494000Y-129950800D01*
X51474000Y-129965800D01*
X51453000Y-129980800D01*
X51431000Y-129993800D01*
X51409000Y-130005800D01*
X51386000Y-130016800D01*
X51362000Y-130026800D01*
X51338000Y-130035800D01*
X51314000Y-130042800D01*
X51289000Y-130048800D01*
X51264000Y-130052800D01*
X51238000Y-130056800D01*
X51213000Y-130058800D01*
X51188000Y-130058800D01*
X51187500Y-130059300D01*
X50412000Y-130058800D01*
X50387000Y-130058800D01*
X50362000Y-130056800D01*
X50336000Y-130052800D01*
X50311000Y-130048800D01*
X50286000Y-130042800D01*
X50262000Y-130035800D01*
X50238000Y-130026800D01*
X50214000Y-130016800D01*
X50191000Y-130005800D01*
X50169000Y-129993800D01*
X50147000Y-129980800D01*
X50126000Y-129965800D01*
X50106000Y-129950800D01*
X50086000Y-129933800D01*
X50068000Y-129916800D01*
X50050000Y-129897800D01*
X50034000Y-129878800D01*
X50018000Y-129858800D01*
X50004000Y-129837800D01*
X49990000Y-129815800D01*
X49978000Y-129792800D01*
X49967000Y-129769800D01*
X49957000Y-129746800D01*
X49949000Y-129722800D01*
X49942000Y-129697800D01*
X49936000Y-129672800D01*
X49931000Y-129647800D01*
X49928000Y-129622800D01*
X49926000Y-129597800D01*
X49925000Y-129571800D01*
X49926000Y-129545800D01*
X49928000Y-129520800D01*
X49931000Y-129495800D01*
X49936000Y-129470800D01*
X49942000Y-129445800D01*
X49949000Y-129420800D01*
X49957000Y-129396800D01*
X49967000Y-129373800D01*
X49978000Y-129350800D01*
X49990000Y-129327800D01*
X50004000Y-129305800D01*
X50018000Y-129284800D01*
X50034000Y-129264800D01*
X50050000Y-129245800D01*
X50068000Y-129226800D01*
X50086000Y-129209800D01*
X50106000Y-129192800D01*
X50126000Y-129177800D01*
X50147000Y-129162800D01*
X50169000Y-129149800D01*
X50191000Y-129137800D01*
X50214000Y-129126800D01*
X50238000Y-129116800D01*
X50262000Y-129107800D01*
X50286000Y-129100800D01*
X50311000Y-129094800D01*
X50336000Y-129090800D01*
X50362000Y-129086800D01*
X50387000Y-129084800D01*
X50412000Y-129084800D01*
X51188000Y-129084800D01*
X51213000Y-129084800D01*
X51238000Y-129086800D01*
G36*
X51238000Y-129086800D02*
G01*
X51264000Y-129090800D01*
X51289000Y-129094800D01*
X51314000Y-129100800D01*
X51338000Y-129107800D01*
X51362000Y-129116800D01*
X51386000Y-129126800D01*
X51409000Y-129137800D01*
X51431000Y-129149800D01*
X51453000Y-129162800D01*
X51474000Y-129177800D01*
X51494000Y-129192800D01*
X51514000Y-129209800D01*
X51532000Y-129226800D01*
X51550000Y-129245800D01*
X51566000Y-129264800D01*
X51582000Y-129284800D01*
X51596000Y-129305800D01*
X51610000Y-129327800D01*
X51622000Y-129350800D01*
X51633000Y-129373800D01*
X51643000Y-129396800D01*
X51651000Y-129420800D01*
X51658000Y-129445800D01*
X51664000Y-129470800D01*
X51669000Y-129495800D01*
X51672000Y-129520800D01*
X51674000Y-129545800D01*
X51675000Y-129571800D01*
X51674000Y-129597800D01*
X51672000Y-129622800D01*
X51669000Y-129647800D01*
X51664000Y-129672800D01*
X51658000Y-129697800D01*
X51651000Y-129722800D01*
X51643000Y-129746800D01*
X51633000Y-129769800D01*
X51622000Y-129792800D01*
X51610000Y-129815800D01*
X51596000Y-129837800D01*
X51582000Y-129858800D01*
X51566000Y-129878800D01*
X51550000Y-129897800D01*
X51532000Y-129916800D01*
X51514000Y-129933800D01*
X51494000Y-129950800D01*
X51474000Y-129965800D01*
X51453000Y-129980800D01*
X51431000Y-129993800D01*
X51409000Y-130005800D01*
X51386000Y-130016800D01*
X51362000Y-130026800D01*
X51338000Y-130035800D01*
X51314000Y-130042800D01*
X51289000Y-130048800D01*
X51264000Y-130052800D01*
X51238000Y-130056800D01*
X51213000Y-130058800D01*
X51188000Y-130058800D01*
X51187500Y-130059300D01*
X50412000Y-130058800D01*
X50387000Y-130058800D01*
X50362000Y-130056800D01*
X50336000Y-130052800D01*
X50311000Y-130048800D01*
X50286000Y-130042800D01*
X50262000Y-130035800D01*
X50238000Y-130026800D01*
X50214000Y-130016800D01*
X50191000Y-130005800D01*
X50169000Y-129993800D01*
X50147000Y-129980800D01*
X50126000Y-129965800D01*
X50106000Y-129950800D01*
X50086000Y-129933800D01*
X50068000Y-129916800D01*
X50050000Y-129897800D01*
X50034000Y-129878800D01*
X50018000Y-129858800D01*
X50004000Y-129837800D01*
X49990000Y-129815800D01*
X49978000Y-129792800D01*
X49967000Y-129769800D01*
X49957000Y-129746800D01*
X49949000Y-129722800D01*
X49942000Y-129697800D01*
X49936000Y-129672800D01*
X49931000Y-129647800D01*
X49928000Y-129622800D01*
X49926000Y-129597800D01*
X49925000Y-129571800D01*
X49926000Y-129545800D01*
X49928000Y-129520800D01*
X49931000Y-129495800D01*
X49936000Y-129470800D01*
X49942000Y-129445800D01*
X49949000Y-129420800D01*
X49957000Y-129396800D01*
X49967000Y-129373800D01*
X49978000Y-129350800D01*
X49990000Y-129327800D01*
X50004000Y-129305800D01*
X50018000Y-129284800D01*
X50034000Y-129264800D01*
X50050000Y-129245800D01*
X50068000Y-129226800D01*
X50086000Y-129209800D01*
X50106000Y-129192800D01*
X50126000Y-129177800D01*
X50147000Y-129162800D01*
X50169000Y-129149800D01*
X50191000Y-129137800D01*
X50214000Y-129126800D01*
X50238000Y-129116800D01*
X50262000Y-129107800D01*
X50286000Y-129100800D01*
X50311000Y-129094800D01*
X50336000Y-129090800D01*
X50362000Y-129086800D01*
X50387000Y-129084800D01*
X50412000Y-129084800D01*
X51188000Y-129084800D01*
X51213000Y-129084800D01*
X51238000Y-129086800D01*
G37*
%TD*%
D11*
%TO.C,J3*%
X71591800Y-109960000D03*
D12*
X76671800Y-107800000D03*
D13*
X74131800Y-107800000D03*
X71591800Y-107800000D03*
X69051800Y-107800000D03*
%TD*%
D14*
%TO.C,J4*%
X107005000Y-135500000D03*
X112555000Y-135500000D03*
%TD*%
D15*
%TO.C,J6*%
X74646800Y-72500000D03*
X69096800Y-72500000D03*
%TD*%
D16*
%TO.C,J8*%
X145800000Y-110275000D03*
X145800000Y-104725000D03*
%TD*%
D17*
%TO.C,C20*%
X56661395Y-116900000D03*
D18*
X54161395Y-116900000D03*
%TD*%
D15*
%TO.C,J7*%
X106101000Y-72500000D03*
X100551000Y-72500000D03*
%TD*%
%TO.C,J5*%
X143175000Y-72500000D03*
X137625000Y-72500000D03*
%TD*%
D16*
%TO.C,J2*%
X145800000Y-89375000D03*
X145800000Y-83825000D03*
%TD*%
D19*
%TO.C,J1*%
X53500000Y-123571800D03*
X53500000Y-128571800D03*
%TD*%
D20*
%TO.C,SW1*%
X54760000Y-73800000D03*
D21*
X57300000Y-73800000D03*
%TD*%
M02*
