%TF.GenerationSoftware,KiCad,Pcbnew,8.0.5*%
%TF.CreationDate,2025-06-09T19:50:20-04:00*%
%TF.ProjectId,fmcw_pcb,666d6377-5f70-4636-922e-6b696361645f,rev?*%
%TF.SameCoordinates,Original*%
%TF.FileFunction,Copper,L2,Inr*%
%TF.FilePolarity,Positive*%
%FSLAX46Y46*%
G04 Gerber Fmt 4.6, Leading zero omitted, Abs format (unit mm)*
G04 Created by KiCad (PCBNEW 8.0.5) date 2025-06-09 19:50:20*
%MOMM*%
%LPD*%
G01*
G04 APERTURE LIST*
G04 Aperture macros list*
%AMFreePoly0*
4,1,123,1.203536,0.778536,1.205000,0.775000,1.205000,-0.775000,1.203536,-0.778536,1.200000,-0.780000,0.055000,-0.780000,0.054808,-0.779996,0.028808,-0.778996,0.028617,-0.778985,0.002617,-0.776985,0.002427,-0.776967,-0.023573,-0.773967,-0.023944,-0.773910,-0.049944,-0.768910,-0.050167,-0.768862,-0.075167,-0.762862,-0.075300,-0.762828,-0.101300,-0.755828,-0.101756,-0.755682,-0.125756,-0.746682,
-0.125923,-0.746615,-0.149923,-0.736615,-0.150083,-0.736545,-0.174083,-0.725545,-0.174460,-0.725353,-0.197460,-0.712353,-0.197684,-0.712218,-0.241684,-0.684218,-0.242030,-0.683977,-0.263030,-0.667977,-0.263238,-0.667810,-0.283238,-0.650810,-0.283439,-0.650630,-0.302439,-0.632630,-0.302630,-0.632439,-0.320630,-0.613439,-0.320810,-0.613238,-0.337810,-0.593238,-0.337977,-0.593030,-0.353977,-0.572030,
-0.354218,-0.571684,-0.382218,-0.527684,-0.382353,-0.527460,-0.395353,-0.504460,-0.395545,-0.504083,-0.406545,-0.480083,-0.406615,-0.479923,-0.416615,-0.455923,-0.416682,-0.455756,-0.425682,-0.431756,-0.425828,-0.431300,-0.432828,-0.405300,-0.432862,-0.405167,-0.438862,-0.380167,-0.438910,-0.379944,-0.443910,-0.353944,-0.443967,-0.353573,-0.446967,-0.327573,-0.446985,-0.327383,-0.448985,-0.301383,
-0.448996,-0.301192,-0.449996,-0.275192,-0.450000,-0.275000,-0.450000,0.275000,-0.449996,0.275192,-0.448996,0.301192,-0.448985,0.301383,-0.446985,0.327383,-0.446967,0.327573,-0.443967,0.353573,-0.443910,0.353944,-0.438910,0.379944,-0.438862,0.380167,-0.432862,0.405167,-0.432828,0.405300,-0.425828,0.431300,-0.425682,0.431756,-0.416682,0.455756,-0.416615,0.455923,-0.406615,0.479923,
-0.406545,0.480083,-0.395545,0.504083,-0.395353,0.504460,-0.382353,0.527460,-0.382218,0.527684,-0.354218,0.571684,-0.353977,0.572030,-0.337977,0.593030,-0.337810,0.593238,-0.320810,0.613238,-0.320630,0.613439,-0.302630,0.632439,-0.302439,0.632630,-0.283439,0.650630,-0.283238,0.650810,-0.263238,0.667810,-0.263030,0.667977,-0.242030,0.683977,-0.241684,0.684218,-0.197684,0.712218,
-0.197460,0.712353,-0.174460,0.725353,-0.174083,0.725545,-0.150083,0.736545,-0.149923,0.736615,-0.125923,0.746615,-0.125756,0.746682,-0.101756,0.755682,-0.101300,0.755828,-0.075300,0.762828,-0.075167,0.762862,-0.050167,0.768862,-0.049944,0.768910,-0.023944,0.773910,-0.023573,0.773967,0.002427,0.776967,0.002617,0.776985,0.028617,0.778985,0.028808,0.778996,0.054808,0.779996,
0.055000,0.780000,1.200000,0.780000,1.203536,0.778536,1.203536,0.778536,$1*%
%AMFreePoly1*
4,1,123,-0.054808,0.779996,-0.028808,0.778996,-0.028617,0.778985,-0.002617,0.776985,-0.002427,0.776967,0.023573,0.773967,0.023944,0.773910,0.049944,0.768910,0.050167,0.768862,0.075167,0.762862,0.075300,0.762828,0.101300,0.755828,0.101756,0.755682,0.125756,0.746682,0.125923,0.746615,0.149923,0.736615,0.150083,0.736545,0.174083,0.725545,0.174460,0.725353,0.197460,0.712353,
0.197684,0.712218,0.241684,0.684218,0.242030,0.683977,0.263030,0.667977,0.263238,0.667810,0.283238,0.650810,0.283439,0.650630,0.302439,0.632630,0.302630,0.632439,0.320630,0.613439,0.320810,0.613238,0.337810,0.593238,0.337977,0.593030,0.353977,0.572030,0.354218,0.571684,0.382218,0.527684,0.382353,0.527460,0.395353,0.504460,0.395545,0.504083,0.406545,0.480083,
0.406615,0.479923,0.416615,0.455923,0.416682,0.455756,0.425682,0.431756,0.425828,0.431300,0.432828,0.405300,0.432862,0.405167,0.438862,0.380167,0.438910,0.379944,0.443910,0.353944,0.443967,0.353573,0.446967,0.327573,0.446985,0.327383,0.448985,0.301383,0.448996,0.301192,0.449996,0.275192,0.450000,0.275000,0.450000,-0.275000,0.449996,-0.275192,0.448996,-0.301192,
0.448985,-0.301383,0.446985,-0.327383,0.446967,-0.327573,0.443967,-0.353573,0.443910,-0.353944,0.438910,-0.379944,0.438862,-0.380167,0.432862,-0.405167,0.432828,-0.405300,0.425828,-0.431300,0.425682,-0.431756,0.416682,-0.455756,0.416615,-0.455923,0.406615,-0.479923,0.406545,-0.480083,0.395545,-0.504083,0.395353,-0.504460,0.382353,-0.527460,0.382218,-0.527684,0.354218,-0.571684,
0.353977,-0.572030,0.337977,-0.593030,0.337810,-0.593238,0.320810,-0.613238,0.320630,-0.613439,0.302630,-0.632439,0.302439,-0.632630,0.283439,-0.650630,0.283238,-0.650810,0.263238,-0.667810,0.263030,-0.667977,0.242030,-0.683977,0.241684,-0.684218,0.197684,-0.712218,0.197460,-0.712353,0.174460,-0.725353,0.174083,-0.725545,0.150083,-0.736545,0.149923,-0.736615,0.125923,-0.746615,
0.125756,-0.746682,0.101756,-0.755682,0.101300,-0.755828,0.075300,-0.762828,0.075167,-0.762862,0.050167,-0.768862,0.049944,-0.768910,0.023944,-0.773910,0.023573,-0.773967,-0.002427,-0.776967,-0.002617,-0.776985,-0.028617,-0.778985,-0.028808,-0.778996,-0.054808,-0.779996,-0.055000,-0.780000,-1.200000,-0.780000,-1.203536,-0.778536,-1.205000,-0.775000,-1.205000,0.775000,-1.203536,0.778536,
-1.200000,0.780000,-0.055000,0.780000,-0.054808,0.779996,-0.054808,0.779996,$1*%
G04 Aperture macros list end*
%TA.AperFunction,ComponentPad*%
%ADD10C,1.016000*%
%TD*%
%TA.AperFunction,ComponentPad*%
%ADD11R,1.730000X2.030000*%
%TD*%
%TA.AperFunction,ComponentPad*%
%ADD12O,1.730000X2.030000*%
%TD*%
%TA.AperFunction,ComponentPad*%
%ADD13R,1.600000X1.600000*%
%TD*%
%TA.AperFunction,ComponentPad*%
%ADD14C,1.600000*%
%TD*%
%TA.AperFunction,ComponentPad*%
%ADD15FreePoly0,270.000000*%
%TD*%
%TA.AperFunction,ComponentPad*%
%ADD16FreePoly1,270.000000*%
%TD*%
%TA.AperFunction,ComponentPad*%
%ADD17O,0.950000X1.300000*%
%TD*%
%TA.AperFunction,ComponentPad*%
%ADD18R,1.700000X1.700000*%
%TD*%
%TA.AperFunction,ComponentPad*%
%ADD19O,1.700000X1.700000*%
%TD*%
%TA.AperFunction,ViaPad*%
%ADD20C,0.600000*%
%TD*%
G04 APERTURE END LIST*
D10*
%TO.N,GND*%
%TO.C,MIX1*%
X106000000Y-102000000D03*
X106000000Y-97809000D03*
X107270000Y-97809000D03*
X108540000Y-97809000D03*
X109810000Y-97809000D03*
X111080000Y-97809000D03*
X111080000Y-93618000D03*
X108540000Y-93618000D03*
%TD*%
D11*
%TO.N,GND*%
%TO.C,J3*%
X76671800Y-107800000D03*
D12*
X74131800Y-107800000D03*
%TO.N,Net-(J3-dac)*%
X71591800Y-107800000D03*
%TO.N,Net-(J3-adc)*%
X69051800Y-107800000D03*
%TD*%
D13*
%TO.N,+5V*%
%TO.C,C20*%
X56661395Y-116900000D03*
D14*
%TO.N,GND*%
X54161395Y-116900000D03*
%TD*%
D15*
%TO.N,unconnected-(J1-SHIELD-PadSH1)_2*%
%TO.C,J1*%
X50800000Y-122571800D03*
D16*
%TO.N,unconnected-(J1-SHIELD-PadSH1)_1*%
X50800000Y-129571800D03*
D17*
%TO.N,unconnected-(J1-SHIELD-PadSH1)*%
X53500000Y-123571800D03*
%TO.N,unconnected-(J1-SHIELD-PadSH1)_4*%
X53500000Y-128571800D03*
%TD*%
D18*
%TO.N,Net-(SW1-A)*%
%TO.C,SW1*%
X54760000Y-73800000D03*
D19*
%TO.N,GND*%
X57300000Y-73800000D03*
%TD*%
D20*
%TO.N,GND*%
X127707500Y-89592500D03*
X127697000Y-85737000D03*
X114300000Y-100400000D03*
X74800000Y-119500000D03*
X67600000Y-85300000D03*
X79900000Y-80100000D03*
X133800000Y-110500000D03*
X93700000Y-88000000D03*
X114800000Y-134600000D03*
X114400000Y-104200000D03*
X61500000Y-115800000D03*
X132300000Y-84500000D03*
X51100000Y-79200000D03*
X79700000Y-102400000D03*
X106300000Y-82600000D03*
X50900000Y-86700000D03*
X145400000Y-111900000D03*
X114000000Y-119300000D03*
X144000000Y-81400000D03*
X142100000Y-90900000D03*
X109200000Y-76400000D03*
X123900000Y-79500000D03*
X142800000Y-76600000D03*
X142700000Y-91700000D03*
X132000000Y-88700000D03*
X136300000Y-73100000D03*
X54400000Y-111200000D03*
X95000000Y-129900000D03*
X116800000Y-119100000D03*
X114900000Y-135500000D03*
X127400000Y-135200000D03*
X139000000Y-89800000D03*
X129100000Y-109900000D03*
X92700000Y-91400000D03*
X85200000Y-71700000D03*
X80100000Y-135600000D03*
X147200000Y-90900000D03*
X113800000Y-126700000D03*
X116700000Y-91000000D03*
X118800000Y-130300000D03*
X117100000Y-79500000D03*
X98300000Y-135600000D03*
X89700000Y-84600000D03*
X50900000Y-119300000D03*
X75000000Y-80200000D03*
X52300000Y-116800000D03*
X95800000Y-100900000D03*
X81800000Y-98200000D03*
X51200000Y-76300000D03*
X111500000Y-127400000D03*
X92800000Y-107500000D03*
X57700000Y-92400000D03*
X70600000Y-135800000D03*
X78700000Y-106200000D03*
X105100000Y-131900000D03*
X74100000Y-77300000D03*
X121800000Y-110300000D03*
X136300000Y-72200000D03*
X143300000Y-90900000D03*
X137100000Y-88200000D03*
X67700000Y-98900000D03*
X101800000Y-107500000D03*
X114300000Y-101900000D03*
X112700000Y-91000000D03*
X112400000Y-119900000D03*
X146300000Y-82300000D03*
X136600000Y-90500000D03*
X114200000Y-99000000D03*
X67600000Y-71200000D03*
X129200000Y-76900000D03*
X126100000Y-84900000D03*
X126900000Y-82800000D03*
X104400000Y-136700000D03*
X127600000Y-110500000D03*
X125300000Y-93700000D03*
X114300000Y-102900000D03*
X112600000Y-92100000D03*
X53600000Y-114500000D03*
X136500000Y-93500000D03*
X128100000Y-93100000D03*
X102300000Y-100900000D03*
X98700000Y-86000000D03*
X78900000Y-121100000D03*
X136300000Y-75200000D03*
X145300000Y-119000000D03*
X89700000Y-86500000D03*
X99200000Y-71000000D03*
X68000000Y-93900000D03*
X67700000Y-88700000D03*
X86000000Y-114700000D03*
X132000000Y-90900000D03*
X94900000Y-118600000D03*
X101200000Y-129700000D03*
X98500000Y-80000000D03*
X83700000Y-101300000D03*
X109200000Y-92000000D03*
X99300000Y-96900000D03*
X65100000Y-98900000D03*
X142300000Y-82200000D03*
X124200000Y-115500000D03*
X113200000Y-86200000D03*
X144900000Y-73100000D03*
X136200000Y-88200000D03*
X144500000Y-103275000D03*
X132000000Y-89800000D03*
X114800000Y-133600000D03*
X146300000Y-90900000D03*
X114800000Y-71800000D03*
X93800000Y-107500000D03*
X62000000Y-135700000D03*
X66700000Y-98900000D03*
X87300000Y-97100000D03*
X129400000Y-86400000D03*
X64400000Y-89100000D03*
X126200000Y-93100000D03*
X146000000Y-96500000D03*
X79700000Y-88200000D03*
X99200000Y-73700000D03*
X50900000Y-117400000D03*
X65600000Y-71900000D03*
X107900000Y-127400000D03*
X133400000Y-104400000D03*
X116900000Y-123200000D03*
X57500000Y-111200000D03*
X144900000Y-74000000D03*
X50800000Y-111000000D03*
X73500000Y-135700000D03*
X127500000Y-81900000D03*
X128200000Y-82900000D03*
X146000000Y-93900000D03*
X146400000Y-103275000D03*
X99200000Y-72800000D03*
X105400000Y-134200000D03*
X138500000Y-101300000D03*
X107000000Y-117600000D03*
X145100000Y-116100000D03*
X51000000Y-105100000D03*
X114100000Y-97600000D03*
X114000000Y-134100000D03*
X85700000Y-92700000D03*
X145300000Y-82300000D03*
X144500000Y-111900000D03*
X113900000Y-93400000D03*
X124100000Y-71900000D03*
X81000000Y-94600000D03*
X118600000Y-135100000D03*
X90500000Y-119800000D03*
X105700000Y-77900000D03*
X93900000Y-84600000D03*
X73900000Y-103900000D03*
X75600000Y-123600000D03*
X106500000Y-120400000D03*
X145200000Y-121600000D03*
X67600000Y-76000000D03*
X107800000Y-72800000D03*
X104400000Y-135800000D03*
X109200000Y-85200000D03*
X103800000Y-98100000D03*
X65600000Y-111500000D03*
X130600000Y-82300000D03*
X146100000Y-81100000D03*
X56700000Y-130300000D03*
X82200000Y-94600000D03*
X113900000Y-94600000D03*
X52600000Y-134200000D03*
X119400000Y-91900000D03*
X136900000Y-116100000D03*
X57900000Y-125300000D03*
X93200000Y-111400000D03*
X63600000Y-104100000D03*
X123100000Y-85500000D03*
X126200000Y-94400000D03*
X84700000Y-101300000D03*
X67600000Y-74900000D03*
X135400000Y-77400000D03*
X94800000Y-135300000D03*
X76200000Y-72000000D03*
X130100000Y-94200000D03*
X83200000Y-135600000D03*
X79800000Y-85100000D03*
X145500000Y-130900000D03*
X116300000Y-79500000D03*
X142800000Y-78200000D03*
X107800000Y-73700000D03*
X137500000Y-128800000D03*
X100300000Y-117100000D03*
X136300000Y-71300000D03*
X112400000Y-119000000D03*
X100200000Y-89700000D03*
X50600000Y-93800000D03*
X132400000Y-72000000D03*
X115700000Y-91000000D03*
X107800000Y-71000000D03*
X80800000Y-76100000D03*
X56800000Y-135800000D03*
X95000000Y-86900000D03*
X92400000Y-108500000D03*
X114900000Y-136700000D03*
X82400000Y-82100000D03*
X106300000Y-81400000D03*
X144900000Y-71200000D03*
X114000000Y-133000000D03*
X123100000Y-86600000D03*
X67600000Y-73900000D03*
X76200000Y-71100000D03*
X50600000Y-100700000D03*
X76200000Y-73900000D03*
X118400000Y-96500000D03*
X67700000Y-135700000D03*
X56600000Y-113400000D03*
X83000000Y-71700000D03*
X135200000Y-73500000D03*
X146100000Y-74600000D03*
X103900000Y-101000000D03*
X101900000Y-93900000D03*
X50900000Y-88700000D03*
X95700000Y-88100000D03*
X59200000Y-103600000D03*
X109100000Y-71700000D03*
X114700000Y-91000000D03*
X135300000Y-82600000D03*
X107500000Y-114400000D03*
X68500000Y-118000000D03*
X50700000Y-114900000D03*
X95800000Y-90600000D03*
X75500000Y-110700000D03*
X53800000Y-119800000D03*
X118200000Y-86500000D03*
X123300000Y-89800000D03*
X144900000Y-81400000D03*
X107800000Y-71800000D03*
X114000000Y-96200000D03*
X96900000Y-77700000D03*
X143900000Y-91700000D03*
X137700000Y-135500000D03*
X144800000Y-75000000D03*
X88700000Y-129600000D03*
X97700000Y-108300000D03*
X80800000Y-71700000D03*
X132300000Y-85500000D03*
X100500000Y-79700000D03*
X114000000Y-92200000D03*
X126700000Y-96100000D03*
X50600000Y-96200000D03*
X63100000Y-98900000D03*
X129900000Y-116100000D03*
X76200000Y-73000000D03*
X54000000Y-135800000D03*
X131000000Y-135300000D03*
X75100000Y-88400000D03*
X65200000Y-129800000D03*
X78600000Y-71600000D03*
X89400000Y-78500000D03*
X61100000Y-71800000D03*
X129400000Y-88800000D03*
X99100000Y-76000000D03*
X67600000Y-72100000D03*
X94800000Y-123500000D03*
X91200000Y-135500000D03*
X135200000Y-72000000D03*
X100400000Y-83300000D03*
X114000000Y-122100000D03*
X93800000Y-91400000D03*
X62300000Y-88100000D03*
X92600000Y-71700000D03*
X127000000Y-104700000D03*
X105400000Y-136900000D03*
X106600000Y-118900000D03*
X65600000Y-89300000D03*
X82900000Y-130000000D03*
X140300000Y-110300000D03*
X105200000Y-133100000D03*
X126400000Y-81500000D03*
X147200000Y-111900000D03*
X126100000Y-88800000D03*
X141500000Y-96000000D03*
X75800000Y-76100000D03*
X112100000Y-71700000D03*
X71200000Y-98800000D03*
X125400000Y-81000000D03*
X111600000Y-91000000D03*
X129400000Y-72000000D03*
X120400000Y-101300000D03*
X104400000Y-134800000D03*
X106400000Y-116200000D03*
X59000000Y-85000000D03*
X63300000Y-88700000D03*
X67800000Y-80400000D03*
X130300000Y-122600000D03*
X63300000Y-85400000D03*
X63300000Y-80300000D03*
X69000000Y-93900000D03*
X50600000Y-92800000D03*
X138400000Y-104800000D03*
X64700000Y-91000000D03*
X130700000Y-93200000D03*
X143200000Y-135400000D03*
X83200000Y-79000000D03*
X74100000Y-76500000D03*
X119200000Y-126900000D03*
X147300000Y-103275000D03*
X101300000Y-135200000D03*
X136500000Y-94500000D03*
X55000000Y-127400000D03*
X121200000Y-135400000D03*
X108400000Y-118000000D03*
X128700000Y-102300000D03*
X114000000Y-135000000D03*
X53600000Y-108500000D03*
X88800000Y-135400000D03*
X123900000Y-76100000D03*
X94800000Y-71700000D03*
X50700000Y-90800000D03*
X86500000Y-78500000D03*
X92400000Y-77500000D03*
X101300000Y-123600000D03*
X62800000Y-111600000D03*
X50800000Y-107000000D03*
X87600000Y-123200000D03*
X116400000Y-135300000D03*
X89400000Y-100400000D03*
X146100000Y-78800000D03*
X96000000Y-93200000D03*
X124400000Y-130600000D03*
X59300000Y-135900000D03*
X137100000Y-84900000D03*
X85300000Y-76200000D03*
X129400000Y-84900000D03*
X59400000Y-86100000D03*
X142800000Y-77400000D03*
X61500000Y-121400000D03*
X131400000Y-83300000D03*
X90700000Y-93100000D03*
X107000000Y-107500000D03*
X107400000Y-116000000D03*
X129700000Y-83100000D03*
X59100000Y-71900000D03*
X147200000Y-82300000D03*
X130100000Y-92200000D03*
X80600000Y-115200000D03*
X50900000Y-73600000D03*
X82800000Y-85800000D03*
X145200000Y-113500000D03*
X59000000Y-76100000D03*
X110600000Y-91000000D03*
X51700000Y-132400000D03*
X89900000Y-71700000D03*
X67600000Y-73000000D03*
X50700000Y-113100000D03*
X62200000Y-98900000D03*
X119600000Y-104400000D03*
X125700000Y-82100000D03*
X74100000Y-78100000D03*
X123900000Y-76900000D03*
X85400000Y-93900000D03*
X127300000Y-92300000D03*
X100100000Y-112100000D03*
X87500000Y-71600000D03*
X103800000Y-99300000D03*
X89000000Y-108500000D03*
X89900000Y-76100000D03*
X97400000Y-71700000D03*
X134500000Y-135300000D03*
X118000000Y-78600000D03*
X78700000Y-88500000D03*
X136300000Y-74000000D03*
X95700000Y-88900000D03*
X145000000Y-91800000D03*
X95800000Y-91400000D03*
X146000000Y-91800000D03*
X144500000Y-90900000D03*
X79900000Y-95200000D03*
X145400000Y-103275000D03*
X130800000Y-129000000D03*
X80800000Y-87400000D03*
X50800000Y-109000000D03*
X103200000Y-93800000D03*
X123900000Y-80400000D03*
X103100000Y-108300000D03*
X126600000Y-71900000D03*
X135100000Y-71000000D03*
X92600000Y-88000000D03*
X82100000Y-86900000D03*
X114800000Y-76800000D03*
X50500000Y-98200000D03*
X97500000Y-83100000D03*
X107900000Y-78900000D03*
X126100000Y-86300000D03*
X125600000Y-100600000D03*
X70400000Y-129700000D03*
X146000000Y-101500000D03*
X105400000Y-126900000D03*
X65100000Y-135700000D03*
X95300000Y-114900000D03*
X130200000Y-109900000D03*
X50900000Y-84100000D03*
X63900000Y-102200000D03*
X58600000Y-86100000D03*
X81200000Y-88400000D03*
X99200000Y-71900000D03*
X116900000Y-122300000D03*
X128700000Y-92200000D03*
X114000000Y-136900000D03*
X146100000Y-99300000D03*
X127697000Y-87660000D03*
X73600000Y-95600000D03*
X142400000Y-103500000D03*
X103100000Y-95500000D03*
X111500000Y-128500000D03*
X83000000Y-123900000D03*
X115500000Y-110300000D03*
X114600000Y-118200000D03*
X55000000Y-77900000D03*
X59000000Y-80500000D03*
X83100000Y-93000000D03*
X145300000Y-128100000D03*
X113900000Y-131900000D03*
X142600000Y-89800000D03*
X127100000Y-93800000D03*
X140300000Y-135400000D03*
X100800000Y-107500000D03*
X106600000Y-111800000D03*
X111300000Y-92000000D03*
X60900000Y-86500000D03*
X75000000Y-85400000D03*
X124400000Y-135200000D03*
X68400000Y-119200000D03*
X76000000Y-129900000D03*
X124400000Y-126100000D03*
X63300000Y-76200000D03*
X135300000Y-74500000D03*
X50800000Y-102700000D03*
X143000000Y-81400000D03*
X92200000Y-84800000D03*
X144400000Y-82300000D03*
X107900000Y-128600000D03*
X118200000Y-85700000D03*
X94600000Y-75900000D03*
X105400000Y-121600000D03*
X50700000Y-82100000D03*
X129400000Y-93000000D03*
X80500000Y-111900000D03*
X76200000Y-74800000D03*
X144900000Y-72100000D03*
X90700000Y-84600000D03*
X104500000Y-133800000D03*
X83900000Y-93000000D03*
X105700000Y-76300000D03*
X83500000Y-94300000D03*
X136600000Y-89500000D03*
X67000000Y-93900000D03*
X85600000Y-135400000D03*
X146000000Y-72500000D03*
X114000000Y-136000000D03*
X69400000Y-103600000D03*
X144800000Y-133600000D03*
X105400000Y-135100000D03*
X93500000Y-96600000D03*
X115600000Y-117400000D03*
X95000000Y-84600000D03*
X145300000Y-124700000D03*
X146300000Y-111900000D03*
X82100000Y-88400000D03*
X126100000Y-90300000D03*
X76700000Y-135700000D03*
X132400000Y-82500000D03*
X108400000Y-116900000D03*
X133600000Y-83400000D03*
X72100000Y-123300000D03*
X146100000Y-73600000D03*
X110200000Y-92000000D03*
X116800000Y-118100000D03*
X105400000Y-136000000D03*
X146100000Y-76700000D03*
X61700000Y-87200000D03*
X103500000Y-96900000D03*
X129200000Y-82100000D03*
X136100000Y-84900000D03*
X137500000Y-122500000D03*
X114000000Y-120700000D03*
X63200000Y-71900000D03*
X105700000Y-77100000D03*
X143400000Y-82300000D03*
X125100000Y-120200000D03*
X76200000Y-99300000D03*
X129400000Y-90400000D03*
X116300000Y-85800000D03*
X145400000Y-90900000D03*
%TO.N,+3.3V*%
X83800000Y-117500000D03*
X54200000Y-105700000D03*
X59300000Y-100400000D03*
X69200000Y-113600000D03*
X68400000Y-113600000D03*
X56700000Y-100500000D03*
X61400000Y-95100000D03*
X67600000Y-113600000D03*
X68500000Y-96600000D03*
X68500000Y-95800000D03*
X81300000Y-108900000D03*
X81300000Y-108200000D03*
X61400000Y-96000000D03*
%TO.N,+5V*%
X121500000Y-123000000D03*
X114500000Y-80300000D03*
X93500000Y-80300000D03*
X131900000Y-100900000D03*
X68100000Y-125400000D03*
X61000000Y-117000000D03*
X94500000Y-80300000D03*
X59800000Y-115200000D03*
X59300000Y-114400000D03*
X117600000Y-73500000D03*
X117600000Y-72600000D03*
X61400000Y-117900000D03*
X133700000Y-100900000D03*
X112800000Y-80300000D03*
X113700000Y-80300000D03*
X121400000Y-123900000D03*
X134700000Y-100900000D03*
X95600000Y-80300000D03*
X132800000Y-100900000D03*
X121400000Y-122100000D03*
X112000000Y-80300000D03*
%TO.N,Net-(OA1-IN1+)*%
X61100000Y-104300000D03*
X82125000Y-104325000D03*
%TO.N,Net-(J3-dac)*%
X56200000Y-102600000D03*
%TO.N,Net-(SW1-A)*%
X55900000Y-92900000D03*
%TD*%
%TA.AperFunction,Conductor*%
%TO.N,GND*%
G36*
X76196555Y-107603147D02*
G01*
X76161800Y-107732857D01*
X76161800Y-107867143D01*
X76196555Y-107996853D01*
X76227240Y-108050000D01*
X74576360Y-108050000D01*
X74607045Y-107996853D01*
X74641800Y-107867143D01*
X74641800Y-107732857D01*
X74607045Y-107603147D01*
X74576360Y-107550000D01*
X76227240Y-107550000D01*
X76196555Y-107603147D01*
G37*
%TD.AperFunction*%
%TA.AperFunction,Conductor*%
G36*
X147476126Y-70699874D02*
G01*
X147543145Y-70719627D01*
X147588847Y-70772477D01*
X147600000Y-70823874D01*
X147600000Y-137275619D01*
X147580315Y-137342658D01*
X147527511Y-137388413D01*
X147475620Y-137399618D01*
X49922509Y-137100375D01*
X49855530Y-137080485D01*
X49809937Y-137027541D01*
X49798894Y-136977498D01*
X49739969Y-130446587D01*
X49759047Y-130379377D01*
X49811436Y-130333148D01*
X49880502Y-130322581D01*
X49935015Y-130343848D01*
X49936039Y-130344564D01*
X49954226Y-130356699D01*
X49998279Y-130384733D01*
X50009373Y-130391591D01*
X50009810Y-130391854D01*
X50009833Y-130391867D01*
X50009859Y-130391883D01*
X50021344Y-130398576D01*
X50044344Y-130411576D01*
X50044363Y-130411586D01*
X50063175Y-130421700D01*
X50063199Y-130421712D01*
X50063953Y-130422097D01*
X50083214Y-130431423D01*
X50107214Y-130442423D01*
X50111962Y-130444546D01*
X50115717Y-130446226D01*
X50116143Y-130446412D01*
X50123693Y-130449630D01*
X50123731Y-130449646D01*
X50147731Y-130459646D01*
X50156839Y-130463338D01*
X50157174Y-130463470D01*
X50164996Y-130466477D01*
X50188996Y-130475477D01*
X50211716Y-130483386D01*
X50212627Y-130483679D01*
X50212634Y-130483681D01*
X50235979Y-130490574D01*
X50235983Y-130490575D01*
X50261983Y-130497575D01*
X50268201Y-130499206D01*
X50268467Y-130499274D01*
X50275696Y-130501066D01*
X50300696Y-130507066D01*
X50312295Y-130509706D01*
X50312741Y-130509802D01*
X50323650Y-130512024D01*
X50339722Y-130515114D01*
X50349638Y-130517022D01*
X50349650Y-130517024D01*
X50368348Y-130520257D01*
X50369090Y-130520371D01*
X50387912Y-130522902D01*
X50413912Y-130525902D01*
X50422738Y-130526842D01*
X50423117Y-130526879D01*
X50423140Y-130526881D01*
X50433426Y-130527779D01*
X50433448Y-130527780D01*
X50433463Y-130527782D01*
X50459463Y-130529782D01*
X50469244Y-130530439D01*
X50469627Y-130530461D01*
X50479188Y-130530920D01*
X50479204Y-130530920D01*
X50479233Y-130530922D01*
X50505104Y-130531917D01*
X50505126Y-130531917D01*
X50505188Y-130531920D01*
X50515403Y-130532209D01*
X50515787Y-130532216D01*
X50525000Y-130532300D01*
X50525012Y-130532300D01*
X51074988Y-130532300D01*
X51075000Y-130532300D01*
X51084213Y-130532216D01*
X51084597Y-130532209D01*
X51094812Y-130531920D01*
X51094876Y-130531917D01*
X51094895Y-130531917D01*
X51120766Y-130530922D01*
X51120790Y-130530920D01*
X51120812Y-130530920D01*
X51130373Y-130530461D01*
X51130756Y-130530439D01*
X51140537Y-130529782D01*
X51166537Y-130527782D01*
X51166559Y-130527780D01*
X51166573Y-130527779D01*
X51172744Y-130527240D01*
X51176883Y-130526879D01*
X51177262Y-130526842D01*
X51186088Y-130525902D01*
X51212088Y-130522902D01*
X51230910Y-130520371D01*
X51231652Y-130520257D01*
X51250350Y-130517024D01*
X51250355Y-130517023D01*
X51250361Y-130517022D01*
X51254079Y-130516306D01*
X51276350Y-130512024D01*
X51287259Y-130509802D01*
X51287705Y-130509706D01*
X51299304Y-130507066D01*
X51324304Y-130501066D01*
X51331533Y-130499274D01*
X51331799Y-130499206D01*
X51338017Y-130497575D01*
X51364017Y-130490575D01*
X51387373Y-130483679D01*
X51388284Y-130483386D01*
X51411004Y-130475477D01*
X51435004Y-130466477D01*
X51442826Y-130463470D01*
X51443161Y-130463338D01*
X51452269Y-130459646D01*
X51476269Y-130449646D01*
X51478822Y-130448557D01*
X51483856Y-130446412D01*
X51483899Y-130446392D01*
X51483930Y-130446380D01*
X51484251Y-130446240D01*
X51492786Y-130442423D01*
X51516786Y-130431423D01*
X51536047Y-130422097D01*
X51536801Y-130421712D01*
X51536810Y-130421706D01*
X51536824Y-130421700D01*
X51542965Y-130418398D01*
X51555656Y-130411576D01*
X51578656Y-130398576D01*
X51590141Y-130391883D01*
X51590589Y-130391614D01*
X51601760Y-130384708D01*
X51645760Y-130356708D01*
X51663972Y-130344556D01*
X51664663Y-130344073D01*
X51681415Y-130331845D01*
X51702415Y-130315845D01*
X51713111Y-130307465D01*
X51713527Y-130307130D01*
X51723862Y-130298579D01*
X51743862Y-130281579D01*
X51753651Y-130273040D01*
X51754052Y-130272681D01*
X51764532Y-130263029D01*
X51783532Y-130245029D01*
X51793319Y-130235502D01*
X51793702Y-130235119D01*
X51803229Y-130225332D01*
X51821229Y-130206332D01*
X51830881Y-130195852D01*
X51831240Y-130195451D01*
X51839779Y-130185662D01*
X51856779Y-130165662D01*
X51865330Y-130155327D01*
X51865665Y-130154911D01*
X51874045Y-130144215D01*
X51890045Y-130123215D01*
X51902273Y-130106463D01*
X51902756Y-130105772D01*
X51914908Y-130087560D01*
X51942908Y-130043560D01*
X51949814Y-130032389D01*
X51950083Y-130031941D01*
X51956776Y-130020456D01*
X51969776Y-129997456D01*
X51979912Y-129978601D01*
X51980297Y-129977847D01*
X51989623Y-129958586D01*
X52000623Y-129934586D01*
X52004440Y-129926051D01*
X52004580Y-129925730D01*
X52007846Y-129918069D01*
X52017846Y-129894069D01*
X52021538Y-129884961D01*
X52021670Y-129884626D01*
X52024677Y-129876804D01*
X52033677Y-129852804D01*
X52041586Y-129830084D01*
X52041879Y-129829173D01*
X52048775Y-129805817D01*
X52055775Y-129779817D01*
X52057406Y-129773599D01*
X52057474Y-129773333D01*
X52059266Y-129766104D01*
X52065266Y-129741104D01*
X52067906Y-129729505D01*
X52068002Y-129729059D01*
X52070224Y-129718150D01*
X52075224Y-129692150D01*
X52078457Y-129673452D01*
X52078571Y-129672710D01*
X52081102Y-129653888D01*
X52084102Y-129627888D01*
X52085042Y-129619062D01*
X52085079Y-129618683D01*
X52085982Y-129608337D01*
X52087982Y-129582337D01*
X52088639Y-129572556D01*
X52088661Y-129572173D01*
X52089120Y-129562612D01*
X52090120Y-129536612D01*
X52090409Y-129526397D01*
X52090416Y-129526013D01*
X52090500Y-129516800D01*
X52090500Y-128371800D01*
X52087603Y-128317759D01*
X52083253Y-128300717D01*
X52524500Y-128300717D01*
X52524500Y-128842882D01*
X52561986Y-129031335D01*
X52561989Y-129031347D01*
X52635520Y-129208868D01*
X52635521Y-129208870D01*
X52742279Y-129368644D01*
X52742282Y-129368648D01*
X52878151Y-129504517D01*
X52878155Y-129504520D01*
X53037927Y-129611277D01*
X53037928Y-129611277D01*
X53037929Y-129611278D01*
X53037931Y-129611279D01*
X53186240Y-129672710D01*
X53215457Y-129684812D01*
X53383059Y-129718150D01*
X53403917Y-129722299D01*
X53403920Y-129722300D01*
X53403922Y-129722300D01*
X53596080Y-129722300D01*
X53596081Y-129722299D01*
X53784543Y-129684812D01*
X53962073Y-129611277D01*
X54121845Y-129504520D01*
X54257720Y-129368645D01*
X54364477Y-129208873D01*
X54438012Y-129031343D01*
X54475500Y-128842878D01*
X54475500Y-128300722D01*
X54475500Y-128300719D01*
X54475499Y-128300717D01*
X54438012Y-128112257D01*
X54379555Y-127971129D01*
X54364479Y-127934731D01*
X54364478Y-127934729D01*
X54337785Y-127894781D01*
X54257720Y-127774955D01*
X54257717Y-127774951D01*
X54121848Y-127639082D01*
X54121844Y-127639079D01*
X53962070Y-127532321D01*
X53962068Y-127532320D01*
X53784547Y-127458789D01*
X53784535Y-127458786D01*
X53596081Y-127421300D01*
X53596078Y-127421300D01*
X53403922Y-127421300D01*
X53403919Y-127421300D01*
X53215464Y-127458786D01*
X53215452Y-127458789D01*
X53037931Y-127532320D01*
X53037929Y-127532321D01*
X52878155Y-127639079D01*
X52878151Y-127639082D01*
X52742282Y-127774951D01*
X52742279Y-127774955D01*
X52635521Y-127934729D01*
X52635520Y-127934731D01*
X52561989Y-128112252D01*
X52561986Y-128112264D01*
X52524500Y-128300717D01*
X52083253Y-128300717D01*
X52052019Y-128178348D01*
X52049090Y-128171277D01*
X51997303Y-128076436D01*
X51899261Y-127971129D01*
X51899260Y-127971128D01*
X51899259Y-127971127D01*
X51899259Y-127971126D01*
X51775525Y-127897710D01*
X51768452Y-127894781D01*
X51768431Y-127894773D01*
X51717417Y-127876776D01*
X51669944Y-127869950D01*
X51575000Y-127856300D01*
X50025000Y-127856300D01*
X50024998Y-127856300D01*
X49970955Y-127859197D01*
X49970954Y-127859197D01*
X49870442Y-127884852D01*
X49800617Y-127882359D01*
X49743225Y-127842511D01*
X49716487Y-127777959D01*
X49715782Y-127765840D01*
X49694436Y-125399996D01*
X67294435Y-125399996D01*
X67294435Y-125400003D01*
X67314630Y-125579249D01*
X67314631Y-125579254D01*
X67374211Y-125749523D01*
X67470184Y-125902262D01*
X67597738Y-126029816D01*
X67750478Y-126125789D01*
X67920745Y-126185368D01*
X67920750Y-126185369D01*
X68099996Y-126205565D01*
X68100000Y-126205565D01*
X68100004Y-126205565D01*
X68279249Y-126185369D01*
X68279252Y-126185368D01*
X68279255Y-126185368D01*
X68449522Y-126125789D01*
X68602262Y-126029816D01*
X68729816Y-125902262D01*
X68825789Y-125749522D01*
X68885368Y-125579255D01*
X68905565Y-125400000D01*
X68885368Y-125220745D01*
X68825789Y-125050478D01*
X68729816Y-124897738D01*
X68602262Y-124770184D01*
X68449523Y-124674211D01*
X68279254Y-124614631D01*
X68279249Y-124614630D01*
X68100004Y-124594435D01*
X68099996Y-124594435D01*
X67920750Y-124614630D01*
X67920745Y-124614631D01*
X67750476Y-124674211D01*
X67597737Y-124770184D01*
X67470184Y-124897737D01*
X67374211Y-125050476D01*
X67314631Y-125220745D01*
X67314630Y-125220750D01*
X67294435Y-125399996D01*
X49694436Y-125399996D01*
X49685174Y-124373530D01*
X49704253Y-124306318D01*
X49756642Y-124260089D01*
X49825708Y-124249522D01*
X49850423Y-124255478D01*
X49882584Y-124266824D01*
X50025000Y-124287300D01*
X50025003Y-124287300D01*
X51575002Y-124287300D01*
X51580796Y-124286989D01*
X51629041Y-124284403D01*
X51768452Y-124248819D01*
X51775523Y-124245890D01*
X51870364Y-124194103D01*
X51975671Y-124096061D01*
X51975672Y-124096059D01*
X51975673Y-124096059D01*
X52049089Y-123972325D01*
X52049090Y-123972323D01*
X52052019Y-123965252D01*
X52070024Y-123914216D01*
X52090500Y-123771800D01*
X52090500Y-123300717D01*
X52524500Y-123300717D01*
X52524500Y-123842882D01*
X52561986Y-124031335D01*
X52561989Y-124031347D01*
X52635520Y-124208868D01*
X52635521Y-124208870D01*
X52742279Y-124368644D01*
X52742282Y-124368648D01*
X52878151Y-124504517D01*
X52878155Y-124504520D01*
X53037927Y-124611277D01*
X53037928Y-124611277D01*
X53037929Y-124611278D01*
X53037931Y-124611279D01*
X53072962Y-124625789D01*
X53215457Y-124684812D01*
X53403917Y-124722299D01*
X53403920Y-124722300D01*
X53403922Y-124722300D01*
X53596080Y-124722300D01*
X53596081Y-124722299D01*
X53784543Y-124684812D01*
X53962073Y-124611277D01*
X54121845Y-124504520D01*
X54257720Y-124368645D01*
X54364477Y-124208873D01*
X54438012Y-124031343D01*
X54475500Y-123842878D01*
X54475500Y-123300722D01*
X54475500Y-123300719D01*
X54475499Y-123300717D01*
X54451339Y-123179257D01*
X54438012Y-123112257D01*
X54364477Y-122934727D01*
X54257720Y-122774955D01*
X54257717Y-122774951D01*
X54121848Y-122639082D01*
X54121844Y-122639079D01*
X53962070Y-122532321D01*
X53962068Y-122532320D01*
X53784547Y-122458789D01*
X53784535Y-122458786D01*
X53596081Y-122421300D01*
X53596078Y-122421300D01*
X53403922Y-122421300D01*
X53403919Y-122421300D01*
X53215464Y-122458786D01*
X53215452Y-122458789D01*
X53037931Y-122532320D01*
X53037929Y-122532321D01*
X52878155Y-122639079D01*
X52878151Y-122639082D01*
X52742282Y-122774951D01*
X52742279Y-122774955D01*
X52635521Y-122934729D01*
X52635520Y-122934731D01*
X52561989Y-123112252D01*
X52561986Y-123112264D01*
X52524500Y-123300717D01*
X52090500Y-123300717D01*
X52090500Y-122626800D01*
X52090416Y-122617587D01*
X52090409Y-122617203D01*
X52090120Y-122606988D01*
X52089120Y-122580988D01*
X52088661Y-122571427D01*
X52088639Y-122571044D01*
X52087982Y-122561263D01*
X52085982Y-122535263D01*
X52085725Y-122532323D01*
X52085081Y-122524940D01*
X52085042Y-122524543D01*
X52085042Y-122524538D01*
X52084102Y-122515712D01*
X52081102Y-122489712D01*
X52078571Y-122470890D01*
X52078457Y-122470148D01*
X52075224Y-122451450D01*
X52074853Y-122449523D01*
X52070216Y-122425411D01*
X52068005Y-122414556D01*
X52068002Y-122414541D01*
X52067906Y-122414095D01*
X52065266Y-122402496D01*
X52059266Y-122377496D01*
X52057474Y-122370267D01*
X52057406Y-122370001D01*
X52057388Y-122369933D01*
X52057362Y-122369830D01*
X52055764Y-122363742D01*
X52048774Y-122337779D01*
X52041881Y-122314434D01*
X52041589Y-122313526D01*
X52033681Y-122290807D01*
X52033677Y-122290796D01*
X52024677Y-122266796D01*
X52021670Y-122258974D01*
X52021538Y-122258639D01*
X52017846Y-122249531D01*
X52007846Y-122225531D01*
X52007830Y-122225493D01*
X52004612Y-122217943D01*
X52004426Y-122217517D01*
X52000632Y-122209035D01*
X52000623Y-122209014D01*
X51989623Y-122185014D01*
X51980297Y-122165753D01*
X51979912Y-122164999D01*
X51979900Y-122164975D01*
X51969786Y-122146163D01*
X51969776Y-122146144D01*
X51956776Y-122123144D01*
X51950083Y-122111659D01*
X51949814Y-122111211D01*
X51949791Y-122111173D01*
X51942933Y-122100079D01*
X51942880Y-122099996D01*
X120594435Y-122099996D01*
X120594435Y-122100003D01*
X120614630Y-122279249D01*
X120614631Y-122279254D01*
X120674211Y-122449523D01*
X120751836Y-122573062D01*
X120770836Y-122640299D01*
X120763884Y-122679988D01*
X120714632Y-122820742D01*
X120714630Y-122820750D01*
X120694435Y-122999996D01*
X120694435Y-123000003D01*
X120714630Y-123179249D01*
X120714632Y-123179257D01*
X120763884Y-123320011D01*
X120767445Y-123389789D01*
X120751836Y-123426937D01*
X120674211Y-123550476D01*
X120614631Y-123720745D01*
X120614630Y-123720750D01*
X120594435Y-123899996D01*
X120594435Y-123900003D01*
X120614630Y-124079249D01*
X120614631Y-124079254D01*
X120659986Y-124208870D01*
X120674211Y-124249522D01*
X120770184Y-124402262D01*
X120897738Y-124529816D01*
X120988080Y-124586582D01*
X121032721Y-124614632D01*
X121050478Y-124625789D01*
X121188860Y-124674211D01*
X121220745Y-124685368D01*
X121220750Y-124685369D01*
X121399996Y-124705565D01*
X121400000Y-124705565D01*
X121400004Y-124705565D01*
X121579249Y-124685369D01*
X121579252Y-124685368D01*
X121579255Y-124685368D01*
X121749522Y-124625789D01*
X121902262Y-124529816D01*
X122029816Y-124402262D01*
X122125789Y-124249522D01*
X122185368Y-124079255D01*
X122185369Y-124079249D01*
X122205565Y-123900003D01*
X122205565Y-123899996D01*
X122185369Y-123720750D01*
X122185368Y-123720745D01*
X122136115Y-123579988D01*
X122132554Y-123510209D01*
X122148162Y-123473064D01*
X122225789Y-123349522D01*
X122285368Y-123179255D01*
X122292917Y-123112257D01*
X122305565Y-123000003D01*
X122305565Y-122999996D01*
X122285369Y-122820750D01*
X122285368Y-122820745D01*
X122225788Y-122650475D01*
X122169731Y-122561263D01*
X122148162Y-122526936D01*
X122129162Y-122459701D01*
X122136113Y-122420014D01*
X122185368Y-122279255D01*
X122187657Y-122258938D01*
X122205565Y-122100003D01*
X122205565Y-122099996D01*
X122185369Y-121920750D01*
X122185368Y-121920745D01*
X122171860Y-121882142D01*
X122125789Y-121750478D01*
X122029816Y-121597738D01*
X121902262Y-121470184D01*
X121749523Y-121374211D01*
X121579254Y-121314631D01*
X121579249Y-121314630D01*
X121400004Y-121294435D01*
X121399996Y-121294435D01*
X121220750Y-121314630D01*
X121220745Y-121314631D01*
X121050476Y-121374211D01*
X120897737Y-121470184D01*
X120770184Y-121597737D01*
X120674211Y-121750476D01*
X120614631Y-121920745D01*
X120614630Y-121920750D01*
X120594435Y-122099996D01*
X51942880Y-122099996D01*
X51914899Y-122056026D01*
X51902764Y-122037839D01*
X51902274Y-122037138D01*
X51890038Y-122020375D01*
X51874045Y-121999385D01*
X51865681Y-121988710D01*
X51865665Y-121988689D01*
X51865330Y-121988273D01*
X51856779Y-121977938D01*
X51839779Y-121957938D01*
X51831240Y-121948149D01*
X51830881Y-121947748D01*
X51830859Y-121947723D01*
X51821234Y-121937273D01*
X51803256Y-121918295D01*
X51798552Y-121913463D01*
X51793702Y-121908481D01*
X51793319Y-121908098D01*
X51788514Y-121903421D01*
X51783504Y-121898543D01*
X51764526Y-121880565D01*
X51754076Y-121870940D01*
X51753672Y-121870579D01*
X51753651Y-121870560D01*
X51743862Y-121862021D01*
X51723862Y-121845021D01*
X51713527Y-121836470D01*
X51713111Y-121836135D01*
X51702415Y-121827755D01*
X51702414Y-121827754D01*
X51681424Y-121811761D01*
X51664661Y-121799525D01*
X51663960Y-121799035D01*
X51645773Y-121786900D01*
X51601720Y-121758866D01*
X51590626Y-121752008D01*
X51590189Y-121751745D01*
X51588011Y-121750476D01*
X51578656Y-121745024D01*
X51555656Y-121732024D01*
X51555636Y-121732013D01*
X51536824Y-121721899D01*
X51536057Y-121721508D01*
X51536047Y-121721503D01*
X51516786Y-121712177D01*
X51492786Y-121701177D01*
X51492764Y-121701167D01*
X51484282Y-121697373D01*
X51483856Y-121697187D01*
X51476306Y-121693969D01*
X51452320Y-121683975D01*
X51452297Y-121683966D01*
X51452269Y-121683954D01*
X51443161Y-121680262D01*
X51443142Y-121680254D01*
X51443084Y-121680231D01*
X51442861Y-121680143D01*
X51435068Y-121677147D01*
X51410992Y-121668118D01*
X51388273Y-121660210D01*
X51387365Y-121659918D01*
X51364020Y-121653025D01*
X51338057Y-121646035D01*
X51331847Y-121644406D01*
X51331599Y-121644343D01*
X51331533Y-121644326D01*
X51324304Y-121642534D01*
X51299304Y-121636534D01*
X51287705Y-121633894D01*
X51287689Y-121633890D01*
X51287669Y-121633886D01*
X51287243Y-121633794D01*
X51276388Y-121631583D01*
X51250361Y-121626577D01*
X51231623Y-121623338D01*
X51230897Y-121623227D01*
X51212112Y-121620701D01*
X51212100Y-121620699D01*
X51212088Y-121620698D01*
X51194728Y-121618695D01*
X51186037Y-121617692D01*
X51177256Y-121616757D01*
X51176859Y-121616718D01*
X51166573Y-121615820D01*
X51140555Y-121613819D01*
X51130668Y-121613155D01*
X51130418Y-121613141D01*
X51120766Y-121612677D01*
X51094895Y-121611682D01*
X51090171Y-121611548D01*
X51084597Y-121611391D01*
X51084555Y-121611390D01*
X51084547Y-121611390D01*
X51084204Y-121611383D01*
X51075969Y-121611308D01*
X51075000Y-121611300D01*
X50525000Y-121611300D01*
X50524039Y-121611308D01*
X50515795Y-121611383D01*
X50515452Y-121611390D01*
X50515441Y-121611390D01*
X50515403Y-121611391D01*
X50510211Y-121611537D01*
X50505104Y-121611682D01*
X50479233Y-121612677D01*
X50469581Y-121613141D01*
X50469331Y-121613155D01*
X50459444Y-121613819D01*
X50433426Y-121615820D01*
X50423140Y-121616718D01*
X50422743Y-121616757D01*
X50413962Y-121617692D01*
X50396578Y-121619698D01*
X50387912Y-121620698D01*
X50387905Y-121620698D01*
X50387887Y-121620701D01*
X50369102Y-121623227D01*
X50368376Y-121623338D01*
X50349638Y-121626577D01*
X50323611Y-121631583D01*
X50312756Y-121633794D01*
X50312330Y-121633886D01*
X50312295Y-121633894D01*
X50300696Y-121636534D01*
X50275696Y-121642534D01*
X50268467Y-121644326D01*
X50268416Y-121644338D01*
X50268400Y-121644343D01*
X50268152Y-121644406D01*
X50261942Y-121646035D01*
X50235979Y-121653025D01*
X50212634Y-121659918D01*
X50211726Y-121660210D01*
X50189007Y-121668118D01*
X50164931Y-121677147D01*
X50157138Y-121680143D01*
X50156915Y-121680231D01*
X50147679Y-121683975D01*
X50123693Y-121693969D01*
X50116143Y-121697187D01*
X50115717Y-121697373D01*
X50107235Y-121701167D01*
X50083218Y-121712175D01*
X50063942Y-121721508D01*
X50063175Y-121721899D01*
X50044363Y-121732013D01*
X50044344Y-121732024D01*
X50021344Y-121745024D01*
X50015518Y-121748418D01*
X50009810Y-121751745D01*
X50009373Y-121752008D01*
X49998279Y-121758866D01*
X49954226Y-121786900D01*
X49936039Y-121799035D01*
X49935338Y-121799525D01*
X49918575Y-121811761D01*
X49897585Y-121827754D01*
X49886910Y-121836118D01*
X49886463Y-121836478D01*
X49876162Y-121845000D01*
X49865899Y-121853724D01*
X49802070Y-121882142D01*
X49733009Y-121871541D01*
X49680643Y-121825286D01*
X49661597Y-121760361D01*
X49661519Y-121751745D01*
X49617744Y-116899997D01*
X52856429Y-116899997D01*
X52856429Y-116900002D01*
X52876253Y-117126599D01*
X52876255Y-117126610D01*
X52935125Y-117346317D01*
X52935130Y-117346331D01*
X53031258Y-117552478D01*
X53082369Y-117625472D01*
X53761395Y-116946446D01*
X53761395Y-116952661D01*
X53788654Y-117054394D01*
X53841315Y-117145606D01*
X53915789Y-117220080D01*
X54007001Y-117272741D01*
X54108734Y-117300000D01*
X54114948Y-117300000D01*
X53435921Y-117979025D01*
X53508908Y-118030132D01*
X53508916Y-118030136D01*
X53715063Y-118126264D01*
X53715077Y-118126269D01*
X53934784Y-118185139D01*
X53934795Y-118185141D01*
X54161393Y-118204966D01*
X54161397Y-118204966D01*
X54387994Y-118185141D01*
X54388005Y-118185139D01*
X54607712Y-118126269D01*
X54607726Y-118126264D01*
X54813873Y-118030136D01*
X54886866Y-117979024D01*
X54207842Y-117300000D01*
X54214056Y-117300000D01*
X54315789Y-117272741D01*
X54407001Y-117220080D01*
X54481475Y-117145606D01*
X54534136Y-117054394D01*
X54561395Y-116952661D01*
X54561395Y-116946447D01*
X55245592Y-117630644D01*
X55294587Y-117640491D01*
X55344770Y-117689106D01*
X55359444Y-117744632D01*
X55360494Y-117744576D01*
X55360541Y-117744571D01*
X55360541Y-117744573D01*
X55360719Y-117744564D01*
X55360896Y-117747876D01*
X55367303Y-117807483D01*
X55417597Y-117942328D01*
X55417601Y-117942335D01*
X55503847Y-118057544D01*
X55503850Y-118057547D01*
X55619059Y-118143793D01*
X55619066Y-118143797D01*
X55753912Y-118194091D01*
X55753911Y-118194091D01*
X55760839Y-118194835D01*
X55813522Y-118200500D01*
X57509267Y-118200499D01*
X57568878Y-118194091D01*
X57703726Y-118143796D01*
X57818941Y-118057546D01*
X57905191Y-117942331D01*
X57955486Y-117807483D01*
X57961895Y-117747873D01*
X57961895Y-116999996D01*
X60194435Y-116999996D01*
X60194435Y-117000003D01*
X60214630Y-117179249D01*
X60214631Y-117179254D01*
X60274211Y-117349523D01*
X60304507Y-117397738D01*
X60370184Y-117502262D01*
X60497738Y-117629816D01*
X60550498Y-117662967D01*
X60596790Y-117715301D01*
X60607747Y-117781844D01*
X60594435Y-117899996D01*
X60594435Y-117900003D01*
X60614630Y-118079249D01*
X60614631Y-118079254D01*
X60674211Y-118249523D01*
X60696735Y-118285369D01*
X60770184Y-118402262D01*
X60897738Y-118529816D01*
X61050478Y-118625789D01*
X61220745Y-118685368D01*
X61220750Y-118685369D01*
X61399996Y-118705565D01*
X61400000Y-118705565D01*
X61400004Y-118705565D01*
X61579249Y-118685369D01*
X61579252Y-118685368D01*
X61579255Y-118685368D01*
X61749522Y-118625789D01*
X61902262Y-118529816D01*
X62029816Y-118402262D01*
X62125789Y-118249522D01*
X62185368Y-118079255D01*
X62187814Y-118057546D01*
X62205565Y-117900003D01*
X62205565Y-117899996D01*
X62185369Y-117720750D01*
X62185368Y-117720745D01*
X62153551Y-117629817D01*
X62125789Y-117550478D01*
X62094069Y-117499996D01*
X82994435Y-117499996D01*
X82994435Y-117500003D01*
X83014630Y-117679249D01*
X83014631Y-117679254D01*
X83074211Y-117849523D01*
X83155583Y-117979025D01*
X83170184Y-118002262D01*
X83297738Y-118129816D01*
X83319987Y-118143796D01*
X83410227Y-118200498D01*
X83450478Y-118225789D01*
X83518306Y-118249523D01*
X83620745Y-118285368D01*
X83620750Y-118285369D01*
X83799996Y-118305565D01*
X83800000Y-118305565D01*
X83800004Y-118305565D01*
X83979249Y-118285369D01*
X83979252Y-118285368D01*
X83979255Y-118285368D01*
X84149522Y-118225789D01*
X84302262Y-118129816D01*
X84429816Y-118002262D01*
X84525789Y-117849522D01*
X84585368Y-117679255D01*
X84585369Y-117679249D01*
X84605565Y-117500003D01*
X84605565Y-117499996D01*
X84585369Y-117320750D01*
X84585368Y-117320745D01*
X84567676Y-117270184D01*
X84525789Y-117150478D01*
X84505478Y-117118154D01*
X84431239Y-117000003D01*
X84429816Y-116997738D01*
X84302262Y-116870184D01*
X84149523Y-116774211D01*
X83979254Y-116714631D01*
X83979249Y-116714630D01*
X83800004Y-116694435D01*
X83799996Y-116694435D01*
X83620750Y-116714630D01*
X83620745Y-116714631D01*
X83450476Y-116774211D01*
X83297737Y-116870184D01*
X83170184Y-116997737D01*
X83074211Y-117150476D01*
X83014631Y-117320745D01*
X83014630Y-117320750D01*
X82994435Y-117499996D01*
X62094069Y-117499996D01*
X62029816Y-117397738D01*
X61902262Y-117270184D01*
X61849498Y-117237030D01*
X61803209Y-117184698D01*
X61792252Y-117118154D01*
X61805565Y-117000002D01*
X61805565Y-116999996D01*
X61785369Y-116820750D01*
X61785368Y-116820745D01*
X61741170Y-116694435D01*
X61725789Y-116650478D01*
X61629816Y-116497738D01*
X61502262Y-116370184D01*
X61349523Y-116274211D01*
X61179254Y-116214631D01*
X61179249Y-116214630D01*
X61000004Y-116194435D01*
X60999996Y-116194435D01*
X60820750Y-116214630D01*
X60820745Y-116214631D01*
X60650476Y-116274211D01*
X60497737Y-116370184D01*
X60370184Y-116497737D01*
X60274211Y-116650476D01*
X60214631Y-116820745D01*
X60214630Y-116820750D01*
X60194435Y-116999996D01*
X57961895Y-116999996D01*
X57961894Y-116052128D01*
X57955486Y-115992517D01*
X57905191Y-115857669D01*
X57905190Y-115857668D01*
X57905188Y-115857664D01*
X57818942Y-115742455D01*
X57818939Y-115742452D01*
X57703730Y-115656206D01*
X57703723Y-115656202D01*
X57568877Y-115605908D01*
X57568878Y-115605908D01*
X57509278Y-115599501D01*
X57509276Y-115599500D01*
X57509268Y-115599500D01*
X57509259Y-115599500D01*
X55813524Y-115599500D01*
X55813518Y-115599501D01*
X55753911Y-115605908D01*
X55619066Y-115656202D01*
X55619059Y-115656206D01*
X55503850Y-115742452D01*
X55503847Y-115742455D01*
X55417601Y-115857664D01*
X55417597Y-115857671D01*
X55367303Y-115992517D01*
X55360896Y-116052116D01*
X55360896Y-116052123D01*
X55360717Y-116055452D01*
X55359242Y-116055372D01*
X55341210Y-116116784D01*
X55288406Y-116162539D01*
X55244917Y-116170029D01*
X54561395Y-116853551D01*
X54561395Y-116847339D01*
X54534136Y-116745606D01*
X54481475Y-116654394D01*
X54407001Y-116579920D01*
X54315789Y-116527259D01*
X54214056Y-116500000D01*
X54207843Y-116500000D01*
X54886867Y-115820974D01*
X54813873Y-115769863D01*
X54607726Y-115673735D01*
X54607712Y-115673730D01*
X54388005Y-115614860D01*
X54387994Y-115614858D01*
X54161397Y-115595034D01*
X54161393Y-115595034D01*
X53934795Y-115614858D01*
X53934784Y-115614860D01*
X53715077Y-115673730D01*
X53715068Y-115673734D01*
X53508911Y-115769866D01*
X53508907Y-115769868D01*
X53435921Y-115820973D01*
X53435921Y-115820974D01*
X54114948Y-116500000D01*
X54108734Y-116500000D01*
X54007001Y-116527259D01*
X53915789Y-116579920D01*
X53841315Y-116654394D01*
X53788654Y-116745606D01*
X53761395Y-116847339D01*
X53761395Y-116853552D01*
X53082369Y-116174526D01*
X53082368Y-116174526D01*
X53031263Y-116247512D01*
X53031261Y-116247516D01*
X52935129Y-116453673D01*
X52935125Y-116453682D01*
X52876255Y-116673389D01*
X52876253Y-116673400D01*
X52856429Y-116899997D01*
X49617744Y-116899997D01*
X49600505Y-114989303D01*
X49600500Y-114988184D01*
X49600500Y-114399996D01*
X58494435Y-114399996D01*
X58494435Y-114400003D01*
X58514630Y-114579249D01*
X58514631Y-114579254D01*
X58574211Y-114749523D01*
X58637646Y-114850478D01*
X58670184Y-114902262D01*
X58797738Y-115029816D01*
X58938224Y-115118089D01*
X58984514Y-115170423D01*
X58995471Y-115209199D01*
X59014630Y-115379249D01*
X59014631Y-115379254D01*
X59074211Y-115549523D01*
X59141244Y-115656204D01*
X59170184Y-115702262D01*
X59297738Y-115829816D01*
X59450478Y-115925789D01*
X59620745Y-115985368D01*
X59620750Y-115985369D01*
X59799996Y-116005565D01*
X59800000Y-116005565D01*
X59800004Y-116005565D01*
X59979249Y-115985369D01*
X59979252Y-115985368D01*
X59979255Y-115985368D01*
X60149522Y-115925789D01*
X60302262Y-115829816D01*
X60429816Y-115702262D01*
X60525789Y-115549522D01*
X60585368Y-115379255D01*
X60605565Y-115200000D01*
X60585368Y-115020745D01*
X60525789Y-114850478D01*
X60429816Y-114697738D01*
X60302262Y-114570184D01*
X60302260Y-114570182D01*
X60161775Y-114481909D01*
X60115485Y-114429575D01*
X60104528Y-114390799D01*
X60097203Y-114325789D01*
X60085368Y-114220745D01*
X60025789Y-114050478D01*
X59929816Y-113897738D01*
X59802262Y-113770184D01*
X59649523Y-113674211D01*
X59479254Y-113614631D01*
X59479249Y-113614630D01*
X59349362Y-113599996D01*
X66794435Y-113599996D01*
X66794435Y-113600003D01*
X66814630Y-113779249D01*
X66814631Y-113779254D01*
X66874211Y-113949523D01*
X66937646Y-114050478D01*
X66970184Y-114102262D01*
X67097738Y-114229816D01*
X67188080Y-114286582D01*
X67248254Y-114324392D01*
X67250478Y-114325789D01*
X67420739Y-114385366D01*
X67420745Y-114385368D01*
X67420750Y-114385369D01*
X67599996Y-114405565D01*
X67600000Y-114405565D01*
X67600004Y-114405565D01*
X67779249Y-114385369D01*
X67779251Y-114385368D01*
X67779255Y-114385368D01*
X67779258Y-114385366D01*
X67779262Y-114385366D01*
X67956095Y-114323489D01*
X67956846Y-114325637D01*
X68015128Y-114316035D01*
X68043588Y-114324392D01*
X68043905Y-114323489D01*
X68220737Y-114385366D01*
X68220743Y-114385367D01*
X68220745Y-114385368D01*
X68220746Y-114385368D01*
X68220750Y-114385369D01*
X68399996Y-114405565D01*
X68400000Y-114405565D01*
X68400004Y-114405565D01*
X68579249Y-114385369D01*
X68579251Y-114385368D01*
X68579255Y-114385368D01*
X68579258Y-114385366D01*
X68579262Y-114385366D01*
X68756095Y-114323489D01*
X68756846Y-114325637D01*
X68815128Y-114316035D01*
X68843588Y-114324392D01*
X68843905Y-114323489D01*
X69020737Y-114385366D01*
X69020743Y-114385367D01*
X69020745Y-114385368D01*
X69020746Y-114385368D01*
X69020750Y-114385369D01*
X69199996Y-114405565D01*
X69200000Y-114405565D01*
X69200004Y-114405565D01*
X69379249Y-114385369D01*
X69379252Y-114385368D01*
X69379255Y-114385368D01*
X69549522Y-114325789D01*
X69702262Y-114229816D01*
X69829816Y-114102262D01*
X69925789Y-113949522D01*
X69985368Y-113779255D01*
X69997204Y-113674211D01*
X70005565Y-113600003D01*
X70005565Y-113599996D01*
X69985369Y-113420750D01*
X69985368Y-113420745D01*
X69925788Y-113250476D01*
X69829815Y-113097737D01*
X69702262Y-112970184D01*
X69549523Y-112874211D01*
X69379254Y-112814631D01*
X69379249Y-112814630D01*
X69200004Y-112794435D01*
X69199996Y-112794435D01*
X69020750Y-112814630D01*
X69020737Y-112814633D01*
X68843906Y-112876510D01*
X68843155Y-112874364D01*
X68784856Y-112883962D01*
X68756409Y-112875609D01*
X68756094Y-112876510D01*
X68579262Y-112814633D01*
X68579249Y-112814630D01*
X68400004Y-112794435D01*
X68399996Y-112794435D01*
X68220750Y-112814630D01*
X68220737Y-112814633D01*
X68043906Y-112876510D01*
X68043155Y-112874364D01*
X67984856Y-112883962D01*
X67956409Y-112875609D01*
X67956094Y-112876510D01*
X67779262Y-112814633D01*
X67779249Y-112814630D01*
X67600004Y-112794435D01*
X67599996Y-112794435D01*
X67420750Y-112814630D01*
X67420745Y-112814631D01*
X67250476Y-112874211D01*
X67097737Y-112970184D01*
X66970184Y-113097737D01*
X66874211Y-113250476D01*
X66814631Y-113420745D01*
X66814630Y-113420750D01*
X66794435Y-113599996D01*
X59349362Y-113599996D01*
X59300004Y-113594435D01*
X59299996Y-113594435D01*
X59120750Y-113614630D01*
X59120745Y-113614631D01*
X58950476Y-113674211D01*
X58797737Y-113770184D01*
X58670184Y-113897737D01*
X58574211Y-114050476D01*
X58514631Y-114220745D01*
X58514630Y-114220750D01*
X58494435Y-114399996D01*
X49600500Y-114399996D01*
X49600500Y-107542534D01*
X67686300Y-107542534D01*
X67686300Y-108057465D01*
X67719924Y-108269756D01*
X67719924Y-108269759D01*
X67786340Y-108474167D01*
X67786341Y-108474170D01*
X67874484Y-108647159D01*
X67883920Y-108665678D01*
X68010255Y-108839563D01*
X68162237Y-108991545D01*
X68336122Y-109117880D01*
X68430051Y-109165739D01*
X68527629Y-109215458D01*
X68527632Y-109215459D01*
X68718294Y-109277408D01*
X68732045Y-109281876D01*
X68944333Y-109315500D01*
X68944334Y-109315500D01*
X69159266Y-109315500D01*
X69159267Y-109315500D01*
X69371555Y-109281876D01*
X69371558Y-109281875D01*
X69371559Y-109281875D01*
X69575967Y-109215459D01*
X69575970Y-109215458D01*
X69576877Y-109214996D01*
X69767478Y-109117880D01*
X69941363Y-108991545D01*
X70093345Y-108839563D01*
X70219680Y-108665678D01*
X70219679Y-108665678D01*
X70221482Y-108663198D01*
X70276812Y-108620532D01*
X70346425Y-108614553D01*
X70408220Y-108647159D01*
X70422118Y-108663198D01*
X70463932Y-108720750D01*
X70550255Y-108839563D01*
X70702237Y-108991545D01*
X70876122Y-109117880D01*
X70958382Y-109159793D01*
X71006074Y-109184094D01*
X71056870Y-109232069D01*
X71073665Y-109299890D01*
X71051128Y-109366025D01*
X71037461Y-109382260D01*
X70970010Y-109449711D01*
X70882409Y-109580814D01*
X70882402Y-109580827D01*
X70822064Y-109726498D01*
X70822061Y-109726510D01*
X70791300Y-109881153D01*
X70791300Y-110038846D01*
X70822061Y-110193489D01*
X70822064Y-110193501D01*
X70882402Y-110339172D01*
X70882409Y-110339185D01*
X70970010Y-110470288D01*
X70970013Y-110470292D01*
X71081507Y-110581786D01*
X71081511Y-110581789D01*
X71212614Y-110669390D01*
X71212627Y-110669397D01*
X71358298Y-110729735D01*
X71358303Y-110729737D01*
X71512953Y-110760499D01*
X71512956Y-110760500D01*
X71512958Y-110760500D01*
X71670644Y-110760500D01*
X71670645Y-110760499D01*
X71825297Y-110729737D01*
X71970979Y-110669394D01*
X72102089Y-110581789D01*
X72213589Y-110470289D01*
X72301194Y-110339179D01*
X72361537Y-110193497D01*
X72392300Y-110038842D01*
X72392300Y-109881158D01*
X72392300Y-109881155D01*
X72392299Y-109881153D01*
X72361538Y-109726510D01*
X72361537Y-109726503D01*
X72344499Y-109685369D01*
X72301197Y-109580827D01*
X72301190Y-109580814D01*
X72213589Y-109449711D01*
X72213586Y-109449707D01*
X72146139Y-109382260D01*
X72112654Y-109320937D01*
X72117638Y-109251245D01*
X72159510Y-109195312D01*
X72177525Y-109184094D01*
X72200894Y-109172187D01*
X72307478Y-109117880D01*
X72481363Y-108991545D01*
X72633345Y-108839563D01*
X72759680Y-108665678D01*
X72759681Y-108665675D01*
X72761790Y-108662773D01*
X72817120Y-108620107D01*
X72886733Y-108614128D01*
X72948528Y-108646734D01*
X72962426Y-108662772D01*
X73090638Y-108839239D01*
X73090638Y-108839240D01*
X73242559Y-108991161D01*
X73416383Y-109117452D01*
X73607824Y-109214996D01*
X73812159Y-109281388D01*
X73881799Y-109292418D01*
X73881800Y-109292418D01*
X73881800Y-108244560D01*
X73934947Y-108275245D01*
X74064657Y-108310000D01*
X74198943Y-108310000D01*
X74328653Y-108275245D01*
X74381800Y-108244560D01*
X74381800Y-109292418D01*
X74451438Y-109281388D01*
X74451441Y-109281388D01*
X74655775Y-109214996D01*
X74847216Y-109117452D01*
X75021036Y-108991164D01*
X75116084Y-108896116D01*
X75177407Y-108862631D01*
X75247099Y-108867615D01*
X75303033Y-108909486D01*
X75319948Y-108940464D01*
X75363445Y-109057086D01*
X75363449Y-109057093D01*
X75449609Y-109172187D01*
X75449612Y-109172190D01*
X75564706Y-109258350D01*
X75564713Y-109258354D01*
X75699420Y-109308596D01*
X75699427Y-109308598D01*
X75758955Y-109314999D01*
X75758972Y-109315000D01*
X76421800Y-109315000D01*
X76421800Y-108244560D01*
X76474947Y-108275245D01*
X76604657Y-108310000D01*
X76738943Y-108310000D01*
X76868653Y-108275245D01*
X76921800Y-108244560D01*
X76921800Y-109315000D01*
X77584628Y-109315000D01*
X77584644Y-109314999D01*
X77644172Y-109308598D01*
X77644179Y-109308596D01*
X77778886Y-109258354D01*
X77778893Y-109258350D01*
X77893987Y-109172190D01*
X77893990Y-109172187D01*
X77980150Y-109057093D01*
X77980154Y-109057086D01*
X78030396Y-108922379D01*
X78030398Y-108922372D01*
X78036799Y-108862844D01*
X78036800Y-108862827D01*
X78036800Y-108199996D01*
X80494435Y-108199996D01*
X80494435Y-108200003D01*
X80514630Y-108379249D01*
X80514632Y-108379257D01*
X80560047Y-108509046D01*
X80563608Y-108578825D01*
X80560047Y-108590954D01*
X80514632Y-108720742D01*
X80514630Y-108720750D01*
X80494435Y-108899996D01*
X80494435Y-108900003D01*
X80514630Y-109079249D01*
X80514631Y-109079254D01*
X80574211Y-109249523D01*
X80619084Y-109320937D01*
X80670184Y-109402262D01*
X80797738Y-109529816D01*
X80950478Y-109625789D01*
X81120745Y-109685368D01*
X81120750Y-109685369D01*
X81299996Y-109705565D01*
X81300000Y-109705565D01*
X81300004Y-109705565D01*
X81479249Y-109685369D01*
X81479252Y-109685368D01*
X81479255Y-109685368D01*
X81649522Y-109625789D01*
X81802262Y-109529816D01*
X81929816Y-109402262D01*
X82025789Y-109249522D01*
X82085368Y-109079255D01*
X82087866Y-109057086D01*
X82105565Y-108900003D01*
X82105565Y-108899996D01*
X82085369Y-108720750D01*
X82085366Y-108720737D01*
X82039953Y-108590955D01*
X82036391Y-108521176D01*
X82039953Y-108509045D01*
X82085366Y-108379262D01*
X82085369Y-108379249D01*
X82105565Y-108200003D01*
X82105565Y-108199996D01*
X82085369Y-108020750D01*
X82085368Y-108020745D01*
X82025788Y-107850476D01*
X81929815Y-107697737D01*
X81802262Y-107570184D01*
X81649523Y-107474211D01*
X81479254Y-107414631D01*
X81479249Y-107414630D01*
X81300004Y-107394435D01*
X81299996Y-107394435D01*
X81120750Y-107414630D01*
X81120745Y-107414631D01*
X80950476Y-107474211D01*
X80797737Y-107570184D01*
X80670184Y-107697737D01*
X80574211Y-107850476D01*
X80514631Y-108020745D01*
X80514630Y-108020750D01*
X80494435Y-108199996D01*
X78036800Y-108199996D01*
X78036800Y-108050000D01*
X77116360Y-108050000D01*
X77147045Y-107996853D01*
X77181800Y-107867143D01*
X77181800Y-107732857D01*
X77147045Y-107603147D01*
X77116360Y-107550000D01*
X78036800Y-107550000D01*
X78036800Y-106737172D01*
X78036799Y-106737155D01*
X78030398Y-106677627D01*
X78030396Y-106677620D01*
X77980154Y-106542913D01*
X77980150Y-106542906D01*
X77893990Y-106427812D01*
X77893987Y-106427809D01*
X77778893Y-106341649D01*
X77778886Y-106341645D01*
X77644179Y-106291403D01*
X77644172Y-106291401D01*
X77584644Y-106285000D01*
X76921800Y-106285000D01*
X76921800Y-107355439D01*
X76868653Y-107324755D01*
X76738943Y-107290000D01*
X76604657Y-107290000D01*
X76474947Y-107324755D01*
X76421800Y-107355439D01*
X76421800Y-106285000D01*
X75758955Y-106285000D01*
X75699427Y-106291401D01*
X75699420Y-106291403D01*
X75564713Y-106341645D01*
X75564706Y-106341649D01*
X75449612Y-106427809D01*
X75449609Y-106427812D01*
X75363449Y-106542906D01*
X75363446Y-106542911D01*
X75319948Y-106659536D01*
X75278076Y-106715469D01*
X75212612Y-106739886D01*
X75144339Y-106725034D01*
X75116085Y-106703883D01*
X75021040Y-106608838D01*
X74847216Y-106482547D01*
X74655775Y-106385003D01*
X74451435Y-106318610D01*
X74451436Y-106318610D01*
X74381800Y-106307581D01*
X74381800Y-107355439D01*
X74328653Y-107324755D01*
X74198943Y-107290000D01*
X74064657Y-107290000D01*
X73934947Y-107324755D01*
X73881800Y-107355439D01*
X73881800Y-106307581D01*
X73812164Y-106318610D01*
X73607824Y-106385003D01*
X73416383Y-106482547D01*
X73242559Y-106608838D01*
X73090638Y-106760759D01*
X73090638Y-106760760D01*
X72962426Y-106937227D01*
X72907096Y-106979892D01*
X72837482Y-106985871D01*
X72775687Y-106953265D01*
X72761790Y-106937226D01*
X72710879Y-106867153D01*
X72633345Y-106760437D01*
X72481363Y-106608455D01*
X72307478Y-106482120D01*
X72115970Y-106384541D01*
X72115967Y-106384540D01*
X71911557Y-106318124D01*
X71770029Y-106295708D01*
X71699267Y-106284500D01*
X71484333Y-106284500D01*
X71413570Y-106295708D01*
X71272043Y-106318124D01*
X71272040Y-106318124D01*
X71067632Y-106384540D01*
X71067629Y-106384541D01*
X70876121Y-106482120D01*
X70792457Y-106542906D01*
X70702237Y-106608455D01*
X70702235Y-106608457D01*
X70702234Y-106608457D01*
X70550257Y-106760434D01*
X70550257Y-106760435D01*
X70550255Y-106760437D01*
X70452823Y-106894539D01*
X70422118Y-106936802D01*
X70366788Y-106979467D01*
X70297174Y-106985446D01*
X70235379Y-106952840D01*
X70221482Y-106936802D01*
X70208636Y-106919121D01*
X70093345Y-106760437D01*
X69941363Y-106608455D01*
X69767478Y-106482120D01*
X69575970Y-106384541D01*
X69575967Y-106384540D01*
X69371557Y-106318124D01*
X69230029Y-106295708D01*
X69159267Y-106284500D01*
X68944333Y-106284500D01*
X68873570Y-106295708D01*
X68732043Y-106318124D01*
X68732040Y-106318124D01*
X68527632Y-106384540D01*
X68527629Y-106384541D01*
X68336121Y-106482120D01*
X68252457Y-106542906D01*
X68162237Y-106608455D01*
X68162235Y-106608457D01*
X68162234Y-106608457D01*
X68010257Y-106760434D01*
X68010257Y-106760435D01*
X68010255Y-106760437D01*
X67955998Y-106835114D01*
X67883920Y-106934321D01*
X67786341Y-107125829D01*
X67786340Y-107125832D01*
X67719924Y-107330240D01*
X67719924Y-107330243D01*
X67686300Y-107542534D01*
X49600500Y-107542534D01*
X49600500Y-105699996D01*
X53394435Y-105699996D01*
X53394435Y-105700003D01*
X53414630Y-105879249D01*
X53414631Y-105879254D01*
X53474211Y-106049523D01*
X53570184Y-106202262D01*
X53697738Y-106329816D01*
X53850478Y-106425789D01*
X54011463Y-106482120D01*
X54020745Y-106485368D01*
X54020750Y-106485369D01*
X54199996Y-106505565D01*
X54200000Y-106505565D01*
X54200004Y-106505565D01*
X54379249Y-106485369D01*
X54379252Y-106485368D01*
X54379255Y-106485368D01*
X54549522Y-106425789D01*
X54702262Y-106329816D01*
X54829816Y-106202262D01*
X54925789Y-106049522D01*
X54985368Y-105879255D01*
X55005565Y-105700000D01*
X54985368Y-105520745D01*
X54925789Y-105350478D01*
X54829816Y-105197738D01*
X54702262Y-105070184D01*
X54671395Y-105050789D01*
X54549523Y-104974211D01*
X54379254Y-104914631D01*
X54379249Y-104914630D01*
X54200004Y-104894435D01*
X54199996Y-104894435D01*
X54020750Y-104914630D01*
X54020745Y-104914631D01*
X53850476Y-104974211D01*
X53697737Y-105070184D01*
X53570184Y-105197737D01*
X53474211Y-105350476D01*
X53414631Y-105520745D01*
X53414630Y-105520750D01*
X53394435Y-105699996D01*
X49600500Y-105699996D01*
X49600500Y-104299996D01*
X60294435Y-104299996D01*
X60294435Y-104300003D01*
X60314630Y-104479249D01*
X60314631Y-104479254D01*
X60374211Y-104649523D01*
X60389920Y-104674523D01*
X60470184Y-104802262D01*
X60597738Y-104929816D01*
X60750478Y-105025789D01*
X60821924Y-105050789D01*
X60920745Y-105085368D01*
X60920750Y-105085369D01*
X61099996Y-105105565D01*
X61100000Y-105105565D01*
X61100004Y-105105565D01*
X61279249Y-105085369D01*
X61279252Y-105085368D01*
X61279255Y-105085368D01*
X61449522Y-105025789D01*
X61602262Y-104929816D01*
X61729816Y-104802262D01*
X61825789Y-104649522D01*
X61885368Y-104479255D01*
X61902748Y-104325003D01*
X61902749Y-104324996D01*
X81319435Y-104324996D01*
X81319435Y-104325003D01*
X81339630Y-104504249D01*
X81339631Y-104504254D01*
X81399211Y-104674523D01*
X81479475Y-104802262D01*
X81495184Y-104827262D01*
X81622738Y-104954816D01*
X81775478Y-105050789D01*
X81830906Y-105070184D01*
X81945745Y-105110368D01*
X81945750Y-105110369D01*
X82124996Y-105130565D01*
X82125000Y-105130565D01*
X82125004Y-105130565D01*
X82304249Y-105110369D01*
X82304252Y-105110368D01*
X82304255Y-105110368D01*
X82474522Y-105050789D01*
X82627262Y-104954816D01*
X82754816Y-104827262D01*
X82850789Y-104674522D01*
X82910368Y-104504255D01*
X82913185Y-104479254D01*
X82930565Y-104325003D01*
X82930565Y-104324996D01*
X82910369Y-104145750D01*
X82910368Y-104145745D01*
X82850788Y-103975476D01*
X82754815Y-103822737D01*
X82627262Y-103695184D01*
X82474523Y-103599211D01*
X82304254Y-103539631D01*
X82304249Y-103539630D01*
X82125004Y-103519435D01*
X82124996Y-103519435D01*
X81945750Y-103539630D01*
X81945745Y-103539631D01*
X81775476Y-103599211D01*
X81622737Y-103695184D01*
X81495184Y-103822737D01*
X81399211Y-103975476D01*
X81339631Y-104145745D01*
X81339630Y-104145750D01*
X81319435Y-104324996D01*
X61902749Y-104324996D01*
X61905565Y-104300003D01*
X61905565Y-104299996D01*
X61885369Y-104120750D01*
X61885368Y-104120745D01*
X61825788Y-103950476D01*
X61786582Y-103888080D01*
X61729816Y-103797738D01*
X61602262Y-103670184D01*
X61449523Y-103574211D01*
X61279254Y-103514631D01*
X61279249Y-103514630D01*
X61100004Y-103494435D01*
X61099996Y-103494435D01*
X60920750Y-103514630D01*
X60920745Y-103514631D01*
X60750476Y-103574211D01*
X60597737Y-103670184D01*
X60470184Y-103797737D01*
X60374211Y-103950476D01*
X60314631Y-104120745D01*
X60314630Y-104120750D01*
X60294435Y-104299996D01*
X49600500Y-104299996D01*
X49600500Y-102599996D01*
X55394435Y-102599996D01*
X55394435Y-102600003D01*
X55414630Y-102779249D01*
X55414631Y-102779254D01*
X55474211Y-102949523D01*
X55570184Y-103102262D01*
X55697738Y-103229816D01*
X55850478Y-103325789D01*
X56020745Y-103385368D01*
X56020750Y-103385369D01*
X56199996Y-103405565D01*
X56200000Y-103405565D01*
X56200004Y-103405565D01*
X56379249Y-103385369D01*
X56379252Y-103385368D01*
X56379255Y-103385368D01*
X56549522Y-103325789D01*
X56702262Y-103229816D01*
X56829816Y-103102262D01*
X56925789Y-102949522D01*
X56985368Y-102779255D01*
X57005565Y-102600000D01*
X56985368Y-102420745D01*
X56925789Y-102250478D01*
X56829816Y-102097738D01*
X56702262Y-101970184D01*
X56549523Y-101874211D01*
X56379254Y-101814631D01*
X56379249Y-101814630D01*
X56200004Y-101794435D01*
X56199996Y-101794435D01*
X56020750Y-101814630D01*
X56020745Y-101814631D01*
X55850476Y-101874211D01*
X55697737Y-101970184D01*
X55570184Y-102097737D01*
X55474211Y-102250476D01*
X55414631Y-102420745D01*
X55414630Y-102420750D01*
X55394435Y-102599996D01*
X49600500Y-102599996D01*
X49600500Y-100499996D01*
X55894435Y-100499996D01*
X55894435Y-100500003D01*
X55914630Y-100679249D01*
X55914631Y-100679254D01*
X55974211Y-100849523D01*
X56070184Y-101002262D01*
X56197738Y-101129816D01*
X56350478Y-101225789D01*
X56418306Y-101249523D01*
X56520745Y-101285368D01*
X56520750Y-101285369D01*
X56699996Y-101305565D01*
X56700000Y-101305565D01*
X56700004Y-101305565D01*
X56879249Y-101285369D01*
X56879252Y-101285368D01*
X56879255Y-101285368D01*
X57049522Y-101225789D01*
X57202262Y-101129816D01*
X57329816Y-101002262D01*
X57425789Y-100849522D01*
X57485368Y-100679255D01*
X57485369Y-100679249D01*
X57505565Y-100500003D01*
X57505565Y-100499996D01*
X57494298Y-100399996D01*
X58494435Y-100399996D01*
X58494435Y-100400003D01*
X58514630Y-100579249D01*
X58514631Y-100579254D01*
X58574211Y-100749523D01*
X58637045Y-100849522D01*
X58670184Y-100902262D01*
X58797738Y-101029816D01*
X58950478Y-101125789D01*
X58961984Y-101129815D01*
X59120745Y-101185368D01*
X59120750Y-101185369D01*
X59299996Y-101205565D01*
X59300000Y-101205565D01*
X59300004Y-101205565D01*
X59479249Y-101185369D01*
X59479252Y-101185368D01*
X59479255Y-101185368D01*
X59649522Y-101125789D01*
X59802262Y-101029816D01*
X59929816Y-100902262D01*
X59931240Y-100899996D01*
X131094435Y-100899996D01*
X131094435Y-100900003D01*
X131114630Y-101079249D01*
X131114631Y-101079254D01*
X131174211Y-101249523D01*
X131196735Y-101285369D01*
X131270184Y-101402262D01*
X131397738Y-101529816D01*
X131550478Y-101625789D01*
X131720745Y-101685368D01*
X131720750Y-101685369D01*
X131899996Y-101705565D01*
X131900000Y-101705565D01*
X131900004Y-101705565D01*
X132079249Y-101685369D01*
X132079252Y-101685368D01*
X132079255Y-101685368D01*
X132249522Y-101625789D01*
X132284027Y-101604108D01*
X132351263Y-101585107D01*
X132415973Y-101604108D01*
X132450475Y-101625788D01*
X132620745Y-101685368D01*
X132620750Y-101685369D01*
X132799996Y-101705565D01*
X132800000Y-101705565D01*
X132800004Y-101705565D01*
X132979249Y-101685369D01*
X132979252Y-101685368D01*
X132979255Y-101685368D01*
X133149522Y-101625789D01*
X133184027Y-101604108D01*
X133251263Y-101585107D01*
X133315973Y-101604108D01*
X133350475Y-101625788D01*
X133520745Y-101685368D01*
X133520750Y-101685369D01*
X133699996Y-101705565D01*
X133700000Y-101705565D01*
X133700004Y-101705565D01*
X133879249Y-101685369D01*
X133879252Y-101685368D01*
X133879255Y-101685368D01*
X134049522Y-101625789D01*
X134134027Y-101572691D01*
X134201264Y-101553690D01*
X134265973Y-101572691D01*
X134350475Y-101625788D01*
X134520745Y-101685368D01*
X134520750Y-101685369D01*
X134699996Y-101705565D01*
X134700000Y-101705565D01*
X134700004Y-101705565D01*
X134879249Y-101685369D01*
X134879252Y-101685368D01*
X134879255Y-101685368D01*
X135049522Y-101625789D01*
X135202262Y-101529816D01*
X135329816Y-101402262D01*
X135425789Y-101249522D01*
X135485368Y-101079255D01*
X135485369Y-101079249D01*
X135505565Y-100900003D01*
X135505565Y-100899996D01*
X135485369Y-100720750D01*
X135485368Y-100720745D01*
X135470848Y-100679249D01*
X135425789Y-100550478D01*
X135329816Y-100397738D01*
X135202262Y-100270184D01*
X135134027Y-100227309D01*
X135049523Y-100174211D01*
X134879254Y-100114631D01*
X134879249Y-100114630D01*
X134700004Y-100094435D01*
X134699996Y-100094435D01*
X134520750Y-100114630D01*
X134520737Y-100114633D01*
X134350479Y-100174209D01*
X134265971Y-100227309D01*
X134198734Y-100246309D01*
X134134029Y-100227309D01*
X134049520Y-100174209D01*
X133879262Y-100114633D01*
X133879249Y-100114630D01*
X133700004Y-100094435D01*
X133699996Y-100094435D01*
X133520750Y-100114630D01*
X133520737Y-100114633D01*
X133350480Y-100174209D01*
X133315970Y-100195893D01*
X133248733Y-100214892D01*
X133184030Y-100195893D01*
X133149519Y-100174209D01*
X132979262Y-100114633D01*
X132979249Y-100114630D01*
X132800004Y-100094435D01*
X132799996Y-100094435D01*
X132620750Y-100114630D01*
X132620737Y-100114633D01*
X132450480Y-100174209D01*
X132415970Y-100195893D01*
X132348733Y-100214892D01*
X132284030Y-100195893D01*
X132249519Y-100174209D01*
X132079262Y-100114633D01*
X132079249Y-100114630D01*
X131900004Y-100094435D01*
X131899996Y-100094435D01*
X131720750Y-100114630D01*
X131720745Y-100114631D01*
X131550476Y-100174211D01*
X131397737Y-100270184D01*
X131270184Y-100397737D01*
X131174211Y-100550476D01*
X131114631Y-100720745D01*
X131114630Y-100720750D01*
X131094435Y-100899996D01*
X59931240Y-100899996D01*
X60025789Y-100749522D01*
X60085368Y-100579255D01*
X60085369Y-100579249D01*
X60105565Y-100400003D01*
X60105565Y-100399996D01*
X60085369Y-100220750D01*
X60085368Y-100220745D01*
X60069084Y-100174209D01*
X60025789Y-100050478D01*
X59929816Y-99897738D01*
X59802262Y-99770184D01*
X59713852Y-99714632D01*
X59649523Y-99674211D01*
X59479254Y-99614631D01*
X59479249Y-99614630D01*
X59300004Y-99594435D01*
X59299996Y-99594435D01*
X59120750Y-99614630D01*
X59120745Y-99614631D01*
X58950476Y-99674211D01*
X58797737Y-99770184D01*
X58670184Y-99897737D01*
X58574211Y-100050476D01*
X58514631Y-100220745D01*
X58514630Y-100220750D01*
X58494435Y-100399996D01*
X57494298Y-100399996D01*
X57485369Y-100320750D01*
X57485368Y-100320745D01*
X57441680Y-100195893D01*
X57425789Y-100150478D01*
X57403265Y-100114632D01*
X57362955Y-100050478D01*
X57329816Y-99997738D01*
X57202262Y-99870184D01*
X57049523Y-99774211D01*
X56879254Y-99714631D01*
X56879249Y-99714630D01*
X56700004Y-99694435D01*
X56699996Y-99694435D01*
X56520750Y-99714630D01*
X56520745Y-99714631D01*
X56350476Y-99774211D01*
X56197737Y-99870184D01*
X56070184Y-99997737D01*
X55974211Y-100150476D01*
X55914631Y-100320745D01*
X55914630Y-100320750D01*
X55894435Y-100499996D01*
X49600500Y-100499996D01*
X49600500Y-95099996D01*
X60594435Y-95099996D01*
X60594435Y-95100003D01*
X60614630Y-95279249D01*
X60614633Y-95279262D01*
X60674209Y-95449519D01*
X60695893Y-95484030D01*
X60714892Y-95551267D01*
X60695893Y-95615970D01*
X60674209Y-95650480D01*
X60614633Y-95820737D01*
X60614630Y-95820750D01*
X60594435Y-95999996D01*
X60594435Y-96000003D01*
X60614630Y-96179249D01*
X60614631Y-96179254D01*
X60674211Y-96349523D01*
X60770184Y-96502262D01*
X60897738Y-96629816D01*
X61050478Y-96725789D01*
X61203258Y-96779249D01*
X61220745Y-96785368D01*
X61220750Y-96785369D01*
X61399996Y-96805565D01*
X61400000Y-96805565D01*
X61400004Y-96805565D01*
X61579249Y-96785369D01*
X61579252Y-96785368D01*
X61579255Y-96785368D01*
X61749522Y-96725789D01*
X61902262Y-96629816D01*
X62029816Y-96502262D01*
X62125789Y-96349522D01*
X62185368Y-96179255D01*
X62187942Y-96156411D01*
X62205565Y-96000003D01*
X62205565Y-95999996D01*
X62185369Y-95820750D01*
X62185368Y-95820745D01*
X62178108Y-95799996D01*
X67694435Y-95799996D01*
X67694435Y-95800003D01*
X67714630Y-95979249D01*
X67714633Y-95979262D01*
X67776510Y-96156094D01*
X67774364Y-96156844D01*
X67783962Y-96215144D01*
X67775609Y-96243590D01*
X67776510Y-96243906D01*
X67714633Y-96420737D01*
X67714630Y-96420750D01*
X67694435Y-96599996D01*
X67694435Y-96600003D01*
X67714630Y-96779249D01*
X67714631Y-96779254D01*
X67774211Y-96949523D01*
X67870184Y-97102262D01*
X67997738Y-97229816D01*
X68150478Y-97325789D01*
X68320745Y-97385368D01*
X68320750Y-97385369D01*
X68499996Y-97405565D01*
X68500000Y-97405565D01*
X68500004Y-97405565D01*
X68679249Y-97385369D01*
X68679252Y-97385368D01*
X68679255Y-97385368D01*
X68849522Y-97325789D01*
X69002262Y-97229816D01*
X69129816Y-97102262D01*
X69225789Y-96949522D01*
X69285368Y-96779255D01*
X69291392Y-96725789D01*
X69305565Y-96600003D01*
X69305565Y-96599996D01*
X69285369Y-96420750D01*
X69285366Y-96420737D01*
X69223489Y-96243905D01*
X69225637Y-96243153D01*
X69216035Y-96184872D01*
X69224392Y-96156411D01*
X69223489Y-96156095D01*
X69285366Y-95979262D01*
X69285369Y-95979249D01*
X69305565Y-95800003D01*
X69305565Y-95799996D01*
X69285369Y-95620750D01*
X69285368Y-95620745D01*
X69283697Y-95615970D01*
X69225789Y-95450478D01*
X69225188Y-95449522D01*
X69129815Y-95297737D01*
X69002262Y-95170184D01*
X68849523Y-95074211D01*
X68679254Y-95014631D01*
X68679249Y-95014630D01*
X68500004Y-94994435D01*
X68499996Y-94994435D01*
X68320750Y-95014630D01*
X68320745Y-95014631D01*
X68150476Y-95074211D01*
X67997737Y-95170184D01*
X67870184Y-95297737D01*
X67774211Y-95450476D01*
X67714631Y-95620745D01*
X67714630Y-95620750D01*
X67694435Y-95799996D01*
X62178108Y-95799996D01*
X62125788Y-95650475D01*
X62104108Y-95615973D01*
X62085107Y-95548737D01*
X62104108Y-95484027D01*
X62125788Y-95449524D01*
X62125790Y-95449519D01*
X62185368Y-95279255D01*
X62185369Y-95279249D01*
X62205565Y-95100003D01*
X62205565Y-95099996D01*
X62185369Y-94920750D01*
X62185368Y-94920745D01*
X62125788Y-94750476D01*
X62029815Y-94597737D01*
X61902262Y-94470184D01*
X61749523Y-94374211D01*
X61579254Y-94314631D01*
X61579249Y-94314630D01*
X61400004Y-94294435D01*
X61399996Y-94294435D01*
X61220750Y-94314630D01*
X61220745Y-94314631D01*
X61050476Y-94374211D01*
X60897737Y-94470184D01*
X60770184Y-94597737D01*
X60674211Y-94750476D01*
X60614631Y-94920745D01*
X60614630Y-94920750D01*
X60594435Y-95099996D01*
X49600500Y-95099996D01*
X49600500Y-92899996D01*
X55094435Y-92899996D01*
X55094435Y-92900003D01*
X55114630Y-93079249D01*
X55114631Y-93079254D01*
X55174211Y-93249523D01*
X55270184Y-93402262D01*
X55397738Y-93529816D01*
X55550478Y-93625789D01*
X55720745Y-93685368D01*
X55720750Y-93685369D01*
X55899996Y-93705565D01*
X55900000Y-93705565D01*
X55900004Y-93705565D01*
X56079249Y-93685369D01*
X56079252Y-93685368D01*
X56079255Y-93685368D01*
X56249522Y-93625789D01*
X56402262Y-93529816D01*
X56529816Y-93402262D01*
X56625789Y-93249522D01*
X56685368Y-93079255D01*
X56705565Y-92900000D01*
X56685368Y-92720745D01*
X56625789Y-92550478D01*
X56529816Y-92397738D01*
X56402262Y-92270184D01*
X56249523Y-92174211D01*
X56079254Y-92114631D01*
X56079249Y-92114630D01*
X55900004Y-92094435D01*
X55899996Y-92094435D01*
X55720750Y-92114630D01*
X55720745Y-92114631D01*
X55550476Y-92174211D01*
X55397737Y-92270184D01*
X55270184Y-92397737D01*
X55174211Y-92550476D01*
X55114631Y-92720745D01*
X55114630Y-92720750D01*
X55094435Y-92899996D01*
X49600500Y-92899996D01*
X49600500Y-80299996D01*
X92694435Y-80299996D01*
X92694435Y-80300003D01*
X92714630Y-80479249D01*
X92714631Y-80479254D01*
X92774211Y-80649523D01*
X92870184Y-80802262D01*
X92997738Y-80929816D01*
X93065973Y-80972691D01*
X93148254Y-81024392D01*
X93150478Y-81025789D01*
X93320739Y-81085366D01*
X93320745Y-81085368D01*
X93320750Y-81085369D01*
X93499996Y-81105565D01*
X93500000Y-81105565D01*
X93500004Y-81105565D01*
X93679249Y-81085369D01*
X93679252Y-81085368D01*
X93679255Y-81085368D01*
X93849522Y-81025789D01*
X93851746Y-81024392D01*
X93934027Y-80972691D01*
X94001264Y-80953690D01*
X94065973Y-80972691D01*
X94150475Y-81025788D01*
X94320745Y-81085368D01*
X94320750Y-81085369D01*
X94499996Y-81105565D01*
X94500000Y-81105565D01*
X94500004Y-81105565D01*
X94679249Y-81085369D01*
X94679252Y-81085368D01*
X94679255Y-81085368D01*
X94849522Y-81025789D01*
X94851746Y-81024392D01*
X94914267Y-80985107D01*
X94984029Y-80941272D01*
X95051264Y-80922272D01*
X95115970Y-80941272D01*
X95165973Y-80972691D01*
X95250475Y-81025788D01*
X95420745Y-81085368D01*
X95420750Y-81085369D01*
X95599996Y-81105565D01*
X95600000Y-81105565D01*
X95600004Y-81105565D01*
X95779249Y-81085369D01*
X95779252Y-81085368D01*
X95779255Y-81085368D01*
X95949522Y-81025789D01*
X96102262Y-80929816D01*
X96229816Y-80802262D01*
X96325789Y-80649522D01*
X96385368Y-80479255D01*
X96405565Y-80300000D01*
X96405565Y-80299996D01*
X111194435Y-80299996D01*
X111194435Y-80300003D01*
X111214630Y-80479249D01*
X111214631Y-80479254D01*
X111274211Y-80649523D01*
X111370184Y-80802262D01*
X111497738Y-80929816D01*
X111565973Y-80972691D01*
X111648254Y-81024392D01*
X111650478Y-81025789D01*
X111820739Y-81085366D01*
X111820745Y-81085368D01*
X111820750Y-81085369D01*
X111999996Y-81105565D01*
X112000000Y-81105565D01*
X112000004Y-81105565D01*
X112179249Y-81085369D01*
X112179251Y-81085368D01*
X112179255Y-81085368D01*
X112179258Y-81085366D01*
X112179262Y-81085366D01*
X112356095Y-81023489D01*
X112356846Y-81025637D01*
X112415128Y-81016035D01*
X112443588Y-81024392D01*
X112443905Y-81023489D01*
X112620737Y-81085366D01*
X112620743Y-81085367D01*
X112620745Y-81085368D01*
X112620746Y-81085368D01*
X112620750Y-81085369D01*
X112799996Y-81105565D01*
X112800000Y-81105565D01*
X112800004Y-81105565D01*
X112979249Y-81085369D01*
X112979252Y-81085368D01*
X112979255Y-81085368D01*
X113149522Y-81025789D01*
X113151746Y-81024392D01*
X113184027Y-81004108D01*
X113251263Y-80985107D01*
X113315973Y-81004108D01*
X113350475Y-81025788D01*
X113520745Y-81085368D01*
X113520750Y-81085369D01*
X113699996Y-81105565D01*
X113700000Y-81105565D01*
X113700004Y-81105565D01*
X113879249Y-81085369D01*
X113879251Y-81085368D01*
X113879255Y-81085368D01*
X113879258Y-81085366D01*
X113879262Y-81085366D01*
X114056095Y-81023489D01*
X114056846Y-81025637D01*
X114115128Y-81016035D01*
X114143588Y-81024392D01*
X114143905Y-81023489D01*
X114320737Y-81085366D01*
X114320743Y-81085367D01*
X114320745Y-81085368D01*
X114320746Y-81085368D01*
X114320750Y-81085369D01*
X114499996Y-81105565D01*
X114500000Y-81105565D01*
X114500004Y-81105565D01*
X114679249Y-81085369D01*
X114679252Y-81085368D01*
X114679255Y-81085368D01*
X114849522Y-81025789D01*
X115002262Y-80929816D01*
X115129816Y-80802262D01*
X115225789Y-80649522D01*
X115285368Y-80479255D01*
X115305565Y-80300000D01*
X115285368Y-80120745D01*
X115225789Y-79950478D01*
X115129816Y-79797738D01*
X115002262Y-79670184D01*
X114934027Y-79627309D01*
X114849523Y-79574211D01*
X114679254Y-79514631D01*
X114679249Y-79514630D01*
X114500004Y-79494435D01*
X114499996Y-79494435D01*
X114320750Y-79514630D01*
X114320737Y-79514633D01*
X114143906Y-79576510D01*
X114143155Y-79574364D01*
X114084856Y-79583962D01*
X114056409Y-79575609D01*
X114056094Y-79576510D01*
X113879262Y-79514633D01*
X113879249Y-79514630D01*
X113700004Y-79494435D01*
X113699996Y-79494435D01*
X113520750Y-79514630D01*
X113520737Y-79514633D01*
X113350480Y-79574209D01*
X113315970Y-79595893D01*
X113248733Y-79614892D01*
X113184030Y-79595893D01*
X113149519Y-79574209D01*
X112979262Y-79514633D01*
X112979249Y-79514630D01*
X112800004Y-79494435D01*
X112799996Y-79494435D01*
X112620750Y-79514630D01*
X112620737Y-79514633D01*
X112443906Y-79576510D01*
X112443155Y-79574364D01*
X112384856Y-79583962D01*
X112356409Y-79575609D01*
X112356094Y-79576510D01*
X112179262Y-79514633D01*
X112179249Y-79514630D01*
X112000004Y-79494435D01*
X111999996Y-79494435D01*
X111820750Y-79514630D01*
X111820745Y-79514631D01*
X111650476Y-79574211D01*
X111497737Y-79670184D01*
X111370184Y-79797737D01*
X111274211Y-79950476D01*
X111214631Y-80120745D01*
X111214630Y-80120750D01*
X111194435Y-80299996D01*
X96405565Y-80299996D01*
X96385368Y-80120745D01*
X96325789Y-79950478D01*
X96229816Y-79797738D01*
X96102262Y-79670184D01*
X96034027Y-79627309D01*
X95949523Y-79574211D01*
X95779254Y-79514631D01*
X95779249Y-79514630D01*
X95600004Y-79494435D01*
X95599996Y-79494435D01*
X95420750Y-79514630D01*
X95420745Y-79514631D01*
X95250476Y-79574211D01*
X95115972Y-79658727D01*
X95048736Y-79677727D01*
X94984028Y-79658727D01*
X94849523Y-79574211D01*
X94679254Y-79514631D01*
X94679249Y-79514630D01*
X94500004Y-79494435D01*
X94499996Y-79494435D01*
X94320750Y-79514630D01*
X94320737Y-79514633D01*
X94150479Y-79574209D01*
X94065971Y-79627309D01*
X93998734Y-79646309D01*
X93934029Y-79627309D01*
X93849520Y-79574209D01*
X93679262Y-79514633D01*
X93679249Y-79514630D01*
X93500004Y-79494435D01*
X93499996Y-79494435D01*
X93320750Y-79514630D01*
X93320745Y-79514631D01*
X93150476Y-79574211D01*
X92997737Y-79670184D01*
X92870184Y-79797737D01*
X92774211Y-79950476D01*
X92714631Y-80120745D01*
X92714630Y-80120750D01*
X92694435Y-80299996D01*
X49600500Y-80299996D01*
X49600500Y-72902135D01*
X53409500Y-72902135D01*
X53409500Y-74697870D01*
X53409501Y-74697876D01*
X53415908Y-74757483D01*
X53466202Y-74892328D01*
X53466206Y-74892335D01*
X53552452Y-75007544D01*
X53552455Y-75007547D01*
X53667664Y-75093793D01*
X53667671Y-75093797D01*
X53802517Y-75144091D01*
X53802516Y-75144091D01*
X53809444Y-75144835D01*
X53862127Y-75150500D01*
X55657872Y-75150499D01*
X55717483Y-75144091D01*
X55852331Y-75093796D01*
X55967546Y-75007546D01*
X56053796Y-74892331D01*
X56103002Y-74760401D01*
X56144872Y-74704468D01*
X56210337Y-74680050D01*
X56278610Y-74694901D01*
X56306865Y-74716053D01*
X56428917Y-74838105D01*
X56622421Y-74973600D01*
X56836507Y-75073429D01*
X56836516Y-75073433D01*
X57050000Y-75130634D01*
X57050000Y-74233012D01*
X57107007Y-74265925D01*
X57234174Y-74300000D01*
X57365826Y-74300000D01*
X57492993Y-74265925D01*
X57550000Y-74233012D01*
X57550000Y-75130633D01*
X57763483Y-75073433D01*
X57763492Y-75073429D01*
X57977578Y-74973600D01*
X58171082Y-74838105D01*
X58338105Y-74671082D01*
X58473600Y-74477578D01*
X58573429Y-74263492D01*
X58573432Y-74263486D01*
X58630636Y-74050000D01*
X57733012Y-74050000D01*
X57765925Y-73992993D01*
X57800000Y-73865826D01*
X57800000Y-73734174D01*
X57765925Y-73607007D01*
X57733012Y-73550000D01*
X58630636Y-73550000D01*
X58630635Y-73549999D01*
X58573432Y-73336513D01*
X58573429Y-73336507D01*
X58473600Y-73122422D01*
X58473599Y-73122420D01*
X58338113Y-72928926D01*
X58338108Y-72928920D01*
X58171082Y-72761894D01*
X57977578Y-72626399D01*
X57920956Y-72599996D01*
X116794435Y-72599996D01*
X116794435Y-72600003D01*
X116814630Y-72779249D01*
X116814633Y-72779262D01*
X116874209Y-72949519D01*
X116895893Y-72984030D01*
X116914892Y-73051267D01*
X116895893Y-73115970D01*
X116874209Y-73150480D01*
X116814633Y-73320737D01*
X116814630Y-73320750D01*
X116794435Y-73499996D01*
X116794435Y-73500003D01*
X116814630Y-73679249D01*
X116814631Y-73679254D01*
X116874211Y-73849523D01*
X116884455Y-73865826D01*
X116970184Y-74002262D01*
X117097738Y-74129816D01*
X117188080Y-74186582D01*
X117209592Y-74200099D01*
X117250478Y-74225789D01*
X117358210Y-74263486D01*
X117420745Y-74285368D01*
X117420750Y-74285369D01*
X117599996Y-74305565D01*
X117600000Y-74305565D01*
X117600004Y-74305565D01*
X117779249Y-74285369D01*
X117779252Y-74285368D01*
X117779255Y-74285368D01*
X117949522Y-74225789D01*
X118102262Y-74129816D01*
X118229816Y-74002262D01*
X118325789Y-73849522D01*
X118385368Y-73679255D01*
X118385369Y-73679249D01*
X118405565Y-73500003D01*
X118405565Y-73499996D01*
X118385369Y-73320750D01*
X118385368Y-73320745D01*
X118325788Y-73150475D01*
X118304108Y-73115973D01*
X118285107Y-73048737D01*
X118304108Y-72984027D01*
X118325788Y-72949524D01*
X118342377Y-72902116D01*
X118385368Y-72779255D01*
X118393434Y-72707669D01*
X118405565Y-72600003D01*
X118405565Y-72599996D01*
X118385369Y-72420750D01*
X118385368Y-72420745D01*
X118325788Y-72250476D01*
X118229815Y-72097737D01*
X118102262Y-71970184D01*
X117949523Y-71874211D01*
X117779254Y-71814631D01*
X117779249Y-71814630D01*
X117600004Y-71794435D01*
X117599996Y-71794435D01*
X117420750Y-71814630D01*
X117420745Y-71814631D01*
X117250476Y-71874211D01*
X117097737Y-71970184D01*
X116970184Y-72097737D01*
X116874211Y-72250476D01*
X116814631Y-72420745D01*
X116814630Y-72420750D01*
X116794435Y-72599996D01*
X57920956Y-72599996D01*
X57763492Y-72526570D01*
X57763486Y-72526567D01*
X57550000Y-72469364D01*
X57550000Y-73366988D01*
X57492993Y-73334075D01*
X57365826Y-73300000D01*
X57234174Y-73300000D01*
X57107007Y-73334075D01*
X57050000Y-73366988D01*
X57050000Y-72469364D01*
X57049999Y-72469364D01*
X56836513Y-72526567D01*
X56836507Y-72526570D01*
X56622422Y-72626399D01*
X56622420Y-72626400D01*
X56428926Y-72761886D01*
X56306865Y-72883947D01*
X56245542Y-72917431D01*
X56175850Y-72912447D01*
X56119917Y-72870575D01*
X56103002Y-72839598D01*
X56053797Y-72707671D01*
X56053793Y-72707664D01*
X55967547Y-72592455D01*
X55967544Y-72592452D01*
X55852335Y-72506206D01*
X55852328Y-72506202D01*
X55717482Y-72455908D01*
X55717483Y-72455908D01*
X55657883Y-72449501D01*
X55657881Y-72449500D01*
X55657873Y-72449500D01*
X55657864Y-72449500D01*
X53862129Y-72449500D01*
X53862123Y-72449501D01*
X53802516Y-72455908D01*
X53667671Y-72506202D01*
X53667664Y-72506206D01*
X53552455Y-72592452D01*
X53552452Y-72592455D01*
X53466206Y-72707664D01*
X53466202Y-72707671D01*
X53415908Y-72842517D01*
X53409501Y-72902116D01*
X53409500Y-72902135D01*
X49600500Y-72902135D01*
X49600500Y-70724532D01*
X49620185Y-70657493D01*
X49672989Y-70611738D01*
X49724623Y-70600532D01*
X147476126Y-70699874D01*
G37*
%TD.AperFunction*%
%TD*%
M02*
