<?xml version="1.0" standalone="no"?>
 <!DOCTYPE svg PUBLIC "-//W3C//DTD SVG 1.1//EN" 
 "http://www.w3.org/Graphics/SVG/1.1/DTD/svg11.dtd"> 
<svg
  xmlns:svg="http://www.w3.org/2000/svg"
  xmlns="http://www.w3.org/2000/svg"
  xmlns:xlink="http://www.w3.org/1999/xlink"
  version="1.1"
  width="297.0022mm" height="210.0072mm" viewBox="0.0000 0.0000 297.0022 210.0072">
<title>SVG Image created as fmcw_pcb-F_Paste.svg date 2025/06/29 11:55:16 </title>
  <desc>Image generated by PCBNEW </desc>
<g style="fill:#000000; fill-opacity:1.0000;stroke:#000000; stroke-opacity:1.0000;
stroke-linecap:round; stroke-linejoin:round;"
 transform="translate(0 0) scale(1 1)">
<path style="fill:#000000; fill-opacity:1.0000; 
stroke:#000000; stroke-width:0.0100; stroke-opacity:1; 
stroke-linecap:round; stroke-linejoin:round;fill-rule:evenodd;"
d="M 51.1010,122.1278
51.1270,122.1298
51.1530,122.1328
51.1790,122.1378
51.2040,122.1438
51.2300,122.1508
51.2540,122.1598
51.2780,122.1698
51.3020,122.1808
51.3250,122.1938
51.3470,122.2078
51.3690,122.2218
51.3900,122.2378
51.4100,122.2548
51.4290,122.2728
51.4470,122.2918
51.4640,122.3118
51.4800,122.3328
51.4940,122.3548
51.5080,122.3768
51.5210,122.3998
51.5320,122.4238
51.5420,122.4478
51.5510,122.4718
51.5580,122.4978
51.5640,122.5228
51.5690,122.5488
51.5720,122.5748
51.5740,122.6008
51.5750,122.6268
51.5750,123.7718
50.0250,123.7718
50.0250,122.6268
50.0260,122.6008
50.0280,122.5748
50.0310,122.5488
50.0360,122.5228
50.0420,122.4978
50.0490,122.4718
50.0580,122.4478
50.0680,122.4238
50.0790,122.3998
50.0920,122.3768
50.1060,122.3548
50.1200,122.3328
50.1360,122.3118
50.1530,122.2918
50.1710,122.2728
50.1900,122.2548
50.2100,122.2378
50.2310,122.2218
50.2530,122.2078
50.2750,122.1938
50.2980,122.1808
50.3220,122.1698
50.3460,122.1598
50.3700,122.1508
50.3960,122.1438
50.4210,122.1378
50.4470,122.1328
50.4730,122.1298
50.4990,122.1278
50.5250,122.1268
51.0750,122.1268
Z" /> 
<path style="fill:#000000; fill-opacity:1.0000; 
stroke:#000000; stroke-width:0.0100; stroke-opacity:1; 
stroke-linecap:round; stroke-linejoin:round;fill-rule:evenodd;"
d="M 51.5750,129.5168
51.5740,129.5428
51.5720,129.5688
51.5690,129.5948
51.5640,129.6208
51.5580,129.6458
51.5510,129.6718
51.5420,129.6958
51.5320,129.7198
51.5210,129.7438
51.5080,129.7668
51.4940,129.7888
51.4800,129.8108
51.4640,129.8318
51.4470,129.8518
51.4290,129.8708
51.4100,129.8888
51.3900,129.9058
51.3690,129.9218
51.3470,129.9358
51.3250,129.9498
51.3020,129.9628
51.2780,129.9738
51.2540,129.9838
51.2300,129.9928
51.2040,129.9998
51.1790,130.0058
51.1530,130.0108
51.1270,130.0138
51.1010,130.0158
51.0750,130.0168
50.5250,130.0168
50.4990,130.0158
50.4730,130.0138
50.4470,130.0108
50.4210,130.0058
50.3960,129.9998
50.3700,129.9928
50.3460,129.9838
50.3220,129.9738
50.2980,129.9628
50.2750,129.9498
50.2530,129.9358
50.2310,129.9218
50.2100,129.9058
50.1900,129.8888
50.1710,129.8708
50.1530,129.8518
50.1360,129.8318
50.1200,129.8108
50.1060,129.7888
50.0920,129.7668
50.0790,129.7438
50.0680,129.7198
50.0580,129.6958
50.0490,129.6718
50.0420,129.6458
50.0360,129.6208
50.0310,129.5948
50.0280,129.5688
50.0260,129.5428
50.0250,129.5168
50.0250,128.3718
51.5750,128.3718
Z" /> 
<path style="fill:#000000; fill-opacity:1.0000; stroke:none;fill-rule:evenodd;"
d="M 139.9625,99.5250
139.9435,99.6207
139.8893,99.7018
139.8082,99.7560
139.7125,99.7750
138.1375,99.7750
138.0418,99.7560
137.9607,99.7018
137.9065,99.6207
137.8875,99.5250
137.8875,97.6750
137.9065,97.5793
137.9607,97.4982
138.0418,97.4440
138.1375,97.4250
139.7125,97.4250
139.8082,97.4440
139.8893,97.4982
139.9435,97.5793
139.9625,97.6750
Z" /> 
<path style="fill:#000000; fill-opacity:1.0000; stroke:none;fill-rule:evenodd;"
d="M 135.0375,99.5250
135.0185,99.6207
134.9643,99.7018
134.8832,99.7560
134.7875,99.7750
133.2125,99.7750
133.1168,99.7560
133.0357,99.7018
132.9815,99.6207
132.9625,99.5250
132.9625,97.6750
132.9815,97.5793
133.0357,97.4982
133.1168,97.4440
133.2125,97.4250
134.7875,97.4250
134.8832,97.4440
134.9643,97.4982
135.0185,97.5793
135.0375,97.6750
Z" /> 
<path style="fill:#000000; fill-opacity:1.0000; stroke:none;fill-rule:evenodd;"
d="M 106.8255,101.6190
105.1745,101.6190
105.1745,99.0790
106.8255,99.0790
Z" /> 
<path style="fill:#000000; fill-opacity:1.0000; stroke:none;fill-rule:evenodd;"
d="M 109.3655,101.6190
107.7145,101.6190
107.7145,99.0790
109.3655,99.0790
Z" /> 
<path style="fill:#000000; fill-opacity:1.0000; stroke:none;fill-rule:evenodd;"
d="M 111.9055,101.6190
110.2545,101.6190
110.2545,99.0790
111.9055,99.0790
Z" /> 
<path style="fill:#000000; fill-opacity:1.0000; stroke:none;fill-rule:evenodd;"
d="M 111.9055,96.5390
110.2545,96.5390
110.2545,93.9990
111.9055,93.9990
Z" /> 
<path style="fill:#000000; fill-opacity:1.0000; stroke:none;fill-rule:evenodd;"
d="M 109.3655,96.5390
107.7145,96.5390
107.7145,93.9990
109.3655,93.9990
Z" /> 
<path style="fill:#000000; fill-opacity:1.0000; stroke:none;fill-rule:evenodd;"
d="M 106.8255,96.5390
105.1745,96.5390
105.1745,93.9990
106.8255,93.9990
Z" /> 
<path style="fill:#000000; fill-opacity:1.0000; stroke:none;fill-rule:evenodd;"
d="M 62.5500,98.0750
62.4639,98.0579
62.3909,98.0091
62.3421,97.9361
62.3250,97.8500
62.3250,97.4000
62.3421,97.3139
62.3909,97.2409
62.4639,97.1921
62.5500,97.1750
63.0500,97.1750
63.1361,97.1921
63.2091,97.2409
63.2579,97.3139
63.2750,97.4000
63.2750,97.8500
63.2579,97.9361
63.2091,98.0091
63.1361,98.0579
63.0500,98.0750
Z" /> 
<path style="fill:#000000; fill-opacity:1.0000; stroke:none;fill-rule:evenodd;"
d="M 62.5500,96.5250
62.4639,96.5079
62.3909,96.4591
62.3421,96.3861
62.3250,96.3000
62.3250,95.8500
62.3421,95.7639
62.3909,95.6909
62.4639,95.6421
62.5500,95.6250
63.0500,95.6250
63.1361,95.6421
63.2091,95.6909
63.2579,95.7639
63.2750,95.8500
63.2750,96.3000
63.2579,96.3861
63.2091,96.4591
63.1361,96.5079
63.0500,96.5250
Z" /> 
<path style="fill:#000000; fill-opacity:1.0000; stroke:none;fill-rule:evenodd;"
d="M 58.4968,89.6000
58.4011,89.5810
58.3200,89.5268
58.2658,89.4457
58.2468,89.3500
58.2468,88.8500
58.2658,88.7543
58.3200,88.6732
58.4011,88.6190
58.4968,88.6000
59.4468,88.6000
59.5425,88.6190
59.6236,88.6732
59.6778,88.7543
59.6968,88.8500
59.6968,89.3500
59.6778,89.4457
59.6236,89.5268
59.5425,89.5810
59.4468,89.6000
Z" /> 
<path style="fill:#000000; fill-opacity:1.0000; stroke:none;fill-rule:evenodd;"
d="M 58.4968,87.7000
58.4011,87.6810
58.3200,87.6268
58.2658,87.5457
58.2468,87.4500
58.2468,86.9500
58.2658,86.8543
58.3200,86.7732
58.4011,86.7190
58.4968,86.7000
59.4468,86.7000
59.5425,86.7190
59.6236,86.7732
59.6778,86.8543
59.6968,86.9500
59.6968,87.4500
59.6778,87.5457
59.6236,87.6268
59.5425,87.6810
59.4468,87.7000
Z" /> 
<path style="fill:#000000; fill-opacity:1.0000; stroke:none;fill-rule:evenodd;"
d="M 113.0925,115.1562
113.0758,115.2400
113.0284,115.3109
112.9575,115.3583
112.8738,115.3750
112.4363,115.3750
112.3525,115.3583
112.2816,115.3109
112.2342,115.2400
112.2175,115.1562
112.2175,114.6437
112.2342,114.5600
112.2816,114.4891
112.3525,114.4417
112.4363,114.4250
112.8738,114.4250
112.9575,114.4417
113.0284,114.4891
113.0758,114.5600
113.0925,114.6437
Z" /> 
<path style="fill:#000000; fill-opacity:1.0000; stroke:none;fill-rule:evenodd;"
d="M 111.5175,115.1562
111.5008,115.2400
111.4534,115.3109
111.3825,115.3583
111.2987,115.3750
110.8612,115.3750
110.7775,115.3583
110.7066,115.3109
110.6592,115.2400
110.6425,115.1562
110.6425,114.6437
110.6592,114.5600
110.7066,114.4891
110.7775,114.4417
110.8612,114.4250
111.2987,114.4250
111.3825,114.4417
111.4534,114.4891
111.5008,114.5600
111.5175,114.6437
Z" /> 
<path style="fill:#000000; fill-opacity:1.0000; stroke:none;fill-rule:evenodd;"
d="M 110.5300,137.0750
110.5144,137.1820
110.4602,137.2929
110.3729,137.3802
110.2620,137.4344
110.1550,137.4500
109.4050,137.4500
109.2980,137.4344
109.1871,137.3802
109.0998,137.2929
109.0456,137.1820
109.0300,137.0750
109.0300,133.9250
109.0456,133.8180
109.0998,133.7071
109.1871,133.6198
109.2980,133.5656
109.4050,133.5500
110.1550,133.5500
110.2620,133.5656
110.3729,133.6198
110.4602,133.7071
110.5144,133.8180
110.5300,133.9250
Z" /> 
<path style="fill:#000000; fill-opacity:1.0000; stroke:none;fill-rule:evenodd;"
d="M 113.3050,137.0750
113.2894,137.1820
113.2352,137.2929
113.1479,137.3802
113.0370,137.4344
112.9300,137.4500
112.1800,137.4500
112.0730,137.4344
111.9621,137.3802
111.8748,137.2929
111.8206,137.1820
111.8050,137.0750
111.8050,133.9250
111.8206,133.8180
111.8748,133.7071
111.9621,133.6198
112.0730,133.5656
112.1800,133.5500
112.9300,133.5500
113.0370,133.5656
113.1479,133.6198
113.2352,133.7071
113.2894,133.8180
113.3050,133.9250
Z" /> 
<path style="fill:#000000; fill-opacity:1.0000; stroke:none;fill-rule:evenodd;"
d="M 107.7550,137.0750
107.7394,137.1820
107.6852,137.2929
107.5979,137.3802
107.4870,137.4344
107.3800,137.4500
106.6300,137.4500
106.5230,137.4344
106.4121,137.3802
106.3248,137.2929
106.2706,137.1820
106.2550,137.0750
106.2550,133.9250
106.2706,133.8180
106.3248,133.7071
106.4121,133.6198
106.5230,133.5656
106.6300,133.5500
107.3800,133.5500
107.4870,133.5656
107.5979,133.6198
107.6852,133.7071
107.7394,133.8180
107.7550,133.9250
Z" /> 
<path style="fill:#000000; fill-opacity:1.0000; stroke:none;fill-rule:evenodd;"
d="M 118.3625,72.5500
118.3815,72.4543
118.4357,72.3732
118.5168,72.3190
118.6125,72.3000
119.1375,72.3000
119.2332,72.3190
119.3143,72.3732
119.3685,72.4543
119.3875,72.5500
119.3875,73.4500
119.3685,73.5457
119.3143,73.6268
119.2332,73.6810
119.1375,73.7000
118.6125,73.7000
118.5168,73.6810
118.4357,73.6268
118.3815,73.5457
118.3625,73.4500
Z" /> 
<path style="fill:#000000; fill-opacity:1.0000; stroke:none;fill-rule:evenodd;"
d="M 120.1875,72.5500
120.2065,72.4543
120.2607,72.3732
120.3418,72.3190
120.4375,72.3000
120.9625,72.3000
121.0582,72.3190
121.1393,72.3732
121.1935,72.4543
121.2125,72.5500
121.2125,73.4500
121.1935,73.5457
121.1393,73.6268
121.0582,73.6810
120.9625,73.7000
120.4375,73.7000
120.3418,73.6810
120.2607,73.6268
120.2065,73.5457
120.1875,73.4500
Z" /> 
<path style="fill:#000000; fill-opacity:1.0000; stroke:none;fill-rule:evenodd;"
d="M 67.9968,117.3000
67.9011,117.2810
67.8200,117.2268
67.7658,117.1457
67.7468,117.0500
67.7468,116.5500
67.7658,116.4543
67.8200,116.3732
67.9011,116.3190
67.9968,116.3000
68.9468,116.3000
69.0425,116.3190
69.1236,116.3732
69.1778,116.4543
69.1968,116.5500
69.1968,117.0500
69.1778,117.1457
69.1236,117.2268
69.0425,117.2810
68.9468,117.3000
Z" /> 
<path style="fill:#000000; fill-opacity:1.0000; stroke:none;fill-rule:evenodd;"
d="M 67.9968,115.4000
67.9011,115.3810
67.8200,115.3268
67.7658,115.2457
67.7468,115.1500
67.7468,114.6500
67.7658,114.5543
67.8200,114.4732
67.9011,114.4190
67.9968,114.4000
68.9468,114.4000
69.0425,114.4190
69.1236,114.4732
69.1778,114.5543
69.1968,114.6500
69.1968,115.1500
69.1778,115.2457
69.1236,115.3268
69.0425,115.3810
68.9468,115.4000
Z" /> 
<path style="fill:#000000; fill-opacity:1.0000; stroke:none;fill-rule:evenodd;"
d="M 135.9000,94.4750
135.8810,94.5707
135.8268,94.6518
135.7457,94.7060
135.6500,94.7250
135.1500,94.7250
135.0543,94.7060
134.9732,94.6518
134.9190,94.5707
134.9000,94.4750
134.9000,93.5250
134.9190,93.4293
134.9732,93.3482
135.0543,93.2940
135.1500,93.2750
135.6500,93.2750
135.7457,93.2940
135.8268,93.3482
135.8810,93.4293
135.9000,93.5250
Z" /> 
<path style="fill:#000000; fill-opacity:1.0000; stroke:none;fill-rule:evenodd;"
d="M 134.0000,94.4750
133.9810,94.5707
133.9268,94.6518
133.8457,94.7060
133.7500,94.7250
133.2500,94.7250
133.1543,94.7060
133.0732,94.6518
133.0190,94.5707
133.0000,94.4750
133.0000,93.5250
133.0190,93.4293
133.0732,93.3482
133.1543,93.2940
133.2500,93.2750
133.7500,93.2750
133.8457,93.2940
133.9268,93.3482
133.9810,93.4293
134.0000,93.5250
Z" /> 
<path style="fill:#000000; fill-opacity:1.0000; stroke:none;fill-rule:evenodd;"
d="M 57.5500,100.9125
57.4543,100.8935
57.3732,100.8393
57.3190,100.7582
57.3000,100.6625
57.3000,100.1375
57.3190,100.0418
57.3732,99.9607
57.4543,99.9065
57.5500,99.8875
58.4500,99.8875
58.5457,99.9065
58.6268,99.9607
58.6810,100.0418
58.7000,100.1375
58.7000,100.6625
58.6810,100.7582
58.6268,100.8393
58.5457,100.8935
58.4500,100.9125
Z" /> 
<path style="fill:#000000; fill-opacity:1.0000; stroke:none;fill-rule:evenodd;"
d="M 57.5500,99.0875
57.4543,99.0685
57.3732,99.0143
57.3190,98.9332
57.3000,98.8375
57.3000,98.3125
57.3190,98.2168
57.3732,98.1357
57.4543,98.0815
57.5500,98.0625
58.4500,98.0625
58.5457,98.0815
58.6268,98.1357
58.6810,98.2168
58.7000,98.3125
58.7000,98.8375
58.6810,98.9332
58.6268,99.0143
58.5457,99.0685
58.4500,99.0875
Z" /> 
<path style="fill:#000000; fill-opacity:1.0000; stroke:none;fill-rule:evenodd;"
d="M 73.0833,77.8385
72.6083,77.8385
72.6083,77.4635
73.0833,77.4635
Z" /> 
<path style="fill:#000000; fill-opacity:1.0000; stroke:none;fill-rule:evenodd;"
d="M 73.0833,77.1625
72.6083,77.1625
72.6083,76.7875
73.0833,76.7875
Z" /> 
<path style="fill:#000000; fill-opacity:1.0000; stroke:none;fill-rule:evenodd;"
d="M 72.1093,77.1625
71.6343,77.1625
71.6343,76.7875
72.1093,76.7875
Z" /> 
<path style="fill:#000000; fill-opacity:1.0000; stroke:none;fill-rule:evenodd;"
d="M 72.1093,77.8385
71.6343,77.8385
71.6343,77.4635
72.1093,77.4635
Z" /> 
<path style="fill:#000000; fill-opacity:1.0000; stroke:none;fill-rule:evenodd;"
d="M 120.6000,123.1750
120.5810,123.2707
120.5268,123.3518
120.4457,123.4060
120.3500,123.4250
119.8500,123.4250
119.7543,123.4060
119.6732,123.3518
119.6190,123.2707
119.6000,123.1750
119.6000,122.2250
119.6190,122.1293
119.6732,122.0482
119.7543,121.9940
119.8500,121.9750
120.3500,121.9750
120.4457,121.9940
120.5268,122.0482
120.5810,122.1293
120.6000,122.2250
Z" /> 
<path style="fill:#000000; fill-opacity:1.0000; stroke:none;fill-rule:evenodd;"
d="M 118.7000,123.1750
118.6810,123.2707
118.6268,123.3518
118.5457,123.4060
118.4500,123.4250
117.9500,123.4250
117.8543,123.4060
117.7732,123.3518
117.7190,123.2707
117.7000,123.1750
117.7000,122.2250
117.7190,122.1293
117.7732,122.0482
117.8543,121.9940
117.9500,121.9750
118.4500,121.9750
118.5457,121.9940
118.6268,122.0482
118.6810,122.1293
118.7000,122.2250
Z" /> 
<path style="fill:#000000; fill-opacity:1.0000; stroke:none;fill-rule:evenodd;"
d="M 87.1968,89.4600
87.2139,89.3739
87.2627,89.3009
87.3357,89.2521
87.4218,89.2350
87.8718,89.2350
87.9579,89.2521
88.0309,89.3009
88.0797,89.3739
88.0968,89.4600
88.0968,89.9600
88.0797,90.0461
88.0309,90.1191
87.9579,90.1679
87.8718,90.1850
87.4218,90.1850
87.3357,90.1679
87.2627,90.1191
87.2139,90.0461
87.1968,89.9600
Z" /> 
<path style="fill:#000000; fill-opacity:1.0000; stroke:none;fill-rule:evenodd;"
d="M 88.7468,89.4600
88.7639,89.3739
88.8127,89.3009
88.8857,89.2521
88.9718,89.2350
89.4218,89.2350
89.5079,89.2521
89.5809,89.3009
89.6297,89.3739
89.6468,89.4600
89.6468,89.9600
89.6297,90.0461
89.5809,90.1191
89.5079,90.1679
89.4218,90.1850
88.9718,90.1850
88.8857,90.1679
88.8127,90.1191
88.7639,90.0461
88.7468,89.9600
Z" /> 
<path style="fill:#000000; fill-opacity:1.0000; stroke:none;fill-rule:evenodd;"
d="M 91.9206,89.8878
91.9206,89.5322
92.4794,89.5322
92.4794,89.8878
Z" /> 
<path style="fill:#000000; fill-opacity:1.0000; stroke:none;fill-rule:evenodd;"
d="M 93.8510,89.3417
92.6064,89.3417
92.6064,88.7829
93.8510,88.7829
Z" /> 
<path style="fill:#000000; fill-opacity:1.0000; stroke:none;fill-rule:evenodd;"
d="M 93.9780,89.8878
93.9780,89.5322
94.5368,89.5322
94.5368,89.8878
Z" /> 
<path style="fill:#000000; fill-opacity:1.0000; stroke:none;fill-rule:evenodd;"
d="M 93.8510,90.6371
92.6064,90.6371
92.6064,90.0783
93.8510,90.0783
Z" /> 
<path style="fill:#000000; fill-opacity:1.0000; stroke:none;fill-rule:evenodd;"
d="M 86.1500,81.0625
86.2457,81.0815
86.3268,81.1357
86.3810,81.2168
86.4000,81.3125
86.4000,81.8375
86.3810,81.9332
86.3268,82.0143
86.2457,82.0685
86.1500,82.0875
85.2500,82.0875
85.1543,82.0685
85.0732,82.0143
85.0190,81.9332
85.0000,81.8375
85.0000,81.3125
85.0190,81.2168
85.0732,81.1357
85.1543,81.0815
85.2500,81.0625
Z" /> 
<path style="fill:#000000; fill-opacity:1.0000; stroke:none;fill-rule:evenodd;"
d="M 86.1500,82.8875
86.2457,82.9065
86.3268,82.9607
86.3810,83.0418
86.4000,83.1375
86.4000,83.6625
86.3810,83.7582
86.3268,83.8393
86.2457,83.8935
86.1500,83.9125
85.2500,83.9125
85.1543,83.8935
85.0732,83.8393
85.0190,83.7582
85.0000,83.6625
85.0000,83.1375
85.0190,83.0418
85.0732,82.9607
85.1543,82.9065
85.2500,82.8875
Z" /> 
<path style="fill:#000000; fill-opacity:1.0000; stroke:none;fill-rule:evenodd;"
d="M 115.1365,89.9315
115.1365,89.4565
115.5115,89.4565
115.5115,89.9315
Z" /> 
<path style="fill:#000000; fill-opacity:1.0000; stroke:none;fill-rule:evenodd;"
d="M 115.8125,89.9315
115.8125,89.4565
116.1875,89.4565
116.1875,89.9315
Z" /> 
<path style="fill:#000000; fill-opacity:1.0000; stroke:none;fill-rule:evenodd;"
d="M 115.8125,88.9575
115.8125,88.4825
116.1875,88.4825
116.1875,88.9575
Z" /> 
<path style="fill:#000000; fill-opacity:1.0000; stroke:none;fill-rule:evenodd;"
d="M 115.1365,88.9575
115.1365,88.4825
115.5115,88.4825
115.5115,88.9575
Z" /> 
<path style="fill:#000000; fill-opacity:1.0000; stroke:none;fill-rule:evenodd;"
d="M 64.0218,104.5875
64.1175,104.6065
64.1986,104.6607
64.2528,104.7418
64.2718,104.8375
64.2718,105.3625
64.2528,105.4582
64.1986,105.5393
64.1175,105.5935
64.0218,105.6125
63.1218,105.6125
63.0261,105.5935
62.9450,105.5393
62.8908,105.4582
62.8718,105.3625
62.8718,104.8375
62.8908,104.7418
62.9450,104.6607
63.0261,104.6065
63.1218,104.5875
Z" /> 
<path style="fill:#000000; fill-opacity:1.0000; stroke:none;fill-rule:evenodd;"
d="M 64.0218,106.4125
64.1175,106.4315
64.1986,106.4857
64.2528,106.5668
64.2718,106.6625
64.2718,107.1875
64.2528,107.2832
64.1986,107.3643
64.1175,107.4185
64.0218,107.4375
63.1218,107.4375
63.0261,107.4185
62.9450,107.3643
62.8908,107.2832
62.8718,107.1875
62.8718,106.6625
62.8908,106.5668
62.9450,106.4857
63.0261,106.4315
63.1218,106.4125
Z" /> 
<path style="fill:#000000; fill-opacity:1.0000; stroke:none;fill-rule:evenodd;"
d="M 71.1218,70.9250
71.1374,70.8180
71.1916,70.7071
71.2789,70.6198
71.3898,70.5656
71.4968,70.5500
72.2468,70.5500
72.3538,70.5656
72.4647,70.6198
72.5520,70.7071
72.6062,70.8180
72.6218,70.9250
72.6218,74.0750
72.6062,74.1820
72.5520,74.2929
72.4647,74.3802
72.3538,74.4344
72.2468,74.4500
71.4968,74.4500
71.3898,74.4344
71.2789,74.3802
71.1916,74.2929
71.1374,74.1820
71.1218,74.0750
Z" /> 
<path style="fill:#000000; fill-opacity:1.0000; stroke:none;fill-rule:evenodd;"
d="M 68.3468,70.9250
68.3624,70.8180
68.4166,70.7071
68.5039,70.6198
68.6148,70.5656
68.7218,70.5500
69.4718,70.5500
69.5788,70.5656
69.6897,70.6198
69.7770,70.7071
69.8312,70.8180
69.8468,70.9250
69.8468,74.0750
69.8312,74.1820
69.7770,74.2929
69.6897,74.3802
69.5788,74.4344
69.4718,74.4500
68.7218,74.4500
68.6148,74.4344
68.5039,74.3802
68.4166,74.2929
68.3624,74.1820
68.3468,74.0750
Z" /> 
<path style="fill:#000000; fill-opacity:1.0000; stroke:none;fill-rule:evenodd;"
d="M 73.8968,70.9250
73.9124,70.8180
73.9666,70.7071
74.0539,70.6198
74.1648,70.5656
74.2718,70.5500
75.0218,70.5500
75.1288,70.5656
75.2397,70.6198
75.3270,70.7071
75.3812,70.8180
75.3968,70.9250
75.3968,74.0750
75.3812,74.1820
75.3270,74.2929
75.2397,74.3802
75.1288,74.4344
75.0218,74.4500
74.2718,74.4500
74.1648,74.4344
74.0539,74.3802
73.9666,74.2929
73.9124,74.1820
73.8968,74.0750
Z" /> 
<path style="fill:#000000; fill-opacity:1.0000; stroke:none;fill-rule:evenodd;"
d="M 85.9280,87.6975
86.0118,87.7142
86.0827,87.7616
86.1301,87.8325
86.1468,87.9162
86.1468,88.3537
86.1301,88.4375
86.0827,88.5084
86.0118,88.5558
85.9280,88.5725
85.4155,88.5725
85.3318,88.5558
85.2609,88.5084
85.2135,88.4375
85.1968,88.3537
85.1968,87.9162
85.2135,87.8325
85.2609,87.7616
85.3318,87.7142
85.4155,87.6975
Z" /> 
<path style="fill:#000000; fill-opacity:1.0000; stroke:none;fill-rule:evenodd;"
d="M 85.9280,89.2725
86.0118,89.2892
86.0827,89.3366
86.1301,89.4075
86.1468,89.4912
86.1468,89.9287
86.1301,90.0125
86.0827,90.0834
86.0118,90.1308
85.9280,90.1475
85.4155,90.1475
85.3318,90.1308
85.2609,90.0834
85.2135,90.0125
85.1968,89.9287
85.1968,89.4912
85.2135,89.4075
85.2609,89.3366
85.3318,89.2892
85.4155,89.2725
Z" /> 
<path style="fill:#000000; fill-opacity:1.0000; stroke:none;fill-rule:evenodd;"
d="M 147.3750,106.7500
147.4820,106.7656
147.5929,106.8198
147.6802,106.9071
147.7344,107.0180
147.7500,107.1250
147.7500,107.8750
147.7344,107.9820
147.6802,108.0929
147.5929,108.1802
147.4820,108.2344
147.3750,108.2500
144.2250,108.2500
144.1180,108.2344
144.0071,108.1802
143.9198,108.0929
143.8656,107.9820
143.8500,107.8750
143.8500,107.1250
143.8656,107.0180
143.9198,106.9071
144.0071,106.8198
144.1180,106.7656
144.2250,106.7500
Z" /> 
<path style="fill:#000000; fill-opacity:1.0000; stroke:none;fill-rule:evenodd;"
d="M 147.3750,103.9750
147.4820,103.9906
147.5929,104.0448
147.6802,104.1321
147.7344,104.2430
147.7500,104.3500
147.7500,105.1000
147.7344,105.2070
147.6802,105.3179
147.5929,105.4052
147.4820,105.4594
147.3750,105.4750
144.2250,105.4750
144.1180,105.4594
144.0071,105.4052
143.9198,105.3179
143.8656,105.2070
143.8500,105.1000
143.8500,104.3500
143.8656,104.2430
143.9198,104.1321
144.0071,104.0448
144.1180,103.9906
144.2250,103.9750
Z" /> 
<path style="fill:#000000; fill-opacity:1.0000; stroke:none;fill-rule:evenodd;"
d="M 147.3750,109.5250
147.4820,109.5406
147.5929,109.5948
147.6802,109.6821
147.7344,109.7930
147.7500,109.9000
147.7500,110.6500
147.7344,110.7570
147.6802,110.8679
147.5929,110.9552
147.4820,111.0094
147.3750,111.0250
144.2250,111.0250
144.1180,111.0094
144.0071,110.9552
143.9198,110.8679
143.8656,110.7570
143.8500,110.6500
143.8500,109.9000
143.8656,109.7930
143.9198,109.6821
144.0071,109.5948
144.1180,109.5406
144.2250,109.5250
Z" /> 
<path style="fill:#000000; fill-opacity:1.0000; stroke:none;fill-rule:evenodd;"
d="M 71.1718,91.3715
71.1834,91.2831
71.2336,91.1756
71.3174,91.0918
71.4249,91.0416
71.5133,91.0300
72.2303,91.0300
72.3187,91.0416
72.4262,91.0918
72.5100,91.1756
72.5602,91.2831
72.5718,91.3715
72.5718,92.0885
72.5602,92.1769
72.5100,92.2844
72.4262,92.3682
72.3187,92.4184
72.2303,92.4300
71.5133,92.4300
71.4249,92.4184
71.3174,92.3682
71.2336,92.2844
71.1834,92.1769
71.1718,92.0885
Z" /> 
<path style="fill:#000000; fill-opacity:1.0000; stroke:none;fill-rule:evenodd;"
d="M 73.1843,91.2800
73.2033,91.1843
73.2575,91.1032
73.3386,91.0490
73.4343,91.0300
73.9593,91.0300
74.0550,91.0490
74.1361,91.1032
74.1903,91.1843
74.2093,91.2800
74.2093,92.1800
74.1903,92.2757
74.1361,92.3568
74.0550,92.4110
73.9593,92.4300
73.4343,92.4300
73.3386,92.4110
73.2575,92.3568
73.2033,92.2757
73.1843,92.1800
Z" /> 
<path style="fill:#000000; fill-opacity:1.0000; stroke:none;fill-rule:evenodd;"
d="M 71.4218,90.4175
71.3261,90.3985
71.2450,90.3443
71.1908,90.2632
71.1718,90.1675
71.1718,89.6425
71.1908,89.5468
71.2450,89.4657
71.3261,89.4115
71.4218,89.3925
72.3218,89.3925
72.4175,89.4115
72.4986,89.4657
72.5528,89.5468
72.5718,89.6425
72.5718,90.1675
72.5528,90.2632
72.4986,90.3443
72.4175,90.3985
72.3218,90.4175
Z" /> 
<path style="fill:#000000; fill-opacity:1.0000; stroke:none;fill-rule:evenodd;"
d="M 139.9500,87.1125
139.8543,87.0935
139.7732,87.0393
139.7190,86.9582
139.7000,86.8625
139.7000,86.3375
139.7190,86.2418
139.7732,86.1607
139.8543,86.1065
139.9500,86.0875
140.8500,86.0875
140.9457,86.1065
141.0268,86.1607
141.0810,86.2418
141.1000,86.3375
141.1000,86.8625
141.0810,86.9582
141.0268,87.0393
140.9457,87.0935
140.8500,87.1125
Z" /> 
<path style="fill:#000000; fill-opacity:1.0000; stroke:none;fill-rule:evenodd;"
d="M 139.9500,85.2875
139.8543,85.2685
139.7732,85.2143
139.7190,85.1332
139.7000,85.0375
139.7000,84.5125
139.7190,84.4168
139.7732,84.3357
139.8543,84.2815
139.9500,84.2625
140.8500,84.2625
140.9457,84.2815
141.0268,84.3357
141.0810,84.4168
141.1000,84.5125
141.1000,85.0375
141.0810,85.1332
141.0268,85.2143
140.9457,85.2685
140.8500,85.2875
Z" /> 
<path style="fill:#000000; fill-opacity:1.0000; stroke:none;fill-rule:evenodd;"
d="M 105.0000,88.3615
105.0116,88.2731
105.0618,88.1656
105.1456,88.0818
105.2531,88.0316
105.3415,88.0200
106.0585,88.0200
106.1469,88.0316
106.2544,88.0818
106.3382,88.1656
106.3884,88.2731
106.4000,88.3615
106.4000,89.0785
106.3884,89.1669
106.3382,89.2744
106.2544,89.3582
106.1469,89.4084
106.0585,89.4200
105.3415,89.4200
105.2531,89.4084
105.1456,89.3582
105.0618,89.2744
105.0116,89.1669
105.0000,89.0785
Z" /> 
<path style="fill:#000000; fill-opacity:1.0000; stroke:none;fill-rule:evenodd;"
d="M 107.0125,88.2700
107.0315,88.1743
107.0857,88.0932
107.1668,88.0390
107.2625,88.0200
107.7875,88.0200
107.8832,88.0390
107.9643,88.0932
108.0185,88.1743
108.0375,88.2700
108.0375,89.1700
108.0185,89.2657
107.9643,89.3468
107.8832,89.4010
107.7875,89.4200
107.2625,89.4200
107.1668,89.4010
107.0857,89.3468
107.0315,89.2657
107.0125,89.1700
Z" /> 
<path style="fill:#000000; fill-opacity:1.0000; stroke:none;fill-rule:evenodd;"
d="M 105.2500,87.4075
105.1543,87.3885
105.0732,87.3343
105.0190,87.2532
105.0000,87.1575
105.0000,86.6325
105.0190,86.5368
105.0732,86.4557
105.1543,86.4015
105.2500,86.3825
106.1500,86.3825
106.2457,86.4015
106.3268,86.4557
106.3810,86.5368
106.4000,86.6325
106.4000,87.1575
106.3810,87.2532
106.3268,87.3343
106.2457,87.3885
106.1500,87.4075
Z" /> 
<path style="fill:#000000; fill-opacity:1.0000; stroke:none;fill-rule:evenodd;"
d="M 58.4850,105.8050
58.4804,105.8280
58.4674,105.8474
58.4480,105.8604
58.4250,105.8650
57.1750,105.8650
57.1520,105.8604
57.1326,105.8474
57.1196,105.8280
57.1150,105.8050
57.1150,105.4450
57.1196,105.4220
57.1326,105.4026
57.1520,105.3896
57.1750,105.3850
58.4250,105.3850
58.4480,105.3896
58.4674,105.4026
58.4804,105.4220
58.4850,105.4450
Z" /> 
<path style="fill:#000000; fill-opacity:1.0000; stroke:none;fill-rule:evenodd;"
d="M 58.4850,105.1550
58.4804,105.1780
58.4674,105.1974
58.4480,105.2104
58.4250,105.2150
57.1750,105.2150
57.1520,105.2104
57.1326,105.1974
57.1196,105.1780
57.1150,105.1550
57.1150,104.7950
57.1196,104.7720
57.1326,104.7526
57.1520,104.7396
57.1750,104.7350
58.4250,104.7350
58.4480,104.7396
58.4674,104.7526
58.4804,104.7720
58.4850,104.7950
Z" /> 
<path style="fill:#000000; fill-opacity:1.0000; stroke:none;fill-rule:evenodd;"
d="M 58.4850,104.5050
58.4804,104.5280
58.4674,104.5474
58.4480,104.5604
58.4250,104.5650
57.1750,104.5650
57.1520,104.5604
57.1326,104.5474
57.1196,104.5280
57.1150,104.5050
57.1150,104.1450
57.1196,104.1220
57.1326,104.1026
57.1520,104.0896
57.1750,104.0850
58.4250,104.0850
58.4480,104.0896
58.4674,104.1026
58.4804,104.1220
58.4850,104.1450
Z" /> 
<path style="fill:#000000; fill-opacity:1.0000; stroke:none;fill-rule:evenodd;"
d="M 58.4850,103.8550
58.4804,103.8780
58.4674,103.8974
58.4480,103.9104
58.4250,103.9150
57.1750,103.9150
57.1520,103.9104
57.1326,103.8974
57.1196,103.8780
57.1150,103.8550
57.1150,103.4950
57.1196,103.4720
57.1326,103.4526
57.1520,103.4396
57.1750,103.4350
58.4250,103.4350
58.4480,103.4396
58.4674,103.4526
58.4804,103.4720
58.4850,103.4950
Z" /> 
<path style="fill:#000000; fill-opacity:1.0000; stroke:none;fill-rule:evenodd;"
d="M 56.1850,103.8550
56.1804,103.8780
56.1674,103.8974
56.1480,103.9104
56.1250,103.9150
54.8750,103.9150
54.8520,103.9104
54.8326,103.8974
54.8196,103.8780
54.8150,103.8550
54.8150,103.4950
54.8196,103.4720
54.8326,103.4526
54.8520,103.4396
54.8750,103.4350
56.1250,103.4350
56.1480,103.4396
56.1674,103.4526
56.1804,103.4720
56.1850,103.4950
Z" /> 
<path style="fill:#000000; fill-opacity:1.0000; stroke:none;fill-rule:evenodd;"
d="M 56.1850,104.5050
56.1804,104.5280
56.1674,104.5474
56.1480,104.5604
56.1250,104.5650
54.8750,104.5650
54.8520,104.5604
54.8326,104.5474
54.8196,104.5280
54.8150,104.5050
54.8150,104.1450
54.8196,104.1220
54.8326,104.1026
54.8520,104.0896
54.8750,104.0850
56.1250,104.0850
56.1480,104.0896
56.1674,104.1026
56.1804,104.1220
56.1850,104.1450
Z" /> 
<path style="fill:#000000; fill-opacity:1.0000; stroke:none;fill-rule:evenodd;"
d="M 56.1850,105.1550
56.1804,105.1780
56.1674,105.1974
56.1480,105.2104
56.1250,105.2150
54.8750,105.2150
54.8520,105.2104
54.8326,105.1974
54.8196,105.1780
54.8150,105.1550
54.8150,104.7950
54.8196,104.7720
54.8326,104.7526
54.8520,104.7396
54.8750,104.7350
56.1250,104.7350
56.1480,104.7396
56.1674,104.7526
56.1804,104.7720
56.1850,104.7950
Z" /> 
<path style="fill:#000000; fill-opacity:1.0000; stroke:none;fill-rule:evenodd;"
d="M 56.1850,105.8050
56.1804,105.8280
56.1674,105.8474
56.1480,105.8604
56.1250,105.8650
54.8750,105.8650
54.8520,105.8604
54.8326,105.8474
54.8196,105.8280
54.8150,105.8050
54.8150,105.4450
54.8196,105.4220
54.8326,105.4026
54.8520,105.3896
54.8750,105.3850
56.1250,105.3850
56.1480,105.3896
56.1674,105.4026
56.1804,105.4220
56.1850,105.4450
Z" /> 
<path style="fill:#000000; fill-opacity:1.0000; stroke:none;fill-rule:evenodd;"
d="M 59.7500,109.4125
59.6543,109.3935
59.5732,109.3393
59.5190,109.2582
59.5000,109.1625
59.5000,108.6375
59.5190,108.5418
59.5732,108.4607
59.6543,108.4065
59.7500,108.3875
60.6500,108.3875
60.7457,108.4065
60.8268,108.4607
60.8810,108.5418
60.9000,108.6375
60.9000,109.1625
60.8810,109.2582
60.8268,109.3393
60.7457,109.3935
60.6500,109.4125
Z" /> 
<path style="fill:#000000; fill-opacity:1.0000; stroke:none;fill-rule:evenodd;"
d="M 59.7500,107.5875
59.6543,107.5685
59.5732,107.5143
59.5190,107.4332
59.5000,107.3375
59.5000,106.8125
59.5190,106.7168
59.5732,106.6357
59.6543,106.5815
59.7500,106.5625
60.6500,106.5625
60.7457,106.5815
60.8268,106.6357
60.8810,106.7168
60.9000,106.8125
60.9000,107.3375
60.8810,107.4332
60.8268,107.5143
60.7457,107.5685
60.6500,107.5875
Z" /> 
<path style="fill:#000000; fill-opacity:1.0000; stroke:none;fill-rule:evenodd;"
d="M 54.2500,96.0625
54.3457,96.0815
54.4268,96.1357
54.4810,96.2168
54.5000,96.3125
54.5000,96.8375
54.4810,96.9332
54.4268,97.0143
54.3457,97.0685
54.2500,97.0875
53.3500,97.0875
53.2543,97.0685
53.1732,97.0143
53.1190,96.9332
53.1000,96.8375
53.1000,96.3125
53.1190,96.2168
53.1732,96.1357
53.2543,96.0815
53.3500,96.0625
Z" /> 
<path style="fill:#000000; fill-opacity:1.0000; stroke:none;fill-rule:evenodd;"
d="M 54.2500,97.8875
54.3457,97.9065
54.4268,97.9607
54.4810,98.0418
54.5000,98.1375
54.5000,98.6625
54.4810,98.7582
54.4268,98.8393
54.3457,98.8935
54.2500,98.9125
53.3500,98.9125
53.2543,98.8935
53.1732,98.8393
53.1190,98.7582
53.1000,98.6625
53.1000,98.1375
53.1190,98.0418
53.1732,97.9607
53.2543,97.9065
53.3500,97.8875
Z" /> 
<path style="fill:#000000; fill-opacity:1.0000; stroke:none;fill-rule:evenodd;"
d="M 54.2000,93.7750
54.1810,93.8707
54.1268,93.9518
54.0457,94.0060
53.9500,94.0250
53.4500,94.0250
53.3543,94.0060
53.2732,93.9518
53.2190,93.8707
53.2000,93.7750
53.2000,92.8250
53.2190,92.7293
53.2732,92.6482
53.3543,92.5940
53.4500,92.5750
53.9500,92.5750
54.0457,92.5940
54.1268,92.6482
54.1810,92.7293
54.2000,92.8250
Z" /> 
<path style="fill:#000000; fill-opacity:1.0000; stroke:none;fill-rule:evenodd;"
d="M 52.3000,93.7750
52.2810,93.8707
52.2268,93.9518
52.1457,94.0060
52.0500,94.0250
51.5500,94.0250
51.4543,94.0060
51.3732,93.9518
51.3190,93.8707
51.3000,93.7750
51.3000,92.8250
51.3190,92.7293
51.3732,92.6482
51.4543,92.5940
51.5500,92.5750
52.0500,92.5750
52.1457,92.5940
52.2268,92.6482
52.2810,92.7293
52.3000,92.8250
Z" /> 
<path style="fill:#000000; fill-opacity:1.0000; stroke:none;fill-rule:evenodd;"
d="M 96.4650,88.5675
96.4766,88.5091
96.5097,88.4597
96.5591,88.4266
96.6175,88.4150
97.3825,88.4150
97.4409,88.4266
97.4903,88.4597
97.5234,88.5091
97.5350,88.5675
97.5350,88.8725
97.5234,88.9309
97.4903,88.9803
97.4409,89.0134
97.3825,89.0250
96.6175,89.0250
96.5591,89.0134
96.5097,88.9803
96.4766,88.9309
96.4650,88.8725
Z" /> 
<path style="fill:#000000; fill-opacity:1.0000; stroke:none;fill-rule:evenodd;"
d="M 96.4650,89.5575
96.4766,89.4991
96.5097,89.4497
96.5591,89.4166
96.6175,89.4050
97.3825,89.4050
97.4409,89.4166
97.4903,89.4497
97.5234,89.4991
97.5350,89.5575
97.5350,89.8625
97.5234,89.9209
97.4903,89.9703
97.4409,90.0034
97.3825,90.0150
96.6175,90.0150
96.5591,90.0034
96.5097,89.9703
96.4766,89.9209
96.4650,89.8625
Z" /> 
<path style="fill:#000000; fill-opacity:1.0000; stroke:none;fill-rule:evenodd;"
d="M 96.4650,90.5475
96.4766,90.4891
96.5097,90.4397
96.5591,90.4066
96.6175,90.3950
97.3825,90.3950
97.4409,90.4066
97.4903,90.4397
97.5234,90.4891
97.5350,90.5475
97.5350,90.8525
97.5234,90.9109
97.4903,90.9603
97.4409,90.9934
97.3825,91.0050
96.6175,91.0050
96.5591,90.9934
96.5097,90.9603
96.4766,90.9109
96.4650,90.8525
Z" /> 
<path style="fill:#000000; fill-opacity:1.0000; stroke:none;fill-rule:evenodd;"
d="M 98.5150,90.5475
98.5266,90.4891
98.5597,90.4397
98.6091,90.4066
98.6675,90.3950
99.4325,90.3950
99.4909,90.4066
99.5403,90.4397
99.5734,90.4891
99.5850,90.5475
99.5850,90.8525
99.5734,90.9109
99.5403,90.9603
99.4909,90.9934
99.4325,91.0050
98.6675,91.0050
98.6091,90.9934
98.5597,90.9603
98.5266,90.9109
98.5150,90.8525
Z" /> 
<path style="fill:#000000; fill-opacity:1.0000; stroke:none;fill-rule:evenodd;"
d="M 98.5150,89.5575
98.5266,89.4991
98.5597,89.4497
98.6091,89.4166
98.6675,89.4050
99.4325,89.4050
99.4909,89.4166
99.5403,89.4497
99.5734,89.4991
99.5850,89.5575
99.5850,89.8625
99.5734,89.9209
99.5403,89.9703
99.4909,90.0034
99.4325,90.0150
98.6675,90.0150
98.6091,90.0034
98.5597,89.9703
98.5266,89.9209
98.5150,89.8625
Z" /> 
<path style="fill:#000000; fill-opacity:1.0000; stroke:none;fill-rule:evenodd;"
d="M 98.5150,88.5675
98.5266,88.5091
98.5597,88.4597
98.6091,88.4266
98.6675,88.4150
99.4325,88.4150
99.4909,88.4266
99.5403,88.4597
99.5734,88.5091
99.5850,88.5675
99.5850,88.8725
99.5734,88.9309
99.5403,88.9803
99.4909,89.0134
99.4325,89.0250
98.6675,89.0250
98.6091,89.0134
98.5597,88.9803
98.5266,88.9309
98.5150,88.8725
Z" /> 
<path style="fill:#000000; fill-opacity:1.0000; stroke:none;fill-rule:evenodd;"
d="M 114.1375,83.6250
114.1185,83.7207
114.0643,83.8018
113.9832,83.8560
113.8875,83.8750
112.3125,83.8750
112.2168,83.8560
112.1357,83.8018
112.0815,83.7207
112.0625,83.6250
112.0625,81.7750
112.0815,81.6793
112.1357,81.5982
112.2168,81.5440
112.3125,81.5250
113.8875,81.5250
113.9832,81.5440
114.0643,81.5982
114.1185,81.6793
114.1375,81.7750
Z" /> 
<path style="fill:#000000; fill-opacity:1.0000; stroke:none;fill-rule:evenodd;"
d="M 109.2125,83.6250
109.1935,83.7207
109.1393,83.8018
109.0582,83.8560
108.9625,83.8750
107.3875,83.8750
107.2918,83.8560
107.2107,83.8018
107.1565,83.7207
107.1375,83.6250
107.1375,81.7750
107.1565,81.6793
107.2107,81.5982
107.2918,81.5440
107.3875,81.5250
108.9625,81.5250
109.0582,81.5440
109.1393,81.5982
109.1935,81.6793
109.2125,81.7750
Z" /> 
<path style="fill:#000000; fill-opacity:1.0000; stroke:none;fill-rule:evenodd;"
d="M 109.5300,124.5750
109.4439,124.5579
109.3709,124.5091
109.3221,124.4361
109.3050,124.3500
109.3050,123.9000
109.3221,123.8139
109.3709,123.7409
109.4439,123.6921
109.5300,123.6750
110.0300,123.6750
110.1161,123.6921
110.1891,123.7409
110.2379,123.8139
110.2550,123.9000
110.2550,124.3500
110.2379,124.4361
110.1891,124.5091
110.1161,124.5579
110.0300,124.5750
Z" /> 
<path style="fill:#000000; fill-opacity:1.0000; stroke:none;fill-rule:evenodd;"
d="M 109.5300,123.0250
109.4439,123.0079
109.3709,122.9591
109.3221,122.8861
109.3050,122.8000
109.3050,122.3500
109.3221,122.2639
109.3709,122.1909
109.4439,122.1421
109.5300,122.1250
110.0300,122.1250
110.1161,122.1421
110.1891,122.1909
110.2379,122.2639
110.2550,122.3500
110.2550,122.8000
110.2379,122.8861
110.1891,122.9591
110.1161,123.0079
110.0300,123.0250
Z" /> 
<path style="fill:#000000; fill-opacity:1.0000; stroke:none;fill-rule:evenodd;"
d="M 90.6750,81.1000
90.7707,81.1190
90.8518,81.1732
90.9060,81.2543
90.9250,81.3500
90.9250,81.8500
90.9060,81.9457
90.8518,82.0268
90.7707,82.0810
90.6750,82.1000
89.7250,82.1000
89.6293,82.0810
89.5482,82.0268
89.4940,81.9457
89.4750,81.8500
89.4750,81.3500
89.4940,81.2543
89.5482,81.1732
89.6293,81.1190
89.7250,81.1000
Z" /> 
<path style="fill:#000000; fill-opacity:1.0000; stroke:none;fill-rule:evenodd;"
d="M 90.6750,83.0000
90.7707,83.0190
90.8518,83.0732
90.9060,83.1543
90.9250,83.2500
90.9250,83.7500
90.9060,83.8457
90.8518,83.9268
90.7707,83.9810
90.6750,84.0000
89.7250,84.0000
89.6293,83.9810
89.5482,83.9268
89.4940,83.8457
89.4750,83.7500
89.4750,83.2500
89.4940,83.1543
89.5482,83.0732
89.6293,83.0190
89.7250,83.0000
Z" /> 
<path style="fill:#000000; fill-opacity:1.0000; stroke:none;fill-rule:evenodd;"
d="M 110.7165,108.2275
110.6281,108.2159
110.5206,108.1657
110.4368,108.0819
110.3866,107.9744
110.3750,107.8860
110.3750,107.1690
110.3866,107.0806
110.4368,106.9731
110.5206,106.8893
110.6281,106.8391
110.7165,106.8275
111.4335,106.8275
111.5219,106.8391
111.6294,106.8893
111.7132,106.9731
111.7634,107.0806
111.7750,107.1690
111.7750,107.8860
111.7634,107.9744
111.7132,108.0819
111.6294,108.1657
111.5219,108.2159
111.4335,108.2275
Z" /> 
<path style="fill:#000000; fill-opacity:1.0000; stroke:none;fill-rule:evenodd;"
d="M 110.6250,106.2150
110.5293,106.1960
110.4482,106.1418
110.3940,106.0607
110.3750,105.9650
110.3750,105.4400
110.3940,105.3443
110.4482,105.2632
110.5293,105.2090
110.6250,105.1900
111.5250,105.1900
111.6207,105.2090
111.7018,105.2632
111.7560,105.3443
111.7750,105.4400
111.7750,105.9650
111.7560,106.0607
111.7018,106.1418
111.6207,106.1960
111.5250,106.2150
Z" /> 
<path style="fill:#000000; fill-opacity:1.0000; stroke:none;fill-rule:evenodd;"
d="M 112.3875,107.0775
112.4065,106.9818
112.4607,106.9007
112.5418,106.8465
112.6375,106.8275
113.1625,106.8275
113.2582,106.8465
113.3393,106.9007
113.3935,106.9818
113.4125,107.0775
113.4125,107.9775
113.3935,108.0732
113.3393,108.1543
113.2582,108.2085
113.1625,108.2275
112.6375,108.2275
112.5418,108.2085
112.4607,108.1543
112.4065,108.0732
112.3875,107.9775
Z" /> 
<path style="fill:#000000; fill-opacity:1.0000; stroke:none;fill-rule:evenodd;"
d="M 123.4000,80.4750
123.3810,80.5707
123.3268,80.6518
123.2457,80.7060
123.1500,80.7250
122.6500,80.7250
122.5543,80.7060
122.4732,80.6518
122.4190,80.5707
122.4000,80.4750
122.4000,79.5250
122.4190,79.4293
122.4732,79.3482
122.5543,79.2940
122.6500,79.2750
123.1500,79.2750
123.2457,79.2940
123.3268,79.3482
123.3810,79.4293
123.4000,79.5250
Z" /> 
<path style="fill:#000000; fill-opacity:1.0000; stroke:none;fill-rule:evenodd;"
d="M 121.5000,80.4750
121.4810,80.5707
121.4268,80.6518
121.3457,80.7060
121.2500,80.7250
120.7500,80.7250
120.6543,80.7060
120.5732,80.6518
120.5190,80.5707
120.5000,80.4750
120.5000,79.5250
120.5190,79.4293
120.5732,79.3482
120.6543,79.2940
120.7500,79.2750
121.2500,79.2750
121.3457,79.2940
121.4268,79.3482
121.4810,79.4293
121.5000,79.5250
Z" /> 
<path style="fill:#000000; fill-opacity:1.0000; stroke:none;fill-rule:evenodd;"
d="M 123.3125,76.9500
123.2935,77.0457
123.2393,77.1268
123.1582,77.1810
123.0625,77.2000
122.5375,77.2000
122.4418,77.1810
122.3607,77.1268
122.3065,77.0457
122.2875,76.9500
122.2875,76.0500
122.3065,75.9543
122.3607,75.8732
122.4418,75.8190
122.5375,75.8000
123.0625,75.8000
123.1582,75.8190
123.2393,75.8732
123.2935,75.9543
123.3125,76.0500
Z" /> 
<path style="fill:#000000; fill-opacity:1.0000; stroke:none;fill-rule:evenodd;"
d="M 121.4875,76.9500
121.4685,77.0457
121.4143,77.1268
121.3332,77.1810
121.2375,77.2000
120.7125,77.2000
120.6168,77.1810
120.5357,77.1268
120.4815,77.0457
120.4625,76.9500
120.4625,76.0500
120.4815,75.9543
120.5357,75.8732
120.6168,75.8190
120.7125,75.8000
121.2375,75.8000
121.3332,75.8190
121.4143,75.8732
121.4685,75.9543
121.4875,76.0500
Z" /> 
<path style="fill:#000000; fill-opacity:1.0000; stroke:none;fill-rule:evenodd;"
d="M 109.9578,129.2794
109.6022,129.2794
109.6022,128.7206
109.9578,128.7206
Z" /> 
<path style="fill:#000000; fill-opacity:1.0000; stroke:none;fill-rule:evenodd;"
d="M 109.4117,127.3490
109.4117,128.5936
108.8529,128.5936
108.8529,127.3490
Z" /> 
<path style="fill:#000000; fill-opacity:1.0000; stroke:none;fill-rule:evenodd;"
d="M 109.9578,127.2220
109.6022,127.2220
109.6022,126.6632
109.9578,126.6632
Z" /> 
<path style="fill:#000000; fill-opacity:1.0000; stroke:none;fill-rule:evenodd;"
d="M 110.7071,127.3490
110.7071,128.5936
110.1483,128.5936
110.1483,127.3490
Z" /> 
<path style="fill:#000000; fill-opacity:1.0000; stroke:none;fill-rule:evenodd;"
d="M 62.0618,114.5737
62.0674,114.5455
62.0834,114.5216
62.1073,114.5056
62.1355,114.5000
63.1980,114.5000
63.2263,114.5056
63.2502,114.5216
63.2662,114.5455
63.2718,114.5737
63.2718,115.0162
63.2662,115.0445
63.2502,115.0684
63.2263,115.0844
63.1980,115.0900
62.1355,115.0900
62.1073,115.0844
62.0834,115.0684
62.0674,115.0445
62.0618,115.0162
Z" /> 
<path style="fill:#000000; fill-opacity:1.0000; stroke:none;fill-rule:evenodd;"
d="M 62.0618,115.5237
62.0674,115.4955
62.0834,115.4716
62.1073,115.4556
62.1355,115.4500
63.1980,115.4500
63.2263,115.4556
63.2502,115.4716
63.2662,115.4955
63.2718,115.5237
63.2718,115.9662
63.2662,115.9945
63.2502,116.0184
63.2263,116.0344
63.1980,116.0400
62.1355,116.0400
62.1073,116.0344
62.0834,116.0184
62.0674,115.9945
62.0618,115.9662
Z" /> 
<path style="fill:#000000; fill-opacity:1.0000; stroke:none;fill-rule:evenodd;"
d="M 62.0618,116.4737
62.0674,116.4455
62.0834,116.4216
62.1073,116.4056
62.1355,116.4000
63.1980,116.4000
63.2263,116.4056
63.2502,116.4216
63.2662,116.4455
63.2718,116.4737
63.2718,116.9162
63.2662,116.9445
63.2502,116.9684
63.2263,116.9844
63.1980,116.9900
62.1355,116.9900
62.1073,116.9844
62.0834,116.9684
62.0674,116.9445
62.0618,116.9162
Z" /> 
<path style="fill:#000000; fill-opacity:1.0000; stroke:none;fill-rule:evenodd;"
d="M 64.5718,116.4737
64.5774,116.4455
64.5934,116.4216
64.6173,116.4056
64.6456,116.4000
65.7081,116.4000
65.7363,116.4056
65.7602,116.4216
65.7762,116.4455
65.7818,116.4737
65.7818,116.9162
65.7762,116.9445
65.7602,116.9684
65.7363,116.9844
65.7081,116.9900
64.6456,116.9900
64.6173,116.9844
64.5934,116.9684
64.5774,116.9445
64.5718,116.9162
Z" /> 
<path style="fill:#000000; fill-opacity:1.0000; stroke:none;fill-rule:evenodd;"
d="M 64.5718,114.5737
64.5774,114.5455
64.5934,114.5216
64.6173,114.5056
64.6456,114.5000
65.7081,114.5000
65.7363,114.5056
65.7602,114.5216
65.7762,114.5455
65.7818,114.5737
65.7818,115.0162
65.7762,115.0445
65.7602,115.0684
65.7363,115.0844
65.7081,115.0900
64.6456,115.0900
64.6173,115.0844
64.5934,115.0684
64.5774,115.0445
64.5718,115.0162
Z" /> 
<path style="fill:#000000; fill-opacity:1.0000; stroke:none;fill-rule:evenodd;"
d="M 87.4000,103.8500
87.4190,103.7543
87.4732,103.6732
87.5543,103.6190
87.6500,103.6000
88.1500,103.6000
88.2457,103.6190
88.3268,103.6732
88.3810,103.7543
88.4000,103.8500
88.4000,104.8000
88.3810,104.8957
88.3268,104.9768
88.2457,105.0310
88.1500,105.0500
87.6500,105.0500
87.5543,105.0310
87.4732,104.9768
87.4190,104.8957
87.4000,104.8000
Z" /> 
<path style="fill:#000000; fill-opacity:1.0000; stroke:none;fill-rule:evenodd;"
d="M 89.3000,103.8500
89.3190,103.7543
89.3732,103.6732
89.4543,103.6190
89.5500,103.6000
90.0500,103.6000
90.1457,103.6190
90.2268,103.6732
90.2810,103.7543
90.3000,103.8500
90.3000,104.8000
90.2810,104.8957
90.2268,104.9768
90.1457,105.0310
90.0500,105.0500
89.5500,105.0500
89.4543,105.0310
89.3732,104.9768
89.3190,104.8957
89.3000,104.8000
Z" /> 
<path style="fill:#000000; fill-opacity:1.0000; stroke:none;fill-rule:evenodd;"
d="M 135.8507,86.7274
135.2967,86.7274
135.2967,86.4726
135.8507,86.4726
Z" /> 
<path style="fill:#000000; fill-opacity:1.0000; stroke:none;fill-rule:evenodd;"
d="M 137.2227,86.9683
137.2227,87.5223
135.9773,87.5223
135.9773,86.9683
Z" /> 
<path style="fill:#000000; fill-opacity:1.0000; stroke:none;fill-rule:evenodd;"
d="M 137.9033,86.7274
137.3493,86.7274
137.3493,86.4726
137.9033,86.4726
Z" /> 
<path style="fill:#000000; fill-opacity:1.0000; stroke:none;fill-rule:evenodd;"
d="M 137.2227,85.6777
137.2227,86.2317
135.9773,86.2317
135.9773,85.6777
Z" /> 
<path style="fill:#000000; fill-opacity:1.0000; stroke:none;fill-rule:evenodd;"
d="M 81.7218,92.0200
81.7218,91.4400
82.2218,91.4400
82.2218,92.0200
Z" /> 
<path style="fill:#000000; fill-opacity:1.0000; stroke:none;fill-rule:evenodd;"
d="M 83.5218,92.0200
82.7218,92.0200
82.7218,91.4400
83.5218,91.4400
Z" /> 
<path style="fill:#000000; fill-opacity:1.0000; stroke:none;fill-rule:evenodd;"
d="M 83.0218,90.0000
83.0218,89.4200
83.5218,89.4200
83.5218,90.0000
Z" /> 
<path style="fill:#000000; fill-opacity:1.0000; stroke:none;fill-rule:evenodd;"
d="M 81.7218,90.0000
81.7218,89.4200
82.2218,89.4200
82.2218,90.0000
Z" /> 
<path style="fill:#000000; fill-opacity:1.0000; stroke:none;fill-rule:evenodd;"
d="M 96.6125,104.0687
96.6292,103.9850
96.6766,103.9141
96.7475,103.8667
96.8312,103.8500
97.2687,103.8500
97.3525,103.8667
97.4234,103.9141
97.4708,103.9850
97.4875,104.0687
97.4875,104.5812
97.4708,104.6650
97.4234,104.7359
97.3525,104.7833
97.2687,104.8000
96.8312,104.8000
96.7475,104.7833
96.6766,104.7359
96.6292,104.6650
96.6125,104.5812
Z" /> 
<path style="fill:#000000; fill-opacity:1.0000; stroke:none;fill-rule:evenodd;"
d="M 98.1875,104.0687
98.2042,103.9850
98.2516,103.9141
98.3225,103.8667
98.4062,103.8500
98.8438,103.8500
98.9275,103.8667
98.9984,103.9141
99.0458,103.9850
99.0625,104.0687
99.0625,104.5812
99.0458,104.6650
98.9984,104.7359
98.9275,104.7833
98.8438,104.8000
98.4062,104.8000
98.3225,104.7833
98.2516,104.7359
98.2042,104.6650
98.1875,104.5812
Z" /> 
<path style="fill:#000000; fill-opacity:1.0000; stroke:none;fill-rule:evenodd;"
d="M 104.5375,77.6635
104.0625,77.6635
104.0625,77.2885
104.5375,77.2885
Z" /> 
<path style="fill:#000000; fill-opacity:1.0000; stroke:none;fill-rule:evenodd;"
d="M 104.5375,76.9875
104.0625,76.9875
104.0625,76.6125
104.5375,76.6125
Z" /> 
<path style="fill:#000000; fill-opacity:1.0000; stroke:none;fill-rule:evenodd;"
d="M 103.5635,76.9875
103.0885,76.9875
103.0885,76.6125
103.5635,76.6125
Z" /> 
<path style="fill:#000000; fill-opacity:1.0000; stroke:none;fill-rule:evenodd;"
d="M 103.5635,77.6635
103.0885,77.6635
103.0885,77.2885
103.5635,77.2885
Z" /> 
<path style="fill:#000000; fill-opacity:1.0000; stroke:none;fill-rule:evenodd;"
d="M 81.8625,108.1500
81.8815,108.0543
81.9357,107.9732
82.0168,107.9190
82.1125,107.9000
82.6375,107.9000
82.7332,107.9190
82.8143,107.9732
82.8685,108.0543
82.8875,108.1500
82.8875,109.0500
82.8685,109.1457
82.8143,109.2268
82.7332,109.2810
82.6375,109.3000
82.1125,109.3000
82.0168,109.2810
81.9357,109.2268
81.8815,109.1457
81.8625,109.0500
Z" /> 
<path style="fill:#000000; fill-opacity:1.0000; stroke:none;fill-rule:evenodd;"
d="M 83.6875,108.1500
83.7065,108.0543
83.7607,107.9732
83.8418,107.9190
83.9375,107.9000
84.4625,107.9000
84.5582,107.9190
84.6393,107.9732
84.6935,108.0543
84.7125,108.1500
84.7125,109.0500
84.6935,109.1457
84.6393,109.2268
84.5582,109.2810
84.4625,109.3000
83.9375,109.3000
83.8418,109.2810
83.7607,109.2268
83.7065,109.1457
83.6875,109.0500
Z" /> 
<path style="fill:#000000; fill-opacity:1.0000; stroke:none;fill-rule:evenodd;"
d="M 102.5760,70.9250
102.5916,70.8180
102.6458,70.7071
102.7331,70.6198
102.8440,70.5656
102.9510,70.5500
103.7010,70.5500
103.8080,70.5656
103.9189,70.6198
104.0062,70.7071
104.0604,70.8180
104.0760,70.9250
104.0760,74.0750
104.0604,74.1820
104.0062,74.2929
103.9189,74.3802
103.8080,74.4344
103.7010,74.4500
102.9510,74.4500
102.8440,74.4344
102.7331,74.3802
102.6458,74.2929
102.5916,74.1820
102.5760,74.0750
Z" /> 
<path style="fill:#000000; fill-opacity:1.0000; stroke:none;fill-rule:evenodd;"
d="M 99.8010,70.9250
99.8166,70.8180
99.8708,70.7071
99.9581,70.6198
100.0690,70.5656
100.1760,70.5500
100.9260,70.5500
101.0330,70.5656
101.1439,70.6198
101.2312,70.7071
101.2854,70.8180
101.3010,70.9250
101.3010,74.0750
101.2854,74.1820
101.2312,74.2929
101.1439,74.3802
101.0330,74.4344
100.9260,74.4500
100.1760,74.4500
100.0690,74.4344
99.9581,74.3802
99.8708,74.2929
99.8166,74.1820
99.8010,74.0750
Z" /> 
<path style="fill:#000000; fill-opacity:1.0000; stroke:none;fill-rule:evenodd;"
d="M 105.3510,70.9250
105.3666,70.8180
105.4208,70.7071
105.5081,70.6198
105.6190,70.5656
105.7260,70.5500
106.4760,70.5500
106.5830,70.5656
106.6939,70.6198
106.7812,70.7071
106.8354,70.8180
106.8510,70.9250
106.8510,74.0750
106.8354,74.1820
106.7812,74.2929
106.6939,74.3802
106.5830,74.4344
106.4760,74.4500
105.7260,74.4500
105.6190,74.4344
105.5081,74.3802
105.4208,74.2929
105.3666,74.1820
105.3510,74.0750
Z" /> 
<path style="fill:#000000; fill-opacity:1.0000; stroke:none;fill-rule:evenodd;"
d="M 83.7500,104.8375
83.6543,104.8185
83.5732,104.7643
83.5190,104.6832
83.5000,104.5875
83.5000,104.0625
83.5190,103.9668
83.5732,103.8857
83.6543,103.8315
83.7500,103.8125
84.6500,103.8125
84.7457,103.8315
84.8268,103.8857
84.8810,103.9668
84.9000,104.0625
84.9000,104.5875
84.8810,104.6832
84.8268,104.7643
84.7457,104.8185
84.6500,104.8375
Z" /> 
<path style="fill:#000000; fill-opacity:1.0000; stroke:none;fill-rule:evenodd;"
d="M 83.7500,103.0125
83.6543,102.9935
83.5732,102.9393
83.5190,102.8582
83.5000,102.7625
83.5000,102.2375
83.5190,102.1418
83.5732,102.0607
83.6543,102.0065
83.7500,101.9875
84.6500,101.9875
84.7457,102.0065
84.8268,102.0607
84.8810,102.1418
84.9000,102.2375
84.9000,102.7625
84.8810,102.8582
84.8268,102.9393
84.7457,102.9935
84.6500,103.0125
Z" /> 
<path style="fill:#000000; fill-opacity:1.0000; stroke:none;fill-rule:evenodd;"
d="M 135.9000,90.4750
135.8810,90.5707
135.8268,90.6518
135.7457,90.7060
135.6500,90.7250
135.1500,90.7250
135.0543,90.7060
134.9732,90.6518
134.9190,90.5707
134.9000,90.4750
134.9000,89.5250
134.9190,89.4293
134.9732,89.3482
135.0543,89.2940
135.1500,89.2750
135.6500,89.2750
135.7457,89.2940
135.8268,89.3482
135.8810,89.4293
135.9000,89.5250
Z" /> 
<path style="fill:#000000; fill-opacity:1.0000; stroke:none;fill-rule:evenodd;"
d="M 134.0000,90.4750
133.9810,90.5707
133.9268,90.6518
133.8457,90.7060
133.7500,90.7250
133.2500,90.7250
133.1543,90.7060
133.0732,90.6518
133.0190,90.5707
133.0000,90.4750
133.0000,89.5250
133.0190,89.4293
133.0732,89.3482
133.1543,89.2940
133.2500,89.2750
133.7500,89.2750
133.8457,89.2940
133.9268,89.3482
133.9810,89.4293
134.0000,89.5250
Z" /> 
<path style="fill:#000000; fill-opacity:1.0000; stroke:none;fill-rule:evenodd;"
d="M 139.6500,70.9250
139.6656,70.8180
139.7198,70.7071
139.8071,70.6198
139.9180,70.5656
140.0250,70.5500
140.7750,70.5500
140.8820,70.5656
140.9929,70.6198
141.0802,70.7071
141.1344,70.8180
141.1500,70.9250
141.1500,74.0750
141.1344,74.1820
141.0802,74.2929
140.9929,74.3802
140.8820,74.4344
140.7750,74.4500
140.0250,74.4500
139.9180,74.4344
139.8071,74.3802
139.7198,74.2929
139.6656,74.1820
139.6500,74.0750
Z" /> 
<path style="fill:#000000; fill-opacity:1.0000; stroke:none;fill-rule:evenodd;"
d="M 136.8750,70.9250
136.8906,70.8180
136.9448,70.7071
137.0321,70.6198
137.1430,70.5656
137.2500,70.5500
138.0000,70.5500
138.1070,70.5656
138.2179,70.6198
138.3052,70.7071
138.3594,70.8180
138.3750,70.9250
138.3750,74.0750
138.3594,74.1820
138.3052,74.2929
138.2179,74.3802
138.1070,74.4344
138.0000,74.4500
137.2500,74.4500
137.1430,74.4344
137.0321,74.3802
136.9448,74.2929
136.8906,74.1820
136.8750,74.0750
Z" /> 
<path style="fill:#000000; fill-opacity:1.0000; stroke:none;fill-rule:evenodd;"
d="M 142.4250,70.9250
142.4406,70.8180
142.4948,70.7071
142.5821,70.6198
142.6930,70.5656
142.8000,70.5500
143.5500,70.5500
143.6570,70.5656
143.7679,70.6198
143.8552,70.7071
143.9094,70.8180
143.9250,70.9250
143.9250,74.0750
143.9094,74.1820
143.8552,74.2929
143.7679,74.3802
143.6570,74.4344
143.5500,74.4500
142.8000,74.4500
142.6930,74.4344
142.5821,74.3802
142.4948,74.2929
142.4406,74.1820
142.4250,74.0750
Z" /> 
<path style="fill:#000000; fill-opacity:1.0000; stroke:none;fill-rule:evenodd;"
d="M 141.6115,77.9875
141.1365,77.9875
141.1365,77.6125
141.6115,77.6125
Z" /> 
<path style="fill:#000000; fill-opacity:1.0000; stroke:none;fill-rule:evenodd;"
d="M 141.6115,77.3115
141.1365,77.3115
141.1365,76.9365
141.6115,76.9365
Z" /> 
<path style="fill:#000000; fill-opacity:1.0000; stroke:none;fill-rule:evenodd;"
d="M 140.6375,77.3115
140.1625,77.3115
140.1625,76.9365
140.6375,76.9365
Z" /> 
<path style="fill:#000000; fill-opacity:1.0000; stroke:none;fill-rule:evenodd;"
d="M 140.6375,77.9875
140.1625,77.9875
140.1625,77.6125
140.6375,77.6125
Z" /> 
<path style="fill:#000000; fill-opacity:1.0000; stroke:none;fill-rule:evenodd;"
d="M 101.1500,106.5000
101.0639,106.4829
100.9909,106.4341
100.9421,106.3611
100.9250,106.2750
100.9250,105.8250
100.9421,105.7389
100.9909,105.6659
101.0639,105.6171
101.1500,105.6000
101.6500,105.6000
101.7361,105.6171
101.8091,105.6659
101.8579,105.7389
101.8750,105.8250
101.8750,106.2750
101.8579,106.3611
101.8091,106.4341
101.7361,106.4829
101.6500,106.5000
Z" /> 
<path style="fill:#000000; fill-opacity:1.0000; stroke:none;fill-rule:evenodd;"
d="M 101.1500,104.9500
101.0639,104.9329
100.9909,104.8841
100.9421,104.8111
100.9250,104.7250
100.9250,104.2750
100.9421,104.1889
100.9909,104.1159
101.0639,104.0671
101.1500,104.0500
101.6500,104.0500
101.7361,104.0671
101.8091,104.1159
101.8579,104.1889
101.8750,104.2750
101.8750,104.7250
101.8579,104.8111
101.8091,104.8841
101.7361,104.9329
101.6500,104.9500
Z" /> 
<path style="fill:#000000; fill-opacity:1.0000; stroke:none;fill-rule:evenodd;"
d="M 120.3375,114.8500
120.3185,114.9457
120.2643,115.0268
120.1832,115.0810
120.0875,115.1000
119.5625,115.1000
119.4668,115.0810
119.3857,115.0268
119.3315,114.9457
119.3125,114.8500
119.3125,113.9500
119.3315,113.8543
119.3857,113.7732
119.4668,113.7190
119.5625,113.7000
120.0875,113.7000
120.1832,113.7190
120.2643,113.7732
120.3185,113.8543
120.3375,113.9500
Z" /> 
<path style="fill:#000000; fill-opacity:1.0000; stroke:none;fill-rule:evenodd;"
d="M 118.5125,114.8500
118.4935,114.9457
118.4393,115.0268
118.3582,115.0810
118.2625,115.1000
117.7375,115.1000
117.6418,115.0810
117.5607,115.0268
117.5065,114.9457
117.4875,114.8500
117.4875,113.9500
117.5065,113.8543
117.5607,113.7732
117.6418,113.7190
117.7375,113.7000
118.2625,113.7000
118.3582,113.7190
118.4393,113.7732
118.4935,113.8543
118.5125,113.9500
Z" /> 
<path style="fill:#000000; fill-opacity:1.0000; stroke:none;fill-rule:evenodd;"
d="M 111.0805,89.9315
111.0805,89.4565
111.4555,89.4565
111.4555,89.9315
Z" /> 
<path style="fill:#000000; fill-opacity:1.0000; stroke:none;fill-rule:evenodd;"
d="M 111.7565,89.9315
111.7565,89.4565
112.1315,89.4565
112.1315,89.9315
Z" /> 
<path style="fill:#000000; fill-opacity:1.0000; stroke:none;fill-rule:evenodd;"
d="M 111.7565,88.9575
111.7565,88.4825
112.1315,88.4825
112.1315,88.9575
Z" /> 
<path style="fill:#000000; fill-opacity:1.0000; stroke:none;fill-rule:evenodd;"
d="M 111.0805,88.9575
111.0805,88.4825
111.4555,88.4825
111.4555,88.9575
Z" /> 
<path style="fill:#000000; fill-opacity:1.0000; stroke:none;fill-rule:evenodd;"
d="M 147.3750,85.8500
147.4820,85.8656
147.5929,85.9198
147.6802,86.0071
147.7344,86.1180
147.7500,86.2250
147.7500,86.9750
147.7344,87.0820
147.6802,87.1929
147.5929,87.2802
147.4820,87.3344
147.3750,87.3500
144.2250,87.3500
144.1180,87.3344
144.0071,87.2802
143.9198,87.1929
143.8656,87.0820
143.8500,86.9750
143.8500,86.2250
143.8656,86.1180
143.9198,86.0071
144.0071,85.9198
144.1180,85.8656
144.2250,85.8500
Z" /> 
<path style="fill:#000000; fill-opacity:1.0000; stroke:none;fill-rule:evenodd;"
d="M 147.3750,83.0750
147.4820,83.0906
147.5929,83.1448
147.6802,83.2321
147.7344,83.3430
147.7500,83.4500
147.7500,84.2000
147.7344,84.3070
147.6802,84.4179
147.5929,84.5052
147.4820,84.5594
147.3750,84.5750
144.2250,84.5750
144.1180,84.5594
144.0071,84.5052
143.9198,84.4179
143.8656,84.3070
143.8500,84.2000
143.8500,83.4500
143.8656,83.3430
143.9198,83.2321
144.0071,83.1448
144.1180,83.0906
144.2250,83.0750
Z" /> 
<path style="fill:#000000; fill-opacity:1.0000; stroke:none;fill-rule:evenodd;"
d="M 147.3750,88.6250
147.4820,88.6406
147.5929,88.6948
147.6802,88.7821
147.7344,88.8930
147.7500,89.0000
147.7500,89.7500
147.7344,89.8570
147.6802,89.9679
147.5929,90.0552
147.4820,90.1094
147.3750,90.1250
144.2250,90.1250
144.1180,90.1094
144.0071,90.0552
143.9198,89.9679
143.8656,89.8570
143.8500,89.7500
143.8500,89.0000
143.8656,88.8930
143.9198,88.7821
144.0071,88.6948
144.1180,88.6406
144.2250,88.6250
Z" /> 
<path style="fill:#000000; fill-opacity:1.0000; stroke:none;fill-rule:evenodd;"
d="M 76.8968,91.4800
76.9139,91.3939
76.9627,91.3209
77.0357,91.2721
77.1218,91.2550
77.5718,91.2550
77.6579,91.2721
77.7309,91.3209
77.7797,91.3939
77.7968,91.4800
77.7968,91.9800
77.7797,92.0661
77.7309,92.1391
77.6579,92.1879
77.5718,92.2050
77.1218,92.2050
77.0357,92.1879
76.9627,92.1391
76.9139,92.0661
76.8968,91.9800
Z" /> 
<path style="fill:#000000; fill-opacity:1.0000; stroke:none;fill-rule:evenodd;"
d="M 78.4468,91.4800
78.4639,91.3939
78.5127,91.3209
78.5857,91.2721
78.6718,91.2550
79.1218,91.2550
79.2079,91.2721
79.2809,91.3209
79.3297,91.3939
79.3468,91.4800
79.3468,91.9800
79.3297,92.0661
79.2809,92.1391
79.2079,92.1879
79.1218,92.2050
78.6718,92.2050
78.5857,92.1879
78.5127,92.1391
78.4639,92.0661
78.4468,91.9800
Z" /> 
<path style="fill:#000000; fill-opacity:1.0000; stroke:none;fill-rule:evenodd;"
d="M 93.1500,106.5000
93.0639,106.4829
92.9909,106.4341
92.9421,106.3611
92.9250,106.2750
92.9250,105.8250
92.9421,105.7389
92.9909,105.6659
93.0639,105.6171
93.1500,105.6000
93.6500,105.6000
93.7361,105.6171
93.8091,105.6659
93.8579,105.7389
93.8750,105.8250
93.8750,106.2750
93.8579,106.3611
93.8091,106.4341
93.7361,106.4829
93.6500,106.5000
Z" /> 
<path style="fill:#000000; fill-opacity:1.0000; stroke:none;fill-rule:evenodd;"
d="M 93.1500,104.9500
93.0639,104.9329
92.9909,104.8841
92.9421,104.8111
92.9250,104.7250
92.9250,104.2750
92.9421,104.1889
92.9909,104.1159
93.0639,104.0671
93.1500,104.0500
93.6500,104.0500
93.7361,104.0671
93.8091,104.1159
93.8579,104.1889
93.8750,104.2750
93.8750,104.7250
93.8579,104.8111
93.8091,104.8841
93.7361,104.9329
93.6500,104.9500
Z" /> 
<path style="fill:#000000; fill-opacity:1.0000; stroke:none;fill-rule:evenodd;"
d="M 109.5300,119.6900
109.5300,119.1100
110.0300,119.1100
110.0300,119.6900
Z" /> 
<path style="fill:#000000; fill-opacity:1.0000; stroke:none;fill-rule:evenodd;"
d="M 111.3300,119.6900
110.5300,119.6900
110.5300,119.1100
111.3300,119.1100
Z" /> 
<path style="fill:#000000; fill-opacity:1.0000; stroke:none;fill-rule:evenodd;"
d="M 110.8300,117.6700
110.8300,117.0900
111.3300,117.0900
111.3300,117.6700
Z" /> 
<path style="fill:#000000; fill-opacity:1.0000; stroke:none;fill-rule:evenodd;"
d="M 109.5300,117.6700
109.5300,117.0900
110.0300,117.0900
110.0300,117.6700
Z" /> 
<path style="fill:#000000; fill-opacity:1.0000; stroke:none;fill-rule:evenodd;"
d="M 124.6975,84.6800
124.0225,84.6800
124.0225,84.2800
124.6975,84.2800
Z" /> 
<path style="fill:#000000; fill-opacity:1.0000; stroke:none;fill-rule:evenodd;"
d="M 124.6975,85.7400
124.0225,85.7400
124.0225,85.3400
124.6975,85.3400
Z" /> 
<path style="fill:#000000; fill-opacity:1.0000; stroke:none;fill-rule:evenodd;"
d="M 124.6975,86.8000
124.0225,86.8000
124.0225,86.4000
124.6975,86.4000
Z" /> 
<path style="fill:#000000; fill-opacity:1.0000; stroke:none;fill-rule:evenodd;"
d="M 124.6975,87.8600
124.0225,87.8600
124.0225,87.4600
124.6975,87.4600
Z" /> 
<path style="fill:#000000; fill-opacity:1.0000; stroke:none;fill-rule:evenodd;"
d="M 124.6975,88.9200
124.0225,88.9200
124.0225,88.5200
124.6975,88.5200
Z" /> 
<path style="fill:#000000; fill-opacity:1.0000; stroke:none;fill-rule:evenodd;"
d="M 124.6975,89.9800
124.0225,89.9800
124.0225,89.5800
124.6975,89.5800
Z" /> 
<path style="fill:#000000; fill-opacity:1.0000; stroke:none;fill-rule:evenodd;"
d="M 124.6975,91.0400
124.0225,91.0400
124.0225,90.6400
124.6975,90.6400
Z" /> 
<path style="fill:#000000; fill-opacity:1.0000; stroke:none;fill-rule:evenodd;"
d="M 131.3715,91.0400
130.6965,91.0400
130.6965,90.6400
131.3715,90.6400
Z" /> 
<path style="fill:#000000; fill-opacity:1.0000; stroke:none;fill-rule:evenodd;"
d="M 131.3715,89.9800
130.6965,89.9800
130.6965,89.5800
131.3715,89.5800
Z" /> 
<path style="fill:#000000; fill-opacity:1.0000; stroke:none;fill-rule:evenodd;"
d="M 131.3715,88.9200
130.6965,88.9200
130.6965,88.5200
131.3715,88.5200
Z" /> 
<path style="fill:#000000; fill-opacity:1.0000; stroke:none;fill-rule:evenodd;"
d="M 131.3715,87.8600
130.6965,87.8600
130.6965,87.4600
131.3715,87.4600
Z" /> 
<path style="fill:#000000; fill-opacity:1.0000; stroke:none;fill-rule:evenodd;"
d="M 131.3715,86.8000
130.6965,86.8000
130.6965,86.4000
131.3715,86.4000
Z" /> 
<path style="fill:#000000; fill-opacity:1.0000; stroke:none;fill-rule:evenodd;"
d="M 131.3715,85.7400
130.6965,85.7400
130.6965,85.3400
131.3715,85.3400
Z" /> 
<path style="fill:#000000; fill-opacity:1.0000; stroke:none;fill-rule:evenodd;"
d="M 131.3715,84.6800
130.6965,84.6800
130.6965,84.2800
131.3715,84.2800
Z" /> 
<path style="fill:#000000; fill-opacity:1.0000; stroke:none;fill-rule:evenodd;"
d="M 130.4220,91.0595
124.9720,91.0595
124.9720,88.1045
130.4220,88.1045
Z" /> 
<path style="fill:#000000; fill-opacity:1.0000; stroke:none;fill-rule:evenodd;"
d="M 130.4220,87.2145
124.9720,87.2145
124.9720,84.2595
130.4220,84.2595
Z" /> 
<path style="fill:#000000; fill-opacity:1.0000; stroke:none;fill-rule:evenodd;"
d="M 129.1470,88.1050
126.2470,88.1050
126.2470,87.2150
129.1470,87.2150
Z" /> 
<path style="fill:#000000; fill-opacity:1.0000; stroke:none;fill-rule:evenodd;"
d="M 110.8300,112.8750
110.7439,112.8579
110.6709,112.8091
110.6221,112.7361
110.6050,112.6500
110.6050,112.2000
110.6221,112.1139
110.6709,112.0409
110.7439,111.9921
110.8300,111.9750
111.3300,111.9750
111.4161,111.9921
111.4891,112.0409
111.5379,112.1139
111.5550,112.2000
111.5550,112.6500
111.5379,112.7361
111.4891,112.8091
111.4161,112.8579
111.3300,112.8750
Z" /> 
<path style="fill:#000000; fill-opacity:1.0000; stroke:none;fill-rule:evenodd;"
d="M 110.8300,111.3250
110.7439,111.3079
110.6709,111.2591
110.6221,111.1861
110.6050,111.1000
110.6050,110.6500
110.6221,110.5639
110.6709,110.4909
110.7439,110.4421
110.8300,110.4250
111.3300,110.4250
111.4161,110.4421
111.4891,110.4909
111.5379,110.5639
111.5550,110.6500
111.5550,111.1000
111.5379,111.1861
111.4891,111.2591
111.4161,111.3079
111.3300,111.3250
Z" /> 
<path style="fill:#000000; fill-opacity:1.0000; stroke:none;fill-rule:evenodd;"
d="M 94.9750,81.1000
95.0707,81.1190
95.1518,81.1732
95.2060,81.2543
95.2250,81.3500
95.2250,81.8500
95.2060,81.9457
95.1518,82.0268
95.0707,82.0810
94.9750,82.1000
94.0250,82.1000
93.9293,82.0810
93.8482,82.0268
93.7940,81.9457
93.7750,81.8500
93.7750,81.3500
93.7940,81.2543
93.8482,81.1732
93.9293,81.1190
94.0250,81.1000
Z" /> 
<path style="fill:#000000; fill-opacity:1.0000; stroke:none;fill-rule:evenodd;"
d="M 94.9750,83.0000
95.0707,83.0190
95.1518,83.0732
95.2060,83.1543
95.2250,83.2500
95.2250,83.7500
95.2060,83.8457
95.1518,83.9268
95.0707,83.9810
94.9750,84.0000
94.0250,84.0000
93.9293,83.9810
93.8482,83.9268
93.7940,83.8457
93.7750,83.7500
93.7750,83.2500
93.7940,83.1543
93.8482,83.0732
93.9293,83.0190
94.0250,83.0000
Z" /> 
<path style="fill:#000000; fill-opacity:1.0000; stroke:none;fill-rule:evenodd;"
d="M 120.5000,119.0750
120.4810,119.1707
120.4268,119.2518
120.3457,119.3060
120.2500,119.3250
119.7500,119.3250
119.6543,119.3060
119.5732,119.2518
119.5190,119.1707
119.5000,119.0750
119.5000,118.1250
119.5190,118.0293
119.5732,117.9482
119.6543,117.8940
119.7500,117.8750
120.2500,117.8750
120.3457,117.8940
120.4268,117.9482
120.4810,118.0293
120.5000,118.1250
Z" /> 
<path style="fill:#000000; fill-opacity:1.0000; stroke:none;fill-rule:evenodd;"
d="M 118.6000,119.0750
118.5810,119.1707
118.5268,119.2518
118.4457,119.3060
118.3500,119.3250
117.8500,119.3250
117.7543,119.3060
117.6732,119.2518
117.6190,119.1707
117.6000,119.0750
117.6000,118.1250
117.6190,118.0293
117.6732,117.9482
117.7543,117.8940
117.8500,117.8750
118.3500,117.8750
118.4457,117.8940
118.5268,117.9482
118.5810,118.0293
118.6000,118.1250
Z" /> 
<path style="fill:#000000; fill-opacity:1.0000; stroke:none;fill-rule:evenodd;"
d="M 52.8000,124.5718
54.1500,124.5718
54.1500,124.9718
52.8000,124.9718
Z" /> 
<path style="fill:#000000; fill-opacity:1.0000; stroke:none;fill-rule:evenodd;"
d="M 52.8000,125.2218
54.1500,125.2218
54.1500,125.6218
52.8000,125.6218
Z" /> 
<path style="fill:#000000; fill-opacity:1.0000; stroke:none;fill-rule:evenodd;"
d="M 52.8000,125.8718
54.1500,125.8718
54.1500,126.2718
52.8000,126.2718
Z" /> 
<path style="fill:#000000; fill-opacity:1.0000; stroke:none;fill-rule:evenodd;"
d="M 52.8000,126.5218
54.1500,126.5218
54.1500,126.9218
52.8000,126.9218
Z" /> 
<path style="fill:#000000; fill-opacity:1.0000; stroke:none;fill-rule:evenodd;"
d="M 52.8000,127.1718
54.1500,127.1718
54.1500,127.5718
52.8000,127.5718
Z" /> 
<path style="fill:#000000; fill-opacity:1.0000; stroke:none;fill-rule:evenodd;"
d="M 50.0250,126.3218
51.5750,126.3218
51.5750,127.8218
50.0250,127.8218
Z" /> 
<path style="fill:#000000; fill-opacity:1.0000; stroke:none;fill-rule:evenodd;"
d="M 50.0250,124.3218
51.5750,124.3218
51.5750,125.8218
50.0250,125.8218
Z" /> 
<path style="fill:#000000; fill-opacity:1.0000; stroke:none;fill-rule:evenodd;"
d="M 102.1500,88.2075
102.2457,88.2265
102.3268,88.2807
102.3810,88.3618
102.4000,88.4575
102.4000,88.9825
102.3810,89.0782
102.3268,89.1593
102.2457,89.2135
102.1500,89.2325
101.2500,89.2325
101.1543,89.2135
101.0732,89.1593
101.0190,89.0782
101.0000,88.9825
101.0000,88.4575
101.0190,88.3618
101.0732,88.2807
101.1543,88.2265
101.2500,88.2075
Z" /> 
<path style="fill:#000000; fill-opacity:1.0000; stroke:none;fill-rule:evenodd;"
d="M 102.1500,90.0325
102.2457,90.0515
102.3268,90.1057
102.3810,90.1868
102.4000,90.2825
102.4000,90.8075
102.3810,90.9032
102.3268,90.9843
102.2457,91.0385
102.1500,91.0575
101.2500,91.0575
101.1543,91.0385
101.0732,90.9843
101.0190,90.9032
101.0000,90.8075
101.0000,90.2825
101.0190,90.1868
101.0732,90.1057
101.1543,90.0515
101.2500,90.0325
Z" /> 
<path style="fill:#000000; fill-opacity:1.0000; stroke:none;fill-rule:evenodd;"
d="M 58.3318,90.9038
58.3363,90.8813
58.3490,90.8622
58.3681,90.8495
58.3905,90.8450
59.6930,90.8450
59.7155,90.8495
59.7346,90.8622
59.7473,90.8813
59.7518,90.9038
59.7518,91.2562
59.7473,91.2787
59.7346,91.2978
59.7155,91.3105
59.6930,91.3150
58.3905,91.3150
58.3681,91.3105
58.3490,91.2978
58.3363,91.2787
58.3318,91.2562
Z" /> 
<path style="fill:#000000; fill-opacity:1.0000; stroke:none;fill-rule:evenodd;"
d="M 58.3318,91.5537
58.3363,91.5313
58.3490,91.5122
58.3681,91.4995
58.3905,91.4950
59.6930,91.4950
59.7155,91.4995
59.7346,91.5122
59.7473,91.5313
59.7518,91.5537
59.7518,91.9062
59.7473,91.9287
59.7346,91.9478
59.7155,91.9605
59.6930,91.9650
58.3905,91.9650
58.3681,91.9605
58.3490,91.9478
58.3363,91.9287
58.3318,91.9062
Z" /> 
<path style="fill:#000000; fill-opacity:1.0000; stroke:none;fill-rule:evenodd;"
d="M 58.3318,92.2037
58.3363,92.1813
58.3490,92.1622
58.3681,92.1495
58.3905,92.1450
59.6930,92.1450
59.7155,92.1495
59.7346,92.1622
59.7473,92.1813
59.7518,92.2037
59.7518,92.5562
59.7473,92.5787
59.7346,92.5978
59.7155,92.6105
59.6930,92.6150
58.3905,92.6150
58.3681,92.6105
58.3490,92.5978
58.3363,92.5787
58.3318,92.5562
Z" /> 
<path style="fill:#000000; fill-opacity:1.0000; stroke:none;fill-rule:evenodd;"
d="M 58.3318,92.8537
58.3363,92.8313
58.3490,92.8122
58.3681,92.7995
58.3905,92.7950
59.6930,92.7950
59.7155,92.7995
59.7346,92.8122
59.7473,92.8313
59.7518,92.8537
59.7518,93.2062
59.7473,93.2287
59.7346,93.2478
59.7155,93.2605
59.6930,93.2650
58.3905,93.2650
58.3681,93.2605
58.3490,93.2478
58.3363,93.2287
58.3318,93.2062
Z" /> 
<path style="fill:#000000; fill-opacity:1.0000; stroke:none;fill-rule:evenodd;"
d="M 62.6618,92.8537
62.6663,92.8313
62.6790,92.8122
62.6981,92.7995
62.7205,92.7950
64.0230,92.7950
64.0455,92.7995
64.0646,92.8122
64.0773,92.8313
64.0818,92.8537
64.0818,93.2062
64.0773,93.2287
64.0646,93.2478
64.0455,93.2605
64.0230,93.2650
62.7205,93.2650
62.6981,93.2605
62.6790,93.2478
62.6663,93.2287
62.6618,93.2062
Z" /> 
<path style="fill:#000000; fill-opacity:1.0000; stroke:none;fill-rule:evenodd;"
d="M 62.6618,92.2037
62.6663,92.1813
62.6790,92.1622
62.6981,92.1495
62.7205,92.1450
64.0230,92.1450
64.0455,92.1495
64.0646,92.1622
64.0773,92.1813
64.0818,92.2037
64.0818,92.5562
64.0773,92.5787
64.0646,92.5978
64.0455,92.6105
64.0230,92.6150
62.7205,92.6150
62.6981,92.6105
62.6790,92.5978
62.6663,92.5787
62.6618,92.5562
Z" /> 
<path style="fill:#000000; fill-opacity:1.0000; stroke:none;fill-rule:evenodd;"
d="M 62.6618,91.5537
62.6663,91.5313
62.6790,91.5122
62.6981,91.4995
62.7205,91.4950
64.0230,91.4950
64.0455,91.4995
64.0646,91.5122
64.0773,91.5313
64.0818,91.5537
64.0818,91.9062
64.0773,91.9287
64.0646,91.9478
64.0455,91.9605
64.0230,91.9650
62.7205,91.9650
62.6981,91.9605
62.6790,91.9478
62.6663,91.9287
62.6618,91.9062
Z" /> 
<path style="fill:#000000; fill-opacity:1.0000; stroke:none;fill-rule:evenodd;"
d="M 62.6618,90.9038
62.6663,90.8813
62.6790,90.8622
62.6981,90.8495
62.7205,90.8450
64.0230,90.8450
64.0455,90.8495
64.0646,90.8622
64.0773,90.8813
64.0818,90.9038
64.0818,91.2562
64.0773,91.2787
64.0646,91.2978
64.0455,91.3105
64.0230,91.3150
62.7205,91.3150
62.6981,91.3105
62.6790,91.2978
62.6663,91.2787
62.6618,91.2562
Z" /> 
<path style="fill:#000000; fill-opacity:1.0000; stroke:none;fill-rule:evenodd;"
d="M 67.4843,92.9415
67.4843,92.4665
67.8593,92.4665
67.8593,92.9415
Z" /> 
<path style="fill:#000000; fill-opacity:1.0000; stroke:none;fill-rule:evenodd;"
d="M 68.1603,92.9415
68.1603,92.4665
68.5353,92.4665
68.5353,92.9415
Z" /> 
<path style="fill:#000000; fill-opacity:1.0000; stroke:none;fill-rule:evenodd;"
d="M 68.1603,91.9675
68.1603,91.4925
68.5353,91.4925
68.5353,91.9675
Z" /> 
<path style="fill:#000000; fill-opacity:1.0000; stroke:none;fill-rule:evenodd;"
d="M 67.4843,91.9675
67.4843,91.4925
67.8593,91.4925
67.8593,91.9675
Z" /> 
<path style="fill:#000000; fill-opacity:1.0000; stroke:none;fill-rule:evenodd;"
d="M 66.9500,98.0750
66.8639,98.0579
66.7909,98.0091
66.7421,97.9361
66.7250,97.8500
66.7250,97.4000
66.7421,97.3139
66.7909,97.2409
66.8639,97.1921
66.9500,97.1750
67.4500,97.1750
67.5361,97.1921
67.6091,97.2409
67.6579,97.3139
67.6750,97.4000
67.6750,97.8500
67.6579,97.9361
67.6091,98.0091
67.5361,98.0579
67.4500,98.0750
Z" /> 
<path style="fill:#000000; fill-opacity:1.0000; stroke:none;fill-rule:evenodd;"
d="M 66.9500,96.5250
66.8639,96.5079
66.7909,96.4591
66.7421,96.3861
66.7250,96.3000
66.7250,95.8500
66.7421,95.7639
66.7909,95.6909
66.8639,95.6421
66.9500,95.6250
67.4500,95.6250
67.5361,95.6421
67.6091,95.6909
67.6579,95.7639
67.6750,95.8500
67.6750,96.3000
67.6579,96.3861
67.6091,96.4591
67.5361,96.5079
67.4500,96.5250
Z" /> 
<path style="fill:#000000; fill-opacity:1.0000; stroke:none;fill-rule:evenodd;"
d="M 129.2125,108.7115
129.2125,108.2365
129.5875,108.2365
129.5875,108.7115
Z" /> 
<path style="fill:#000000; fill-opacity:1.0000; stroke:none;fill-rule:evenodd;"
d="M 129.8885,108.7115
129.8885,108.2365
130.2635,108.2365
130.2635,108.7115
Z" /> 
<path style="fill:#000000; fill-opacity:1.0000; stroke:none;fill-rule:evenodd;"
d="M 129.8885,107.7375
129.8885,107.2625
130.2635,107.2625
130.2635,107.7375
Z" /> 
<path style="fill:#000000; fill-opacity:1.0000; stroke:none;fill-rule:evenodd;"
d="M 129.2125,107.7375
129.2125,107.2625
129.5875,107.2625
129.5875,107.7375
Z" /> 
<path style="fill:#000000; fill-opacity:1.0000; stroke:none;fill-rule:evenodd;"
d="M 121.6000,86.5750
121.5810,86.6707
121.5268,86.7518
121.4457,86.8060
121.3500,86.8250
120.8500,86.8250
120.7543,86.8060
120.6732,86.7518
120.6190,86.6707
120.6000,86.5750
120.6000,85.6250
120.6190,85.5293
120.6732,85.4482
120.7543,85.3940
120.8500,85.3750
121.3500,85.3750
121.4457,85.3940
121.5268,85.4482
121.5810,85.5293
121.6000,85.6250
Z" /> 
<path style="fill:#000000; fill-opacity:1.0000; stroke:none;fill-rule:evenodd;"
d="M 119.7000,86.5750
119.6810,86.6707
119.6268,86.7518
119.5457,86.8060
119.4500,86.8250
118.9500,86.8250
118.8543,86.8060
118.7732,86.7518
118.7190,86.6707
118.7000,86.5750
118.7000,85.6250
118.7190,85.5293
118.7732,85.4482
118.8543,85.3940
118.9500,85.3750
119.4500,85.3750
119.5457,85.3940
119.6268,85.4482
119.6810,85.5293
119.7000,85.6250
Z" /> 
<path style="fill:#000000; fill-opacity:1.0000; stroke:none;fill-rule:evenodd;"
d="M 116.3250,83.0000
116.2293,82.9810
116.1482,82.9268
116.0940,82.8457
116.0750,82.7500
116.0750,82.2500
116.0940,82.1543
116.1482,82.0732
116.2293,82.0190
116.3250,82.0000
117.2750,82.0000
117.3707,82.0190
117.4518,82.0732
117.5060,82.1543
117.5250,82.2500
117.5250,82.7500
117.5060,82.8457
117.4518,82.9268
117.3707,82.9810
117.2750,83.0000
Z" /> 
<path style="fill:#000000; fill-opacity:1.0000; stroke:none;fill-rule:evenodd;"
d="M 116.3250,81.1000
116.2293,81.0810
116.1482,81.0268
116.0940,80.9457
116.0750,80.8500
116.0750,80.3500
116.0940,80.2543
116.1482,80.1732
116.2293,80.1190
116.3250,80.1000
117.2750,80.1000
117.3707,80.1190
117.4518,80.1732
117.5060,80.2543
117.5250,80.3500
117.5250,80.8500
117.5060,80.9457
117.4518,81.0268
117.3707,81.0810
117.2750,81.1000
Z" /> 
</g> 
</svg>
