<?xml version="1.0" encoding="UTF-8" standalone="no"?>
<!-- Created with Inkscape (http://www.inkscape.org/) -->

<svg
   width="210mm"
   height="297mm"
   viewBox="0 0 210 297"
   version="1.1"
   id="svg1"
   xml:space="preserve"
   xmlns="http://www.w3.org/2000/svg"
   xmlns:svg="http://www.w3.org/2000/svg"><defs
     id="defs1" /><path
     style="fill:none;fill-opacity:1;fill-rule:evenodd;stroke:#ff0000;stroke-width:0.0254;stroke-linecap:round;stroke-linejoin:round;stroke-dasharray:none;stroke-opacity:1"
     d="m 57.294947,166.6278 0.026,0.002 0.026,0.003 0.026,0.005 0.025,0.006 0.026,0.007 0.024,0.009 0.024,0.01 0.024,0.011 0.023,0.013 0.022,0.014 0.022,0.014 0.021,0.016 0.02,0.017 0.019,0.018 0.018,0.019 0.017,0.02 0.016,0.021 0.014,0.022 0.014,0.022 0.013,0.023 0.011,0.024 0.01,0.024 0.009,0.024 0.007,0.026 0.006,0.025 0.005,0.026 0.003,0.026 0.002,0.026 10e-4,0.026 v 1.145 h -1.55 v -1.145 l 10e-4,-0.026 0.002,-0.026 0.003,-0.026 0.005,-0.026 0.006,-0.025 0.007,-0.026 0.009,-0.024 0.01,-0.024 0.011,-0.024 0.013,-0.023 0.014,-0.022 0.014,-0.022 0.016,-0.021 0.017,-0.02 0.018,-0.019 0.019,-0.018 0.02,-0.017 0.021,-0.016 0.022,-0.014 0.022,-0.014 0.023,-0.013 0.024,-0.011 0.024,-0.01 0.024,-0.009 0.026,-0.007 0.025,-0.006 0.026,-0.005 0.026,-0.003 0.026,-0.002 0.026,-0.001 h 0.55 z"
     id="path1" /><path
     style="fill:none;fill-opacity:1;fill-rule:evenodd;stroke:#ff0000;stroke-width:0.0254;stroke-linecap:round;stroke-linejoin:round;stroke-dasharray:none;stroke-opacity:1"
     d="m 57.768947,174.0168 -10e-4,0.026 -0.002,0.026 -0.003,0.026 -0.005,0.026 -0.006,0.025 -0.007,0.026 -0.009,0.024 -0.01,0.024 -0.011,0.024 -0.013,0.023 -0.014,0.022 -0.014,0.022 -0.016,0.021 -0.017,0.02 -0.018,0.019 -0.019,0.018 -0.02,0.017 -0.021,0.016 -0.022,0.014 -0.022,0.014 -0.023,0.013 -0.024,0.011 -0.024,0.01 -0.024,0.009 -0.026,0.007 -0.025,0.006 -0.026,0.005 -0.026,0.003 -0.026,0.002 -0.026,10e-4 h -0.55 l -0.026,-10e-4 -0.026,-0.002 -0.026,-0.003 -0.026,-0.005 -0.025,-0.006 -0.026,-0.007 -0.024,-0.009 -0.024,-0.01 -0.024,-0.011 -0.023,-0.013 -0.022,-0.014 -0.022,-0.014 -0.021,-0.016 -0.02,-0.017 -0.019,-0.018 -0.018,-0.019 -0.017,-0.02 -0.016,-0.021 -0.014,-0.022 -0.014,-0.022 -0.013,-0.023 -0.011,-0.024 -0.01,-0.024 -0.009,-0.024 -0.007,-0.026 -0.006,-0.025 -0.005,-0.026 -0.003,-0.026 -0.002,-0.026 -10e-4,-0.026 v -1.145 h 1.55 z"
     id="path2" /><path
     style="fill:none;fill-opacity:1;fill-rule:evenodd;stroke:#ff0000;stroke-width:0.0254;stroke-linecap:round;stroke-linejoin:round;stroke-dasharray:none;stroke-opacity:1"
     d="m 146.15645,144.025 -0.019,0.0957 -0.0542,0.0811 -0.0811,0.0542 -0.0957,0.019 h -1.575 l -0.0957,-0.019 -0.0811,-0.0542 -0.0542,-0.0811 -0.019,-0.0957 v -1.85 l 0.019,-0.0957 0.0542,-0.0811 0.0811,-0.0542 0.0957,-0.019 h 1.575 l 0.0957,0.019 0.0811,0.0542 0.0542,0.0811 0.019,0.0957 z"
     id="path3" /><path
     style="fill:none;fill-opacity:1;fill-rule:evenodd;stroke:#ff0000;stroke-width:0.0254;stroke-linecap:round;stroke-linejoin:round;stroke-dasharray:none;stroke-opacity:1"
     d="m 141.23145,144.025 -0.019,0.0957 -0.0542,0.0811 -0.0811,0.0542 -0.0957,0.019 h -1.575 l -0.0957,-0.019 -0.0811,-0.0542 -0.0542,-0.0811 -0.019,-0.0957 v -1.85 l 0.019,-0.0957 0.0542,-0.0811 0.0811,-0.0542 0.0957,-0.019 h 1.575 l 0.0957,0.019 0.0811,0.0542 0.0542,0.0811 0.019,0.0957 z"
     id="path4" /><path
     style="fill:none;fill-opacity:1;fill-rule:evenodd;stroke:#ff0000;stroke-width:0.0254;stroke-linecap:round;stroke-linejoin:round;stroke-dasharray:none;stroke-opacity:1"
     d="m 113.01945,146.119 h -1.651 v -2.54 h 1.651 z"
     id="path5" /><path
     style="fill:none;fill-opacity:1;fill-rule:evenodd;stroke:#ff0000;stroke-width:0.0254;stroke-linecap:round;stroke-linejoin:round;stroke-dasharray:none;stroke-opacity:1"
     d="m 115.55945,146.119 h -1.651 v -2.54 h 1.651 z"
     id="path6" /><path
     style="fill:none;fill-opacity:1;fill-rule:evenodd;stroke:#ff0000;stroke-width:0.0254;stroke-linecap:round;stroke-linejoin:round;stroke-dasharray:none;stroke-opacity:1"
     d="m 118.09945,146.119 h -1.651 v -2.54 h 1.651 z"
     id="path7" /><path
     style="fill:none;fill-opacity:1;fill-rule:evenodd;stroke:#ff0000;stroke-width:0.0254;stroke-linecap:round;stroke-linejoin:round;stroke-dasharray:none;stroke-opacity:1"
     d="m 118.09945,141.039 h -1.651 v -2.54 h 1.651 z"
     id="path8" /><path
     style="fill:none;fill-opacity:1;fill-rule:evenodd;stroke:#ff0000;stroke-width:0.0254;stroke-linecap:round;stroke-linejoin:round;stroke-dasharray:none;stroke-opacity:1"
     d="m 115.55945,141.039 h -1.651 v -2.54 h 1.651 z"
     id="path9" /><path
     style="fill:none;fill-opacity:1;fill-rule:evenodd;stroke:#ff0000;stroke-width:0.0254;stroke-linecap:round;stroke-linejoin:round;stroke-dasharray:none;stroke-opacity:1"
     d="m 113.01945,141.039 h -1.651 v -2.54 h 1.651 z"
     id="path10" /><path
     style="fill:none;fill-opacity:1;fill-rule:evenodd;stroke:#ff0000;stroke-width:0.0254;stroke-linecap:round;stroke-linejoin:round;stroke-dasharray:none;stroke-opacity:1"
     d="m 68.743947,142.575 -0.0861,-0.0171 -0.073,-0.0488 -0.0488,-0.073 -0.0171,-0.0861 v -0.45 l 0.0171,-0.0861 0.0488,-0.073 0.073,-0.0488 0.0861,-0.0171 h 0.5 l 0.0861,0.0171 0.073,0.0488 0.0488,0.073 0.0171,0.0861 v 0.45 l -0.0171,0.0861 -0.0488,0.073 -0.073,0.0488 -0.0861,0.0171 z"
     id="path11" /><path
     style="fill:none;fill-opacity:1;fill-rule:evenodd;stroke:#ff0000;stroke-width:0.0254;stroke-linecap:round;stroke-linejoin:round;stroke-dasharray:none;stroke-opacity:1"
     d="m 68.743947,141.025 -0.0861,-0.0171 -0.073,-0.0488 -0.0488,-0.073 -0.0171,-0.0861 v -0.45 l 0.0171,-0.0861 0.0488,-0.073 0.073,-0.0488 0.0861,-0.0171 h 0.5 l 0.0861,0.0171 0.073,0.0488 0.0488,0.073 0.0171,0.0861 v 0.45 l -0.0171,0.0861 -0.0488,0.073 -0.073,0.0488 -0.0861,0.0171 z"
     id="path12" /><path
     style="fill:none;fill-opacity:1;fill-rule:evenodd;stroke:#ff0000;stroke-width:0.0254;stroke-linecap:round;stroke-linejoin:round;stroke-dasharray:none;stroke-opacity:1"
     d="m 64.690747,134.1 -0.0957,-0.019 -0.0811,-0.0542 -0.0542,-0.0811 -0.019,-0.0957 v -0.5 l 0.019,-0.0957 0.0542,-0.0811 0.0811,-0.0542 0.0957,-0.019 h 0.95 l 0.0957,0.019 0.0811,0.0542 0.0542,0.0811 0.019,0.0957 v 0.5 l -0.019,0.0957 -0.0542,0.0811 -0.0811,0.0542 -0.0957,0.019 z"
     id="path13" /><path
     style="fill:none;fill-opacity:1;fill-rule:evenodd;stroke:#ff0000;stroke-width:0.0254;stroke-linecap:round;stroke-linejoin:round;stroke-dasharray:none;stroke-opacity:1"
     d="m 64.690747,132.2 -0.0957,-0.019 -0.0811,-0.0542 -0.0542,-0.0811 -0.019,-0.0957 v -0.5 l 0.019,-0.0957 0.0542,-0.0811 0.0811,-0.0542 0.0957,-0.019 h 0.95 l 0.0957,0.019 0.0811,0.0542 0.0542,0.0811 0.019,0.0957 v 0.5 l -0.019,0.0957 -0.0542,0.0811 -0.0811,0.0542 -0.0957,0.019 z"
     id="path14" /><path
     style="fill:none;fill-opacity:1;fill-rule:evenodd;stroke:#ff0000;stroke-width:0.0254;stroke-linecap:round;stroke-linejoin:round;stroke-dasharray:none;stroke-opacity:1"
     d="m 119.28645,159.6562 -0.0167,0.0838 -0.0474,0.0709 -0.0709,0.0474 -0.0837,0.0167 h -0.4375 l -0.0838,-0.0167 -0.0709,-0.0474 -0.0474,-0.0709 -0.0167,-0.0838 v -0.5125 l 0.0167,-0.0837 0.0474,-0.0709 0.0709,-0.0474 0.0838,-0.0167 h 0.4375 l 0.0837,0.0167 0.0709,0.0474 0.0474,0.0709 0.0167,0.0837 z"
     id="path15" /><path
     style="fill:none;fill-opacity:1;fill-rule:evenodd;stroke:#ff0000;stroke-width:0.0254;stroke-linecap:round;stroke-linejoin:round;stroke-dasharray:none;stroke-opacity:1"
     d="m 117.71145,159.6562 -0.0167,0.0838 -0.0474,0.0709 -0.0709,0.0474 -0.0838,0.0167 h -0.4375 l -0.0837,-0.0167 -0.0709,-0.0474 -0.0474,-0.0709 -0.0167,-0.0838 v -0.5125 l 0.0167,-0.0837 0.0474,-0.0709 0.0709,-0.0474 0.0837,-0.0167 h 0.4375 l 0.0838,0.0167 0.0709,0.0474 0.0474,0.0709 0.0167,0.0837 z"
     id="path16" /><path
     style="fill:none;fill-opacity:1;fill-rule:evenodd;stroke:#ff0000;stroke-width:0.0254;stroke-linecap:round;stroke-linejoin:round;stroke-dasharray:none;stroke-opacity:1"
     d="m 116.72395,181.575 -0.0156,0.107 -0.0542,0.1109 -0.0873,0.0873 -0.1109,0.0542 -0.107,0.0156 h -0.75 l -0.107,-0.0156 -0.1109,-0.0542 -0.0873,-0.0873 -0.0542,-0.1109 -0.0156,-0.107 v -3.15 l 0.0156,-0.107 0.0542,-0.1109 0.0873,-0.0873 0.1109,-0.0542 0.107,-0.0156 h 0.75 l 0.107,0.0156 0.1109,0.0542 0.0873,0.0873 0.0542,0.1109 0.0156,0.107 z"
     id="path17" /><path
     style="fill:none;fill-opacity:1;fill-rule:evenodd;stroke:#ff0000;stroke-width:0.0254;stroke-linecap:round;stroke-linejoin:round;stroke-dasharray:none;stroke-opacity:1"
     d="m 119.49895,181.575 -0.0156,0.107 -0.0542,0.1109 -0.0873,0.0873 -0.1109,0.0542 -0.107,0.0156 h -0.75 l -0.107,-0.0156 -0.1109,-0.0542 -0.0873,-0.0873 -0.0542,-0.1109 -0.0156,-0.107 v -3.15 l 0.0156,-0.107 0.0542,-0.1109 0.0873,-0.0873 0.1109,-0.0542 0.107,-0.0156 h 0.75 l 0.107,0.0156 0.1109,0.0542 0.0873,0.0873 0.0542,0.1109 0.0156,0.107 z"
     id="path18" /><path
     style="fill:none;fill-opacity:1;fill-rule:evenodd;stroke:#ff0000;stroke-width:0.0254;stroke-linecap:round;stroke-linejoin:round;stroke-dasharray:none;stroke-opacity:1"
     d="m 113.94895,181.575 -0.0156,0.107 -0.0542,0.1109 -0.0873,0.0873 -0.1109,0.0542 -0.107,0.0156 h -0.75 l -0.107,-0.0156 -0.1109,-0.0542 -0.0873,-0.0873 -0.0542,-0.1109 -0.0156,-0.107 v -3.15 l 0.0156,-0.107 0.0542,-0.1109 0.0873,-0.0873 0.1109,-0.0542 0.107,-0.0156 h 0.75 l 0.107,0.0156 0.1109,0.0542 0.0873,0.0873 0.0542,0.1109 0.0156,0.107 z"
     id="path19" /><path
     style="fill:none;fill-opacity:1;fill-rule:evenodd;stroke:#ff0000;stroke-width:0.0254;stroke-linecap:round;stroke-linejoin:round;stroke-dasharray:none;stroke-opacity:1"
     d="m 124.55645,117.05 0.019,-0.0957 0.0542,-0.0811 0.0811,-0.0542 0.0957,-0.019 h 0.525 l 0.0957,0.019 0.0811,0.0542 0.0542,0.0811 0.019,0.0957 v 0.9 l -0.019,0.0957 -0.0542,0.0811 -0.0811,0.0542 -0.0957,0.019 h -0.525 l -0.0957,-0.019 -0.0811,-0.0542 -0.0542,-0.0811 -0.019,-0.0957 z"
     id="path20" /><path
     style="fill:none;fill-opacity:1;fill-rule:evenodd;stroke:#ff0000;stroke-width:0.0254;stroke-linecap:round;stroke-linejoin:round;stroke-dasharray:none;stroke-opacity:1"
     d="m 126.38145,117.05 0.019,-0.0957 0.0542,-0.0811 0.0811,-0.0542 0.0957,-0.019 h 0.525 l 0.0957,0.019 0.0811,0.0542 0.0542,0.0811 0.019,0.0957 v 0.9 l -0.019,0.0957 -0.0542,0.0811 -0.0811,0.0542 -0.0957,0.019 h -0.525 l -0.0957,-0.019 -0.0811,-0.0542 -0.0542,-0.0811 -0.019,-0.0957 z"
     id="path21" /><path
     style="fill:none;fill-opacity:1;fill-rule:evenodd;stroke:#ff0000;stroke-width:0.0254;stroke-linecap:round;stroke-linejoin:round;stroke-dasharray:none;stroke-opacity:1"
     d="m 74.190747,161.8 -0.0957,-0.019 -0.0811,-0.0542 -0.0542,-0.0811 -0.019,-0.0957 v -0.5 l 0.019,-0.0957 0.0542,-0.0811 0.0811,-0.0542 0.0957,-0.019 h 0.95 l 0.0957,0.019 0.0811,0.0542 0.0542,0.0811 0.019,0.0957 v 0.5 l -0.019,0.0957 -0.0542,0.0811 -0.0811,0.0542 -0.0957,0.019 z"
     id="path22" /><path
     style="fill:none;fill-opacity:1;fill-rule:evenodd;stroke:#ff0000;stroke-width:0.0254;stroke-linecap:round;stroke-linejoin:round;stroke-dasharray:none;stroke-opacity:1"
     d="m 74.190747,159.9 -0.0957,-0.019 -0.0811,-0.0542 -0.0542,-0.0811 -0.019,-0.0957 v -0.5 l 0.019,-0.0957 0.0542,-0.0811 0.0811,-0.0542 0.0957,-0.019 h 0.95 l 0.0957,0.019 0.0811,0.0542 0.0542,0.0811 0.019,0.0957 v 0.5 l -0.019,0.0957 -0.0542,0.0811 -0.0811,0.0542 -0.0957,0.019 z"
     id="path23" /><path
     style="fill:none;fill-opacity:1;fill-rule:evenodd;stroke:#ff0000;stroke-width:0.0254;stroke-linecap:round;stroke-linejoin:round;stroke-dasharray:none;stroke-opacity:1"
     d="m 142.09395,138.975 -0.019,0.0957 -0.0542,0.0811 -0.0811,0.0542 -0.0957,0.019 h -0.5 l -0.0957,-0.019 -0.0811,-0.0542 -0.0542,-0.0811 -0.019,-0.0957 v -0.95 l 0.019,-0.0957 0.0542,-0.0811 0.0811,-0.0542 0.0957,-0.019 h 0.5 l 0.0957,0.019 0.0811,0.0542 0.0542,0.0811 0.019,0.0957 z"
     id="path24" /><path
     style="fill:none;fill-opacity:1;fill-rule:evenodd;stroke:#ff0000;stroke-width:0.0254;stroke-linecap:round;stroke-linejoin:round;stroke-dasharray:none;stroke-opacity:1"
     d="m 140.19395,138.975 -0.019,0.0957 -0.0542,0.0811 -0.0811,0.0542 -0.0957,0.019 h -0.5 l -0.0957,-0.019 -0.0811,-0.0542 -0.0542,-0.0811 -0.019,-0.0957 v -0.95 l 0.019,-0.0957 0.0542,-0.0811 0.0811,-0.0542 0.0957,-0.019 h 0.5 l 0.0957,0.019 0.0811,0.0542 0.0542,0.0811 0.019,0.0957 z"
     id="path25" /><path
     style="fill:none;fill-opacity:1;fill-rule:evenodd;stroke:#ff0000;stroke-width:0.0254;stroke-linecap:round;stroke-linejoin:round;stroke-dasharray:none;stroke-opacity:1"
     d="m 63.743947,145.4125 -0.0957,-0.019 -0.0811,-0.0542 -0.0542,-0.0811 -0.019,-0.0957 v -0.525 l 0.019,-0.0957 0.0542,-0.0811 0.0811,-0.0542 0.0957,-0.019 h 0.9 l 0.0957,0.019 0.0811,0.0542 0.0542,0.0811 0.019,0.0957 v 0.525 l -0.019,0.0957 -0.0542,0.0811 -0.0811,0.0542 -0.0957,0.019 z"
     id="path26" /><path
     style="fill:none;fill-opacity:1;fill-rule:evenodd;stroke:#ff0000;stroke-width:0.0254;stroke-linecap:round;stroke-linejoin:round;stroke-dasharray:none;stroke-opacity:1"
     d="m 63.743947,143.5875 -0.0957,-0.019 -0.0811,-0.0542 -0.0542,-0.0811 -0.019,-0.0957 v -0.525 l 0.019,-0.0957 0.0542,-0.0811 0.0811,-0.0542 0.0957,-0.019 h 0.9 l 0.0957,0.019 0.0811,0.0542 0.0542,0.0811 0.019,0.0957 v 0.525 l -0.019,0.0957 -0.0542,0.0811 -0.0811,0.0542 -0.0957,0.019 z"
     id="path27" /><path
     style="fill:none;fill-opacity:1;fill-rule:evenodd;stroke:#ff0000;stroke-width:0.02413;stroke-linecap:round;stroke-linejoin:round;stroke-dasharray:none;stroke-opacity:1"
     d="m 79.265372,122.32912 h -0.45125 v -0.35624 h 0.45125 z"
     id="path28" /><path
     style="fill:none;fill-opacity:1;fill-rule:evenodd;stroke:#ff0000;stroke-width:0.02413;stroke-linecap:round;stroke-linejoin:round;stroke-dasharray:none;stroke-opacity:1"
     d="m 79.265372,121.65313 h -0.45125 v -0.35626 h 0.45125 z"
     id="path29" /><path
     style="fill:none;fill-opacity:1;fill-rule:evenodd;stroke:#ff0000;stroke-width:0.02413;stroke-linecap:round;stroke-linejoin:round;stroke-dasharray:none;stroke-opacity:1"
     d="m 78.291372,121.65313 h -0.45125 v -0.35626 h 0.45125 z"
     id="path30" /><path
     style="fill:none;fill-opacity:1;fill-rule:evenodd;stroke:#ff0000;stroke-width:0.02413;stroke-linecap:round;stroke-linejoin:round;stroke-dasharray:none;stroke-opacity:1"
     d="m 78.291372,122.32912 h -0.45125 v -0.35624 h 0.45125 z"
     id="path31" /><path
     style="fill:none;fill-opacity:1;fill-rule:evenodd;stroke:#ff0000;stroke-width:0.0254;stroke-linecap:round;stroke-linejoin:round;stroke-dasharray:none;stroke-opacity:1"
     d="m 126.79395,167.675 -0.019,0.0957 -0.0542,0.0811 -0.0811,0.0542 -0.0957,0.019 h -0.5 l -0.0957,-0.019 -0.0811,-0.0542 -0.0542,-0.0811 -0.019,-0.0957 v -0.95 l 0.019,-0.0957 0.0542,-0.0811 0.0811,-0.0542 0.0957,-0.019 h 0.5 l 0.0957,0.019 0.0811,0.0542 0.0542,0.0811 0.019,0.0957 z"
     id="path32" /><path
     style="fill:none;fill-opacity:1;fill-rule:evenodd;stroke:#ff0000;stroke-width:0.0254;stroke-linecap:round;stroke-linejoin:round;stroke-dasharray:none;stroke-opacity:1"
     d="m 124.89395,167.675 -0.019,0.0957 -0.0542,0.0811 -0.0811,0.0542 -0.0957,0.019 h -0.5 l -0.0957,-0.019 -0.0811,-0.0542 -0.0542,-0.0811 -0.019,-0.0957 v -0.95 l 0.019,-0.0957 0.0542,-0.0811 0.0811,-0.0542 0.0957,-0.019 h 0.5 l 0.0957,0.019 0.0811,0.0542 0.0542,0.0811 0.019,0.0957 z"
     id="path33" /><path
     style="fill:none;fill-opacity:1;fill-rule:evenodd;stroke:#ff0000;stroke-width:0.0254;stroke-linecap:round;stroke-linejoin:round;stroke-dasharray:none;stroke-opacity:1"
     d="m 93.390747,133.96 0.0171,-0.0861 0.0488,-0.073 0.073,-0.0488 0.0861,-0.0171 h 0.45 l 0.0861,0.0171 0.073,0.0488 0.0488,0.073 0.0171,0.0861 v 0.5 l -0.0171,0.0861 -0.0488,0.073 -0.073,0.0488 -0.0861,0.0171 h -0.45 l -0.0861,-0.0171 -0.073,-0.0488 -0.0488,-0.073 -0.0171,-0.0861 z"
     id="path34" /><path
     style="fill:none;fill-opacity:1;fill-rule:evenodd;stroke:#ff0000;stroke-width:0.0254;stroke-linecap:round;stroke-linejoin:round;stroke-dasharray:none;stroke-opacity:1"
     d="m 94.940747,133.96 0.0171,-0.0861 0.0488,-0.073 0.073,-0.0488 0.0861,-0.0171 h 0.45 l 0.0861,0.0171 0.073,0.0488 0.0488,0.073 0.0171,0.0861 v 0.5 l -0.0171,0.0861 -0.0488,0.073 -0.073,0.0488 -0.0861,0.0171 h -0.45 l -0.0861,-0.0171 -0.073,-0.0488 -0.0488,-0.073 -0.0171,-0.0861 z"
     id="path35" /><path
     style="fill:none;fill-opacity:1;fill-rule:evenodd;stroke:#ff0000;stroke-width:0.0254;stroke-linecap:round;stroke-linejoin:round;stroke-dasharray:none;stroke-opacity:1"
     d="m 98.114547,134.3878 v -0.3556 h 0.5588 v 0.3556 z"
     id="path36" /><path
     style="fill:none;fill-opacity:1;fill-rule:evenodd;stroke:#ff0000;stroke-width:0.02032;stroke-linecap:round;stroke-linejoin:round;stroke-dasharray:none;stroke-opacity:1"
     d="m 99.92049,133.78582 h -0.995683 v -0.44704 h 0.995683 z"
     id="path37" /><path
     style="fill:none;fill-opacity:1;fill-rule:evenodd;stroke:#ff0000;stroke-width:0.0254;stroke-linecap:round;stroke-linejoin:round;stroke-dasharray:none;stroke-opacity:1"
     d="m 100.17195,134.3878 v -0.3556 h 0.5588 v 0.3556 z"
     id="path38" /><path
     style="fill:none;fill-opacity:1;fill-rule:evenodd;stroke:#ff0000;stroke-width:0.02032;stroke-linecap:round;stroke-linejoin:round;stroke-dasharray:none;stroke-opacity:1"
     d="m 99.92049,135.08122 h -0.995683 v -0.44704 h 0.995683 z"
     id="path39" /><path
     style="fill:none;fill-opacity:1;fill-rule:evenodd;stroke:#ff0000;stroke-width:0.0254;stroke-linecap:round;stroke-linejoin:round;stroke-dasharray:none;stroke-opacity:1"
     d="m 92.343947,125.5625 0.0957,0.019 0.0811,0.0542 0.0542,0.0811 0.019,0.0957 v 0.525 l -0.019,0.0957 -0.0542,0.0811 -0.0811,0.0542 -0.0957,0.019 h -0.9 l -0.0957,-0.019 -0.0811,-0.0542 -0.0542,-0.0811 -0.019,-0.0957 v -0.525 l 0.019,-0.0957 0.0542,-0.0811 0.0811,-0.0542 0.0957,-0.019 z"
     id="path40" /><path
     style="fill:none;fill-opacity:1;fill-rule:evenodd;stroke:#ff0000;stroke-width:0.0254;stroke-linecap:round;stroke-linejoin:round;stroke-dasharray:none;stroke-opacity:1"
     d="m 92.343947,127.3875 0.0957,0.019 0.0811,0.0542 0.0542,0.0811 0.019,0.0957 v 0.525 l -0.019,0.0957 -0.0542,0.0811 -0.0811,0.0542 -0.0957,0.019 h -0.9 l -0.0957,-0.019 -0.0811,-0.0542 -0.0542,-0.0811 -0.019,-0.0957 v -0.525 l 0.019,-0.0957 0.0542,-0.0811 0.0811,-0.0542 0.0957,-0.019 z"
     id="path41" /><path
     style="fill:none;fill-opacity:1;fill-rule:evenodd;stroke:#ff0000;stroke-width:0.02413;stroke-linecap:round;stroke-linejoin:round;stroke-dasharray:none;stroke-opacity:1"
     d="m 121.33983,134.41963 v -0.45126 h 0.35625 v 0.45126 z"
     id="path42" /><path
     style="fill:none;fill-opacity:1;fill-rule:evenodd;stroke:#ff0000;stroke-width:0.02413;stroke-linecap:round;stroke-linejoin:round;stroke-dasharray:none;stroke-opacity:1"
     d="m 122.01582,134.41962 v -0.45125 h 0.35625 v 0.45125 z"
     id="path43" /><path
     style="fill:none;fill-opacity:1;fill-rule:evenodd;stroke:#ff0000;stroke-width:0.02413;stroke-linecap:round;stroke-linejoin:round;stroke-dasharray:none;stroke-opacity:1"
     d="m 122.01582,133.44562 v -0.45124 h 0.35625 v 0.45124 z"
     id="path44" /><path
     style="fill:none;fill-opacity:1;fill-rule:evenodd;stroke:#ff0000;stroke-width:0.02413;stroke-linecap:round;stroke-linejoin:round;stroke-dasharray:none;stroke-opacity:1"
     d="m 121.33983,133.44562 v -0.45125 h 0.35625 v 0.45125 z"
     id="path45" /><path
     style="fill:none;fill-opacity:1;fill-rule:evenodd;stroke:#ff0000;stroke-width:0.0254;stroke-linecap:round;stroke-linejoin:round;stroke-dasharray:none;stroke-opacity:1"
     d="m 70.215747,149.0875 0.0957,0.019 0.0811,0.0542 0.0542,0.0811 0.019,0.0957 v 0.525 l -0.019,0.0957 -0.0542,0.0811 -0.0811,0.0542 -0.0957,0.019 h -0.9 l -0.0957,-0.019 -0.0811,-0.0542 -0.0542,-0.0811 -0.019,-0.0957 v -0.525 l 0.019,-0.0957 0.0542,-0.0811 0.0811,-0.0542 0.0957,-0.019 z"
     id="path46" /><path
     style="fill:none;fill-opacity:1;fill-rule:evenodd;stroke:#ff0000;stroke-width:0.0254;stroke-linecap:round;stroke-linejoin:round;stroke-dasharray:none;stroke-opacity:1"
     d="m 70.215747,150.9125 0.0957,0.019 0.0811,0.0542 0.0542,0.0811 0.019,0.0957 v 0.525 l -0.019,0.0957 -0.0542,0.0811 -0.0811,0.0542 -0.0957,0.019 h -0.9 l -0.0957,-0.019 -0.0811,-0.0542 -0.0542,-0.0811 -0.019,-0.0957 v -0.525 l 0.019,-0.0957 0.0542,-0.0811 0.0811,-0.0542 0.0957,-0.019 z"
     id="path47" /><path
     style="fill:none;fill-opacity:1;fill-rule:evenodd;stroke:#ff0000;stroke-width:0.0254;stroke-linecap:round;stroke-linejoin:round;stroke-dasharray:none;stroke-opacity:1"
     d="m 77.315747,115.425 0.0156,-0.107 0.0542,-0.1109 0.0873,-0.0873 0.1109,-0.0542 0.107,-0.0156 h 0.75 l 0.107,0.0156 0.1109,0.0542 0.0873,0.0873 0.0542,0.1109 0.0156,0.107 v 3.15 l -0.0156,0.107 -0.0542,0.1109 -0.0873,0.0873 -0.1109,0.0542 -0.107,0.0156 h -0.75 l -0.107,-0.0156 -0.1109,-0.0542 -0.0873,-0.0873 -0.0542,-0.1109 -0.0156,-0.107 z"
     id="path48" /><path
     style="fill:none;fill-opacity:1;fill-rule:evenodd;stroke:#ff0000;stroke-width:0.0254;stroke-linecap:round;stroke-linejoin:round;stroke-dasharray:none;stroke-opacity:1"
     d="m 74.540747,115.425 0.0156,-0.107 0.0542,-0.1109 0.0873,-0.0873 0.1109,-0.0542 0.107,-0.0156 h 0.75 l 0.107,0.0156 0.1109,0.0542 0.0873,0.0873 0.0542,0.1109 0.0156,0.107 v 3.15 l -0.0156,0.107 -0.0542,0.1109 -0.0873,0.0873 -0.1109,0.0542 -0.107,0.0156 h -0.75 l -0.107,-0.0156 -0.1109,-0.0542 -0.0873,-0.0873 -0.0542,-0.1109 -0.0156,-0.107 z"
     id="path49" /><path
     style="fill:none;fill-opacity:1;fill-rule:evenodd;stroke:#ff0000;stroke-width:0.0254;stroke-linecap:round;stroke-linejoin:round;stroke-dasharray:none;stroke-opacity:1"
     d="m 80.090747,115.425 0.0156,-0.107 0.0542,-0.1109 0.0873,-0.0873 0.1109,-0.0542 0.107,-0.0156 h 0.75 l 0.107,0.0156 0.1109,0.0542 0.0873,0.0873 0.0542,0.1109 0.0156,0.107 v 3.15 l -0.0156,0.107 -0.0542,0.1109 -0.0873,0.0873 -0.1109,0.0542 -0.107,0.0156 h -0.75 l -0.107,-0.0156 -0.1109,-0.0542 -0.0873,-0.0873 -0.0542,-0.1109 -0.0156,-0.107 z"
     id="path50" /><path
     style="fill:none;fill-opacity:1;fill-rule:evenodd;stroke:#ff0000;stroke-width:0.0254;stroke-linecap:round;stroke-linejoin:round;stroke-dasharray:none;stroke-opacity:1"
     d="m 92.121947,132.1975 0.0838,0.0167 0.0709,0.0474 0.0474,0.0709 0.0167,0.0837 v 0.4375 l -0.0167,0.0838 -0.0474,0.0709 -0.0709,0.0474 -0.0838,0.0167 h -0.5125 l -0.0837,-0.0167 -0.0709,-0.0474 -0.0474,-0.0709 -0.0167,-0.0838 v -0.4375 l 0.0167,-0.0837 0.0474,-0.0709 0.0709,-0.0474 0.0837,-0.0167 z"
     id="path51" /><path
     style="fill:none;fill-opacity:1;fill-rule:evenodd;stroke:#ff0000;stroke-width:0.0254;stroke-linecap:round;stroke-linejoin:round;stroke-dasharray:none;stroke-opacity:1"
     d="m 92.121947,133.7725 0.0838,0.0167 0.0709,0.0474 0.0474,0.0709 0.0167,0.0837 v 0.4375 l -0.0167,0.0838 -0.0474,0.0709 -0.0709,0.0474 -0.0838,0.0167 h -0.5125 l -0.0837,-0.0167 -0.0709,-0.0474 -0.0474,-0.0709 -0.0167,-0.0838 v -0.4375 l 0.0167,-0.0837 0.0474,-0.0709 0.0709,-0.0474 0.0837,-0.0167 z"
     id="path52" /><path
     style="fill:none;fill-opacity:1;fill-rule:evenodd;stroke:#ff0000;stroke-width:0.0254;stroke-linecap:round;stroke-linejoin:round;stroke-dasharray:none;stroke-opacity:1"
     d="m 153.56895,151.25 0.107,0.0156 0.1109,0.0542 0.0873,0.0873 0.0542,0.1109 0.0156,0.107 v 0.75 l -0.0156,0.107 -0.0542,0.1109 -0.0873,0.0873 -0.1109,0.0542 -0.107,0.0156 h -3.15 l -0.107,-0.0156 -0.1109,-0.0542 -0.0873,-0.0873 -0.0542,-0.1109 -0.0156,-0.107 v -0.75 l 0.0156,-0.107 0.0542,-0.1109 0.0873,-0.0873 0.1109,-0.0542 0.107,-0.0156 z"
     id="path53" /><path
     style="fill:none;fill-opacity:1;fill-rule:evenodd;stroke:#ff0000;stroke-width:0.0254;stroke-linecap:round;stroke-linejoin:round;stroke-dasharray:none;stroke-opacity:1"
     d="m 153.56895,148.475 0.107,0.0156 0.1109,0.0542 0.0873,0.0873 0.0542,0.1109 0.0156,0.107 v 0.75 l -0.0156,0.107 -0.0542,0.1109 -0.0873,0.0873 -0.1109,0.0542 -0.107,0.0156 h -3.15 l -0.107,-0.0156 -0.1109,-0.0542 -0.0873,-0.0873 -0.0542,-0.1109 -0.0156,-0.107 v -0.75 l 0.0156,-0.107 0.0542,-0.1109 0.0873,-0.0873 0.1109,-0.0542 0.107,-0.0156 z"
     id="path54" /><path
     style="fill:none;fill-opacity:1;fill-rule:evenodd;stroke:#ff0000;stroke-width:0.0254;stroke-linecap:round;stroke-linejoin:round;stroke-dasharray:none;stroke-opacity:1"
     d="m 153.56895,154.025 0.107,0.0156 0.1109,0.0542 0.0873,0.0873 0.0542,0.1109 0.0156,0.107 v 0.75 l -0.0156,0.107 -0.0542,0.1109 -0.0873,0.0873 -0.1109,0.0542 -0.107,0.0156 h -3.15 l -0.107,-0.0156 -0.1109,-0.0542 -0.0873,-0.0873 -0.0542,-0.1109 -0.0156,-0.107 v -0.75 l 0.0156,-0.107 0.0542,-0.1109 0.0873,-0.0873 0.1109,-0.0542 0.107,-0.0156 z"
     id="path55" /><path
     style="fill:none;fill-opacity:1;fill-rule:evenodd;stroke:#ff0000;stroke-width:0.0254;stroke-linecap:round;stroke-linejoin:round;stroke-dasharray:none;stroke-opacity:1"
     d="m 77.365747,135.8715 0.0116,-0.0884 0.0502,-0.1075 0.0838,-0.0838 0.1075,-0.0502 0.0884,-0.0116 h 0.717 l 0.0884,0.0116 0.1075,0.0502 0.0838,0.0838 0.0502,0.1075 0.0116,0.0884 v 0.717 l -0.0116,0.0884 -0.0502,0.1075 -0.0838,0.0838 -0.1075,0.0502 -0.0884,0.0116 h -0.717 l -0.0884,-0.0116 -0.1075,-0.0502 -0.0838,-0.0838 -0.0502,-0.1075 -0.0116,-0.0884 z"
     id="path56" /><path
     style="fill:none;fill-opacity:1;fill-rule:evenodd;stroke:#ff0000;stroke-width:0.0254;stroke-linecap:round;stroke-linejoin:round;stroke-dasharray:none;stroke-opacity:1"
     d="m 79.378247,135.78 0.019,-0.0957 0.0542,-0.0811 0.0811,-0.0542 0.0957,-0.019 h 0.525 l 0.0957,0.019 0.0811,0.0542 0.0542,0.0811 0.019,0.0957 v 0.9 l -0.019,0.0957 -0.0542,0.0811 -0.0811,0.0542 -0.0957,0.019 h -0.525 l -0.0957,-0.019 -0.0811,-0.0542 -0.0542,-0.0811 -0.019,-0.0957 z"
     id="path57" /><path
     style="fill:none;fill-opacity:1;fill-rule:evenodd;stroke:#ff0000;stroke-width:0.0254;stroke-linecap:round;stroke-linejoin:round;stroke-dasharray:none;stroke-opacity:1"
     d="m 146.14395,131.6125 -0.0957,-0.019 -0.0811,-0.0542 -0.0542,-0.0811 -0.019,-0.0957 v -0.525 l 0.019,-0.0957 0.0542,-0.0811 0.0811,-0.0542 0.0957,-0.019 h 0.9 l 0.0957,0.019 0.0811,0.0542 0.0542,0.0811 0.019,0.0957 v 0.525 l -0.019,0.0957 -0.0542,0.0811 -0.0811,0.0542 -0.0957,0.019 z"
     id="path59" /><path
     style="fill:none;fill-opacity:1;fill-rule:evenodd;stroke:#ff0000;stroke-width:0.0254;stroke-linecap:round;stroke-linejoin:round;stroke-dasharray:none;stroke-opacity:1"
     d="m 146.14395,129.7875 -0.0957,-0.019 -0.0811,-0.0542 -0.0542,-0.0811 -0.019,-0.0957 v -0.525 l 0.019,-0.0957 0.0542,-0.0811 0.0811,-0.0542 0.0957,-0.019 h 0.9 l 0.0957,0.019 0.0811,0.0542 0.0542,0.0811 0.019,0.0957 v 0.525 l -0.019,0.0957 -0.0542,0.0811 -0.0811,0.0542 -0.0957,0.019 z"
     id="path60" /><path
     style="fill:none;fill-opacity:1;fill-rule:evenodd;stroke:#ff0000;stroke-width:0.0254;stroke-linecap:round;stroke-linejoin:round;stroke-dasharray:none;stroke-opacity:1"
     d="m 111.19395,132.8615 0.0116,-0.0884 0.0502,-0.1075 0.0838,-0.0838 0.1075,-0.0502 0.0884,-0.0116 h 0.717 l 0.0884,0.0116 0.1075,0.0502 0.0838,0.0838 0.0502,0.1075 0.0116,0.0884 v 0.717 l -0.0116,0.0884 -0.0502,0.1075 -0.0838,0.0838 -0.1075,0.0502 -0.0884,0.0116 h -0.717 l -0.0884,-0.0116 -0.1075,-0.0502 -0.0838,-0.0838 -0.0502,-0.1075 -0.0116,-0.0884 z"
     id="path61" /><path
     style="fill:none;fill-opacity:1;fill-rule:evenodd;stroke:#ff0000;stroke-width:0.0254;stroke-linecap:round;stroke-linejoin:round;stroke-dasharray:none;stroke-opacity:1"
     d="m 113.20645,132.77 0.019,-0.0957 0.0542,-0.0811 0.0811,-0.0542 0.0957,-0.019 h 0.525 l 0.0957,0.019 0.0811,0.0542 0.0542,0.0811 0.019,0.0957 v 0.9 l -0.019,0.0957 -0.0542,0.0811 -0.0811,0.0542 -0.0957,0.019 h -0.525 l -0.0957,-0.019 -0.0811,-0.0542 -0.0542,-0.0811 -0.019,-0.0957 z"
     id="path62" /><path
     style="fill:none;fill-opacity:1;fill-rule:evenodd;stroke:#ff0000;stroke-width:0.02032;stroke-linecap:round;stroke-linejoin:round;stroke-dasharray:none;stroke-opacity:1"
     d="m 64.541947,150.269 -0.0037,0.0184 -0.0104,0.0155 -0.01552,0.0104 -0.0184,0.004 h -1 l -0.0184,-0.004 -0.01552,-0.0104 -0.0104,-0.0155 -0.0037,-0.0184 v -0.288 l 0.0037,-0.0184 0.0104,-0.0155 0.01552,-0.0104 0.0184,-0.004 h 1 l 0.0184,0.004 0.01552,0.0104 0.0104,0.0155 0.0037,0.0184 z"
     id="path64" /><path
     style="fill:none;fill-opacity:1;fill-rule:evenodd;stroke:#ff0000;stroke-width:0.02032;stroke-linecap:round;stroke-linejoin:round;stroke-dasharray:none;stroke-opacity:1"
     d="m 64.541947,149.619 -0.0037,0.0184 -0.0104,0.0155 -0.01552,0.0104 -0.0184,0.004 h -1 l -0.0184,-0.004 -0.01552,-0.0104 -0.0104,-0.0155 -0.0037,-0.0184 v -0.288 l 0.0037,-0.0184 0.0104,-0.0155 0.01552,-0.0104 0.0184,-0.004 h 1 l 0.0184,0.004 0.01552,0.0104 0.0104,0.0155 0.0037,0.0184 z"
     id="path65" /><path
     style="fill:none;fill-opacity:1;fill-rule:evenodd;stroke:#ff0000;stroke-width:0.02032;stroke-linecap:round;stroke-linejoin:round;stroke-dasharray:none;stroke-opacity:1"
     d="m 64.541947,148.969 -0.0037,0.0184 -0.0104,0.0155 -0.01552,0.0104 -0.0184,0.004 h -1 l -0.0184,-0.004 -0.01552,-0.0104 -0.0104,-0.0155 -0.0037,-0.0184 v -0.288 l 0.0037,-0.0184 0.0104,-0.0155 0.01552,-0.0104 0.0184,-0.004 h 1 l 0.0184,0.004 0.01552,0.0104 0.0104,0.0155 0.0037,0.0184 z"
     id="path66" /><path
     style="fill:none;fill-opacity:1;fill-rule:evenodd;stroke:#ff0000;stroke-width:0.02032;stroke-linecap:round;stroke-linejoin:round;stroke-dasharray:none;stroke-opacity:1"
     d="m 64.541947,148.319 -0.0037,0.0184 -0.0104,0.0155 -0.01552,0.0104 -0.0184,0.004 h -1 l -0.0184,-0.004 -0.01552,-0.0104 -0.0104,-0.0155 -0.0037,-0.0184 v -0.288 l 0.0037,-0.0184 0.0104,-0.0155 0.01552,-0.0104 0.0184,-0.004 h 1 l 0.0184,0.004 0.01552,0.0104 0.0104,0.0155 0.0037,0.0184 z"
     id="path67" /><path
     style="fill:none;fill-opacity:1;fill-rule:evenodd;stroke:#ff0000;stroke-width:0.02032;stroke-linecap:round;stroke-linejoin:round;stroke-dasharray:none;stroke-opacity:1"
     d="m 62.241947,148.319 -0.0037,0.0184 -0.0104,0.0155 -0.01552,0.0104 -0.0184,0.004 h -1 l -0.0184,-0.004 -0.01552,-0.0104 -0.0104,-0.0155 -0.0037,-0.0184 v -0.288 l 0.0037,-0.0184 0.0104,-0.0155 0.01552,-0.0104 0.0184,-0.004 h 1 l 0.0184,0.004 0.01552,0.0104 0.0104,0.0155 0.0037,0.0184 z"
     id="path68" /><path
     style="fill:none;fill-opacity:1;fill-rule:evenodd;stroke:#ff0000;stroke-width:0.02032;stroke-linecap:round;stroke-linejoin:round;stroke-dasharray:none;stroke-opacity:1"
     d="m 62.241947,148.969 -0.0037,0.0184 -0.0104,0.0155 -0.01552,0.0104 -0.0184,0.004 h -1 l -0.0184,-0.004 -0.01552,-0.0104 -0.0104,-0.0155 -0.0037,-0.0184 v -0.288 l 0.0037,-0.0184 0.0104,-0.0155 0.01552,-0.0104 0.0184,-0.004 h 1 l 0.0184,0.004 0.01552,0.0104 0.0104,0.0155 0.0037,0.0184 z"
     id="path69" /><path
     style="fill:none;fill-opacity:1;fill-rule:evenodd;stroke:#ff0000;stroke-width:0.02032;stroke-linecap:round;stroke-linejoin:round;stroke-dasharray:none;stroke-opacity:1"
     d="m 62.241947,149.619 -0.0037,0.0184 -0.0104,0.0155 -0.01552,0.0104 -0.0184,0.004 h -1 l -0.0184,-0.004 -0.01552,-0.0104 -0.0104,-0.0155 -0.0037,-0.0184 v -0.288 l 0.0037,-0.0184 0.0104,-0.0155 0.01552,-0.0104 0.0184,-0.004 h 1 l 0.0184,0.004 0.01552,0.0104 0.0104,0.0155 0.0037,0.0184 z"
     id="path70" /><path
     style="fill:none;fill-opacity:1;fill-rule:evenodd;stroke:#ff0000;stroke-width:0.02032;stroke-linecap:round;stroke-linejoin:round;stroke-dasharray:none;stroke-opacity:1"
     d="m 62.241947,150.269 -0.0037,0.0184 -0.0104,0.0155 -0.01552,0.0104 -0.0184,0.004 h -1 l -0.0184,-0.004 -0.01552,-0.0104 -0.0104,-0.0155 -0.0037,-0.0184 v -0.288 l 0.0037,-0.0184 0.0104,-0.0155 0.01552,-0.0104 0.0184,-0.004 h 1 l 0.0184,0.004 0.01552,0.0104 0.0104,0.0155 0.0037,0.0184 z"
     id="path71" /><path
     style="fill:none;fill-opacity:1;fill-rule:evenodd;stroke:#ff0000;stroke-width:0.0254;stroke-linecap:round;stroke-linejoin:round;stroke-dasharray:none;stroke-opacity:1"
     d="m 65.943947,153.9125 -0.0957,-0.019 -0.0811,-0.0542 -0.0542,-0.0811 -0.019,-0.0957 v -0.525 l 0.019,-0.0957 0.0542,-0.0811 0.0811,-0.0542 0.0957,-0.019 h 0.9 l 0.0957,0.019 0.0811,0.0542 0.0542,0.0811 0.019,0.0957 v 0.525 l -0.019,0.0957 -0.0542,0.0811 -0.0811,0.0542 -0.0957,0.019 z"
     id="path72" /><path
     style="fill:none;fill-opacity:1;fill-rule:evenodd;stroke:#ff0000;stroke-width:0.0254;stroke-linecap:round;stroke-linejoin:round;stroke-dasharray:none;stroke-opacity:1"
     d="m 65.943947,152.0875 -0.0957,-0.019 -0.0811,-0.0542 -0.0542,-0.0811 -0.019,-0.0957 v -0.525 l 0.019,-0.0957 0.0542,-0.0811 0.0811,-0.0542 0.0957,-0.019 h 0.9 l 0.0957,0.019 0.0811,0.0542 0.0542,0.0811 0.019,0.0957 v 0.525 l -0.019,0.0957 -0.0542,0.0811 -0.0811,0.0542 -0.0957,0.019 z"
     id="path73" /><path
     style="fill:none;fill-opacity:1;fill-rule:evenodd;stroke:#ff0000;stroke-width:0.0254;stroke-linecap:round;stroke-linejoin:round;stroke-dasharray:none;stroke-opacity:1"
     d="m 60.443947,140.5625 0.0957,0.019 0.0811,0.0542 0.0542,0.0811 0.019,0.0957 v 0.525 l -0.019,0.0957 -0.0542,0.0811 -0.0811,0.0542 -0.0957,0.019 h -0.9 l -0.0957,-0.019 -0.0811,-0.0542 -0.0542,-0.0811 -0.019,-0.0957 v -0.525 l 0.019,-0.0957 0.0542,-0.0811 0.0811,-0.0542 0.0957,-0.019 z"
     id="path74" /><path
     style="fill:none;fill-opacity:1;fill-rule:evenodd;stroke:#ff0000;stroke-width:0.0254;stroke-linecap:round;stroke-linejoin:round;stroke-dasharray:none;stroke-opacity:1"
     d="m 60.443947,142.3875 0.0957,0.019 0.0811,0.0542 0.0542,0.0811 0.019,0.0957 v 0.525 l -0.019,0.0957 -0.0542,0.0811 -0.0811,0.0542 -0.0957,0.019 h -0.9 l -0.0957,-0.019 -0.0811,-0.0542 -0.0542,-0.0811 -0.019,-0.0957 v -0.525 l 0.019,-0.0957 0.0542,-0.0811 0.0811,-0.0542 0.0957,-0.019 z"
     id="path75" /><path
     style="fill:none;fill-opacity:1;fill-rule:evenodd;stroke:#ff0000;stroke-width:0.0254;stroke-linecap:round;stroke-linejoin:round;stroke-dasharray:none;stroke-opacity:1"
     d="m 60.393947,138.275 -0.019,0.0957 -0.0542,0.0811 -0.0811,0.0542 -0.0957,0.019 h -0.5 l -0.0957,-0.019 -0.0811,-0.0542 -0.0542,-0.0811 -0.019,-0.0957 v -0.95 l 0.019,-0.0957 0.0542,-0.0811 0.0811,-0.0542 0.0957,-0.019 h 0.5 l 0.0957,0.019 0.0811,0.0542 0.0542,0.0811 0.019,0.0957 z"
     id="path76" /><path
     style="fill:none;fill-opacity:1;fill-rule:evenodd;stroke:#ff0000;stroke-width:0.0254;stroke-linecap:round;stroke-linejoin:round;stroke-dasharray:none;stroke-opacity:1"
     d="m 58.493947,138.275 -0.019,0.0957 -0.0542,0.0811 -0.0811,0.0542 -0.0957,0.019 h -0.5 l -0.0957,-0.019 -0.0811,-0.0542 -0.0542,-0.0811 -0.019,-0.0957 v -0.95 l 0.019,-0.0957 0.0542,-0.0811 0.0811,-0.0542 0.0957,-0.019 h 0.5 l 0.0957,0.019 0.0811,0.0542 0.0542,0.0811 0.019,0.0957 z"
     id="path77" /><path
     style="fill:none;fill-opacity:1;fill-rule:evenodd;stroke:#ff0000;stroke-width:0.0254;stroke-linecap:round;stroke-linejoin:round;stroke-dasharray:none;stroke-opacity:1"
     d="m 102.65895,133.0675 0.0116,-0.0584 0.0331,-0.0494 0.0494,-0.0331 0.0584,-0.0116 h 0.765 l 0.0584,0.0116 0.0494,0.0331 0.0331,0.0494 0.0116,0.0584 v 0.305 l -0.0116,0.0584 -0.0331,0.0494 -0.0494,0.0331 -0.0584,0.0116 h -0.765 l -0.0584,-0.0116 -0.0494,-0.0331 -0.0331,-0.0494 -0.0116,-0.0584 z"
     id="path78" /><path
     style="fill:none;fill-opacity:1;fill-rule:evenodd;stroke:#ff0000;stroke-width:0.0254;stroke-linecap:round;stroke-linejoin:round;stroke-dasharray:none;stroke-opacity:1"
     d="m 102.65895,134.0575 0.0116,-0.0584 0.0331,-0.0494 0.0494,-0.0331 0.0584,-0.0116 h 0.765 l 0.0584,0.0116 0.0494,0.0331 0.0331,0.0494 0.0116,0.0584 v 0.305 l -0.0116,0.0584 -0.0331,0.0494 -0.0494,0.0331 -0.0584,0.0116 h -0.765 l -0.0584,-0.0116 -0.0494,-0.0331 -0.0331,-0.0494 -0.0116,-0.0584 z"
     id="path79" /><path
     style="fill:none;fill-opacity:1;fill-rule:evenodd;stroke:#ff0000;stroke-width:0.0254;stroke-linecap:round;stroke-linejoin:round;stroke-dasharray:none;stroke-opacity:1"
     d="m 102.65895,135.0475 0.0116,-0.0584 0.0331,-0.0494 0.0494,-0.0331 0.0584,-0.0116 h 0.765 l 0.0584,0.0116 0.0494,0.0331 0.0331,0.0494 0.0116,0.0584 v 0.305 l -0.0116,0.0584 -0.0331,0.0494 -0.0494,0.0331 -0.0584,0.0116 h -0.765 l -0.0584,-0.0116 -0.0494,-0.0331 -0.0331,-0.0494 -0.0116,-0.0584 z"
     id="path80" /><path
     style="fill:none;fill-opacity:1;fill-rule:evenodd;stroke:#ff0000;stroke-width:0.0254;stroke-linecap:round;stroke-linejoin:round;stroke-dasharray:none;stroke-opacity:1"
     d="m 104.70895,135.0475 0.0116,-0.0584 0.0331,-0.0494 0.0494,-0.0331 0.0584,-0.0116 h 0.765 l 0.0584,0.0116 0.0494,0.0331 0.0331,0.0494 0.0116,0.0584 v 0.305 l -0.0116,0.0584 -0.0331,0.0494 -0.0494,0.0331 -0.0584,0.0116 h -0.765 l -0.0584,-0.0116 -0.0494,-0.0331 -0.0331,-0.0494 -0.0116,-0.0584 z"
     id="path81" /><path
     style="fill:none;fill-opacity:1;fill-rule:evenodd;stroke:#ff0000;stroke-width:0.0254;stroke-linecap:round;stroke-linejoin:round;stroke-dasharray:none;stroke-opacity:1"
     d="m 104.70895,134.0575 0.0116,-0.0584 0.0331,-0.0494 0.0494,-0.0331 0.0584,-0.0116 h 0.765 l 0.0584,0.0116 0.0494,0.0331 0.0331,0.0494 0.0116,0.0584 v 0.305 l -0.0116,0.0584 -0.0331,0.0494 -0.0494,0.0331 -0.0584,0.0116 h -0.765 l -0.0584,-0.0116 -0.0494,-0.0331 -0.0331,-0.0494 -0.0116,-0.0584 z"
     id="path82" /><path
     style="fill:none;fill-opacity:1;fill-rule:evenodd;stroke:#ff0000;stroke-width:0.0254;stroke-linecap:round;stroke-linejoin:round;stroke-dasharray:none;stroke-opacity:1"
     d="m 104.70895,133.0675 0.0116,-0.0584 0.0331,-0.0494 0.0494,-0.0331 0.0584,-0.0116 h 0.765 l 0.0584,0.0116 0.0494,0.0331 0.0331,0.0494 0.0116,0.0584 v 0.305 l -0.0116,0.0584 -0.0331,0.0494 -0.0494,0.0331 -0.0584,0.0116 h -0.765 l -0.0584,-0.0116 -0.0494,-0.0331 -0.0331,-0.0494 -0.0116,-0.0584 z"
     id="path83" /><path
     style="fill:none;fill-opacity:1;fill-rule:evenodd;stroke:#ff0000;stroke-width:0.0254;stroke-linecap:round;stroke-linejoin:round;stroke-dasharray:none;stroke-opacity:1"
     d="m 120.33145,128.125 -0.019,0.0957 -0.0542,0.0811 -0.0811,0.0542 -0.0957,0.019 h -1.575 l -0.0957,-0.019 -0.0811,-0.0542 -0.0542,-0.0811 -0.019,-0.0957 v -1.85 l 0.019,-0.0957 0.0542,-0.0811 0.0811,-0.0542 0.0957,-0.019 h 1.575 l 0.0957,0.019 0.0811,0.0542 0.0542,0.0811 0.019,0.0957 z"
     id="path84" /><path
     style="fill:none;fill-opacity:1;fill-rule:evenodd;stroke:#ff0000;stroke-width:0.0254;stroke-linecap:round;stroke-linejoin:round;stroke-dasharray:none;stroke-opacity:1"
     d="m 115.40645,128.125 -0.019,0.0957 -0.0542,0.0811 -0.0811,0.0542 -0.0957,0.019 h -1.575 l -0.0957,-0.019 -0.0811,-0.0542 -0.0542,-0.0811 -0.019,-0.0957 v -1.85 l 0.019,-0.0957 0.0542,-0.0811 0.0811,-0.0542 0.0957,-0.019 h 1.575 l 0.0957,0.019 0.0811,0.0542 0.0542,0.0811 0.019,0.0957 z"
     id="path85" /><path
     style="fill:none;fill-opacity:1;fill-rule:evenodd;stroke:#ff0000;stroke-width:0.0254;stroke-linecap:round;stroke-linejoin:round;stroke-dasharray:none;stroke-opacity:1"
     d="m 115.72395,169.075 -0.0861,-0.0171 -0.073,-0.0488 -0.0488,-0.073 -0.0171,-0.0861 v -0.45 l 0.0171,-0.0861 0.0488,-0.073 0.073,-0.0488 0.0861,-0.0171 h 0.5 l 0.0861,0.0171 0.073,0.0488 0.0488,0.073 0.0171,0.0861 v 0.45 l -0.0171,0.0861 -0.0488,0.073 -0.073,0.0488 -0.0861,0.0171 z"
     id="path86" /><path
     style="fill:none;fill-opacity:1;fill-rule:evenodd;stroke:#ff0000;stroke-width:0.0254;stroke-linecap:round;stroke-linejoin:round;stroke-dasharray:none;stroke-opacity:1"
     d="m 115.72395,167.525 -0.0861,-0.0171 -0.073,-0.0488 -0.0488,-0.073 -0.0171,-0.0861 v -0.45 l 0.0171,-0.0861 0.0488,-0.073 0.073,-0.0488 0.0861,-0.0171 h 0.5 l 0.0861,0.0171 0.073,0.0488 0.0488,0.073 0.0171,0.0861 v 0.45 l -0.0171,0.0861 -0.0488,0.073 -0.073,0.0488 -0.0861,0.0171 z"
     id="path87" /><path
     style="fill:none;fill-opacity:1;fill-rule:evenodd;stroke:#ff0000;stroke-width:0.0254;stroke-linecap:round;stroke-linejoin:round;stroke-dasharray:none;stroke-opacity:1"
     d="m 96.868947,125.6 0.0957,0.019 0.0811,0.0542 0.0542,0.0811 0.019,0.0957 v 0.5 l -0.019,0.0957 -0.0542,0.0811 -0.0811,0.0542 -0.0957,0.019 h -0.95 l -0.0957,-0.019 -0.0811,-0.0542 -0.0542,-0.0811 -0.019,-0.0957 v -0.5 l 0.019,-0.0957 0.0542,-0.0811 0.0811,-0.0542 0.0957,-0.019 z"
     id="path88" /><path
     style="fill:none;fill-opacity:1;fill-rule:evenodd;stroke:#ff0000;stroke-width:0.0254;stroke-linecap:round;stroke-linejoin:round;stroke-dasharray:none;stroke-opacity:1"
     d="m 96.868947,127.5 0.0957,0.019 0.0811,0.0542 0.0542,0.0811 0.019,0.0957 v 0.5 l -0.019,0.0957 -0.0542,0.0811 -0.0811,0.0542 -0.0957,0.019 h -0.95 l -0.0957,-0.019 -0.0811,-0.0542 -0.0542,-0.0811 -0.019,-0.0957 v -0.5 l 0.019,-0.0957 0.0542,-0.0811 0.0811,-0.0542 0.0957,-0.019 z"
     id="path89" /><path
     style="fill:none;fill-opacity:1;fill-rule:evenodd;stroke:#ff0000;stroke-width:0.0254;stroke-linecap:round;stroke-linejoin:round;stroke-dasharray:none;stroke-opacity:1"
     d="m 116.91045,152.7275 -0.0884,-0.0116 -0.1075,-0.0502 -0.0838,-0.0838 -0.0502,-0.1075 -0.0116,-0.0884 v -0.717 l 0.0116,-0.0884 0.0502,-0.1075 0.0838,-0.0838 0.1075,-0.0502 0.0884,-0.0116 h 0.717 l 0.0884,0.0116 0.1075,0.0502 0.0838,0.0838 0.0502,0.1075 0.0116,0.0884 v 0.717 l -0.0116,0.0884 -0.0502,0.1075 -0.0838,0.0838 -0.1075,0.0502 -0.0884,0.0116 z"
     id="path90" /><path
     style="fill:none;fill-opacity:1;fill-rule:evenodd;stroke:#ff0000;stroke-width:0.0254;stroke-linecap:round;stroke-linejoin:round;stroke-dasharray:none;stroke-opacity:1"
     d="m 116.81895,150.715 -0.0957,-0.019 -0.0811,-0.0542 -0.0542,-0.0811 -0.019,-0.0957 v -0.525 l 0.019,-0.0957 0.0542,-0.0811 0.0811,-0.0542 0.0957,-0.019 h 0.9 l 0.0957,0.019 0.0811,0.0542 0.0542,0.0811 0.019,0.0957 v 0.525 l -0.019,0.0957 -0.0542,0.0811 -0.0811,0.0542 -0.0957,0.019 z"
     id="path91" /><path
     style="fill:none;fill-opacity:1;fill-rule:evenodd;stroke:#ff0000;stroke-width:0.0254;stroke-linecap:round;stroke-linejoin:round;stroke-dasharray:none;stroke-opacity:1"
     d="m 129.59395,124.975 -0.019,0.0957 -0.0542,0.0811 -0.0811,0.0542 -0.0957,0.019 h -0.5 l -0.0957,-0.019 -0.0811,-0.0542 -0.0542,-0.0811 -0.019,-0.0957 v -0.95 l 0.019,-0.0957 0.0542,-0.0811 0.0811,-0.0542 0.0957,-0.019 h 0.5 l 0.0957,0.019 0.0811,0.0542 0.0542,0.0811 0.019,0.0957 z"
     id="path93" /><path
     style="fill:none;fill-opacity:1;fill-rule:evenodd;stroke:#ff0000;stroke-width:0.0254;stroke-linecap:round;stroke-linejoin:round;stroke-dasharray:none;stroke-opacity:1"
     d="m 127.69395,124.975 -0.019,0.0957 -0.0542,0.0811 -0.0811,0.0542 -0.0957,0.019 h -0.5 l -0.0957,-0.019 -0.0811,-0.0542 -0.0542,-0.0811 -0.019,-0.0957 v -0.95 l 0.019,-0.0957 0.0542,-0.0811 0.0811,-0.0542 0.0957,-0.019 h 0.5 l 0.0957,0.019 0.0811,0.0542 0.0542,0.0811 0.019,0.0957 z"
     id="path94" /><path
     style="fill:none;fill-opacity:1;fill-rule:evenodd;stroke:#ff0000;stroke-width:0.0254;stroke-linecap:round;stroke-linejoin:round;stroke-dasharray:none;stroke-opacity:1"
     d="m 129.50645,121.45 -0.019,0.0957 -0.0542,0.0811 -0.0811,0.0542 -0.0957,0.019 h -0.525 l -0.0957,-0.019 -0.0811,-0.0542 -0.0542,-0.0811 -0.019,-0.0957 v -0.9 l 0.019,-0.0957 0.0542,-0.0811 0.0811,-0.0542 0.0957,-0.019 h 0.525 l 0.0957,0.019 0.0811,0.0542 0.0542,0.0811 0.019,0.0957 z"
     id="path95" /><path
     style="fill:none;fill-opacity:1;fill-rule:evenodd;stroke:#ff0000;stroke-width:0.0254;stroke-linecap:round;stroke-linejoin:round;stroke-dasharray:none;stroke-opacity:1"
     d="m 127.68145,121.45 -0.019,0.0957 -0.0542,0.0811 -0.0811,0.0542 -0.0957,0.019 h -0.525 l -0.0957,-0.019 -0.0811,-0.0542 -0.0542,-0.0811 -0.019,-0.0957 v -0.9 l 0.019,-0.0957 0.0542,-0.0811 0.0811,-0.0542 0.0957,-0.019 h 0.525 l 0.0957,0.019 0.0811,0.0542 0.0542,0.0811 0.019,0.0957 z"
     id="path96" /><path
     style="fill:none;fill-opacity:1;fill-rule:evenodd;stroke:#ff0000;stroke-width:0.0254;stroke-linecap:round;stroke-linejoin:round;stroke-dasharray:none;stroke-opacity:1"
     d="m 116.15175,173.7794 h -0.3556 v -0.5588 h 0.3556 z"
     id="path97" /><path
     style="fill:none;fill-opacity:1;fill-rule:evenodd;stroke:#ff0000;stroke-width:0.02032;stroke-linecap:round;stroke-linejoin:round;stroke-dasharray:none;stroke-opacity:1"
     d="m 115.54977,171.97346 v 0.99568 h -0.44704 v -0.99568 z"
     id="path98" /><path
     style="fill:none;fill-opacity:1;fill-rule:evenodd;stroke:#ff0000;stroke-width:0.0254;stroke-linecap:round;stroke-linejoin:round;stroke-dasharray:none;stroke-opacity:1"
     d="m 116.15175,171.722 h -0.3556 v -0.5588 h 0.3556 z"
     id="path99" /><path
     style="fill:none;fill-opacity:1;fill-rule:evenodd;stroke:#ff0000;stroke-width:0.02032;stroke-linecap:round;stroke-linejoin:round;stroke-dasharray:none;stroke-opacity:1"
     d="m 116.84517,171.97346 v 0.99568 h -0.44704 v -0.99568 z"
     id="path100" /><path
     style="fill:none;fill-opacity:1;fill-rule:evenodd;stroke:#ff0000;stroke-width:0.02413;stroke-linecap:round;stroke-linejoin:round;stroke-dasharray:none;stroke-opacity:1"
     d="m 68.285997,159.08476 0.0053,-0.0268 0.0152,-0.0227 0.02271,-0.0152 0.02679,-0.006 h 1.009375 l 0.02689,0.006 0.0227,0.0152 0.0152,0.0227 0.0053,0.0268 v 0.42038 l -0.0053,0.0269 -0.0152,0.0227 -0.0227,0.0152 -0.02689,0.006 h -1.009375 l -0.02679,-0.006 -0.02271,-0.0152 -0.0152,-0.0227 -0.0053,-0.0269 z"
     id="path101" /><path
     style="fill:none;fill-opacity:1;fill-rule:evenodd;stroke:#ff0000;stroke-width:0.02413;stroke-linecap:round;stroke-linejoin:round;stroke-dasharray:none;stroke-opacity:1"
     d="m 68.285997,160.03476 0.0053,-0.0268 0.0152,-0.0227 0.02271,-0.0152 0.02679,-0.006 h 1.009375 l 0.02689,0.006 0.0227,0.0152 0.0152,0.0227 0.0053,0.0268 v 0.42038 l -0.0053,0.0269 -0.0152,0.0227 -0.0227,0.0152 -0.02689,0.006 h -1.009375 l -0.02679,-0.006 -0.02271,-0.0152 -0.0152,-0.0227 -0.0053,-0.0269 z"
     id="path102" /><path
     style="fill:none;fill-opacity:1;fill-rule:evenodd;stroke:#ff0000;stroke-width:0.02413;stroke-linecap:round;stroke-linejoin:round;stroke-dasharray:none;stroke-opacity:1"
     d="m 68.285997,160.98476 0.0053,-0.0268 0.0152,-0.0227 0.02271,-0.0152 0.02679,-0.006 h 1.009375 l 0.02689,0.006 0.0227,0.0152 0.0152,0.0227 0.0053,0.0268 v 0.42038 l -0.0053,0.0269 -0.0152,0.0227 -0.0227,0.0152 -0.02689,0.006 h -1.009375 l -0.02679,-0.006 -0.02271,-0.0152 -0.0152,-0.0227 -0.0053,-0.0269 z"
     id="path103" /><path
     style="fill:none;fill-opacity:1;fill-rule:evenodd;stroke:#ff0000;stroke-width:0.02413;stroke-linecap:round;stroke-linejoin:round;stroke-dasharray:none;stroke-opacity:1"
     d="m 70.795997,160.98476 0.0053,-0.0268 0.0152,-0.0227 0.02271,-0.0152 0.02688,-0.006 h 1.009375 l 0.02679,0.006 0.02271,0.0152 0.0152,0.0227 0.0053,0.0268 v 0.42038 l -0.0053,0.0269 -0.0152,0.0227 -0.02271,0.0152 -0.02679,0.006 h -1.009375 l -0.02688,-0.006 -0.02271,-0.0152 -0.0152,-0.0227 -0.0053,-0.0269 z"
     id="path104" /><path
     style="fill:none;fill-opacity:1;fill-rule:evenodd;stroke:#ff0000;stroke-width:0.02413;stroke-linecap:round;stroke-linejoin:round;stroke-dasharray:none;stroke-opacity:1"
     d="m 70.795997,159.08476 0.0053,-0.0268 0.0152,-0.0227 0.02271,-0.0152 0.02688,-0.006 h 1.009375 l 0.02679,0.006 0.02271,0.0152 0.0152,0.0227 0.0053,0.0268 v 0.42038 l -0.0053,0.0269 -0.0152,0.0227 -0.02271,0.0152 -0.02679,0.006 h -1.009375 l -0.02688,-0.006 -0.02271,-0.0152 -0.0152,-0.0227 -0.0053,-0.0269 z"
     id="path105" /><path
     style="fill:none;fill-opacity:1;fill-rule:evenodd;stroke:#ff0000;stroke-width:0.0254;stroke-linecap:round;stroke-linejoin:round;stroke-dasharray:none;stroke-opacity:1"
     d="m 93.593947,148.35 0.019,-0.0957 0.0542,-0.0811 0.0811,-0.0542 0.0957,-0.019 h 0.5 l 0.0957,0.019 0.0811,0.0542 0.0542,0.0811 0.019,0.0957 v 0.95 l -0.019,0.0957 -0.0542,0.0811 -0.0811,0.0542 -0.0957,0.019 h -0.5 l -0.0957,-0.019 -0.0811,-0.0542 -0.0542,-0.0811 -0.019,-0.0957 z"
     id="path106" /><path
     style="fill:none;fill-opacity:1;fill-rule:evenodd;stroke:#ff0000;stroke-width:0.0254;stroke-linecap:round;stroke-linejoin:round;stroke-dasharray:none;stroke-opacity:1"
     d="m 95.493947,148.35 0.019,-0.0957 0.0542,-0.0811 0.0811,-0.0542 0.0957,-0.019 h 0.5 l 0.0957,0.019 0.0811,0.0542 0.0542,0.0811 0.019,0.0957 v 0.95 l -0.019,0.0957 -0.0542,0.0811 -0.0811,0.0542 -0.0957,0.019 h -0.5 l -0.0957,-0.019 -0.0811,-0.0542 -0.0542,-0.0811 -0.019,-0.0957 z"
     id="path107" /><path
     style="fill:none;fill-opacity:1;fill-rule:evenodd;stroke:#ff0000;stroke-width:0.0254;stroke-linecap:round;stroke-linejoin:round;stroke-dasharray:none;stroke-opacity:1"
     d="m 142.04465,131.2274 h -0.554 v -0.2548 h 0.554 z"
     id="path108" /><path
     style="fill:none;fill-opacity:1;fill-rule:evenodd;stroke:#ff0000;stroke-width:0.02032;stroke-linecap:round;stroke-linejoin:round;stroke-dasharray:none;stroke-opacity:1"
     d="m 143.29211,131.5237 v 0.4432 h -0.99632 v -0.4432 z"
     id="path109" /><path
     style="fill:none;fill-opacity:1;fill-rule:evenodd;stroke:#ff0000;stroke-width:0.0254;stroke-linecap:round;stroke-linejoin:round;stroke-dasharray:none;stroke-opacity:1"
     d="m 144.09725,131.2274 h -0.554 v -0.2548 h 0.554 z"
     id="path110" /><path
     style="fill:none;fill-opacity:1;fill-rule:evenodd;stroke:#ff0000;stroke-width:0.02032;stroke-linecap:round;stroke-linejoin:round;stroke-dasharray:none;stroke-opacity:1"
     d="m 143.29211,130.2331 v 0.4432 h -0.99632 v -0.4432 z"
     id="path111" /><path
     style="fill:none;fill-opacity:1;fill-rule:evenodd;stroke:#ff0000;stroke-width:0.0254;stroke-linecap:round;stroke-linejoin:round;stroke-dasharray:none;stroke-opacity:1"
     d="m 87.915747,136.52 v -0.58 h 0.5 v 0.58 z"
     id="path112" /><path
     style="fill:none;fill-opacity:1;fill-rule:evenodd;stroke:#ff0000;stroke-width:0.0254;stroke-linecap:round;stroke-linejoin:round;stroke-dasharray:none;stroke-opacity:1"
     d="m 89.715747,136.52 h -0.8 v -0.58 h 0.8 z"
     id="path113" /><path
     style="fill:none;fill-opacity:1;fill-rule:evenodd;stroke:#ff0000;stroke-width:0.0254;stroke-linecap:round;stroke-linejoin:round;stroke-dasharray:none;stroke-opacity:1"
     d="m 89.215747,134.5 v -0.58 h 0.5 v 0.58 z"
     id="path114" /><path
     style="fill:none;fill-opacity:1;fill-rule:evenodd;stroke:#ff0000;stroke-width:0.0254;stroke-linecap:round;stroke-linejoin:round;stroke-dasharray:none;stroke-opacity:1"
     d="m 87.915747,134.5 v -0.58 h 0.5 v 0.58 z"
     id="path115" /><path
     style="fill:none;fill-opacity:1;fill-rule:evenodd;stroke:#ff0000;stroke-width:0.0254;stroke-linecap:round;stroke-linejoin:round;stroke-dasharray:none;stroke-opacity:1"
     d="m 102.80645,148.5687 0.0167,-0.0837 0.0474,-0.0709 0.0709,-0.0474 0.0837,-0.0167 h 0.4375 l 0.0838,0.0167 0.0709,0.0474 0.0474,0.0709 0.0167,0.0837 v 0.5125 l -0.0167,0.0838 -0.0474,0.0709 -0.0709,0.0474 -0.0838,0.0167 h -0.4375 l -0.0837,-0.0167 -0.0709,-0.0474 -0.0474,-0.0709 -0.0167,-0.0838 z"
     id="path116" /><path
     style="fill:none;fill-opacity:1;fill-rule:evenodd;stroke:#ff0000;stroke-width:0.0254;stroke-linecap:round;stroke-linejoin:round;stroke-dasharray:none;stroke-opacity:1"
     d="m 104.38145,148.5687 0.0167,-0.0837 0.0474,-0.0709 0.0709,-0.0474 0.0837,-0.0167 h 0.4376 l 0.0837,0.0167 0.0709,0.0474 0.0474,0.0709 0.0167,0.0837 v 0.5125 l -0.0167,0.0838 -0.0474,0.0709 -0.0709,0.0474 -0.0837,0.0167 h -0.4376 l -0.0837,-0.0167 -0.0709,-0.0474 -0.0474,-0.0709 -0.0167,-0.0838 z"
     id="path117" /><path
     style="fill:none;fill-opacity:1;fill-rule:evenodd;stroke:#ff0000;stroke-width:0.02413;stroke-linecap:round;stroke-linejoin:round;stroke-dasharray:none;stroke-opacity:1"
     d="m 110.71958,122.15412 h -0.45125 v -0.35625 h 0.45125 z"
     id="path118" /><path
     style="fill:none;fill-opacity:1;fill-rule:evenodd;stroke:#ff0000;stroke-width:0.02413;stroke-linecap:round;stroke-linejoin:round;stroke-dasharray:none;stroke-opacity:1"
     d="m 110.71958,121.47813 h -0.45125 v -0.35625 h 0.45125 z"
     id="path119" /><path
     style="fill:none;fill-opacity:1;fill-rule:evenodd;stroke:#ff0000;stroke-width:0.02413;stroke-linecap:round;stroke-linejoin:round;stroke-dasharray:none;stroke-opacity:1"
     d="m 109.74558,121.47813 h -0.45125 v -0.35625 h 0.45125 z"
     id="path120" /><path
     style="fill:none;fill-opacity:1;fill-rule:evenodd;stroke:#ff0000;stroke-width:0.02413;stroke-linecap:round;stroke-linejoin:round;stroke-dasharray:none;stroke-opacity:1"
     d="m 109.74558,122.15412 h -0.45125 v -0.35625 h 0.45125 z"
     id="path121" /><path
     style="fill:none;fill-opacity:1;fill-rule:evenodd;stroke:#ff0000;stroke-width:0.0254;stroke-linecap:round;stroke-linejoin:round;stroke-dasharray:none;stroke-opacity:1"
     d="m 88.056447,152.65 0.019,-0.0957 0.0542,-0.0811 0.0811,-0.0542 0.0957,-0.019 h 0.525 l 0.0957,0.019 0.0811,0.0542 0.0542,0.0811 0.019,0.0957 v 0.9 l -0.019,0.0957 -0.0542,0.0811 -0.0811,0.0542 -0.0957,0.019 h -0.525 l -0.0957,-0.019 -0.0811,-0.0542 -0.0542,-0.0811 -0.019,-0.0957 z"
     id="path122" /><path
     style="fill:none;fill-opacity:1;fill-rule:evenodd;stroke:#ff0000;stroke-width:0.0254;stroke-linecap:round;stroke-linejoin:round;stroke-dasharray:none;stroke-opacity:1"
     d="m 89.881447,152.65 0.019,-0.0957 0.0542,-0.0811 0.0811,-0.0542 0.0957,-0.019 h 0.525 l 0.0957,0.019 0.0811,0.0542 0.0542,0.0811 0.019,0.0957 v 0.9 l -0.019,0.0957 -0.0542,0.0811 -0.0811,0.0542 -0.0957,0.019 h -0.525 l -0.0957,-0.019 -0.0811,-0.0542 -0.0542,-0.0811 -0.019,-0.0957 z"
     id="path123" /><path
     style="fill:none;fill-opacity:1;fill-rule:evenodd;stroke:#ff0000;stroke-width:0.0254;stroke-linecap:round;stroke-linejoin:round;stroke-dasharray:none;stroke-opacity:1"
     d="m 108.76995,115.425 0.0156,-0.107 0.0542,-0.1109 0.0873,-0.0873 0.1109,-0.0542 0.107,-0.0156 h 0.75 l 0.107,0.0156 0.1109,0.0542 0.0873,0.0873 0.0542,0.1109 0.0156,0.107 v 3.15 l -0.0156,0.107 -0.0542,0.1109 -0.0873,0.0873 -0.1109,0.0542 -0.107,0.0156 h -0.75 l -0.107,-0.0156 -0.1109,-0.0542 -0.0873,-0.0873 -0.0542,-0.1109 -0.0156,-0.107 z"
     id="path124" /><path
     style="fill:none;fill-opacity:1;fill-rule:evenodd;stroke:#ff0000;stroke-width:0.0254;stroke-linecap:round;stroke-linejoin:round;stroke-dasharray:none;stroke-opacity:1"
     d="m 105.99495,115.425 0.0156,-0.107 0.0542,-0.1109 0.0873,-0.0873 0.1109,-0.0542 0.107,-0.0156 h 0.75 l 0.107,0.0156 0.1109,0.0542 0.0873,0.0873 0.0542,0.1109 0.0156,0.107 v 3.15 l -0.0156,0.107 -0.0542,0.1109 -0.0873,0.0873 -0.1109,0.0542 -0.107,0.0156 h -0.75 l -0.107,-0.0156 -0.1109,-0.0542 -0.0873,-0.0873 -0.0542,-0.1109 -0.0156,-0.107 z"
     id="path125" /><path
     style="fill:none;fill-opacity:1;fill-rule:evenodd;stroke:#ff0000;stroke-width:0.0254;stroke-linecap:round;stroke-linejoin:round;stroke-dasharray:none;stroke-opacity:1"
     d="m 111.54495,115.425 0.0156,-0.107 0.0542,-0.1109 0.0873,-0.0873 0.1109,-0.0542 0.107,-0.0156 h 0.75 l 0.107,0.0156 0.1109,0.0542 0.0873,0.0873 0.0542,0.1109 0.0156,0.107 v 3.15 l -0.0156,0.107 -0.0542,0.1109 -0.0873,0.0873 -0.1109,0.0542 -0.107,0.0156 h -0.75 l -0.107,-0.0156 -0.1109,-0.0542 -0.0873,-0.0873 -0.0542,-0.1109 -0.0156,-0.107 z"
     id="path126" /><path
     style="fill:none;fill-opacity:1;fill-rule:evenodd;stroke:#ff0000;stroke-width:0.0254;stroke-linecap:round;stroke-linejoin:round;stroke-dasharray:none;stroke-opacity:1"
     d="m 89.943947,149.3375 -0.0957,-0.019 -0.0811,-0.0542 -0.0542,-0.0811 -0.019,-0.0957 v -0.525 l 0.019,-0.0957 0.0542,-0.0811 0.0811,-0.0542 0.0957,-0.019 h 0.9 l 0.0957,0.019 0.0811,0.0542 0.0542,0.0811 0.019,0.0957 v 0.525 l -0.019,0.0957 -0.0542,0.0811 -0.0811,0.0542 -0.0957,0.019 z"
     id="path127" /><path
     style="fill:none;fill-opacity:1;fill-rule:evenodd;stroke:#ff0000;stroke-width:0.0254;stroke-linecap:round;stroke-linejoin:round;stroke-dasharray:none;stroke-opacity:1"
     d="m 89.943947,147.5125 -0.0957,-0.019 -0.0811,-0.0542 -0.0542,-0.0811 -0.019,-0.0957 v -0.525 l 0.019,-0.0957 0.0542,-0.0811 0.0811,-0.0542 0.0957,-0.019 h 0.9 l 0.0957,0.019 0.0811,0.0542 0.0542,0.0811 0.019,0.0957 v 0.525 l -0.019,0.0957 -0.0542,0.0811 -0.0811,0.0542 -0.0957,0.019 z"
     id="path128" /><path
     style="fill:none;fill-opacity:1;fill-rule:evenodd;stroke:#ff0000;stroke-width:0.0254;stroke-linecap:round;stroke-linejoin:round;stroke-dasharray:none;stroke-opacity:1"
     d="m 142.09395,134.975 -0.019,0.0957 -0.0542,0.0811 -0.0811,0.0542 -0.0957,0.019 h -0.5 l -0.0957,-0.019 -0.0811,-0.0542 -0.0542,-0.0811 -0.019,-0.0957 v -0.95 l 0.019,-0.0957 0.0542,-0.0811 0.0811,-0.0542 0.0957,-0.019 h 0.5 l 0.0957,0.019 0.0811,0.0542 0.0542,0.0811 0.019,0.0957 z"
     id="path129" /><path
     style="fill:none;fill-opacity:1;fill-rule:evenodd;stroke:#ff0000;stroke-width:0.0254;stroke-linecap:round;stroke-linejoin:round;stroke-dasharray:none;stroke-opacity:1"
     d="m 140.19395,134.975 -0.019,0.0957 -0.0542,0.0811 -0.0811,0.0542 -0.0957,0.019 h -0.5 l -0.0957,-0.019 -0.0811,-0.0542 -0.0542,-0.0811 -0.019,-0.0957 v -0.95 l 0.019,-0.0957 0.0542,-0.0811 0.0811,-0.0542 0.0957,-0.019 h 0.5 l 0.0957,0.019 0.0811,0.0542 0.0542,0.0811 0.019,0.0957 z"
     id="path130" /><path
     style="fill:none;fill-opacity:1;fill-rule:evenodd;stroke:#ff0000;stroke-width:0.0254;stroke-linecap:round;stroke-linejoin:round;stroke-dasharray:none;stroke-opacity:1"
     d="m 145.84395,115.425 0.0156,-0.107 0.0542,-0.1109 0.0873,-0.0873 0.1109,-0.0542 0.107,-0.0156 h 0.75 l 0.107,0.0156 0.1109,0.0542 0.0873,0.0873 0.0542,0.1109 0.0156,0.107 v 3.15 l -0.0156,0.107 -0.0542,0.1109 -0.0873,0.0873 -0.1109,0.0542 -0.107,0.0156 h -0.75 l -0.107,-0.0156 -0.1109,-0.0542 -0.0873,-0.0873 -0.0542,-0.1109 -0.0156,-0.107 z"
     id="path131" /><path
     style="fill:none;fill-opacity:1;fill-rule:evenodd;stroke:#ff0000;stroke-width:0.0254;stroke-linecap:round;stroke-linejoin:round;stroke-dasharray:none;stroke-opacity:1"
     d="m 143.06895,115.425 0.0156,-0.107 0.0542,-0.1109 0.0873,-0.0873 0.1109,-0.0542 0.107,-0.0156 h 0.75 l 0.107,0.0156 0.1109,0.0542 0.0873,0.0873 0.0542,0.1109 0.0156,0.107 v 3.15 l -0.0156,0.107 -0.0542,0.1109 -0.0873,0.0873 -0.1109,0.0542 -0.107,0.0156 h -0.75 l -0.107,-0.0156 -0.1109,-0.0542 -0.0873,-0.0873 -0.0542,-0.1109 -0.0156,-0.107 z"
     id="path132" /><path
     style="fill:none;fill-opacity:1;fill-rule:evenodd;stroke:#ff0000;stroke-width:0.0254;stroke-linecap:round;stroke-linejoin:round;stroke-dasharray:none;stroke-opacity:1"
     d="m 148.61895,115.425 0.0156,-0.107 0.0542,-0.1109 0.0873,-0.0873 0.1109,-0.0542 0.107,-0.0156 h 0.75 l 0.107,0.0156 0.1109,0.0542 0.0873,0.0873 0.0542,0.1109 0.0156,0.107 v 3.15 l -0.0156,0.107 -0.0542,0.1109 -0.0873,0.0873 -0.1109,0.0542 -0.107,0.0156 h -0.75 l -0.107,-0.0156 -0.1109,-0.0542 -0.0873,-0.0873 -0.0542,-0.1109 -0.0156,-0.107 z"
     id="path133" /><path
     style="fill:none;fill-opacity:1;fill-rule:evenodd;stroke:#ff0000;stroke-width:0.02413;stroke-linecap:round;stroke-linejoin:round;stroke-dasharray:none;stroke-opacity:1"
     d="m 147.79358,122.47812 h -0.45125 v -0.35625 h 0.45125 z"
     id="path134" /><path
     style="fill:none;fill-opacity:1;fill-rule:evenodd;stroke:#ff0000;stroke-width:0.02413;stroke-linecap:round;stroke-linejoin:round;stroke-dasharray:none;stroke-opacity:1"
     d="m 147.79358,121.80213 h -0.45125 v -0.35625 h 0.45125 z"
     id="path135" /><path
     style="fill:none;fill-opacity:1;fill-rule:evenodd;stroke:#ff0000;stroke-width:0.02413;stroke-linecap:round;stroke-linejoin:round;stroke-dasharray:none;stroke-opacity:1"
     d="m 146.81957,121.80213 h -0.45125 v -0.35625 h 0.45125 z"
     id="path136" /><path
     style="fill:none;fill-opacity:1;fill-rule:evenodd;stroke:#ff0000;stroke-width:0.02413;stroke-linecap:round;stroke-linejoin:round;stroke-dasharray:none;stroke-opacity:1"
     d="m 146.81957,122.47812 h -0.45125 v -0.35625 h 0.45125 z"
     id="path137" /><path
     style="fill:none;fill-opacity:1;fill-rule:evenodd;stroke:#ff0000;stroke-width:0.0254;stroke-linecap:round;stroke-linejoin:round;stroke-dasharray:none;stroke-opacity:1"
     d="m 107.34395,151 -0.0861,-0.0171 -0.073,-0.0488 -0.0488,-0.073 -0.0171,-0.0861 v -0.45 l 0.0171,-0.0861 0.0488,-0.073 0.073,-0.0488 0.0861,-0.0171 h 0.5 l 0.0861,0.0171 0.073,0.0488 0.0488,0.073 0.0171,0.0861 v 0.45 l -0.0171,0.0861 -0.0488,0.073 -0.073,0.0488 -0.0861,0.0171 z"
     id="path138" /><path
     style="fill:none;fill-opacity:1;fill-rule:evenodd;stroke:#ff0000;stroke-width:0.0254;stroke-linecap:round;stroke-linejoin:round;stroke-dasharray:none;stroke-opacity:1"
     d="m 107.34395,149.45 -0.0861,-0.0171 -0.073,-0.0488 -0.0488,-0.073 -0.0171,-0.0861 v -0.45 l 0.0171,-0.0861 0.0488,-0.073 0.073,-0.0488 0.0861,-0.0171 h 0.5 l 0.0861,0.0171 0.073,0.0488 0.0488,0.073 0.0171,0.0861 v 0.45 l -0.0171,0.0861 -0.0488,0.073 -0.073,0.0488 -0.0861,0.0171 z"
     id="path139" /><path
     style="fill:none;fill-opacity:1;fill-rule:evenodd;stroke:#ff0000;stroke-width:0.0254;stroke-linecap:round;stroke-linejoin:round;stroke-dasharray:none;stroke-opacity:1"
     d="m 126.53145,159.35 -0.019,0.0957 -0.0542,0.0811 -0.0811,0.0542 -0.0957,0.019 h -0.525 l -0.0957,-0.019 -0.0811,-0.0542 -0.0542,-0.0811 -0.019,-0.0957 v -0.9 l 0.019,-0.0957 0.0542,-0.0811 0.0811,-0.0542 0.0957,-0.019 h 0.525 l 0.0957,0.019 0.0811,0.0542 0.0542,0.0811 0.019,0.0957 z"
     id="path140" /><path
     style="fill:none;fill-opacity:1;fill-rule:evenodd;stroke:#ff0000;stroke-width:0.0254;stroke-linecap:round;stroke-linejoin:round;stroke-dasharray:none;stroke-opacity:1"
     d="m 124.70645,159.35 -0.019,0.0957 -0.0542,0.0811 -0.0811,0.0542 -0.0957,0.019 h -0.525 l -0.0957,-0.019 -0.0811,-0.0542 -0.0542,-0.0811 -0.019,-0.0957 v -0.9 l 0.019,-0.0957 0.0542,-0.0811 0.0811,-0.0542 0.0957,-0.019 h 0.525 l 0.0957,0.019 0.0811,0.0542 0.0542,0.0811 0.019,0.0957 z"
     id="path141" /><path
     style="fill:none;fill-opacity:1;fill-rule:evenodd;stroke:#ff0000;stroke-width:0.02413;stroke-linecap:round;stroke-linejoin:round;stroke-dasharray:none;stroke-opacity:1"
     d="m 117.28383,134.41962 v -0.45125 h 0.35624 v 0.45125 z"
     id="path142" /><path
     style="fill:none;fill-opacity:1;fill-rule:evenodd;stroke:#ff0000;stroke-width:0.02413;stroke-linecap:round;stroke-linejoin:round;stroke-dasharray:none;stroke-opacity:1"
     d="m 117.95982,134.41963 v -0.45126 h 0.35625 v 0.45126 z"
     id="path143" /><path
     style="fill:none;fill-opacity:1;fill-rule:evenodd;stroke:#ff0000;stroke-width:0.02413;stroke-linecap:round;stroke-linejoin:round;stroke-dasharray:none;stroke-opacity:1"
     d="m 117.95982,133.44562 v -0.45124 h 0.35625 v 0.45124 z"
     id="path144" /><path
     style="fill:none;fill-opacity:1;fill-rule:evenodd;stroke:#ff0000;stroke-width:0.02413;stroke-linecap:round;stroke-linejoin:round;stroke-dasharray:none;stroke-opacity:1"
     d="m 117.28383,133.44562 v -0.45124 h 0.35624 v 0.45124 z"
     id="path145" /><path
     style="fill:none;fill-opacity:1;fill-rule:evenodd;stroke:#ff0000;stroke-width:0.0254;stroke-linecap:round;stroke-linejoin:round;stroke-dasharray:none;stroke-opacity:1"
     d="m 153.56895,130.35 0.107,0.0156 0.1109,0.0542 0.0873,0.0873 0.0542,0.1109 0.0156,0.107 v 0.75 l -0.0156,0.107 -0.0542,0.1109 -0.0873,0.0873 -0.1109,0.0542 -0.107,0.0156 h -3.15 l -0.107,-0.0156 -0.1109,-0.0542 -0.0873,-0.0873 -0.0542,-0.1109 -0.0156,-0.107 v -0.75 l 0.0156,-0.107 0.0542,-0.1109 0.0873,-0.0873 0.1109,-0.0542 0.107,-0.0156 z"
     id="path146" /><path
     style="fill:none;fill-opacity:1;fill-rule:evenodd;stroke:#ff0000;stroke-width:0.0254;stroke-linecap:round;stroke-linejoin:round;stroke-dasharray:none;stroke-opacity:1"
     d="m 153.56895,127.575 0.107,0.0156 0.1109,0.0542 0.0873,0.0873 0.0542,0.1109 0.0156,0.107 v 0.75 l -0.0156,0.107 -0.0542,0.1109 -0.0873,0.0873 -0.1109,0.0542 -0.107,0.0156 h -3.15 l -0.107,-0.0156 -0.1109,-0.0542 -0.0873,-0.0873 -0.0542,-0.1109 -0.0156,-0.107 v -0.75 l 0.0156,-0.107 0.0542,-0.1109 0.0873,-0.0873 0.1109,-0.0542 0.107,-0.0156 z"
     id="path147" /><path
     style="fill:none;fill-opacity:1;fill-rule:evenodd;stroke:#ff0000;stroke-width:0.0254;stroke-linecap:round;stroke-linejoin:round;stroke-dasharray:none;stroke-opacity:1"
     d="m 153.56895,133.125 0.107,0.0156 0.1109,0.0542 0.0873,0.0873 0.0542,0.1109 0.0156,0.107 v 0.75 l -0.0156,0.107 -0.0542,0.1109 -0.0873,0.0873 -0.1109,0.0542 -0.107,0.0156 h -3.15 l -0.107,-0.0156 -0.1109,-0.0542 -0.0873,-0.0873 -0.0542,-0.1109 -0.0156,-0.107 v -0.75 l 0.0156,-0.107 0.0542,-0.1109 0.0873,-0.0873 0.1109,-0.0542 0.107,-0.0156 z"
     id="path148" /><path
     style="fill:none;fill-opacity:1;fill-rule:evenodd;stroke:#ff0000;stroke-width:0.0254;stroke-linecap:round;stroke-linejoin:round;stroke-dasharray:none;stroke-opacity:1"
     d="m 83.090747,135.98 0.0171,-0.0861 0.0488,-0.073 0.073,-0.0488 0.0861,-0.0171 h 0.45 l 0.0861,0.0171 0.073,0.0488 0.0488,0.073 0.0171,0.0861 v 0.5 l -0.0171,0.0861 -0.0488,0.073 -0.073,0.0488 -0.0861,0.0171 h -0.45 l -0.0861,-0.0171 -0.073,-0.0488 -0.0488,-0.073 -0.0171,-0.0861 z"
     id="path149" /><path
     style="fill:none;fill-opacity:1;fill-rule:evenodd;stroke:#ff0000;stroke-width:0.0254;stroke-linecap:round;stroke-linejoin:round;stroke-dasharray:none;stroke-opacity:1"
     d="m 84.640747,135.98 0.0171,-0.0861 0.0488,-0.073 0.073,-0.0488 0.0861,-0.0171 h 0.45 l 0.0861,0.0171 0.073,0.0488 0.0488,0.073 0.0171,0.0861 v 0.5 l -0.0171,0.0861 -0.0488,0.073 -0.073,0.0488 -0.0861,0.0171 h -0.45 l -0.0861,-0.0171 -0.073,-0.0488 -0.0488,-0.073 -0.0171,-0.0861 z"
     id="path150" /><path
     style="fill:none;fill-opacity:1;fill-rule:evenodd;stroke:#ff0000;stroke-width:0.0254;stroke-linecap:round;stroke-linejoin:round;stroke-dasharray:none;stroke-opacity:1"
     d="m 99.343947,151 -0.0861,-0.0171 -0.073,-0.0488 -0.0488,-0.073 -0.0171,-0.0861 v -0.45 l 0.0171,-0.0861 0.0488,-0.073 0.073,-0.0488 0.0861,-0.0171 h 0.5 l 0.0861,0.0171 0.073,0.0488 0.0488,0.073 0.0171,0.0861 v 0.45 l -0.0171,0.0861 -0.0488,0.073 -0.073,0.0488 -0.0861,0.0171 z"
     id="path151" /><path
     style="fill:none;fill-opacity:1;fill-rule:evenodd;stroke:#ff0000;stroke-width:0.0254;stroke-linecap:round;stroke-linejoin:round;stroke-dasharray:none;stroke-opacity:1"
     d="m 99.343947,149.45 -0.0861,-0.0171 -0.073,-0.0488 -0.0488,-0.073 -0.0171,-0.0861 v -0.45 l 0.0171,-0.0861 0.0488,-0.073 0.073,-0.0488 0.0861,-0.0171 h 0.5 l 0.0861,0.0171 0.073,0.0488 0.0488,0.073 0.0171,0.0861 v 0.45 l -0.0171,0.0861 -0.0488,0.073 -0.073,0.0488 -0.0861,0.0171 z"
     id="path152" /><path
     style="fill:none;fill-opacity:1;fill-rule:evenodd;stroke:#ff0000;stroke-width:0.0254;stroke-linecap:round;stroke-linejoin:round;stroke-dasharray:none;stroke-opacity:1"
     d="m 115.72395,164.19 v -0.58 h 0.5 v 0.58 z"
     id="path153" /><path
     style="fill:none;fill-opacity:1;fill-rule:evenodd;stroke:#ff0000;stroke-width:0.0254;stroke-linecap:round;stroke-linejoin:round;stroke-dasharray:none;stroke-opacity:1"
     d="m 117.52395,164.19 h -0.8 v -0.58 h 0.8 z"
     id="path154" /><path
     style="fill:none;fill-opacity:1;fill-rule:evenodd;stroke:#ff0000;stroke-width:0.0254;stroke-linecap:round;stroke-linejoin:round;stroke-dasharray:none;stroke-opacity:1"
     d="m 117.02395,162.17 v -0.58 h 0.5 v 0.58 z"
     id="path155" /><path
     style="fill:none;fill-opacity:1;fill-rule:evenodd;stroke:#ff0000;stroke-width:0.0254;stroke-linecap:round;stroke-linejoin:round;stroke-dasharray:none;stroke-opacity:1"
     d="m 115.72395,162.17 v -0.58 h 0.5 v 0.58 z"
     id="path156" /><path
     style="fill:none;fill-opacity:1;fill-rule:evenodd;stroke:#ff0000;stroke-width:0.0254;stroke-linecap:round;stroke-linejoin:round;stroke-dasharray:none;stroke-opacity:1"
     d="m 130.89145,129.18 h -0.675 v -0.4 h 0.675 z"
     id="path157" /><path
     style="fill:none;fill-opacity:1;fill-rule:evenodd;stroke:#ff0000;stroke-width:0.0254;stroke-linecap:round;stroke-linejoin:round;stroke-dasharray:none;stroke-opacity:1"
     d="m 130.89145,130.24 h -0.675 v -0.4 h 0.675 z"
     id="path158" /><path
     style="fill:none;fill-opacity:1;fill-rule:evenodd;stroke:#ff0000;stroke-width:0.0254;stroke-linecap:round;stroke-linejoin:round;stroke-dasharray:none;stroke-opacity:1"
     d="m 130.89145,131.3 h -0.675 v -0.4 h 0.675 z"
     id="path159" /><path
     style="fill:none;fill-opacity:1;fill-rule:evenodd;stroke:#ff0000;stroke-width:0.0254;stroke-linecap:round;stroke-linejoin:round;stroke-dasharray:none;stroke-opacity:1"
     d="m 130.89145,132.36 h -0.675 v -0.4 h 0.675 z"
     id="path160" /><path
     style="fill:none;fill-opacity:1;fill-rule:evenodd;stroke:#ff0000;stroke-width:0.0254;stroke-linecap:round;stroke-linejoin:round;stroke-dasharray:none;stroke-opacity:1"
     d="m 130.89145,133.42 h -0.675 v -0.4 h 0.675 z"
     id="path161" /><path
     style="fill:none;fill-opacity:1;fill-rule:evenodd;stroke:#ff0000;stroke-width:0.0254;stroke-linecap:round;stroke-linejoin:round;stroke-dasharray:none;stroke-opacity:1"
     d="m 130.89145,134.48 h -0.675 v -0.4 h 0.675 z"
     id="path162" /><path
     style="fill:none;fill-opacity:1;fill-rule:evenodd;stroke:#ff0000;stroke-width:0.0254;stroke-linecap:round;stroke-linejoin:round;stroke-dasharray:none;stroke-opacity:1"
     d="m 130.89145,135.54 h -0.675 v -0.4 h 0.675 z"
     id="path163" /><path
     style="fill:none;fill-opacity:1;fill-rule:evenodd;stroke:#ff0000;stroke-width:0.0254;stroke-linecap:round;stroke-linejoin:round;stroke-dasharray:none;stroke-opacity:1"
     d="m 137.56545,135.54 h -0.675 v -0.4 h 0.675 z"
     id="path164" /><path
     style="fill:none;fill-opacity:1;fill-rule:evenodd;stroke:#ff0000;stroke-width:0.0254;stroke-linecap:round;stroke-linejoin:round;stroke-dasharray:none;stroke-opacity:1"
     d="m 137.56545,134.48 h -0.675 v -0.4 h 0.675 z"
     id="path165" /><path
     style="fill:none;fill-opacity:1;fill-rule:evenodd;stroke:#ff0000;stroke-width:0.0254;stroke-linecap:round;stroke-linejoin:round;stroke-dasharray:none;stroke-opacity:1"
     d="m 137.56545,133.42 h -0.675 v -0.4 h 0.675 z"
     id="path166" /><path
     style="fill:none;fill-opacity:1;fill-rule:evenodd;stroke:#ff0000;stroke-width:0.0254;stroke-linecap:round;stroke-linejoin:round;stroke-dasharray:none;stroke-opacity:1"
     d="m 137.56545,132.36 h -0.675 v -0.4 h 0.675 z"
     id="path167" /><path
     style="fill:none;fill-opacity:1;fill-rule:evenodd;stroke:#ff0000;stroke-width:0.0254;stroke-linecap:round;stroke-linejoin:round;stroke-dasharray:none;stroke-opacity:1"
     d="m 137.56545,131.3 h -0.675 v -0.4 h 0.675 z"
     id="path168" /><path
     style="fill:none;fill-opacity:1;fill-rule:evenodd;stroke:#ff0000;stroke-width:0.0254;stroke-linecap:round;stroke-linejoin:round;stroke-dasharray:none;stroke-opacity:1"
     d="m 137.56545,130.24 h -0.675 v -0.4 h 0.675 z"
     id="path169" /><path
     style="fill:none;fill-opacity:1;fill-rule:evenodd;stroke:#ff0000;stroke-width:0.0254;stroke-linecap:round;stroke-linejoin:round;stroke-dasharray:none;stroke-opacity:1"
     d="m 137.56545,129.18 h -0.675 v -0.4 h 0.675 z"
     id="path170" /><path
     style="fill:none;fill-opacity:1;fill-rule:evenodd;stroke:#ff0000;stroke-width:0.0254;stroke-linecap:round;stroke-linejoin:round;stroke-dasharray:none;stroke-opacity:1"
     d="m 117.02395,157.375 -0.0861,-0.0171 -0.073,-0.0488 -0.0488,-0.073 -0.0171,-0.0861 v -0.45 l 0.0171,-0.0861 0.0488,-0.073 0.073,-0.0488 0.0861,-0.0171 h 0.5 l 0.0861,0.0171 0.073,0.0488 0.0488,0.073 0.0171,0.0861 v 0.45 l -0.0171,0.0861 -0.0488,0.073 -0.073,0.0488 -0.0861,0.0171 z"
     id="path174" /><path
     style="fill:none;fill-opacity:1;fill-rule:evenodd;stroke:#ff0000;stroke-width:0.0254;stroke-linecap:round;stroke-linejoin:round;stroke-dasharray:none;stroke-opacity:1"
     d="m 117.02395,155.825 -0.0861,-0.0171 -0.073,-0.0488 -0.0488,-0.073 -0.0171,-0.0861 v -0.45 l 0.0171,-0.0861 0.0488,-0.073 0.073,-0.0488 0.0861,-0.0171 h 0.5 l 0.0861,0.0171 0.073,0.0488 0.0488,0.073 0.0171,0.0861 v 0.45 l -0.0171,0.0861 -0.0488,0.073 -0.073,0.0488 -0.0861,0.0171 z"
     id="path175" /><path
     style="fill:none;fill-opacity:1;fill-rule:evenodd;stroke:#ff0000;stroke-width:0.0254;stroke-linecap:round;stroke-linejoin:round;stroke-dasharray:none;stroke-opacity:1"
     d="m 101.16895,125.6 0.0957,0.019 0.0811,0.0542 0.0542,0.0811 0.019,0.0957 v 0.5 l -0.019,0.0957 -0.0542,0.0811 -0.0811,0.0542 -0.0957,0.019 h -0.95 l -0.0957,-0.019 -0.0811,-0.0542 -0.0542,-0.0811 -0.019,-0.0957 v -0.5 l 0.019,-0.0957 0.0542,-0.0811 0.0811,-0.0542 0.0957,-0.019 z"
     id="path176" /><path
     style="fill:none;fill-opacity:1;fill-rule:evenodd;stroke:#ff0000;stroke-width:0.0254;stroke-linecap:round;stroke-linejoin:round;stroke-dasharray:none;stroke-opacity:1"
     d="m 101.16895,127.5 0.0957,0.019 0.0811,0.0542 0.0542,0.0811 0.019,0.0957 v 0.5 l -0.019,0.0957 -0.0542,0.0811 -0.0811,0.0542 -0.0957,0.019 h -0.95 l -0.0957,-0.019 -0.0811,-0.0542 -0.0542,-0.0811 -0.019,-0.0957 v -0.5 l 0.019,-0.0957 0.0542,-0.0811 0.0811,-0.0542 0.0957,-0.019 z"
     id="path177" /><path
     style="fill:none;fill-opacity:1;fill-rule:evenodd;stroke:#ff0000;stroke-width:0.0254;stroke-linecap:round;stroke-linejoin:round;stroke-dasharray:none;stroke-opacity:1"
     d="m 126.69395,163.575 -0.019,0.0957 -0.0542,0.0811 -0.0811,0.0542 -0.0957,0.019 h -0.5 l -0.0957,-0.019 -0.0811,-0.0542 -0.0542,-0.0811 -0.019,-0.0957 v -0.95 l 0.019,-0.0957 0.0542,-0.0811 0.0811,-0.0542 0.0957,-0.019 h 0.5 l 0.0957,0.019 0.0811,0.0542 0.0542,0.0811 0.019,0.0957 z"
     id="path178" /><path
     style="fill:none;fill-opacity:1;fill-rule:evenodd;stroke:#ff0000;stroke-width:0.0254;stroke-linecap:round;stroke-linejoin:round;stroke-dasharray:none;stroke-opacity:1"
     d="m 124.79395,163.575 -0.019,0.0957 -0.0542,0.0811 -0.0811,0.0542 -0.0957,0.019 h -0.5 l -0.0957,-0.019 -0.0811,-0.0542 -0.0542,-0.0811 -0.019,-0.0957 v -0.95 l 0.019,-0.0957 0.0542,-0.0811 0.0811,-0.0542 0.0957,-0.019 h 0.5 l 0.0957,0.019 0.0811,0.0542 0.0542,0.0811 0.019,0.0957 z"
     id="path179" /><path
     style="fill:none;fill-opacity:1;fill-rule:evenodd;stroke:#ff0000;stroke-width:0.02032;stroke-linecap:round;stroke-linejoin:round;stroke-dasharray:none;stroke-opacity:1"
     d="m 59.128947,169.1118 h 1.08 v 0.32 h -1.08 z"
     id="path180" /><path
     style="fill:none;fill-opacity:1;fill-rule:evenodd;stroke:#ff0000;stroke-width:0.02032;stroke-linecap:round;stroke-linejoin:round;stroke-dasharray:none;stroke-opacity:1"
     d="m 59.128947,169.7618 h 1.08 v 0.32 h -1.08 z"
     id="path181" /><path
     style="fill:none;fill-opacity:1;fill-rule:evenodd;stroke:#ff0000;stroke-width:0.02032;stroke-linecap:round;stroke-linejoin:round;stroke-dasharray:none;stroke-opacity:1"
     d="m 59.128947,170.4118 h 1.08 v 0.32 h -1.08 z"
     id="path182" /><path
     style="fill:none;fill-opacity:1;fill-rule:evenodd;stroke:#ff0000;stroke-width:0.02032;stroke-linecap:round;stroke-linejoin:round;stroke-dasharray:none;stroke-opacity:1"
     d="m 59.128947,171.0618 h 1.08 v 0.32 h -1.08 z"
     id="path183" /><path
     style="fill:none;fill-opacity:1;fill-rule:evenodd;stroke:#ff0000;stroke-width:0.02032;stroke-linecap:round;stroke-linejoin:round;stroke-dasharray:none;stroke-opacity:1"
     d="m 59.128947,171.7118 h 1.08 v 0.32 h -1.08 z"
     id="path184" /><path
     style="fill:none;fill-opacity:1;fill-rule:evenodd;stroke:#ff0000;stroke-width:0.0254;stroke-linecap:round;stroke-linejoin:round;stroke-dasharray:none;stroke-opacity:1"
     d="m 56.218947,170.8218 h 1.55 v 1.5 h -1.55 z"
     id="path185" /><path
     style="fill:none;fill-opacity:1;fill-rule:evenodd;stroke:#ff0000;stroke-width:0.0254;stroke-linecap:round;stroke-linejoin:round;stroke-dasharray:none;stroke-opacity:1"
     d="m 56.218947,168.8218 h 1.55 v 1.5 h -1.55 z"
     id="path186" /><path
     style="fill:none;fill-opacity:1;fill-rule:evenodd;stroke:#ff0000;stroke-width:0.0254;stroke-linecap:round;stroke-linejoin:round;stroke-dasharray:none;stroke-opacity:1"
     d="m 108.34395,132.7075 0.0957,0.019 0.0811,0.0542 0.0542,0.0811 0.019,0.0957 v 0.525 l -0.019,0.0957 -0.0542,0.0811 -0.0811,0.0542 -0.0957,0.019 h -0.9 l -0.0957,-0.019 -0.0811,-0.0542 -0.0542,-0.0811 -0.019,-0.0957 v -0.525 l 0.019,-0.0957 0.0542,-0.0811 0.0811,-0.0542 0.0957,-0.019 z"
     id="path187" /><path
     style="fill:none;fill-opacity:1;fill-rule:evenodd;stroke:#ff0000;stroke-width:0.0254;stroke-linecap:round;stroke-linejoin:round;stroke-dasharray:none;stroke-opacity:1"
     d="m 108.34395,134.5325 0.0957,0.019 0.0811,0.0542 0.0542,0.0811 0.019,0.0957 v 0.525 l -0.019,0.0957 -0.0542,0.0811 -0.0811,0.0542 -0.0957,0.019 h -0.9 l -0.0957,-0.019 -0.0811,-0.0542 -0.0542,-0.0811 -0.019,-0.0957 v -0.525 l 0.019,-0.0957 0.0542,-0.0811 0.0811,-0.0542 0.0957,-0.019 z"
     id="path188" /><path
     style="fill:none;fill-opacity:1;fill-rule:evenodd;stroke:#ff0000;stroke-width:0.02032;stroke-linecap:round;stroke-linejoin:round;stroke-dasharray:none;stroke-opacity:1"
     d="m 64.667747,135.43904 0.0036,-0.018 0.01016,-0.0153 0.01528,-0.0102 0.01792,-0.004 h 1.042 l 0.018,0.004 0.01528,0.0102 0.01016,0.0153 0.0036,0.018 v 0.28192 l -0.0036,0.018 -0.01016,0.0153 -0.01528,0.0102 -0.018,0.004 h -1.042 l -0.01792,-0.004 -0.01528,-0.0102 -0.01016,-0.0153 -0.0036,-0.018 z"
     id="path189" /><path
     style="fill:none;fill-opacity:1;fill-rule:evenodd;stroke:#ff0000;stroke-width:0.02032;stroke-linecap:round;stroke-linejoin:round;stroke-dasharray:none;stroke-opacity:1"
     d="m 64.667747,136.08896 0.0036,-0.0179 0.01016,-0.0153 0.01528,-0.0102 0.01792,-0.004 h 1.042 l 0.018,0.004 0.01528,0.0102 0.01016,0.0153 0.0036,0.0179 v 0.282 l -0.0036,0.018 -0.01016,0.0153 -0.01528,0.0102 -0.018,0.004 h -1.042 l -0.01792,-0.004 -0.01528,-0.0102 -0.01016,-0.0153 -0.0036,-0.018 z"
     id="path190" /><path
     style="fill:none;fill-opacity:1;fill-rule:evenodd;stroke:#ff0000;stroke-width:0.02032;stroke-linecap:round;stroke-linejoin:round;stroke-dasharray:none;stroke-opacity:1"
     d="m 64.667747,136.73906 0.0036,-0.0179 0.01016,-0.0153 0.01528,-0.0102 0.01792,-0.003 h 1.042 l 0.018,0.003 0.01528,0.0102 0.01016,0.0153 0.0036,0.0179 v 0.282 l -0.0036,0.018 -0.01016,0.0153 -0.01528,0.0102 -0.018,0.004 h -1.042 l -0.01792,-0.004 -0.01528,-0.0102 -0.01016,-0.0153 -0.0036,-0.018 z"
     id="path191" /><path
     style="fill:none;fill-opacity:1;fill-rule:evenodd;stroke:#ff0000;stroke-width:0.02032;stroke-linecap:round;stroke-linejoin:round;stroke-dasharray:none;stroke-opacity:1"
     d="m 64.667747,137.38886 0.0036,-0.0179 0.01016,-0.0153 0.01528,-0.0102 0.01792,-0.004 h 1.042 l 0.018,0.004 0.01528,0.0102 0.01016,0.0153 0.0036,0.0179 v 0.282 l -0.0036,0.018 -0.01016,0.0153 -0.01528,0.0102 -0.018,0.003 h -1.042 l -0.01792,-0.003 -0.01528,-0.0102 -0.01016,-0.0153 -0.0036,-0.018 z"
     id="path192" /><path
     style="fill:none;fill-opacity:1;fill-rule:evenodd;stroke:#ff0000;stroke-width:0.02032;stroke-linecap:round;stroke-linejoin:round;stroke-dasharray:none;stroke-opacity:1"
     d="m 68.997747,137.38886 0.0036,-0.0179 0.01016,-0.0153 0.01528,-0.0102 0.01792,-0.004 h 1.042 l 0.018,0.004 0.01528,0.0102 0.01016,0.0153 0.0036,0.0179 v 0.282 l -0.0036,0.018 -0.01016,0.0153 -0.01528,0.0102 -0.018,0.003 h -1.042 l -0.01792,-0.003 -0.01528,-0.0102 -0.01016,-0.0153 -0.0036,-0.018 z"
     id="path193" /><path
     style="fill:none;fill-opacity:1;fill-rule:evenodd;stroke:#ff0000;stroke-width:0.02032;stroke-linecap:round;stroke-linejoin:round;stroke-dasharray:none;stroke-opacity:1"
     d="m 68.997747,136.73906 0.0036,-0.0179 0.01016,-0.0153 0.01528,-0.0102 0.01792,-0.003 h 1.042 l 0.018,0.003 0.01528,0.0102 0.01016,0.0153 0.0036,0.0179 v 0.282 l -0.0036,0.018 -0.01016,0.0153 -0.01528,0.0102 -0.018,0.004 h -1.042 l -0.01792,-0.004 -0.01528,-0.0102 -0.01016,-0.0153 -0.0036,-0.018 z"
     id="path194" /><path
     style="fill:none;fill-opacity:1;fill-rule:evenodd;stroke:#ff0000;stroke-width:0.02032;stroke-linecap:round;stroke-linejoin:round;stroke-dasharray:none;stroke-opacity:1"
     d="m 68.997747,136.08896 0.0036,-0.0179 0.01016,-0.0153 0.01528,-0.0102 0.01792,-0.004 h 1.042 l 0.018,0.004 0.01528,0.0102 0.01016,0.0153 0.0036,0.0179 v 0.282 l -0.0036,0.018 -0.01016,0.0153 -0.01528,0.0102 -0.018,0.004 h -1.042 l -0.01792,-0.004 -0.01528,-0.0102 -0.01016,-0.0153 -0.0036,-0.018 z"
     id="path195" /><path
     style="fill:none;fill-opacity:1;fill-rule:evenodd;stroke:#ff0000;stroke-width:0.02032;stroke-linecap:round;stroke-linejoin:round;stroke-dasharray:none;stroke-opacity:1"
     d="m 68.997747,135.43904 0.0036,-0.018 0.01016,-0.0153 0.01528,-0.0102 0.01792,-0.004 h 1.042 l 0.018,0.004 0.01528,0.0102 0.01016,0.0153 0.0036,0.018 v 0.28192 l -0.0036,0.018 -0.01016,0.0153 -0.01528,0.0102 -0.018,0.004 h -1.042 l -0.01792,-0.004 -0.01528,-0.0102 -0.01016,-0.0153 -0.0036,-0.018 z"
     id="path196" /><path
     style="fill:none;fill-opacity:1;fill-rule:evenodd;stroke:#ff0000;stroke-width:0.02413;stroke-linecap:round;stroke-linejoin:round;stroke-dasharray:none;stroke-opacity:1"
     d="m 73.687622,137.42962 v -0.45125 h 0.35625 v 0.45125 z"
     id="path197" /><path
     style="fill:none;fill-opacity:1;fill-rule:evenodd;stroke:#ff0000;stroke-width:0.02413;stroke-linecap:round;stroke-linejoin:round;stroke-dasharray:none;stroke-opacity:1"
     d="m 74.363622,137.42962 v -0.45124 h 0.35625 v 0.45124 z"
     id="path198" /><path
     style="fill:none;fill-opacity:1;fill-rule:evenodd;stroke:#ff0000;stroke-width:0.02413;stroke-linecap:round;stroke-linejoin:round;stroke-dasharray:none;stroke-opacity:1"
     d="m 74.363622,136.45562 v -0.45125 h 0.35625 v 0.45125 z"
     id="path199" /><path
     style="fill:none;fill-opacity:1;fill-rule:evenodd;stroke:#ff0000;stroke-width:0.02413;stroke-linecap:round;stroke-linejoin:round;stroke-dasharray:none;stroke-opacity:1"
     d="m 73.687622,136.45562 v -0.45125 h 0.35625 v 0.45125 z"
     id="path200" /><path
     style="fill:none;fill-opacity:1;fill-rule:evenodd;stroke:#ff0000;stroke-width:0.0254;stroke-linecap:round;stroke-linejoin:round;stroke-dasharray:none;stroke-opacity:1"
     d="m 73.143947,142.575 -0.0861,-0.0171 -0.073,-0.0488 -0.0488,-0.073 -0.0171,-0.0861 v -0.45 l 0.0171,-0.0861 0.0488,-0.073 0.073,-0.0488 0.0861,-0.0171 h 0.5 l 0.0861,0.0171 0.073,0.0488 0.0488,0.073 0.0171,0.0861 v 0.45 l -0.0171,0.0861 -0.0488,0.073 -0.073,0.0488 -0.0861,0.0171 z"
     id="path201" /><path
     style="fill:none;fill-opacity:1;fill-rule:evenodd;stroke:#ff0000;stroke-width:0.0254;stroke-linecap:round;stroke-linejoin:round;stroke-dasharray:none;stroke-opacity:1"
     d="m 73.143947,141.025 -0.0861,-0.0171 -0.073,-0.0488 -0.0488,-0.073 -0.0171,-0.0861 v -0.45 l 0.0171,-0.0861 0.0488,-0.073 0.073,-0.0488 0.0861,-0.0171 h 0.5 l 0.0861,0.0171 0.073,0.0488 0.0488,0.073 0.0171,0.0861 v 0.45 l -0.0171,0.0861 -0.0488,0.073 -0.073,0.0488 -0.0861,0.0171 z"
     id="path202" /><path
     style="fill:none;fill-opacity:1;fill-rule:evenodd;stroke:#ff0000;stroke-width:0.02413;stroke-linecap:round;stroke-linejoin:round;stroke-dasharray:none;stroke-opacity:1"
     d="m 135.41582,153.19962 v -0.45125 h 0.35626 v 0.45125 z"
     id="path203" /><path
     style="fill:none;fill-opacity:1;fill-rule:evenodd;stroke:#ff0000;stroke-width:0.02413;stroke-linecap:round;stroke-linejoin:round;stroke-dasharray:none;stroke-opacity:1"
     d="m 136.09182,153.19962 v -0.45125 h 0.35625 v 0.45125 z"
     id="path204" /><path
     style="fill:none;fill-opacity:1;fill-rule:evenodd;stroke:#ff0000;stroke-width:0.02413;stroke-linecap:round;stroke-linejoin:round;stroke-dasharray:none;stroke-opacity:1"
     d="m 136.09182,152.22562 v -0.45125 h 0.35625 v 0.45125 z"
     id="path205" /><path
     style="fill:none;fill-opacity:1;fill-rule:evenodd;stroke:#ff0000;stroke-width:0.02413;stroke-linecap:round;stroke-linejoin:round;stroke-dasharray:none;stroke-opacity:1"
     d="m 135.41582,152.22562 v -0.45125 h 0.35625 v 0.45125 z"
     id="path206" /><path
     style="fill:none;fill-opacity:1;fill-rule:evenodd;stroke:#ff0000;stroke-width:0.0254;stroke-linecap:round;stroke-linejoin:round;stroke-dasharray:none;stroke-opacity:1"
     d="m 127.79395,131.075 -0.019,0.0957 -0.0542,0.0811 -0.0811,0.0542 -0.0957,0.019 h -0.5 l -0.0957,-0.019 -0.0811,-0.0542 -0.0542,-0.0811 -0.019,-0.0957 v -0.95 l 0.019,-0.0957 0.0542,-0.0811 0.0811,-0.0542 0.0957,-0.019 h 0.5 l 0.0957,0.019 0.0811,0.0542 0.0542,0.0811 0.019,0.0957 z"
     id="path207" /><path
     style="fill:none;fill-opacity:1;fill-rule:evenodd;stroke:#ff0000;stroke-width:0.0254;stroke-linecap:round;stroke-linejoin:round;stroke-dasharray:none;stroke-opacity:1"
     d="m 125.89395,131.075 -0.019,0.0957 -0.0542,0.0811 -0.0811,0.0542 -0.0957,0.019 h -0.5 l -0.0957,-0.019 -0.0811,-0.0542 -0.0542,-0.0811 -0.019,-0.0957 v -0.95 l 0.019,-0.0957 0.0542,-0.0811 0.0811,-0.0542 0.0957,-0.019 h 0.5 l 0.0957,0.019 0.0811,0.0542 0.0542,0.0811 0.019,0.0957 z"
     id="path208" /><path
     style="fill:none;fill-opacity:1;fill-rule:evenodd;stroke:#ff0000;stroke-width:0.0254;stroke-linecap:round;stroke-linejoin:round;stroke-dasharray:none;stroke-opacity:1"
     d="m 122.51895,127.5 -0.0957,-0.019 -0.0811,-0.0542 -0.0542,-0.0811 -0.019,-0.0957 v -0.5 l 0.019,-0.0957 0.0542,-0.0811 0.0811,-0.0542 0.0957,-0.019 h 0.95 l 0.0957,0.019 0.0811,0.0542 0.0542,0.0811 0.019,0.0957 v 0.5 l -0.019,0.0957 -0.0542,0.0811 -0.0811,0.0542 -0.0957,0.019 z"
     id="path209" /><path
     style="fill:none;fill-opacity:1;fill-rule:evenodd;stroke:#ff0000;stroke-width:0.0254;stroke-linecap:round;stroke-linejoin:round;stroke-dasharray:none;stroke-opacity:1"
     d="m 122.51895,125.6 -0.0957,-0.019 -0.0811,-0.0542 -0.0542,-0.0811 -0.019,-0.0957 v -0.5 l 0.019,-0.0957 0.0542,-0.0811 0.0811,-0.0542 0.0957,-0.019 h 0.95 l 0.0957,0.019 0.0811,0.0542 0.0542,0.0811 0.019,0.0957 v 0.5 l -0.019,0.0957 -0.0542,0.0811 -0.0811,0.0542 -0.0957,0.019 z"
     id="path210" /><rect
     style="fill:none;fill-opacity:0.899998;stroke:#ff0000;stroke-width:0.0254;stroke-dasharray:none;stroke-opacity:1"
     id="rect1"
     width="2.1228433"
     height="2.1064568"
     x="131.51701"
     y="128.98633" /><rect
     style="fill:none;fill-opacity:0.899998;stroke:#ff0000;stroke-width:0.0254;stroke-dasharray:none;stroke-opacity:1"
     id="rect1-0"
     width="2.1228433"
     height="2.1064568"
     x="134.14688"
     y="129.00081" /><rect
     style="fill:none;fill-opacity:0.899998;stroke:#ff0000;stroke-width:0.0254;stroke-dasharray:none;stroke-opacity:1"
     id="rect1-2"
     width="2.1228433"
     height="2.1064568"
     x="131.50206"
     y="133.2205" /><rect
     style="fill:none;fill-opacity:0.899998;stroke:#ff0000;stroke-width:0.0254;stroke-dasharray:none;stroke-opacity:1"
     id="rect1-0-9"
     width="2.1228433"
     height="2.1064568"
     x="134.13193"
     y="133.23499" /><rect
     style="fill:none;fill-opacity:0.899998;stroke:#ff0000;stroke-width:0.0254;stroke-dasharray:none;stroke-opacity:1"
     id="rect1-1"
     width="2.2936027"
     height="1.3209872"
     x="132.74258"
     y="131.50917" /></svg>
